<svg width="16" height="15" viewBox="0 0 16 15" fill="none" xmlns="http://www.w3.org/2000/svg">
<path d="M7.89258 0C8.14122 0 8.37968 0.0987722 8.55549 0.274588C8.73131 0.450403 8.83008 0.68886 8.83008 0.9375V6.5625H14.4551C14.7037 6.5625 14.9422 6.66127 15.118 6.83709C15.2938 7.0129 15.3926 7.25136 15.3926 7.5C15.3926 7.74864 15.2938 7.9871 15.118 8.16291C14.9422 8.33873 14.7037 8.4375 14.4551 8.4375H8.83008V14.0625C8.83008 14.3111 8.73131 14.5496 8.55549 14.7254C8.37968 14.9012 8.14122 15 7.89258 15C7.64394 15 7.40548 14.9012 7.22967 14.7254C7.05385 14.5496 6.95508 14.3111 6.95508 14.0625V8.4375H1.33008C1.08144 8.4375 0.842981 8.33873 0.667166 8.16291C0.49135 7.9871 0.392578 7.74864 0.392578 7.5C0.392578 7.25136 0.49135 7.0129 0.667166 6.83709C0.842981 6.66127 1.08144 6.5625 1.33008 6.5625H6.95508V0.9375C6.95508 0.68886 7.05385 0.450403 7.22967 0.274588C7.40548 0.0987722 7.64394 0 7.89258 0Z" fill="black"/>
</svg>
