<svg width="20" height="19" viewBox="0 0 20 19" fill="none" xmlns="http://www.w3.org/2000/svg">
<path d="M19.219 4.54225C18.6981 4.0475 18.0698 3.80005 17.3337 3.80005H15.0003L14.4691 2.4543C14.3371 2.13108 14.0959 1.8523 13.7451 1.618C13.3943 1.38379 13.035 1.2666 12.6669 1.2666H7.33341C6.96535 1.2666 6.60593 1.38379 6.2552 1.618C5.90446 1.8523 5.66322 2.13108 5.53125 2.4543L5.00003 3.80005H2.66668C1.93044 3.80005 1.30209 4.0475 0.781188 4.54225C0.260396 5.03704 0 5.63404 0 6.3334V15.2002C0 15.8995 0.260396 16.4966 0.781188 16.9913C1.30209 17.4861 1.93048 17.7336 2.66668 17.7336H17.3334C18.0696 17.7336 18.6978 17.4861 19.2188 16.9913C19.7395 16.4966 20 15.8995 20 15.2002V6.3334C20.0001 5.63404 19.7397 5.03704 19.219 4.54225ZM13.2969 13.8989C12.3838 14.7665 11.2849 15.2004 10.0001 15.2004C8.71522 15.2004 7.61643 14.7665 6.70316 13.8989C5.7899 13.0315 5.33336 11.9873 5.33336 10.767C5.33336 9.54634 5.79005 8.50252 6.70316 7.63492C7.61632 6.76732 8.71526 6.3336 10.0001 6.3336C11.2849 6.3336 12.3838 6.76742 13.2969 7.63492C14.2102 8.50242 14.6668 9.54634 14.6668 10.767C14.6668 11.9873 14.2102 13.0314 13.2969 13.8989Z" fill="#FFF"/>
<path d="M10 7.91675C9.17357 7.91675 8.46696 8.19549 7.88013 8.75305C7.29329 9.31054 6.99988 9.98172 6.99988 10.767C6.99988 11.552 7.29329 12.2232 7.88013 12.7807C8.46696 13.3381 9.17353 13.6169 10 13.6169C10.8263 13.6169 11.533 13.3381 12.1198 12.7807C12.7067 12.2232 13.0001 11.552 13.0001 10.767C13.0001 9.98175 12.7067 9.31057 12.1198 8.75305C11.533 8.19553 10.8263 7.91675 10 7.91675Z" fill="#FFF"/>
</svg>
