<svg width="20" height="17" viewBox="0 0 20 17" fill="none" xmlns="http://www.w3.org/2000/svg">
<path d="M19.219 3.27565C18.6981 2.78089 18.0698 2.53345 17.3337 2.53345H15.0003L14.4691 1.1877C14.3371 0.864482 14.0959 0.585703 13.7451 0.351394C13.3943 0.117189 13.035 0 12.6669 0H7.33341C6.96535 0 6.60593 0.117189 6.2552 0.351394C5.90446 0.585703 5.66322 0.864482 5.53125 1.1877L5.00003 2.53345H2.66668C1.93044 2.53345 1.30209 2.78089 0.781188 3.27565C0.260396 3.77043 0 4.36744 0 5.06679V13.9336C0 14.6329 0.260396 15.23 0.781188 15.7247C1.30209 16.2195 1.93048 16.467 2.66668 16.467H17.3334C18.0696 16.467 18.6978 16.2195 19.2188 15.7247C19.7395 15.23 20 14.6329 20 13.9336V5.06679C20.0001 4.36744 19.7397 3.77043 19.219 3.27565ZM13.2969 12.6323C12.3838 13.4999 11.2849 13.9338 10.0001 13.9338C8.71522 13.9338 7.61643 13.4999 6.70316 12.6323C5.7899 11.7649 5.33336 10.7207 5.33336 9.50043C5.33336 8.27974 5.79005 7.23592 6.70316 6.36832C7.61632 5.50072 8.71526 5.067 10.0001 5.067C11.2849 5.067 12.3838 5.50082 13.2969 6.36832C14.2102 7.23582 14.6668 8.27974 14.6668 9.50043C14.6668 10.7207 14.2102 11.7648 13.2969 12.6323Z" fill="#3B5998"/>
<path d="M10.0001 6.65039C9.17369 6.65039 8.46708 6.92913 7.88025 7.48669C7.29342 8.04418 7 8.71536 7 9.50064C7 10.2856 7.29342 10.9569 7.88025 11.5144C8.46708 12.0718 9.17366 12.3505 10.0001 12.3505C10.8264 12.3505 11.5331 12.0718 12.12 11.5144C12.7068 10.9569 13.0002 10.2856 13.0002 9.50064C13.0002 8.71539 12.7068 8.04422 12.12 7.48669C11.5332 6.92917 10.8264 6.65039 10.0001 6.65039Z" fill="#3B5998"/>
</svg>
