<svg xmlns="http://www.w3.org/2000/svg" width="25" height="22.5" viewBox="0 0 25 22.5">
  <g id="camera" transform="translate(0 -25.5)">
    <g id="camera-alt" transform="translate(0 25.5)">
      <circle id="Ellipse_9" data-name="Ellipse 9" cx="4" cy="4" r="4" transform="translate(8.5 8.5)"/>
      <path id="Path_95" data-name="Path 95" d="M8.75,25.5,6.5,28h-4A2.507,2.507,0,0,0,0,30.5v15A2.507,2.507,0,0,0,2.5,48h20A2.507,2.507,0,0,0,25,45.5v-15A2.507,2.507,0,0,0,22.5,28h-4l-2.25-2.5ZM12.5,44.25A6.25,6.25,0,1,1,18.75,38,6.189,6.189,0,0,1,12.5,44.25Z" transform="translate(0 -25.5)" fill="#FFF"/>
    </g>
  </g>
</svg>
