<svg width="19" height="19" viewBox="0 0 19 19" fill="none" xmlns="http://www.w3.org/2000/svg">
<path fill-rule="evenodd" clip-rule="evenodd" d="M17.9498 17.9878C17.4868 18.4508 16.7361 18.4508 16.2731 17.9878L1.18326 2.89799C0.72027 2.43499 0.720269 1.68433 1.18326 1.22133C1.64626 0.75834 2.39692 0.758341 2.85991 1.22133L17.9498 16.3112C18.4128 16.7742 18.4128 17.5249 17.9498 17.9878Z" fill="#B1B2B3"/>
<path fill-rule="evenodd" clip-rule="evenodd" d="M1.1833 17.9887C0.720302 17.5257 0.720302 16.7751 1.1833 16.3121L16.2732 1.22221C16.7362 0.75921 17.4868 0.759209 17.9498 1.2222C18.4128 1.6852 18.4128 2.43586 17.9498 2.89886L2.85995 17.9887C2.39695 18.4517 1.64629 18.4517 1.1833 17.9887Z" fill="#B1B2B3"/>
</svg>
