<?xml version="1.0" encoding="UTF-8"?>
<svg width="240px" height="240px" viewBox="0 0 240 240" version="1.1" xmlns="http://www.w3.org/2000/svg" xmlns:xlink="http://www.w3.org/1999/xlink">
    <!-- Generator: Sketch 51.3 (57544) - http://www.bohemiancoding.com/sketch -->
    <title>Group</title>
    <desc>Created with Sketch.</desc>
    <defs></defs>
    <g id="Page-1" stroke="none" stroke-width="1" fill="none" fill-rule="evenodd">
        <g id="Group" fill-rule="nonzero">
            <g id="Ellipse-2" fill="#C55482">
                <circle id="Oval" cx="120" cy="120" r="120"></circle>
            </g>
            <g id="cancel" transform="translate(53.000000, 53.000000)" fill="#FFFFFF">
                <path d="M115.227273,19.7727273 C102.471591,7.01704545 85.5397727,0 67.5,0 C49.4602273,0 32.5284091,7.01704545 19.7727273,19.7727273 C7.01704545,32.5284091 0,49.4602273 0,67.5 C0,85.5397727 7.01704545,102.471591 19.7727273,115.227273 C32.5284091,127.982955 49.4602273,135 67.5,135 C85.5397727,135 102.471591,127.982955 115.227273,115.227273 C127.982955,102.471591 135,85.5397727 135,67.5 C135,49.4602273 127.982955,32.5284091 115.227273,19.7727273 Z M109.801136,109.801136 C98.4943182,121.107955 83.4659091,127.329545 67.5,127.329545 C51.5340909,127.329545 36.5056818,121.107955 25.1988636,109.801136 C1.875,86.4772727 1.875,48.5227273 25.1988636,25.1988636 C36.5056818,13.8920455 51.5340909,7.67045455 67.5,7.67045455 C83.4659091,7.67045455 98.4943182,13.8920455 109.801136,25.1988636 C133.125,48.5227273 133.125,86.4772727 109.801136,109.801136 Z" id="Shape"></path>
                <path d="M96.884403,38.1154687 C95.3969404,36.6281771 93.0113872,36.6281771 91.5239245,38.1154687 L67.5,62.1366302 L43.4760755,38.1154687 C41.9886128,36.6281771 39.6030596,36.6281771 38.115597,38.1154687 C36.6281343,39.6027602 36.6281343,41.9880391 38.115597,43.4753306 L62.1395215,67.4964922 L38.115597,91.5176538 C36.6281343,93.0049454 36.6281343,95.3902243 38.115597,96.8775158 C38.8452956,97.6071305 39.8275822,98 40.7818035,98 C41.7360248,98 42.7183115,97.6351926 43.4480101,96.8775158 L67.4719347,72.8563542 L91.4958592,96.8775158 C92.2255579,97.6071305 93.2078445,98 94.1620658,98 C95.1443524,98 96.0985737,97.6351926 96.8282724,96.8775158 C98.315735,95.3902243 98.315735,93.0049454 96.8282724,91.5176538 L72.8604785,67.4964922 L96.884403,43.4753306 C98.3718657,41.9880391 98.3718657,39.6027602 96.884403,38.1154687 Z" id="Shape"></path>
            </g>
        </g>
    </g>
</svg>