<svg width="34" height="30" viewBox="0 0 34 30" fill="none" xmlns="http://www.w3.org/2000/svg">
<path fill-rule="evenodd" clip-rule="evenodd" d="M1 10.1638C1 9.89375 1.21892 9.67482 1.489 9.67482H4.91199C5.13348 9.67293 5.3449 9.84072 5.39336 10.0569L5.82886 12.1198H22.516C22.8068 12.1219 23.0533 12.432 22.9897 12.7158L21.2782 20.0508C21.2303 20.2644 21.0234 20.4304 20.8045 20.4328H7.5862L7.9988 22.3888H19.8265C20.0848 22.3851 20.3224 22.6194 20.3224 22.8778C20.3224 23.1362 20.0848 23.3704 19.8265 23.3668H7.60149C7.322 23.3808 7.06329 23.1105 7.08955 22.8319L4.51468 10.6528H1.489C1.21892 10.6528 1 10.4339 1 10.1638ZM21.9048 13.0977H6.03528L7.38003 19.4547H20.4149L21.9048 13.0977ZM10.2909 24.8336C9.08137 24.8336 8.09036 25.8246 8.09036 27.0341C8.09036 28.2437 9.08137 29.2346 10.2909 29.2346C11.5004 29.2346 12.4914 28.2437 12.4914 27.0341C12.4914 25.8246 11.5004 24.8336 10.2909 24.8336ZM14.9365 27.0341C14.9365 25.8246 15.9275 24.8336 17.137 24.8336C18.3465 24.8336 19.3375 25.8246 19.3375 27.0341C19.3375 28.2437 18.3465 29.2346 17.137 29.2346C15.9275 29.2346 14.9365 28.2437 14.9365 27.0341ZM10.291 25.8114C10.9719 25.8114 11.5135 26.3529 11.5135 27.0339C11.5135 27.7149 10.9719 28.2564 10.291 28.2564C9.61005 28.2564 9.06848 27.7149 9.06848 27.0339C9.06848 26.3529 9.61005 25.8114 10.291 25.8114ZM18.3596 27.0339C18.3596 26.3529 17.818 25.8114 17.1371 25.8114C16.4562 25.8114 15.9146 26.3529 15.9146 27.0339C15.9146 27.7149 16.4562 28.2564 17.1371 28.2564C17.818 28.2564 18.3596 27.7149 18.3596 27.0339Z" fill="#24272A"/>
<path d="M4.91199 9.67482L4.91199 9.92483L4.91412 9.92481L4.91199 9.67482ZM5.39336 10.0569L5.63799 10.0052L5.6373 10.0022L5.39336 10.0569ZM5.82886 12.1198L5.58425 12.1715L5.62613 12.3698H5.82886V12.1198ZM22.516 12.1198L22.5177 11.8698H22.516V12.1198ZM22.9897 12.7158L23.2331 12.7726L23.2336 12.7705L22.9897 12.7158ZM21.2782 20.0508L21.0347 19.994L21.0342 19.9961L21.2782 20.0508ZM20.8045 20.4328V20.6828L20.8072 20.6828L20.8045 20.4328ZM7.5862 20.4328V20.1828H7.27797L7.34159 20.4844L7.5862 20.4328ZM7.9988 22.3888L7.75418 22.4404L7.79603 22.6388H7.9988V22.3888ZM19.8265 22.3888V22.6388L19.83 22.6387L19.8265 22.3888ZM19.8265 23.3668L19.83 23.1168H19.8265V23.3668ZM7.60149 23.3668V23.1165L7.58893 23.1171L7.60149 23.3668ZM7.08955 22.8319L7.33845 22.8554L7.34202 22.8175L7.33415 22.7802L7.08955 22.8319ZM4.51468 10.6528L4.75927 10.6011L4.71735 10.4028H4.51468V10.6528ZM6.03528 13.0977V12.8477H5.72686L5.79069 13.1494L6.03528 13.0977ZM21.9048 13.0977L22.1482 13.1547L22.2202 12.8477H21.9048V13.0977ZM7.38003 19.4547L7.13544 19.5064L7.17738 19.7047H7.38003V19.4547ZM20.4149 19.4547V19.7047H20.6131L20.6583 19.5117L20.4149 19.4547ZM1.489 9.42482C1.08085 9.42482 0.75 9.75568 0.75 10.1638H1.25C1.25 10.0318 1.357 9.92482 1.489 9.92482V9.42482ZM4.91199 9.42482H1.489V9.92482H4.91199V9.42482ZM5.6373 10.0022C5.56307 9.67108 5.24914 9.42193 4.90986 9.42483L4.91412 9.92481C5.01783 9.92393 5.12673 10.0104 5.14942 10.1115L5.6373 10.0022ZM6.07347 12.0682L5.63797 10.0052L5.14875 10.1085L5.58425 12.1715L6.07347 12.0682ZM22.516 11.8698H5.82886V12.3698H22.516V11.8698ZM23.2336 12.7705C23.285 12.5413 23.2091 12.3172 23.0814 12.1566C22.9537 11.9959 22.7526 11.8715 22.5177 11.8698L22.5142 12.3698C22.5701 12.3702 22.6377 12.4019 22.69 12.4677C22.7424 12.5336 22.758 12.6065 22.7457 12.6611L23.2336 12.7705ZM21.5216 20.1076L23.2331 12.7726L22.7462 12.659L21.0347 19.994L21.5216 20.1076ZM20.8072 20.6828C21.1409 20.6791 21.4486 20.4334 21.5221 20.1055L21.0342 19.9961C21.012 20.0954 20.9059 20.1817 20.8017 20.1828L20.8072 20.6828ZM7.5862 20.6828H20.8045V20.1828H7.5862V20.6828ZM8.24341 22.3372L7.83082 20.3812L7.34159 20.4844L7.75418 22.4404L8.24341 22.3372ZM19.8265 22.1388H7.9988V22.6388H19.8265V22.1388ZM20.5724 22.8778C20.5724 22.4799 20.2207 22.1332 19.8229 22.1388L19.83 22.6387C19.9489 22.6371 20.0724 22.7589 20.0724 22.8778H20.5724ZM19.8229 23.6167C20.2207 23.6224 20.5724 23.2756 20.5724 22.8778H20.0724C20.0724 22.9967 19.9489 23.1185 19.83 23.1168L19.8229 23.6167ZM7.60149 23.6168H19.8265V23.1168H7.60149V23.6168ZM6.84066 22.8085C6.81956 23.0323 6.91298 23.2385 7.05026 23.382C7.18754 23.5254 7.38947 23.6277 7.61404 23.6165L7.58893 23.1171C7.53402 23.1198 7.46684 23.0941 7.41147 23.0362C7.35609 22.9784 7.33329 22.9101 7.33845 22.8554L6.84066 22.8085ZM4.27009 10.7045L6.84496 22.8836L7.33415 22.7802L4.75927 10.6011L4.27009 10.7045ZM1.489 10.9028H4.51468V10.4028H1.489V10.9028ZM0.75 10.1638C0.75 10.572 1.08085 10.9028 1.489 10.9028V10.4028C1.357 10.4028 1.25 10.2958 1.25 10.1638H0.75ZM6.03528 13.3477H21.9048V12.8477H6.03528V13.3477ZM7.62461 19.4029L6.27987 13.0459L5.79069 13.1494L7.13544 19.5064L7.62461 19.4029ZM20.4149 19.2047H7.38003V19.7047H20.4149V19.2047ZM21.6614 13.0406L20.1715 19.3976L20.6583 19.5117L22.1482 13.1547L21.6614 13.0406ZM8.34036 27.0341C8.34036 25.9627 9.21944 25.0836 10.2909 25.0836V24.5836C8.9433 24.5836 7.84036 25.6866 7.84036 27.0341H8.34036ZM10.2909 28.9846C9.21944 28.9846 8.34036 28.1056 8.34036 27.0341H7.84036C7.84036 28.3817 8.9433 29.4846 10.2909 29.4846V28.9846ZM12.2414 27.0341C12.2414 28.1056 11.3623 28.9846 10.2909 28.9846V29.4846C11.6384 29.4846 12.7414 28.3817 12.7414 27.0341H12.2414ZM10.2909 25.0836C11.3623 25.0836 12.2414 25.9627 12.2414 27.0341H12.7414C12.7414 25.6866 11.6384 24.5836 10.2909 24.5836V25.0836ZM17.137 24.5836C15.7894 24.5836 14.6865 25.6866 14.6865 27.0341H15.1865C15.1865 25.9627 16.0655 25.0836 17.137 25.0836V24.5836ZM19.5875 27.0341C19.5875 25.6866 18.4845 24.5836 17.137 24.5836V25.0836C18.2084 25.0836 19.0875 25.9627 19.0875 27.0341H19.5875ZM17.137 29.4846C18.4845 29.4846 19.5875 28.3817 19.5875 27.0341H19.0875C19.0875 28.1056 18.2084 28.9846 17.137 28.9846V29.4846ZM14.6865 27.0341C14.6865 28.3817 15.7894 29.4846 17.137 29.4846V28.9846C16.0655 28.9846 15.1865 28.1056 15.1865 27.0341H14.6865ZM11.7635 27.0339C11.7635 26.2149 11.11 25.5614 10.291 25.5614V26.0614C10.8339 26.0614 11.2635 26.491 11.2635 27.0339H11.7635ZM10.291 28.5064C11.11 28.5064 11.7635 27.8529 11.7635 27.0339H11.2635C11.2635 27.5768 10.8339 28.0064 10.291 28.0064V28.5064ZM8.81848 27.0339C8.81848 27.8529 9.47198 28.5064 10.291 28.5064V28.0064C9.74812 28.0064 9.31848 27.5768 9.31848 27.0339H8.81848ZM10.291 25.5614C9.47198 25.5614 8.81848 26.2149 8.81848 27.0339H9.31848C9.31848 26.491 9.74812 26.0614 10.291 26.0614V25.5614ZM17.1371 26.0614C17.68 26.0614 18.1096 26.491 18.1096 27.0339H18.6096C18.6096 26.2149 17.9561 25.5614 17.1371 25.5614V26.0614ZM16.1646 27.0339C16.1646 26.491 16.5942 26.0614 17.1371 26.0614V25.5614C16.3181 25.5614 15.6646 26.2149 15.6646 27.0339H16.1646ZM17.1371 28.0064C16.5942 28.0064 16.1646 27.5768 16.1646 27.0339H15.6646C15.6646 27.8529 16.3181 28.5064 17.1371 28.5064V28.0064ZM18.1096 27.0339C18.1096 27.5768 17.68 28.0064 17.1371 28.0064V28.5064C17.9561 28.5064 18.6096 27.8529 18.6096 27.0339H18.1096Z" fill="#24272A"/>
<path fill-rule="evenodd" clip-rule="evenodd" d="M30.1679 5.01942C29.7265 7.38742 27 9.18447 27 9.18447C28.627 7.71891 29.0345 4.90985 27.7611 1.80767C27.5063 1.27138 27.2571 0.674526 27 0V0.201572V0C25.4206 4.14101 24.1408 5.42071 20 7C24.1408 8.57883 25.4206 9.85899 27 14V13.7984V14C28.5785 9.85899 29.8592 8.57883 34 7C32.3232 6.36015 31.1161 5.77023 30.1679 5.01942" fill="#3B5998"/>
</svg>
