<svg width="24" height="25" viewBox="0 0 24 25" fill="none" xmlns="http://www.w3.org/2000/svg">
<circle cx="12" cy="12.1279" r="12" fill="#A3D3DE"/>
<path d="M16.4009 9.25083L15.1768 8.175C15.1392 8.14178 15.0893 8.12489 15.04 8.12838C14.9901 8.13168 14.9435 8.15462 14.9104 8.19228L10.4703 13.2459L8.89153 11.1563C8.86142 11.1164 8.81659 11.0901 8.76704 11.0833C8.71759 11.0759 8.6671 11.0893 8.62727 11.1196L7.32692 12.1019C7.24378 12.1648 7.22726 12.2831 7.29012 12.3663L10.2134 16.2355C10.2476 16.2807 10.3004 16.3082 10.357 16.3103C10.3593 16.3103 10.3617 16.3103 10.3639 16.3103C10.4181 16.3103 10.4698 16.2871 10.5058 16.2461L16.418 9.51717C16.4869 9.43893 16.4793 9.31954 16.4009 9.25083Z" fill="#FEFBFA"/>
</svg>
