<svg width="20" height="20" viewBox="0 0 20 20" fill="none" xmlns="http://www.w3.org/2000/svg">
<path fill-rule="evenodd" clip-rule="evenodd" d="M16.8916 19.14C17.3858 19.6419 18.1872 19.6419 18.6815 19.14C19.1757 18.6381 19.1757 17.8244 18.6815 17.3225L11.5221 10.0525L18.6816 2.78246C19.1759 2.28055 19.1759 1.46681 18.6816 0.964909C18.1873 0.463007 17.386 0.463008 16.8917 0.96491L9.73226 8.235L2.57245 0.964561C2.07819 0.46266 1.27683 0.462659 0.782563 0.964561C0.288298 1.46646 0.2883 2.28021 0.782564 2.78211L7.94237 10.0525L0.782715 17.3228C0.288451 17.8247 0.288451 18.6385 0.782715 19.1404C1.27698 19.6423 2.07834 19.6423 2.57261 19.1404L9.73226 11.8701L16.8916 19.14Z" fill="#B1B2B3"/>
</svg>
