<svg width="40" height="48" viewBox="0 0 40 48" fill="none" xmlns="http://www.w3.org/2000/svg">
<path d="M13.5814 29.4657C12.7291 31.4902 12.3893 33.6936 12.5923 35.8807C12.7952 38.0679 13.5345 40.1712 14.7447 42.0042C15.9549 43.8373 17.5987 45.3435 19.5302 46.3894C21.4618 47.4352 23.6216 47.9884 25.8181 47.9999C28.0146 48.0115 30.18 47.4809 32.1224 46.4554C34.0649 45.4299 35.7243 43.941 36.9537 42.1207C38.1831 40.3004 38.9444 38.205 39.1702 36.0201C39.3961 33.8352 39.0795 31.6284 38.2484 29.5951L26.4824 0.745117L13.5814 29.4657Z" fill="#DF603C"/>
<path d="M1.99087 23.4058C1.33243 24.9722 1.07049 26.6768 1.2282 28.3687C1.3859 30.0605 1.95844 31.6874 2.89504 33.1051C3.83165 34.5228 5.10343 35.6877 6.59776 36.4965C8.09208 37.3053 9.76279 37.7332 11.462 37.7421C13.1611 37.751 14.8363 37.3407 16.339 36.5476C17.8417 35.7545 19.1257 34.603 20.0771 33.1951C21.0285 31.7873 21.618 30.1665 21.7934 28.4764C21.9688 26.7863 21.7247 25.0791 21.0827 23.5058L11.975 1.18481L1.99087 23.4058Z" stroke="#3B5998" stroke-width="2" stroke-linecap="round" stroke-linejoin="round"/>
</svg>
