<svg width="162" height="127" viewBox="0 0 162 127" fill="none" xmlns="http://www.w3.org/2000/svg">
<path fill-rule="evenodd" clip-rule="evenodd" d="M133.533 37.2871C130.254 54.878 110 68.2275 110 68.2275C122.086 57.3405 125.113 36.4732 115.654 13.4284C113.761 9.44455 111.91 5.01077 110 0V1.49739V0C98.2674 30.7618 88.7603 40.2681 58 52C88.7603 63.7284 98.2674 73.2382 110 104V102.503V104C121.726 73.2382 131.24 63.7284 162 52C149.544 47.2468 140.577 42.8645 133.533 37.2871Z" fill="#1C4D86"/>
<path fill-rule="evenodd" clip-rule="evenodd" d="M70.7666 93.6435C69.1272 102.439 59 109.114 59 109.114C65.043 103.67 66.5567 93.2366 61.827 81.7142C60.8807 79.7223 59.9548 77.5054 59 75V75.7487V75C53.1337 90.3809 48.3802 95.1341 33 101C48.3802 106.864 53.1337 111.619 59 127V126.251V127C64.8629 111.619 69.6198 106.864 85 101C78.7718 98.6234 74.2884 96.4323 70.7666 93.6435Z" fill="#1C4D86" fill-opacity="0.7"/>
<path fill-rule="evenodd" clip-rule="evenodd" d="M26.8724 51.2656C25.7059 57.5239 18.5 62.2732 18.5 62.2732C22.7998 58.4 23.8769 50.976 20.5115 42.7774C19.8382 41.3601 19.1794 39.7827 18.5 38V38.5327V38C14.3259 48.9441 10.9436 52.3262 0 56.5C10.9436 60.6726 14.3259 64.0559 18.5 75V74.4673V75C22.6717 64.0559 26.0564 60.6726 37 56.5C32.5684 54.809 29.3783 53.2499 26.8724 51.2656Z" fill="#1C4D86" fill-opacity="0.5"/>
</svg>
