<svg xmlns="http://www.w3.org/2000/svg" xmlns:xlink="http://www.w3.org/1999/xlink" width="187" height="187" viewBox="0 0 187 187">
  <defs>
    <clipPath id="clip-path">
      <path id="Path_83" data-name="Path 83" d="M92.5,0A92.5,92.5,0,1,0,185,92.5,92.5,92.5,0,0,0,92.5,0Z" transform="translate(0 0)" fill="#fff" stroke="#cbcbcb" stroke-width="2"/>
    </clipPath>
    <clipPath id="clip-path-2">
      <path id="Path_139" data-name="Path 139" d="M129.936-432.843H0v156.919H129.936Z" transform="translate(0 432.843)" fill="none"/>
    </clipPath>
  </defs>
  <g id="Group_119" data-name="Group 119" transform="translate(1 1)">
    <g id="side_face" data-name="side face" transform="translate(0)" clip-path="url(#clip-path)">
      <g id="Side_face-2" data-name="Side_face" transform="translate(18.195 32.258)">
        <g id="Group_167" data-name="Group 167" clip-path="url(#clip-path-2)">
          <g id="Group_161" data-name="Group 161" transform="translate(35.974 0.906)">
            <path id="Path_133" data-name="Path 133" d="M-212.322-67.711c0,9.906-1.3,24.2,4.847,31.026,7.049,7.826,22.3,7.481,33.661,7.481a38.507,38.507,0,0,0,38.507-38.507,38.507,38.507,0,0,0-38.508-38.507,38.507,38.507,0,0,0-38.507,38.507" transform="translate(212.437 106.218)" fill="#fff"/>
          </g>
          <g id="Group_162" data-name="Group 162" transform="translate(35.974 0.906)">
            <path id="Path_134" data-name="Path 134" d="M-212.322-67.711c0,9.906-1.3,24.2,4.847,31.026,7.049,7.826,22.3,7.481,33.661,7.481a38.507,38.507,0,0,0,38.507-38.507,38.507,38.507,0,0,0-38.508-38.507,38.507,38.507,0,0,0-38.507,38.507Z" transform="translate(212.437 106.218)" fill="none" stroke="#cacaca" stroke-linecap="round" stroke-linejoin="round" stroke-width="2"/>
          </g>
          <g id="Group_163" data-name="Group 163" transform="translate(36.792 21.009)">
            <path id="Path_135" data-name="Path 135" d="M-163.082-44.74c0,7.19-.563,11.906,2.813,20.051,3.544,8.558,18.579,11.057,27.244,11.057,16.059,0,29.078-12.659,29.078-28.276s-13.018-28.276-29.078-28.276-30.057,9.828-30.057,25.445" transform="translate(163.117 70.185)" fill="#e6e6e6"/>
          </g>
          <g id="Group_164" data-name="Group 164" transform="translate(0.906 88.612)">
            <path id="Path_136" data-name="Path 136" d="M-353.414-117.212c13.414-21.208,33.2-66.66,73.69-66.66s42.279,29.26,54.434,67.4Z" transform="translate(353.414 183.872)" fill="#fff"/>
          </g>
          <g id="Group_165" data-name="Group 165" transform="translate(0.906 88.612)">
            <path id="Path_137" data-name="Path 137" d="M-353.414-117.212c13.414-21.208,33.2-66.66,73.69-66.66s42.279,29.26,54.434,67.4Z" transform="translate(353.414 183.872)" fill="none" stroke="#cacaca" stroke-linecap="round" stroke-linejoin="round" stroke-width="2"/>
          </g>
          <g id="Group_166" data-name="Group 166" transform="translate(28.065 106.157)">
            <path id="Path_138" data-name="Path 138" d="M29.667-86.364H-51.61c15.26-23.445,32.679-49.115,62.832-49.115,27.441,0,28.931,21.133,37.157,49.115Z" transform="translate(51.61 135.479)" fill="#e6e6e6"/>
          </g>
        </g>
      </g>
    </g>
    <path id="Path_83-2" data-name="Path 83" d="M92.5,0A92.5,92.5,0,1,0,185,92.5,92.5,92.5,0,0,0,92.5,0Z" transform="translate(0)" fill="none" stroke="#cbcbcb" stroke-width="2"/>
  </g>
</svg>
