<svg width="21" height="21" viewBox="0 0 21 21" fill="none" xmlns="http://www.w3.org/2000/svg">
<path d="M10.0385 0C4.4947 0 0 4.4947 0 10.0385C0 15.5829 4.4947 20.0769 10.0385 20.0769C15.5829 20.0769 20.0769 15.5835 20.0769 10.0385C20.0769 4.4947 15.5828 0 10.0385 0ZM10.0385 18.1947C5.53373 18.1947 1.88224 14.5432 1.88224 10.0385C1.88224 5.53373 5.53373 1.88224 10.0385 1.88224C14.5432 1.88224 18.1947 5.53373 18.1947 10.0385C18.1947 14.5432 14.5432 18.1947 10.0385 18.1947ZM10.0391 4.40247C9.32011 4.40247 8.7761 4.77769 8.7761 5.38374V10.9425C8.7761 11.5492 9.32004 11.9232 10.0391 11.9232C10.7405 11.9232 11.3021 11.5336 11.3021 10.9425V5.38374C11.302 4.79208 10.7405 4.40247 10.0391 4.40247ZM10.0391 13.1755C9.34833 13.1755 8.78614 13.7377 8.78614 14.429C8.78614 15.1191 9.34833 15.6813 10.0391 15.6813C10.7299 15.6813 11.2914 15.1191 11.2914 14.429C11.2913 13.7376 10.7299 13.1755 10.0391 13.1755Z" fill="#C55482"/>
</svg>
