<svg width="263" height="221" viewBox="0 0 263 221" fill="none" xmlns="http://www.w3.org/2000/svg">
<path d="M213.717 228.679L168.485 224.738C165.803 216.513 163.906 208.049 162.821 199.465C166.319 196.045 169.464 192.281 172.207 188.232C182.095 193.683 193.204 196.53 204.493 196.511H228.982C232.362 196.511 235.103 193.77 235.103 190.39V49.5754C235.143 28.3429 221.477 9.51498 201.279 2.97369C181.083 -3.56759 158.973 3.67435 146.558 20.8964C139.414 19.5875 132.164 18.9401 124.902 18.9626C96.8339 18.9626 75.593 27.1294 61.7789 43.2332C43.6124 64.4125 44.1841 92.5282 45.0081 102.178C39.2291 107.945 39.1871 118.696 39.1871 122.614C39.1871 149.46 55.4814 156.907 63.7323 158.953C65.2485 164.323 67.1851 169.563 69.5253 174.628C73.7348 183.969 79.6567 192.438 86.9828 199.599C85.9206 208.139 84.0456 216.555 81.3803 224.733L36.0902 228.679C2.50375 231.574 -22.9888 260.177 -22.0135 293.876C-21.0381 327.572 6.06587 354.653 39.7644 355.603C47.7603 363.51 58.5531 367.94 69.8 367.938H180.004C191.248 367.943 202.044 363.51 210.04 355.601C243.735 354.65 270.834 327.572 271.809 293.876C272.784 260.183 247.3 231.58 213.717 228.679ZM196.136 110.765C196.158 110.782 198.37 112.676 198.37 122.614C198.37 134.789 194.171 141.078 189.48 144.309C191.158 133.735 192.044 123.049 192.123 112.34C193.272 111.426 194.67 110.877 196.136 110.765ZM186.125 12.8389C195.87 12.8361 205.214 16.7065 212.102 23.5953C218.994 30.4841 222.862 39.8308 222.859 49.5754V184.266H204.493C195.427 184.249 186.509 181.968 178.55 177.624C179.071 176.609 179.645 175.701 180.147 174.647C182.501 169.583 184.455 164.342 185.993 158.972C194.219 156.955 210.614 149.547 210.614 122.614C210.614 118.696 210.572 107.945 204.799 102.175C205.623 92.5282 206.197 64.4125 188.028 43.2332C180.388 34.5002 170.551 27.9701 159.537 24.324C166.42 16.9699 176.052 12.8108 186.125 12.8389ZM71.1284 51.1421C82.5154 37.911 100.609 31.2072 124.902 31.2072C149.192 31.2072 167.286 37.911 178.676 51.1421C192.574 67.2767 193.204 89.3445 192.722 98.9406C191.708 99.1704 190.713 99.4815 189.746 99.871C188.717 99.0443 187.445 98.5818 186.125 98.5538C185.733 98.5538 146.86 98.1699 130.378 65.2028C130.244 65.0094 130.101 64.8244 129.944 64.6479C129.725 64.2947 129.467 63.964 129.176 63.6642C128.876 63.3755 128.551 63.1204 128.201 62.9018C128.021 62.7449 127.836 62.5992 127.64 62.4646C127.508 62.3974 127.366 62.4086 127.231 62.3553C125.729 61.792 124.075 61.792 122.573 62.3553C122.439 62.4086 122.296 62.4002 122.164 62.4646C121.968 62.5992 121.78 62.7449 121.601 62.9018C120.886 63.3334 120.286 63.9332 119.857 64.6479C119.703 64.8244 119.557 65.0094 119.426 65.2028C103.028 98.0017 65.2626 98.5482 63.6623 98.5538C62.9784 98.5734 62.303 98.7108 61.6668 98.9602C61.5491 99.0022 61.409 98.9854 61.2941 99.0359C60.8484 99.2601 60.4309 99.5403 60.0553 99.8682C59.0912 99.4815 58.0963 99.1704 57.0817 98.9406C56.5969 89.3416 57.2331 67.2767 71.1284 51.1421ZM51.4317 122.614C51.4317 112.69 53.6373 110.784 53.6205 110.784C55.0975 110.891 56.51 111.435 57.6787 112.343C57.76 123.037 58.6288 133.713 60.2795 144.281C55.6048 141.041 51.4317 134.749 51.4317 122.614ZM80.5956 169.395C77.9331 163.72 75.834 157.801 74.3262 151.716C71.2293 138.157 69.7355 124.279 69.884 110.37C91.7304 108.366 111.713 97.2226 124.902 79.6867C138.088 97.2198 158.071 108.366 179.917 110.37C180.06 124.282 178.55 138.16 175.416 151.714C173.889 157.801 171.767 163.726 169.082 169.401C158.645 191.452 143.78 202.634 124.902 202.634C105.87 202.634 90.9681 191.46 80.5956 169.398V169.395ZM124.902 214.879C134.296 214.918 143.531 212.46 151.664 207.757C153.049 216.14 155.215 224.377 158.133 232.356L158.147 232.392L158.217 232.6C159.167 235.192 160.08 237.44 161.019 239.494C147.469 269.768 130.886 283.204 124.672 287.433C106.618 277.329 93.5212 260.239 88.4653 240.178C89.5163 237.944 90.5225 235.5 91.565 232.664C94.5358 224.615 96.7302 216.3 98.1175 207.83C106.27 212.494 115.508 214.926 124.902 214.879ZM118.106 355.693C120.732 353.112 123.016 350.206 124.902 347.041C126.788 350.206 129.072 353.112 131.698 355.693H118.106ZM219.257 342.224C221.634 336.82 222.862 330.982 222.859 325.083V294.47C222.859 291.087 220.118 288.346 216.738 288.346C213.355 288.346 210.614 291.087 210.614 294.47V325.083C210.595 341.98 196.901 355.673 180.004 355.693H161.636C144.736 355.673 131.043 341.98 131.023 325.083V318.959C131.023 315.579 128.282 312.836 124.902 312.836C121.519 312.836 118.778 315.579 118.778 318.959V325.083C118.759 341.98 105.065 355.673 88.1683 355.693H69.8C52.9002 355.673 39.2067 341.98 39.1871 325.083V294.47C39.1871 291.087 36.4461 288.346 33.0662 288.346C29.6834 288.346 26.9425 291.087 26.9425 294.47V325.083C26.9425 330.985 28.17 336.823 30.5466 342.224C5.76599 336.767 -11.3215 314.035 -9.67077 288.714C-8.02004 263.392 11.8701 243.07 37.1496 240.876L76.3076 237.465C75.9713 238.396 75.8676 239.396 76.005 240.377C81.5821 266.195 98.5519 288.1 122.164 299.946C123.887 300.807 125.917 300.807 127.64 299.946C128.722 299.405 154.352 286.186 173.384 241.781C173.934 240.397 173.953 238.858 173.438 237.459L212.643 240.876C237.934 243.053 257.844 263.378 259.494 288.708C261.148 314.041 244.049 336.778 219.255 342.224H219.257Z" fill="#3B5998"/>
</svg>
