<svg id="gallery" xmlns="http://www.w3.org/2000/svg" width="24" height="24" viewBox="0 0 24 24">
  <g id="Group_103" data-name="Group 103">
    <g id="Group_102" data-name="Group 102">
      <path id="Path_96" data-name="Path 96" d="M2.4,85.333H0v16.8a2.4,2.4,0,0,0,2.4,2.4H19.2v-2.4H2.4Z" transform="translate(0 -80.533)"/>
      <path id="Path_97" data-name="Path 97" d="M102.133,0h-14.4a2.4,2.4,0,0,0-2.4,2.4V16.8a2.4,2.4,0,0,0,2.4,2.4h14.4a2.4,2.4,0,0,0,2.4-2.4V2.4A2.4,2.4,0,0,0,102.133,0Zm-14.4,16.8,3.6-4.8,2.436,3.252L97.333,10.8l4.8,6Z" transform="translate(-80.533)"/>
    </g>
  </g>
</svg>
