<svg width="19" height="19" viewBox="0 0 19 19" fill="none" xmlns="http://www.w3.org/2000/svg">
<path d="M1.47698 7.74441C1.13294 7.40905 1.01148 6.91687 1.15992 6.45994C1.30839 6.00301 1.69596 5.67627 2.17141 5.60721L6.32877 5.0031C6.41037 4.99126 6.48092 4.94002 6.51744 4.86602L8.37665 1.09886C8.58925 0.668023 9.01979 0.400391 9.50025 0.400391C9.9807 0.400391 10.4112 0.668023 10.6238 1.09886L12.4831 4.86606C12.5196 4.94002 12.5901 4.99126 12.6718 5.00314L16.8291 5.60721C17.3045 5.67627 17.692 6.00301 17.8405 6.45994C17.9891 6.91687 17.8676 7.40905 17.5235 7.74441L14.5152 10.6768C14.4562 10.7343 14.4292 10.8173 14.4431 10.8986L15.1533 15.0391C15.2345 15.5127 15.0435 15.9822 14.6549 16.2646C14.2662 16.5471 13.7604 16.5836 13.3352 16.3601L9.61685 14.4052C9.54382 14.3668 9.45665 14.3668 9.38358 14.4052L5.66514 16.3601C5.48019 16.4573 5.28006 16.5053 5.08089 16.5053C4.82224 16.5053 4.56522 16.4243 4.34565 16.2646C3.95696 15.9821 3.76596 15.5125 3.84719 15.0391L4.55735 10.8986C4.57127 10.8173 4.54433 10.7343 4.48529 10.6767L1.47698 7.74441ZM5.54524 11.0681L4.83508 15.2087C4.81133 15.3472 4.89687 15.4262 4.93476 15.4537C4.97268 15.4812 5.07429 15.5382 5.19868 15.4728L8.91711 13.5179C9.09965 13.422 9.2999 13.3739 9.50018 13.3739C9.70045 13.3739 9.90073 13.422 10.0832 13.5178L13.8016 15.4727C13.9261 15.5381 14.0277 15.4812 14.0656 15.4537C14.1034 15.4262 14.189 15.3472 14.1652 15.2086L13.4551 11.0681C13.3853 10.6615 13.52 10.247 13.8154 9.95902L16.8237 7.02668C16.9244 6.92849 16.9016 6.8143 16.8871 6.76977C16.8727 6.7252 16.8239 6.6194 16.6848 6.59921L12.5276 5.99511C12.1194 5.93581 11.7667 5.67961 11.5841 5.30966L9.72487 1.54247C9.66264 1.41641 9.54701 1.40279 9.50014 1.40279C9.45334 1.40279 9.33771 1.41637 9.27544 1.54247V1.54251L7.41622 5.3097C7.23368 5.67964 6.881 5.93585 6.47283 5.99515L2.3155 6.59925C2.17638 6.61944 2.12769 6.72524 2.11322 6.76981C2.09875 6.81437 2.07593 6.9286 2.17664 7.02671L5.18491 9.95906C5.4803 10.247 5.61497 10.6615 5.54524 11.0681Z" fill="#DF603C"/>
<path d="M3.64504 0.0981846C3.86903 -0.0645029 4.18242 -0.0148506 4.34511 0.209067L4.87715 0.94131C5.03983 1.16523 4.99022 1.47869 4.76626 1.64138C4.67724 1.70599 4.57418 1.73712 4.47206 1.73712C4.31705 1.73712 4.16424 1.66546 4.06619 1.53053L3.53416 0.79829C3.37147 0.574335 3.42108 0.260872 3.64504 0.0981846Z" fill="#3B5998"/>
<path d="M14.1255 0.938816L14.6575 0.206573C14.8202 -0.0172711 15.1336 -0.0669235 15.3576 0.0956899C15.5815 0.258378 15.6312 0.571841 15.4685 0.795759L14.9364 1.528C14.8383 1.66304 14.6855 1.73466 14.5305 1.73466C14.4283 1.73466 14.3252 1.70353 14.2363 1.63888C14.0124 1.47623 13.9627 1.16277 14.1255 0.938816Z" fill="#3B5998"/>
<path d="M17.1614 10.6453C17.2469 10.3821 17.5297 10.238 17.793 10.3235L18.6538 10.6032C18.9171 10.6888 19.0611 10.9716 18.9756 11.2348C18.9068 11.4466 18.7103 11.5813 18.499 11.5813C18.4477 11.5813 18.3955 11.5733 18.344 11.5566L17.4832 11.2768C17.2199 11.1913 17.0759 10.9086 17.1614 10.6453Z" fill="#3B5998"/>
<path d="M9.50002 16.21C9.77682 16.21 10.0012 16.4344 10.0012 16.7112V17.6163C10.0012 17.8931 9.77682 18.1175 9.50002 18.1175C9.22322 18.1175 8.99882 17.8931 8.99882 17.6163V16.7112C8.99882 16.4343 9.22318 16.21 9.50002 16.21Z" fill="#3B5998"/>
<path d="M0.346462 10.6037L1.20729 10.324C1.47047 10.2385 1.75332 10.3825 1.83886 10.6458C1.92439 10.9091 1.78037 11.1918 1.51708 11.2773L0.656251 11.5571C0.60478 11.5738 0.552604 11.5817 0.501282 11.5817C0.289981 11.5817 0.0934869 11.447 0.024686 11.2352C-0.0608512 10.972 0.0832072 10.6892 0.346462 10.6037Z" fill="#3B5998"/>
</svg>
