<svg width="238" height="228" viewBox="0 0 238 228" fill="none" xmlns="http://www.w3.org/2000/svg">
<path d="M22.1171 124.04C21.7195 120.745 21.587 118.11 21.0569 115.475C20.2617 111.522 18.2739 107.7 18.2739 103.747C18.2739 98.6081 16.551 95.3138 11.7801 93.469C6.08156 91.2289 4.49126 87.5394 7.14176 82.0051C9.52721 77.1296 11.25 71.8588 13.9005 67.1151C17.4787 60.9219 23.0448 57.6276 30.2011 56.0464C35.2371 54.8605 40.5381 52.3568 44.5139 49.0626C64.1276 32.9867 85.5966 22.7086 111.704 26.3982C117.005 27.1888 122.174 29.2971 128.535 31.2736C128.137 27.9794 128.182 25.1617 127.342 20.9956C124.129 5.05709 140.585 2.13851 141.125 9.91922C141.39 13.7405 140.992 25.8711 141.125 28.1112C147.618 25.2122 153.847 20.9956 160.738 19.5461C178.497 15.7248 193.207 21.1274 205.532 35.095C217.194 48.4037 226.736 62.5031 230.447 79.8967C230.977 82.6639 231.772 85.4311 232.434 88.0665C232.434 92.4149 232.434 96.8951 232.434 101.243C228.061 127.202 208.05 141.302 189.894 156.982C186.846 159.618 183.4 161.594 180.617 164.361C177.967 167.128 175.449 170.291 173.726 173.717C171.34 178.592 173.328 182.941 177.834 185.444C182.605 188.212 186.713 185.971 189.894 182.018C190.822 180.832 191.352 179.383 192.014 177.934C196.653 185.576 196.255 190.979 190.424 197.04C183.003 204.683 173.726 208.372 163.389 209.295C149.076 210.612 138.077 199.807 136.884 185.181C135.559 168.578 139.932 155.137 154.245 145.123C161.003 140.379 167.1 134.449 172.666 128.256C187.641 111.785 188.304 87.8029 174.919 70.1458C170.28 64.0843 164.052 61.0536 155.57 60.7901C157.955 69.3551 160.871 77.2613 162.461 85.4311C167.365 110.467 161.003 131.814 140.197 148.022C139.667 148.417 139.137 148.944 138.607 149.208C115.812 161.858 115.945 182.15 120.451 203.629C124.692 223.658 132.908 241.842 146.293 257.654C147.088 258.577 147.353 259.763 148.149 261.344C143.775 260.158 140.064 258.708 136.354 258.05C120.981 255.81 110.511 262.925 101.5 274.653C89.97 289.806 77.6451 304.433 65.3203 318.927C63.73 320.904 59.8868 321.036 56.9712 321.958C56.5736 318.796 54.9833 314.974 56.1761 312.602C62.2722 300.48 68.766 288.488 76.0548 277.024C81.0908 269.118 80.9583 262.134 76.7175 254.36C72.2116 246.322 73.2718 244.082 81.3558 239.207C82.8136 238.416 83.4762 235.517 83.6088 233.54C84.8015 221.154 81.0908 209.822 75.2597 198.885C69.5611 188.08 69.6936 188.212 57.8989 190.583C49.5498 192.296 41.0682 193.746 32.5866 195.064C26.3579 196.118 23.8399 194.009 24.2375 187.684C24.6351 182.018 23.5749 177.406 18.804 173.717C17.7438 172.926 17.7438 170.818 17.3462 169.368C16.8161 167.655 16.0209 165.942 15.7559 164.229C15.3583 162.253 14.4306 159.486 15.3583 158.168C18.6714 153.029 18.1413 149.076 12.8403 145.913C8.59954 143.41 8.73206 141.038 12.1777 137.744C15.3583 134.581 23.7947 128.596 21.8689 121.787" stroke="#3B5998" stroke-width="11" stroke-miterlimit="10" stroke-linejoin="round"/>
</svg>
