<svg width="29" height="22" viewBox="0 0 29 22" fill="none" xmlns="http://www.w3.org/2000/svg">
<path d="M4.41964 11.8835H19.4172C20.1321 11.8835 20.7116 11.3039 20.7116 10.589C20.7116 9.87408 20.1321 9.2945 19.4172 9.2945H4.41964L6.09333 7.6209C6.59887 7.11544 6.59887 6.29577 6.09333 5.79023C5.58796 5.28469 4.76829 5.28469 4.26267 5.79023L0.379458 9.67344C0.349426 9.70339 0.32112 9.73471 0.294194 9.76751C0.287635 9.77553 0.282026 9.78416 0.27564 9.79236C0.255877 9.81747 0.23646 9.84267 0.218682 9.86925C0.213504 9.87702 0.209276 9.88522 0.204184 9.89307C0.186406 9.92086 0.168974 9.94891 0.153267 9.97816C0.150247 9.98394 0.147744 9.99007 0.144724 9.99585C0.128413 10.0275 0.112707 10.0596 0.0989852 10.0928C0.0972593 10.0968 0.0960511 10.1011 0.0944114 10.1053C0.0803446 10.1401 0.0673134 10.1754 0.0562671 10.2118C0.0548 10.2163 0.0540233 10.2211 0.0527288 10.2258C0.0422866 10.2614 0.0327074 10.2974 0.025372 10.3342C0.0232145 10.3452 0.0222652 10.3565 0.0202803 10.3675C0.0149298 10.3981 0.00957922 10.4286 0.00655874 10.4598C0.00215748 10.5025 0 10.5457 0 10.589C0 10.6323 0.00215748 10.6755 0.00655874 10.7183C0.00957922 10.7499 0.0151024 10.7807 0.0203666 10.8115C0.0222652 10.8222 0.0232145 10.8331 0.025372 10.8437C0.0327937 10.8809 0.0422866 10.9173 0.0528151 10.9533C0.0541096 10.9575 0.0548863 10.962 0.0561808 10.9662C0.0673134 11.0027 0.0803446 11.0383 0.094584 11.0736C0.0961374 11.0774 0.0972593 11.0814 0.0988989 11.0852C0.112707 11.1186 0.1285 11.1509 0.144983 11.1827C0.147831 11.1883 0.150247 11.1942 0.153181 11.1998C0.16906 11.2292 0.186579 11.2576 0.204616 11.2856C0.209448 11.2932 0.213591 11.3012 0.218596 11.3086C0.23646 11.3353 0.25605 11.3607 0.275726 11.3859C0.282026 11.394 0.287635 11.4025 0.294108 11.4105C0.32112 11.4432 0.349426 11.4746 0.379372 11.5045L4.26258 15.3877C4.51535 15.6406 4.84665 15.7669 5.17796 15.7669C5.50926 15.7669 5.84056 15.6406 6.09325 15.3877C6.59879 14.8822 6.59879 14.0626 6.09325 13.5571L4.41964 11.8835Z" fill="#24272A"/>
<path d="M17.8898 0C14.3564 0 11.0689 1.75291 9.09569 4.6889C8.69699 5.28221 8.85474 6.08651 9.44805 6.4853C10.0414 6.88401 10.8457 6.72642 11.2445 6.13294C12.7359 3.91376 15.2201 2.58889 17.8898 2.58889C22.301 2.58898 25.8899 6.17773 25.8899 10.589C25.8899 15.0003 22.301 18.589 17.8898 18.589C15.2279 18.589 12.7478 17.2701 11.2553 15.061C10.855 14.4686 10.0505 14.3129 9.45798 14.7131C8.86562 15.1133 8.70976 15.918 9.11002 16.5103C11.0846 19.4331 14.3668 21.178 17.8898 21.178C23.7286 21.178 28.4788 16.4278 28.4788 10.589C28.4788 4.75017 23.7286 0 17.8898 0Z" fill="#24272A"/>
</svg>
