<svg width="35" height="33" viewBox="0 0 35 33" fill="none" xmlns="http://www.w3.org/2000/svg">
<path d="M18.3025 28.316C18.145 28.4069 17.9698 28.4664 17.7841 28.49C17.4161 28.537 17.0519 28.4378 16.7585 28.2106L11.5791 24.2001L10.4685 24.8413C9.75807 25.2515 8.86796 25.0444 8.48424 24.3798L8.37712 24.1942C7.17229 24.226 6.02548 23.591 5.42105 22.5441C4.81662 21.4972 4.84021 20.1867 5.46998 19.1589L5.41672 19.0667C5.033 18.402 5.29872 17.5276 6.00913 17.1175L11.6095 13.8841C15.0307 11.9089 17.7659 8.88986 19.3117 5.38303L20.3755 2.96963C20.3761 2.96824 20.3766 2.96686 20.3772 2.96548L20.808 1.98853C20.9415 1.68554 21.2319 1.4861 21.566 1.46775C21.8775 1.45081 22.1529 1.59558 22.3026 1.8549L24.8466 6.26118C26.2885 6.43016 27.7429 7.51359 28.6708 9.12085C29.5988 10.7281 29.81 12.5293 29.2352 13.8626L31.7792 18.2689C31.9289 18.5282 31.9166 18.839 31.7462 19.1003C31.5633 19.3805 31.2454 19.5323 30.9162 19.4965L27.4094 19.1147C23.8076 18.7226 20.0518 19.4692 16.7617 21.2207L17.6478 21.8731C17.705 21.9151 17.7426 21.9787 17.752 22.0489C17.7614 22.1194 17.742 22.1904 17.698 22.2462L17.1061 22.9952L19.4044 24.8159C19.9968 25.2853 20.103 26.1536 19.6411 26.752L18.7068 27.9618C18.5943 28.1073 18.4571 28.2267 18.3025 28.316ZM12.069 23.9174L17.0792 27.7968C17.2619 27.9383 17.4888 28 17.7179 27.9707C17.947 27.9414 18.1511 27.8246 18.2925 27.6417L19.2267 26.432C19.5146 26.0595 19.4485 25.5186 19.0794 25.2262L16.5788 23.2451C16.578 23.2445 16.5772 23.244 16.5766 23.2434C16.5756 23.2426 16.5746 23.2419 16.5738 23.2412L15.1685 22.1279L12.069 23.9174ZM30.041 18.8747L30.9729 18.9762C31.1308 18.9935 31.2495 18.9038 31.3076 18.8145C31.3366 18.77 31.3966 18.6531 31.3258 18.5306L21.8492 2.11665C21.7785 1.99413 21.6475 1.98757 21.5943 1.99047C21.4877 1.99622 21.3509 2.05421 21.2869 2.19954L20.9088 3.05734L30.041 18.8747ZM18.6752 19.7736C21.4924 18.6906 24.5287 18.2746 27.4661 18.5944L29.3958 18.8045L20.6471 3.65124L19.7906 5.59422C18.6184 8.25347 16.7821 10.6399 14.4895 12.5237L18.6752 19.7736ZM15.6558 21.8465L16.6957 22.6703L17.1193 22.1342L16.2572 21.4995C16.2368 21.5111 16.2164 21.5229 16.1961 21.5346L15.6558 21.8465ZM6.27087 17.5708C5.81049 17.8366 5.63071 18.3903 5.87007 18.8049L8.93766 24.1181C9.17702 24.5327 9.74641 24.6539 10.2068 24.3881L15.9345 21.0812C16.6619 20.6612 17.414 20.2903 18.1843 19.9699L14.076 12.8542C13.3784 13.3963 12.6419 13.8926 11.8714 14.3375L6.27094 17.571L6.27087 17.5708ZM25.1911 6.85791L28.8908 13.266C29.2052 12.1354 28.962 10.6725 28.2174 9.38266C27.4727 8.09286 26.3275 7.15082 25.1911 6.85791ZM5.77662 19.69C5.38688 20.5095 5.41504 21.4867 5.87441 22.2824C6.33377 23.078 7.16602 23.5911 8.07055 23.6632L5.77662 19.69ZM8.93227 22.4449C8.80714 22.5171 8.64696 22.4742 8.57472 22.3491L6.56053 18.8604C6.36016 18.5133 6.47955 18.0681 6.82648 17.8678L12.5961 14.5367C12.7212 14.4645 12.8814 14.5074 12.9537 14.6325C13.0259 14.7577 12.983 14.9178 12.8579 14.9901L7.08823 18.3212C6.99132 18.3771 6.95787 18.5016 7.01388 18.5986L9.02808 22.0873C9.10038 22.2126 9.05751 22.3726 8.93227 22.4449Z" fill="#3B5998"/>
</svg>
