<svg width="32" height="28" viewBox="0 0 32 28" fill="none" xmlns="http://www.w3.org/2000/svg">
<path d="M28.085 10.579H14.9676C13.3577 10.579 12.0526 11.71 12.0526 13.1053V24.4737C12.0526 25.869 13.3577 27 14.9676 27H28.085C29.6949 27 31 25.869 31 24.4737V13.1053C31 11.71 29.6949 10.579 28.085 10.579Z" stroke="#3B5998" stroke-width="2" stroke-linecap="round" stroke-linejoin="round"/>
<path d="M5.37247 17.4211H3.91498C3.14188 17.4211 2.40044 17.1549 1.85378 16.6811C1.30711 16.2073 1 15.5648 1 14.8947V3.52632C1 2.8563 1.30711 2.21372 1.85378 1.73994C2.40044 1.26616 3.14188 1 3.91498 1H17.0324C17.8055 1 18.5469 1.26616 19.0936 1.73994C19.6403 2.21372 19.9474 2.8563 19.9474 3.52632V4.78947" stroke="#3B5998" stroke-width="2" stroke-linecap="round" stroke-linejoin="round"/>
</svg>
