<svg width="31" height="66" viewBox="0 0 31 66" fill="none" xmlns="http://www.w3.org/2000/svg">
<path d="M29.3498 28.3687H21.6502C20.7388 28.3687 20 29.3206 20 30.4948V54.5887C20 55.7629 20.7388 56.7148 21.6502 56.7148H29.3498C30.2612 56.7148 31 55.7629 31 54.5887V30.4948C31 29.3206 30.2612 28.3687 29.3498 28.3687Z" fill="#DF603C"/>
<path d="M22.14 15.5854H4.731C2.67042 15.5854 1 17.2182 1 19.2323V60.5592C1 62.5733 2.67042 64.2061 4.731 64.2061H22.14C24.2005 64.2061 25.871 62.5733 25.871 60.5592V19.2323C25.871 17.2182 24.2005 15.5854 22.14 15.5854Z" stroke="#3B5998" stroke-width="2" stroke-linecap="round" stroke-linejoin="round"/>
<path d="M8.46094 15.5854V8.29272H18.4089V15.5854" stroke="#3B5998" stroke-width="2" stroke-linecap="round" stroke-linejoin="round"/>
<path d="M10.9492 8.29272V1H15.9232V8.29272" stroke="#3B5998" stroke-width="2" stroke-linecap="round" stroke-linejoin="round"/>
<path d="M15.9238 3.43091H21.3239C22.643 3.43099 23.9081 3.94326 24.8408 4.85505L25.8708 5.86182" stroke="#3B5998" stroke-width="2" stroke-linecap="round" stroke-linejoin="round"/>
<path d="M25.8718 25.3101H15.9238V52.0513H25.8718" stroke="#3B5998" stroke-width="2" stroke-linecap="round" stroke-linejoin="round"/>
</svg>
