<svg width="27" height="25" viewBox="0 0 27 25" fill="none" xmlns="http://www.w3.org/2000/svg">
<mask id="path-1-outside-1" maskUnits="userSpaceOnUse" x="0" y="-0.206543" width="27" height="25" fill="black">
<rect fill="white" y="-0.206543" width="27" height="25"/>
<path fill-rule="evenodd" clip-rule="evenodd" d="M23.4892 16.4711C23.687 16.3896 23.9146 16.4372 24.0633 16.5911C24.2105 16.7467 24.2478 16.9764 24.1573 17.1704C22.8709 19.9447 20.585 22.1313 17.7564 23.2933C11.5543 25.8409 4.46135 22.8784 1.91371 16.6765C-0.63392 10.4745 2.32852 3.38154 8.53049 0.833902C8.66697 0.776816 8.82134 0.780273 8.95508 0.843558C9.21566 0.9668 9.32703 1.27794 9.20379 1.53852C7.88857 4.35566 7.81681 7.59571 9.00597 10.4684C11.3478 16.1254 17.8322 18.8129 23.4892 16.4711ZM2.04994 12.0641C2.04889 18.1953 7.01838 23.1665 13.1496 23.1675C16.9978 23.1553 20.5673 21.1584 22.5914 17.8855C21.5102 18.1933 20.3915 18.3494 19.2673 18.3495C12.5596 18.3498 7.12159 12.9123 7.12126 6.20462C7.11957 4.9003 7.33115 3.60447 7.74759 2.36839C4.23085 4.32807 2.05059 8.03812 2.04994 12.0641ZM25.8631 7.80131C25.7496 7.71063 25.6061 7.66593 25.4612 7.67605H23.2535L25.3151 5.37431L25.5082 5.16031L25.6335 5.00895C25.6679 4.96054 25.696 4.90789 25.717 4.85237C25.7407 4.79254 25.753 4.7288 25.7535 4.66447C25.7681 4.51226 25.6927 4.36547 25.5604 4.28868C25.3889 4.21 25.2008 4.17418 25.0124 4.18429H22.4236C22.2868 4.17496 22.1514 4.2158 22.0426 4.29912C21.9527 4.37565 21.9026 4.48904 21.9069 4.60706C21.9069 4.78452 21.966 4.89236 22.0843 4.93066C22.254 4.97887 22.43 5.00001 22.6063 4.99329H24.2764C24.2068 5.0907 24.1164 5.20553 24.005 5.33777L23.5718 5.82839L23.0081 6.45472L22.3349 7.20108C22.1017 7.46205 21.9486 7.63605 21.8755 7.72302C21.7098 7.92429 21.7305 8.22004 21.9225 8.39632C22.0602 8.50005 22.2309 8.5501 22.4027 8.53724H25.4456C25.5929 8.55577 25.7418 8.51852 25.8631 8.43285C25.9518 8.35541 26.0015 8.24261 25.9988 8.12491C26.0033 8.00232 25.9537 7.88397 25.8631 7.80131ZM15.3681 7.94245C15.513 7.93233 15.6565 7.97703 15.77 8.06771C15.8606 8.15037 15.9102 8.26872 15.9057 8.39131C15.9084 8.50901 15.8587 8.62181 15.77 8.69925C15.6537 8.78798 15.5087 8.83072 15.3629 8.8193H12.3148C12.143 8.83215 11.9723 8.78211 11.8346 8.67838C11.6426 8.50209 11.6219 8.20635 11.7877 8.00508C11.8607 7.91811 12.0139 7.74411 12.247 7.48314L12.9203 6.73677L13.4996 6.11045L13.9276 5.63027C14.039 5.49802 14.1294 5.3832 14.199 5.28579H12.5288C12.3526 5.29251 12.1765 5.27137 12.0069 5.22316C11.8886 5.18486 11.8294 5.07702 11.8294 4.89956C11.8252 4.78153 11.8752 4.66814 11.9651 4.59161C12.0739 4.5083 12.2094 4.46746 12.3461 4.47679H14.9088C15.0973 4.46661 15.2854 4.50249 15.4569 4.58118C15.5891 4.65797 15.6645 4.80476 15.65 4.95697C15.6495 5.0213 15.6371 5.08504 15.6135 5.14487C15.5924 5.20039 15.5644 5.25304 15.5299 5.30145L15.4308 5.42671L15.2377 5.64071L13.176 7.94245H15.3681ZM20.0653 10.6355C20.1819 10.6262 20.2975 10.6616 20.3889 10.7347C20.4609 10.7999 20.5009 10.8933 20.4985 10.9904C20.5012 11.0835 20.4631 11.1732 20.3941 11.2358C20.3013 11.3056 20.1862 11.339 20.0705 11.3297H17.6487C17.5126 11.3405 17.3772 11.3016 17.2677 11.2201C17.124 11.081 17.1082 10.8559 17.2311 10.6982C17.2903 10.6216 17.4138 10.4789 17.6017 10.2702L18.1237 9.67517L18.5725 9.15323L18.917 8.767C19.011 8.65739 19.084 8.56866 19.1362 8.49037H17.8001C17.6593 8.4969 17.5183 8.48104 17.3825 8.4434C17.2886 8.40862 17.2416 8.32159 17.2416 8.18243C17.2386 8.08822 17.279 7.9978 17.3512 7.93712C17.4375 7.87044 17.545 7.83711 17.6539 7.84317H19.7208C19.8716 7.83495 20.022 7.86366 20.1592 7.92668C20.2645 7.98931 20.3237 8.1076 20.3106 8.22941C20.3097 8.2814 20.299 8.33268 20.2793 8.38077C20.2622 8.42533 20.2394 8.46741 20.2114 8.50603L20.1122 8.62608L19.9557 8.79832L18.3116 10.6355H20.0653Z"/>
</mask>
<path fill-rule="evenodd" clip-rule="evenodd" d="M23.4892 16.4711C23.687 16.3896 23.9146 16.4372 24.0633 16.5911C24.2105 16.7467 24.2478 16.9764 24.1573 17.1704C22.8709 19.9447 20.585 22.1313 17.7564 23.2933C11.5543 25.8409 4.46135 22.8784 1.91371 16.6765C-0.63392 10.4745 2.32852 3.38154 8.53049 0.833902C8.66697 0.776816 8.82134 0.780273 8.95508 0.843558C9.21566 0.9668 9.32703 1.27794 9.20379 1.53852C7.88857 4.35566 7.81681 7.59571 9.00597 10.4684C11.3478 16.1254 17.8322 18.8129 23.4892 16.4711ZM2.04994 12.0641C2.04889 18.1953 7.01838 23.1665 13.1496 23.1675C16.9978 23.1553 20.5673 21.1584 22.5914 17.8855C21.5102 18.1933 20.3915 18.3494 19.2673 18.3495C12.5596 18.3498 7.12159 12.9123 7.12126 6.20462C7.11957 4.9003 7.33115 3.60447 7.74759 2.36839C4.23085 4.32807 2.05059 8.03812 2.04994 12.0641ZM25.8631 7.80131C25.7496 7.71063 25.6061 7.66593 25.4612 7.67605H23.2535L25.3151 5.37431L25.5082 5.16031L25.6335 5.00895C25.6679 4.96054 25.696 4.90789 25.717 4.85237C25.7407 4.79254 25.753 4.7288 25.7535 4.66447C25.7681 4.51226 25.6927 4.36547 25.5604 4.28868C25.3889 4.21 25.2008 4.17418 25.0124 4.18429H22.4236C22.2868 4.17496 22.1514 4.2158 22.0426 4.29912C21.9527 4.37565 21.9026 4.48904 21.9069 4.60706C21.9069 4.78452 21.966 4.89236 22.0843 4.93066C22.254 4.97887 22.43 5.00001 22.6063 4.99329H24.2764C24.2068 5.0907 24.1164 5.20553 24.005 5.33777L23.5718 5.82839L23.0081 6.45472L22.3349 7.20108C22.1017 7.46205 21.9486 7.63605 21.8755 7.72302C21.7098 7.92429 21.7305 8.22004 21.9225 8.39632C22.0602 8.50005 22.2309 8.5501 22.4027 8.53724H25.4456C25.5929 8.55577 25.7418 8.51852 25.8631 8.43285C25.9518 8.35541 26.0015 8.24261 25.9988 8.12491C26.0033 8.00232 25.9537 7.88397 25.8631 7.80131ZM15.3681 7.94245C15.513 7.93233 15.6565 7.97703 15.77 8.06771C15.8606 8.15037 15.9102 8.26872 15.9057 8.39131C15.9084 8.50901 15.8587 8.62181 15.77 8.69925C15.6537 8.78798 15.5087 8.83072 15.3629 8.8193H12.3148C12.143 8.83215 11.9723 8.78211 11.8346 8.67838C11.6426 8.50209 11.6219 8.20635 11.7877 8.00508C11.8607 7.91811 12.0139 7.74411 12.247 7.48314L12.9203 6.73677L13.4996 6.11045L13.9276 5.63027C14.039 5.49802 14.1294 5.3832 14.199 5.28579H12.5288C12.3526 5.29251 12.1765 5.27137 12.0069 5.22316C11.8886 5.18486 11.8294 5.07702 11.8294 4.89956C11.8252 4.78153 11.8752 4.66814 11.9651 4.59161C12.0739 4.5083 12.2094 4.46746 12.3461 4.47679H14.9088C15.0973 4.46661 15.2854 4.50249 15.4569 4.58118C15.5891 4.65797 15.6645 4.80476 15.65 4.95697C15.6495 5.0213 15.6371 5.08504 15.6135 5.14487C15.5924 5.20039 15.5644 5.25304 15.5299 5.30145L15.4308 5.42671L15.2377 5.64071L13.176 7.94245H15.3681ZM20.0653 10.6355C20.1819 10.6262 20.2975 10.6616 20.3889 10.7347C20.4609 10.7999 20.5009 10.8933 20.4985 10.9904C20.5012 11.0835 20.4631 11.1732 20.3941 11.2358C20.3013 11.3056 20.1862 11.339 20.0705 11.3297H17.6487C17.5126 11.3405 17.3772 11.3016 17.2677 11.2201C17.124 11.081 17.1082 10.8559 17.2311 10.6982C17.2903 10.6216 17.4138 10.4789 17.6017 10.2702L18.1237 9.67517L18.5725 9.15323L18.917 8.767C19.011 8.65739 19.084 8.56866 19.1362 8.49037H17.8001C17.6593 8.4969 17.5183 8.48104 17.3825 8.4434C17.2886 8.40862 17.2416 8.32159 17.2416 8.18243C17.2386 8.08822 17.279 7.9978 17.3512 7.93712C17.4375 7.87044 17.545 7.83711 17.6539 7.84317H19.7208C19.8716 7.83495 20.022 7.86366 20.1592 7.92668C20.2645 7.98931 20.3237 8.1076 20.3106 8.22941C20.3097 8.2814 20.299 8.33268 20.2793 8.38077C20.2622 8.42533 20.2394 8.46741 20.2114 8.50603L20.1122 8.62608L19.9557 8.79832L18.3116 10.6355H20.0653Z" fill="#3B5998"/>
<path d="M24.0633 16.5911L24.2085 16.4536L24.2071 16.4522L24.0633 16.5911ZM23.4892 16.4711L23.413 16.2862L23.4127 16.2863L23.4892 16.4711ZM24.1573 17.1704L23.9761 17.0859L23.9759 17.0863L24.1573 17.1704ZM17.7564 23.2933L17.8323 23.4783L17.8323 23.4782L17.7564 23.2933ZM1.91371 16.6765L1.72871 16.7525L1.72871 16.7525L1.91371 16.6765ZM8.53049 0.833902L8.60648 1.01891L8.60766 1.01841L8.53049 0.833902ZM8.95508 0.843558L8.86954 1.02434L8.86957 1.02436L8.95508 0.843558ZM9.20379 1.53852L9.02299 1.453L9.02256 1.45391L9.20379 1.53852ZM9.00597 10.4684L8.82118 10.5449L8.82118 10.5449L9.00597 10.4684ZM13.1496 23.1675L13.1496 23.3675L13.1503 23.3675L13.1496 23.1675ZM2.04994 12.0641L2.24994 12.0641L2.24994 12.0641L2.04994 12.0641ZM22.5914 17.8855L22.7615 17.9907L23.0329 17.5519L22.5367 17.6932L22.5914 17.8855ZM19.2673 18.3495L19.2673 18.5495L19.2673 18.5495L19.2673 18.3495ZM7.12126 6.20462L7.32126 6.20461L7.32126 6.20436L7.12126 6.20462ZM7.74759 2.36839L7.93712 2.43225L8.10237 1.94173L7.65023 2.19369L7.74759 2.36839ZM25.4612 7.67605V7.87653L25.4752 7.87556L25.4612 7.67605ZM25.8631 7.80131L25.9983 7.65328L25.988 7.64505L25.8631 7.80131ZM23.2535 7.67605L23.1045 7.54261L22.8058 7.87605H23.2535V7.67605ZM25.3151 5.37431L25.1666 5.24031L25.1661 5.24087L25.3151 5.37431ZM25.5082 5.16031L25.6568 5.29443L25.6623 5.28783L25.5082 5.16031ZM25.6335 5.00895L25.7876 5.13646L25.7922 5.13085L25.7964 5.12491L25.6335 5.00895ZM25.717 4.85237L25.531 4.77875L25.5299 4.78159L25.717 4.85237ZM25.7535 4.66447L25.5544 4.64544L25.5536 4.65413L25.5535 4.66285L25.7535 4.66447ZM25.5604 4.28868L25.6608 4.11572L25.6525 4.1109L25.6438 4.10689L25.5604 4.28868ZM25.0124 4.18429L25.0124 4.38458L25.0231 4.384L25.0124 4.18429ZM22.4236 4.18429L22.4099 4.38429H22.4236V4.18429ZM22.0426 4.29912L21.9208 4.1401L21.9129 4.14682L22.0426 4.29912ZM21.9069 4.60706L22.107 4.60706L22.1067 4.59988L21.9069 4.60706ZM22.0843 4.93066L22.0227 5.12106L22.0296 5.12304L22.0843 4.93066ZM22.6063 4.99329V4.79315L22.5986 4.79344L22.6063 4.99329ZM24.2764 4.99329L24.4392 5.10958L24.6652 4.79329H24.2764V4.99329ZM24.005 5.33777L24.155 5.47018L24.158 5.4666L24.005 5.33777ZM23.5718 5.82839L23.7205 5.96219L23.7218 5.96077L23.5718 5.82839ZM23.0081 6.45472L23.1567 6.58868L23.1568 6.58851L23.0081 6.45472ZM22.3349 7.20108L22.1863 7.06712L22.1857 7.06785L22.3349 7.20108ZM21.8755 7.72302L21.7224 7.59436L21.7211 7.5959L21.8755 7.72302ZM21.9225 8.39632L21.7873 8.54367L21.7944 8.55022L21.8022 8.55605L21.9225 8.39632ZM22.4027 8.53724V8.33724H22.3952L22.3878 8.3378L22.4027 8.53724ZM25.4456 8.53724L25.4705 8.33881L25.4581 8.33724H25.4456V8.53724ZM25.8631 8.43285L25.9785 8.59622L25.9869 8.59027L25.9947 8.58349L25.8631 8.43285ZM25.9988 8.12491L25.7986 8.11756L25.7989 8.12946L25.9988 8.12491ZM15.77 8.06771L15.9052 7.91968L15.8949 7.91145L15.77 8.06771ZM15.3681 7.94245V8.14293L15.3821 8.14196L15.3681 7.94245ZM15.9057 8.39131L15.7055 8.38396L15.7058 8.39586L15.9057 8.39131ZM15.77 8.69925L15.8916 8.85863L15.9016 8.84989L15.77 8.69925ZM15.3629 8.8193L15.3785 8.61991L15.3707 8.6193H15.3629V8.8193ZM12.3148 8.8193V8.6193H12.3073L12.2999 8.61986L12.3148 8.8193ZM11.8346 8.67838L11.6994 8.82573L11.7065 8.83228L11.7143 8.83811L11.8346 8.67838ZM11.7877 8.00508L11.6345 7.87642L11.6333 7.87796L11.7877 8.00508ZM12.247 7.48314L12.0985 7.34918L12.0978 7.34991L12.247 7.48314ZM12.9203 6.73677L12.7734 6.60096L12.7718 6.60281L12.9203 6.73677ZM13.4996 6.11045L13.6465 6.24628L13.6489 6.24352L13.4996 6.11045ZM13.9276 5.63027L14.077 5.76339L14.0806 5.7591L13.9276 5.63027ZM14.199 5.28579L14.3617 5.40208L14.5878 5.08579H14.199V5.28579ZM12.5288 5.28579L12.5288 5.08564L12.5212 5.08594L12.5288 5.28579ZM12.0069 5.22316L11.9452 5.41356L11.9522 5.41554L12.0069 5.22316ZM11.8294 4.89956H12.0295L12.0293 4.89238L11.8294 4.89956ZM11.9651 4.59161L11.8434 4.4326L11.8355 4.43932L11.9651 4.59161ZM12.3461 4.47679L12.3325 4.67679H12.3461V4.47679ZM14.9088 4.47679V4.67708L14.9196 4.6765L14.9088 4.47679ZM15.4569 4.58118L15.5573 4.40822L15.549 4.4034L15.5403 4.39939L15.4569 4.58118ZM15.65 4.95697L15.4509 4.93794L15.4501 4.94662L15.45 4.95535L15.65 4.95697ZM15.6135 5.14487L15.4275 5.07124L15.4264 5.07409L15.6135 5.14487ZM15.5299 5.30145L15.687 5.42575L15.6929 5.41741L15.5299 5.30145ZM15.4308 5.42671L15.5796 5.56099L15.5876 5.55085L15.4308 5.42671ZM15.2377 5.64071L15.0892 5.50671L15.0887 5.50727L15.2377 5.64071ZM13.176 7.94245L13.027 7.80901L12.7284 8.14245H13.176V7.94245ZM20.3889 10.7347L20.5234 10.5862L20.5138 10.5785L20.3889 10.7347ZM20.0653 10.6355V10.8355H20.0733L20.0812 10.8349L20.0653 10.6355ZM20.4985 10.9904L20.2982 10.9855L20.2986 10.9963L20.4985 10.9904ZM20.3941 11.2358L20.5143 11.3956L20.5216 11.3901L20.5284 11.3839L20.3941 11.2358ZM20.0705 11.3297L20.0864 11.1303L20.0785 11.1297H20.0705V11.3297ZM17.6487 11.3297V11.1297H17.6408L17.6328 11.1303L17.6487 11.3297ZM17.2677 11.2201L17.1286 11.3638L17.1379 11.3728L17.1483 11.3806L17.2677 11.2201ZM17.2311 10.6982L17.3889 10.8211L17.3894 10.8205L17.2311 10.6982ZM17.6017 10.2702L17.7504 10.404L17.7521 10.4021L17.6017 10.2702ZM18.1237 9.67517L18.274 9.80706L18.2753 9.80558L18.1237 9.67517ZM18.5725 9.15323L18.4232 9.02009L18.4209 9.02282L18.5725 9.15323ZM18.917 8.767L19.0663 8.90015L19.0689 8.89716L18.917 8.767ZM19.1362 8.49037L19.3026 8.60131L19.5099 8.29037H19.1362V8.49037ZM17.8001 8.49037V8.29016L17.7908 8.29059L17.8001 8.49037ZM17.3825 8.4434L17.3131 8.63096L17.321 8.63389L17.3291 8.63613L17.3825 8.4434ZM17.2416 8.18243H17.4417L17.4415 8.1762L17.2416 8.18243ZM17.3512 7.93712L17.2288 7.77871L17.2225 7.78405L17.3512 7.93712ZM17.6539 7.84317L17.6428 8.04317H17.6539V7.84317ZM19.7208 7.84317V8.04347L19.7317 8.04288L19.7208 7.84317ZM20.1592 7.92668L20.2615 7.75479L20.2523 7.74937L20.2427 7.74494L20.1592 7.92668ZM20.3106 8.22941L20.1117 8.208L20.1108 8.21692L20.1106 8.22589L20.3106 8.22941ZM20.2793 8.38077L20.0942 8.3047L20.0925 8.30913L20.2793 8.38077ZM20.2114 8.50603L20.3659 8.63366L20.3734 8.62339L20.2114 8.50603ZM20.1122 8.62608L20.2604 8.76076L20.2664 8.75345L20.1122 8.62608ZM19.9557 8.79832L19.8077 8.66378L19.8066 8.66494L19.9557 8.79832ZM18.3116 10.6355L18.1625 10.5022L17.8642 10.8355H18.3116V10.6355ZM24.2071 16.4522C24.0015 16.2393 23.6868 16.1734 23.413 16.2862L23.5653 16.656C23.6873 16.6058 23.8277 16.6351 23.9195 16.7301L24.2071 16.4522ZM24.3386 17.255C24.4638 16.9865 24.4122 16.6688 24.2085 16.4536L23.9181 16.7286C24.0089 16.8246 24.0318 16.9663 23.9761 17.0859L24.3386 17.255ZM17.8323 23.4782C20.7076 22.2971 23.0312 20.0745 24.3388 17.2546L23.9759 17.0863C22.7107 19.8149 20.4624 21.9654 17.6804 23.1083L17.8323 23.4782ZM1.72871 16.7525C4.31832 23.0566 11.5281 26.0679 17.8323 23.4783L17.6804 23.1083C11.5805 25.6139 4.60438 22.7003 2.09871 16.6005L1.72871 16.7525ZM8.45449 0.648903C2.15036 3.23851 -0.86089 10.4483 1.72871 16.7525L2.09871 16.6005C-0.40695 10.5007 2.50669 3.52457 8.60648 1.0189L8.45449 0.648903ZM9.04062 0.662775C8.85555 0.575204 8.64205 0.570453 8.45332 0.649392L8.60766 1.01841C8.6919 0.983178 8.78712 0.985342 8.86954 1.02434L9.04062 0.662775ZM9.38458 1.62403C9.55506 1.26357 9.401 0.833217 9.04059 0.66276L8.86957 1.02436C9.03032 1.10038 9.09899 1.29231 9.02299 1.45301L9.38458 1.62403ZM9.19076 10.3919C8.02305 7.57104 8.09352 4.38944 9.38501 1.62312L9.02256 1.45391C7.68362 4.32188 7.61056 7.62038 8.82118 10.5449L9.19076 10.3919ZM23.4127 16.2863C17.8577 18.5859 11.4904 15.9469 9.19076 10.3919L8.82118 10.5449C11.2053 16.304 17.8066 19.0399 23.5657 16.6559L23.4127 16.2863ZM13.1497 22.9675C7.12887 22.9665 2.24891 18.0849 2.24994 12.0641L1.84994 12.064C1.84888 18.3057 6.90788 23.3665 13.1496 23.3675L13.1497 22.9675ZM22.4213 17.7803C20.4335 20.9945 16.9281 22.9555 13.149 22.9675L13.1503 23.3675C17.0675 23.355 20.7011 21.3223 22.7615 17.9907L22.4213 17.7803ZM19.2673 18.5495C20.41 18.5494 21.5471 18.3907 22.6462 18.0779L22.5367 17.6932C21.4732 17.9959 20.373 18.1494 19.2673 18.1495L19.2673 18.5495ZM6.92126 6.20463C6.92159 13.0228 12.4491 18.5498 19.2673 18.5495L19.2673 18.1495C12.67 18.1498 7.32158 12.8019 7.32126 6.20461L6.92126 6.20463ZM7.55805 2.30454C7.13465 3.56127 6.91954 4.87876 6.92126 6.20488L7.32126 6.20436C7.31959 4.92184 7.52764 3.64767 7.93712 2.43225L7.55805 2.30454ZM2.24994 12.0641C2.25058 8.11068 4.39156 4.46747 7.84494 2.5431L7.65023 2.19369C4.07014 4.18866 1.8506 7.96555 1.84994 12.064L2.24994 12.0641ZM25.4752 7.87556C25.5701 7.86894 25.664 7.89821 25.7383 7.95757L25.988 7.64505C25.8352 7.52304 25.6422 7.46293 25.4473 7.47653L25.4752 7.87556ZM23.2535 7.87605H25.4612V7.47605H23.2535V7.87605ZM25.1661 5.24087L23.1045 7.54261L23.4024 7.80948L25.4641 5.50774L25.1661 5.24087ZM25.3597 5.02632L25.1666 5.24031L25.4636 5.5083L25.6567 5.2943L25.3597 5.02632ZM25.4794 4.88144L25.3541 5.0328L25.6623 5.28783L25.7876 5.13646L25.4794 4.88144ZM25.5299 4.78159C25.515 4.82114 25.495 4.8586 25.4705 4.89299L25.7964 5.12491C25.8409 5.06248 25.877 4.99464 25.904 4.92315L25.5299 4.78159ZM25.5535 4.66285C25.5532 4.70272 25.5456 4.74204 25.531 4.77875L25.9029 4.92599C25.9358 4.84305 25.9528 4.75489 25.9535 4.66609L25.5535 4.66285ZM25.46 4.46164C25.5247 4.49919 25.5615 4.57099 25.5544 4.64544L25.9526 4.6835C25.9746 4.45353 25.8607 4.23175 25.6608 4.11572L25.46 4.46164ZM25.0231 4.384C25.1792 4.37563 25.335 4.4053 25.477 4.47046L25.6438 4.10689C25.4428 4.0147 25.2224 3.97273 25.0017 3.98458L25.0231 4.384ZM22.4236 4.38429H25.0124V3.98429H22.4236V4.38429ZM22.1641 4.45792C22.2344 4.40415 22.3218 4.37781 22.41 4.38383L22.4372 3.98475C22.2519 3.97211 22.0684 4.02746 21.921 4.14031L22.1641 4.45792ZM22.1067 4.59988C22.1047 4.54307 22.1288 4.48839 22.1722 4.45141L21.9129 4.14682C21.7766 4.26291 21.7006 4.435 21.707 4.61424L22.1067 4.59988ZM22.1459 4.74039C22.1383 4.73792 22.1351 4.73555 22.1338 4.73452C22.1326 4.73352 22.13 4.73112 22.1266 4.72487C22.1188 4.71059 22.1069 4.67608 22.1069 4.60706H21.7069C21.7069 4.7155 21.7246 4.82364 21.7759 4.91722C21.8303 5.01642 21.9156 5.08627 22.0227 5.12094L22.1459 4.74039ZM22.5986 4.79344C22.4435 4.79936 22.2884 4.78074 22.139 4.73828L22.0296 5.12304C22.2195 5.17701 22.4166 5.20067 22.6139 5.19315L22.5986 4.79344ZM24.2764 4.79329H22.6063V5.19329H24.2764V4.79329ZM24.158 5.4666C24.2715 5.33187 24.3655 5.21269 24.4392 5.10958L24.1137 4.87701C24.0482 4.96871 23.9613 5.07918 23.8521 5.20894L24.158 5.4666ZM23.7218 5.96077L24.155 5.47015L23.8551 5.20539L23.4219 5.69601L23.7218 5.96077ZM23.1568 6.58851L23.7205 5.96218L23.4232 5.6946L22.8595 6.32092L23.1568 6.58851ZM22.4834 7.33505L23.1567 6.58868L22.8596 6.32075L22.1863 7.06712L22.4834 7.33505ZM22.0287 7.85168C22.0995 7.76743 22.2505 7.59571 22.484 7.33432L22.1857 7.06785C21.953 7.3284 21.7978 7.50467 21.7224 7.59436L22.0287 7.85168ZM22.0578 8.24897C21.944 8.14457 21.9318 7.96939 22.0299 7.85015L21.7211 7.5959C21.4879 7.8792 21.5169 8.2955 21.7873 8.54367L22.0578 8.24897ZM22.3878 8.3378C22.2643 8.34703 22.1417 8.31108 22.0429 8.23659L21.8022 8.55605C21.9786 8.68903 22.1974 8.75316 22.4176 8.73669L22.3878 8.3378ZM25.4456 8.33724H22.4027V8.73724H25.4456V8.33724ZM25.7477 8.26949C25.6672 8.32638 25.5683 8.3511 25.4705 8.33881L25.4206 8.73568C25.6175 8.76044 25.8165 8.71066 25.9785 8.59622L25.7477 8.26949ZM25.7989 8.12946C25.8002 8.18784 25.7756 8.2438 25.7316 8.28222L25.9947 8.58349C26.128 8.46702 26.2028 8.29738 26.1988 8.12037L25.7989 8.12946ZM25.7283 7.94903C25.7754 7.99206 25.8013 8.05371 25.799 8.11757L26.1987 8.13225C26.2054 7.95094 26.1319 7.77588 25.998 7.6536L25.7283 7.94903ZM15.8949 7.91145C15.7421 7.78944 15.5491 7.72933 15.3542 7.74293L15.3821 8.14196C15.477 8.13534 15.5709 8.16461 15.6452 8.22397L15.8949 7.91145ZM16.1056 8.39865C16.1123 8.21733 16.0388 8.04228 15.9049 7.92L15.6352 8.21542C15.6824 8.25847 15.7082 8.32011 15.7059 8.38397L16.1056 8.39865ZM15.9016 8.84989C16.0349 8.73342 16.1097 8.56378 16.1057 8.38677L15.7058 8.39586C15.7071 8.45424 15.6825 8.5102 15.6385 8.54862L15.9016 8.84989ZM15.3473 9.01869C15.5422 9.03395 15.7359 8.97684 15.8913 8.85828L15.6487 8.54023C15.5715 8.59912 15.4753 8.62749 15.3785 8.61991L15.3473 9.01869ZM12.3148 9.0193H15.3629V8.6193H12.3148V9.0193ZM11.7143 8.83811C11.8907 8.97109 12.1095 9.03521 12.3297 9.01874L12.2999 8.61986C12.1764 8.62909 12.0538 8.59314 11.955 8.51865L11.7143 8.83811ZM11.6333 7.87796C11.4 8.16126 11.429 8.57756 11.6994 8.82573L11.9699 8.53103C11.8561 8.42663 11.8439 8.25145 11.9421 8.1322L11.6333 7.87796ZM12.0978 7.34991C11.8651 7.61045 11.7099 7.78673 11.6345 7.87642L11.9408 8.13374C12.0116 8.04949 12.1626 7.87777 12.3961 7.61638L12.0978 7.34991ZM12.7718 6.60281L12.0985 7.34918L12.3955 7.61711L13.0688 6.87074L12.7718 6.60281ZM13.3528 5.97464L12.7734 6.60097L13.0671 6.87258L13.6464 6.24626L13.3528 5.97464ZM13.7783 5.49719L13.3503 5.97738L13.6489 6.24352L14.0769 5.76334L13.7783 5.49719ZM14.0363 5.1695C13.9708 5.26121 13.8839 5.37168 13.7746 5.50144L14.0806 5.7591C14.194 5.62437 14.288 5.50519 14.3617 5.40208L14.0363 5.1695ZM12.5288 5.48579H14.199V5.08579H12.5288V5.48579ZM11.9522 5.41554C12.1421 5.4695 12.3392 5.49317 12.5364 5.48564L12.5212 5.08594C12.366 5.09185 12.2109 5.07324 12.0616 5.03078L11.9522 5.41554ZM11.6294 4.89956C11.6294 5.008 11.6471 5.11614 11.6984 5.20972C11.7528 5.30892 11.8382 5.37876 11.9453 5.41343L12.0685 5.03288C12.0609 5.03041 12.0576 5.02804 12.0564 5.02701C12.0552 5.02601 12.0526 5.02362 12.0491 5.01737C12.0413 5.00309 12.0294 4.96858 12.0294 4.89956H11.6294ZM11.8355 4.43932C11.6991 4.55541 11.6231 4.7275 11.6295 4.90674L12.0293 4.89238C12.0272 4.83557 12.0513 4.78088 12.0948 4.74391L11.8355 4.43932ZM12.3597 4.27725C12.1744 4.26461 11.991 4.31995 11.8435 4.43281L12.0867 4.75042C12.1569 4.69665 12.2443 4.67031 12.3325 4.67632L12.3597 4.27725ZM14.9088 4.27679H12.3461V4.67679H14.9088V4.27679ZM15.5403 4.39939C15.3393 4.30721 15.1189 4.26515 14.8981 4.27708L14.9196 4.6765C15.0756 4.66807 15.2314 4.69777 15.3735 4.76296L15.5403 4.39939ZM15.8491 4.976C15.8711 4.74603 15.7571 4.52425 15.5573 4.40822L15.3564 4.75413C15.4211 4.79169 15.458 4.86349 15.4509 4.93794L15.8491 4.976ZM15.7994 5.21848C15.8322 5.13555 15.8493 5.04739 15.85 4.9586L15.45 4.95535C15.4497 4.99521 15.442 5.03453 15.4275 5.07125L15.7994 5.21848ZM15.6929 5.41741C15.7373 5.35498 15.7735 5.28714 15.8005 5.21564L15.4264 5.07409C15.4114 5.11364 15.3915 5.1511 15.367 5.18549L15.6929 5.41741ZM15.5876 5.55085L15.6868 5.42559L15.3731 5.17731L15.274 5.30257L15.5876 5.55085ZM15.3861 5.7747L15.5793 5.56071L15.2823 5.29272L15.0892 5.50671L15.3861 5.7747ZM13.325 8.07588L15.3866 5.77415L15.0887 5.50727L13.027 7.80901L13.325 8.07588ZM15.3681 7.74245H13.176V8.14245H15.3681V7.74245ZM20.5138 10.5785C20.3827 10.4736 20.2166 10.4228 20.0493 10.4362L20.0812 10.8349C20.1471 10.8296 20.2124 10.8496 20.2639 10.8909L20.5138 10.5785ZM20.6984 10.9954C20.7023 10.8401 20.6383 10.6908 20.5231 10.5865L20.2546 10.8829C20.2835 10.9091 20.2995 10.9465 20.2985 10.9855L20.6984 10.9954ZM20.5284 11.3839C20.6408 11.282 20.7029 11.1361 20.6984 10.9846L20.2986 10.9963C20.2996 11.031 20.2854 11.0644 20.2598 11.0876L20.5284 11.3839ZM20.0545 11.5291C20.219 11.5422 20.3825 11.4948 20.5143 11.3956L20.2738 11.0759C20.2201 11.1164 20.1535 11.1357 20.0864 11.1303L20.0545 11.5291ZM17.6487 11.5297H20.0705V11.1297H17.6487V11.5297ZM17.1483 11.3806C17.2967 11.491 17.4802 11.5437 17.6646 11.5291L17.6328 11.1303C17.545 11.1373 17.4577 11.1122 17.3871 11.0596L17.1483 11.3806ZM17.0734 10.5752C16.8876 10.8136 16.9115 11.1537 17.1286 11.3638L17.4068 11.0764C17.3364 11.0083 17.3288 10.8982 17.3889 10.8211L17.0734 10.5752ZM17.4531 10.1364C17.2658 10.3444 17.1374 10.4925 17.0729 10.5758L17.3894 10.8205C17.4433 10.7508 17.5618 10.6135 17.7504 10.404L17.4531 10.1364ZM17.9733 9.54328L17.4514 10.1383L17.7521 10.4021L18.274 9.80706L17.9733 9.54328ZM18.4209 9.02282L17.972 9.54476L18.2753 9.80558L18.7242 9.28364L18.4209 9.02282ZM18.7677 8.63388L18.4233 9.02011L18.7218 9.28635L19.0663 8.90012L18.7677 8.63388ZM18.9698 8.37943C18.9251 8.44644 18.8595 8.52681 18.7652 8.63684L19.0689 8.89716C19.1624 8.78798 19.2429 8.69089 19.3026 8.60131L18.9698 8.37943ZM17.8001 8.69037H19.1362V8.29037H17.8001V8.69037ZM17.3291 8.63613C17.4853 8.67943 17.6474 8.69766 17.8093 8.69016L17.7908 8.29059C17.6711 8.29613 17.5514 8.28266 17.4359 8.25066L17.3291 8.63613ZM17.0416 8.18243C17.0416 8.27243 17.0565 8.36492 17.1008 8.44708C17.1477 8.53395 17.2212 8.59694 17.3131 8.63096L17.4519 8.25584C17.4492 8.25482 17.4498 8.25462 17.4516 8.2562C17.4535 8.25781 17.4537 8.25877 17.4528 8.25704C17.4502 8.2522 17.4416 8.23159 17.4416 8.18243H17.0416ZM17.2225 7.78405C17.1034 7.88414 17.0368 8.03328 17.0417 8.18866L17.4415 8.1762C17.4405 8.14317 17.4546 8.11145 17.4799 8.0902L17.2225 7.78405ZM17.665 7.64348C17.5082 7.63474 17.3533 7.68275 17.2289 7.77885L17.4735 8.0954C17.5217 8.05814 17.5818 8.03947 17.6428 8.04286L17.665 7.64348ZM19.7208 7.64317H17.6539V8.04317H19.7208V7.64317ZM20.2427 7.74494C20.076 7.66838 19.8932 7.63348 19.7099 7.64347L19.7317 8.04288C19.8499 8.03643 19.968 8.05894 20.0757 8.10843L20.2427 7.74494ZM20.5094 8.25081C20.5309 8.05115 20.4339 7.85738 20.2615 7.75479L20.057 8.09857C20.0951 8.12125 20.1165 8.16405 20.1117 8.208L20.5094 8.25081ZM20.4642 8.45681C20.4934 8.38578 20.5092 8.30991 20.5106 8.23292L20.1106 8.22589C20.1101 8.2529 20.1046 8.27958 20.0943 8.30472L20.4642 8.45681ZM20.3734 8.62339C20.4116 8.57059 20.4427 8.51312 20.466 8.4524L20.0925 8.30913C20.0816 8.33753 20.0672 8.36423 20.0495 8.38867L20.3734 8.62339ZM20.2664 8.75345L20.3656 8.63341L20.0572 8.37866L19.9581 8.4987L20.2664 8.75345ZM20.1037 8.93285L20.2602 8.76061L19.9643 8.49154L19.8077 8.66378L20.1037 8.93285ZM18.4606 10.7689L20.1047 8.93169L19.8066 8.66494L18.1625 10.5022L18.4606 10.7689ZM20.0653 10.4355H18.3116V10.8355H20.0653V10.4355Z" fill="#3B5998" mask="url(#path-1-outside-1)"/>
</svg>
