<svg width="54" height="54" viewBox="0 0 54 54" fill="none" xmlns="http://www.w3.org/2000/svg">
<circle cx="27" cy="27" r="27" fill="#CFD8DC"/>
<path d="M15 23C13.9391 23 12.9217 23.4214 12.1716 24.1716C11.4214 24.9217 11 25.9391 11 27C11 28.0609 11.4214 29.0783 12.1716 29.8284C12.9217 30.5786 13.9391 31 15 31C16.0609 31 17.0783 30.5786 17.8284 29.8284C18.5786 29.0783 19 28.0609 19 27C19 25.9391 18.5786 24.9217 17.8284 24.1716C17.0783 23.4214 16.0609 23 15 23ZM27 23C25.9391 23 24.9217 23.4214 24.1716 24.1716C23.4214 24.9217 23 25.9391 23 27C23 28.0609 23.4214 29.0783 24.1716 29.8284C24.9217 30.5786 25.9391 31 27 31C28.0609 31 29.0783 30.5786 29.8284 29.8284C30.5786 29.0783 31 28.0609 31 27C31 25.9391 30.5786 24.9217 29.8284 24.1716C29.0783 23.4214 28.0609 23 27 23ZM39 23C37.9391 23 36.9217 23.4214 36.1716 24.1716C35.4214 24.9217 35 25.9391 35 27C35 28.0609 35.4214 29.0783 36.1716 29.8284C36.9217 30.5786 37.9391 31 39 31C40.0609 31 41.0783 30.5786 41.8284 29.8284C42.5786 29.0783 43 28.0609 43 27C43 25.9391 42.5786 24.9217 41.8284 24.1716C41.0783 23.4214 40.0609 23 39 23Z" fill="#455A64"/>
</svg>
