<svg width="49" height="61" viewBox="0 0 49 61" fill="none" xmlns="http://www.w3.org/2000/svg">
<path d="M6.56311 41.1733C6.05711 41.1733 1.99609 36.6272 1.99609 32.2462C1.99609 30.0137 1.99611 25.5507 6.56311 25.5507C20.2631 25.5507 29.3961 14.3911 29.3961 14.3911C29.3961 14.3911 33.9631 25.5507 43.0961 25.5507C47.6631 25.5507 47.6631 30.0137 47.6631 32.2462C47.6631 36.6272 43.6071 41.1733 43.0961 41.1733C39.0401 52.3456 31.6801 59.0284 24.8301 59.0284C17.9801 59.0284 10.6261 52.3593 6.56311 41.1733Z" stroke="#3B5998" stroke-width="2" stroke-linecap="round" stroke-linejoin="round"/>
<path d="M47.6631 27.7821C47.6631 12.9913 40.8131 1 24.8301 1C8.84708 1 1.99609 12.9913 1.99609 27.7821" stroke="#3B5998" stroke-width="2" stroke-linecap="round" stroke-linejoin="round"/>
<path d="M12.5043 40.3826C13.6403 40.3826 14.5613 39.4824 14.5613 38.3719C14.5613 37.2615 13.6403 36.3613 12.5043 36.3613C11.3682 36.3613 10.4473 37.2615 10.4473 38.3719C10.4473 39.4824 11.3682 40.3826 12.5043 40.3826Z" fill="#DF603C"/>
<path d="M37.5941 40.3826C38.7302 40.3826 39.6511 39.4824 39.6511 38.3719C39.6511 37.2615 38.7302 36.3613 37.5941 36.3613C36.4581 36.3613 35.5371 37.2615 35.5371 38.3719C35.5371 39.4824 36.4581 40.3826 37.5941 40.3826Z" fill="#DF603C"/>
<path d="M24.8324 54.2742C25.9685 54.2742 26.8894 53.374 26.8894 52.2635C26.8894 51.1531 25.9685 50.2529 24.8324 50.2529C23.6963 50.2529 22.7754 51.1531 22.7754 52.2635C22.7754 53.374 23.6963 54.2742 24.8324 54.2742Z" fill="#DF603C"/>
<path d="M24.8324 28.5229C25.9685 28.5229 26.8894 27.6228 26.8894 26.5123C26.8894 25.4019 25.9685 24.5017 24.8324 24.5017C23.6963 24.5017 22.7754 25.4019 22.7754 26.5123C22.7754 27.6228 23.6963 28.5229 24.8324 28.5229Z" fill="#DF603C"/>
</svg>
