<svg width="21" height="24" viewBox="0 0 21 24" fill="none" xmlns="http://www.w3.org/2000/svg">
<path d="M20.4892 16.9688C20.4581 16.9375 20.4114 16.875 20.3492 16.7812C19.6335 16.0312 19.1046 15.2969 18.7623 14.5781C18.2022 13.3281 17.9222 11.7188 17.9222 9.75C17.9222 7.9375 17.3621 6.35938 16.242 5.01562C15.1219 3.67188 13.6906 2.82812 11.9481 2.48438V1.5C11.9481 1.09375 11.7926 0.75 11.4814 0.46875C11.2014 0.15625 10.8591 0 10.4546 0C10.0501 0 9.69231 0.15625 9.38116 0.46875C9.10112 0.75 8.96111 1.09375 8.96111 1.5V2.48438C7.21867 2.82812 5.78738 3.67188 4.66724 5.01562C3.5471 6.35938 2.98704 7.9375 2.98704 9.75C2.98704 11.7188 2.707 13.3281 2.14693 14.5781C1.80467 15.2969 1.27571 16.0312 0.560069 16.7812L0.420052 16.9688C0.140017 17.2812 0 17.6406 0 18.0469C0 18.4219 0.140017 18.7656 0.420052 19.0781C0.700086 19.3594 1.05791 19.5 1.49352 19.5H19.4157C19.8513 19.5 20.2092 19.3594 20.4892 19.0781C20.7692 18.7656 20.9092 18.4219 20.9092 18.0469C20.9092 17.6406 20.7692 17.2812 20.4892 16.9688ZM3.17373 17.25C4.54278 15.4062 5.22731 12.9219 5.22731 9.79688V9.75C5.22731 8.8125 5.46067 7.9375 5.9274 7.125C6.39412 6.3125 7.03198 5.67188 7.84097 5.20312C8.64996 4.73438 9.52118 4.5 10.4546 4.5C11.3881 4.5 12.2593 4.73438 13.0683 5.20312C13.8773 5.67188 14.5151 6.3125 14.9818 7.125C15.4486 7.9375 15.6819 8.8125 15.6819 9.75V9.79688C15.6819 12.9219 16.3665 15.4062 17.7355 17.25H3.17373ZM10.4546 24C11.2636 24 11.9637 23.7031 12.5549 23.1094C13.1461 22.5469 13.4417 21.8438 13.4417 21H7.46759C7.46759 21.8438 7.76318 22.5469 8.35436 23.1094C8.94555 23.7031 9.64564 24 10.4546 24Z" fill="#3B5998"/>
</svg>
