<svg width="13" height="18" viewBox="0 0 13 18" fill="none" xmlns="http://www.w3.org/2000/svg">
<path d="M4.09259 17.9998C2.09168 11.4065 6.31955 8.9991 6.31955 8.9991C6.02374 12.5173 8.02307 15.2583 8.02307 15.2583C8.7584 15.0364 10.1619 13.9995 10.1619 13.9995C10.1619 15.2583 9.42134 17.9982 9.42134 17.9982C9.42134 17.9982 12.0139 15.9936 12.83 12.6642C13.645 9.33477 11.2775 5.99223 11.2775 5.99223C11.4202 8.34874 10.6229 10.6664 9.06102 12.4371C9.13917 12.3469 9.20473 12.2467 9.25508 12.1381C9.53568 11.5769 9.98621 10.1183 9.7224 6.74067C9.35106 1.99933 5.05502 0 5.05502 0C5.4253 2.88886 4.31497 3.55443 1.71405 9.03791C-0.886864 14.5203 4.09259 17.9998 4.09259 17.9998Z" fill="#DF603C"/>
</svg>
