<svg width="164" height="143" viewBox="0 0 164 143" fill="none" xmlns="http://www.w3.org/2000/svg">
<path d="M142.925 110.125C142.431 110.642 142.133 111.355 142.133 112.066C142.133 112.777 142.406 113.487 142.925 114.007C143.442 114.499 144.155 114.799 144.866 114.799C145.577 114.799 146.287 114.499 146.807 114.007C147.299 113.487 147.599 112.777 147.599 112.066C147.599 111.355 147.299 110.642 146.807 110.125C145.795 109.141 143.964 109.114 142.925 110.125Z" fill="#3B5998"/>
<path d="M84.7333 68.3807H112.067C113.578 68.3807 114.8 67.1589 114.8 65.6474C114.8 64.1359 113.578 62.9141 112.067 62.9141H84.7333C83.2218 62.9141 82 64.1359 82 65.6474C82 67.1589 83.2218 68.3807 84.7333 68.3807Z" fill="#3B5998"/>
<path d="M87.4667 109.381H84.7333C83.2218 109.381 82 110.603 82 112.114C82 113.626 83.2218 114.848 84.7333 114.848H87.4667C88.9782 114.848 90.2 113.626 90.2 112.114C90.2 110.603 88.9782 109.381 87.4667 109.381Z" fill="#3B5998"/>
<path d="M103.867 109.381H98.4003C96.8888 109.381 95.667 110.603 95.667 112.114C95.667 113.626 96.8888 114.848 98.4003 114.848H103.867C105.379 114.848 106.6 113.626 106.6 112.114C106.6 110.603 105.379 109.381 103.867 109.381Z" fill="#3B5998"/>
<path d="M117.533 109.381H114.8C113.288 109.381 112.066 110.603 112.066 112.114C112.066 113.626 113.288 114.848 114.8 114.848H117.533C119.045 114.848 120.266 113.626 120.266 112.114C120.266 110.603 119.045 109.381 117.533 109.381Z" fill="#3B5998"/>
<path d="M133.933 109.381H128.467C126.955 109.381 125.733 110.603 125.733 112.114C125.733 113.626 126.955 114.848 128.467 114.848H133.933C135.445 114.848 136.667 113.626 136.667 112.114C136.667 110.603 135.445 109.381 133.933 109.381Z" fill="#3B5998"/>
<path d="M144.867 79.3145H84.7333C83.2218 79.3145 82 80.5363 82 82.0478C82 83.5593 83.2218 84.7811 84.7333 84.7811H144.867C146.378 84.7811 147.6 83.5593 147.6 82.0478C147.6 80.5363 146.378 79.3145 144.867 79.3145Z" fill="#3B5998"/>
<path d="M144.867 96.0664H84.7333C83.2218 96.0664 82 97.2882 82 98.7997C82 100.311 83.2218 101.533 84.7333 101.533H144.867C146.378 101.533 147.6 100.311 147.6 98.7997C147.6 97.2882 146.378 96.0664 144.867 96.0664Z" fill="#3B5998"/>
<path d="M151.213 27.3333H101.133V6.3222C101.133 2.83447 98.2989 0 94.8111 0H69.1861C65.7011 0 62.8667 2.83447 62.8667 6.3222V27.3333H12.7865C5.73727 27.3333 0 33.0706 0 40.1199V129.35C0 136.396 5.73727 142.133 12.7865 142.133H151.216C158.263 142.133 164 136.396 164 129.347V40.1199C164 33.0706 158.263 27.3333 151.213 27.3333ZM68.3333 6.3222C68.3333 5.85207 68.7187 5.46667 69.1861 5.46667H94.8111C95.2813 5.46667 95.6667 5.85207 95.6667 6.3222V27.3333V42.8805C95.6667 43.3479 95.2813 43.7333 94.8111 43.7333H69.1861C68.7187 43.7333 68.3333 43.3479 68.3333 42.8805V27.3333V6.3222ZM158.533 129.347C158.533 133.384 155.251 136.667 151.213 136.667H12.7865C8.7494 136.667 5.46667 133.384 5.46667 129.347V40.1199C5.46667 36.0827 8.7494 32.8 12.7865 32.8H62.8667V42.8805C62.8667 46.3655 65.7011 49.2 69.1861 49.2H94.8111C98.2989 49.2 101.133 46.3655 101.133 42.8805V32.8H151.213C155.251 32.8 158.533 36.0827 158.533 40.1199V129.347Z" fill="#3B5998"/>
<path d="M81.9997 30.0659C88.0295 30.0659 92.9331 25.1623 92.9331 19.1326C92.9331 13.1028 88.0295 8.19922 81.9997 8.19922C75.97 8.19922 71.0664 13.1028 71.0664 19.1326C71.0664 25.1623 75.97 30.0659 81.9997 30.0659ZM81.9997 13.6659C85.0146 13.6659 87.4664 16.1177 87.4664 19.1326C87.4664 22.1474 85.0146 24.5992 81.9997 24.5992C78.9849 24.5992 76.5331 22.1474 76.5331 19.1326C76.5331 16.1177 78.9849 13.6659 81.9997 13.6659Z" fill="#3B5998"/>
<path d="M48.9313 102.294C46.7639 104.461 43.2373 104.461 41.0701 102.294C40.6265 101.85 39.9073 101.85 39.4637 102.294C39.0199 102.737 39.0199 103.456 39.4637 103.9C40.9902 105.427 42.9955 106.19 45.0008 106.19C47.006 106.19 49.0113 105.427 50.5379 103.9C50.9816 103.456 50.9816 102.737 50.5379 102.294C50.0943 101.85 49.3749 101.85 48.9313 102.294Z" fill="#3B5998"/>
<path d="M70.7072 113.564C68.0462 110.617 67.9336 103.109 68.2485 95.3399C69.4076 94.2512 70.1338 92.7066 70.1338 90.9947C70.1338 89.4914 69.5735 88.1173 68.6524 87.0672C69.0394 79.1433 69.2448 73.8444 66.7313 68.9515C65.0166 65.6129 62.242 62.8234 58.4848 60.6605C54.1058 58.1398 49.1107 56.9025 44.0389 57.0838C39.584 57.2426 35.4364 59.3181 32.5764 62.8005C28.8834 63.0202 25.5239 65.03 23.7165 68.1363C23.5613 68.403 23.4112 68.6772 23.2703 68.9513C20.7554 73.8469 20.9606 79.1455 21.3477 87.0685C20.4271 88.1184 19.8674 89.4919 19.8674 90.9947C19.8674 92.706 20.593 94.2502 21.7515 95.3389C22.0665 103.108 21.9539 110.617 19.2929 113.564C19.0413 113.843 18.9436 114.228 19.0319 114.593C19.1202 114.957 19.3832 115.255 19.7343 115.388C22.7294 116.52 25.6301 116.924 28.2481 116.924C30.9677 116.924 33.3822 116.487 35.2777 115.975C38.5713 115.084 40.8943 113.834 41.6869 113.373C42.7657 113.55 43.8722 113.645 45.0005 113.645C46.1285 113.645 47.2348 113.551 48.3133 113.373C49.106 113.834 51.4289 115.084 54.7222 115.975C57.2507 116.658 59.5948 116.926 61.7153 116.926C65.2477 116.926 68.1594 116.184 70.2656 115.388C70.6169 115.255 70.8797 114.957 70.968 114.592C71.0565 114.227 70.9588 113.843 70.7072 113.564ZM65.3058 93.3394V87.7001C65.3061 87.6852 65.3061 87.6701 65.3058 87.6551V87.4823C66.7873 87.9626 67.8617 89.3552 67.8617 90.9945C67.8617 92.6469 66.7705 94.0493 65.2708 94.5187C65.2932 94.1284 65.3058 93.7355 65.3058 93.3394ZM25.2912 69.9895C25.414 69.7505 25.5448 69.5114 25.6801 69.2789C27.1763 66.7075 30.0379 65.0882 33.1482 65.0529C33.1517 65.0529 33.1603 65.0527 33.164 65.0526C33.509 65.0453 33.8319 64.8818 34.0419 64.608C36.4935 61.4101 40.1667 59.4952 44.1199 59.3542C48.7658 59.1885 53.3413 60.3212 57.3511 62.6294C60.7228 64.5704 63.1988 67.0466 64.7102 69.9895C66.7219 73.9057 66.7816 78.1657 66.4517 85.4854C66.0865 85.3336 65.7031 85.2176 65.3058 85.1405V83.9854C65.3058 83.358 64.7972 82.8494 64.1699 82.8494C63.5425 82.8494 63.0339 83.358 63.0339 83.9854V86.5653C47.3862 86.7324 38.9153 79.1954 36.6551 76.8373C36.3891 76.5599 36.0009 76.4358 35.6237 76.5072C35.2462 76.5786 34.9304 76.8361 34.7843 77.1915C33.1336 81.2068 30.2495 83.3076 25.7082 83.8026C25.1319 83.8654 24.6954 84.3521 24.6954 84.9319V85.1404C24.2976 85.2175 23.9138 85.3336 23.5483 85.4857C23.2183 78.1677 23.2784 73.9078 25.2912 69.9895ZM24.7303 94.5188C23.2305 94.0494 22.1393 92.6471 22.1393 90.9947C22.1393 89.3552 23.2138 87.9626 24.6952 87.4824V93.3394C24.6952 93.7355 24.7079 94.1284 24.7303 94.5188ZM21.9553 113.743C23.981 110.285 24.3323 104.537 24.0747 96.6941C24.3763 96.7872 24.6884 96.8559 25.0082 96.9002C26.3002 104.174 31.4786 110.121 38.3124 112.512C35.0257 113.926 28.8048 115.8 21.9553 113.743ZM45.0005 111.373C35.0569 111.373 26.9671 103.283 26.9671 93.3393L26.9673 85.9233C31.2276 85.2223 34.2607 83.125 36.1835 79.5465C37.8201 81.0395 40.4663 83.0872 44.1957 84.8819C49.8031 87.5804 56.1356 88.9113 63.0339 88.8376V93.3393C63.0339 103.283 54.9442 111.373 45.0005 111.373ZM55.39 113.802C53.9334 113.412 52.6766 112.942 51.6845 112.513C58.5204 110.123 63.7007 104.176 64.993 96.9002C65.3125 96.8559 65.6242 96.7874 65.9255 96.6944C65.6678 104.539 66.0189 110.286 68.0456 113.744C64.0338 114.956 59.7839 114.976 55.39 113.802Z" fill="#3B5998"/>
<path d="M31.4236 92.2769C30.9799 92.7205 30.9799 93.4397 31.4236 93.8833C31.8672 94.3269 32.5864 94.3269 33.03 93.8833C33.7582 93.1554 34.9427 93.1553 35.6708 93.8833C35.8926 94.1051 36.1833 94.216 36.4741 94.216C36.7649 94.216 37.0556 94.1051 37.2774 93.8833C37.7211 93.4397 37.7211 92.7205 37.2774 92.2769C35.6636 90.663 33.0374 90.6628 31.4236 92.2769Z" fill="#3B5998"/>
<path d="M58.5782 93.8832C59.0219 93.4396 59.0219 92.7204 58.5782 92.2768C56.9642 90.6629 54.3382 90.6629 52.7244 92.2768C52.2807 92.7204 52.2807 93.4396 52.7244 93.8832C53.168 94.3268 53.8872 94.3268 54.3308 93.8832C55.0589 93.1552 56.2436 93.1554 56.9716 93.8832C57.1934 94.105 57.4841 94.2159 57.7749 94.2159C58.0657 94.2159 58.3564 94.105 58.5782 93.8832Z" fill="#3B5998"/>
</svg>
