<svg width="25" height="25" viewBox="0 0 25 25" fill="none" xmlns="http://www.w3.org/2000/svg">
<path d="M23.5 12.25C23.5 18.4632 18.4632 23.5 12.25 23.5C6.0368 23.5 1 18.4632 1 12.25C1 6.0368 6.0368 1 12.25 1C18.4632 1 23.5 6.0368 23.5 12.25Z" stroke="#C9C9C9" stroke-width="2"/>
<path d="M11.3076 15.0244H13.3447V17H11.3076V15.0244ZM8.8125 10.1025C8.86719 8.80371 9.32064 7.88314 10.1729 7.34082C10.7106 6.99447 11.3714 6.82129 12.1553 6.82129C13.1852 6.82129 14.0397 7.06738 14.7188 7.55957C15.4023 8.05176 15.7441 8.78092 15.7441 9.74707C15.7441 10.3395 15.596 10.8385 15.2998 11.2441C15.1266 11.4902 14.7939 11.8047 14.3018 12.1875L13.8164 12.5635C13.5521 12.7686 13.3766 13.0078 13.29 13.2812C13.2354 13.4544 13.2057 13.7233 13.2012 14.0879H11.3555C11.3828 13.3177 11.4557 12.7868 11.5742 12.4951C11.6927 12.1989 11.998 11.8594 12.4902 11.4766L12.9893 11.0869C13.1533 10.9639 13.2855 10.8294 13.3857 10.6836C13.568 10.4329 13.6592 10.1572 13.6592 9.85645C13.6592 9.51009 13.5566 9.19564 13.3516 8.91309C13.151 8.62598 12.7819 8.48242 12.2441 8.48242C11.7155 8.48242 11.3395 8.65788 11.1162 9.00879C10.8975 9.3597 10.7881 9.72428 10.7881 10.1025H8.8125Z" fill="#C9C9C9"/>
</svg>
