<svg width="39" height="32" viewBox="0 0 39 32" fill="none" xmlns="http://www.w3.org/2000/svg">
<path d="M38.6321 0C33.6038 0.250985 29.5566 2.25882 26.3679 5.77255C23.1792 9.28627 21.5849 13.6784 21.5849 18.949C21.5849 22.7137 22.4434 25.851 24.1604 28.3608C25.8774 30.8706 28.2076 32 31.0283 32C33.1132 32 34.9528 31.2471 36.5472 29.7412C38.1415 28.2353 39 26.3529 39 24.2196C39 22.5882 38.6321 21.3333 38.0189 20.4549C37.4057 19.5765 35.934 18.3216 33.6038 16.5647C31.3962 15.1843 30.2925 13.6784 30.2925 12.0471C30.2925 8.65882 32.9906 6.4 38.6321 5.27059V0ZM17.0472 0C12.0189 0.250985 7.9717 2.25882 4.78302 5.77255C1.59434 9.28627 0 13.6784 0 18.949C0 22.7137 0.858491 25.7255 2.69811 28.2353C4.41509 30.7451 6.74528 32 9.4434 32C11.5283 32 13.3679 31.2471 14.9623 29.7412C16.5566 28.2353 17.4151 26.3529 17.4151 24.2196C17.4151 22.4627 17.0472 21.2078 16.434 20.3294C15.8208 19.5765 14.3491 18.3216 12.0189 16.5647C9.81132 15.1843 8.70755 13.6784 8.70755 12.0471C8.70755 8.65882 11.4057 6.4 17.0472 5.27059V0Z" fill="#C55482"/>
</svg>
