<?xml version="1.0" encoding="utf-8"?>
<!-- Generator: Adobe Illustrator 23.1.1, SVG Export Plug-In . SVG Version: 6.00 Build 0)  -->
<svg version="1.1" id="Layer_2" xmlns="http://www.w3.org/2000/svg" xmlns:xlink="http://www.w3.org/1999/xlink" x="0px" y="0px"
	 viewBox="0 0 33.3 31.1" style="enable-background:new 0 0 33.3 31.1;" xml:space="preserve">
<style type="text/css">
	.st0{fill:#3B5998;}
</style>
<g>
	<path class="st0" d="M15.5,30.9C7.1,30.9,0.2,24,0.2,15.5S7.1,0.2,15.5,0.2c6.8,0,12.9,4.6,14.8,11.2c0.2,0.7-0.2,1.5-1,1.7
		c-0.7,0.2-1.5-0.2-1.7-1C26.1,6.7,21.1,3,15.5,3C8.6,3,3,8.6,3,15.5c0,6.9,5.6,12.5,12.5,12.5c3.5,0,6.8-1.5,9.2-4
		c0.5-0.6,1.4-0.6,2-0.1s0.6,1.4,0.1,2C23.9,29.1,19.8,30.9,15.5,30.9z"/>
	<path class="st0" d="M29.2,13.7c-0.1,0-0.3,0-0.4-0.1L21,11.3c-0.7-0.2-1.2-1-0.9-1.7c0.2-0.7,1-1.2,1.7-0.9l6.5,2l2.1-6.3
		c0.2-0.7,1-1.1,1.8-0.9c0.7,0.2,1.1,1,0.9,1.8l-2.5,7.6C30.3,13.3,29.8,13.7,29.2,13.7z"/>
</g>
</svg>
