<svg width="243" height="232" viewBox="0 0 243 232" fill="none" xmlns="http://www.w3.org/2000/svg">
<path d="M220.887 126.239C221.293 122.878 221.428 120.19 221.969 117.501C222.78 113.469 224.808 109.571 224.808 105.538C224.808 100.296 226.565 96.935 231.432 95.0531C237.246 92.768 238.868 89.0042 236.164 83.3585C233.731 78.385 231.973 73.0081 229.269 68.169C225.619 61.8512 219.941 58.4907 212.641 56.8777C207.503 55.6679 202.096 53.1139 198.04 49.7534C178.032 33.3541 156.131 22.8693 129.498 26.633C124.091 27.4396 118.818 29.5903 112.329 31.6066C112.735 28.2461 112.689 25.3717 113.546 21.1218C116.824 4.86265 100.036 1.88537 99.4858 9.8226C99.2154 13.7208 99.621 26.0953 99.4858 28.3805C92.8615 25.4232 86.5075 21.1218 79.4775 19.6432C61.3619 15.745 46.3557 21.2562 33.783 35.5048C21.8861 49.0813 12.1524 63.4643 8.36704 81.2078C7.82628 84.0306 7.01513 86.8535 6.33918 89.5419C6.33918 93.9778 6.33918 98.5481 6.33918 102.984C10.8005 129.465 31.2143 143.848 49.7355 159.844C52.8449 162.532 56.3599 164.549 59.1989 167.371C61.9027 170.194 64.4713 173.42 66.2288 176.915C68.6623 181.889 66.6344 186.325 62.0379 188.879C57.171 191.702 52.9801 189.416 49.7355 185.384C48.7892 184.174 48.2484 182.695 47.5725 181.217C42.8408 189.013 43.2463 194.524 49.1947 200.708C56.7654 208.504 66.2288 212.268 76.7737 213.209C91.3743 214.553 102.595 203.531 103.812 188.61C105.164 171.673 100.703 157.962 86.1019 147.746C79.2071 142.907 72.9884 136.858 67.3103 130.54C52.0337 113.738 51.3578 89.273 65.0121 71.2607C69.7438 65.0773 76.0978 61.9857 84.75 61.7168C82.3165 70.4541 79.3423 78.5194 77.7201 86.8535C72.718 112.393 79.2071 134.17 100.432 150.703C100.973 151.107 101.514 151.644 102.054 151.913C125.307 164.817 125.172 185.518 120.576 207.429C116.25 227.861 107.868 246.411 94.2134 262.541C93.4022 263.482 93.1318 264.692 92.3207 266.305C96.782 265.095 100.567 263.617 104.353 262.944C120.035 260.659 130.715 267.918 139.908 279.881C151.67 295.34 164.242 310.261 176.815 325.047C178.437 327.063 182.358 327.198 185.332 328.138C185.738 324.912 187.36 321.014 186.143 318.595C179.924 306.228 173.3 293.996 165.865 282.301C160.727 274.236 160.863 267.112 165.189 259.181C169.785 250.981 168.704 248.696 160.457 243.722C158.97 242.916 158.294 239.959 158.159 237.942C156.942 225.307 160.727 213.747 166.676 202.59C172.489 191.567 172.354 191.702 184.386 194.121C192.903 195.869 201.555 197.347 210.207 198.691C216.561 199.767 219.13 197.616 218.724 191.164C218.319 185.384 219.4 180.679 224.267 176.915C225.349 176.109 225.349 173.958 225.754 172.479C226.295 170.732 227.106 168.984 227.377 167.237C227.782 165.221 228.728 162.398 227.782 161.054C224.402 155.811 224.943 151.779 230.351 148.553C234.677 145.999 234.542 143.579 231.027 140.218C227.782 136.992 219.176 130.887 221.141 123.94" stroke="#3B5998" stroke-width="11" stroke-miterlimit="10" stroke-linejoin="round"/>
</svg>
