<svg width="10" height="10" viewBox="0 0 10 10" fill="none" xmlns="http://www.w3.org/2000/svg">
<path d="M9.93038 1.77814L8.60164 0.610421C8.56087 0.574362 8.50668 0.556026 8.45321 0.559816C8.39902 0.563401 8.34841 0.588294 8.31256 0.629168L3.49321 6.11443L1.77961 3.8463C1.74693 3.80307 1.69827 3.77449 1.64449 3.76711C1.59081 3.75912 1.53601 3.77367 1.49278 3.80655L0.0813744 4.87275C-0.00887441 4.94098 -0.0268013 5.06944 0.0414232 5.15969L3.21437 9.35932C3.25145 9.40839 3.30882 9.4383 3.37028 9.44056C3.37274 9.44056 3.3753 9.44056 3.37776 9.44056C3.43656 9.44056 3.4927 9.41536 3.53173 9.3709L9.94892 2.06722C10.0237 1.9823 10.0154 1.85271 9.93038 1.77814Z" fill="#FFFFFF"/>
</svg>
