<svg width="21" height="18" viewBox="0 0 21 18" fill="none" xmlns="http://www.w3.org/2000/svg">
<path d="M0.00184836 8.85118C0.0275479 9.27444 0.314526 9.63065 0.730001 9.75217L8.42272 12.0277L8.70542 17.2157C8.71827 17.4211 8.85961 17.6013 9.06093 17.6683C9.11661 17.6893 9.17657 17.6977 9.23226 17.6977C9.38217 17.6977 9.52352 17.639 9.62631 17.5258L12.3462 14.5798L16.2011 17.1906C16.3724 17.3079 16.5737 17.3708 16.7836 17.3708C17.2676 17.3708 17.6874 17.0355 17.7902 16.5662L20.9898 0.612348C21.0283 0.427959 20.9555 0.235189 20.8099 0.11785C20.66 -0.00367883 20.4587 -0.0330135 20.2788 0.0382277L0.618637 7.86638C0.220294 8.04239 -0.0238511 8.42793 0.00184836 8.85118ZM9.682 15.9292L9.50638 12.6563L11.4767 13.9889L9.682 15.9292ZM16.7665 16.3273L9.75053 11.5751L19.5892 2.26347L16.7665 16.3273ZM18.5098 1.85278L8.78251 11.0597L1.09836 8.78832L18.5098 1.85278Z" fill="#3B5998"/>
</svg>
