<svg width="15" height="15" viewBox="0 0 15 15" fill="none" xmlns="http://www.w3.org/2000/svg">
<path d="M12.3384 6.54148V2.02955C12.3384 1.45326 11.8695 0.984375 11.2932 0.984375H1.84498C1.26869 0.984375 0.799805 1.45326 0.799805 2.02955V11.4778C0.799805 12.0542 1.26869 12.523 1.84498 12.523H7.92952C8.6388 13.4875 9.78121 14.1147 11.0675 14.1147C13.2143 14.1147 14.9607 12.3682 14.9607 10.2215C14.9607 8.51956 13.8629 7.06946 12.3384 6.54148ZM5.54272 1.83518H7.59547V4.18363L6.72694 3.83661C6.6256 3.7962 6.51259 3.7962 6.41125 3.83661L5.54272 4.18363V1.83518ZM1.84498 11.6721C1.7378 11.6721 1.65061 11.585 1.65061 11.4778V2.02955C1.65061 1.92237 1.7378 1.83518 1.84498 1.83518H4.69202V4.81177C4.69202 4.95287 4.76203 5.08478 4.87882 5.16398C4.99572 5.24306 5.14417 5.25916 5.27522 5.20676L6.56909 4.68979L7.86308 5.20676C7.91396 5.22707 7.96755 5.23712 8.02082 5.23712C8.10465 5.23712 8.18795 5.21227 8.25947 5.16398C8.37626 5.08478 8.44627 4.95287 8.44627 4.81177V1.83518H11.2932C11.4004 1.83518 11.4876 1.92237 11.4876 2.02955V6.351C11.3496 6.33609 11.2095 6.32831 11.0675 6.32831C8.92078 6.32831 7.17433 8.07477 7.17433 10.2215C7.17433 10.734 7.27405 11.2236 7.4548 11.6721H1.84498ZM11.0675 13.2639C9.38989 13.2639 8.02514 11.899 8.02514 10.2215C8.02514 8.54387 9.38989 7.17912 11.0675 7.17912C12.745 7.17912 14.1099 8.54387 14.1099 10.2215C14.1099 11.899 12.745 13.2639 11.0675 13.2639Z" fill="#24272A"/>
<path d="M12.6166 9.82444H11.4646V8.67253C11.4646 8.43754 11.2742 8.24707 11.0392 8.24707C10.8043 8.24707 10.6138 8.43754 10.6138 8.67253V10.2499C10.6138 10.4848 10.8043 10.6752 11.0392 10.6752H12.6166C12.8515 10.6752 13.042 10.4848 13.042 10.2499C13.042 10.0149 12.8515 9.82444 12.6166 9.82444Z" fill="#24272A"/>
</svg>
