<svg width="21" height="21" viewBox="0 0 21 21" fill="none" xmlns="http://www.w3.org/2000/svg">
<path d="M17.1112 8.58129V1.61396C17.1112 0.724061 16.4159 0 15.5613 0H1.54994C0.695343 0 0 0.724061 0 1.61396V16.204C0 17.094 0.695343 17.8179 1.54994 17.8179H10.5731C11.6249 19.3074 13.319 20.2759 15.2266 20.2759C18.4101 20.2759 21 17.579 21 14.264C21 11.6359 19.372 9.39661 17.1112 8.58129ZM7.03354 1.31382H10.0777V4.9403L8.78968 4.40443C8.6394 4.34203 8.47181 4.34203 8.32153 4.40443L7.03354 4.9403V1.31382ZM1.54994 16.5041C1.39101 16.5041 1.26171 16.3695 1.26171 16.204V1.61396C1.26171 1.44846 1.39101 1.31382 1.54994 1.31382H5.77199V5.91027C5.77199 6.12816 5.87581 6.33186 6.049 6.45415C6.22236 6.57628 6.4425 6.60113 6.63684 6.52022L8.5556 5.72192L10.4745 6.52022C10.55 6.55158 10.6295 6.5671 10.7084 6.5671C10.8328 6.5671 10.9563 6.52873 11.0624 6.45415C11.2356 6.33186 11.3394 6.12816 11.3394 5.91027V1.31382H15.5613C15.7202 1.31382 15.8495 1.44846 15.8495 1.61396V8.28716C15.6449 8.26414 15.4371 8.25213 15.2266 8.25213C12.0431 8.25213 9.45314 10.949 9.45314 14.264C9.45314 15.0555 9.60102 15.8114 9.86906 16.5041H1.54994ZM15.2266 18.9621C12.7387 18.9621 10.7149 16.8544 10.7149 14.264C10.7149 11.6734 12.7387 9.56595 15.2266 9.56595C17.7143 9.56595 19.7383 11.6734 19.7383 14.264C19.7383 16.8544 17.7143 18.9621 15.2266 18.9621Z" fill="#3B5998"/>
<path d="M17.5236 13.6506H15.8154V11.8718C15.8154 11.509 15.5329 11.2148 15.1845 11.2148C14.8361 11.2148 14.5537 11.509 14.5537 11.8718V14.3076C14.5537 14.6703 14.8361 14.9645 15.1845 14.9645H17.5236C17.8721 14.9645 18.1546 14.6703 18.1546 14.3076C18.1546 13.9448 17.8721 13.6506 17.5236 13.6506Z" fill="#3B5998"/>
</svg>
