<svg width="56" height="56" viewBox="0 0 56 56" fill="none" xmlns="http://www.w3.org/2000/svg">
<path d="M31.6 33.8H29.2V24.2H31.6V33.8ZM28 17C34.6 17 40 22.4 40 29C40 35.6 34.6 41 28 41C21.4 41 16 35.6 16 29C16 22.4 21.4 17 28 17ZM28 38.6C33.28 38.6 37.6 34.28 37.6 29C37.6 23.72 33.28 19.4 28 19.4C22.72 19.4 18.4 23.72 18.4 29C18.4 34.28 22.72 38.6 28 38.6ZM26.8 33.8H24.4V24.2H26.8V33.8Z" fill="white"/>
<path d="M56 28C56 43.464 43.464 56 28 56C12.536 56 0 43.464 0 28C0 12.536 12.536 0 28 0C43.464 0 56 12.536 56 28Z" fill="#A4D3DE"/>
<path d="M28 16C21.371 16 16 21.371 16 28C16 34.629 21.371 40 28 40C34.629 40 40 34.629 40 28C40 21.371 34.629 16 28 16ZM28 37.6774C22.6629 37.6774 18.3226 33.3371 18.3226 28C18.3226 22.6629 22.6629 18.3226 28 18.3226C33.3371 18.3226 37.6774 22.6629 37.6774 28C37.6774 33.3371 33.3371 37.6774 28 37.6774ZM24.129 27.2258C24.9855 27.2258 25.6774 26.5339 25.6774 25.6774C25.6774 24.821 24.9855 24.129 24.129 24.129C23.2726 24.129 22.5806 24.821 22.5806 25.6774C22.5806 26.5339 23.2726 27.2258 24.129 27.2258ZM31.871 27.2258C32.7274 27.2258 33.4194 26.5339 33.4194 25.6774C33.4194 24.821 32.7274 24.129 31.871 24.129C31.0145 24.129 30.3226 24.821 30.3226 25.6774C30.3226 26.5339 31.0145 27.2258 31.871 27.2258ZM32.0645 30.7387C31.0581 31.9484 29.5726 32.6452 28 32.6452C26.4274 32.6452 24.9419 31.9532 23.9355 30.7387C23.5242 30.2452 22.7887 30.1823 22.3 30.5887C21.8065 31 21.7435 31.7306 22.15 32.2242C23.6016 33.9661 25.7355 34.9629 28 34.9629C30.2645 34.9629 32.3984 33.9661 33.85 32.2242C34.2613 31.7306 34.1936 31 33.7 30.5887C33.2113 30.1823 32.4758 30.2452 32.0645 30.7387Z" fill="#A4D3DE"/>
<path d="M28 16C21.371 16 16 21.371 16 28C16 34.629 21.371 40 28 40C34.629 40 40 34.629 40 28C40 21.371 34.629 16 28 16ZM28 37.6774C22.6629 37.6774 18.3226 33.3371 18.3226 28C18.3226 22.6629 22.6629 18.3226 28 18.3226C33.3371 18.3226 37.6774 22.6629 37.6774 28C37.6774 33.3371 33.3371 37.6774 28 37.6774ZM24.129 27.2258C24.9855 27.2258 25.6774 26.5339 25.6774 25.6774C25.6774 24.821 24.9855 24.129 24.129 24.129C23.2726 24.129 22.5806 24.821 22.5806 25.6774C22.5806 26.5339 23.2726 27.2258 24.129 27.2258ZM31.871 27.2258C32.7274 27.2258 33.4194 26.5339 33.4194 25.6774C33.4194 24.821 32.7274 24.129 31.871 24.129C31.0145 24.129 30.3226 24.821 30.3226 25.6774C30.3226 26.5339 31.0145 27.2258 31.871 27.2258ZM32.0645 30.7387C31.0581 31.9484 29.5726 32.6452 28 32.6452C26.4274 32.6452 24.9419 31.9532 23.9355 30.7387C23.5242 30.2452 22.7887 30.1823 22.3 30.5887C21.8065 31 21.7435 31.7306 22.15 32.2242C23.6016 33.9661 25.7355 34.9629 28 34.9629C30.2645 34.9629 32.3984 33.9661 33.85 32.2242C34.2613 31.7306 34.1935 31 33.7 30.5887C33.2113 30.1823 32.4758 30.2452 32.0645 30.7387Z" fill="white"/>
</svg>
