<svg width="28" height="29" viewBox="0 0 28 29" fill="none" xmlns="http://www.w3.org/2000/svg">
<path d="M2.73915 13.1689H0.913069C0.408792 13.1689 0 13.5778 0 14.0821C0 14.5864 0.408792 14.9953 0.913069 14.9953H2.73915C3.24338 14.9953 3.65222 14.5865 3.65222 14.0821C3.65222 13.5778 3.24338 13.1689 2.73915 13.1689Z" fill="#3B5998"/>
<path d="M27.0868 13.1689H25.2607C24.7565 13.1689 24.3477 13.5778 24.3477 14.0821C24.3477 14.5865 24.7564 14.9953 25.2607 14.9953H27.0868C27.591 14.9953 27.9999 14.5865 27.9999 14.0821C27.9999 13.5778 27.5911 13.1689 27.0868 13.1689Z" fill="#3B5998"/>
<path d="M14.001 24.4307C13.4967 24.4307 13.0879 24.8395 13.0879 25.3437V27.1698C13.0879 27.674 13.4967 28.0829 14.001 28.0829C14.5053 28.0829 14.9141 27.6741 14.9141 27.1698V25.3437C14.9141 24.8395 14.5052 24.4307 14.001 24.4307Z" fill="#3B5998"/>
<path d="M14.001 0.0825195C13.4967 0.0825195 13.0879 0.491286 13.0879 0.995531V2.8215C13.0879 3.32569 13.4967 3.73451 14.001 3.73451C14.5053 3.73451 14.9141 3.32574 14.9141 2.8215V0.995531C14.9141 0.491286 14.5052 0.0825195 14.001 0.0825195Z" fill="#3B5998"/>
<path d="M21.3337 24.9595L20.4207 23.3781C20.1685 22.9414 19.6101 22.7917 19.1735 23.0439C18.7368 23.296 18.5872 23.8544 18.8393 24.2911L19.7523 25.8725C20.0045 26.3094 20.5631 26.4587 20.9995 26.2067C21.4362 25.9545 21.5858 25.3961 21.3337 24.9595Z" fill="#3B5998"/>
<path d="M9.15989 3.87399L8.24683 2.29261C7.99472 1.85594 7.4363 1.70626 6.99963 1.95842C6.56295 2.21053 6.41332 2.76894 6.66543 3.20561L7.57849 4.78699C7.83071 5.22388 8.38929 5.37323 8.82569 5.12118C9.26237 4.86907 9.41199 4.31067 9.15989 3.87399Z" fill="#3B5998"/>
<path d="M25.7909 19.8354L24.2095 18.9223C23.7728 18.6701 23.2144 18.8198 22.9623 19.2565C22.7102 19.6932 22.8598 20.2516 23.2965 20.5037L24.8779 21.4167C25.3144 21.6688 25.8729 21.5194 26.1251 21.0825C26.3772 20.6459 26.2276 20.0875 25.7909 19.8354Z" fill="#3B5998"/>
<path d="M4.70498 7.66153L3.12358 6.74849C2.68684 6.49627 2.12843 6.646 1.87637 7.08267C1.62426 7.51935 1.77389 8.07775 2.21057 8.32985L3.79197 9.2429C4.22844 9.49494 4.78696 9.3456 5.03918 8.90871C5.29124 8.47204 5.14167 7.91363 4.70498 7.66153Z" fill="#3B5998"/>
<path d="M26.1251 7.08266C25.873 6.64598 25.3146 6.4963 24.8779 6.74846L23.2965 7.66152C22.8598 7.91363 22.7102 8.47204 22.9623 8.90872C23.2145 9.34562 23.7731 9.49492 24.2095 9.24292L25.7909 8.32986C26.2276 8.07775 26.3772 7.51934 26.1251 7.08266Z" fill="#3B5998"/>
<path d="M5.03915 19.2564C4.78709 18.8198 4.22863 18.6702 3.79195 18.9223L2.21056 19.8352C1.77389 20.0873 1.62426 20.6457 1.87637 21.0824C2.12859 21.5192 2.68716 21.6685 3.12356 21.4165L4.70495 20.5035C5.14168 20.2514 5.29125 19.6931 5.03915 19.2564Z" fill="#3B5998"/>
<path d="M20.9995 1.95845C20.5628 1.70623 20.0044 1.85596 19.7523 2.29263L18.8393 3.874C18.5872 4.31066 18.7368 4.86907 19.1735 5.12117C19.6099 5.37322 20.1684 5.22392 20.4207 4.78698L21.3337 3.20562C21.5858 2.76901 21.4362 2.2106 20.9995 1.95845Z" fill="#3B5998"/>
<path d="M8.82569 23.0439C8.38901 22.7917 7.83055 22.9414 7.57849 23.3781L6.66543 24.9595C6.41332 25.3961 6.56295 25.9545 6.99963 26.2066C7.43609 26.4587 7.99461 26.3093 8.24683 25.8724L9.15989 24.2911C9.41199 23.8544 9.26237 23.296 8.82569 23.0439Z" fill="#3B5998"/>
<path d="M14.0002 5.56104C9.30139 5.56104 5.47852 9.38393 5.47852 14.0828C5.47852 18.7817 9.30139 22.6046 14.0002 22.6046C18.6991 22.6046 22.522 18.7817 22.522 14.0828C22.522 9.38393 18.6992 5.56104 14.0002 5.56104ZM14.0002 20.7785C10.3083 20.7785 7.30458 17.7748 7.30458 14.0828C7.30458 10.3908 10.3083 7.38712 14.0002 7.38712C17.6922 7.38712 20.6959 10.3908 20.6959 14.0828C20.6959 17.7748 17.6923 20.7785 14.0002 20.7785Z" fill="#3B5998"/>
<path d="M14.0004 9.21289C11.3153 9.21289 9.13086 11.3974 9.13086 14.0824C9.13086 14.5867 9.53965 14.9955 10.0439 14.9955C10.5482 14.9955 10.957 14.5867 10.957 14.0824C10.957 12.4042 12.3223 11.039 14.0005 11.039C14.5047 11.039 14.9136 10.6302 14.9136 10.1259C14.9135 9.62168 14.5047 9.21289 14.0004 9.21289Z" fill="#3B5998"/>
</svg>
