<svg width="29" height="22" viewBox="0 0 29 22" fill="none" xmlns="http://www.w3.org/2000/svg">
<path d="M28.6425 12.0968L22.7054 6.15966C22.5725 6.02589 22.4143 5.91985 22.2401 5.84768C22.0659 5.77552 21.8791 5.73866 21.6905 5.73927H13.4783V6.69579H15.8696V13.8697H16.8261V6.69579H21.6905C21.7534 6.69574 21.8156 6.70809 21.8738 6.73214C21.9319 6.75618 21.9846 6.79145 22.0291 6.83592L22.8455 7.65231H20.6522C20.3985 7.65231 20.1552 7.75309 19.9758 7.93247C19.7964 8.11186 19.6957 8.35515 19.6957 8.60884V12.9132C19.6957 13.1669 19.7964 13.4102 19.9758 13.5896C20.1552 13.7689 20.3985 13.8697 20.6522 13.8697H27.8261V17.6958C27.8261 17.8227 27.7757 17.9443 27.686 18.034C27.5963 18.1237 27.4747 18.1741 27.3479 18.1741H26.3531C26.2387 17.3778 25.8411 16.6495 25.2332 16.1227C24.6254 15.5959 23.8479 15.3059 23.0435 15.3059C22.2391 15.3059 21.4616 15.5959 20.8538 16.1227C20.2459 16.6495 19.8483 17.3778 19.7339 18.1741H12.9617C12.8474 17.3778 12.4498 16.6495 11.8419 16.1227C11.234 15.5959 10.4566 15.3059 9.65216 15.3059C8.84775 15.3059 8.0703 15.5959 7.46241 16.1227C6.85452 16.6495 6.45694 17.3778 6.34258 18.1741H5.3478C5.22095 18.1741 5.09931 18.1237 5.00962 18.034C4.91992 17.9443 4.86954 17.8227 4.86954 17.6958V13.3915H3.91301V17.6958C3.91301 18.0763 4.06418 18.4413 4.33325 18.7104C4.60232 18.9794 4.96727 19.1306 5.3478 19.1306H6.34258C6.44697 19.8578 6.78841 20.5303 7.31393 21.0437H0.0869141V22.0002H23.0435C23.8477 21.9986 24.6245 21.7079 25.2321 21.1811C25.8397 20.6543 26.2376 19.9265 26.3531 19.1306H27.3479C27.7284 19.1306 28.0933 18.9794 28.3624 18.7104C28.6315 18.4413 28.7826 18.0763 28.7826 17.6958V12.4349C28.7826 12.3081 28.7322 12.1865 28.6425 12.0968ZM7.26085 18.6523C7.26085 18.1794 7.40109 17.7171 7.66385 17.3238C7.92662 16.9306 8.30009 16.6241 8.73704 16.4431C9.174 16.2621 9.65481 16.2147 10.1187 16.307C10.5825 16.3993 11.0086 16.627 11.3431 16.9614C11.6775 17.2959 11.9053 17.722 11.9975 18.1858C12.0898 18.6497 12.0424 19.1305 11.8614 19.5675C11.6804 20.0044 11.3739 20.3779 10.9807 20.6406C10.5874 20.9034 10.1251 21.0437 9.65216 21.0437C9.01818 21.0429 8.41038 20.7907 7.96208 20.3424C7.51379 19.8941 7.26161 19.2863 7.26085 18.6523ZM11.9904 21.0437C12.5159 20.5303 12.8573 19.8578 12.9617 19.1306H19.7339C19.8383 19.8578 20.1797 20.5303 20.7053 21.0437H11.9904ZM23.0435 21.0437C22.5705 21.0437 22.1082 20.9034 21.715 20.6406C21.3217 20.3779 21.0152 20.0044 20.8342 19.5675C20.6532 19.1305 20.6059 18.6497 20.6981 18.1858C20.7904 17.722 21.0182 17.2959 21.3526 16.9614C21.687 16.627 22.1131 16.3993 22.577 16.307C23.0408 16.2147 23.5217 16.2621 23.9586 16.4431C24.3956 16.6241 24.769 16.9306 25.0318 17.3238C25.2946 17.7171 25.4348 18.1794 25.4348 18.6523C25.434 19.2863 25.1819 19.8941 24.7336 20.3424C24.2853 20.7907 23.6775 21.0429 23.0435 21.0437ZM20.6522 12.9132V8.60884H23.802L27.8261 12.6329V12.9132H20.6522Z" fill="#3B5998"/>
<path d="M10.13 18.1738H9.17352V19.1304H10.13V18.1738Z" fill="#3B5998"/>
<path d="M23.5216 18.1738H22.5651V19.1304H23.5216V18.1738Z" fill="#3B5998"/>
<path d="M2.47822 16.7393H0.0869141V17.6958H2.47822V16.7393Z" fill="#3B5998"/>
<path d="M2.47843 14.8262H1.04364V15.7827H2.47843V14.8262Z" fill="#3B5998"/>
<path d="M2.47819 12.9131H1.52167V13.8696H2.47819V12.9131Z" fill="#3B5998"/>
<path d="M6.30432 12.4348C7.53401 12.4348 8.73608 12.0702 9.75853 11.387C10.781 10.7038 11.5779 9.73279 12.0485 8.59671C12.519 7.46063 12.6422 6.21051 12.4023 5.00445C12.1624 3.7984 11.5702 2.69056 10.7007 1.82104C9.83117 0.951519 8.72334 0.359369 7.51728 0.119469C6.31122 -0.120432 5.06111 0.00269391 3.92502 0.473275C2.78894 0.943856 1.81791 1.74076 1.13474 2.7632C0.451559 3.78565 0.0869141 4.98772 0.0869141 6.21741C0.0888128 7.86579 0.744469 9.44611 1.91005 10.6117C3.07563 11.7773 4.65595 12.4329 6.30432 12.4348ZM6.30432 0.956527C7.34483 0.956527 8.36197 1.26507 9.22711 1.84315C10.0923 2.42122 10.7666 3.24286 11.1647 4.20416C11.5629 5.16546 11.6671 6.22325 11.4641 7.24376C11.2611 8.26427 10.7601 9.20167 10.0243 9.93742C9.28858 10.6732 8.35118 11.1742 7.33067 11.3772C6.31016 11.5802 5.25237 11.476 4.29107 11.0778C3.32977 10.6797 2.50813 10.0054 1.93006 9.1402C1.35198 8.27505 1.04344 7.25792 1.04344 6.21741C1.04508 4.82264 1.59988 3.48547 2.58613 2.49922C3.57238 1.51297 4.90955 0.958173 6.30432 0.956527Z" fill="#3B5998"/>
<path d="M6.30426 10.5218C6.43109 10.5218 6.55272 10.4714 6.64239 10.3817C6.95039 10.0737 9.65209 7.31267 9.65209 5.26092C9.65209 4.37302 9.29937 3.52149 8.67153 2.89364C8.04369 2.2658 7.19216 1.91309 6.30426 1.91309C5.41636 1.91309 4.56482 2.2658 3.93698 2.89364C3.30914 3.52149 2.95642 4.37302 2.95642 5.26092C2.95642 7.31267 5.65812 10.0737 5.96613 10.3817C6.0558 10.4714 6.17742 10.5218 6.30426 10.5218ZM6.30426 2.86961C6.93824 2.87037 7.54604 3.12255 7.99433 3.57085C8.44262 4.01914 8.69481 4.62694 8.69557 5.26092C8.69557 6.48814 7.19048 8.38445 6.30426 9.35054C5.41804 8.38445 3.91295 6.48814 3.91295 5.26092C3.9137 4.62694 4.16589 4.01914 4.61418 3.57085C5.06248 3.12255 5.67027 2.87037 6.30426 2.86961Z" fill="#3B5998"/>
<path d="M7.73951 5.26096C7.73951 4.97719 7.65536 4.69978 7.4977 4.46383C7.34005 4.22789 7.11596 4.04398 6.85379 3.93539C6.59162 3.82679 6.30313 3.79838 6.02481 3.85374C5.74649 3.9091 5.49083 4.04575 5.29017 4.24641C5.08952 4.44707 4.95287 4.70272 4.8975 4.98105C4.84214 5.25937 4.87056 5.54786 4.97915 5.81003C5.08775 6.0722 5.27165 6.29628 5.5076 6.45394C5.74355 6.6116 6.02095 6.69575 6.30472 6.69575C6.68525 6.69575 7.05019 6.54458 7.31927 6.27551C7.58834 6.00643 7.73951 5.64149 7.73951 5.26096ZM5.82646 5.26096C5.82646 5.16637 5.85451 5.0739 5.90706 4.99525C5.95961 4.9166 6.03431 4.8553 6.1217 4.8191C6.20909 4.7829 6.30525 4.77343 6.39803 4.79189C6.4908 4.81034 6.57602 4.85589 6.6429 4.92278C6.70979 4.98966 6.75534 5.07488 6.77379 5.16765C6.79225 5.26043 6.78278 5.35659 6.74658 5.44398C6.71038 5.53137 6.64908 5.60607 6.57043 5.65862C6.49178 5.71117 6.39931 5.73922 6.30472 5.73922C6.17788 5.73922 6.05623 5.68883 5.96654 5.59914C5.87685 5.50945 5.82646 5.3878 5.82646 5.26096Z" fill="#3B5998"/>
<path d="M20.1739 14.8262H18.2608V15.7827H20.1739V14.8262Z" fill="#3B5998"/>
</svg>
