<svg width="19" height="14" viewBox="0 0 19 14" fill="none" xmlns="http://www.w3.org/2000/svg">
<path d="M18.1716 7.69803L14.3935 3.91987C14.3089 3.83474 14.2082 3.76726 14.0974 3.72134C13.9865 3.67542 13.8676 3.65197 13.7476 3.65235H8.5217V4.26104H10.0434V8.82624H10.6521V4.26104H13.7476C13.7877 4.26101 13.8273 4.26887 13.8643 4.28417C13.9012 4.29947 13.9348 4.32192 13.9631 4.35021L14.4826 4.86973H13.0869C12.9255 4.86973 12.7706 4.93386 12.6565 5.04802C12.5423 5.16217 12.4782 5.31699 12.4782 5.47843V8.21755C12.4782 8.37898 12.5423 8.53381 12.6565 8.64796C12.7706 8.76211 12.9255 8.82624 13.0869 8.82624H17.6521V11.261C17.6521 11.3417 17.62 11.4191 17.563 11.4762C17.5059 11.5333 17.4285 11.5654 17.3478 11.5654H16.7147C16.6419 11.0587 16.3889 10.5952 16.0021 10.2599C15.6153 9.92469 15.1205 9.74014 14.6086 9.74014C14.0967 9.74014 13.602 9.92469 13.2152 10.2599C12.8283 10.5952 12.5753 11.0587 12.5026 11.5654H8.19301C8.12024 11.0587 7.86724 10.5952 7.4804 10.2599C7.09356 9.92469 6.59883 9.74014 6.08693 9.74014C5.57504 9.74014 5.0803 9.92469 4.69347 10.2599C4.30663 10.5952 4.05362 11.0587 3.98085 11.5654H3.34781C3.26709 11.5654 3.18968 11.5333 3.13261 11.4762C3.07553 11.4191 3.04347 11.3417 3.04347 11.261V8.52189H2.43477V11.261C2.43477 11.5032 2.53097 11.7354 2.7022 11.9066C2.87342 12.0779 3.10566 12.1741 3.34781 12.1741H3.98085C4.04728 12.6368 4.26456 13.0647 4.59898 13.3914H0V14.0001H14.6086C15.1204 13.9992 15.6147 13.8141 16.0014 13.4789C16.388 13.1436 16.6412 12.6805 16.7147 12.1741H17.3478C17.5899 12.1741 17.8221 12.0779 17.9934 11.9066C18.1646 11.7354 18.2608 11.5032 18.2608 11.261V7.9132C18.2608 7.83249 18.2287 7.75509 18.1716 7.69803ZM4.5652 11.8697C4.5652 11.5687 4.65445 11.2745 4.82166 11.0243C4.98887 10.774 5.22653 10.579 5.50459 10.4638C5.78265 10.3486 6.08862 10.3185 6.38381 10.3772C6.67899 10.4359 6.95014 10.5809 7.16296 10.7937C7.37578 11.0065 7.52071 11.2776 7.57943 11.5728C7.63814 11.868 7.60801 12.174 7.49283 12.452C7.37765 12.7301 7.18261 12.9678 6.93236 13.135C6.68211 13.3022 6.3879 13.3914 6.08693 13.3914C5.68349 13.391 5.29671 13.2305 5.01144 12.9452C4.72616 12.6599 4.56568 12.2731 4.5652 11.8697ZM7.57488 13.3914C7.90931 13.0647 8.12658 12.6368 8.19301 12.1741H12.5026C12.569 12.6368 12.7863 13.0647 13.1207 13.3914H7.57488ZM14.6086 13.3914C14.3077 13.3914 14.0135 13.3022 13.7632 13.135C13.513 12.9678 13.3179 12.7301 13.2027 12.452C13.0876 12.174 13.0574 11.868 13.1161 11.5728C13.1749 11.2776 13.3198 11.0065 13.5326 10.7937C13.7454 10.5809 14.0166 10.4359 14.3118 10.3772C14.6069 10.3185 14.9129 10.3486 15.191 10.4638C15.469 10.579 15.7067 10.774 15.8739 11.0243C16.0411 11.2745 16.1304 11.5687 16.1304 11.8697C16.1299 12.2731 15.9694 12.6599 15.6841 12.9452C15.3989 13.2305 15.0121 13.391 14.6086 13.3914ZM13.0869 8.21755V5.47843H15.0913L17.6521 8.0392V8.21755H13.0869Z" fill="#24272A"/>
<path d="M6.39098 11.5654H5.78229V12.1741H6.39098V11.5654Z" fill="#24272A"/>
<path d="M14.9131 11.5654H14.3044V12.1741H14.9131V11.5654Z" fill="#24272A"/>
<path d="M1.52173 10.6523H0V11.261H1.52173V10.6523Z" fill="#24272A"/>
<path d="M1.52199 9.43457H0.608948V10.0433H1.52199V9.43457Z" fill="#24272A"/>
<path d="M1.52184 8.21777H0.913147V8.82647H1.52184V8.21777Z" fill="#24272A"/>
<path d="M3.95651 7.91301C4.73903 7.91301 5.50398 7.68097 6.15462 7.24622C6.80527 6.81148 7.31238 6.19355 7.61184 5.4706C7.9113 4.74764 7.98965 3.95212 7.83699 3.18463C7.68433 2.41714 7.30751 1.71216 6.75418 1.15884C6.20085 0.605508 5.49587 0.228688 4.72838 0.0760249C3.96089 -0.0766377 3.16537 0.00171429 2.44242 0.301173C1.71946 0.600631 1.10154 1.10775 0.666791 1.75839C0.232045 2.40903 0 3.17398 0 3.95651C0.00120825 5.00547 0.418441 6.01112 1.16017 6.75284C1.9019 7.49457 2.90755 7.9118 3.95651 7.91301ZM3.95651 0.608695C4.61864 0.608695 5.26591 0.805041 5.81645 1.1729C6.367 1.54077 6.79609 2.06362 7.04948 2.67535C7.30287 3.28709 7.36917 3.96022 7.23999 4.60963C7.11081 5.25905 6.79197 5.85557 6.32377 6.32377C5.85557 6.79197 5.25904 7.11082 4.60963 7.23999C3.96022 7.36917 3.28709 7.30287 2.67535 7.04948C2.06362 6.79609 1.54076 6.367 1.1729 5.81645C0.805039 5.26591 0.608693 4.61864 0.608693 3.95651C0.60974 3.06893 0.962792 2.21801 1.5904 1.5904C2.21801 0.962793 3.06893 0.609742 3.95651 0.608695Z" fill="#24272A"/>
<path d="M3.95648 6.69601C4.03719 6.696 4.11459 6.66392 4.17165 6.60684C4.36765 6.41084 6.0869 4.65385 6.0869 3.3482C6.0869 2.78318 5.86245 2.24129 5.46291 1.84176C5.06338 1.44223 4.5215 1.21777 3.95648 1.21777C3.39145 1.21777 2.84957 1.44223 2.45004 1.84176C2.0505 2.24129 1.82605 2.78318 1.82605 3.3482C1.82605 4.65385 3.5453 6.41084 3.7413 6.60684C3.79837 6.66392 3.87576 6.696 3.95648 6.69601ZM3.95648 1.82647C4.35992 1.82695 4.74669 1.98743 5.03197 2.27271C5.31725 2.55798 5.47773 2.94476 5.47821 3.3482C5.47821 4.12915 4.52043 5.33589 3.95648 5.95067C3.39252 5.33589 2.43474 4.12915 2.43474 3.3482C2.43523 2.94476 2.59571 2.55798 2.88098 2.27271C3.16626 1.98743 3.55304 1.82695 3.95648 1.82647Z" fill="#24272A"/>
<path d="M4.86978 3.34761C4.86978 3.16703 4.81623 2.9905 4.71591 2.84035C4.61558 2.6902 4.47298 2.57318 4.30615 2.50407C4.13931 2.43497 3.95573 2.41688 3.77862 2.45211C3.6015 2.48734 3.43882 2.5743 3.31112 2.70199C3.18343 2.82968 3.09648 2.99237 3.06125 3.16949C3.02602 3.3466 3.0441 3.53018 3.1132 3.69702C3.18231 3.86385 3.29934 4.00645 3.44948 4.10678C3.59963 4.2071 3.77616 4.26065 3.95674 4.26065C4.19889 4.26065 4.43113 4.16446 4.60236 3.99323C4.77359 3.822 4.86978 3.58976 4.86978 3.34761ZM3.65239 3.34761C3.65239 3.28742 3.67024 3.22857 3.70369 3.17852C3.73713 3.12848 3.78466 3.08947 3.84027 3.06643C3.89589 3.0434 3.95708 3.03737 4.01612 3.04911C4.07515 3.06086 4.12938 3.08984 4.17195 3.1324C4.21451 3.17497 4.2435 3.2292 4.25524 3.28824C4.26698 3.34727 4.26096 3.40847 4.23792 3.46408C4.21489 3.51969 4.17588 3.56722 4.12583 3.60067C4.07578 3.63411 4.01694 3.65196 3.95674 3.65196C3.87602 3.65196 3.79861 3.61989 3.74154 3.56282C3.68446 3.50574 3.65239 3.42833 3.65239 3.34761Z" fill="#24272A"/>
<path d="M12.7826 9.43457H11.5652V10.0433H12.7826V9.43457Z" fill="#24272A"/>
</svg>
