<svg width="23" height="23" viewBox="0 0 23 23" fill="none" xmlns="http://www.w3.org/2000/svg">
<path d="M21.9993 12.476C21.3324 11.6415 20.48 11.1006 19.4416 10.853C19.7693 10.3579 19.9327 9.8068 19.9327 9.19989C19.9327 8.35331 19.6332 7.63064 19.0344 7.03162C18.4356 6.4328 17.7129 6.13327 16.8663 6.13327C16.1076 6.13327 15.4448 6.38086 14.8779 6.87604C14.407 5.72599 13.654 4.80364 12.6199 4.10895C11.5858 3.41406 10.4458 3.06665 9.19982 3.06665C7.50688 3.06665 6.06132 3.66576 4.8634 4.86368C3.66539 6.06131 3.06658 7.50695 3.06658 9.20001C3.06658 9.30382 3.07459 9.47555 3.09053 9.71504C2.14822 10.1543 1.3976 10.8131 0.838433 11.6915C0.279478 12.5701 0 13.5282 0 14.5666C0 16.0441 0.52518 17.3077 1.57525 18.3578C2.62535 19.4083 3.88919 19.9332 5.36659 19.9332H18.4C19.6696 19.9332 20.7537 19.4838 21.6522 18.5856C22.5507 17.6873 23 16.6033 23 15.3332C22.9998 14.2631 22.6663 13.3108 21.9993 12.476ZM15.2191 12.1528C15.1431 12.2285 15.0534 12.2664 14.9498 12.2664H12.2665V16.4832C12.2665 16.5869 12.2286 16.6767 12.1527 16.7525C12.0767 16.8286 11.987 16.8663 11.8834 16.8663H9.58301C9.47921 16.8663 9.38938 16.8287 9.31352 16.7525C9.23783 16.6767 9.19973 16.5869 9.19973 16.4832V12.2664H6.51639C6.4047 12.2664 6.31277 12.2305 6.24103 12.1588C6.16915 12.0869 6.13328 11.995 6.13328 11.8834C6.13328 11.7874 6.17314 11.6915 6.25294 11.5957L10.4576 7.39119C10.5295 7.31928 10.6214 7.28336 10.7331 7.28336C10.845 7.28336 10.9369 7.31928 11.0087 7.39119L15.2253 11.6077C15.2973 11.6795 15.3328 11.7714 15.3328 11.8834C15.3328 11.987 15.2949 12.0772 15.2191 12.1528Z" fill="#FFF"/>
</svg>
