<svg width="61" height="55" viewBox="0 0 61 55" fill="none" xmlns="http://www.w3.org/2000/svg">
<path d="M23.3507 22.2365C25.6272 22.2365 27.4728 20.3909 27.4728 18.1143C27.4728 15.8377 25.6272 13.9922 23.3507 13.9922C21.0741 13.9922 19.2285 15.8377 19.2285 18.1143C19.2285 20.3909 21.0741 22.2365 23.3507 22.2365Z" fill="#3B5998" fill-opacity="0.37"/>
<path d="M57.1867 33.2862C55.2401 31.4541 52.7783 30.2518 50.0875 29.9083V8.95411C50.0875 6.72129 49.1714 4.71747 47.7401 3.22892C46.2516 1.74037 44.2478 0.881592 42.015 0.881592H8.80885C6.57602 0.881592 4.57221 1.79762 3.08366 3.22892C1.59511 4.71747 0.736328 6.72129 0.736328 8.95411V35.3472V37.8091V43.1335C0.736328 45.3663 1.65236 47.3701 3.08366 48.8587C4.57221 50.3472 6.57602 51.206 8.80885 51.206H40.9272C43.0455 52.9236 45.6791 54.0114 48.5989 54.0114C51.9768 54.0114 55.0111 52.6373 57.1867 50.4617C59.3623 48.2862 60.7363 45.2518 60.7363 41.874C60.7363 38.4961 59.3623 35.4617 57.1867 33.2862ZM3.77068 8.95411C3.77068 7.58006 4.3432 6.32052 5.25923 5.46174C6.17526 4.54571 7.4348 3.97319 8.80885 3.97319H42.015C43.389 3.97319 44.6485 4.54571 45.5646 5.46174C46.4806 6.37777 47.0531 7.63732 47.0531 9.01136V26.874L38.5798 18.4007C38.0073 17.8282 37.034 17.7709 36.4043 18.4007L23.6371 31.2251L14.9921 22.5228C14.4195 21.9503 13.4463 21.893 12.8165 22.5228L3.77068 31.6831V8.95411ZM8.75159 48.2862V48.1717C7.37755 48.1717 6.11801 47.5991 5.20198 46.6831C4.3432 45.7671 3.77068 44.5075 3.77068 43.1335V37.8091V36.0343L13.9043 25.8434L22.5493 34.4885C23.1218 35.061 24.0951 35.061 24.7249 34.4885L37.4921 21.664L45.8508 30.0801C45.6791 30.1373 45.5073 30.1946 45.3356 30.2518C45.1066 30.3091 44.8775 30.3663 44.5913 30.4808C44.3623 30.5381 44.1333 30.6526 43.9043 30.7098C43.7325 30.7671 43.618 30.8243 43.4463 30.9388C43.2172 31.0533 43.0455 31.1106 42.8737 31.2251C42.5875 31.3969 42.3012 31.5686 42.015 31.7404C41.8432 31.8549 41.7287 31.9121 41.5569 32.0266C41.4424 32.0839 41.3852 32.1411 41.2707 32.1984C40.7554 32.5419 40.2974 32.9427 39.8966 33.4007C37.7211 35.5762 36.347 38.6106 36.347 41.9885C36.347 42.8472 36.4615 43.6488 36.6333 44.5075C36.6905 44.7365 36.7478 44.9083 36.805 45.1373C36.9768 45.7098 37.1485 46.2824 37.3775 46.8549V46.9121C37.6066 47.3701 37.8356 47.8854 38.1218 48.2862H8.75159ZM54.9539 48.2862C53.2936 49.9465 51.0608 50.9198 48.5417 50.9198C46.1371 50.9198 43.9043 49.9465 42.3012 48.4007C42.0722 48.1717 41.8432 47.8854 41.6142 47.6564C41.4424 47.4846 41.2707 47.2556 41.0989 47.0839C40.8699 46.7976 40.6982 46.4541 40.5264 46.1106C40.4119 45.8816 40.2974 45.7098 40.1829 45.4808C40.0684 45.1946 39.9539 44.8511 39.8966 44.5075C39.8394 44.2785 39.7249 43.9923 39.6676 43.7633C39.5531 43.1908 39.4959 42.561 39.4959 41.9312C39.4959 39.4121 40.5264 37.1793 42.1295 35.519C43.7325 33.8587 46.0226 32.8854 48.5417 32.8854C51.0608 32.8854 53.2936 33.9159 54.9539 35.519C56.6142 37.1793 57.5875 39.4121 57.5875 41.9312C57.5875 44.393 56.5569 46.6259 54.9539 48.2862Z" fill="#3B5998" fill-opacity="0.37"/>
<path d="M49.6292 35.7481C49.5147 35.6336 49.3429 35.519 49.1139 35.4045C48.9422 35.3473 48.7704 35.29 48.5987 35.29C48.5414 35.29 48.5414 35.29 48.5414 35.29C48.4842 35.29 48.4842 35.29 48.4842 35.29C48.3124 35.29 48.1406 35.3473 47.9689 35.4045C47.7971 35.4618 47.6254 35.5763 47.4536 35.7481L43.904 39.2977C43.3315 39.8702 43.3315 40.8435 43.904 41.4732C44.4765 42.0458 45.4498 42.0458 46.0796 41.4732L46.9956 40.5572V46.8549C46.9956 47.7137 47.6826 48.4007 48.5414 48.4007C49.4002 48.4007 50.0872 47.7137 50.0872 46.8549V40.5572L51.0032 41.4732C51.5758 42.0458 52.549 42.0458 53.1788 41.4732C53.7513 40.9007 53.7513 39.9274 53.1788 39.2977L49.6292 35.7481Z" fill="#3B5998" fill-opacity="0.37"/>
</svg>
