<svg width="23" height="17" viewBox="0 0 23 17" fill="none" xmlns="http://www.w3.org/2000/svg">
<path d="M21.9993 9.40939C21.3324 8.57486 20.48 8.03395 19.4416 7.78631C19.7693 7.29122 19.9327 6.74015 19.9327 6.13324C19.9327 5.28666 19.6332 4.56399 19.0344 3.96497C18.4356 3.36615 17.7129 3.06662 16.8663 3.06662C16.1076 3.06662 15.4448 3.31421 14.8779 3.80939C14.407 2.65934 13.654 1.73699 12.6199 1.0423C11.5858 0.347406 10.4458 0 9.19982 0C7.50688 0 6.06132 0.599108 4.8634 1.79703C3.66539 2.99466 3.06658 4.4403 3.06658 6.13336C3.06658 6.23716 3.07459 6.4089 3.09053 6.64839C2.14822 7.08764 1.3976 7.74645 0.838433 8.62483C0.279478 9.50346 0 10.4616 0 11.5C0 12.9775 0.52518 14.241 1.57525 15.2912C2.62535 16.3417 3.88919 16.8666 5.36659 16.8666H18.4C19.6696 16.8666 20.7537 16.4172 21.6522 15.5189C22.5507 14.6207 23 13.5366 23 12.2666C22.9998 11.1964 22.6663 10.2442 21.9993 9.40939ZM15.2191 9.08615C15.1431 9.16184 15.0534 9.19973 14.9498 9.19973H12.2665V13.4165C12.2665 13.5202 12.2286 13.6101 12.1527 13.6859C12.0767 13.762 11.987 13.7996 11.8834 13.7996H9.58301C9.47921 13.7996 9.38938 13.762 9.31352 13.6859C9.23783 13.6101 9.19973 13.5202 9.19973 13.4165V9.19973H6.51639C6.4047 9.19973 6.31277 9.16386 6.24103 9.09219C6.16915 9.02028 6.13328 8.92839 6.13328 8.8167C6.13328 8.72079 6.17314 8.62487 6.25294 8.52908L10.4576 4.32454C10.5295 4.25263 10.6214 4.21671 10.7331 4.21671C10.845 4.21671 10.9369 4.25263 11.0087 4.32454L15.2253 8.54104C15.2973 8.61287 15.3328 8.70472 15.3328 8.81674C15.3328 8.92033 15.2949 9.0105 15.2191 9.08615Z" fill="#3B5998"/>
</svg>
