<?xml version="1.0" standalone="no"?>
<!DOCTYPE svg PUBLIC "-//W3C//DTD SVG 1.1//EN" "http://www.w3.org/Graphics/SVG/1.1/DTD/svg11.dtd" >
<svg>
<metadata>
Created by FontForge 20090914 at Fri Oct 12 07:48:41 2018
 By www-data
Copyright (c) 2005 Parachute&#194;&#168;, www.parachute.gr.  All rights reserved.
</metadata>
<defs>
<font id="PFHandbookPro-Black" horiz-adv-x="1818" >
  <font-face 
    font-family="PF Handbook Pro Black"
    font-weight="900"
    font-stretch="normal"
    units-per-em="1000"
    panose-1="2 0 5 6 3 0 0 2 0 4"
    ascent="750"
    descent="-250"
    x-height="448.998"
    cap-height="618"
    bbox="-232.197 -260.007 1760 913.002"
    underline-thickness="100"
    underline-position="-40"
    unicode-range="U+0020-U+FB05"
  />
<missing-glyph horiz-adv-x="460" 
d="M0 700h460v-700h-460v700zM323 95l-93 167l-92 -167h185zM323 605h-187l94 -165zM95 199l83 152l-83 153v-305zM365 199v304l-83 -154z" />
    <glyph glyph-name="fj" unicode="fj" horiz-adv-x="528" 
d="M483 -47c0 -18.667 -2.33398 -36.3301 -7.00098 -52.9971s-12.834 -31.334 -24.501 -44.001s-27 -22.834 -46 -30.501s-42.5 -11.5 -70.5 -11.5c-16.667 0 -31.167 1.16699 -43.5 3.5s-21.833 4.5 -28.5 6.5c-5.33301 1.33301 -11 3.66602 -17 6.99902s-9 9 -9 17v4
l12 70c2 13.333 9.33301 20 22 20h6.5c2.33301 0 4.83301 -0.333008 7.5 -1c2 -0.666992 6.83301 -1.33398 14.5 -2.00098s13.167 -1 16.5 -1c10 0 17.5 2.16699 22.5 6.5s7.5 12.833 7.5 25.5v371h-114c-9.33301 0 -14.833 -2 -16.5 -6s-2.5 -7.66699 -2.5 -11v-303
c0 -14 -7.33301 -21 -22 -21h-94c-14.667 0 -22 7 -22 21v303c0 4.66699 -1.16699 8.66699 -3.5 12s-6.16602 5 -11.499 5h-27c-15.333 0 -23 7 -23 21v66c0 14 7.66699 21 23 21h30c8.66699 0 13 4 13 12v53c0 18.667 3.33301 36.334 10 53.001s17.5 31.5 32.5 44.5
s34.167 23.333 57.5 31s51.666 11.5 84.999 11.5c36 0 66.333 -4.16699 91 -12.5s43 -15.833 55 -22.5c11.333 -6.66699 17 -12.667 17 -18c0 -2.66699 -1.66699 -8 -5 -16l-23 -66c-6 -11.333 -12.667 -17 -20 -17c-4.66699 0 -12 2 -22 6c-15.333 6 -30.166 10 -44.499 12
s-27.166 3 -38.499 3c-18 0 -32.167 -4.5 -42.5 -13.5s-15.5 -20.167 -15.5 -33.5v-16c0 -3.33301 0.833008 -6 2.5 -8s5.16699 -3 10.5 -3h236c14 0 21 -7 21 -21v-475v0z" />
    <glyph glyph-name="ffj" unicode="ffj" horiz-adv-x="807" 
d="M762 -47c0 -18.667 -2.33496 -36.3301 -7.00195 -52.9971s-12.834 -31.334 -24.501 -44.001s-27 -22.834 -46 -30.501s-42.5 -11.5 -70.5 -11.5c-16.667 0 -31.167 1.16699 -43.5 3.5s-21.833 4.5 -28.5 6.5c-5.33301 1.33301 -11 3.66602 -17 6.99902s-9 9 -9 17v4
l12 70c2 13.333 9.33301 20 22 20h6.5c2.33301 0 4.83301 -0.333008 7.5 -1c2 -0.666992 6.83301 -1.33398 14.5 -2.00098s13.167 -1 16.5 -1c10 0 17.5 2.16699 22.5 6.5s7.5 12.833 7.5 25.5v371h-114c-9.33301 0 -14.833 -2 -16.5 -6s-2.5 -7.66699 -2.5 -11v-303
c0 -14 -7.33301 -21 -22 -21h-94c-14.667 0 -22 7 -22 21v303c0 4.66699 -1.16699 8.66699 -3.5 12s-6.16602 5 -11.499 5h-107c-9.33301 0 -14.833 -2 -16.5 -6s-2.5 -7.66699 -2.5 -11v-303c0 -14 -7.33301 -21 -22 -21h-94c-14.667 0 -22 7 -22 21v303
c0 4.66699 -1.16699 8.66699 -3.5 12s-6.16602 5 -11.499 5h-27c-15.333 0 -23 7 -23 21v66c0 14 7.66699 21 23 21h30c8.66699 0 13 4 13 12v49c0 18.667 3.33301 36.334 10 53.001s17.5 31.5 32.5 44.5s34.167 23.333 57.5 31s51.666 11.5 84.999 11.5
c25.333 0 47.833 -2.33301 67.5 -7s36.5 -9.66699 50.5 -15c1.33301 -0.666992 3.33301 -1 6 -1c3.33301 0 7 1.33301 11 4c16 11.333 35.5 21.333 58.5 30s51.5 13 85.5 13c36 0 66.333 -4.16699 91 -12.5s43 -15.833 55 -22.5c11.333 -6.66699 17 -12.667 17 -18
c0 -2.66699 -1.66699 -8 -5 -16l-23 -66c-6 -11.333 -12.667 -17 -20 -17c-4.66699 0 -12 2 -22 6c-15.333 6 -30.166 10 -44.499 12s-27.166 3 -38.499 3c-18 0 -32.167 -4.5 -42.5 -13.5s-15.5 -20.167 -15.5 -33.5v-36c0 -3.33301 0.833008 -6 2.5 -8s5.16699 -3 10.5 -3
h236c14 0 21 -7 21 -21v-475zM341.998 449.004c8.66699 0 13 3.99902 13 11.999v35c0 4.66699 -0.666992 7.33398 -2 8.00098l-4 2c-14.667 5.33301 -28.5 8.83301 -41.5 10.5s-25.167 2.5 -36.5 2.5c-18 0 -32.167 -4.5 -42.5 -13.5s-15.5 -20.167 -15.5 -33.5v-12
c0 -3.33301 0.833008 -6 2.5 -8s5.16699 -3 10.5 -3h116z" />
    <glyph glyph-name="ff" unicode="ff" horiz-adv-x="617" 
d="M76 510c0 18.667 3.33203 36.333 9.99902 53s17.5 31.5 32.5 44.5s34.167 23.333 57.5 31s51.666 11.5 84.999 11.5c25.333 0 47.833 -2.33301 67.5 -7s36.5 -9.66699 50.5 -15c1.33301 -0.666992 3.33301 -1 6 -1c3.33301 0 7 1.33301 11 4
c16 11.333 35.5 21.333 58.5 30s51.5 13 85.5 13c22.667 0 43.667 -2.66699 63 -8s34.666 -11.333 45.999 -18c10 -5.33301 15 -11.666 15 -18.999c0 -2 -0.666992 -5 -2 -9l-27 -72c-2 -6.66699 -4.33301 -11 -7 -13s-5.66699 -3 -9 -3c-2.66699 0 -6.66699 0.666992 -12 2
c-12 3.33301 -22.167 5.66602 -30.5 6.99902s-17.166 2 -26.499 2c-18 0 -32.167 -4.5 -42.5 -13.5s-15.5 -20.167 -15.5 -33.5v-36c0 -3.33301 0.833008 -6 2.5 -8s5.16699 -3 10.5 -3h70c14.667 0 22 -7 22 -21v-66c0 -14 -7.33301 -21 -22 -21h-64
c-9.33301 0 -14.833 -2 -16.5 -6s-2.5 -7.66699 -2.5 -11v-303c0 -14 -7.33301 -21 -22 -21h-94c-14.667 0 -22 7 -22 21v303c0 4.66699 -1.16699 8.66699 -3.5 12s-6.16602 5 -11.499 5h-107c-9.33301 0 -14.833 -2 -16.5 -6s-2.5 -7.66699 -2.5 -11v-303
c0 -14 -7.33301 -21 -22 -21h-94c-14.667 0 -22 7 -22 21v303c0 4.66699 -1.16699 8.66699 -3.5 12s-6.16602 5 -11.499 5h-27c-15.333 0 -23 7 -23 21v66c0 14 7.66699 21 23 21h30c8.66699 0 13 4 13 12v49zM341.999 448.999c8.66699 0 13 3.99902 13 11.999v35
c0 4.66699 -0.666992 7.33398 -2 8.00098l-4 2c-14.667 5.33301 -28.5 8.83301 -41.5 10.5s-25.167 2.5 -36.5 2.5c-18 0 -32.167 -4.5 -42.5 -13.5s-15.5 -20.167 -15.5 -33.5v-12c0 -3.33301 0.833008 -6 2.5 -8s5.16699 -3 10.5 -3h116z" />
    <glyph glyph-name="fi" unicode="fi" horiz-adv-x="528" 
d="M261 654c36 0 66.3301 -4.16699 90.9971 -12.5s43 -15.833 55 -22.5c11.333 -6.66699 17 -12.667 17 -18c0 -2.66699 -1.66699 -8 -5 -16l-23 -66c-6 -11.333 -12.667 -17 -20 -17c-4.66699 0 -12 2 -22 6c-15.333 6 -30.166 10 -44.499 12s-27.166 3 -38.499 3
c-18 0 -32.167 -4.5 -42.5 -13.5s-15.5 -20.167 -15.5 -33.5v-16c0 -3.33301 0.833008 -6 2.5 -8s5.16699 -3 10.5 -3h236c14 0 21 -7 21 -21v-407c0 -14 -7.66699 -21 -23 -21h-92c-14.667 0 -22 7 -22 21v302c0 9.33301 -2.16699 14.666 -6.5 15.999s-8.16602 2 -11.499 2
h-96c-9.33301 0 -14.833 -2 -16.5 -6s-2.5 -7.66699 -2.5 -11v-303c0 -14 -7.33301 -21 -22 -21h-94c-14.667 0 -22 7 -22 21v303c0 4.66699 -1.16699 8.66699 -3.5 12s-6.16602 5 -11.499 5h-27c-15.333 0 -23 7 -23 21v66c0 14 7.66699 21 23 21h30c8.66699 0 13 4 13 12
v53c0 18.667 3.33301 36.334 10 53.001s17.5 31.5 32.5 44.5s34.167 23.333 57.5 31s51.666 11.5 84.999 11.5z" />
    <glyph glyph-name="fl" unicode="fl" horiz-adv-x="566" 
d="M232 341c-9.33301 0 -14.8359 -2.00391 -16.5029 -6.00391s-2.5 -7.66699 -2.5 -11v-303c0 -14 -7.33301 -21 -22 -21h-94c-14.667 0 -22 7 -22 21v303c0 4.66699 -1.16699 8.66699 -3.5 12s-6.16602 5 -11.499 5h-27c-15.333 0 -23 7 -23 21v66c0 14 7.66699 21 23 21
h30c8.66699 0 13 4 13 12v48c0 18.667 3.33301 36.334 10 53.001s17.5 31.5 32.5 44.5s34.167 23.333 57.5 31s51.666 11.5 84.999 11.5c19.333 0 36.833 -1.33301 52.5 -4s29.834 -6 42.501 -10c4 -1.33301 7.66699 -2.5 11 -3.5s7.33301 -1.5 12 -1.5
c2 0 4 0.166992 6 0.5s4.66699 0.833008 8 1.5l54 11c3.33301 0.666992 6.5 1.16699 9.5 1.5s5.83301 0.5 8.5 0.5c8 0 13 -2.16699 15 -6.5s3 -11.166 3 -20.499v-459c0 -15.333 2 -26.5 6 -33.5s14 -10.5 30 -10.5h9c8 0 13 -2.5 15 -7.5s3 -9.16699 3 -12.5v-78
c0 -10 -2.16699 -16.167 -6.5 -18.5s-10.166 -4.16602 -17.499 -5.49902c-8.66699 -1.33301 -17.167 -1.83301 -25.5 -1.5s-13.166 0.5 -14.499 0.5c-91.333 0 -137 50.667 -137 152v362c-14 4.66699 -27.333 7.83398 -40 9.50098s-24 2.5 -34 2.5
c-18 0 -32.167 -4.5 -42.5 -13.5s-15.5 -20.167 -15.5 -33.5v-11c0 -3.33301 0.833008 -6 2.5 -8s5.16699 -3 10.5 -3h62c15.333 0 23 -7 23 -21v-66c0 -14 -7.66699 -21 -23 -21h-56z" />
    <glyph glyph-name="ffi" unicode="ffi" horiz-adv-x="807" 
d="M76 510c0 18.667 3.33008 36.333 9.99707 53s17.5 31.5 32.5 44.5s34.167 23.333 57.5 31s51.666 11.5 84.999 11.5c25.333 0 47.833 -2.33301 67.5 -7s36.5 -9.66699 50.5 -15c1.33301 -0.666992 3.33301 -1 6 -1c3.33301 0 7 1.33301 11 4
c16 11.333 35.5 21.333 58.5 30s51.5 13 85.5 13c36 0 66.333 -4.16699 91 -12.5s43 -15.833 55 -22.5c11.333 -6.66699 17 -12.667 17 -18c0 -2.66699 -1.66699 -8 -5 -16l-23 -66c-6 -11.333 -12.667 -17 -20 -17c-4.66699 0 -12 2 -22 6c-15.333 6 -30.166 10 -44.499 12
s-27.166 3 -38.499 3c-18 0 -32.167 -4.5 -42.5 -13.5s-15.5 -20.167 -15.5 -33.5v-36c0 -3.33301 0.833008 -6 2.5 -8s5.16699 -3 10.5 -3h236c14 0 21 -7 21 -21v-407c0 -14 -7.66699 -21 -23 -21h-92c-14.667 0 -22 7 -22 21v320h-114c-9.33301 0 -14.833 -2 -16.5 -6
s-2.5 -7.66699 -2.5 -11v-303c0 -14 -7.33301 -21 -22 -21h-94c-14.667 0 -22 7 -22 21v303c0 4.66699 -1.16699 8.66699 -3.5 12s-6.16602 5 -11.499 5h-107c-9.33301 0 -14.833 -2 -16.5 -6s-2.5 -7.66699 -2.5 -11v-303c0 -14 -7.33301 -21 -22 -21h-94
c-14.667 0 -22 7 -22 21v303c0 4.66699 -1.16699 8.66699 -3.5 12s-6.16602 5 -11.499 5h-27c-15.333 0 -23 7 -23 21v66c0 14 7.66699 21 23 21h30c8.66699 0 13 4 13 12v49zM341.997 448.999c8.66699 0 13 3.99902 13 11.999v35c0 4.66699 -0.666992 7.33398 -2 8.00098
l-4 2c-14.667 5.33301 -28.5 8.83301 -41.5 10.5s-25.167 2.5 -36.5 2.5c-18 0 -32.167 -4.5 -42.5 -13.5s-15.5 -20.167 -15.5 -33.5v-12c0 -3.33301 0.833008 -6 2.5 -8s5.16699 -3 10.5 -3h116z" />
    <glyph glyph-name="ffl" unicode="ffl" horiz-adv-x="844" 
d="M342 449c8.66699 0 13 3.99902 13 11.999v35c0 4.66699 -0.666992 7.33398 -2 8.00098l-4 2c-14.667 5.33301 -28.5 8.83301 -41.5 10.5s-25.167 2.5 -36.5 2.5c-18 0 -32.167 -4.5 -42.5 -13.5s-15.5 -20.167 -15.5 -33.5v-12c0 -3.33301 0.833008 -6 2.5 -8
s5.16699 -3 10.5 -3h116zM511 340.999c-9.33301 0 -14.8369 -2.00195 -16.5039 -6.00195s-2.5 -7.66699 -2.5 -11v-303c0 -14 -7.33301 -21 -22 -21h-94c-14.667 0 -22 7 -22 21v303c0 4.66699 -1.16699 8.66699 -3.5 12s-6.16602 5 -11.499 5h-107
c-9.33301 0 -14.833 -2 -16.5 -6s-2.5 -7.66699 -2.5 -11v-303c0 -14 -7.33301 -21 -22 -21h-94c-14.667 0 -22 7 -22 21v303c0 4.66699 -1.16699 8.66699 -3.5 12s-6.16602 5 -11.499 5h-27c-15.333 0 -23 7 -23 21v66c0 14 7.66699 21 23 21h30c8.66699 0 13 4 13 12v49
c0 18.667 3.33301 36.334 10 53.001s17.5 31.5 32.5 44.5s34.167 23.333 57.5 31s51.666 11.5 84.999 11.5c25.333 0 47.833 -2.33301 67.5 -7s36.5 -9.66699 50.5 -15c1.33301 -0.666992 3.33301 -1 6 -1c3.33301 0 7 1.33301 11 4c16 11.333 35.5 21.333 58.5 30
s51.5 13 85.5 13c21.333 0 40.5 -1.33301 57.5 -4s32.167 -6.66699 45.5 -12c4.66699 -2 9.33398 -3 14.001 -3s8.66699 0.333008 12 1l58 11c3.33301 0.666992 7.66602 1 12.999 1c8.66699 0 14.334 -1.83301 17.001 -5.5s4 -8.5 4 -14.5v-489c0 -15.333 2 -26.5 6 -33.5
s14 -10.5 30 -10.5h9c8 0 13 -2.5 15 -7.5s3 -9.16699 3 -12.5v-78c0 -10 -2.16699 -16.167 -6.5 -18.5s-10.166 -4.16602 -17.499 -5.49902c-8.66699 -1.33301 -17.167 -1.83301 -25.5 -1.5s-13.166 0.5 -14.499 0.5c-91.333 0 -137 50.667 -137 152v388
c-13.333 4.66699 -26.333 7.66699 -39 9s-24 2 -34 2c-18 0 -32.167 -4.5 -42.5 -13.5s-15.5 -20.167 -15.5 -33.5v-36c0 -3.33301 0.833008 -6 2.5 -8s5.16699 -3 10.5 -3h57c15.333 0 23 -7 23 -21v-66c0 -14 -7.66699 -21 -23 -21h-51z" />
    <glyph glyph-name="ft" unicode="ft" horiz-adv-x="622" 
d="M578 449c14.667 0 22 -7.00684 22 -21.0068v-66c0 -14 -7.33301 -21 -22 -21h-71c-5.33301 0 -8.83301 -1 -10.5 -3s-2.5 -4.66699 -2.5 -8v-177c0 -13.333 3 -22.666 9 -27.999s15.333 -8 28 -8c3.33301 0 8.16602 0.333008 14.499 1s11.833 1.66699 16.5 3
c3.33301 0.666992 6.33301 1.16699 9 1.5s5.33398 0.5 8.00098 0.5c8 0 13.833 -2 17.5 -6s6.16699 -9.66699 7.5 -17l12 -64c2 -10.667 -0.5 -18.5 -7.5 -23.5s-13.167 -8.16699 -18.5 -9.5c-13.333 -3.33301 -27 -5.66602 -41 -6.99902s-28.667 -2 -44 -2
c-30 0 -54.5 3.66699 -73.5 11s-34 17.333 -45 30s-18.667 27.334 -23 44.001s-6.5 34.334 -6.5 53.001v197c0 8 -4.33301 12 -13 12h-112c-9.33301 0 -14.833 -2 -16.5 -6s-2.5 -7.66699 -2.5 -11v-303c0 -14 -7.33301 -21 -22 -21h-94c-14.667 0 -22 7 -22 21v303
c0 4.66699 -1.16699 8.66699 -3.5 12s-6.16602 5 -11.499 5h-27c-15.333 0 -23 7 -23 21v66c0 14 7.66699 21 23 21h30c8.66699 0 13 4 13 12v43c0 18.667 3.33301 36.334 10 53.001s16.5 31.334 29.5 44.001s28.833 22.667 47.5 30s40.334 11 65.001 11
c16.667 0 32.5 -1 47.5 -3s26.833 -4 35.5 -6c4 -1.33301 8.16699 -2.83301 12.5 -4.5s7.83301 -4.16699 10.5 -7.5c3.33301 -6 4.33301 -12.667 3 -20l-12 -70c-2.66699 -13.333 -10.334 -20 -23.001 -20c-6 0 -12.333 1 -19 3c-4.66699 1.33301 -11 2.5 -19 3.5
s-13.667 1.5 -17 1.5c-8.66699 0 -16.5 -2.66699 -23.5 -8s-10.5 -14.666 -10.5 -27.999v-23c0 -3.33301 0.833008 -6 2.5 -8s5.16699 -3 10.5 -3h115c5.33301 0 9.16602 1.66699 11.499 5s3.5 7.33301 3.5 12v56c0 14.667 7.33301 23.667 22 27l88 19c2 0.666992 5 1 9 1
c7.33301 0 12.333 -2 15 -6s4 -8.66699 4 -14v-83c0 -3.33301 0.833008 -7 2.5 -11s7.16699 -6 16.5 -6h65z" />
    <glyph glyph-name=".notdef" horiz-adv-x="460" 
d="M0 700h460v-700h-460v700zM323 95l-93 167l-92 -167h185zM323 605h-187l94 -165zM95 199l83 152l-83 153v-305zM365 199v304l-83 -154z" />
    <glyph glyph-name="space" unicode=" " horiz-adv-x="245" 
 />
    <glyph glyph-name="exclam" unicode="!" horiz-adv-x="292" 
d="M207 198c-0.666992 -2.66699 -1.33301 -5.00098 -2 -7.00098c-1.33301 -1.33301 -2.5 -2.66602 -3.5 -3.99902s-3.16699 -2 -6.5 -2h-69c-4.66699 0 -8.33398 2 -11.001 6c-1.33301 2 -2 4.33301 -2 7l-22 400c-1.33301 12.667 4.33398 19 17.001 19h103
c12 0 17.667 -6.33301 17 -19zM159.001 -6.00098c-21.333 0 -39.666 7.50098 -54.999 22.501s-23 32.5 -23 52.5c0 21.333 7.66699 39.166 23 53.499s33.666 21.5 54.999 21.5c10.667 0 20.834 -2 30.501 -6s18 -9.33301 25 -16s12.667 -14.667 17 -24s6.5 -19 6.5 -29
s-2.16699 -19.5 -6.5 -28.5s-10 -17 -17 -24s-15.333 -12.5 -25 -16.5s-19.834 -6 -30.501 -6z" />
    <glyph glyph-name="quotedbl" unicode="&#x22;" horiz-adv-x="351" 
d="M218 400c-5.33301 0 -10.333 1.33105 -15 3.99805s-7 7.33398 -7 14.001v180c0 7.33301 2.5 12.333 7.5 15s10.167 4 15.5 4h57c5.33301 0 10.333 -1.5 15 -4.5s7 -7.5 7 -13.5v-181c0 -7.33301 -2.83301 -12.166 -8.5 -14.499s-10.5 -3.5 -14.5 -3.5h-57zM72 399.998
c-5.33301 0 -10.5 1.33105 -15.5 3.99805s-7.5 7.33398 -7.5 14.001v180c0 7.33301 2.5 12.333 7.5 15s10.167 4 15.5 4h58c5.33301 0 10.333 -1.5 15 -4.5s7 -7.5 7 -13.5v-181c0 -7.33301 -3 -12.166 -9 -14.499s-10.667 -3.5 -14 -3.5h-57z" />
    <glyph glyph-name="numbersign" unicode="#" horiz-adv-x="519" 
d="M492 368c-2 -11.333 -9.3252 -16.998 -21.9922 -16.998h-51c-6 0 -10 -0.833008 -12 -2.5s-3.66699 -4.83398 -5 -9.50098l-13 -55c-1.33301 -6 -1.5 -9.83301 -0.5 -11.5s4.16699 -2.5 9.5 -2.5h54c7.33301 0 12.5 -2 15.5 -6s3.83301 -9 2.5 -15l-12 -61
c-2 -11.333 -9.66699 -17 -23 -17h-58c-6.66699 0 -10.834 -0.833008 -12.501 -2.5s-3.16699 -5.16699 -4.5 -10.5l-24 -107c-1.33301 -5.33301 -3.83301 -9 -7.5 -11s-7.83398 -3 -12.501 -3h-59c-10.667 0 -17 2.66699 -19 8s-2.33301 10.666 -1 15.999l20 99
c2 7.33301 -1.33301 11 -10 11h-45c-5.33301 0 -8.83301 -1.16699 -10.5 -3.5s-3.16699 -5.5 -4.5 -9.5l-23 -107c-1.33301 -5.33301 -3.83301 -9 -7.5 -11s-7.83398 -3 -12.501 -3h-60c-7.33301 0 -13 2 -17 6s-5.33301 9.66699 -4 17l22 99
c1.33301 4.66699 1.5 7.83398 0.5 9.50098s-4.16699 2.5 -9.5 2.5h-46c-14.667 0 -20.334 6.66699 -17.001 20l13 62c2 11.333 9 17 21 17h50c5.33301 0 9.16602 1.33301 11.499 4s4.16602 5.66699 5.49902 9l13 57c1.33301 4 1.33301 6.83301 0 8.5s-5 2.5 -11 2.5h-51
c-15.333 0 -21.333 7 -18 21l14 65c2 11.333 9 17 21 17h63c4 0 6.66699 0.666992 8 2s2.66602 3.66602 3.99902 6.99902l19 87c2 9.33301 8.66699 14 20 14h60c10.667 0 17 -2.5 19 -7.5s2.33301 -10.167 1 -15.5l-17 -76c-1.33301 -3.33301 -1.5 -6 -0.5 -8
s4.16699 -3 9.5 -3h46c4.66699 0 7.66699 0.833008 9 2.5s2.66602 4.16699 3.99902 7.5l22 86c2 9.33301 8.33301 14 19 14h60c10.667 0 17.167 -2.5 19.5 -7.5s2.83301 -10.167 1.5 -15.5l-18 -76c-2 -7.33301 1.33301 -11 10 -11h46c10 0 15.667 -2.83301 17 -8.5
s1.33301 -12.167 0 -19.5zM245.008 351.002c-5.33301 0 -8.83203 -0.833984 -10.499 -2.50098s-3.16699 -5.16699 -4.5 -10.5l-11 -56c-1.33301 -5.33301 -1.16602 -8.66602 0.500977 -9.99902s4.5 -2 8.5 -2h43c5.33301 0 8.83301 0.833008 10.5 2.5
s3.16699 5.16699 4.5 10.5l12 55c1.33301 4 1.66602 7.16699 0.999023 9.5s-3.33398 3.5 -8.00098 3.5h-46z" />
    <glyph glyph-name="dollar" unicode="$" horiz-adv-x="519" 
d="M257 477c-17.333 0 -32.4941 -3.83301 -45.4941 -11.5s-19.5 -20.167 -19.5 -37.5c0 -8 3.16699 -15.167 9.5 -21.5s14 -12 23 -17s18.5 -9.33301 28.5 -13s18.667 -6.5 26 -8.5c20 -5.33301 41.167 -12.5 63.5 -21.5s43 -20.5 62 -34.5s34.667 -31.333 47 -52
s18.5 -45.334 18.5 -74.001c0 -46 -14 -84.167 -42 -114.5s-64 -50.166 -108 -59.499c-3.33301 -0.666992 -7 -1.83398 -11 -3.50098s-6 -6.83398 -6 -15.501v-55c0 -11.333 -5.66699 -17 -17 -17h-52c-12 0 -18 5.66699 -18 17v51c0 6 -2.66699 10.333 -8 13
s-10.666 4.66699 -15.999 6c-22 6.66699 -44.333 14 -67 22s-43 18.667 -61 32l-9 7c-3.33301 2.66699 -6 5.83398 -8 9.50098s-3 7.83398 -3 12.501s2 9.66699 6 15l43 62c9.33301 12.667 17.666 18.334 24.999 17.001s18.666 -7.66602 33.999 -18.999
c11.333 -8 25.666 -15.667 42.999 -23s34 -11 50 -11c20 0 37.667 4.33301 53 13s23 20.667 23 36c0 9.33301 -4.16699 18 -12.5 26s-18.5 15.167 -30.5 21.5s-24.833 12 -38.5 17l-37.5 13.5c-19.333 8 -38.333 16.333 -57 25s-35.334 19.167 -50.001 31.5
s-26.334 27.166 -35.001 44.499s-13 38.666 -13 63.999c0 40 13.833 75 41.5 105s63.5 51 107.5 63c3.33301 1.33301 7.5 2.83301 12.5 4.5s7.5 7.16699 7.5 16.5v50c0 10.667 6 16 18 16h52c11.333 0 17 -5.33301 17 -16v-50c0 -6.66699 1.16699 -11.167 3.5 -13.5
s7.16602 -4.16602 14.499 -5.49902c23.333 -5.33301 45.166 -12.666 65.499 -21.999s35.833 -18.333 46.5 -27c7.33301 -6 12.666 -12.5 15.999 -19.5s0.666016 -16.167 -8.00098 -27.5l-39 -58c-6.66699 -9.33301 -14.667 -12.333 -24 -9s-21 9.66602 -35 18.999
c-13.333 9.33301 -27.666 16.166 -42.999 20.499s-29.666 6.5 -42.999 6.5z" />
    <glyph glyph-name="percent" unicode="%" horiz-adv-x="780" 
d="M282 -19c-3.33301 -7.33301 -9.33301 -11 -18 -11h-46c-10 0 -16.167 2.83301 -18.5 8.5s-2.16602 11.5 0.500977 17.5l289 638c4 8.66699 11.667 13 23 13h42c10 0 16.167 -2.83301 18.5 -8.5s2.16602 -11.5 -0.500977 -17.5zM309 354
c0 -18 -3.50195 -33.999 -10.502 -47.999s-16.667 -25.833 -29 -35.5s-26.833 -16.834 -43.5 -21.501s-34.334 -7 -53.001 -7s-36.167 2.33301 -52.5 7s-30.666 11.667 -42.999 21s-22 21 -29 35s-10.5 30.333 -10.5 49v162c0 18.667 3.5 35 10.5 49s16.5 25.667 28.5 35
s26.167 16.333 42.5 21s33.833 7 52.5 7s36.334 -2.33301 53.001 -7s31.334 -11.667 44.001 -21s22.5 -21 29.5 -35s10.5 -30.333 10.5 -49v-162zM207.998 516.001c0 10 -3.5 17.5 -10.5 22.5s-15.167 7.5 -24.5 7.5s-17.5 -2.5 -24.5 -7.5s-10.5 -12.5 -10.5 -22.5v-162
c0 -9.33301 3.5 -16.333 10.5 -21s14.833 -7 23.5 -7c10 0 18.5 2.33301 25.5 7s10.5 11.667 10.5 21v162zM742.998 109.001c0 -18.667 -3.50195 -35 -10.502 -49s-16.667 -25.667 -29 -35s-26.833 -16.333 -43.5 -21s-34.334 -7 -53.001 -7s-36.167 2.33301 -52.5 7
s-30.666 11.667 -42.999 21s-22 21 -29 35s-10.5 30.333 -10.5 49v162c0 18 3.5 34 10.5 48s16.5 25.833 28.5 35.5s26.167 16.834 42.5 21.501s33.833 7 52.5 7s36.334 -2.33301 53.001 -7s31.334 -11.834 44.001 -21.501s22.5 -21.5 29.5 -35.5s10.5 -30 10.5 -48v-162z
M641.996 271.001c0 9.33301 -3.5 16.5 -10.5 21.5s-15.167 7.5 -24.5 7.5s-17.5 -2.5 -24.5 -7.5s-10.5 -12.167 -10.5 -21.5v-162c0 -9.33301 3.5 -16.333 10.5 -21s14.833 -7 23.5 -7c10 0 18.5 2.16699 25.5 6.5s10.5 11.5 10.5 21.5v162z" />
    <glyph glyph-name="ampersand" unicode="&#x26;" horiz-adv-x="679" 
d="M248 475c-19.333 0 -36.1631 -5.50391 -50.4961 -16.5039s-21.5 -24.5 -21.5 -40.5v-220c0 -8 0.833008 -16.667 2.5 -26s5.33398 -18 11.001 -26s14.334 -14.833 26.001 -20.5s27.5 -8.5 47.5 -8.5h42c20 0 36 2.83301 48 8.5s21.333 12.5 28 20.5s11 16.667 13 26
s3 18 3 26v54c-0.666992 2.66699 -2 5.5 -4 8.5s-6.33301 4.5 -13 4.5h-84c-10.667 0 -16 5.66699 -16 17v78c0 4.66699 1.66699 8.66699 5 12s7.66602 5 12.999 5h221c23.333 0 44.166 3 62.499 9s38.833 15.333 61.5 28c2.66699 1.33301 5 2.33301 7 3s4 1 6 1
c5.33301 0 9.66602 -3 12.999 -9l33 -63c2 -4 3 -7.66699 3 -11c0 -4 -1.33301 -7.5 -4 -10.5s-5.66699 -5.83301 -9 -8.5c-24.667 -17.333 -49.834 -29.166 -75.501 -35.499s-46.834 -10.833 -63.501 -13.5c-6.66699 -1.33301 -11.5 -3.16602 -14.5 -5.49902
s-4.5 -8.5 -4.5 -18.5v-43c0 -26.667 -4 -52.5 -12 -77.5s-21 -47 -39 -66s-41.5 -34.167 -70.5 -45.5s-64.833 -17 -107.5 -17h-36c-46 0 -83.833 5.66699 -113.5 17s-53.167 26.5 -70.5 45.5s-29.333 41 -36 66s-10 50.833 -10 77.5v218c0 26.667 5.16699 51 15.5 73
s24.666 40.833 42.999 56.5s40 27.834 65 36.501s52.167 13 81.5 13h206c5.33301 0 10.333 -1.66699 15 -5s7 -8.66602 7 -15.999v-80c0 -14 -7.33301 -21 -22 -21h-202z" />
    <glyph glyph-name="quotesingle" unicode="'" horiz-adv-x="236" 
d="M91 400c-5.33301 0 -10.5 1.33105 -15.5 3.99805s-7.5 7.33398 -7.5 14.001v180c0 7.33301 2.5 12.333 7.5 15s10.167 4 15.5 4h58c5.33301 0 10.333 -1.5 15 -4.5s7 -7.5 7 -13.5v-181c0 -7.33301 -3 -12.166 -9 -14.499s-10.667 -3.5 -14 -3.5h-57z" />
    <glyph glyph-name="parenleft" unicode="(" horiz-adv-x="377" 
d="M314 635c-32 -56 -59.498 -114.17 -82.498 -174.503s-34.5 -123.166 -34.5 -188.499c0 -32 3 -63.833 9 -95.5s14 -62.167 24 -91.5s21.167 -57.166 33.5 -83.499s25.166 -50.5 38.499 -72.5c8.66699 -15.333 13 -27 13 -35s-4.33301 -14.667 -13 -20l-42 -25
c-10.667 -6 -20 -8 -28 -6s-16 8.66699 -24 20c-21.333 30 -41 60.667 -59 92s-33.5 63.833 -46.5 97.5s-23.167 68.667 -30.5 105s-11 74.5 -11 114.5c0 41.333 4 80 12 116s18.667 70.5 32 103.5s29.166 64.833 47.499 95.5s37.833 61 58.5 91
c8 11.333 15.167 17.333 21.5 18s12.833 -0.666016 19.5 -3.99902l53 -26c5.33301 -2.66699 9.33301 -6.5 12 -11.5s1.66699 -11.5 -3 -19.5z" />
    <glyph glyph-name="parenright" unicode=")" horiz-adv-x="377" 
d="M317 272c0 -40 -3.66699 -78.1641 -11 -114.497s-17.5 -71.333 -30.5 -105s-28.5 -66.167 -46.5 -97.5s-37.667 -62 -59 -92c-8 -11.333 -16 -18 -24 -20s-17.333 0 -28 6l-42 25c-8.66699 5.33301 -13 12 -13 20s4.33301 19.667 13 35
c12.667 22 25.334 46.167 38.001 72.5s24 54.166 34 83.499s18 59.833 24 91.5s9 63.5 9 95.5c0 65.333 -11.5 128.166 -34.5 188.499s-50.5 118.5 -82.5 174.5c-4.66699 8 -5.66699 14.5 -3 19.5s6.66699 8.83301 12 11.5l53 26
c6.66699 3.33301 13.167 4.66602 19.5 3.99902s13.5 -6.66699 21.5 -18c20.667 -30 40.167 -60.333 58.5 -91s34.166 -62.5 47.499 -95.5s24 -67.5 32 -103.5s12 -74.667 12 -116z" />
    <glyph glyph-name="asterisk" unicode="*" horiz-adv-x="403" 
d="M369 514c2 -6.66699 2.49414 -12.6699 1.49414 -18.0029s-6.5 -8.66602 -16.5 -9.99902l-85 -16c-5.33301 -0.666992 -6 -3.66699 -2 -9l58 -65c3.33301 -3.33301 5.33301 -7.66602 6 -12.999s-2.33301 -10.666 -9 -15.999l-44 -31
c-5.33301 -4 -10.666 -6.5 -15.999 -7.5s-10.333 3.16699 -15 12.5l-41 76c-1.33301 3.33301 -2.83301 4.66602 -4.5 3.99902s-3.16699 -2 -4.5 -4l-44 -76c-2.66699 -4.66699 -6.33398 -8 -11.001 -10s-10.667 -0.333008 -18 5l-44 31
c-5.33301 4 -9.16602 8.5 -11.499 13.5s0.166992 11.167 7.5 18.5l60 62c4 4 3.66699 6.66699 -1 8l-88 19c-5.33301 1.33301 -9.66602 3.83301 -12.999 7.5s-3.66602 9.83398 -0.999023 18.501l17 51c2 6 4.83301 11 8.5 15s10.167 3.66699 19.5 -1l79 -38
c5.33301 -3.33301 7.33301 -1.66602 6 5.00098l-9 88c-0.666992 5.33301 0.333008 10.166 3 14.499s8.33398 6.5 17.001 6.5h54c6.66699 0 12.334 -1.33301 17.001 -4s6.33398 -9 5.00098 -19l-12 -87c-1.33301 -4.66699 0.666992 -6 6 -4l82 37
c4.66699 2 9.5 2.33301 14.5 1s8.83301 -6 11.5 -14l17 -51v0z" />
    <glyph glyph-name="plus" unicode="+" horiz-adv-x="519" 
d="M455 328c16.667 0 25 -8.33398 25 -25.001v-42c0 -17.333 -8.33301 -26 -25 -26h-126c-9.33301 0 -15 -1.66699 -17 -5s-3 -7.66602 -3 -12.999v-118c0 -7.33301 -2.5 -13 -7.5 -17s-11.5 -6 -19.5 -6h-55c-8 0 -14.5 2 -19.5 6s-7.5 9.66699 -7.5 17v121
c0 10 -7.66699 15 -23 15h-114c-16.667 0 -25 8.66699 -25 26v42c0 16.667 8.33301 25 25 25h119c6 0 10.5 1 13.5 3s4.5 6.66699 4.5 14v120c0 7.33301 2.5 13 7.5 17s11.5 6 19.5 6h55c8 0 14.5 -2 19.5 -6s7.5 -9.66699 7.5 -17v-114c0 -8.66699 1 -14.667 3 -18
s7.66699 -5 17 -5h126z" />
    <glyph glyph-name="comma" unicode="," horiz-adv-x="244" 
d="M151 -86c-4.66699 -14 -10.667 -23.001 -18 -27.001s-16.666 -6 -27.999 -6h-30c-8 0 -14 1.5 -18 4.5s-6.83301 6.83301 -8.5 11.5s-2.5 9.83398 -2.5 15.501v15.5l12 166c1.33301 11.333 5.16602 21.5 11.499 30.5s17.833 13.5 34.5 13.5h64
c22 0 35.167 -4.83301 39.5 -14.5s3.83301 -22.167 -1.5 -37.5l-55 -172v0z" />
    <glyph glyph-name="hyphen" unicode="-" horiz-adv-x="307" 
d="M55 178c-14 0 -21 6 -21 18v67c0 11.333 7 17 21 17h196c13.333 0 20 -5.66699 20 -17v-67c0 -12 -6.66699 -18 -20 -18h-196z" />
    <glyph glyph-name="period" unicode="." horiz-adv-x="244" 
d="M123 -6c-22 0 -40.666 7.50195 -55.999 22.502s-23 32.5 -23 52.5c0 21.333 7.83301 39.166 23.5 53.499s34.167 21.5 55.5 21.5s39.666 -7.33301 54.999 -22s23 -32.334 23 -53.001c0 -10 -2.16699 -19.5 -6.5 -28.5s-10 -17 -17 -24s-15.167 -12.5 -24.5 -16.5
s-19.333 -6 -30 -6z" />
    <glyph glyph-name="slash" unicode="/" horiz-adv-x="337" 
d="M101 -46c-4 -12.667 -14.333 -18.998 -31 -18.998h-48c-11.333 0 -17.666 3.16699 -18.999 9.5s-0.666016 13.166 2.00098 20.499l224 689c3.33301 9.33301 7.83301 15.166 13.5 17.499s14.5 3.5 26.5 3.5h38c11.333 0 18.166 -3 20.499 -9
s2.16602 -12.667 -0.500977 -20l-226 -692v0z" />
    <glyph glyph-name="zero" unicode="0" horiz-adv-x="519" 
d="M460 173c0 -29.333 -5.33301 -55.167 -16 -77.5s-25.167 -41 -43.5 -56s-39.666 -26.333 -63.999 -34s-50.166 -11.5 -77.499 -11.5c-28 0 -54.167 3.66699 -78.5 11s-45.5 18.5 -63.5 33.5s-32.333 33.667 -43 56s-16 48.5 -16 78.5v275
c0 29.333 5.33301 55.166 16 77.499s25 41 43 56s39.167 26.333 63.5 34s50.166 11.5 77.499 11.5c28 0 54.167 -3.83301 78.5 -11.5s45.666 -19 63.999 -34s32.833 -33.667 43.5 -56s16 -48.166 16 -77.499v-275zM321 447.999c0 18.667 -5.99902 32.834 -17.999 42.501
s-26.667 14.5 -44 14.5s-32.333 -4.83301 -45 -14.5s-19 -23.834 -19 -42.501v-275c0 -18 6.5 -31.833 19.5 -41.5s27.5 -14.5 43.5 -14.5c17.333 0 32.166 4.66699 44.499 14s18.5 23.333 18.5 42v275z" />
    <glyph glyph-name="one" unicode="1" horiz-adv-x="519" 
d="M350 21c0 -14 -7.33105 -21.0039 -21.998 -21.0039h-94c-15.333 0 -23 7 -23 21v420c0 3.33301 -0.833008 6.33301 -2.5 9s-5.83398 2.33398 -12.501 -0.999023l-61 -32c-18 -9.33301 -27 -4.33301 -27 15v76c0 8.66699 0.666992 15.834 2 21.501
s5.66602 10.834 12.999 15.501l102 64c4 2.66699 9.16699 4.66699 15.5 6s12.5 2 18.5 2h69c6 0 11.167 -1.66699 15.5 -5s6.5 -8.66602 6.5 -15.999v-575v0z" />
    <glyph glyph-name="two" unicode="2" horiz-adv-x="519" 
d="M454 20c0 -6.66699 -1.99512 -11.6631 -5.99512 -14.9961s-8.33301 -5 -13 -5h-357c-4.66699 0 -8.5 2 -11.5 6s-4.5 8.33301 -4.5 13v62c0 9.33301 0.666992 17 2 23s6.66602 14.667 15.999 26l161 202l49.5 62.5c15 18.333 22.5 36.166 22.5 53.499
c0 16 -5.5 29.5 -16.5 40.5s-24.833 16.5 -41.5 16.5c-19.333 0 -34.333 -3 -45 -9s-21.667 -15.667 -33 -29c-6 -6.66699 -12.5 -11.834 -19.5 -15.501s-14.167 -2.5 -21.5 3.5l-46 37c-10.667 8.66699 -17.334 15.834 -20.001 21.501s-0.333984 13.167 6.99902 22.5
c25.333 35.333 52.666 59.333 81.999 72s64 19 104 19c25.333 0 49.333 -3.33301 72 -10s42.667 -16.834 60 -30.501s31.166 -30.834 41.499 -51.501s15.5 -45 15.5 -73c0 -16.667 -2.5 -32.667 -7.5 -48s-11.833 -30.333 -20.5 -45s-18.667 -29.334 -30 -44.001l-36 -46
l-111 -139c-3.33301 -4.66699 -4.5 -8.66699 -3.5 -12s5.16699 -5 12.5 -5h178c7.33301 0 12.5 -2 15.5 -6s4.5 -8.33301 4.5 -13v-84v0z" />
    <glyph glyph-name="three" unicode="3" horiz-adv-x="519" 
d="M307 207c0 15.333 -5.33301 29.6709 -16 43.0039s-26.667 20 -48 20h-63c-14.667 0 -22 7.33301 -22 22v74c0 14 7.33301 21 22 21h63c10.667 0 20 1.83301 28 5.5s14.667 8.33398 20 14.001s9.33301 11.5 12 17.5s4 11.667 4 17v7
c0 15.333 -5.83301 28.666 -17.5 39.999s-28.167 17 -49.5 17c-14 0 -28.167 -3.33301 -42.5 -10s-26.166 -16.667 -35.499 -30c-5.33301 -8 -11 -13.5 -17 -16.5s-12.667 -2.16699 -20 2.5l-52 30c-10 5.33301 -16.667 11.666 -20 18.999s-2 16.333 4 27
c19.333 35.333 45.333 60.833 78 76.5s68.667 23.5 108 23.5c28 0 54.333 -3.5 79 -10.5s46.167 -17.667 64.5 -32s32.833 -32.333 43.5 -54s16 -47.167 16 -76.5c0 -10.667 -1.83301 -21.834 -5.5 -33.501s-8.83398 -22.834 -15.501 -33.501s-14.667 -20.167 -24 -28.5
s-19.333 -14.5 -30 -18.5c-2.66699 -1.33301 -3.83398 -2.83301 -3.50098 -4.5s1.5 -2.83398 3.5 -3.50098c11.333 -4 21.666 -10.167 30.999 -18.5s17.166 -17.666 23.499 -27.999s11.333 -21 15 -32s5.5 -21.167 5.5 -30.5v-42c0 -28.667 -4.83301 -54.5 -14.5 -77.5
s-23.5 -42.667 -41.5 -59s-39.5 -28.833 -64.5 -37.5s-52.5 -13 -82.5 -13c-21.333 0 -41.166 1.5 -59.499 4.5s-35.666 8.5 -51.999 16.5s-31.5 19.167 -45.5 33.5s-27.333 32.833 -40 55.5c-3.33301 6 -4.5 11.833 -3.5 17.5s4.5 10.167 10.5 13.5l79 40
c7.33301 3.33301 12.5 3.16602 15.5 -0.500977s6.16699 -8.16699 9.5 -13.5c10.667 -14.667 22.334 -25.667 35.001 -33s27.667 -11 45 -11c21.333 0 38.333 5.33301 51 16s19 24 19 40v34z" />
    <glyph glyph-name="four" unicode="4" horiz-adv-x="519" 
d="M206 597c3.33301 7.33301 7.83398 12.501 13.501 15.501s13.167 4.5 22.5 4.5h88c6 0 10.5 -1.16699 13.5 -3.5s5 -5 6 -8s1.16699 -6 0.5 -9s-1.33398 -5.16699 -2.00098 -6.5l-157 -330c-1.33301 -2 -2 -4.33301 -2 -7s2.66699 -4 8 -4h66c5.33301 0 9.33301 2 12 6
s4 9 4 15v92c0 3.33301 0.666992 6.66602 2 9.99902s5.33301 5 12 5h108c6.66699 0 11 -1.83301 13 -5.5s3 -7.16699 3 -10.5v-92c0 -8.66699 1.5 -14.167 4.5 -16.5s7.16699 -3.5 12.5 -3.5h41c3.33301 0 6.66602 -0.666992 9.99902 -2s5 -5.33301 5 -12v-90
c0 -7.33301 -1.66699 -11.666 -5 -12.999s-6.66602 -2 -9.99902 -2h-42c-4 0 -7.66699 -1.33301 -11 -4s-5 -7 -5 -13v-98c0 -3.33301 -1 -6.66602 -3 -9.99902s-5.66699 -5 -11 -5h-109c-6.66699 0 -10.834 1.5 -12.501 4.5s-2.5 6.16699 -2.5 9.5v102
c0 9.33301 -6 14 -18 14h-206c-5.33301 0 -10.833 1.66699 -16.5 5s-8.5 10 -8.5 20v54c0 11.333 0.833008 20.166 2.5 26.499s3.83398 12.166 6.50098 17.499z" />
    <glyph glyph-name="five" unicode="5" horiz-adv-x="519" 
d="M317 242c0 15.333 -5.6709 28.666 -17.0039 39.999s-27 17 -47 17c-13.333 0 -24.166 -1.66699 -32.499 -5l-23 -9.5c-7 -3 -13.833 -5 -20.5 -6s-14.334 0.833008 -23.001 5.5l-50 25c-7.33301 3.33301 -13.166 8 -17.499 14s-6.5 13 -6.5 21v252c0 14 7.66699 21 23 21
h311c6 0 11.167 -1.66699 15.5 -5s6.5 -8.66602 6.5 -15.999v-80c0 -14 -7.33301 -21 -22 -21h-180c-10 0 -15 -4 -15 -12v-63c0 -5.33301 0.666992 -8.16602 2 -8.49902s4.66602 0.5 9.99902 2.5c4.66699 2 11.334 3.83301 20.001 5.5s15.667 2.5 21 2.5
c29.333 0 55.5 -4.5 78.5 -13.5s42.333 -21.5 58 -37.5s27.5 -35 35.5 -57s12 -46 12 -72v-61c0 -28.667 -4.83301 -54.5 -14.5 -77.5s-23.5 -42.667 -41.5 -59s-39.5 -28.833 -64.5 -37.5s-52.5 -13 -82.5 -13c-21.333 0 -41.166 1.5 -59.499 4.5s-35.666 8.5 -51.999 16.5
s-31.5 19.167 -45.5 33.5s-27.333 32.833 -40 55.5c-3.33301 6 -4.5 11.833 -3.5 17.5s4.5 10.167 10.5 13.5l79 40c7.33301 3.33301 12.5 3.16602 15.5 -0.500977s6.16699 -8.16699 9.5 -13.5c10.667 -14.667 22.334 -25.667 35.001 -33s27.667 -11 45 -11
c21.333 0 38.333 5.33301 51 16s19 24 19 40v69v0z" />
    <glyph glyph-name="six" unicode="6" horiz-adv-x="519" 
d="M464 173c0 -30 -5.50391 -56.1699 -16.5039 -78.5029s-25.833 -41 -44.5 -56s-40.334 -26.167 -65.001 -33.5s-50.667 -11 -78 -11c-29.333 0 -56.666 4.33301 -81.999 13s-47.333 20.834 -66 36.501s-33.167 34.5 -43.5 56.5s-15.5 46.333 -15.5 73v275
c0 26.667 5 51 15 73s23.833 40.833 41.5 56.5s38.834 27.834 63.501 36.501s51.667 13 81 13c23.333 0 46.333 -2.16699 69 -6.5s44 -13.166 64 -26.499c10 -6.66699 19.167 -14.167 27.5 -22.5s15.333 -16.666 21 -24.999s10.167 -16.166 13.5 -23.499
s5 -13.666 5 -18.999s-1.33301 -9.33301 -4 -12s-5.66699 -4.66699 -9 -6l-78 -38c-9.33301 -4.66699 -15.666 -4.66699 -18.999 0l-12 17c-10 14.667 -20.667 25 -32 31s-26.666 9 -45.999 9c-18 0 -33 -5.83301 -45 -17.5s-18 -25.834 -18 -42.501v-36
c0 -6 1.5 -9.83301 4.5 -11.5s8.16699 -0.833984 15.5 2.49902c2.66699 1.33301 6.66699 2.66602 12 3.99902l16.5 4c5.66699 1.33301 11.167 2.33301 16.5 3s9.66602 1 12.999 1c26.667 0 51.834 -4 75.501 -12s44.334 -19.833 62.001 -35.5s31.667 -34.5 42 -56.5
s15.5 -47 15.5 -75v-60zM324.996 232.997c0 18 -6.66797 31.833 -20.001 41.5s-29.666 14.5 -48.999 14.5c-16 0 -30.833 -5.33301 -44.5 -16s-20.5 -24 -20.5 -40v-60c0 -18 6.66699 -31.833 20 -41.5s28 -14.5 44 -14.5c46.667 0 70 18.667 70 56v60z" />
    <glyph glyph-name="seven" unicode="7" horiz-adv-x="519" 
d="M477 552c0 -6 -1.00098 -13.167 -3.00098 -21.5s-4.66699 -15.5 -8 -21.5l-29 -60.5l-40 -82.5l-46 -95l-46.5 -97l-42.5 -88.5l-33 -69.5c-1.33301 -3.33301 -3.66602 -6.83301 -6.99902 -10.5s-8.66602 -5.5 -15.999 -5.5h-110c-7.33301 0 -13 2.5 -17 7.5
s-4.33301 11.167 -1 18.5l84 176l35 74l35.5 74.5l32.5 68.5l26 56c1.33301 3.33301 1.5 7.33301 0.5 12s-5.16699 7 -12.5 7h-70c-9.33301 0 -15.833 -1.5 -19.5 -4.5s-5.5 -7.16699 -5.5 -12.5v-29c0 -14.667 -7.33301 -22 -22 -22h-75c-14.667 0 -22 7.33301 -22 22v148
c0 14 7.33301 21 22 21h357c9.33301 0 17.166 -2 23.499 -6s9.5 -11.667 9.5 -23v-36v0z" />
    <glyph glyph-name="eight" unicode="8" horiz-adv-x="519" 
d="M257 627c27.333 0 53.165 -4.16699 77.498 -12.5s45.666 -20.333 63.999 -36s32.833 -34.834 43.5 -57.501s16 -48 16 -76c0 -20 -5.33301 -40.667 -16 -62s-24.334 -37.666 -41.001 -48.999c-3.33301 -2.66699 -4.66602 -5.16699 -3.99902 -7.5
s2.33398 -4.16602 5.00098 -5.49902c18.667 -12.667 33.834 -30.5 45.501 -53.5s17.5 -48.167 17.5 -75.5c0 -33.333 -5.66699 -62.333 -17 -87s-26.5 -45.167 -45.5 -61.5s-41 -28.666 -66 -36.999s-51.5 -12.5 -79.5 -12.5c-26 0 -51.333 3.83301 -76 11.5
s-46.834 19.334 -66.501 35.001s-35.5 35.5 -47.5 59.5s-18 52.667 -18 86c0 28 6.66699 54.667 20 80s30 43.666 50 54.999c4.66699 3.33301 4.33398 6.66602 -0.999023 9.99902c-21.333 14.667 -36.666 32.667 -45.999 54s-14 41 -14 59
c0 27.333 5.33301 52.166 16 74.499s25.167 41.5 43.5 57.5s39.5 28.5 63.5 37.5s49.333 13.5 76 13.5zM327.999 446c0 17.333 -6 32.332 -18 44.999s-29.667 19 -53 19c-19.333 0 -35.833 -6.5 -49.5 -19.5s-20.5 -28.167 -20.5 -45.5s6.33301 -32.666 19 -45.999
s29.667 -20 51 -20c23.333 0 41 6.33301 53 19s18 28.667 18 48zM255.999 267.999c-20 0 -37.334 -7.5 -52.001 -22.5s-22 -32.5 -22 -52.5c0 -24.667 7 -44.167 21 -58.5s31.667 -21.5 53 -21.5c22.667 0 40.834 7.66699 54.501 23s20.5 34 20.5 56c0 20 -7 37.667 -21 53
s-32 23 -54 23z" />
    <glyph glyph-name="nine" unicode="9" horiz-adv-x="519" 
d="M454 193c0 -32 -5.32715 -60.3301 -15.9941 -84.9971s-25.167 -45.5 -43.5 -62.5s-40.166 -29.833 -65.499 -38.5s-52.666 -13 -81.999 -13c-23.333 0 -46.333 2.16699 -69 6.5s-44 13.166 -64 26.499c-10 6.66699 -19.167 14.167 -27.5 22.5s-15.333 16.666 -21 24.999
s-10.167 16.166 -13.5 23.499s-5 13.666 -5 18.999s1.33301 9.33301 4 12s5.66699 4.66699 9 6l78 38c9.33301 4.66699 15.666 4.66699 18.999 0l12 -17c10 -14.667 20.667 -25 32 -31s26.666 -9 45.999 -9c6.66699 0 14.167 1.33301 22.5 4s15.833 6.66699 22.5 12
s12.334 12.5 17.001 21.5s7 20.167 7 33.5v29c0 6 -1.5 9.83301 -4.5 11.5s-8.16699 0.833984 -15.5 -2.49902c-2.66699 -1.33301 -6.66699 -2.66602 -12 -3.99902l-16.5 -4c-5.66699 -1.33301 -11.334 -2.33301 -17.001 -3s-9.83398 -1 -12.501 -1
c-26.667 0 -51.834 4 -75.501 12s-44.334 19.833 -62.001 35.5s-31.667 34.5 -42 56.5s-15.5 47 -15.5 75v42c0 30 5.16699 57 15.5 81s24.666 44.167 42.999 60.5s40.166 29 65.499 38s52.666 13.5 81.999 13.5c38.667 0 71.167 -5.16699 97.5 -15.5s47.5 -24.5 63.5 -42.5
s27.333 -38.833 34 -62.5s10 -48.834 10 -75.501v-238zM314.006 443.003c0 18 -6.66602 32.667 -19.999 44s-28 17 -44 17c-17.333 0 -33.333 -5.66699 -48 -17s-22 -26 -22 -44v-51c0 -18 6.66699 -31.833 20 -41.5s29.666 -14.5 48.999 -14.5c16 0 30.833 5.33301 44.5 16
s20.5 24 20.5 40v51z" />
    <glyph glyph-name="colon" unicode=":" horiz-adv-x="244" 
d="M123 254c-22 0 -40.666 7.50195 -55.999 22.502s-23 32.5 -23 52.5c0 21.333 7.83301 39.166 23.5 53.499s34.167 21.5 55.5 21.5s39.666 -7.33301 54.999 -22s23 -32.334 23 -53.001c0 -10 -2.16699 -19.5 -6.5 -28.5s-10 -17 -17 -24s-15.167 -12.5 -24.5 -16.5
s-19.333 -6 -30 -6zM123.001 -5.99805c-22 0 -40.666 7.50195 -55.999 22.502s-23 32.5 -23 52.5c0 21.333 7.83301 39.166 23.5 53.499s34.167 21.5 55.5 21.5s39.666 -7.33301 54.999 -22s23 -32.334 23 -53.001c0 -10 -2.16699 -19.5 -6.5 -28.5s-10 -17 -17 -24
s-15.167 -12.5 -24.5 -16.5s-19.333 -6 -30 -6z" />
    <glyph glyph-name="semicolon" unicode=";" horiz-adv-x="244" 
d="M144 -84c-4.66699 -15.333 -10.835 -25.002 -18.502 -29.002s-17.167 -6 -28.5 -6h-30c-8 0 -14 1.66699 -18 5s-6.83301 7.33301 -8.5 12s-2.5 9.83398 -2.5 15.501v16.5l9 164c0.666992 12.667 4.33398 23.667 11.001 33s18.334 14 35.001 14h64
c22 0 35 -5.16699 39 -15.5s3.66699 -23.166 -1 -38.499zM121.999 252.998c-22 0 -40.667 7.16699 -56 21.5s-23 31.833 -23 52.5c0 20 7.66699 37.333 23 52s34 22 56 22c21.333 0 39.666 -7.33301 54.999 -22s23 -32 23 -52c0 -20.667 -7.66699 -38.167 -23 -52.5
s-33.666 -21.5 -54.999 -21.5z" />
    <glyph glyph-name="less" unicode="&#x3c;" horiz-adv-x="519" 
d="M468 459c0 -9.33301 -0.833008 -16.6641 -2.5 -21.9971s-5.5 -9.66602 -11.5 -12.999l-245 -135c-5.33301 -2.66699 -7.83301 -6 -7.5 -10s2.83301 -7.33301 7.5 -10l242 -133c8.66699 -4.66699 13.5 -9 14.5 -13s1.5 -8.66699 1.5 -14v-79c0 -7.33301 -2 -12.333 -6 -15
s-9 -2.33398 -15 0.999023l-370 203c-10 5.33301 -16.667 11.166 -20 17.499s-5 13.166 -5 20.499v43c0 7.33301 1.5 13.833 4.5 19.5s10.167 11.834 21.5 18.501l368 206c6.66699 3.33301 12.167 3.66602 16.5 0.999023s6.5 -7.33398 6.5 -14.001v-72v0z" />
    <glyph glyph-name="equal" unicode="=" horiz-adv-x="519" 
d="M480 349c0 -16.667 -8 -25 -24 -25h-394c-16 0 -24 8 -24 24v47c0 14.667 8 22 24 22h394c16 0 24 -7.33301 24 -22v-46zM480 164c0 -16.667 -8 -25 -24 -25h-394c-16 0 -24 8 -24 24v47c0 14.667 8 22 24 22h394c16 0 24 -7.33301 24 -22v-46z" />
    <glyph glyph-name="greater" unicode="&#x3e;" horiz-adv-x="519" 
d="M468 228c0 -7.33301 -1.66699 -14.168 -5 -20.501s-10 -12.166 -20 -17.499l-370 -203c-6 -3.33301 -11 -3.66602 -15 -0.999023s-6 7.66699 -6 15v79c0 5.33301 0.5 10 1.5 14s5.83301 8.33301 14.5 13l242 133c4.66699 2.66699 7.16699 6 7.5 10
s-2.16699 7.33301 -7.5 10l-245 135c-6 3.33301 -9.83301 7.66602 -11.5 12.999s-2.5 12.666 -2.5 21.999v72c0 6.66699 2.16699 11.334 6.5 14.001s9.83301 2.33398 16.5 -0.999023l368 -206c11.333 -6.66699 18.5 -12.834 21.5 -18.501s4.5 -12.167 4.5 -19.5v-43v0z" />
    <glyph glyph-name="question" unicode="?" horiz-adv-x="519" 
d="M377 298l-28.9961 -17.0029c-10 -6 -19.333 -12.667 -28 -20s-15.834 -15.5 -21.501 -24.5s-8.5 -19.167 -8.5 -30.5c0 -5.33301 -1.33301 -10.166 -4 -14.499s-8.66699 -6.5 -18 -6.5h-91c-9.33301 0 -15.833 1.66699 -19.5 5s-5.5 10 -5.5 20v21
c0 26.667 8.16699 52 24.5 76s39.5 45.667 69.5 65l27.5 17.5c9.66699 6.33301 18.5 12.833 26.5 19.5s14.5 13.667 19.5 21s7.5 15 7.5 23c0 20 -5.66699 33.667 -17 41s-25 11 -41 11c-12 0 -22.167 -1.66699 -30.5 -5s-15.333 -7.16602 -21 -11.499
s-10.334 -9 -14.001 -14s-6.83398 -9.5 -9.50098 -13.5c-3.33301 -5.33301 -8 -9.33301 -14 -12s-12.667 -2 -20 2l-63 39c-7.33301 4.66699 -11.333 9.83398 -12 15.501s1.66602 12.834 6.99902 21.501c12 20 24.5 36.5 37.5 49.5s27 23.167 42 30.5s31.333 12.5 49 15.5
s37.167 4.5 58.5 4.5c62.667 0 111.167 -15.333 145.5 -46s51.5 -73 51.5 -127c0 -17.333 -3.33301 -34 -10 -50s-15 -30.833 -25 -44.5s-20.833 -25.834 -32.5 -36.501s-22.167 -19 -31.5 -25zM218.004 -6.00293c-22 0 -40.667 7.5 -56 22.5s-23 32.5 -23 52.5
c0 21.333 7.83301 39.166 23.5 53.499s34.167 21.5 55.5 21.5s39.666 -7.16699 54.999 -21.5s23 -32.166 23 -53.499c0 -20 -7.66699 -37.5 -23 -52.5s-33.666 -22.5 -54.999 -22.5z" />
    <glyph glyph-name="at" unicode="@" horiz-adv-x="709" 
d="M339 348c18 0 34.9932 -4.66699 50.9932 -14c2.66699 -1.33301 4.33398 -2 5.00098 -2c2 0 3 1.33301 3 4v12c0 23.333 -16.667 35 -50 35c-12 0 -23.667 -1.66699 -35 -5l-34 -10c-7.33301 -2.66699 -12.333 -2.83398 -15 -0.500977s-4.66699 5.16602 -6 8.49902l-11 34
c-3.33301 8 -1.33301 14 6 18c6.66699 4.66699 14.834 8.5 24.501 11.5s19.667 5.5 30 7.5s20.166 3.33301 29.499 4s17.666 1 24.999 1c44.667 0 77.334 -11.333 98.001 -34s31 -50.667 31 -84v-87c0 -14.667 3.33301 -26.834 10 -36.501s18.667 -14.5 36 -14.5
c7.33301 0 15 1.83301 23 5.5s15.167 10.334 21.5 20.001s11.666 23.167 15.999 40.5s6.5 40 6.5 68c0 34 -7.16699 64.5 -21.5 91.5s-32.666 49.667 -54.999 68s-47.333 32.333 -75 42s-54.834 14.5 -81.501 14.5c-37.333 0 -71.666 -6.5 -102.999 -19.5
s-58.5 -31 -81.5 -54s-41 -49.833 -54 -80.5s-19.5 -64 -19.5 -100s6.16699 -69.667 18.5 -101s30 -58.5 53 -81.5s50.5 -41.167 82.5 -54.5s67.667 -20 107 -20c50.667 0 102.334 10.333 155.001 31c5.33301 2.66699 10.333 4 15 4c8 0 13.667 -4.66699 17 -14l10 -26
c2 -5.33301 3 -9.66602 3 -12.999c0 -10 -7.33301 -18.333 -22 -25s-32.167 -12.167 -52.5 -16.5s-41.666 -7.5 -63.999 -9.5s-41.166 -3 -56.499 -3c-51.333 0 -98.166 7.5 -140.499 22.5s-78.5 36.833 -108.5 65.5s-53.333 63.167 -70 103.5s-25 86.166 -25 137.499
c0 46 8.33301 88.667 25 128s39.667 73.5 69 102.5s64.5 51.833 105.5 68.5s85.5 25 133.5 25c44.667 0 86 -7 124 -21s71 -33.5 99 -58.5s50 -54.833 66 -89.5s24 -72.667 24 -114c0 -39.333 -4.5 -72.666 -13.5 -99.999s-20.833 -49.5 -35.5 -66.5
s-31.334 -29.333 -50.001 -37s-37.667 -11.5 -57 -11.5c-24 0 -43.167 3.33301 -57.5 10s-25.166 15.334 -32.499 26.001c-1.33301 2.66699 -3.66602 4 -6.99902 4c-1.33301 0 -3.33301 -1.33301 -6 -4c-8 -11.333 -19.667 -20 -35 -26s-29.666 -9 -42.999 -9
c-40 0 -70.833 9.83301 -92.5 29.5s-32.5 46.5 -32.5 80.5s10 62.333 30 85s50 34 90 34zM387.993 237c0 11.333 -3.99902 21 -11.999 29s-18 12 -30 12c-12.667 0 -22.834 -4 -30.501 -12s-11.5 -17.667 -11.5 -29s3.83301 -21 11.5 -29s17.834 -12 30.501 -12
c13.333 0 23.666 4.33301 30.999 13s11 18 11 28z" />
    <glyph glyph-name="A" unicode="A" horiz-adv-x="507" 
d="M496 25c1.33301 -4 1.16699 -9.16602 -0.5 -15.499s-8.5 -9.5 -20.5 -9.5h-101c-6 0 -11.333 1.5 -16 4.5s-7.66699 7.5 -9 13.5l-15 71c-2 9.33301 -4.33301 15.5 -7 18.5s-7.33398 4.5 -14.001 4.5h-119c-8.66699 0 -13.834 -2 -15.501 -6s-3.5 -9 -5.5 -15l-15 -73
c-1.33301 -6.66699 -4.66602 -11.334 -9.99902 -14.001s-10.333 -4 -15 -4h-100c-6.66699 -0 -11.667 0.833008 -15 2.5s-5.5 3.66699 -6.5 6s-1.16699 5 -0.5 8s1.33398 5.83301 2.00098 8.5l144 576c4 11.333 12.333 17 25 17h142c5.33301 0 10.333 -0.666992 15 -2
s8 -6.33301 10 -15zM276.001 342.001l-20 103.001c-0.666992 3.33301 -2 5.16602 -4 5.49902s-3.33301 -1.5 -4 -5.5l-19 -103l-19 -102c-0.666992 -6.66699 2.66602 -10 9.99902 -10h69c3.33301 0 5.83301 0.833008 7.5 2.5s1.83398 5.16699 0.500977 10.5z" />
    <glyph glyph-name="B" unicode="B" horiz-adv-x="557" 
d="M502 453c0 -10.667 -1.66797 -21.834 -5.00098 -33.501s-8.16602 -23 -14.499 -34s-13.833 -21.167 -22.5 -30.5s-18 -17 -28 -23c-3.33301 -2 -3 -3.66699 1 -5c32.667 -12 56 -31 70 -57s21 -52.333 21 -79c0 -58 -17.5 -104.333 -52.5 -139s-84.833 -52 -149.5 -52
h-231c-16.667 0 -25 8 -25 24v570c0 16 8.33301 24 25 24h225c58 0 103.5 -14.167 136.5 -42.5s49.5 -69.166 49.5 -122.499zM319.999 128c18 0 31.8311 6.66602 41.498 19.999s14.5 27.666 14.5 42.999c0 17.333 -4.66699 33.333 -14 48s-25.666 22 -48.999 22h-83
c-9.33301 0 -15.166 -1.66699 -17.499 -5s-3.5 -8.66602 -3.5 -15.999v-94c0 -7.33301 1.33301 -12.166 4 -14.499s8.66699 -3.5 18 -3.5h89zM309.997 384.999c14.667 0 26.167 5.16602 34.5 15.499s12.5 23.5 12.5 39.5c0 16.667 -4.66699 29.334 -14 38.001s-21 13 -35 13
h-83c-6.66699 0 -11 -1.5 -13 -4.5s-3 -7.16699 -3 -12.5v-66c0 -15.333 6 -23 18 -23h83z" />
    <glyph glyph-name="C" unicode="C" horiz-adv-x="515" 
d="M266 -6c-32 0 -60.665 4.66504 -85.998 13.998s-47 22.166 -65 38.499s-31.667 36 -41 59s-14 48.167 -14 75.5v262c0 26.667 5.16699 51.334 15.5 74.001s24.666 42.334 42.999 59.001s40.166 29.5 65.499 38.5s52.666 13.5 81.999 13.5
c18.667 0 37.334 -1.5 56.001 -4.5s36.667 -8.5 54 -16.5s33.666 -19 48.999 -33s29.333 -31.667 42 -53c2 -4 3 -9 3 -15s-3.33301 -11 -10 -15l-72 -50c-8.66699 -3.33301 -15.5 -3.66602 -20.5 -0.999023s-9.16699 7 -12.5 13c-10 17.333 -21.667 29.833 -35 37.5
s-28.666 11.5 -45.999 11.5c-12.667 0 -23.5 -2 -32.5 -6s-16.5 -9.16699 -22.5 -15.5s-10.333 -13.5 -13 -21.5s-4 -15.667 -4 -23v-255c0 -14.667 5.33301 -28.167 16 -40.5s28.334 -18.5 53.001 -18.5c16.667 0 32.167 4.33301 46.5 13s26.5 20 36.5 34
c3.33301 3.33301 7 7.5 11 12.5s9.66699 5.5 17 1.5l81 -43c7.33301 -3.33301 12.333 -7.5 15 -12.5s2 -10.833 -2 -17.5c-26 -44 -56.833 -74.333 -92.5 -91s-74.834 -25 -117.501 -25z" />
    <glyph glyph-name="D" unicode="D" horiz-adv-x="564" 
d="M91 0c-16.667 0 -25.0029 8 -25.0029 24v570c0 16 8.33301 24 25 24h225c66.667 0 115.334 -17 146.001 -51s46 -80 46 -138v-241c0 -27.333 -3.66699 -52.5 -11 -75.5s-18.666 -42.833 -33.999 -59.5s-34.666 -29.667 -57.999 -39s-51 -14 -83 -14h-231zM295.997 128
c25.333 0 43.167 6.66699 53.5 20s15.5 31.333 15.5 54v217c0 26 -5.83301 44.5 -17.5 55.5s-29.5 16.5 -53.5 16.5h-60c-11.333 0 -18.333 -2.5 -21 -7.5s-4 -11.167 -4 -18.5v-312c0 -9.33301 1.66699 -15.833 5 -19.5s10 -5.5 20 -5.5h62z" />
    <glyph glyph-name="E" unicode="E" horiz-adv-x="496" 
d="M438 128c13.333 0 20 -7.66992 20 -23.0029v-81c0 -16 -6.66699 -24 -20 -24h-352c-16 0 -24 8 -24 24v570c0 16 8 24 24 24h344c13.333 0 20 -7.33301 20 -22v-81c0 -16 -6.66699 -24 -20 -24h-202c-10 0 -16.5 -1.5 -19.5 -4.5s-4.5 -7.83301 -4.5 -14.5v-68
c0 -9.33301 1.66699 -15.833 5 -19.5s10 -5.5 20 -5.5h166c8 0 13.5 -2.16699 16.5 -6.5s4.5 -10.166 4.5 -17.499v-79c0 -7.33301 -1.5 -13.166 -4.5 -17.499s-8.5 -6.5 -16.5 -6.5h-169c-9.33301 0 -15.333 -1.66699 -18 -5s-4 -8.66602 -4 -15.999v-81
c0 -9.33301 2.16699 -15.333 6.5 -18s11.833 -4 22.5 -4h205z" />
    <glyph glyph-name="F" unicode="F" horiz-adv-x="476" 
d="M208 24c0 -16 -8 -24 -24 -24h-94c-16 0 -24 8 -24 24v570c0 16 8 24 24 24h351c6 0 11 -1.66699 15 -5s6 -9 6 -17v-81c0 -16 -7 -24 -21 -24h-213c-8.66699 0 -14.167 -1.66699 -16.5 -5s-3.5 -7.33301 -3.5 -12v-77c0 -7.33301 1.16699 -12.5 3.5 -15.5
s7.83301 -4.5 16.5 -4.5h170c14.667 0 22 -7.33301 22 -22v-81c0 -16 -7.33301 -24 -22 -24h-169c-8 0 -13.5 -1.83301 -16.5 -5.5s-4.5 -10.167 -4.5 -19.5v-201z" />
    <glyph glyph-name="G" unicode="G" horiz-adv-x="543" 
d="M267 628c20 0 39.6699 -1.33008 59.0029 -3.99707s38 -7.83398 56 -15.501s35 -18.334 51 -32.001s30.667 -31.834 44 -54.501c2 -4 3 -9 3 -15s-3.33301 -11 -10 -15l-73 -50c-8.66699 -3.33301 -15.167 -3.5 -19.5 -0.5s-8.83301 7.16699 -13.5 12.5
c-11.333 14 -23.833 25.333 -37.5 34s-31.167 13 -52.5 13c-18 0 -34.333 -5.83301 -49 -17.5s-22 -26.167 -22 -43.5v-261c0 -17.333 7.16699 -31.166 21.5 -41.499s31.833 -15.5 52.5 -15.5c20 0 37.667 5.83301 53 17.5s23 28.167 23 49.5v33
c0 9.33301 -4.66699 14 -14 14h-35c-14.667 0 -22 6.66699 -22 20v79c0 14.667 7.33301 22 22 22h163c17.333 0 26 -7.33301 26 -22v-156c0 -30.667 -5.66699 -57.5 -17 -80.5s-27 -42.333 -47 -58s-43.167 -27.334 -69.5 -35.001s-54.5 -11.5 -84.5 -11.5
c-31.333 0 -60 4.33301 -86 13s-48.5 20.834 -67.5 36.501s-33.833 34.667 -44.5 57s-16 47.166 -16 74.499v272c0 26.667 5.16699 51.167 15.5 73.5s24.666 41.5 42.999 57.5s40.166 28.333 65.499 37s52.666 13 81.999 13z" />
    <glyph glyph-name="H" unicode="H" horiz-adv-x="584" 
d="M379 599c0 7.33301 2.16797 12.332 6.50098 14.999s10.5 4 18.5 4h92c8 0 14.167 -1.33301 18.5 -4s6.5 -7.66699 6.5 -15v-579c0 -13.333 -8.33301 -20 -25 -20h-92c-16.667 0 -25 6.66699 -25 20v209c0 7.33301 -1.83301 13.333 -5.5 18s-10.167 7 -19.5 7h-121
c-12 0 -19.333 -2.16699 -22 -6.5s-4 -10.166 -4 -17.499v-210c0 -13.333 -8.33301 -20 -25 -20h-93c-16.667 0 -25 6.66699 -25 20v579c0 7.33301 2.16699 12.333 6.5 15s10.5 4 18.5 4h93c7.33301 0 13.333 -1.16699 18 -3.5s7 -7.5 7 -15.5v-192
c0 -10.667 1.16699 -17.667 3.5 -21s8.16602 -5 17.499 -5h129c9.33301 0 15.333 1.83301 18 5.5s4 10.5 4 20.5v192z" />
    <glyph glyph-name="I" unicode="I" horiz-adv-x="273" 
d="M89 0c-16 0 -24.001 6.66699 -24.001 20v577c0 14 8 21 24 21h94c6.66699 0 12.334 -1.5 17.001 -4.5s7 -8.5 7 -16.5v-577c0 -13.333 -8 -20 -24 -20h-94z" />
    <glyph glyph-name="J" unicode="J" horiz-adv-x="350" 
d="M2 -90c-1.33301 5.33301 -0.999023 9.83301 1.00098 13.5s6.66699 7.16699 14 10.5c22 10 39.833 20.167 53.5 30.5s24 21.666 31 33.999s11.667 25.833 14 40.5s3.5 30.667 3.5 48v516c0 10 5.33301 15 16 15h110c5.33301 0 9.33301 -1.5 12 -4.5s4 -6.5 4 -10.5v-543
c0 -30 -3.5 -58.333 -10.5 -85s-18.333 -50.667 -34 -72s-36.334 -39.666 -62.001 -54.999s-57.5 -27.333 -95.5 -36c-5.33301 -1.33301 -11.333 -1.5 -18 -0.5s-10.667 5.16699 -12 12.5z" />
    <glyph glyph-name="K" unicode="K" horiz-adv-x="569" 
d="M511 22c0.666992 -14.667 -5.33594 -22.0039 -18.0029 -22.0039h-103c-7.33301 0 -12.333 1.83301 -15 5.5s-4.33398 9.16699 -5.00098 16.5l-12 181c-1.33301 22 -8 39.333 -20 52s-30 19 -54 19c-22 0 -40.167 -7.16699 -54.5 -21.5s-21.5 -30.833 -21.5 -49.5l-2 -181
c0 -14.667 -6.33301 -22 -19 -22h-104c-7.33301 0 -12.166 1.83301 -14.499 5.5s-3.5 9.16699 -3.5 16.5v574c0 14.667 7.66699 22 23 22h97c6 0 11 -1.83301 15 -5.5s6 -9.16699 6 -16.5v-167c0 -5.33301 1.33301 -7.66602 4 -6.99902s5.33398 2.33398 8.00098 5.00098
l140 174c6.66699 7.33301 11.834 11.833 15.501 13.5s11.834 2.5 24.501 2.5h113c6 0 10 -2.33301 12 -7s0.666992 -9.66699 -4 -15l-164 -209c-3.33301 -3.33301 -5 -6.33301 -5 -9s2.33301 -4 7 -4c4 -0.666992 8.5 -1.16699 13.5 -1.5s9.5 -1.16602 13.5 -2.49902
c22 -5.33301 40.333 -13.166 55 -23.499s26.5 -22.5 35.5 -36.5s15.333 -29.833 19 -47.5s6.16699 -36.5 7.5 -56.5z" />
    <glyph glyph-name="L" unicode="L" horiz-adv-x="476" 
d="M443 128c6 0 10.6689 -1.5 14.002 -4.5s5 -8.5 5 -16.5v-83c0 -16 -6.33301 -24 -19 -24h-353c-16 0 -24 8 -24 24v575c0 7.33301 2.16699 12.333 6.5 15s10.166 4 17.499 4h94c7.33301 0 13.166 -1.16699 17.499 -3.5s6.5 -7.5 6.5 -15.5v-448
c0 -7.33301 0.833008 -13 2.5 -17s7.16699 -6 16.5 -6h216z" />
    <glyph glyph-name="M" unicode="M" horiz-adv-x="699" 
d="M640 22c0 -14.667 -8.66797 -22 -26.001 -22h-89c-7.33301 0 -13.166 1.16699 -17.499 3.5s-6.5 7.16602 -6.5 14.499v251c0 0.666992 -1.66699 0.333984 -5 -0.999023c-6.66699 -16.667 -13.167 -33.834 -19.5 -51.501s-12.833 -34.5 -19.5 -50.5l-51 -129
c-3.33301 -7.33301 -7 -12.666 -11 -15.999s-9.66699 -5 -17 -5h-53c-8 0 -14.5 0.5 -19.5 1.5s-9.83301 6.16699 -14.5 15.5l-49 131l-37 102c-1.33301 1.33301 -2.66602 2.16602 -3.99902 2.49902s-2 -0.166992 -2 -1.5v-249c0 -7.33301 -2.16699 -12.166 -6.5 -14.499
s-10.5 -3.5 -18.5 -3.5h-90c-16.667 -0 -25 7.33301 -25 22v574c0 14.667 8.33301 22 25 22h85c7.33301 0 14.166 -0.666992 20.499 -2s12.166 -7.66602 17.499 -18.999l41 -100.5c14 -35.667 27.667 -68.834 41 -99.501l59 -153
c2.66699 -6.66699 5.66699 -6.33398 9 0.999023l59 152l83 200c2.66699 6.66699 7.33398 11.834 14.001 15.501s14.667 5.5 24 5.5h77c17.333 0 26 -7.33301 26 -22v-574v0z" />
    <glyph glyph-name="N" unicode="N" horiz-adv-x="579" 
d="M515 22c0 -14.667 -8.33301 -21.998 -25 -21.998h-63c-8 0 -14.833 0.5 -20.5 1.5s-11.167 6.16699 -16.5 15.5l-184 297c-0.666992 1.33301 -1.33398 1.66602 -2.00098 0.999023s-1 -1.66699 -1 -3v-293c0 -7.33301 -2.33301 -12.333 -7 -15s-11 -4 -19 -4h-88
c-8 0 -14.167 1.33301 -18.5 4s-6.5 7.66699 -6.5 15v577c0 14.667 8.33301 22 25 22h65c10.667 0 18.334 -1.33301 23.001 -4s9.66699 -8.33398 15 -17.001l181 -299v1c1.33301 -2 2.5 -2.66699 3.5 -2s1.5 2 1.5 4v296c0 14 8.33301 21 25 21h87
c7.33301 0 13.333 -1.5 18 -4.5s7 -8.5 7 -16.5v-575v0z" />
    <glyph glyph-name="O" unicode="O" horiz-adv-x="560" 
d="M500 187c0 -30 -5.49902 -56.833 -16.499 -80.5s-26.333 -43.834 -46 -60.501s-43 -29.5 -70 -38.5s-56.167 -13.5 -87.5 -13.5s-60.333 4.5 -87 13.5s-49.834 21.833 -69.501 38.5s-35.167 36.834 -46.5 60.501s-17 50.5 -17 80.5v246c0 30 5.5 57 16.5 81
s26.167 44.5 45.5 61.5s42.333 30 69 39s56 13.5 88 13.5c31.333 0 60.5 -4.5 87.5 -13.5s50.333 -22 70 -39s35.167 -37.5 46.5 -61.5s17 -51 17 -81v-246zM356.001 433c0 17.333 -5.66797 33 -17.001 47s-31 21 -59 21c-25.333 0 -44.666 -7 -57.999 -21
s-20 -29.667 -20 -47v-246c0 -16.667 6.5 -31.667 19.5 -45s32.167 -20 57.5 -20c23.333 0 42 6.5 56 19.5s21 28.167 21 45.5v246z" />
    <glyph glyph-name="P" unicode="P" horiz-adv-x="513" 
d="M485 429c0 -26 -4.83301 -49.999 -14.5 -71.999s-23.167 -41 -40.5 -57s-38.166 -28.333 -62.499 -37s-51.166 -13 -80.499 -13h-67c-6.66699 0 -11 -1.33301 -13 -4s-3 -6.33398 -3 -11.001v-214c0 -14 -8.33301 -21 -25 -21h-93c-16.667 0 -25 7 -25 21v576
c0 14 8.33301 21 25 21h201c30 0 57.167 -4.5 81.5 -13.5s45.166 -21.833 62.499 -38.5s30.666 -36.5 39.999 -59.5s14 -48.833 14 -77.5zM343 433.001c0 16.667 -5.16602 30.499 -15.499 41.499s-23.833 16.5 -40.5 16.5h-65c-8.66699 0 -13.834 -2.16699 -15.501 -6.5
s-2.5 -9.16602 -2.5 -14.499v-71c0 -8.66699 1.5 -14.5 4.5 -17.5s7.5 -4.5 13.5 -4.5h65c16.667 0 30.167 5.5 40.5 16.5s15.5 24.167 15.5 39.5z" />
    <glyph glyph-name="Q" unicode="Q" horiz-adv-x="560" 
d="M500 187c0 -24 -3.83203 -46.167 -11.499 -66.5s-18.5 -38.333 -32.5 -54s-30.5 -29 -49.5 -40s-39.833 -19.167 -62.5 -24.5c-3.33301 -1.33301 -5.83301 -2.66602 -7.5 -3.99902s-2.16699 -4.33301 -1.5 -9c2 -13.333 5.66699 -21.333 11 -24s11.666 -4 18.999 -4
c4 0 10.833 0.833008 20.5 2.5s20.834 4.16699 33.501 7.5c5.33301 1.33301 9.5 1.33301 12.5 0s5.16699 -5 6.5 -11l16 -58c1.33301 -4.66699 1.66602 -8.33398 0.999023 -11.001s-3.66699 -5.66699 -9 -9c-15.333 -10 -33.5 -16.833 -54.5 -20.5s-39.5 -5.5 -55.5 -5.5
c-40.667 0 -71.167 11.667 -91.5 35s-30.5 56.666 -30.5 99.999c0 8.66699 -3.66699 13.334 -11 14.001c-42.667 10.667 -77.167 32.167 -103.5 64.5s-39.5 71.5 -39.5 117.5v246c0 30 5.5 57 16.5 81s26.167 44.5 45.5 61.5s42.333 30 69 39s56 13.5 88 13.5
c31.333 0 60.5 -4.5 87.5 -13.5s50.333 -22 70 -39s35.167 -37.5 46.5 -61.5s17 -51 17 -81v-246zM356.001 433c0 17.333 -5.50098 33 -16.501 47s-30.833 21 -59.5 21c-25.333 0 -44.666 -7 -57.999 -21s-20 -29.667 -20 -47v-246c0 -16.667 6.5 -31.667 19.5 -45
s32.167 -20 57.5 -20c23.333 0 42 6.5 56 19.5s21 28.167 21 45.5v246z" />
    <glyph glyph-name="R" unicode="R" horiz-adv-x="542" 
d="M304 618c28.667 0 54.9971 -3.99707 78.9971 -11.9971s44.667 -19.833 62 -35.5s30.833 -35 40.5 -58s14.5 -49.833 14.5 -80.5c0 -34.667 -7.66699 -66.834 -23 -96.501s-35 -56.167 -59 -79.5c-3.33301 -4.66699 -5 -8.33398 -5 -11.001s1.33301 -7 4 -13l97 -209
c2.66699 -5.33301 2.83398 -10.5 0.500977 -15.5s-8.16602 -7.5 -17.499 -7.5h-100c-16 0 -26.5 2.5 -31.5 7.5s-9.16699 10.833 -12.5 17.5l-81 189c-1.33301 4.66699 -5.66602 7 -12.999 7h-43c-6.66699 0 -10 -3.66699 -10 -11v-190c0 -13.333 -8.33301 -20 -25 -20h-93
c-16.667 0 -25 6.66699 -25 20v574c0 7.33301 1.5 13.166 4.5 17.499s8.5 6.5 16.5 6.5h220zM295.997 348.003c3.33301 0 7.66602 0.665039 12.999 1.99805s9.33301 3.33301 12 6c14.667 12.667 24.334 25.834 29.001 39.501s7 24.834 7 33.501
c0 11.333 -1.83301 20.833 -5.5 28.5s-8.5 14 -14.5 19s-12.667 8.66699 -20 11s-14.333 3.5 -21 3.5h-68c-9.33301 0 -15.333 -1.66699 -18 -5s-4 -9 -4 -17v-101c0 -5.33301 1.33301 -10 4 -14s8.66699 -6 18 -6h68z" />
    <glyph glyph-name="S" unicode="S" horiz-adv-x="522" 
d="M487 184c0 -31.333 -5.83496 -58.6699 -17.502 -82.0029s-27.334 -43 -47.001 -59s-42.667 -28 -69 -36s-54.166 -12 -83.499 -12c-36 0 -73 5.33301 -111 16s-73.667 30 -107 58c-9.33301 7.33301 -14.666 14 -15.999 20s2 14.333 10 25l39 54
c8.66699 10.667 16 15.334 22 14.001s12.667 -4.66602 20 -9.99902c10 -7.33301 21.333 -14.166 34 -20.499s25.334 -11.833 38.001 -16.5s24.834 -8.16699 36.501 -10.5s21.5 -3.5 29.5 -3.5c16.667 0 30.167 1.66699 40.5 5s18.166 7.66602 23.499 12.999
s8.83301 11.166 10.5 17.499s2.5 12.166 2.5 17.499c0 22 -12.833 40 -38.5 54s-61.5 28.667 -107.5 44c-18.667 6 -36.5 13.667 -53.5 23s-31.833 20.833 -44.5 34.5s-22.667 29.667 -30 48s-11 39.833 -11 64.5c0 28 5.5 53.333 16.5 76s25.833 42 44.5 58
s40.5 28.333 65.5 37s51.5 13 79.5 13c42 0 77.333 -4.33301 106 -13s52.667 -19 72 -31c8 -5.33301 12.833 -10.166 14.5 -14.499s-0.833008 -12.833 -7.5 -25.5l-29 -58c-8 -15.333 -19.667 -19.666 -35 -12.999s-34 13.5 -56 20.5s-42.333 10.5 -61 10.5
c-17.333 0 -33.166 -4 -47.499 -12s-21.5 -22.333 -21.5 -43c0 -10.667 3.33301 -20 10 -28s14.667 -14.667 24 -20s19.333 -9.83301 30 -13.5l27 -9.5l66 -24c23.333 -8.66699 44.666 -20.167 63.999 -34.5s35.5 -32.166 48.5 -53.499s19.5 -48 19.5 -80z" />
    <glyph glyph-name="T" unicode="T" horiz-adv-x="464" 
d="M444 515c0 -7.33301 -1.16797 -13.166 -3.50098 -17.499s-7.5 -6.5 -15.5 -6.5h-104c-9.33301 0 -15.333 -1.66699 -18 -5s-4 -7.66602 -4 -12.999l-2 -453c0 -13.333 -8.33301 -20 -25 -20h-93c-7.33301 0 -13.166 1.5 -17.499 4.5s-6.5 8.16699 -6.5 15.5l1 452
c0 6 -1 10.667 -3 14s-8 5 -18 5h-94c-8 0 -13.5 2.16699 -16.5 6.5s-4.5 10.166 -4.5 17.499v79c0 7.33301 1.5 13.166 4.5 17.499s8.5 6.5 16.5 6.5h384c12.667 0 19 -8 19 -24v-79v0z" />
    <glyph glyph-name="U" unicode="U" horiz-adv-x="560" 
d="M202 187c0 -16.667 6.50098 -31.667 19.501 -45s32.167 -20 57.5 -20c23.333 0 42 6.5 56 19.5s21 28.167 21 45.5l-1 412c0 7.33301 2.33301 12.333 7 15s10.667 4 18 4h94c8 0 14.333 -1.33301 19 -4s7 -7.66699 7 -15v-412c0 -30 -5.5 -56.833 -16.5 -80.5
s-26.333 -43.834 -46 -60.501s-43 -29.5 -70 -38.5s-56.167 -13.5 -87.5 -13.5s-60.333 4.5 -87 13.5s-49.834 21.833 -69.501 38.5s-35.167 36.834 -46.5 60.501s-17 50.5 -17 80.5v412c0 7.33301 2.16699 12.333 6.5 15s10.5 4 18.5 4h92
c7.33301 0 13.333 -1.16699 18 -3.5s7 -7.5 7 -15.5v-412v0z" />
    <glyph glyph-name="V" unicode="V" horiz-adv-x="514" 
d="M342 22c-4 -14.667 -15.332 -22.001 -33.999 -22.001h-103c-8 0 -14.5 1 -19.5 3s-9.16699 7.66699 -12.5 17l-161 573c-1.33301 5.33301 -0.833008 10.833 1.5 16.5s10.166 8.5 23.499 8.5h98c6 0 11.333 -0.666992 16 -2s7.66699 -5.66602 9 -12.999l57 -224l40 -163
c0.666992 -2 2 -3.16699 4 -3.5s3.33301 0.833984 4 3.50098l38 162l54 225c2 7.33301 5.33301 11.666 10 12.999s9.66699 2 15 2h96c13.333 0 21 -2.83301 23 -8.5s2.33301 -11.167 1 -16.5z" />
    <glyph glyph-name="W" unicode="W" horiz-adv-x="772" 
d="M625 20c-2 -8.66699 -5.49902 -14.168 -10.499 -16.501s-13.167 -3.5 -24.5 -3.5h-87c-8.66699 0 -15.667 0.666992 -21 2s-9.33301 6.66602 -12 15.999l-42 185l-40 166c-0.666992 2 -2 3.16699 -4 3.5s-3 -0.166992 -3 -1.5l-40 -168l-44 -183
c-3.33301 -13.333 -15 -20 -35 -20h-87c-8.66699 0 -15.667 0.666992 -21 2s-9.33301 6.66602 -12 15.999l-128 576c0 1.33301 -0.166992 3.33301 -0.5 6s0 5.33398 1 8.00098s3.16699 5 6.5 7s8.33301 3 15 3h100c6 0 11.333 -1.33301 16 -4s7.66699 -7.33398 9 -14.001
l40 -220l22 -146v1c0.666992 -2 1.66699 -2.83301 3 -2.5s2.33301 1.16602 3 2.49902l32 146l54 218c1.33301 5.33301 3.5 9.83301 6.5 13.5s9.16699 5.5 18.5 5.5h89c5.33301 0 10.166 -1.16699 14.499 -3.5s7.5 -7.16602 9.5 -14.499l58 -228l30 -137
c0.666992 -1.33301 2 -2.16602 4 -2.49902s3.33301 0.5 4 2.5v-1l20 141l37 225c1.33301 6.66699 4.33301 11.334 9 14.001s10 4 16 4h96c13.333 0 21 -2.66699 23 -8s2.33301 -10.666 1 -15.999z" />
    <glyph glyph-name="X" unicode="X" horiz-adv-x="509" 
d="M251 470c3.33301 -8 7.33691 -7.67188 12.0039 0.995117l59 126c7.33301 14 19.333 21 36 21h107c11.333 0 17.166 -3.16699 17.499 -9.5s-1.83398 -13.5 -6.50098 -21.5l-126 -238c-3.33301 -7.33301 -5.33301 -14.166 -6 -20.499s1.66602 -14.166 6.99902 -23.499
l153 -277c4 -7.33301 4.5 -13.833 1.5 -19.5s-9.83301 -8.5 -20.5 -8.5h-105c-8.66699 0 -15.5 1.16699 -20.5 3.5s-10.167 8.16602 -15.5 17.499l-80 168c-2 4 -4 6.33301 -6 7s-4.66699 -1.66602 -8 -6.99902l-80 -168c-5.33301 -9.33301 -10.5 -15.166 -15.5 -17.499
s-11.833 -3.5 -20.5 -3.5h-105c-13.333 0.666992 -20.333 4.33398 -21 11.001s1.33301 14.334 6 23.001l147 267c6 10.667 9 19.334 9 26.001c0 7.33301 -3.33301 16.666 -10 27.999l-129 234c-4.66699 8 -5.83398 14.833 -3.50098 20.5s8.5 8.5 18.5 8.5h110
c7.33301 0 14.333 -1.5 21 -4.5s11.667 -8.5 15 -16.5z" />
    <glyph glyph-name="Y" unicode="Y" horiz-adv-x="494" 
d="M131 618c9.33301 0 16.835 -1.16504 22.502 -3.49805s10.834 -8.5 15.501 -18.5l73 -201c1.33301 -2.66699 3 -3.83398 5 -3.50098s3.33301 1.16602 4 2.49902l72 200c3.33301 8 7.5 14 12.5 18s13.833 6 26.5 6h94c13.333 0 21 -3.16699 23 -9.5s2 -11.833 0 -16.5
l-154 -354c-3.33301 -6.66699 -5.5 -11.834 -6.5 -15.501s-1.5 -8.16699 -1.5 -13.5v-185c0 -16 -8 -24 -24 -24h-94c-16 0 -24 8 -24 24v188c0 3.33301 -0.333008 6.83301 -1 10.5s-2.33398 8.16699 -5.00098 13.5l-155 355c-2.66699 6 -3.83398 11.833 -3.50098 17.5
s7.16602 8.83398 20.499 9.50098h100v0z" />
    <glyph glyph-name="Z" unicode="Z" horiz-adv-x="462" 
d="M437 21c0 -14 -7.00098 -21.002 -21.001 -21.002h-350c-15.333 0 -25.666 3.33301 -30.999 10s-8 15.334 -8 26.001v26c0 6.66699 1.16699 14 3.5 22s5.16602 14.667 8.49902 20c32 61.333 66.333 123.833 103 187.5l104 187.5c1.33301 2.66699 1.5 5.33398 0.5 8.00098
s-4.16699 4 -9.5 4h-167c-13.333 0 -20 8 -20 24v84c0 7.33301 2 12.333 6 15s9.66699 4 17 4h321c20.667 0 31 -9 31 -27v-42c0 -9.33301 -1.5 -17.833 -4.5 -25.5s-6.16699 -14.5 -9.5 -20.5l-48.5 -88l-51.5 -92.5l-52 -92.5l-49 -88
c-2.66699 -4.66699 -3.5 -8.16699 -2.5 -10.5s3.16699 -3.5 6.5 -3.5h202c6.66699 0 11.834 -1.5 15.501 -4.5s5.5 -8.5 5.5 -16.5v-86v0z" />
    <glyph glyph-name="bracketleft" unicode="[" horiz-adv-x="377" 
d="M299 -128c0 -14 -7.33301 -21.001 -22 -21.001h-178c-14.667 0 -22 7 -22 21v807c0 14.667 7.33301 22 22 22h178c14.667 0 22 -7.33301 22 -22v-71c0 -14 -7.33301 -21 -22 -21h-39c-9.33301 0 -15.666 -2.66699 -18.999 -8s-5 -11.666 -5 -18.999v-570
c0 -9.33301 1.66699 -15.833 5 -19.5s9.66602 -5.5 18.999 -5.5h39c6 0 11.167 -1.83301 15.5 -5.5s6.5 -9.16699 6.5 -16.5v-71v0z" />
    <glyph glyph-name="backslash" unicode="\" horiz-adv-x="337" 
d="M327 -35c2.66699 -7.33301 3.33398 -14.168 2.00098 -20.501s-7.66602 -9.5 -18.999 -9.5h-48c-16.667 0 -27 6.33301 -31 19l-226 692c-2.66699 7.33301 -2.83398 14 -0.500977 20s9.16602 9 20.499 9h38c12 0 20.833 -1.16699 26.5 -3.5s10.167 -8.16602 13.5 -17.499
l224 -689v0z" />
    <glyph glyph-name="bracketright" unicode="]" horiz-adv-x="377" 
d="M274 -128c0 -14 -7.33203 -20.999 -21.999 -20.999h-178c-15.333 0 -23 7 -23 21v71c0 7.33301 2.33301 12.833 7 16.5s10 5.5 16 5.5h39c9.33301 0 15.666 1.83301 18.999 5.5s5 10.167 5 19.5l-1 570c0 7.33301 -1.5 13.666 -4.5 18.999s-9.16699 8 -18.5 8h-39
c-15.333 0 -23 7 -23 21v71c0 14.667 7.66699 22 23 22h178c14.667 0 22 -7.33301 22 -22v-807v0z" />
    <glyph glyph-name="asciicircum" unicode="^" horiz-adv-x="586" 
d="M501 415c6 -7.33301 9 -15 9 -23c0 -8.66699 -4.66699 -16.667 -14 -24l-24 -17c-5.33301 -4.66699 -11.333 -7 -18 -7s-13 2.33301 -19 7s-12 10 -18 16l-115 116c-4.66699 4.66699 -9 7 -13 7c-3.33301 0 -6.33301 -1.66699 -9 -5l-121 -131
c-9.33301 -10 -18 -15 -26 -15c-4.66699 0 -11.334 2.66699 -20.001 8l-25 19c-8.66699 6.66699 -13 13.667 -13 21c0 6 3 13 9 21l153 200c4 5.33301 8.83301 9.83301 14.5 13.5s14.167 5.5 25.5 5.5h32c10.667 0 19.334 -2 26.001 -6s12.667 -9.66699 18 -17l148 -189v0z
" />
    <glyph glyph-name="underscore" unicode="_" horiz-adv-x="500" 
d="M1 -186c-14.667 0 -22 5.66699 -22 17v64c0 11.333 7.33301 17 22 17h496c14.667 0 22 -5.66699 22 -17v-64c0 -11.333 -7.33301 -17 -22 -17h-496z" />
    <glyph glyph-name="grave" unicode="`" horiz-adv-x="471" 
d="M153 635c-4 4 -5.99902 9 -5.99902 15c0 6.66699 3.33301 11.667 10 15l76 37c4 1.33301 7.33301 2 10 2c8.66699 0 15 -3.33301 19 -10l97 -158c2 -4 3 -7.66699 3 -11c0 -5.33301 -3.33301 -10 -10 -14l-38 -21c-6.66699 -3.33301 -12.334 -5 -17.001 -5
s-8.66699 1.66699 -12 5z" />
    <glyph glyph-name="a" unicode="a" horiz-adv-x="484" 
d="M286 286c1.33301 -1.33301 3.3291 -2 5.99609 -2c3.33301 0 5 2 5 6v15c0 5.33301 -0.833008 10.666 -2.5 15.999s-5.16699 10.333 -10.5 15s-12.666 8.33398 -21.999 11.001s-21.666 4 -36.999 4s-30.166 -1 -44.499 -3s-30.166 -6 -47.499 -12
c-10.667 -3.33301 -17.667 -4.5 -21 -3.5s-6 4.5 -8 10.5l-17 63c-3.33301 13.333 0.333984 22.333 11.001 27c44 18 95.333 27 154 27c68 0 116 -16.167 144 -48.5s42 -77.833 42 -136.5v-257c0 -12 -5.66699 -18 -17 -18h-101c-3.33301 0 -6.5 1.16699 -9.5 3.5
s-4.5 6.16602 -4.5 11.499v4c0 6 -1.66699 9 -5 9c-2 0 -4.66699 -1.33301 -8 -4c-15.333 -12 -30.333 -20 -45 -24s-30.667 -6 -48 -6c-25.333 0 -47.833 3.83301 -67.5 11.5s-36.334 18.334 -50.001 32.001s-24.167 30 -31.5 49s-11 39.833 -11 62.5s3.66699 43.667 11 63
s18.166 36 32.499 50s31.833 25 52.5 33s44 12 70 12c13.333 0 26.833 -1.5 40.5 -4.5s26.834 -8.5 39.501 -16.5zM166.996 154c0 -16 5.16699 -29.5 15.5 -40.5s25.166 -16.5 44.499 -16.5c18 0 32.5 5.33301 43.5 16s16.5 24.334 16.5 41.001
c0 16 -5.16699 29.5 -15.5 40.5s-25.166 16.5 -44.499 16.5c-18 0 -32.5 -5.33301 -43.5 -16s-16.5 -24.334 -16.5 -41.001z" />
    <glyph glyph-name="b" unicode="b" horiz-adv-x="485" 
d="M54 616c0 14 7.66504 21.0029 22.998 21.0029h93c6 0 11.167 -1.66699 15.5 -5s6.5 -8.66602 6.5 -15.999v-171c0 -6.66699 6.33301 -6.66699 19 0c10.667 5.33301 22.334 9 35.001 11s23.667 3 33 3c30 0 55.667 -4.33301 77 -13s38.833 -20.834 52.5 -36.501
s23.5 -34.167 29.5 -55.5s9 -45 9 -71v-110c0 -22.667 -3.16699 -44.834 -9.5 -66.501s-16.166 -40.834 -29.499 -57.501s-30 -30 -50 -40s-44 -15 -72 -15c-10 0 -22.5 1.5 -37.5 4.5s-26.833 8.16699 -35.5 15.5l-8 6.5c-2 1.66699 -4 2.5 -6 2.5
c-4 0 -6.66699 -1.66699 -8 -5c-2.66699 -4.66699 -5.16699 -8.83398 -7.5 -12.501s-6.5 -5.5 -12.5 -5.5h-94c-15.333 0 -23 7 -23 21v595zM191.998 173.003c0 -15.333 4.66699 -28.5 14 -39.5s24.333 -16.5 45 -16.5c19.333 0 33.833 5.33301 43.5 16s14.5 24 14.5 40v110
c0 16 -4.5 29.333 -13.5 40s-23.833 16 -44.5 16c-18.667 0 -33.167 -5.33301 -43.5 -16s-15.5 -24 -15.5 -40v-110z" />
    <glyph glyph-name="c" unicode="c" horiz-adv-x="441" 
d="M423 105c-17.333 -36.667 -42.166 -64.335 -74.499 -83.002s-69.833 -28 -112.5 -28c-30 0 -57.167 4.16699 -81.5 12.5s-45.166 20.333 -62.499 36s-30.666 34.334 -39.999 56.001s-14 45.834 -14 72.501v111c0 26.667 4.66699 50.834 14 72.501
s22.666 40.167 39.999 55.5s38.166 27.333 62.499 36s51.5 13 81.5 13c47.333 0 85 -9.33301 113 -28s50.667 -45.334 68 -80.001c1.33301 -2.66699 2 -6 2 -10c0 -3.33301 -0.833008 -7.16602 -2.5 -11.499s-4.83398 -7.5 -9.50098 -9.5l-68 -38
c-10.667 -5.33301 -19 -5 -25 1s-11.333 12.667 -16 20c-8.66699 14 -18.667 23.333 -30 28s-22 7 -32 7c-17.333 0 -31.5 -5.5 -42.5 -16.5s-16.5 -24.167 -16.5 -39.5v-111c0 -15.333 5.5 -28.5 16.5 -39.5s25.167 -16.5 42.5 -16.5c8.66699 0 16.834 1.66699 24.501 5
s14.667 7.5 21 12.5s11.666 10.333 15.999 16l11.5 14.5c2.66699 3.33301 5.16699 6.16602 7.5 8.49902s5.5 3.5 9.5 3.5s8.33301 -1.33301 13 -4l73 -35c9.33301 -4.66699 14 -10.667 14 -18c0 -4 -1 -8.33301 -3 -13z" />
    <glyph glyph-name="d" unicode="d" horiz-adv-x="485" 
d="M434 21c0 -14 -7.66797 -21.0029 -23.001 -21.0029h-94c-6 0 -10.167 1.83301 -12.5 5.5s-4.83301 7.83398 -7.5 12.501c-2 3.33301 -4.66699 5 -8 5c-2 0 -4 -0.833008 -6 -2.5l-8 -6.5c-9.33301 -7.33301 -21 -12.5 -35 -15.5s-26.667 -4.5 -38 -4.5
c-30 0 -55.333 4.66699 -76 14s-37.167 21.833 -49.5 37.5s-21.333 33.334 -27 53.001s-8.5 39.834 -8.5 60.501v124c0 26 3.66699 49.667 11 71s18.333 39.833 33 55.5s32.834 27.834 54.501 36.501s47.167 13 76.5 13c9.33301 0 20 -1 32 -3s21.667 -5.66699 29 -11
c6 -4 10.667 -6 14 -6s5 2 5 6v171c0 7.33301 2.16699 12.666 6.5 15.999s9.5 5 15.5 5h93c15.333 0 23 -7 23 -21v-595zM295.999 282.997c0 16 -5 29.333 -15 40s-24.667 16 -44 16c-17.333 0 -31.333 -5.33301 -42 -16s-16 -24 -16 -40v-110c0 -16 5 -29.333 15 -40
s24.333 -16 43 -16c19.333 0 34 5.5 44 16.5s15 24.167 15 39.5v110z" />
    <glyph glyph-name="e" unicode="e" horiz-adv-x="477" 
d="M436 234c0 -10.667 -2.99609 -19.1719 -8.99609 -25.5049s-14.667 -9.5 -26 -9.5h-199c-8.66699 0 -14.334 -1.83301 -17.001 -5.5s-4 -7.5 -4 -11.5v-11c0 -15.333 5.5 -28.5 16.5 -39.5s25.167 -16.5 42.5 -16.5c19.333 0 35.166 4.83301 47.499 14.5
s22.166 18.5 29.499 26.5c2.66699 2.66699 5 5.33398 7 8.00098s4.66699 4 8 4s7.66602 -1.66699 12.999 -5l60 -38c5.33301 -3.33301 10 -6.83301 14 -10.5s6 -8.16699 6 -13.5c0 -4 -1.33301 -8.33301 -4 -13c-17.333 -31.333 -41.333 -54.833 -72 -70.5
s-67 -23.5 -109 -23.5c-30 0 -57.167 4.16699 -81.5 12.5s-45.166 20.333 -62.499 36s-30.666 34.334 -39.999 56.001s-14 45.834 -14 72.501v111c0 26.667 4.83301 50.834 14.5 72.501s23.167 40.167 40.5 55.5s38.166 27.333 62.499 36s51.166 13 80.499 13
c59.333 0 106.833 -15.667 142.5 -47s53.5 -74.666 53.5 -129.999v-48zM297.004 310.995c-4 7.33301 -10.834 14.167 -20.501 20.5s-21.834 9.5 -36.501 9.5c-13.333 0 -24.666 -3.33301 -33.999 -10s-15.666 -14 -18.999 -22c-2.66699 -5.33301 -4 -10.333 -4 -15
c0 -8 6.33301 -12 19 -12h84c10 0 15 4.66699 15 14c0 4.66699 -1.33301 9.66699 -4 15z" />
    <glyph glyph-name="f" unicode="f" horiz-adv-x="345" 
d="M325 531c-2.66699 -13.333 -10.335 -20.0049 -23.002 -20.0049c-6 0 -12.333 1 -19 3c-4.66699 1.33301 -11 2.5 -19 3.5s-13.667 1.5 -17 1.5c-8.66699 0 -16.5 -2.66699 -23.5 -8s-10.5 -14.666 -10.5 -27.999v-23c0 -3.33301 0.833008 -6 2.5 -8s5.16699 -3 10.5 -3
h71c14.667 0 22 -7 22 -21v-66c0 -14 -7.33301 -21 -22 -21h-65c-9.33301 0 -14.833 -2 -16.5 -6s-2.5 -7.66699 -2.5 -11v-303c0 -14 -7.33301 -21 -22 -21h-94c-14.667 0 -22 7 -22 21v303c0 4.66699 -1.16699 8.66699 -3.5 12s-6.16602 5 -11.499 5h-27
c-15.333 0 -23 7 -23 21v66c0 14 7.66699 21 23 21h30c8.66699 0 13 4 13 12v43c0 18.667 3.33301 36.334 10 53.001s16.5 31.334 29.5 44.001s28.833 22.667 47.5 30s40.334 11 65.001 11c16.667 0 32.5 -1 47.5 -3s26.833 -4 35.5 -6
c5.33301 -1.33301 11.5 -4.16602 18.5 -8.49902s9.5 -12.166 7.5 -23.499z" />
    <glyph glyph-name="g" unicode="g" horiz-adv-x="502" 
d="M371 427c18 11.333 36 19.1621 54 23.4951s35 6.5 51 6.5c7.33301 0 12.166 -1.5 14.499 -4.5s3.5 -7.5 3.5 -13.5v-71c0 -4.66699 -0.833008 -8.33398 -2.5 -11.001s-5.5 -4 -11.5 -4c-5.33301 0 -11.5 0.333008 -18.5 1s-12.167 1 -15.5 1h-6.5
c-2.33301 0 -4.83301 -0.333008 -7.5 -1c-4.66699 -0.666992 -8.33398 -2.33398 -11.001 -5.00098s-3.33398 -6.66699 -2.00098 -12c6.66699 -18.667 10 -37 10 -55c0 -24.667 -5.16699 -47.834 -15.5 -69.501s-24.5 -40.5 -42.5 -56.5s-39.167 -28.667 -63.5 -38
s-50.5 -14 -78.5 -14c-2.66699 0 -6.16699 0.166992 -10.5 0.5s-9.16602 0.833008 -14.499 1.5c-6.66699 0.666992 -10.834 1.33398 -12.501 2.00098s-5.16699 -1.33301 -10.5 -6c-4 -4 -7 -7.5 -9 -10.5s-4.33301 -6.16699 -7 -9.5c-4.66699 -8 -2.66699 -11.333 6 -10
c13.333 1.33301 26.833 2.5 40.5 3.5s27.834 1.5 42.501 1.5c27.333 0 54.166 -2.66699 80.499 -8s49.833 -13.666 70.5 -24.999s37.334 -26.333 50.001 -45s19 -41 19 -67c0 -15.333 -3 -30 -9 -44s-13.833 -27 -23.5 -39s-20.667 -22.833 -33 -32.5
s-24.833 -17.5 -37.5 -23.5c-7.33301 -3.33301 -15.333 -6.66602 -24 -9.99902s-15.334 -1.33301 -20.001 6l-41 63c-8 13.333 -3.33301 25 14 35c2 0.666992 5 2.16699 9 4.5s7.83301 5 11.5 8s7 6.5 10 10.5s4.5 8.66699 4.5 14c0 6.66699 -2.16699 12 -6.5 16
s-10.166 7.16699 -17.499 9.5s-15.666 4 -24.999 5s-19 1.5 -29 1.5c-10.667 0 -23 -0.5 -37 -1.5s-28.667 -2.16699 -44 -3.5s-30.5 -2.83301 -45.5 -4.5s-28.5 -3.5 -40.5 -5.5c-11.333 -1.33301 -20 -0.666016 -26 2.00098s-11 6.66699 -15 12
c-4 4.66699 -7.33301 10.834 -10 18.501s-4.83398 15.834 -6.50098 24.501s-2.83398 17.167 -3.50098 25.5s-1 15.833 -1 22.5c0 7.33301 1.5 15.5 4.5 24.5s7.33301 18 13 27s12.167 17.333 19.5 25s15.333 14.167 24 19.5c3.33301 1.33301 4.5 3.33301 3.5 6
s-2.5 5 -4.5 7c-34 32.667 -51 75 -51 127c0 24.667 5.33301 47.834 16 69.501s24.834 40.334 42.501 56.001s38 28 61 37s47.167 13.5 72.5 13.5c42.667 0 81.334 -10.667 116.001 -32c4.66699 -2.66699 9.33398 -3.66699 14.001 -3s8.66699 2 12 4zM166 275.996
c0 -17.333 6.33301 -32 19 -44s28.667 -18 48 -18c18 0 33.333 6 46 18s19 26.667 19 44s-6.33301 32 -19 44s-28 18 -46 18c-19.333 0 -35.333 -6 -48 -18s-19 -26.667 -19 -44z" />
    <glyph glyph-name="h" unicode="h" horiz-adv-x="493" 
d="M448 21c0 -14 -7.33789 -21.001 -22.0049 -21.001h-95c-7.33301 0 -13.166 1.83301 -17.499 5.5s-6.5 8.83398 -6.5 15.501v261c0 16 -4.66699 29.167 -14 39.5s-24 15.5 -44 15.5c-19.333 0 -33.666 -6.16699 -42.999 -18.5s-14 -26.166 -14 -41.499v-256
c0 -14 -7.66699 -21 -23 -21h-94c-14.667 0 -22 7 -22 21v595c0 14 7.33301 21 22 21h93c6 0 11.333 -1.66699 16 -5s7 -8.66602 7 -15.999v-167c0 -4.66699 1.16699 -7.66699 3.5 -9s7.5 0 15.5 4c10 5.33301 22.667 9.16602 38 11.499s27.333 3.5 36 3.5
c30.667 0 56.334 -4.5 77.001 -13.5s37.334 -21.5 50.001 -37.5s21.834 -34.833 27.501 -56.5s8.5 -44.834 8.5 -69.501l1 -261v0z" />
    <glyph glyph-name="i" unicode="i" horiz-adv-x="244" 
d="M200 567c0 -10 -2.16602 -19.499 -6.49902 -28.499s-10 -17 -17 -24s-15.167 -12.5 -24.5 -16.5s-19.333 -6 -30 -6c-22 0 -40.667 7.33301 -56 22s-23 32.334 -23 53.001c0 21.333 7.66699 39.166 23 53.499s34 21.5 56 21.5c21.333 0 39.666 -7.33301 54.999 -22
s23 -32.334 23 -53.001zM191.001 21.001c0 -14 -7.66699 -21 -23 -21h-93c-14.667 0 -22 7 -22 21v407c0 14.667 7.33301 22 22 22h93c6 0 11.333 -1.83301 16 -5.5s7 -9.16699 7 -16.5v-407z" />
    <glyph glyph-name="j" unicode="j" horiz-adv-x="244" 
d="M201 567c0 -20.667 -7.66797 -38.501 -23.001 -53.501s-33.666 -22.5 -54.999 -22.5c-22 0 -40.667 7.33301 -56 22s-23 32.667 -23 54c0 20.667 7.66699 38.334 23 53.001s34 22 56 22c10.667 0 20.667 -2 30 -6s17.5 -9.5 24.5 -16.5s12.667 -15 17 -24
s6.5 -18.5 6.5 -28.5zM189.999 -47.001c0 -18.667 -2.33008 -36.3301 -6.99707 -52.9971s-12.834 -31.334 -24.501 -44.001s-27 -22.834 -46 -30.501s-42.5 -11.5 -70.5 -11.5c-16.667 0 -31.167 1.16699 -43.5 3.5s-21.833 4.5 -28.5 6.5
c-5.33301 1.33301 -11.333 3.83301 -18 7.5s-9.33398 10.5 -8.00098 20.5l12 70c1.33301 9.33301 4.66602 15.333 9.99902 18s14 3 26 1c2 -0.666992 6.83301 -1.33398 14.5 -2.00098s13.167 -1 16.5 -1c10 0 17.5 2.16699 22.5 6.5s7.5 12.833 7.5 25.5v458
c0 14 7.33301 21 22 21h94c14 0 21 -7 21 -21v-475z" />
    <glyph glyph-name="k" unicode="k" horiz-adv-x="495" 
d="M454 21c0.666992 -14 -5.33008 -21.0059 -17.9971 -21.0059h-100c-7.33301 0 -12.333 1.83301 -15 5.5s-4.33398 8.83398 -5.00098 15.501l-7 112c-1.33301 15.333 -6.5 28.5 -15.5 39.5s-23.167 16.5 -42.5 16.5s-34.166 -5.5 -44.499 -16.5s-15.5 -24.167 -15.5 -39.5
v-112c0 -14 -6.33301 -21 -19 -21h-101c-7.33301 0 -12.166 1.83301 -14.499 5.5s-3.5 8.83398 -3.5 15.501v595c0 14 7.33301 21 22 21h95c6 0 11 -1.66699 15 -5s6 -8.66602 6 -15.999v-275c0 -5.33301 1.16699 -7.66602 3.5 -6.99902s4.83301 2.33398 7.5 5.00098l78 94
c6.66699 7.33301 11.834 11.833 15.501 13.5s11.5 2.5 23.5 2.5h120c6 0 10 -2.33301 12 -7s0.666992 -9.66699 -4 -15l-114 -128c-3.33301 -3.33301 -5 -6.33301 -5 -9s2.33301 -4 7 -4c9.33301 -1.33301 16.666 -2.66602 21.999 -3.99902
c19.333 -5.33301 34.666 -13.333 45.999 -24s20.166 -23 26.499 -37s10.666 -29.5 12.999 -46.5s4.16602 -34.5 5.49902 -52.5z" />
    <glyph glyph-name="l" unicode="l" horiz-adv-x="281" 
d="M197 159c0 -15.333 1.99805 -26.502 5.99805 -33.502s14 -10.5 30 -10.5h9c8 0 13 -2.5 15 -7.5s3 -9.16699 3 -12.5v-78c0 -10 -2.16699 -16.167 -6.5 -18.5s-10.166 -4.16602 -17.499 -5.49902c-8.66699 -1.33301 -17.167 -1.83301 -25.5 -1.5s-13.166 0.5 -14.499 0.5
c-46.667 0 -81.167 11 -103.5 33s-33.5 58.333 -33.5 109v482c0 14 7.33301 21 22 21h93c6 0 11.333 -1.66699 16 -5s7 -8.66602 7 -15.999v-457z" />
    <glyph glyph-name="m" unicode="m" horiz-adv-x="742" 
d="M692 21c0 -14 -7.66699 -21 -23 -21h-94c-14.667 0 -22 7 -22 21v263c0 15.333 -4.66699 28.166 -14 38.499s-23.333 15.5 -42 15.5c-14 0 -26.833 -5.16699 -38.5 -15.5s-17.5 -23.166 -17.5 -38.499v-263c0 -14 -7.33301 -21 -22 -21h-94c-14.667 0 -22 7 -22 21v263
c0 15.333 -5 28.166 -15 38.499s-23.333 15.5 -40 15.5c-15.333 0 -28.5 -5.16699 -39.5 -15.5s-16.5 -23.166 -16.5 -38.499v-263c0 -14 -7.66699 -21 -23 -21h-94c-14.667 0 -22 7 -22 21v263c0 25.333 4.33301 48.666 13 69.999s21 39.833 37 55.5
s35.667 27.834 59 36.501s50 13 80 13c10 0 21 -1.33301 33 -4s23.5 -6.33398 34.5 -11.001s21.5 -10.334 31.5 -17.001s18 -13.667 24 -21c3.33301 -3.33301 6 -5 8 -5s4.66699 1.66699 8 5c6 6.66699 14.167 13.334 24.5 20.001s21.5 12.334 33.5 17.001
s24.167 8.5 36.5 11.5s23.5 4.5 33.5 4.5c30 0 56.5 -4.33301 79.5 -13s42.167 -20.834 57.5 -36.501s26.833 -34.167 34.5 -55.5s11.5 -44.666 11.5 -69.999v-263v0z" />
    <glyph glyph-name="n" unicode="n" horiz-adv-x="497" 
d="M446 21c0 -14 -7.00293 -21.001 -21.0029 -21.001h-94c-7.33301 0 -13.166 1.83301 -17.499 5.5s-6.5 8.83398 -6.5 15.501v260c0 15.333 -4.16699 28.333 -12.5 39s-23.5 16 -45.5 16c-17.333 0 -31.333 -5.33301 -42 -16s-16 -23.667 -16 -39v-260
c0 -14 -7.66699 -21 -23 -21h-93c-14.667 0 -22 7 -22 21v408c0 14 7.33301 21 22 21h98c12 0 18 -7 18 -21c0 -4 1.33301 -6 4 -6c1.33301 0 3.33301 1.33301 6 4c9.33301 7.33301 22.5 14.166 39.5 20.499s33.833 9.5 50.5 9.5c26.667 0 49.834 -4.5 69.501 -13.5
s35.834 -21.167 48.501 -36.5s22 -33.666 28 -54.999s9 -44.333 9 -69v-262v0z" />
    <glyph glyph-name="o" unicode="o" horiz-adv-x="487" 
d="M441 168c0 -28.667 -5 -53.832 -15 -75.499s-24 -39.834 -42 -54.501s-39 -25.667 -63 -33s-50 -11 -78 -11c-29.333 0 -56.166 4 -80.499 12s-45.166 19.5 -62.499 34.5s-30.666 32.667 -39.999 53s-14 43.166 -14 68.499v125c0 24.667 4.66699 47.667 14 69
s22.666 39.5 39.999 54.5s38 26.833 62 35.5s51 13 81 13c29.333 0 56.166 -3.66699 80.499 -11s45.166 -18.166 62.499 -32.499s30.833 -32.333 40.5 -54s14.5 -46.5 14.5 -74.5v-119zM302 282.002c0 17.333 -5.33203 30.8359 -15.999 40.5029s-25.334 14.5 -44.001 14.5
c-18 0 -32.167 -5.33301 -42.5 -16s-15.5 -24.334 -15.5 -41.001v-111c0 -16.667 5.33301 -29.834 16 -39.501s25 -14.5 43 -14.5s32.333 4.66699 43 14s16 22.666 16 39.999v113z" />
    <glyph glyph-name="p" unicode="p" horiz-adv-x="485" 
d="M445 169c0 -25.333 -4.00098 -48.666 -12.001 -69.999s-19.5 -40 -34.5 -56s-33.167 -28.5 -54.5 -37.5s-45.666 -13.5 -72.999 -13.5c-8.66699 0 -19.334 1 -32.001 3s-22.667 5.33301 -30 10c-12.667 8.66699 -19 8.66699 -19 0v-165
c0 -7.33301 -2.16699 -12.666 -6.5 -15.999s-9.5 -5 -15.5 -5h-93c-15.333 0 -23 7 -23 21v588c0 14 7.66699 21 23 21h94c6 0 10.167 -1.33301 12.5 -4s4.83301 -6.33398 7.5 -11.001c1.33301 -3.33301 4 -5 8 -5c2 0 4 0.833008 6 2.5l8 6.5c10 8 22.167 13.333 36.5 16
s26.5 4 36.5 4c30 0 55.167 -5.16699 75.5 -15.5s36.833 -23.833 49.5 -40.5s21.834 -35.834 27.501 -57.501s8.5 -43.5 8.5 -65.5v-110zM306.999 279c0 16 -4.83301 29.333 -14.5 40s-24.167 16 -43.5 16s-34 -5.5 -44 -16.5s-15 -24.167 -15 -39.5v-110
c0 -16 4.66699 -29.333 14 -40s24.333 -16 45 -16c19.333 0 33.833 5.33301 43.5 16s14.5 24 14.5 40v110z" />
    <glyph glyph-name="q" unicode="q" horiz-adv-x="485" 
d="M442 -160c0 -14 -7.66992 -21.001 -23.0029 -21.001h-93c-6 0 -11.167 1.66699 -15.5 5s-6.5 8.66602 -6.5 15.999v165c0 7.33301 -6.33301 7.33301 -19 0c-9.33301 -5.33301 -20.166 -8.66602 -32.499 -9.99902s-23.166 -2 -32.499 -2c-31.333 0 -57.833 4.5 -79.5 13.5
s-39.167 21.167 -52.5 36.5s-23.166 33.666 -29.499 54.999s-9.5 44 -9.5 68v113c0 22 2.66699 43.833 8 65.5s14.166 40.834 26.499 57.501s28.833 30.167 49.5 40.5s46.334 15.5 77.001 15.5c10 0 21.5 -1.16699 34.5 -3.5s25.833 -7.83301 38.5 -16.5
c3.33301 -2 6 -4 8 -6s4 -3 6 -3c3.33301 0 6 1.66699 8 5c2.66699 4.66699 5.16699 8.33398 7.5 11.001s6.5 4 12.5 4h94c15.333 0 23 -7 23 -21v-588zM303.997 275.999c0 15.333 -4.16895 29 -12.502 41s-23.166 18 -44.499 18c-19.333 0 -34.166 -5.83301 -44.499 -17.5
s-15.5 -25.5 -15.5 -41.5v-107c0 -16 4.83301 -29.333 14.5 -40s24.167 -16 43.5 -16c20 0 34.833 5.33301 44.5 16s14.5 24 14.5 40v107z" />
    <glyph glyph-name="r" unicode="r" horiz-adv-x="357" 
d="M331 345c-2.66699 -9.33301 -5.5 -15.1689 -8.5 -17.502s-8.5 -2.83301 -16.5 -1.5c-15.333 3.33301 -28.333 5 -39 5c-29.333 0 -49.333 -9.16699 -60 -27.5s-16 -42.5 -16 -72.5v-210c0 -14 -7.66699 -21 -23 -21h-93c-14.667 0 -22 7 -22 21v407
c0 14 7.33301 21 22 21h84c6 0 11.333 -1.5 16 -4.5s7 -8.16699 7 -15.5v-16c0 -4 1 -6.5 3 -7.5s4.33301 0.166992 7 3.5c9.33301 13.333 22.833 25.333 40.5 36s37.5 16 59.5 16c16 0 31.333 -2.33301 46 -7c9.33301 -3.33301 14.5 -7.16602 15.5 -11.499
s0.5 -10.166 -1.5 -17.499z" />
    <glyph glyph-name="s" unicode="s" horiz-adv-x="433" 
d="M402 141c0 -26.667 -5.33496 -49.3301 -16.002 -67.9971s-24.834 -34 -42.501 -46s-37.334 -20.667 -59.001 -26s-43.5 -8 -65.5 -8c-17.333 0 -34.666 1.16699 -51.999 3.5s-34 6.66602 -50 12.999s-31.167 15 -45.5 26s-26.833 25.167 -37.5 42.5
c-4.66699 7.33301 -6.66699 13.5 -6 18.5s5 10.167 13 15.5l62 41c9.33301 6 16.833 7.33301 22.5 4s11.5 -8 17.5 -14c12 -13.333 24.833 -22 38.5 -26s26.167 -6 37.5 -6s21.166 2.16699 29.499 6.5s12.5 11.166 12.5 20.499c0 6.66699 -2.66699 12.167 -8 16.5
s-12.833 8.33301 -22.5 12s-20.667 7 -33 10s-25.5 6.83301 -39.5 11.5c-38 11.333 -66.833 27.166 -86.5 47.499s-29.5 46.5 -29.5 78.5c0 24 4.66699 45.167 14 63.5s22 33.5 38 45.5s34.333 21 55 27s42.667 9 66 9c28.667 0 58.5 -4.5 89.5 -13.5
s57.167 -24.167 78.5 -45.5c3.33301 -3.33301 5 -7 5 -11c0 -4.66699 -3.66699 -12.334 -11 -23.001l-41 -52c-3.33301 -3.33301 -8 -5 -14 -5c-6.66699 0 -13.667 2.66699 -21 8c-15.333 10.667 -30.666 17.5 -45.999 20.5s-25.666 4.5 -30.999 4.5
c-17.333 0 -29.666 -2.66699 -36.999 -8s-11 -11.666 -11 -18.999c0 -3.33301 2 -7.33301 6 -12s12.333 -8.66699 25 -12c19.333 -5.33301 40.333 -11.5 63 -18.5s43.834 -16 63.501 -27s36 -24.833 49 -41.5s19.5 -37.667 19.5 -63z" />
    <glyph glyph-name="t" unicode="t" horiz-adv-x="346" 
d="M306 449c12.667 0 19.001 -7.00195 19.001 -21.002v-66c0 -14 -6.33301 -21 -19 -21h-74c-5.33301 0 -8.83301 -1 -10.5 -3s-2.5 -4.66699 -2.5 -8v-177c0 -13.333 3 -22.666 9 -27.999s15.333 -8 28 -8c1.33301 0 3.83301 0.166992 7.5 0.5
s7.66699 0.666016 12 0.999023s8.33301 0.666016 12 0.999023s6.5 0.5 8.5 0.5c11.333 1.33301 19 1.33301 23 0s7.33301 -8 10 -20l12 -64c2.66699 -12.667 1.16699 -21 -4.5 -25s-11.167 -6.66699 -16.5 -8c-13.333 -3.33301 -27.833 -5.66602 -43.5 -6.99902
s-31.167 -2 -46.5 -2c-30 0 -54.5 3.66699 -73.5 11s-34 17.333 -45 30s-18.667 27.334 -23 44.001s-6.5 34.334 -6.5 53.001v197c0 8 -4.33301 12 -13 12h-35c-13.333 0 -20 7 -20 21v66c0 14 6.66699 21 20 21h32c5.33301 0 9.16602 1.66699 11.499 5s3.5 7.33301 3.5 12
v67c0 14.667 7.33301 23.667 22 27l88 19c2 0.666992 5 1 9 1c7.33301 0 12.333 -2 15 -6s4 -8.66699 4 -14v-94c0 -3.33301 0.833008 -7 2.5 -11s7.16699 -6 16.5 -6h68z" />
    <glyph glyph-name="u" unicode="u" horiz-adv-x="488" 
d="M47 429c0 14 7.00098 21.0039 21.001 21.0039h94c7.33301 0 13.166 -1.83301 17.499 -5.5s6.5 -8.83398 6.5 -15.501v-260c0 -15.333 4 -28.333 12 -39s23.333 -16 46 -16c21.333 0 36.333 6.16699 45 18.5s13 24.5 13 36.5v260c0 14 7.66699 21 23 21h93
c14.667 0 22 -7 22 -21v-408c0 -14 -7.33301 -21 -22 -21h-98c-12 0 -18 7 -18 21c0 3.33301 -1 5.16602 -3 5.49902s-4.33301 -0.833984 -7 -3.50098c-11.333 -10 -26 -17.5 -44 -22.5s-35.333 -7.5 -52 -7.5c-27.333 0 -50.333 4.5 -69 13.5s-34 21.167 -46 36.5
s-20.667 33.666 -26 54.999s-8 44.333 -8 69v262v0z" />
    <glyph glyph-name="v" unicode="v" horiz-adv-x="460" 
d="M306 14c-2.66699 -6 -6.66699 -9.83301 -12 -11.5s-11.333 -2.5 -18 -2.5h-92c-9.33301 0 -16.333 1.16699 -21 3.5s-8.66699 8.5 -12 18.5l-138 398c-2.66699 6.66699 -2.66699 13.167 0 19.5s9.66699 9.5 21 9.5h92c10 0 18 -2.5 24 -7.5s10 -10.833 12 -17.5l32 -133
l32 -130c1.33301 -2.66699 3 -4.16699 5 -4.5s3.66699 1.16699 5 4.5l31 129l30 130c1.33301 4 4.5 9.83301 9.5 17.5s14.167 11.5 27.5 11.5h93c9.33301 0 15.5 -3.5 18.5 -10.5s3.5 -13.167 1.5 -18.5z" />
    <glyph glyph-name="w" unicode="w" horiz-adv-x="709" 
d="M581 21c-3.33301 -8.66699 -8 -14.3311 -14 -16.998s-12.333 -4 -19 -4h-84c-9.33301 0 -16.333 1.16699 -21 3.5s-8.66699 8.5 -12 18.5l-35 115l-36 131c-0.666992 2 -2 3.16699 -4 3.5s-3.66699 -0.833984 -5 -3.50098l-39 -137l-34 -110
c-3.33301 -10 -7.83301 -16 -13.5 -18s-11.834 -3 -18.501 -3h-84c-9.33301 0 -16.333 1.16699 -21 3.5s-8.66699 8.5 -12 18.5l-116 398c-2.66699 6.66699 -2.66699 13.167 0 19.5s9.66699 9.5 21 9.5h89c20 0 32 -8.33301 36 -25l27 -115l25 -113
c0.666992 -2.66699 2.16699 -4.16699 4.5 -4.5s4.16602 1.16699 5.49902 4.5l31 113l33 112c2.66699 8 6.33398 14.667 11.001 20s11 8 19 8h80c6.66699 0 12.334 -1.33301 17.001 -4s8.66699 -9.33398 12 -20.001l35 -116l32 -113
c0.666992 -2.66699 2.16699 -4.16699 4.5 -4.5s4.16602 1.16699 5.49902 4.5l25 118l24 106c2 9.33301 5.33301 16.5 10 21.5s13.667 7.5 27 7.5h90c11.333 0 17.833 -3.5 19.5 -10.5s1.83398 -13.167 0.500977 -18.5z" />
    <glyph glyph-name="x" unicode="x" horiz-adv-x="444" 
d="M213 342c2.66699 -4.66699 5.33496 -7.49902 8.00195 -8.49902s6 1.83301 10 8.5l48 88c6 9.33301 11.167 14.833 15.5 16.5s11.166 2.5 20.499 2.5h89c8.66699 0 14.667 -1.83301 18 -5.5s5 -7.83398 5 -12.501c0 -5.33301 -1.66699 -10.333 -5 -15l-107 -164
c-6 -8.66699 -8.66699 -15.334 -8 -20.001s4 -11.667 10 -21l115 -181c2.66699 -3.33301 4 -7.66602 4 -12.999c0 -4.66699 -1.83301 -8.66699 -5.5 -12s-10.167 -5 -19.5 -5h-82c-8 0 -14.667 1.16699 -20 3.5s-11.333 8.16602 -18 17.499l-58 102
c-4.66699 7.33301 -8.5 10.333 -11.5 9s-6.16699 -4.33301 -9.5 -9l-59 -102c-6.66699 -9.33301 -12.667 -15.166 -18 -17.499s-12 -3.5 -20 -3.5h-82c-9.33301 0 -15.833 1.66699 -19.5 5s-5.5 7.33301 -5.5 12c0 5.33301 1.33301 9.66602 4 12.999l116 183
c6 9.33301 8.83301 16.5 8.5 21.5s-3.83301 12.167 -10.5 21.5l-103 160c-3.33301 4.66699 -5 9.66699 -5 15c0 4.66699 1.66699 8.83398 5 12.501s9.33301 5.5 18 5.5h89c9.33301 0 16.166 -0.833008 20.499 -2.5s9.5 -7.16699 15.5 -16.5z" />
    <glyph glyph-name="y" unicode="y" horiz-adv-x="474" 
d="M278 -161c-2 -6 -5.16504 -11 -9.49805 -15s-10.166 -6 -17.499 -6h-92c-7.33301 0 -12.833 2.16699 -16.5 6.5s-3.83398 11.166 -0.500977 20.499l39 136c2 7.33301 2.33301 12.333 1 15s-5.33301 4 -12 4h-12c-8 0 -13.833 2 -17.5 6s-6.5 9 -8.5 15l-120 404
c-2.66699 8.66699 -2.16699 15 1.5 19s9.16699 6 16.5 6h107c8.66699 0 14.5 -2 17.5 -6s5.5 -9.33301 7.5 -16l42 -167l24 -106c1.33301 -5.33301 3.33301 -7.5 6 -6.5s4.66699 3.16699 6 6.5l76 273c2 6.66699 5.16699 12 9.5 16s11.166 6 20.499 6h96
c7.33301 0 13.166 -2.66699 17.499 -8s4.83301 -12.666 1.5 -21.999z" />
    <glyph glyph-name="z" unicode="z" horiz-adv-x="452" 
d="M422 21c0 -14 -7.33301 -21.001 -22 -21.001h-334c-14.667 0 -24.5 3.16699 -29.5 9.5s-7.5 14.166 -7.5 23.499v31c0 6 0.833008 13.167 2.5 21.5s5.16699 15.5 10.5 21.5l172 210c0.666992 1.33301 1.33398 2.5 2.00098 3.5s1 2.16699 1 3.5c0 2.66699 -2 4 -6 4h-152
c-14.667 0 -22 7 -22 21v79c0 14 7.33301 21 22 21h316c13.333 0 22.666 -2.66699 27.999 -8s8 -12.333 8 -21v-49c0 -6 -1 -12.833 -3 -20.5s-6 -15.167 -12 -22.5l-156 -194c-2 -3.33301 -3 -5.66602 -3 -6.99902c0 -4 3.33301 -6 10 -6h153c6 0 11.167 -1.66699 15.5 -5
s6.5 -8.66602 6.5 -15.999v-79v0z" />
    <glyph glyph-name="braceleft" unicode="{" horiz-adv-x="391" 
d="M353 -136c0 -6.66699 -1.49902 -12.002 -4.49902 -16.002s-8.5 -6 -16.5 -6c-35.333 0 -65.333 2.16699 -90 6.5s-44.834 12.166 -60.501 23.499s-27.167 26.5 -34.5 45.5s-11 42.833 -11 71.5v148c0 24.667 -6.16699 44.667 -18.5 60s-28.166 26.666 -47.499 33.999
c-9.33301 3.33301 -15.833 7.5 -19.5 12.5s-5.5 10.167 -5.5 15.5v46c0 7.33301 2 13.333 6 18s9.66699 8.66699 17 12c20 8.66699 36.167 20.5 48.5 35.5s18.5 34.833 18.5 59.5v104c0 58 15.667 99.667 47 125s80 38 146 38c7.33301 0 13.333 -1.16699 18 -3.5
s7 -7.16602 7 -14.499v-74c0 -6.66699 -1.5 -12 -4.5 -16s-9.5 -6 -19.5 -6c-14 0 -25 -2 -33 -6s-13.833 -9.16699 -17.5 -15.5s-5.83398 -13.5 -6.50098 -21.5s-1 -16.333 -1 -25v-122c0 -23.333 -5 -44.666 -15 -63.999s-28 -34.666 -54 -45.999
c-4.66699 -2 -6.66699 -5 -6 -9s3 -6.66699 7 -8c14.667 -5.33301 26.334 -12.666 35.001 -21.999s15.5 -19.5 20.5 -30.5s8.33301 -22.167 10 -33.5s2.5 -22 2.5 -32v-124c0 -23.333 3.66699 -40.5 11 -51.5s22.666 -16.5 45.999 -16.5c13.333 0 20.833 -1.66699 22.5 -5
s2.5 -8.33301 2.5 -15v-72v0z" />
    <glyph glyph-name="bar" unicode="|" horiz-adv-x="243" 
d="M173 -94c0 -14 -7.66699 -21 -23 -21h-55c-14.667 0 -22 7 -22 21v749c0 14 7.33301 21 22 21h55c15.333 0 23 -7 23 -21v-749v0z" />
    <glyph glyph-name="braceright" unicode="}" horiz-adv-x="391" 
d="M47 674c0 6.66699 1.5 12.002 4.5 16.002s8.5 6 16.5 6c34.667 0 64.5 -2.16699 89.5 -6.5s45.333 -12.166 61 -23.499s27.167 -26.5 34.5 -45.5s11 -42.833 11 -71.5v-124c0 -24.667 6.16699 -44.667 18.5 -60s28.166 -26.666 47.499 -33.999
c9.33301 -3.33301 15.833 -7.5 19.5 -12.5s5.5 -10.167 5.5 -15.5v-46c0 -7.33301 -2 -13.333 -6 -18s-9.66699 -8.66699 -17 -12c-20 -8.66699 -36.167 -20.5 -48.5 -35.5s-18.5 -34.833 -18.5 -59.5v-128c0 -58 -15.667 -99.667 -47 -125s-80 -38 -146 -38
c-7.33301 0 -13.333 1.16699 -18 3.5s-7 7.16602 -7 14.499v74c0 6.66699 1.5 12 4.5 16s9.5 6 19.5 6c14 0 25 2 33 6s13.833 9.16699 17.5 15.5s5.83398 13.5 6.50098 21.5s1 16.333 1 25v146c0 23.333 5 44.666 15 63.999s28 34.666 54 45.999c4.66699 2 6.66699 5 6 9
s-3 6.66699 -7 8c-14.667 5.33301 -26.334 12.666 -35.001 21.999s-15.5 19.5 -20.5 30.5s-8.33301 22.167 -10 33.5s-2.5 22 -2.5 32v100c0 23.333 -3.66699 40.5 -11 51.5s-22.666 16.5 -45.999 16.5c-13.333 0 -20.833 1.66699 -22.5 5s-2.5 8.33301 -2.5 15v72v0z" />
    <glyph glyph-name="asciitilde" unicode="~" horiz-adv-x="519" 
d="M491 290c-14.667 -21.333 -32.998 -38.499 -54.998 -51.499s-47.667 -19.5 -77 -19.5c-20 0 -38.833 2.83301 -56.5 8.5s-34.334 12 -50.001 19l-45 19.5c-14.333 6 -28.166 9 -41.499 9c-9.33301 0 -18.5 -2.33301 -27.5 -7s-19.5 -14 -31.5 -28
c-4 -5.33301 -9 -9.16602 -15 -11.499s-13 0.166992 -21 7.5l-43 38c-4 3.33301 -6.16699 8.16602 -6.5 14.499s1.16699 12.166 4.5 17.499c14 20 33 37.667 57 53s52 23 84 23c18 0 35.167 -2.83301 51.5 -8.5s32.166 -12 47.499 -19s30.333 -13.333 45 -19
s30 -8.5 46 -8.5c9.33301 0 18.5 3.5 27.5 10.5s17.833 14.5 26.5 22.5c7.33301 6.66699 14 9.66699 20 9s11.667 -3 17 -7l33 -29c7.33301 -6.66699 12.166 -13.5 14.499 -20.5s0.833008 -14.5 -4.5 -22.5z" />
    <glyph glyph-name="exclamdown" unicode="&#xa1;" horiz-adv-x="292" 
d="M113 246c-0.666992 2 -0.330078 4 1.00293 6c1.33301 4.66699 5 7 11 7h69c3.33301 0 5.66602 -0.833008 6.99902 -2.5s2.66602 -3.16699 3.99902 -4.5c1.33301 -2 2 -4 2 -6l22 -400c1.33301 -12.667 -4.33398 -19 -17.001 -19h-103c-12 0 -17.667 6.33301 -17 19z
M161.004 450c21.333 0 39.666 -7.50098 54.999 -22.501s23 -32.5 23 -52.5c0 -21.333 -7.66699 -39.166 -23 -53.499s-33.666 -21.5 -54.999 -21.5c-10.667 0 -20.834 2 -30.501 6s-18 9.33301 -25 16s-12.667 14.667 -17 24s-6.5 19 -6.5 29s2.16699 19.5 6.5 28.5
s10 17 17 24s15.333 12.5 25 16.5s19.834 6 30.501 6z" />
    <glyph glyph-name="cent" unicode="&#xa2;" horiz-adv-x="519" 
d="M448 105c-2 -6 -4.83301 -11.998 -8.5 -17.998s-7.5 -11.833 -11.5 -17.5s-8 -10.834 -12 -15.501s-7 -8 -9 -10c-9.33301 -9.33301 -20.166 -17.5 -32.499 -24.5s-26.166 -12.5 -41.499 -16.5l-13.5 -5.5c-5.66699 -2.33301 -8.5 -7.16602 -8.5 -14.499v-42
c0 -10.667 -5.66699 -16 -17 -16h-54c-12 0 -18 5.33301 -18 16v43c0 7.33301 -2.5 11.666 -7.5 12.999s-9.16699 2.66602 -12.5 3.99902c-42 10.667 -75.167 30.834 -99.5 60.501s-36.5 66.167 -36.5 109.5v111c0 44 12.5 81 37.5 111s58.833 50 101.5 60
c2.66699 0.666992 6.16699 2 10.5 4s6.5 5.66699 6.5 11v46c0 10.667 6 16 18 16h54c11.333 0 17 -5.33301 17 -16v-47c0 -6.66699 2.83301 -10.834 8.5 -12.501s10.167 -3.16699 13.5 -4.5c18 -5.33301 35 -13.333 51 -24c16.667 -11.333 30.5 -24.5 41.5 -39.5
s18.5 -27.167 22.5 -36.5c1.33301 -2 1.83301 -6.83301 1.5 -14.5s-4.16602 -13.167 -11.499 -16.5l-74 -36c-12.667 -6 -21.334 -6 -26.001 0s-8.66699 12.667 -12 20c-6 12.667 -15.333 21.667 -28 27s-24 8 -34 8c-17.333 0 -31.5 -5.5 -42.5 -16.5
s-16.5 -24.167 -16.5 -39.5v-111c0 -15.333 5.5 -28.5 16.5 -39.5s25.167 -16.5 42.5 -16.5c8.66699 0 16.834 1.66699 24.501 5s14.667 7.5 21 12.5s11.666 10.333 15.999 16l11.5 14.5c3.33301 5.33301 7.33301 9 12 11s10.667 1 18 -3l70 -35
c7.33301 -3.33301 11.666 -7.5 12.999 -12.5s0.666016 -11.167 -2.00098 -18.5z" />
    <glyph glyph-name="sterling" unicode="&#xa3;" horiz-adv-x="519" 
d="M479 517c1.33301 -3.33301 1.50293 -8.33301 0.50293 -15s-4.83301 -11.667 -11.5 -15l-76 -38c-10 -5.33301 -16.833 -6 -20.5 -2s-7.16699 9 -10.5 15c-8 14 -17 24.833 -27 32.5s-23.667 11.5 -41 11.5c-19.333 0 -34 -5.5 -44 -16.5s-15 -24.5 -15 -40.5v-61
c0 -15.333 8 -23 24 -23h79c14.667 0 22 -7 22 -21v-70c0 -14 -7.33301 -21 -22 -21h-78c-10 0 -16.667 -1.66699 -20 -5s-5 -9.33301 -5 -18v-30c0 -12 -1 -24.667 -3 -38s-6 -23.666 -12 -30.999c-3.33301 -4 -3.83301 -6.33301 -1.5 -7s5.16602 -1 8.49902 -1h211
c6 0 11.333 -1.83301 16 -5.5s7 -9.16699 7 -16.5v-80c0 -14 -7.66699 -21 -23 -21h-384c-15.333 0 -23 7 -23 21v70c0 7.33301 2.66699 14 8 20s11.333 10 18 12c13.333 4.66699 23.166 12.167 29.499 22.5s9.5 21.833 9.5 34.5v49c0 6.66699 -0.833008 12 -2.5 16
s-7.5 6.33301 -17.5 7l-22 1c-14.667 1.33301 -22 8.33301 -22 21v70c0 14 7.33301 21 22 21h28c6 0 10 1.66699 12 5s3 8.66602 3 15.999v59c0 26.667 4.16699 51.167 12.5 73.5s20.5 41.666 36.5 57.999s35.5 29 58.5 38s49.167 13.5 78.5 13.5
c21.333 0 41.666 -1.5 60.999 -4.5s37.333 -8.66699 54 -17s32 -19.666 46 -33.999s26 -32.833 36 -55.5z" />
    <glyph glyph-name="currency" unicode="&#xa4;" horiz-adv-x="492" 
d="M90 439c11.333 12 19.6689 15.3281 25.002 9.99512l42 -47c14 9.33301 28.333 15.333 43 18s29.334 4 44.001 4c15.333 0 30.166 -1.5 44.499 -4.5s28.166 -8.83301 41.499 -17.5c6 6.66699 12.333 13.167 19 19.5l20 18.5c5.33301 5.33301 11 8.66602 17 9.99902
s12.667 -1.66699 20 -9l31 -31c7.33301 -7.33301 10.833 -14.166 10.5 -20.499s-3.5 -11.833 -9.5 -16.5c-7.33301 -7.33301 -14 -13.666 -20 -18.999s-12.667 -11.666 -20 -18.999c9.33301 -13.333 15.5 -27.166 18.5 -41.499s4.5 -29.166 4.5 -44.499
s-1.33301 -30.333 -4 -45s-8.66699 -29 -18 -43l39 -36c5.33301 -5.33301 8.33301 -11 9 -17s-2 -12.667 -8 -20l-32 -33c-6 -6 -11.5 -9.16699 -16.5 -9.5s-9.16699 1.16699 -12.5 4.5l-48 44c-28 -14.667 -56 -22 -84 -22c-31.333 0 -60.333 7.66699 -87 23l-18.5 -18
c-7 -6.66699 -13.167 -13 -18.5 -19c-11.333 -11.333 -23.333 -11.666 -36 -0.999023l-34 31c-5.33301 4 -8 9.5 -8 16.5s2.66699 13.833 8 20.5l41 42c-15.333 28.667 -23 56.667 -23 84c0 14 1.5 28 4.5 42s8.83301 27.333 17.5 40l-17.5 20.5
c-5.66699 6.33301 -11.834 12.833 -18.501 19.5c-6 6 -9.66699 11.333 -11 16s2.66699 11 12 19zM166.003 248.995c0 -22.667 7.83301 -41.667 23.5 -57s34.5 -23 56.5 -23s40.667 7.66699 56 23s23 34.333 23 57c0 22 -7.66699 40.5 -23 55.5s-34 22.5 -56 22.5
s-40.833 -7.5 -56.5 -22.5s-23.5 -33.5 -23.5 -55.5z" />
    <glyph glyph-name="yen" unicode="&#xa5;" horiz-adv-x="519" 
d="M76 301c-14.667 0 -21.9941 6.99902 -21.9941 20.999v48c0 14 7.33301 21 22 21h22c5.33301 0 8.66602 2 9.99902 6s0.666016 8.33301 -2.00098 13l-79 177c-2.66699 4.66699 -3.16699 10.834 -1.5 18.501s9.16699 11.5 22.5 11.5h96c9.33301 0 16.666 -1 21.999 -3
s9.66602 -7.66699 12.999 -17l39 -106l32 -95c2 -5.33301 4.83301 -8.16602 8.5 -8.49902s6.5 2.16699 8.5 7.5l34 99l39 101c3.33301 7.33301 7.33301 12.833 12 16.5s12.667 5.5 24 5.5h95c13.333 0 20.666 -3.83301 21.999 -11.5s0.666016 -13.834 -2.00098 -18.501
l-79 -177c-2.66699 -5.33301 -4.66699 -9.83301 -6 -13.5s2.66699 -5.5 12 -5.5h20c14.667 0 22 -7 22 -21v-48c0 -14 -7.33301 -21 -22 -21h-362zM438.006 263.999c6.66699 0 12 -1.99902 16 -5.99902s6 -9 6 -15v-47c0 -14 -7.33301 -21 -22 -21h-88
c-9.33301 0 -15.333 -1.83301 -18 -5.5s-4 -9.83398 -4 -18.501v-130c0 -14 -7.33301 -21 -22 -21h-94c-14.667 0 -22 7 -22 21v129c0 7.33301 -0.666992 13.333 -2 18s-7.33301 7 -18 7h-94c-14.667 0 -22 7 -22 21v47c0 14 7.33301 21 22 21h362z" />
    <glyph glyph-name="brokenbar" unicode="&#xa6;" horiz-adv-x="243" 
d="M173 -94c0 -14 -7.66699 -21 -23 -21h-55c-14.667 0 -22 7 -22 21v339c0 14 7.33301 21 22 21h55c15.333 0 23 -7 23 -21v-339zM173 315c0 -14 -7.66699 -21 -23 -21h-55c-14.667 0 -22 7 -22 21v339c0 14 7.33301 21 22 21h55c15.333 0 23 -7 23 -21v-339z" />
    <glyph glyph-name="section" unicode="&#xa7;" horiz-adv-x="489" 
d="M432 61c0 -21.333 -4.82812 -39.999 -14.4951 -55.999s-22.834 -29.5 -39.501 -40.5s-36.334 -19.167 -59.001 -24.5s-47 -8 -73 -8c-16 0 -32.667 1.5 -50 4.5s-34 7.83301 -50 14.5s-30.833 15.667 -44.5 27s-24.5 25.333 -32.5 42c-1.33301 2 -2 5 -2 9
c0 8.66699 4.33301 16 13 22l42 31c6.66699 4.66699 12 7 16 7s7.66699 -1.5 11 -4.5s7 -6.83301 11 -11.5c9.33301 -10.667 22 -20 38 -28s32.667 -12 50 -12c13.333 0 24.5 2.33301 33.5 7s13.5 11 13.5 19c0 9.33301 -4.66699 17 -14 23s-24 12.667 -44 20
c-19.333 6.66699 -37.5 14.834 -54.5 24.501s-31.833 20.334 -44.5 32.001s-22.834 24.667 -30.501 39s-11.5 29.833 -11.5 46.5c0 25.333 7.66699 49.166 23 71.499s39.666 38.166 72.999 47.499c1.33301 0 2.33301 0.166992 3 0.5s1.33398 0.5 2.00098 0.5
c4 0 7 -1.33301 9 -4s3.66699 -5.33398 5 -8.00098l32 -58c1.33301 -2 2 -5 2 -9s-1.16699 -7.33301 -3.5 -10s-4.83301 -4.66699 -7.5 -6c-7.33301 -4.66699 -11 -10.334 -11 -17.001c0 -7.33301 4.5 -14.666 13.5 -21.999s21.167 -14 36.5 -20
c21.333 -8 41.666 -16.5 60.999 -25.5s36.166 -19.333 50.499 -31s25.833 -25 34.5 -40s13 -32.5 13 -52.5zM215.005 522.001c0 -9.33301 3.83105 -16.167 11.498 -20.5s21.167 -10.166 40.5 -17.499c22 -8 42.167 -16.667 60.5 -26s34.166 -19.666 47.499 -30.999
s23.833 -24 31.5 -38s11.5 -30.333 11.5 -49c0 -25.333 -7.66699 -49 -23 -71s-38.333 -38.667 -69 -50c-2.66699 -1.33301 -4.66699 -2 -6 -2c-5.33301 0 -9.66602 4.33301 -12.999 13l-30 62c-2 4 -3 7.33301 -3 10c0 4 1 6.83301 3 8.5s3.66699 3.16699 5 4.5
c6 6 9 12.333 9 19c0 12.667 -5.5 22.334 -16.5 29.001s-26.167 13.667 -45.5 21c-20 7.33301 -38.667 14.833 -56 22.5s-32.166 16.5 -44.499 26.5s-22 21.667 -29 35s-10.5 29.666 -10.5 48.999s4.33301 37.166 13 53.499s20.5 30.333 35.5 42s32.5 20.667 52.5 27
s41.667 9.5 65 9.5c15.333 0 31.5 -1.5 48.5 -4.5s33.333 -7.83301 49 -14.5s30.167 -15.667 43.5 -27s24 -25.333 32 -42c1.33301 -2 2 -5.33301 2 -10c0 -8 -4 -15 -12 -21l-43 -31c-6.66699 -4.66699 -12 -7 -16 -7c-5.33301 0 -12 4.66699 -20 14
c-9.33301 9.33301 -21.166 18.666 -35.499 27.999s-30.5 14 -48.5 14c-26.667 0 -40 -8.66699 -40 -26z" />
    <glyph glyph-name="dieresis" unicode="&#xa8;" horiz-adv-x="485" 
d="M415 564c0 -20 -7 -36.667 -21 -50s-31.333 -20 -52 -20c-21.333 0 -39 6.5 -53 19.5s-21 29.833 -21 50.5c0 19.333 7 35.833 21 49.5s31.667 20.5 53 20.5c20.667 0 38 -6.83301 52 -20.5s21 -30.167 21 -49.5zM226 564c0 -20 -7 -36.667 -21 -50s-31.667 -20 -53 -20
s-38.833 6.5 -52.5 19.5s-20.5 29.833 -20.5 50.5c0 19.333 7 35.833 21 49.5s31.333 20.5 52 20.5c21.333 0 39 -6.83301 53 -20.5s21 -30.167 21 -49.5z" />
    <glyph glyph-name="copyright" unicode="&#xa9;" horiz-adv-x="707" 
d="M355 0c-42.667 0 -82 5.49609 -118 16.4961s-67 27 -93 48s-46.333 46.5 -61 76.5s-22 64 -22 102v131c0 38 7.33301 72 22 102s35 55.5 61 76.5s57 37 93 48s75.333 16.5 118 16.5c42 0 81.167 -5.33301 117.5 -16s67.833 -26.167 94.5 -46.5s47.5 -45.666 62.5 -75.999
s22.5 -65.166 22.5 -104.499v-131c0 -39.333 -7.5 -74.166 -22.5 -104.499s-35.833 -55.666 -62.5 -75.999s-58.167 -35.833 -94.5 -46.5s-75.5 -16 -117.5 -16zM581 376.996c0 24 -4.66602 46.5 -13.999 67.5s-23.5 39.333 -42.5 55s-42.5 28.167 -70.5 37.5s-61 14 -99 14
s-71 -4.83301 -99 -14.5s-51.167 -22.5 -69.5 -38.5s-32 -34.5 -41 -55.5s-13.5 -42.833 -13.5 -65.5v-137c0 -22.667 4.5 -44.5 13.5 -65.5s22.667 -39.667 41 -56s41.5 -29.333 69.5 -39s61 -14.5 99 -14.5c37.333 0 70.166 4.83301 98.499 14.5s52 22.5 71 38.5
s33.167 34.5 42.5 55.5s14 43.167 14 66.5v137zM355.001 119.996c-34 0 -62 9.33203 -84 27.999s-33 43.334 -33 74.001v154c0 30.667 11.167 55.334 33.5 74.001s50.166 28 83.499 28c25.333 0 47.833 -4.16699 67.5 -12.5s35.5 -25.166 47.5 -50.499
c1.33301 -2 1.5 -5 0.5 -9s-3.16699 -7 -6.5 -9l-44 -21c-5.33301 -3.33301 -9.16602 -3.83301 -11.499 -1.5s-4.5 5.16602 -6.5 8.49902c-6 10.667 -13 17.5 -21 20.5s-15.667 4.5 -23 4.5c-11.333 0 -21 -3 -29 -9s-12 -13.667 -12 -23v-154
c0 -8.66699 3.83301 -16.167 11.5 -22.5s17.5 -9.5 29.5 -9.5c10 0 18.667 2.16699 26 6.5s14 10.5 20 18.5c2 3.33301 3.83301 6 5.5 8s4.5 2 8.5 0l48 -22c6 -3.33301 7.33301 -9.33301 4 -18c-14 -26.667 -30 -43.834 -48 -51.501s-40.333 -11.5 -67 -11.5z" />
    <glyph glyph-name="ordfeminine" unicode="&#xaa;" horiz-adv-x="335" 
d="M306 263c0 -11.333 -5.66895 -16.998 -17.002 -16.998h-68c-2.66699 0 -5.66699 0.666992 -9 2s-5 4.66602 -5 9.99902c0 3.33301 -0.666992 5.33301 -2 6s-2.66602 0.333984 -3.99902 -0.999023c-4.66699 -4.66699 -13.167 -9.16699 -25.5 -13.5
s-24.166 -6.5 -35.499 -6.5c-38 0 -66.833 9.33301 -86.5 28s-29.5 44.334 -29.5 77.001c0 28.667 10.5 53 31.5 73s52.167 30 93.5 30c8.66699 0 17.5 -1.16699 26.5 -3.5s16.833 -5.83301 23.5 -10.5c2.66699 -1.33301 4 -0.333008 4 3v7
c0 7.33301 -2.83301 14.166 -8.5 20.499s-17.5 9.5 -35.5 9.5c-12 0 -24.833 -1.33301 -38.5 -4s-27.167 -6.66699 -40.5 -12c-7.33301 -3.33301 -13.333 0.666992 -18 12l-11 36c-3.33301 11.333 0.666992 19.666 12 24.999c18 7.33301 36.5 12.666 55.5 15.999
s38.833 5 59.5 5c44 0 76.333 -11 97 -33s31 -51 31 -87v-172zM194.998 351.002c0 7.33301 -3.16895 14.167 -9.50195 20.5s-14.166 9.5 -23.499 9.5c-10 0 -18 -3 -24 -9s-9 -13 -9 -21c0 -7.33301 3 -14 9 -20s14 -9 24 -9c10.667 0 18.834 3 24.501 9s8.5 12.667 8.5 20z
" />
    <glyph glyph-name="guillemotleft" unicode="&#xab;" horiz-adv-x="617" 
d="M442 213c-4 -5.33301 -6 -9.33398 -6 -12.001s1.66699 -5.66699 5 -9l116 -137c6.66699 -8 8 -15.833 4 -23.5s-10.667 -11.5 -20 -11.5h-81c-9.33301 0 -16.833 1.66699 -22.5 5s-12.167 9 -19.5 17l-113 134c-8.66699 10 -12.667 19.167 -12 27.5s4.66699 16.5 12 24.5
l115 138c4.66699 4.66699 9.5 8.83398 14.5 12.501s13.167 5.5 24.5 5.5h82c11.333 0 19 -3.33301 23 -10s2.33301 -14 -5 -22zM222 212.999c-4 -5.33301 -6 -9.33398 -6 -12.001s1.66699 -5.66699 5 -9l116 -137c6.66699 -8 8.16699 -15.833 4.5 -23.5
s-10.167 -11.5 -19.5 -11.5h-82c-9.33301 0 -16.833 1.66699 -22.5 5s-11.834 9 -18.501 17l-114 134c-8.66699 10 -12.667 19.167 -12 27.5s4.66699 16.5 12 24.5l116 138c4 4.66699 8.5 8.83398 13.5 12.501s13.167 5.5 24.5 5.5h83c11.333 0 18.833 -3.33301 22.5 -10
s1.83398 -14 -5.49902 -22z" />
    <glyph glyph-name="logicalnot" unicode="&#xac;" horiz-adv-x="519" 
d="M480 99c0 -6 -1.5 -11.167 -4.5 -15.5s-7.16699 -6.5 -12.5 -6.5h-62c-11.333 0 -17 7.33301 -17 22v116c0 6.66699 -0.666992 11.667 -2 15s-7.33301 5 -18 5h-304c-7.33301 0 -12.833 2.33301 -16.5 7s-5.5 9.66699 -5.5 15v50c0 5.33301 2 10.166 6 14.499
s9.66699 6.5 17 6.5h395c6 0 11.5 -2.16699 16.5 -6.5s7.5 -9.16602 7.5 -14.499v-208z" />
    <glyph glyph-name="sfthyphen" unicode="&#xad;" horiz-adv-x="307" 
d="M55 178c-14 0 -21 6 -21 18v67c0 11.333 7 17 21 17h196c13.333 0 20 -5.66699 20 -17v-67c0 -12 -6.66699 -18 -20 -18h-196z" />
    <glyph glyph-name="registered" unicode="&#xae;" horiz-adv-x="409" 
d="M203 307c-46.667 0 -85.167 11.667 -115.5 35s-45.5 56 -45.5 98v71c0 42 15.167 74.833 45.5 98.5s68.833 35.5 115.5 35.5c22.667 0 44 -2.83301 64 -8.5s37.333 -14.167 52 -25.5s26.167 -25.333 34.5 -42s12.5 -36 12.5 -58v-71
c0 -21.333 -4.16699 -40.333 -12.5 -57s-19.833 -30.667 -34.5 -42s-32 -19.833 -52 -25.5s-41.333 -8.5 -64 -8.5zM322 513c0 24.667 -9.83398 45.999 -29.501 63.999s-49.5 27 -89.5 27c-40.667 0 -70.5 -9.16699 -89.5 -27.5s-28.5 -39.5 -28.5 -63.5v-74
c0 -12 2.33301 -23.5 7 -34.5s11.834 -20.667 21.501 -29s22 -15.166 37 -20.499s32.5 -8 52.5 -8c40 0 69.833 9.33301 89.5 28s29.5 40 29.5 64v74zM245.999 379.999c-5.33301 0 -8.99805 2.33203 -10.998 6.99902l-28 61c-1.33301 4 -3.66602 6 -6.99902 6h-9v-64
c0 -3.33301 -0.333008 -5.83301 -1 -7.5s-2.66699 -2.5 -6 -2.5h-31c-4.66699 0 -7 3.33301 -7 10v172c0 6.66699 3.33301 10 10 10h56c21.333 0 37.166 -5.33301 47.499 -16s15.5 -24 15.5 -40c0 -10.667 -2.16699 -20.167 -6.5 -28.5s-9.5 -15.166 -15.5 -20.499
c-3.33301 -2.66699 -5 -5 -5 -7s0.666992 -4.33301 2 -7l29 -59c1.33301 -3.33301 1.66602 -6.5 0.999023 -9.5s-3.33398 -4.5 -8.00098 -4.5h-26zM189.001 530.998v-41h23c4.66699 0 9.16699 2.33301 13.5 7s6.5 10 6.5 16c0 12 -6.66699 18 -20 18h-23z" />
    <glyph glyph-name="macron" unicode="&#xaf;" horiz-adv-x="485" 
d="M393 565c0 -8.66699 -1.83203 -13.833 -5.49902 -15.5s-9.16699 -2.5 -16.5 -2.5h-212c-6 0 -11.167 1 -15.5 3s-6.5 7 -6.5 15v51c0 14.667 8 22 24 22h208c9.33301 0 15.666 -1.5 18.999 -4.5s5 -8.5 5 -16.5v-52v0z" />
    <glyph glyph-name="degree" unicode="&#xb0;" horiz-adv-x="339" 
d="M309 517c0 -17.333 -3.66699 -33.5 -11 -48.5s-17.333 -28 -30 -39s-27.5 -19.833 -44.5 -26.5s-35.167 -10 -54.5 -10s-37.166 3.33301 -53.499 10s-30.5 15.667 -42.5 27s-21.5 24.5 -28.5 39.5s-10.5 30.833 -10.5 47.5s3.5 32.667 10.5 48s16.5 28.5 28.5 39.5
s26.167 19.833 42.5 26.5s34.166 10 53.499 10s37.5 -3.33301 54.5 -10s31.833 -15.5 44.5 -26.5s22.667 -24.167 30 -39.5s11 -31.333 11 -48zM221 517c0 13.333 -5.33301 24.667 -16 34s-22.667 14 -36 14s-24.833 -4.5 -34.5 -13.5s-14.5 -20.5 -14.5 -34.5
c0 -13.333 4.83301 -24.666 14.5 -33.999s21.167 -14 34.5 -14s25.333 4.66699 36 14s16 20.666 16 33.999z" />
    <glyph glyph-name="plusminus" unicode="&#xb1;" horiz-adv-x="519" 
d="M41 19c-6 0 -11.166 2.33301 -15.499 7s-6.5 11 -6.5 19v43c0 8 2.5 14.333 7.5 19s11.5 7 19.5 7h427c7.33301 0 13.666 -2.5 18.999 -7.5s8 -11.167 8 -18.5v-43c0 -8 -2.5 -14.333 -7.5 -19s-11.5 -7 -19.5 -7h-432zM475.001 414c8 0 14.167 -2.33398 18.5 -7.00098
s6.5 -10.667 6.5 -18v-43c0 -16.667 -8.33301 -25 -25 -25h-145c-9.33301 0 -15 -1.66699 -17 -5s-3 -7.66602 -3 -12.999v-139c0 -7.33301 -2.5 -13 -7.5 -17s-11.5 -6 -19.5 -6h-55c-8 0 -14.5 2 -19.5 6s-7.5 9.66699 -7.5 17v142c0 10 -7.66699 15 -23 15h-134
c-16.667 0 -25 8.33301 -25 25v43c0 16.667 8.33301 25 25 25h139c6 0 10.5 1 13.5 3s4.5 6.66699 4.5 14v141c0 7.33301 2.5 13 7.5 17s11.5 6 19.5 6h55c8 0 14.5 -2 19.5 -6s7.5 -9.66699 7.5 -17v-136c0 -8.66699 1 -14.5 3 -17.5s7.66699 -4.5 17 -4.5h145z" />
    <glyph glyph-name="twosuperior" unicode="&#xb2;" horiz-adv-x="316" 
d="M290 353c0 -5.33301 -1.83301 -9.50098 -5.5 -12.501s-7.83398 -4.5 -12.501 -4.5h-231c-3.33301 0 -6.66602 1 -9.99902 3s-5 6 -5 12v37c0 6 0.5 11.333 1.5 16s4.5 10.667 10.5 18l104 119c15.333 17.333 26.833 31 34.5 41s11.5 18.667 11.5 26c0 8 -3 14.333 -9 19
s-13.667 7 -23 7c-11.333 0 -21 -3.16699 -29 -9.5s-15 -12.5 -21 -18.5c-4.66699 -5.33301 -10.334 -8.16602 -17.001 -8.49902s-12.667 1.83398 -18 6.50098l-31 28c-6 5.33301 -9.33301 10 -10 14s1.66602 9 6.99902 15c16.667 20.667 35.834 35.334 57.501 44.001
s43.834 13 66.501 13c17.333 0 33.833 -2 49.5 -6s29.5 -10.333 41.5 -19s21.5 -19.334 28.5 -32.001s10.5 -27.667 10.5 -45c0 -20.667 -5.83301 -39.834 -17.5 -57.501s-26.167 -36.167 -43.5 -55.5l-63 -72c-4 -4 -5.16699 -7 -3.5 -9s3.5 -3 5.5 -3h102
c6.66699 0 11.5 -1.83301 14.5 -5.5s4.5 -7.5 4.5 -11.5v-49v0z" />
    <glyph glyph-name="threesuperior" unicode="&#xb3;" horiz-adv-x="316" 
d="M194 464c0 8 -2.99805 15.332 -8.99805 21.999s-15 10 -27 10h-41c-12.667 0 -19 6.33301 -19 19v43c0 12 6.33301 18 19 18h41c12 0 21.167 3.5 27.5 10.5s9.5 13.5 9.5 19.5c0 8 -3.5 15 -10.5 21s-16.5 9 -28.5 9c-8 0 -16.333 -1.83301 -25 -5.5
s-15.334 -9.5 -20.001 -17.5c-8.66699 -12.667 -19.334 -15.667 -32.001 -9l-40 20c-6 3.33301 -9.5 7.5 -10.5 12.5s1.16699 11.833 6.5 20.5c12.667 20.667 30.167 36 52.5 46s46.5 15 72.5 15c38 0 69.833 -8.83301 95.5 -26.5s38.5 -44.834 38.5 -81.501
c0 -11.333 -3.5 -23.333 -10.5 -36s-17.167 -22.667 -30.5 -30c-1.33301 -1.33301 -2.33301 -2.66602 -3 -3.99902s0.333008 -2.66602 3 -3.99902c14.667 -5.33301 25.167 -14 31.5 -26s9.5 -24.333 9.5 -37v-26c0 -36 -12.5 -64.167 -37.5 -84.5s-57.833 -30.5 -98.5 -30.5
c-28 0 -53 4.66699 -75 14s-41 27.333 -57 54c-6.66699 12.667 -4 21.334 8 26.001l48 21c6 3.33301 11 4.66602 15 3.99902s8 -3.66699 12 -9c10 -17.333 24.667 -26 44 -26c12.667 0 22.667 2.66699 30 8s11 12 11 20v20z" />
    <glyph glyph-name="acute" unicode="&#xb4;" horiz-adv-x="471" 
d="M237 490c-4 -4 -8.49902 -5.66602 -13.499 -4.99902s-10.167 2.33398 -15.5 5.00098l-38 21c-6 3.33301 -9.33301 7.16602 -10 11.499s0.333008 8.83301 3 13.5l97 158c4 6 8.83301 9.33301 14.5 10s10.5 0 14.5 -2l76 -37c8.66699 -4 12.167 -9.33301 10.5 -16
s-3.83398 -11.334 -6.50098 -14.001z" />
    <glyph glyph-name="mu" unicode="&#xb5;" horiz-adv-x="490" 
d="M435 21c0 -14 -7.33398 -20.9971 -22.001 -20.9971h-93c-6 0 -11.167 1.66699 -15.5 5s-6.5 8.66602 -6.5 15.999v2c0 1.33301 -0.5 2.66602 -1.5 3.99902s-3.16699 0.333008 -6.5 -3c-8 -9.33301 -18.667 -16.666 -32 -21.999s-25.333 -8 -36 -8
c-5.33301 0 -10.833 0.666992 -16.5 2s-11.167 3.66602 -16.5 6.99902c-3.33301 2 -5.66602 2 -6.99902 0s-2 -4 -2 -6v-157c0 -14 -7.66699 -21 -23 -21h-93c-14.667 0 -22 7 -22 21v589c0 14 7 21 21 21h95c6.66699 0 12.167 -1.83301 16.5 -5.5s6.5 -8.83398 6.5 -15.501
v-259c0 -15.333 5.33301 -28.333 16 -39s24.667 -16 42 -16s31.5 5.33301 42.5 16s16.5 23.667 16.5 39v259c0 14 7.33301 21 22 21h93c14.667 0 22 -7 22 -21v-408v0z" />
    <glyph glyph-name="mu" unicode="&#x3bc;" horiz-adv-x="490" 
d="M435 21c0 -14 -7.33398 -20.9971 -22.001 -20.9971h-93c-6 0 -11.167 1.66699 -15.5 5s-6.5 8.66602 -6.5 15.999v2c0 1.33301 -0.5 2.66602 -1.5 3.99902s-3.16699 0.333008 -6.5 -3c-8 -9.33301 -18.667 -16.666 -32 -21.999s-25.333 -8 -36 -8
c-5.33301 0 -10.833 0.666992 -16.5 2s-11.167 3.66602 -16.5 6.99902c-3.33301 2 -5.66602 2 -6.99902 0s-2 -4 -2 -6v-157c0 -14 -7.66699 -21 -23 -21h-93c-14.667 0 -22 7 -22 21v589c0 14 7 21 21 21h95c6.66699 0 12.167 -1.83301 16.5 -5.5s6.5 -8.83398 6.5 -15.501
v-259c0 -15.333 5.33301 -28.333 16 -39s24.667 -16 42 -16s31.5 5.33301 42.5 16s16.5 23.667 16.5 39v259c0 14 7.33301 21 22 21h93c14.667 0 22 -7 22 -21v-408v0z" />
    <glyph glyph-name="paragraph" unicode="&#xb6;" horiz-adv-x="583" 
d="M513 77c0 -36.667 -6.33496 -67.334 -19.002 -92.001s-29.834 -44.667 -51.501 -60s-46.667 -26.666 -75 -33.999s-58.166 -12 -89.499 -14c-5.33301 0 -9.83301 1 -13.5 3s-6.16699 7 -7.5 15l-13 83c-1.33301 5.33301 -0.666016 10.333 2.00098 15
s7.33398 7.66699 14.001 9c42 5.33301 70.667 16 86 32s23 38.333 23 67v519c0 12.667 6.33301 19 19 19h105c13.333 0 20 -6.33301 20 -19v-543zM230.998 278c-26.667 0 -51 4.66602 -73 13.999s-41 22 -57 38s-28.5 34.833 -37.5 56.5s-13.5 45.167 -13.5 70.5
c0 24.667 4.5 48 13.5 70s21.667 41.333 38 58s35.5 29.834 57.5 39.501s46 14.5 72 14.5h72c13.333 0 20 -6.66699 20 -20v-321c0 -13.333 -6.66699 -20 -20 -20h-72z" />
    <glyph glyph-name="periodcentered" unicode="&#xb7;" horiz-adv-x="244" 
d="M123 165c-22 0 -40.666 7.50195 -55.999 22.502s-23 32.5 -23 52.5c0 21.333 7.83301 39.166 23.5 53.499s34.167 21.5 55.5 21.5s39.666 -7.33301 54.999 -22s23 -32.334 23 -53.001c0 -10 -2.16699 -19.5 -6.5 -28.5s-10 -17 -17 -24s-15.167 -12.5 -24.5 -16.5
s-19.333 -6 -30 -6z" />
    <glyph glyph-name="cedilla" unicode="&#xb8;" horiz-adv-x="416" 
d="M331 -115c0 -10 -2 -20.499 -6 -31.499s-10.333 -21 -19 -30s-20.167 -16.333 -34.5 -22s-31.833 -8.5 -52.5 -8.5c-17.333 0 -33 2.33301 -47 7s-26.667 11 -38 19c-3.33301 2.66699 -6 5.33398 -8 8.00098s-0.666992 6.66699 4 12l24 27c4.66699 5.33301 8 8 10 8
s5 -1.33301 9 -4c6 -3.33301 12.833 -6.5 20.5 -9.5s15.5 -4.5 23.5 -4.5c16 0 27.167 3 33.5 9s9.5 12.333 9.5 19c0 3.33301 -1.5 8.16602 -4.5 14.499s-11.167 9.5 -24.5 9.5h-35c-11.333 -0.666992 -20.833 2.83301 -28.5 10.5s-10.167 17.167 -7.5 28.5l20 75
c1.33301 3.33301 3 6.83301 5 10.5s5.66699 5.5 11 5.5h35c7.33301 0 11.5 -1.83301 12.5 -5.5s0.833008 -8.83398 -0.5 -15.501l-11 -43c-1.33301 -2 -0.333008 -3 3 -3h7c24 0 44.833 -7.5 62.5 -22.5s26.5 -36.167 26.5 -63.5z" />
    <glyph glyph-name="onesuperior" unicode="&#xb9;" horiz-adv-x="291" 
d="M79 585c-18 -10 -27 -5.66797 -27 12.999v44c0 6 0.5 10.833 1.5 14.5s5.16699 7.83398 12.5 12.501l65 39c3.33301 1.33301 6.5 2.5 9.5 3.5s6.83301 1.5 11.5 1.5h49c12.667 0 19 -6 19 -18v-341c0 -12 -6.33301 -18 -19 -18h-61c-14 0 -21 6 -21 18v239
c0 6 -4 7.66699 -12 5l-28 -13v0z" />
    <glyph glyph-name="ordmasculine" unicode="&#xba;" horiz-adv-x="336" 
d="M307 359c0 -19.333 -3.83008 -36.167 -11.4971 -50.5s-17.834 -26.333 -30.501 -36s-27.334 -17 -44.001 -22s-34.334 -7.5 -53.001 -7.5c-19.333 0 -37.333 2.66699 -54 8s-31.334 13 -44.001 23s-22.667 21.833 -30 35.5s-11 29.167 -11 46.5v79
c0 16.667 3.5 32.167 10.5 46.5s16.667 26.666 29 36.999s27 18.333 44 24s35.5 8.5 55.5 8.5c18 0 35.5 -2.5 52.5 -7.5s31.833 -12.333 44.5 -22s22.834 -21.667 30.501 -36s11.5 -31.166 11.5 -50.499v-76zM202.003 432.999c0 9.33301 -3.33203 16.332 -9.99902 20.999
s-15 7 -25 7c-9.33301 0 -17.5 -2.66699 -24.5 -8s-10.5 -12.666 -10.5 -21.999v-71c0 -9.33301 3.66699 -16.5 11 -21.5s15.666 -7.5 24.999 -7.5s17.333 2.5 24 7.5s10 12.167 10 21.5v73z" />
    <glyph glyph-name="guillemotright" unicode="&#xbb;" horiz-adv-x="617" 
d="M431 39c-4 -4.66699 -8.66699 -9.00098 -14 -13.001s-13.666 -6 -24.999 -6h-82c-11.333 0 -18.833 3.5 -22.5 10.5s-1.83398 14.5 5.49902 22.5l117 139c4 4.66699 6 8.33398 6 11.001s-1.66699 6 -5 10l-116 137c-6.66699 7.33301 -8.16699 14.833 -4.5 22.5
s10.167 11.5 19.5 11.5h81c10 0 17.833 -1.5 23.5 -4.5s11.834 -8.5 18.501 -16.5l113 -134c8.66699 -10 12.667 -19.167 12 -27.5s-4.33398 -16.5 -11.001 -24.5zM211 38.999c-4 -4.66699 -8.50098 -9.00098 -13.501 -13.001s-13.167 -6 -24.5 -6h-83
c-11.333 0 -18.833 3.5 -22.5 10.5s-1.83398 14.5 5.49902 22.5l117 139c4 4.66699 6 8.33398 6 11.001s-1.66699 6 -5 10l-116 137c-6.66699 7.33301 -8.16699 14.833 -4.5 22.5s10.167 11.5 19.5 11.5h82c9.33301 0 16.833 -1.5 22.5 -4.5s11.834 -8.5 18.501 -16.5
l114 -134c8 -10 11.833 -19.167 11.5 -27.5s-4.16602 -16.5 -11.499 -24.5z" />
    <glyph glyph-name="onequarter" unicode="&#xbc;" horiz-adv-x="780" 
d="M94 495c-18 -10 -27 -5.66797 -27 12.999v44c0 6 0.5 10.833 1.5 14.5s5.16699 7.83398 12.5 12.501l65 39c3.33301 1.33301 6.5 2.5 9.5 3.5s6.83301 1.5 11.5 1.5h49c12.667 0 19 -6 19 -18v-341c0 -12 -6.33301 -18 -19 -18h-61c-14 0 -21 6 -21 18v239
c0 6 -4 7.66699 -12 5zM242 -19.001c-3.33301 -7.33301 -9.33301 -11 -18 -11h-46c-10 0 -16.167 2.83301 -18.5 8.5s-2.16602 11.5 0.500977 17.5l289 638c4 8.66699 11.667 13 23 13h42c10 0 16.167 -2.83301 18.5 -8.5s2.16602 -11.5 -0.500977 -17.5zM402 76.999
c-13.333 0 -19.999 6 -19.999 18v37c0 5.33301 0.5 10.5 1.5 15.5s3.5 11.5 7.5 19.5l108 194c4 7.33301 8.16699 11.833 12.5 13.5s10.166 2.5 17.499 2.5h64c5.33301 0 9.5 -1 12.5 -3s2.5 -6.66699 -1.5 -14l-106 -192c-2 -3.33301 -2.33301 -5.33301 -1 -6s3 -1 5 -1h39
c1.33301 0 3 0.333008 5 1s3 3 3 7v41c0 8.66699 2 13.5 6 14.5s7.66699 1.5 11 1.5h64c6.66699 0 11.167 -1 13.5 -3s3.5 -6.66699 3.5 -14v-41c0 -4.66699 2.66699 -7 8 -7h25c6.66699 0 11.167 -0.833008 13.5 -2.5s3.5 -5.5 3.5 -11.5v-53
c0 -4.66699 -0.666992 -8.66699 -2 -12s-5.33301 -5 -12 -5h-29c-4.66699 0 -7 -2.66699 -7 -8v-51c0 -12 -5.66699 -18 -17 -18h-65c-6.66699 0 -11 1.5 -13 4.5s-3 7.5 -3 13.5v50c0 4 -1 6.5 -3 7.5s-4.33301 1.5 -7 1.5h-137z" />
    <glyph glyph-name="onehalf" unicode="&#xbd;" horiz-adv-x="780" 
d="M96 495c-18 -10 -27 -5.66797 -27 12.999v44c0 6 0.5 10.833 1.5 14.5s5.16699 7.83398 12.5 12.501l65 39c3.33301 1.33301 6.5 2.5 9.5 3.5s6.83301 1.5 11.5 1.5h49c12.667 0 19 -6 19 -18v-341c0 -12 -6.33301 -18 -19 -18h-61c-14 0 -21 6 -21 18v239
c0 6 -4 7.66699 -12 5zM243 -19.001c-3.33301 -7.33301 -9.33301 -11 -18 -11h-46c-10 0 -16.167 2.83301 -18.5 8.5s-2.16602 11.5 0.500977 17.5l289 638c4 8.66699 11.667 13 23 13h42c10 0 16.167 -2.83301 18.5 -8.5s2.16602 -11.5 -0.500977 -17.5zM701 16.999
c0 -5.33301 -1.66797 -9.49707 -5.00098 -12.4971s-7.33301 -4.5 -12 -4.5h-231c-4 0 -7.5 1 -10.5 3s-4.5 6 -4.5 12v38c0 6 0.5 11.167 1.5 15.5s4.5 10.166 10.5 17.499l104 119c15.333 17.333 26.666 31 33.999 41s11 18.667 11 26c0 8 -3 14.667 -9 20s-13.333 8 -22 8
c-11.333 0 -21 -2.66699 -29 -8s-15 -11 -21 -17c-5.33301 -4.66699 -11.166 -7.33398 -17.499 -8.00098s-12.5 1.33301 -18.5 6l-30 24c-6 5.33301 -9.16699 9.83301 -9.5 13.5s2.16699 8.5 7.5 14.5c16 20.667 34.833 35.5 56.5 44.5s43.5 13.5 65.5 13.5
c17.333 0 33.666 -2.16699 48.999 -6.5s28.833 -10.666 40.5 -18.999s20.834 -19 27.501 -32s10 -27.833 10 -44.5c0 -20.667 -6 -39.834 -18 -57.501s-26.667 -36.167 -44 -55.5l-63 -72c-3.33301 -4.66699 -4.33301 -7.83398 -3 -9.50098s3.33301 -2.5 6 -2.5h106
c6.66699 0 11.334 -2 14.001 -6s4 -7.66699 4 -11v-50z" />
    <glyph glyph-name="threequarters" unicode="&#xbe;" horiz-adv-x="780" 
d="M432 77c-13.333 0 -19.999 6 -19.999 18v37c0 5.33301 0.5 10.5 1.5 15.5s3.5 11.5 7.5 19.5l108 194c4 7.33301 8.16699 11.833 12.5 13.5s10.166 2.5 17.499 2.5h64c5.33301 0 9.5 -1 12.5 -3s2.5 -6.66699 -1.5 -14l-106 -192c-2 -3.33301 -2.33301 -5.33301 -1 -6
s3 -1 5 -1h39c1.33301 0 3 0.333008 5 1s3 3 3 7v41c0 8.66699 2 13.5 6 14.5s7.66699 1.5 11 1.5h64c6.66699 0 11.167 -1 13.5 -3s3.5 -6.66699 3.5 -14v-41c0 -4.66699 2.66699 -7 8 -7h25c6.66699 0 11.167 -0.833008 13.5 -2.5s3.5 -5.5 3.5 -11.5v-53
c0 -4.66699 -0.666992 -8.66699 -2 -12s-5.33301 -5 -12 -5h-29c-4.66699 0 -7 -2.66699 -7 -8v-51c0 -12 -5.66699 -18 -17 -18h-65c-6.66699 0 -11 1.5 -13 4.5s-3 7.5 -3 13.5v50c0 4 -1 6.5 -3 7.5s-4.33301 1.5 -7 1.5h-137zM193.001 374
c0 8 -2.99805 15.332 -8.99805 21.999s-15 10 -27 10h-41c-12.667 0 -19 6.33301 -19 19v43c0 12 6.33301 18 19 18h41c12 0 21.167 3.5 27.5 10.5s9.5 13.5 9.5 19.5c0 8 -3.5 15 -10.5 21s-16.5 9 -28.5 9c-8 0 -16.333 -1.83301 -25 -5.5s-15.334 -9.5 -20.001 -17.5
c-8.66699 -12.667 -19.334 -15.667 -32.001 -9l-40 20c-6 3.33301 -9.5 7.5 -10.5 12.5s1.16699 11.833 6.5 20.5c12.667 20.667 30.167 36 52.5 46s46.5 15 72.5 15c38 0 69.833 -8.83301 95.5 -26.5s38.5 -44.834 38.5 -81.501c0 -11.333 -3.5 -23.333 -10.5 -36
s-17.167 -22.667 -30.5 -30c-1.33301 -1.33301 -2.33301 -2.66602 -3 -3.99902s0.333008 -2.66602 3 -3.99902c14.667 -5.33301 25.167 -14 31.5 -26s9.5 -24.333 9.5 -37v-26c0 -36 -12.5 -64.167 -37.5 -84.5s-57.833 -30.5 -98.5 -30.5c-28 0 -53 4.66699 -75 14
s-41 27.333 -57 54c-6.66699 12.667 -4 21.334 8 26.001l48 21c6 3.33301 11 4.66602 15 3.99902s8 -3.66699 12 -9c10 -17.333 24.667 -26 44 -26c12.667 0 22.667 2.66699 30 8s11 12 11 20v20zM273.003 -19.001c-3.33301 -7.33301 -9.33301 -11 -18 -11h-46
c-10 0 -16.167 2.83301 -18.5 8.5s-2.16602 11.5 0.500977 17.5l289 638c4 8.66699 11.667 13 23 13h42c10 0 16.167 -2.83301 18.5 -8.5s2.16602 -11.5 -0.500977 -17.5z" />
    <glyph glyph-name="questiondown" unicode="&#xbf;" horiz-adv-x="519" 
d="M185 147l28.4961 17.0029c10.333 6 19.833 12.667 28.5 20s15.834 15.5 21.501 24.5s8.5 19.167 8.5 30.5c0 5.33301 1.33301 10.166 4 14.499s8.66699 6.5 18 6.5h91c9.33301 0 15.833 -1.66699 19.5 -5s5.5 -10 5.5 -20v-21c0 -26.667 -8.16699 -52 -24.5 -76
s-39.5 -45.667 -69.5 -65l-27.5 -17.5c-9.66699 -6.33301 -18.5 -12.833 -26.5 -19.5s-14.5 -13.667 -19.5 -21s-7.5 -15 -7.5 -23c0 -20 5.66699 -33.667 17 -41s25 -11 41 -11c12 0 22.167 1.66699 30.5 5s15.333 7.16602 21 11.499s10.334 9 14.001 14
s6.83398 9.5 9.50098 13.5c3.33301 5.33301 8 9.33301 14 12s12.667 2 20 -2l63 -39c7.33301 -4.66699 11.333 -9.83398 12 -15.501s-1.66602 -12.834 -6.99902 -21.501c-12 -20 -24.5 -36.5 -37.5 -49.5s-27 -23.167 -42 -30.5s-31.333 -12.5 -49 -15.5
s-37.167 -4.5 -58.5 -4.5c-62.667 0 -111.167 15.333 -145.5 46s-51.5 73 -51.5 127c0 17.333 3.33301 34 10 50s15 30.833 25 44.5s20.833 25.834 32.5 36.501s22.167 19 31.5 25zM343.996 451.003c22 0 40.667 -7.5 56 -22.5s23 -32.5 23 -52.5
c0 -21.333 -7.83301 -39.166 -23.5 -53.499s-34.167 -21.5 -55.5 -21.5s-39.666 7.16699 -54.999 21.5s-23 32.166 -23 53.499c0 20 7.66699 37.5 23 52.5s33.666 22.5 54.999 22.5z" />
    <glyph glyph-name="Agrave" unicode="&#xc0;" horiz-adv-x="507" 
d="M496 25c1.33301 -4 1.16699 -9.16602 -0.5 -15.499s-8.5 -9.5 -20.5 -9.5h-101c-6 0 -11.333 1.5 -16 4.5s-7.66699 7.5 -9 13.5l-15 71c-2 9.33301 -4.33301 15.5 -7 18.5s-7.33398 4.5 -14.001 4.5h-119c-8.66699 0 -13.834 -2 -15.501 -6s-3.5 -9 -5.5 -15l-15 -73
c-1.33301 -6.66699 -4.66602 -11.334 -9.99902 -14.001s-10.333 -4 -15 -4h-100c-6.66699 -0 -11.667 0.833008 -15 2.5s-5.5 3.66699 -6.5 6s-1.16699 5 -0.5 8s1.33398 5.83301 2.00098 8.5l144 576c4 11.333 12.333 17 25 17h142c5.33301 0 10.333 -0.666992 15 -2
s8 -6.33301 10 -15zM276.001 342.001l-20 103.001c-0.666992 3.33301 -2 5.16602 -4 5.49902s-3.33301 -1.5 -4 -5.5l-19 -103l-19 -102c-0.666992 -6.66699 2.66602 -10 9.99902 -10h69c3.33301 0 5.83301 0.833008 7.5 2.5s1.83398 5.16699 0.500977 10.5zM77.001 728.002
c-1.33301 0.666992 -3.16602 2.00195 -5.49902 4.00195s-4.16602 4.16699 -5.49902 6.5s-1.83301 5.16602 -1.5 8.49902s2.16602 6.66602 5.49902 9.99902l58 62c3.33301 3.33301 7.66602 5.83301 12.999 7.5s11 0.166992 17 -4.5l147 -113c9.33301 -8 10 -16.667 2 -26
l-28 -33c-3.33301 -4 -7.33301 -7.33301 -12 -10s-9.66699 -2.66699 -15 0z" />
    <glyph glyph-name="Aacute" unicode="&#xc1;" horiz-adv-x="507" 
d="M496 25c1.33301 -4 1.16699 -9.16602 -0.5 -15.499s-8.5 -9.5 -20.5 -9.5h-101c-6 0 -11.333 1.5 -16 4.5s-7.66699 7.5 -9 13.5l-15 71c-2 9.33301 -4.33301 15.5 -7 18.5s-7.33398 4.5 -14.001 4.5h-119c-8.66699 0 -13.834 -2 -15.501 -6s-3.5 -9 -5.5 -15l-15 -73
c-1.33301 -6.66699 -4.66602 -11.334 -9.99902 -14.001s-10.333 -4 -15 -4h-100c-6.66699 -0 -11.667 0.833008 -15 2.5s-5.5 3.66699 -6.5 6s-1.16699 5 -0.5 8s1.33398 5.83301 2.00098 8.5l144 576c4 11.333 12.333 17 25 17h142c5.33301 0 10.333 -0.666992 15 -2
s8 -6.33301 10 -15zM276.001 342.001l-20 103.001c-0.666992 3.33301 -2 5.16602 -4 5.49902s-3.33301 -1.5 -4 -5.5l-19 -103l-19 -102c-0.666992 -6.66699 2.66602 -10 9.99902 -10h69c3.33301 0 5.83301 0.833008 7.5 2.5s1.83398 5.16699 0.500977 10.5z
M238.001 640.002c-5.33301 -2.66699 -10.333 -2.66895 -15 -0.00195312s-8.66699 6 -12 10l-28 33c-8 9.33301 -7.33301 18 2 26l147 113c6 4.66699 11.667 6.16699 17 4.5s9.66602 -4.16699 12.999 -7.5l58 -62c3.33301 -3.33301 5.16602 -6.66602 5.49902 -9.99902
s-0.166992 -6.16602 -1.5 -8.49902s-3.16602 -4.5 -5.49902 -6.5s-4.16602 -3.33301 -5.49902 -4z" />
    <glyph glyph-name="Acircumflex" unicode="&#xc2;" horiz-adv-x="507" 
d="M496 25c1.33301 -4 1.16699 -9.16602 -0.5 -15.499s-8.5 -9.5 -20.5 -9.5h-101c-6 0 -11.333 1.5 -16 4.5s-7.66699 7.5 -9 13.5l-15 71c-2 9.33301 -4.33301 15.5 -7 18.5s-7.33398 4.5 -14.001 4.5h-119c-8.66699 0 -13.834 -2 -15.501 -6s-3.5 -9 -5.5 -15l-15 -73
c-1.33301 -6.66699 -4.66602 -11.334 -9.99902 -14.001s-10.333 -4 -15 -4h-100c-6.66699 -0 -11.667 0.833008 -15 2.5s-5.5 3.66699 -6.5 6s-1.16699 5 -0.5 8s1.33398 5.83301 2.00098 8.5l144 576c4 11.333 12.333 17 25 17h142c5.33301 0 10.333 -0.666992 15 -2
s8 -6.33301 10 -15zM276.001 342.001l-20 103.001c-0.666992 3.33301 -2 5.16602 -4 5.49902s-3.33301 -1.5 -4 -5.5l-19 -103l-19 -102c-0.666992 -6.66699 2.66602 -10 9.99902 -10h69c3.33301 0 5.83301 0.833008 7.5 2.5s1.83398 5.16699 0.500977 10.5z
M421.001 682.002c2.66699 -3.33301 4.5 -7 5.5 -11s-1.16699 -7 -6.5 -9l-50 -20c-5.33301 -2.66699 -9.5 -3.83398 -12.5 -3.50098s-6.16699 2.16602 -9.5 5.49902l-97 91c-1.33301 1.33301 -3.33301 2.16602 -6 2.49902s-4.66699 -0.166992 -6 -1.5l-97 -93
c-3.33301 -3.33301 -6.5 -5.16602 -9.5 -5.49902s-7.16699 0.833984 -12.5 3.50098l-47 21c-5.33301 2.66699 -7.5 5.83398 -6.5 9.50098s2.83301 7.16699 5.5 10.5l103 135c3.33301 3.33301 6.5 5.83301 9.5 7.5s7.16699 2.5 12.5 2.5h100
c5.33301 0 9.5 -0.833008 12.5 -2.5s6.16699 -4.16699 9.5 -7.5z" />
    <glyph glyph-name="Atilde" unicode="&#xc3;" horiz-adv-x="507" 
d="M496 25c1.33301 -4 1.16699 -9.16602 -0.5 -15.499s-8.5 -9.5 -20.5 -9.5h-101c-6 0 -11.333 1.5 -16 4.5s-7.66699 7.5 -9 13.5l-15 71c-2 9.33301 -4.33301 15.5 -7 18.5s-7.33398 4.5 -14.001 4.5h-119c-8.66699 0 -13.834 -2 -15.501 -6s-3.5 -9 -5.5 -15l-15 -73
c-1.33301 -6.66699 -4.66602 -11.334 -9.99902 -14.001s-10.333 -4 -15 -4h-100c-6.66699 -0 -11.667 0.833008 -15 2.5s-5.5 3.66699 -6.5 6s-1.16699 5 -0.5 8s1.33398 5.83301 2.00098 8.5l144 576c4 11.333 12.333 17 25 17h142c5.33301 0 10.333 -0.666992 15 -2
s8 -6.33301 10 -15zM276.001 342.001l-20 103.001c-0.666992 3.33301 -2 5.16602 -4 5.49902s-3.33301 -1.5 -4 -5.5l-19 -103l-19 -102c-0.666992 -6.66699 2.66602 -10 9.99902 -10h69c3.33301 0 5.83301 0.833008 7.5 2.5s1.83398 5.16699 0.500977 10.5z
M187.001 787.002c11.333 0 22.3281 -1.66797 32.9951 -5.00098s20.834 -7.16602 30.501 -11.499l28 -12c9 -3.66699 17.5 -5.5 25.5 -5.5c8.66699 0 16.5 2 23.5 6s14.167 10.667 21.5 20c2.66699 4 6.33398 6 11.001 6c2.66699 0 6 -1 10 -3l41 -25
c7.33301 -4 11 -8 11 -12c0 -1.33301 -0.666992 -4 -2 -8c-16 -32 -32.667 -53.667 -50 -65s-35.333 -17 -54 -17c-9.33301 0 -19.166 1.66699 -29.499 5s-20.666 7 -30.999 11s-20.5 7.66699 -30.5 11s-19.333 5 -28 5c-6.66699 0 -14 -1.33301 -22 -4
s-16.667 -9.66699 -26 -21c-3.33301 -5.33301 -6.66602 -8 -9.99902 -8c-2 0 -5 1 -9 3l-45 27c-4 2 -6 5 -6 9c0 1.33301 0.666992 4 2 8c14 33.333 30.5 56 49.5 68s37.833 18 56.5 18z" />
    <glyph glyph-name="Adieresis" unicode="&#xc4;" horiz-adv-x="507" 
d="M496 25c1.33301 -4 1.16699 -9.16602 -0.5 -15.499s-8.5 -9.5 -20.5 -9.5h-101c-6 0 -11.333 1.5 -16 4.5s-7.66699 7.5 -9 13.5l-15 71c-2 9.33301 -4.33301 15.5 -7 18.5s-7.33398 4.5 -14.001 4.5h-119c-8.66699 0 -13.834 -2 -15.501 -6s-3.5 -9 -5.5 -15l-15 -73
c-1.33301 -6.66699 -4.66602 -11.334 -9.99902 -14.001s-10.333 -4 -15 -4h-100c-6.66699 -0 -11.667 0.833008 -15 2.5s-5.5 3.66699 -6.5 6s-1.16699 5 -0.5 8s1.33398 5.83301 2.00098 8.5l144 576c4 11.333 12.333 17 25 17h142c5.33301 0 10.333 -0.666992 15 -2
s8 -6.33301 10 -15zM276.001 342.001l-20 103.001c-0.666992 3.33301 -2 5.16602 -4 5.49902s-3.33301 -1.5 -4 -5.5l-19 -103l-19 -102c-0.666992 -6.66699 2.66602 -10 9.99902 -10h69c3.33301 0 5.83301 0.833008 7.5 2.5s1.83398 5.16699 0.500977 10.5z
M415.001 718.002c0 -20 -7 -36.667 -21 -50s-31.333 -20 -52 -20c-21.333 0 -39 6.5 -53 19.5s-21 29.833 -21 50.5c0 19.333 7 35.833 21 49.5s31.667 20.5 53 20.5c20.667 0 38 -6.83301 52 -20.5s21 -30.167 21 -49.5zM226.001 718.002c0 -20 -7 -36.667 -21 -50
s-31.667 -20 -53 -20s-38.833 6.5 -52.5 19.5s-20.5 29.833 -20.5 50.5c0 19.333 7 35.833 21 49.5s31.333 20.5 52 20.5c21.333 0 39 -6.83301 53 -20.5s21 -30.167 21 -49.5z" />
    <glyph glyph-name="Aring" unicode="&#xc5;" horiz-adv-x="507" 
d="M496 25c1.33301 -4 1.16699 -9.16602 -0.5 -15.499s-8.5 -9.5 -20.5 -9.5h-101c-6 0 -11.333 1.5 -16 4.5s-7.66699 7.5 -9 13.5l-15 71c-2 9.33301 -4.33301 15.5 -7 18.5s-7.33398 4.5 -14.001 4.5h-119c-8.66699 0 -13.834 -2 -15.501 -6s-3.5 -9 -5.5 -15l-15 -73
c-1.33301 -6.66699 -4.66602 -11.334 -9.99902 -14.001s-10.333 -4 -15 -4h-100c-6.66699 -0 -11.667 0.833008 -15 2.5s-5.5 3.66699 -6.5 6s-1.16699 5 -0.5 8s1.33398 5.83301 2.00098 8.5l144 576c4 11.333 12.333 17 25 17h142c5.33301 0 10.333 -0.666992 15 -2
s8 -6.33301 10 -15zM276.001 342.001l-20 103.001c-0.666992 3.33301 -2 5.16602 -4 5.49902s-3.33301 -1.5 -4 -5.5l-19 -103l-19 -102c-0.666992 -6.66699 2.66602 -10 9.99902 -10h69c3.33301 0 5.83301 0.833008 7.5 2.5s1.83398 5.16699 0.500977 10.5z
M339.001 732.002c0 -12.667 -2.5 -24.499 -7.5 -35.499s-11.833 -20.5 -20.5 -28.5s-18.834 -14.333 -30.501 -19s-23.834 -7 -36.501 -7c-26 0 -47.667 8.66699 -65 26s-26 38.666 -26 63.999c0 24.667 8.5 46 25.5 64s38.833 27 65.5 27
c12.667 0 24.834 -2.33301 36.501 -7s21.834 -11.167 30.501 -19.5s15.5 -18 20.5 -29s7.5 -22.833 7.5 -35.5zM278.001 732.003c0 8.66699 -3.33301 16.332 -10 22.999s-14.667 10 -24 10c-8.66699 0 -16 -3.16699 -22 -9.5s-9 -14.166 -9 -23.499s3 -17 9 -23
s13.333 -9 22 -9c9.33301 0 17.333 3 24 9s10 13.667 10 23z" />
    <glyph glyph-name="AE" unicode="&#xc6;" horiz-adv-x="789" 
d="M736 128c6.66699 0 11.5 -1.50195 14.5 -4.50195s4.5 -8.5 4.5 -16.5v-88c0 -7.33301 -1.33301 -12.333 -4 -15s-7.66699 -4 -15 -4h-358c-8 0 -14.167 1.33301 -18.5 4s-6.5 7.66699 -6.5 15v89c0 5.33301 -0.666992 10.166 -2 14.499s-6.33301 6.5 -15 6.5h-130
c-9.33301 0 -15.833 -1.83301 -19.5 -5.5s-6.5 -8.83398 -8.5 -15.501l-35 -90c-2.66699 -7.33301 -6.66699 -12.166 -12 -14.499s-10.333 -3.5 -15 -3.5h-97c-11.333 0 -17.333 2.83301 -18 8.5s-0.333984 11.167 0.999023 16.5l230 576c2.66699 6 6.5 10.333 11.5 13
s10.167 4 15.5 4h468c6.66699 0 11.5 -1.33301 14.5 -4s4.5 -8 4.5 -16v-83c0 -7.33301 -1.33301 -13.166 -4 -17.499s-7.66699 -6.5 -15 -6.5h-210c-14 0 -21 -6.33301 -21 -19v-70c0 -9.33301 1.16699 -15.833 3.5 -19.5s8.5 -5.5 18.5 -5.5h170
c8 0 13.167 -1.5 15.5 -4.5s3.5 -8.16699 3.5 -15.5v-83c0 -7.33301 -1.16699 -13.166 -3.5 -17.499s-7.5 -6.5 -15.5 -6.5h-173c-9.33301 0 -14.833 -1.66699 -16.5 -5s-2.5 -8.66602 -2.5 -15.999v-79c0 -4 0.833008 -8.66699 2.5 -14s7.83398 -8 18.501 -8h219z
M231 257.998c-3.33301 -7.33301 -0.666992 -11.001 8 -11.001h97c4.66699 0 8.66699 0.833008 12 2.5s5 5.83398 5 12.501v218c0 2.66699 -0.5 5.16699 -1.5 7.5s-4.16699 3.5 -9.5 3.5h-23c-6 0 -9.66699 -2.66699 -11 -8z" />
    <glyph glyph-name="Ccedilla" unicode="&#xc7;" horiz-adv-x="515" 
d="M377 -115c0 -10 -1.99707 -20.5029 -5.99707 -31.5029s-10.333 -21 -19 -30s-20.167 -16.333 -34.5 -22s-31.833 -8.5 -52.5 -8.5c-17.333 0 -33 2.33301 -47 7s-26.667 11 -38 19c-3.33301 2.66699 -6 5.33398 -8 8.00098s-0.666992 6.66699 4 12l24 27
c4.66699 5.33301 8 8 10 8s5 -1.33301 9 -4c6 -3.33301 12.833 -6.5 20.5 -9.5s15.5 -4.5 23.5 -4.5c16 0 27.167 3 33.5 9s9.5 12.333 9.5 19c0 3.33301 -1.5 8.16602 -4.5 14.499s-11.167 9.5 -24.5 9.5h-35c-11.333 -0.666992 -20.833 2.83301 -28.5 10.5
s-10.167 17.167 -7.5 28.5l13 51c-50 8 -89 28.5 -117 61.5s-42 73.5 -42 121.5v262c0 26.667 5.16699 51.334 15.5 74.001s24.666 42.334 42.999 59.001s40.166 29.5 65.499 38.5s52.666 13.5 81.999 13.5c18.667 0 37.334 -1.5 56.001 -4.5s36.667 -8.5 54 -16.5
s33.666 -19 48.999 -33s29.333 -31.667 42 -53c2 -4 3 -9 3 -15s-3.33301 -11 -10 -15l-72 -50c-8.66699 -3.33301 -15.5 -3.66602 -20.5 -0.999023s-9.16699 7 -12.5 13c-10 17.333 -21.667 29.833 -35 37.5s-28.666 11.5 -45.999 11.5c-12.667 0 -23.5 -2 -32.5 -6
s-16.5 -9.16699 -22.5 -15.5s-10.333 -13.5 -13 -21.5s-4 -15.667 -4 -23v-255c0 -14.667 5.33301 -28.167 16 -40.5s28.334 -18.5 53.001 -18.5c16.667 0 32.167 4.33301 46.5 13s26.5 20 36.5 34c3.33301 3.33301 7 7.5 11 12.5s9.66699 5.5 17 1.5l81 -43
c7.33301 -3.33301 12.333 -7.5 15 -12.5s2 -10.833 -2 -17.5c-24.667 -41.333 -53.334 -70.5 -86.001 -87.5s-68.334 -26.167 -107.001 -27.5l-5 -21c-1.33301 -2 -0.333008 -3 3 -3h7c24 0 44.833 -7.5 62.5 -22.5s26.5 -36.167 26.5 -63.5z" />
    <glyph glyph-name="Egrave" unicode="&#xc8;" horiz-adv-x="496" 
d="M438 128c13.333 0 20 -7.66992 20 -23.0029v-81c0 -16 -6.66699 -24 -20 -24h-352c-16 0 -24 8 -24 24v570c0 16 8 24 24 24h344c13.333 0 20 -7.33301 20 -22v-81c0 -16 -6.66699 -24 -20 -24h-202c-10 0 -16.5 -1.5 -19.5 -4.5s-4.5 -7.83301 -4.5 -14.5v-68
c0 -9.33301 1.66699 -15.833 5 -19.5s10 -5.5 20 -5.5h166c8 0 13.5 -2.16699 16.5 -6.5s4.5 -10.166 4.5 -17.499v-79c0 -7.33301 -1.5 -13.166 -4.5 -17.499s-8.5 -6.5 -16.5 -6.5h-169c-9.33301 0 -15.333 -1.66699 -18 -5s-4 -8.66602 -4 -15.999v-81
c0 -9.33301 2.16699 -15.333 6.5 -18s11.833 -4 22.5 -4h205zM100 727.997c-1.33301 0.666992 -3.16602 2.00195 -5.49902 4.00195s-4.16602 4.16699 -5.49902 6.5s-1.83301 5.16602 -1.5 8.49902s2.16602 6.66602 5.49902 9.99902l58 62
c3.33301 3.33301 7.66602 5.83301 12.999 7.5s11 0.166992 17 -4.5l147 -113c9.33301 -8 10 -16.667 2 -26l-28 -33c-3.33301 -4 -7.33301 -7.33301 -12 -10s-9.66699 -2.66699 -15 0z" />
    <glyph glyph-name="Eacute" unicode="&#xc9;" horiz-adv-x="496" 
d="M438 128c13.333 0 20 -7.66992 20 -23.0029v-81c0 -16 -6.66699 -24 -20 -24h-352c-16 0 -24 8 -24 24v570c0 16 8 24 24 24h344c13.333 0 20 -7.33301 20 -22v-81c0 -16 -6.66699 -24 -20 -24h-202c-10 0 -16.5 -1.5 -19.5 -4.5s-4.5 -7.83301 -4.5 -14.5v-68
c0 -9.33301 1.66699 -15.833 5 -19.5s10 -5.5 20 -5.5h166c8 0 13.5 -2.16699 16.5 -6.5s4.5 -10.166 4.5 -17.499v-79c0 -7.33301 -1.5 -13.166 -4.5 -17.499s-8.5 -6.5 -16.5 -6.5h-169c-9.33301 0 -15.333 -1.66699 -18 -5s-4 -8.66602 -4 -15.999v-81
c0 -9.33301 2.16699 -15.333 6.5 -18s11.833 -4 22.5 -4h205zM220 639.997c-5.33301 -2.66699 -10.333 -2.66895 -15 -0.00195312s-8.66699 6 -12 10l-28 33c-8 9.33301 -7.33301 18 2 26l147 113c6 4.66699 11.667 6.16699 17 4.5s9.66602 -4.16699 12.999 -7.5l58 -62
c3.33301 -3.33301 5.16602 -6.66602 5.49902 -9.99902s-0.166992 -6.16602 -1.5 -8.49902s-3.16602 -4.5 -5.49902 -6.5s-4.16602 -3.33301 -5.49902 -4z" />
    <glyph glyph-name="Ecircumflex" unicode="&#xca;" horiz-adv-x="496" 
d="M438 128c13.333 0 20 -7.66992 20 -23.0029v-81c0 -16 -6.66699 -24 -20 -24h-352c-16 0 -24 8 -24 24v570c0 16 8 24 24 24h344c13.333 0 20 -7.33301 20 -22v-81c0 -16 -6.66699 -24 -20 -24h-202c-10 0 -16.5 -1.5 -19.5 -4.5s-4.5 -7.83301 -4.5 -14.5v-68
c0 -9.33301 1.66699 -15.833 5 -19.5s10 -5.5 20 -5.5h166c8 0 13.5 -2.16699 16.5 -6.5s4.5 -10.166 4.5 -17.499v-79c0 -7.33301 -1.5 -13.166 -4.5 -17.499s-8.5 -6.5 -16.5 -6.5h-169c-9.33301 0 -15.333 -1.66699 -18 -5s-4 -8.66602 -4 -15.999v-81
c0 -9.33301 2.16699 -15.333 6.5 -18s11.833 -4 22.5 -4h205zM428 681.997c2.66699 -3.33301 4.5 -7 5.5 -11s-1.16699 -7 -6.5 -9l-50 -20c-5.33301 -2.66699 -9.5 -3.83398 -12.5 -3.50098s-6.16699 2.16602 -9.5 5.49902l-97 91
c-1.33301 1.33301 -3.33301 2.16602 -6 2.49902s-4.66699 -0.166992 -6 -1.5l-97 -93c-3.33301 -3.33301 -6.5 -5.16602 -9.5 -5.49902s-7.16699 0.833984 -12.5 3.50098l-47 21c-5.33301 2.66699 -7.5 5.83398 -6.5 9.50098s2.83301 7.16699 5.5 10.5l103 135
c3.33301 3.33301 6.5 5.83301 9.5 7.5s7.16699 2.5 12.5 2.5h100c5.33301 0 9.5 -0.833008 12.5 -2.5s6.16699 -4.16699 9.5 -7.5z" />
    <glyph glyph-name="Edieresis" unicode="&#xcb;" horiz-adv-x="496" 
d="M438 128c13.333 0 20 -7.66992 20 -23.0029v-81c0 -16 -6.66699 -24 -20 -24h-352c-16 0 -24 8 -24 24v570c0 16 8 24 24 24h344c13.333 0 20 -7.33301 20 -22v-81c0 -16 -6.66699 -24 -20 -24h-202c-10 0 -16.5 -1.5 -19.5 -4.5s-4.5 -7.83301 -4.5 -14.5v-68
c0 -9.33301 1.66699 -15.833 5 -19.5s10 -5.5 20 -5.5h166c8 0 13.5 -2.16699 16.5 -6.5s4.5 -10.166 4.5 -17.499v-79c0 -7.33301 -1.5 -13.166 -4.5 -17.499s-8.5 -6.5 -16.5 -6.5h-169c-9.33301 0 -15.333 -1.66699 -18 -5s-4 -8.66602 -4 -15.999v-81
c0 -9.33301 2.16699 -15.333 6.5 -18s11.833 -4 22.5 -4h205zM425 717.997c0 -20 -7 -36.667 -21 -50s-31.333 -20 -52 -20c-21.333 0 -39 6.5 -53 19.5s-21 29.833 -21 50.5c0 19.333 7 35.833 21 49.5s31.667 20.5 53 20.5c20.667 0 38 -6.83301 52 -20.5
s21 -30.167 21 -49.5zM236 717.997c0 -20 -7 -36.667 -21 -50s-31.667 -20 -53 -20s-38.833 6.5 -52.5 19.5s-20.5 29.833 -20.5 50.5c0 19.333 7 35.833 21 49.5s31.333 20.5 52 20.5c21.333 0 39 -6.83301 53 -20.5s21 -30.167 21 -49.5z" />
    <glyph glyph-name="Igrave" unicode="&#xcc;" horiz-adv-x="273" 
d="M89 0c-16 0 -24.001 6.66699 -24.001 20v577c0 14 8 21 24 21h94c6.66699 0 12.334 -1.5 17.001 -4.5s7 -8.5 7 -16.5v-577c0 -13.333 -8 -20 -24 -20h-94zM-56.001 728c-1.33301 0.666992 -3.16602 2.00195 -5.49902 4.00195s-4.16602 4.16699 -5.49902 6.5
s-1.83301 5.16602 -1.5 8.49902s2.16602 6.66602 5.49902 9.99902l58 62c3.33301 3.33301 7.66602 5.83301 12.999 7.5s11 0.166992 17 -4.5l147 -113c9.33301 -8 10 -16.667 2 -26l-28 -33c-3.33301 -4 -7.33301 -7.33301 -12 -10s-9.66699 -2.66699 -15 0z" />
    <glyph glyph-name="Iacute" unicode="&#xcd;" horiz-adv-x="273" 
d="M89 0c-16 0 -24.001 6.66699 -24.001 20v577c0 14 8 21 24 21h94c6.66699 0 12.334 -1.5 17.001 -4.5s7 -8.5 7 -16.5v-577c0 -13.333 -8 -20 -24 -20h-94zM134.999 640c-5.33301 -2.66699 -10.333 -2.66895 -15 -0.00195312s-8.66699 6 -12 10l-28 33
c-8 9.33301 -7.33301 18 2 26l147 113c6 4.66699 11.667 6.16699 17 4.5s9.66602 -4.16699 12.999 -7.5l58 -62c3.33301 -3.33301 5.16602 -6.66602 5.49902 -9.99902s-0.166992 -6.16602 -1.5 -8.49902s-3.16602 -4.5 -5.49902 -6.5s-4.16602 -3.33301 -5.49902 -4z" />
    <glyph glyph-name="Icircumflex" unicode="&#xce;" horiz-adv-x="273" 
d="M89 0c-16 0 -24.001 6.66699 -24.001 20v577c0 14 8 21 24 21h94c6.66699 0 12.334 -1.5 17.001 -4.5s7 -8.5 7 -16.5v-577c0 -13.333 -8 -20 -24 -20h-94zM313.999 690c2.66699 -3.33301 4.5 -7 5.5 -11s-1.16699 -7 -6.5 -9l-50 -20
c-5.33301 -2.66699 -9.5 -3.83398 -12.5 -3.50098s-6.16699 2.16602 -9.5 5.49902l-97 91c-1.33301 1.33301 -3.33301 2.16602 -6 2.49902s-4.66699 -0.166992 -6 -1.5l-97 -93c-3.33301 -3.33301 -6.5 -5.16602 -9.5 -5.49902s-7.16699 0.833984 -12.5 3.50098l-47 21
c-5.33301 2.66699 -7.5 5.83398 -6.5 9.50098s2.83301 7.16699 5.5 10.5l103 135c3.33301 3.33301 6.5 5.83301 9.5 7.5s7.16699 2.5 12.5 2.5h100c5.33301 0 9.5 -0.833008 12.5 -2.5s6.16699 -4.16699 9.5 -7.5z" />
    <glyph glyph-name="Idieresis" unicode="&#xcf;" horiz-adv-x="273" 
d="M89 0c-16 0 -24.001 6.66699 -24.001 20v577c0 14 8 21 24 21h94c6.66699 0 12.334 -1.5 17.001 -4.5s7 -8.5 7 -16.5v-577c0 -13.333 -8 -20 -24 -20h-94zM302.999 718c0 -20 -7 -36.667 -21 -50s-31.333 -20 -52 -20c-21.333 0 -39 6.5 -53 19.5s-21 29.833 -21 50.5
c0 19.333 7 35.833 21 49.5s31.667 20.5 53 20.5c20.667 0 38 -6.83301 52 -20.5s21 -30.167 21 -49.5zM113.999 718c0 -20 -7 -36.667 -21 -50s-31.667 -20 -53 -20s-38.833 6.5 -52.5 19.5s-20.5 29.833 -20.5 50.5c0 19.333 7 35.833 21 49.5s31.333 20.5 52 20.5
c21.333 0 39 -6.83301 53 -20.5s21 -30.167 21 -49.5z" />
    <glyph glyph-name="Eth" unicode="&#xd0;" horiz-adv-x="564" 
d="M91 0c-16.667 0 -25.0029 8 -25.0029 24v223c0 5.33301 -0.5 9.5 -1.5 12.5s-4.5 4.5 -10.5 4.5h-21c-7.33301 0 -12 1.16699 -14 3.5s-3 6.83301 -3 13.5v54c0 6 1 10.333 3 13s6.66699 4 14 4h20c3.33301 0 6.33301 1 9 3s4 6.66699 4 14v225c0 16 8.33301 24 25 24
h225c66.667 0 115.334 -17 146.001 -51s46 -80 46 -138v-241c0 -27.333 -3.66699 -52.5 -11 -75.5s-18.666 -42.833 -33.999 -59.5s-34.666 -29.667 -57.999 -39s-51 -14 -83 -14h-231zM295.997 128c25.333 0 43.167 6.66699 53.5 20s15.5 31.333 15.5 54v217
c0 26 -5.83301 44.5 -17.5 55.5s-29.5 16.5 -53.5 16.5h-60c-11.333 0 -18.333 -2.5 -21 -7.5s-4 -11.167 -4 -18.5v-102c0 -7.33301 3.66699 -11 11 -11h60c7.33301 0 12 -1.33301 14 -4s3 -7 3 -13v-54c0 -6.66699 -1 -11.167 -3 -13.5s-6.66699 -3.5 -14 -3.5h-57
c-9.33301 0 -14 -4.33301 -14 -13v-98c0 -9.33301 1.66699 -15.833 5 -19.5s10 -5.5 20 -5.5h62z" />
    <glyph glyph-name="Ntilde" unicode="&#xd1;" horiz-adv-x="579" 
d="M515 22c0 -14.667 -8.33301 -21.998 -25 -21.998h-63c-8 0 -14.833 0.5 -20.5 1.5s-11.167 6.16699 -16.5 15.5l-184 297c-0.666992 1.33301 -1.33398 1.66602 -2.00098 0.999023s-1 -1.66699 -1 -3v-293c0 -7.33301 -2.33301 -12.333 -7 -15s-11 -4 -19 -4h-88
c-8 0 -14.167 1.33301 -18.5 4s-6.5 7.66699 -6.5 15v577c0 14.667 8.33301 22 25 22h65c10.667 0 18.334 -1.33301 23.001 -4s9.66699 -8.33398 15 -17.001l181 -299v1c1.33301 -2 2.5 -2.66699 3.5 -2s1.5 2 1.5 4v296c0 14 8.33301 21 25 21h87
c7.33301 0 13.333 -1.5 18 -4.5s7 -8.5 7 -16.5v-575zM219 783.002c11.333 0 22.3281 -1.66797 32.9951 -5.00098s20.834 -7.16602 30.501 -11.499l28 -12c9 -3.66699 17.5 -5.5 25.5 -5.5c8.66699 0 16.5 2 23.5 6s14.167 10.667 21.5 20c2.66699 4 6.33398 6 11.001 6
c2.66699 0 6 -1 10 -3l41 -25c7.33301 -4 11 -8 11 -12c0 -1.33301 -0.666992 -4 -2 -8c-16 -32 -32.667 -53.667 -50 -65s-35.333 -17 -54 -17c-9.33301 0 -19.166 1.66699 -29.499 5s-20.666 7 -30.999 11s-20.5 7.66699 -30.5 11s-19.333 5 -28 5
c-6.66699 0 -14 -1.33301 -22 -4s-16.667 -9.66699 -26 -21c-3.33301 -5.33301 -6.66602 -8 -9.99902 -8c-2 0 -5 1 -9 3l-45 27c-4 2 -6 5 -6 9c0 1.33301 0.666992 4 2 8c14 33.333 30.5 56 49.5 68s37.833 18 56.5 18z" />
    <glyph glyph-name="Ograve" unicode="&#xd2;" horiz-adv-x="560" 
d="M500 187c0 -30 -5.49902 -56.833 -16.499 -80.5s-26.333 -43.834 -46 -60.501s-43 -29.5 -70 -38.5s-56.167 -13.5 -87.5 -13.5s-60.333 4.5 -87 13.5s-49.834 21.833 -69.501 38.5s-35.167 36.834 -46.5 60.501s-17 50.5 -17 80.5v246c0 30 5.5 57 16.5 81
s26.167 44.5 45.5 61.5s42.333 30 69 39s56 13.5 88 13.5c31.333 0 60.5 -4.5 87.5 -13.5s50.333 -22 70 -39s35.167 -37.5 46.5 -61.5s17 -51 17 -81v-246zM356.001 433c0 17.333 -5.66797 33 -17.001 47s-31 21 -59 21c-25.333 0 -44.666 -7 -57.999 -21
s-20 -29.667 -20 -47v-246c0 -16.667 6.5 -31.667 19.5 -45s32.167 -20 57.5 -20c23.333 0 42 6.5 56 19.5s21 28.167 21 45.5v246zM121 739c-1.33301 0.666992 -3.16602 2.00195 -5.49902 4.00195s-4.16602 4.16699 -5.49902 6.5s-1.83301 5.16602 -1.5 8.49902
s2.16602 6.66602 5.49902 9.99902l58 62c3.33301 3.33301 7.66602 5.83301 12.999 7.5s11 0.166992 17 -4.5l147 -113c9.33301 -8 10 -16.667 2 -26l-28 -33c-3.33301 -4 -7.33301 -7.33301 -12 -10s-9.66699 -2.66699 -15 0z" />
    <glyph glyph-name="Oacute" unicode="&#xd3;" horiz-adv-x="560" 
d="M500 187c0 -30 -5.49902 -56.833 -16.499 -80.5s-26.333 -43.834 -46 -60.501s-43 -29.5 -70 -38.5s-56.167 -13.5 -87.5 -13.5s-60.333 4.5 -87 13.5s-49.834 21.833 -69.501 38.5s-35.167 36.834 -46.5 60.501s-17 50.5 -17 80.5v246c0 30 5.5 57 16.5 81
s26.167 44.5 45.5 61.5s42.333 30 69 39s56 13.5 88 13.5c31.333 0 60.5 -4.5 87.5 -13.5s50.333 -22 70 -39s35.167 -37.5 46.5 -61.5s17 -51 17 -81v-246zM356.001 433c0 17.333 -5.66797 33 -17.001 47s-31 21 -59 21c-25.333 0 -44.666 -7 -57.999 -21
s-20 -29.667 -20 -47v-246c0 -16.667 6.5 -31.667 19.5 -45s32.167 -20 57.5 -20c23.333 0 42 6.5 56 19.5s21 28.167 21 45.5v246zM281 651c-5.33301 -2.66699 -10.333 -2.66895 -15 -0.00195312s-8.66699 6 -12 10l-28 33c-8 9.33301 -7.33301 18 2 26l147 113
c6 4.66699 11.667 6.16699 17 4.5s9.66602 -4.16699 12.999 -7.5l58 -62c3.33301 -3.33301 5.16602 -6.66602 5.49902 -9.99902s-0.166992 -6.16602 -1.5 -8.49902s-3.16602 -4.5 -5.49902 -6.5s-4.16602 -3.33301 -5.49902 -4z" />
    <glyph glyph-name="Ocircumflex" unicode="&#xd4;" horiz-adv-x="560" 
d="M500 187c0 -30 -5.49902 -56.833 -16.499 -80.5s-26.333 -43.834 -46 -60.501s-43 -29.5 -70 -38.5s-56.167 -13.5 -87.5 -13.5s-60.333 4.5 -87 13.5s-49.834 21.833 -69.501 38.5s-35.167 36.834 -46.5 60.501s-17 50.5 -17 80.5v246c0 30 5.5 57 16.5 81
s26.167 44.5 45.5 61.5s42.333 30 69 39s56 13.5 88 13.5c31.333 0 60.5 -4.5 87.5 -13.5s50.333 -22 70 -39s35.167 -37.5 46.5 -61.5s17 -51 17 -81v-246zM356.001 433c0 17.333 -5.66797 33 -17.001 47s-31 21 -59 21c-25.333 0 -44.666 -7 -57.999 -21
s-20 -29.667 -20 -47v-246c0 -16.667 6.5 -31.667 19.5 -45s32.167 -20 57.5 -20c23.333 0 42 6.5 56 19.5s21 28.167 21 45.5v246zM452 682c2.66699 -3.33301 4.5 -7 5.5 -11s-1.16699 -7 -6.5 -9l-50 -20c-5.33301 -2.66699 -9.5 -3.83398 -12.5 -3.50098
s-6.16699 2.16602 -9.5 5.49902l-97 91c-1.33301 1.33301 -3.33301 2.16602 -6 2.49902s-4.66699 -0.166992 -6 -1.5l-97 -93c-3.33301 -3.33301 -6.5 -5.16602 -9.5 -5.49902s-7.16699 0.833984 -12.5 3.50098l-47 21c-5.33301 2.66699 -7.5 5.83398 -6.5 9.50098
s2.83301 7.16699 5.5 10.5l103 135c3.33301 3.33301 6.5 5.83301 9.5 7.5s7.16699 2.5 12.5 2.5h100c5.33301 0 9.5 -0.833008 12.5 -2.5s6.16699 -4.16699 9.5 -7.5z" />
    <glyph glyph-name="Otilde" unicode="&#xd5;" horiz-adv-x="560" 
d="M500 187c0 -30 -5.49902 -56.833 -16.499 -80.5s-26.333 -43.834 -46 -60.501s-43 -29.5 -70 -38.5s-56.167 -13.5 -87.5 -13.5s-60.333 4.5 -87 13.5s-49.834 21.833 -69.501 38.5s-35.167 36.834 -46.5 60.501s-17 50.5 -17 80.5v246c0 30 5.5 57 16.5 81
s26.167 44.5 45.5 61.5s42.333 30 69 39s56 13.5 88 13.5c31.333 0 60.5 -4.5 87.5 -13.5s50.333 -22 70 -39s35.167 -37.5 46.5 -61.5s17 -51 17 -81v-246zM356.001 433c0 17.333 -5.66797 33 -17.001 47s-31 21 -59 21c-25.333 0 -44.666 -7 -57.999 -21
s-20 -29.667 -20 -47v-246c0 -16.667 6.5 -31.667 19.5 -45s32.167 -20 57.5 -20c23.333 0 42 6.5 56 19.5s21 28.167 21 45.5v246zM219 793c11.333 0 22.3281 -1.66797 32.9951 -5.00098s20.834 -7.16602 30.501 -11.499l28 -12c9 -3.66699 17.5 -5.5 25.5 -5.5
c8.66699 0 16.5 2 23.5 6s14.167 10.667 21.5 20c2.66699 4 6.33398 6 11.001 6c2.66699 0 6 -1 10 -3l41 -25c7.33301 -4 11 -8 11 -12c0 -1.33301 -0.666992 -4 -2 -8c-16 -32 -32.667 -53.667 -50 -65s-35.333 -17 -54 -17c-9.33301 0 -19.166 1.66699 -29.499 5
s-20.666 7 -30.999 11s-20.5 7.66699 -30.5 11s-19.333 5 -28 5c-6.66699 0 -14 -1.33301 -22 -4s-16.667 -9.66699 -26 -21c-3.33301 -5.33301 -6.66602 -8 -9.99902 -8c-2 0 -5 1 -9 3l-45 27c-4 2 -6 5 -6 9c0 1.33301 0.666992 4 2 8c14 33.333 30.5 56 49.5 68
s37.833 18 56.5 18z" />
    <glyph glyph-name="Odieresis" unicode="&#xd6;" horiz-adv-x="560" 
d="M500 187c0 -30 -5.49902 -56.833 -16.499 -80.5s-26.333 -43.834 -46 -60.501s-43 -29.5 -70 -38.5s-56.167 -13.5 -87.5 -13.5s-60.333 4.5 -87 13.5s-49.834 21.833 -69.501 38.5s-35.167 36.834 -46.5 60.501s-17 50.5 -17 80.5v246c0 30 5.5 57 16.5 81
s26.167 44.5 45.5 61.5s42.333 30 69 39s56 13.5 88 13.5c31.333 0 60.5 -4.5 87.5 -13.5s50.333 -22 70 -39s35.167 -37.5 46.5 -61.5s17 -51 17 -81v-246zM356.001 433c0 17.333 -5.66797 33 -17.001 47s-31 21 -59 21c-25.333 0 -44.666 -7 -57.999 -21
s-20 -29.667 -20 -47v-246c0 -16.667 6.5 -31.667 19.5 -45s32.167 -20 57.5 -20c23.333 0 42 6.5 56 19.5s21 28.167 21 45.5v246zM445 718c0 -20 -7 -36.667 -21 -50s-31.333 -20 -52 -20c-21.333 0 -39 6.5 -53 19.5s-21 29.833 -21 50.5c0 19.333 7 35.833 21 49.5
s31.667 20.5 53 20.5c20.667 0 38 -6.83301 52 -20.5s21 -30.167 21 -49.5zM256 718c0 -20 -7 -36.667 -21 -50s-31.667 -20 -53 -20s-38.833 6.5 -52.5 19.5s-20.5 29.833 -20.5 50.5c0 19.333 7 35.833 21 49.5s31.333 20.5 52 20.5c21.333 0 39 -6.83301 53 -20.5
s21 -30.167 21 -49.5z" />
    <glyph glyph-name="multiply" unicode="&#xd7;" horiz-adv-x="519" 
d="M445 178c12 -12 11.999 -24 -0.000976562 -36l-38 -38c-12.667 -12 -24.667 -12.333 -36 -1l-96 96c-6.66699 6.66699 -12 9.66699 -16 9s-7.66699 -3 -11 -7l-101 -101c-5.33301 -5.33301 -11.166 -7.5 -17.499 -6.5s-12.166 4.16699 -17.499 9.5l-38 39
c-13.333 12 -14.333 23.667 -3 35l102 102c7.33301 7.33301 4.66602 17.333 -8.00098 30l-93 93c-11.333 11.333 -11 23.333 1 36l38 38c12 10.667 24 10.667 36 0l99 -99c4 -4.66699 7.66699 -7.33398 11 -8.00098s7.66602 1.66602 12.999 6.99902l102 102
c11.333 11.333 23 10.333 35 -3l39 -38c5.33301 -5.33301 8.5 -11.166 9.5 -17.499s-1.16699 -12.166 -6.5 -17.499l-99 -99c-6.66699 -6 -10.167 -10.833 -10.5 -14.5s2.83398 -8.5 9.50098 -14.5z" />
    <glyph glyph-name="Oslash" unicode="&#xd8;" horiz-adv-x="560" 
d="M93 68c1.33301 2.66699 1.99902 4.83398 1.99902 6.50098s-1 3.83398 -3 6.50098c-7.33301 10.667 -14.5 25 -21.5 43s-10.5 35.667 -10.5 53v261c0 30 5.83301 56.667 17.5 80s27.5 43.166 47.5 59.499s43.667 28.833 71 37.5s56.666 13 87.999 13
c24.667 0 46.667 -2.83301 66 -8.5s39.333 -14.167 60 -25.5c6.66699 -4 11.667 -3.33301 15 2l15 22c6 9.33301 13.667 11 23 5l31 -18c4 -3.33301 5.5 -7 4.5 -11s-3.16699 -8.66699 -6.5 -14c-2.66699 -4.66699 -5.5 -9.16699 -8.5 -13.5s-5.83301 -8.83301 -8.5 -13.5
c-3.33301 -5.33301 -5.16602 -9.33301 -5.49902 -12s1.16699 -6.33398 4.5 -11.001c6.66699 -10 12.667 -22.167 18 -36.5s8 -31.166 8 -50.499v-262c0 -30 -6 -56.5 -18 -79.5s-28 -42.5 -48 -58.5s-42.833 -28.167 -68.5 -36.5s-52.5 -12.5 -80.5 -12.5
c-25.333 0 -49.666 2.66699 -72.999 8s-42.333 12.666 -57 21.999c-4.66699 3.33301 -7.83398 4.83301 -9.50098 4.5s-3.16699 -1.5 -4.5 -3.5l-11 -18c-6 -10 -13 -12.333 -21 -7l-29 19c-9.33301 6 -10.666 14 -3.99902 24zM201.999 242l140 221c4 4 4.33301 8 1 12
c-6.66699 9.33301 -16 16 -28 20s-24 6 -36 6c-23.333 0 -42 -6.83301 -56 -20.5s-21 -29.167 -21 -46.5v-192zM222.999 155c-2.66699 -4.66699 -2.66895 -9.00098 -0.00195312 -13.001c6 -7.33301 14 -12.5 24 -15.5s22.333 -4.5 37 -4.5
c8.66699 0 17.334 1.66699 26.001 5s16.334 8 23.001 14s12.167 12.833 16.5 20.5s6.5 15.834 6.5 24.501v179z" />
    <glyph glyph-name="Ugrave" unicode="&#xd9;" horiz-adv-x="560" 
d="M202 187c0 -16.667 6.50098 -31.667 19.501 -45s32.167 -20 57.5 -20c23.333 0 42 6.5 56 19.5s21 28.167 21 45.5l-1 412c0 7.33301 2.33301 12.333 7 15s10.667 4 18 4h94c8 0 14.333 -1.33301 19 -4s7 -7.66699 7 -15v-412c0 -30 -5.5 -56.833 -16.5 -80.5
s-26.333 -43.834 -46 -60.501s-43 -29.5 -70 -38.5s-56.167 -13.5 -87.5 -13.5s-60.333 4.5 -87 13.5s-49.834 21.833 -69.501 38.5s-35.167 36.834 -46.5 60.501s-17 50.5 -17 80.5v412c0 7.33301 2.16699 12.333 6.5 15s10.5 4 18.5 4h92
c7.33301 0 13.333 -1.16699 18 -3.5s7 -7.5 7 -15.5v-412zM91.001 728c-1.33301 0.666992 -3.16602 2.00195 -5.49902 4.00195s-4.16602 4.16699 -5.49902 6.5s-1.83301 5.16602 -1.5 8.49902s2.16602 6.66602 5.49902 9.99902l58 62
c3.33301 3.33301 7.66602 5.83301 12.999 7.5s11 0.166992 17 -4.5l147 -113c9.33301 -8 10 -16.667 2 -26l-28 -33c-3.33301 -4 -7.33301 -7.33301 -12 -10s-9.66699 -2.66699 -15 0z" />
    <glyph glyph-name="Uacute" unicode="&#xda;" horiz-adv-x="560" 
d="M202 187c0 -16.667 6.50098 -31.667 19.501 -45s32.167 -20 57.5 -20c23.333 0 42 6.5 56 19.5s21 28.167 21 45.5l-1 412c0 7.33301 2.33301 12.333 7 15s10.667 4 18 4h94c8 0 14.333 -1.33301 19 -4s7 -7.66699 7 -15v-412c0 -30 -5.5 -56.833 -16.5 -80.5
s-26.333 -43.834 -46 -60.501s-43 -29.5 -70 -38.5s-56.167 -13.5 -87.5 -13.5s-60.333 4.5 -87 13.5s-49.834 21.833 -69.501 38.5s-35.167 36.834 -46.5 60.501s-17 50.5 -17 80.5v412c0 7.33301 2.16699 12.333 6.5 15s10.5 4 18.5 4h92
c7.33301 0 13.333 -1.16699 18 -3.5s7 -7.5 7 -15.5v-412zM273.001 640c-5.33301 -2.66699 -10.333 -2.66895 -15 -0.00195312s-8.66699 6 -12 10l-28 33c-8 9.33301 -7.33301 18 2 26l147 113c6 4.66699 11.667 6.16699 17 4.5s9.66602 -4.16699 12.999 -7.5l58 -62
c3.33301 -3.33301 5.16602 -6.66602 5.49902 -9.99902s-0.166992 -6.16602 -1.5 -8.49902s-3.16602 -4.5 -5.49902 -6.5s-4.16602 -3.33301 -5.49902 -4z" />
    <glyph glyph-name="Ucircumflex" unicode="&#xdb;" horiz-adv-x="560" 
d="M202 187c0 -16.667 6.50098 -31.667 19.501 -45s32.167 -20 57.5 -20c23.333 0 42 6.5 56 19.5s21 28.167 21 45.5l-1 412c0 7.33301 2.33301 12.333 7 15s10.667 4 18 4h94c8 0 14.333 -1.33301 19 -4s7 -7.66699 7 -15v-412c0 -30 -5.5 -56.833 -16.5 -80.5
s-26.333 -43.834 -46 -60.501s-43 -29.5 -70 -38.5s-56.167 -13.5 -87.5 -13.5s-60.333 4.5 -87 13.5s-49.834 21.833 -69.501 38.5s-35.167 36.834 -46.5 60.501s-17 50.5 -17 80.5v412c0 7.33301 2.16699 12.333 6.5 15s10.5 4 18.5 4h92
c7.33301 0 13.333 -1.16699 18 -3.5s7 -7.5 7 -15.5v-412zM447.001 682c2.66699 -3.33301 4.5 -7 5.5 -11s-1.16699 -7 -6.5 -9l-50 -20c-5.33301 -2.66699 -9.5 -3.83398 -12.5 -3.50098s-6.16699 2.16602 -9.5 5.49902l-97 91
c-1.33301 1.33301 -3.33301 2.16602 -6 2.49902s-4.66699 -0.166992 -6 -1.5l-97 -93c-3.33301 -3.33301 -6.5 -5.16602 -9.5 -5.49902s-7.16699 0.833984 -12.5 3.50098l-47 21c-5.33301 2.66699 -7.5 5.83398 -6.5 9.50098s2.83301 7.16699 5.5 10.5l103 135
c3.33301 3.33301 6.5 5.83301 9.5 7.5s7.16699 2.5 12.5 2.5h100c5.33301 0 9.5 -0.833008 12.5 -2.5s6.16699 -4.16699 9.5 -7.5z" />
    <glyph glyph-name="Udieresis" unicode="&#xdc;" horiz-adv-x="560" 
d="M202 187c0 -16.667 6.50098 -31.667 19.501 -45s32.167 -20 57.5 -20c23.333 0 42 6.5 56 19.5s21 28.167 21 45.5l-1 412c0 7.33301 2.33301 12.333 7 15s10.667 4 18 4h94c8 0 14.333 -1.33301 19 -4s7 -7.66699 7 -15v-412c0 -30 -5.5 -56.833 -16.5 -80.5
s-26.333 -43.834 -46 -60.501s-43 -29.5 -70 -38.5s-56.167 -13.5 -87.5 -13.5s-60.333 4.5 -87 13.5s-49.834 21.833 -69.501 38.5s-35.167 36.834 -46.5 60.501s-17 50.5 -17 80.5v412c0 7.33301 2.16699 12.333 6.5 15s10.5 4 18.5 4h92
c7.33301 0 13.333 -1.16699 18 -3.5s7 -7.5 7 -15.5v-412zM440.001 718c0 -20 -7 -36.667 -21 -50s-31.333 -20 -52 -20c-21.333 0 -39 6.5 -53 19.5s-21 29.833 -21 50.5c0 19.333 7 35.833 21 49.5s31.667 20.5 53 20.5c20.667 0 38 -6.83301 52 -20.5
s21 -30.167 21 -49.5zM251.001 718c0 -20 -7 -36.667 -21 -50s-31.667 -20 -53 -20s-38.833 6.5 -52.5 19.5s-20.5 29.833 -20.5 50.5c0 19.333 7 35.833 21 49.5s31.333 20.5 52 20.5c21.333 0 39 -6.83301 53 -20.5s21 -30.167 21 -49.5z" />
    <glyph glyph-name="Yacute" unicode="&#xdd;" horiz-adv-x="494" 
d="M131 618c9.33301 0 16.835 -1.16504 22.502 -3.49805s10.834 -8.5 15.501 -18.5l73 -201c1.33301 -2.66699 3 -3.83398 5 -3.50098s3.33301 1.16602 4 2.49902l72 200c3.33301 8 7.5 14 12.5 18s13.833 6 26.5 6h94c13.333 0 21 -3.16699 23 -9.5s2 -11.833 0 -16.5
l-154 -354c-3.33301 -6.66699 -5.5 -11.834 -6.5 -15.501s-1.5 -8.16699 -1.5 -13.5v-185c0 -16 -8 -24 -24 -24h-94c-16 0 -24 8 -24 24v188c0 3.33301 -0.333008 6.83301 -1 10.5s-2.33398 8.16699 -5.00098 13.5l-155 355c-2.66699 6 -3.83398 11.833 -3.50098 17.5
s7.16602 8.83398 20.499 9.50098h100zM241.002 640.002c-5.33301 -2.66699 -10.333 -2.66895 -15 -0.00195312s-8.66699 6 -12 10l-28 33c-8 9.33301 -7.33301 18 2 26l147 113c6 4.66699 11.667 6.16699 17 4.5s9.66602 -4.16699 12.999 -7.5l58 -62
c3.33301 -3.33301 5.16602 -6.66602 5.49902 -9.99902s-0.166992 -6.16602 -1.5 -8.49902s-3.16602 -4.5 -5.49902 -6.5s-4.16602 -3.33301 -5.49902 -4z" />
    <glyph glyph-name="Thorn" unicode="&#xde;" horiz-adv-x="513" 
d="M61 598c0 13.333 8.33301 20.002 25 20.002h93c16.667 0 25 -6.66699 25 -20v-86c0 -4.66699 1 -8.33398 3 -11.001s6.33301 -4 13 -4h67c30 0 57.167 -4.5 81.5 -13.5s45.166 -21.833 62.499 -38.5s30.666 -36.5 39.999 -59.5s14 -48.833 14 -77.5
c0 -26 -4.83301 -50 -14.5 -72s-23.167 -41 -40.5 -57s-38.166 -28.333 -62.499 -37s-51.166 -13 -80.499 -13h-67c-6.66699 0 -11 -1.33301 -13 -4s-3 -6.33398 -3 -11.001v-94c0 -13.333 -8.33301 -20 -25 -20h-93c-16.667 0 -25 6.66699 -25 20v578zM343 312.002
c0 16.667 -5.16699 30.499 -15.5 41.499s-23.833 16.5 -40.5 16.5h-63c-8.66699 0 -14.167 -2.16699 -16.5 -6.5s-3.5 -9.16602 -3.5 -14.499v-71c0 -8.66699 1.83301 -14.5 5.5 -17.5s8.5 -4.5 14.5 -4.5h63c16.667 0 30.167 5.5 40.5 16.5s15.5 24.167 15.5 39.5z" />
    <glyph glyph-name="germandbls" unicode="&#xdf;" horiz-adv-x="496" 
d="M246 -10c-13.333 0 -20 6.33008 -20 18.9971v70c0 5.33301 1.83301 9.83301 5.5 13.5s8.5 5.5 14.5 5.5h7c17.333 0 31.333 7 42 21s16 29 16 45v81c0 15.333 -3.66699 29.333 -11 42s-21 19 -41 19h-4c-13.333 0 -20 5.66699 -20 17v60c0 11.333 6.66699 17 20 17h10
c13.333 0 22.666 4.83301 27.999 14.5s8 20.834 8 33.501c0 16.667 -4.83301 30.334 -14.5 41.001s-22.5 16 -38.5 16c-16.667 0 -29.834 -5.16699 -39.501 -15.5s-14.5 -24.166 -14.5 -41.499v-427c0 -14 -7.33301 -21 -22 -21h-93c-14.667 0 -22 7 -22 21v418
c0 27.333 4.33301 52.5 13 75.5s21.334 42.833 38.001 59.5s36.5 29.667 59.5 39s49.167 14 78.5 14c30 0 57 -4.33301 81 -13s44.333 -20.834 61 -36.501s29.5 -34.167 38.5 -55.5s13.5 -45 13.5 -71c0 -8 -1.33301 -16.5 -4 -25.5s-6.16699 -17.667 -10.5 -26
s-9.83301 -15.833 -16.5 -22.5s-14 -11.667 -22 -15c-7.33301 -3.33301 -10 -5.66602 -8 -6.99902s4.66699 -2.66602 8 -3.99902c10.667 -3.33301 19.834 -8.5 27.501 -15.5s14.167 -15 19.5 -24s9.33301 -18.667 12 -29s4 -20.5 4 -30.5v-83c0 -26.667 -5 -51 -15 -73
s-23.5 -40.833 -40.5 -56.5s-36.833 -27.834 -59.5 -36.501s-47 -13 -73 -13h-16z" />
    <glyph glyph-name="agrave" unicode="&#xe0;" horiz-adv-x="484" 
d="M286 286c1.33301 -1.33301 3.3291 -2 5.99609 -2c3.33301 0 5 2 5 6v15c0 5.33301 -0.833008 10.666 -2.5 15.999s-5.16699 10.333 -10.5 15s-12.666 8.33398 -21.999 11.001s-21.666 4 -36.999 4s-30.166 -1 -44.499 -3s-30.166 -6 -47.499 -12
c-10.667 -3.33301 -17.667 -4.5 -21 -3.5s-6 4.5 -8 10.5l-17 63c-3.33301 13.333 0.333984 22.333 11.001 27c44 18 95.333 27 154 27c68 0 116 -16.167 144 -48.5s42 -77.833 42 -136.5v-257c0 -12 -5.66699 -18 -17 -18h-101c-3.33301 0 -6.5 1.16699 -9.5 3.5
s-4.5 6.16602 -4.5 11.499v4c0 6 -1.66699 9 -5 9c-2 0 -4.66699 -1.33301 -8 -4c-15.333 -12 -30.333 -20 -45 -24s-30.667 -6 -48 -6c-25.333 0 -47.833 3.83301 -67.5 11.5s-36.334 18.334 -50.001 32.001s-24.167 30 -31.5 49s-11 39.833 -11 62.5s3.66699 43.667 11 63
s18.166 36 32.499 50s31.833 25 52.5 33s44 12 70 12c13.333 0 26.833 -1.5 40.5 -4.5s26.834 -8.5 39.501 -16.5zM166.996 154c0 -16 5.16699 -29.5 15.5 -40.5s25.166 -16.5 44.499 -16.5c18 0 32.5 5.33301 43.5 16s16.5 24.334 16.5 41.001
c0 16 -5.16699 29.5 -15.5 40.5s-25.166 16.5 -44.499 16.5c-18 0 -32.5 -5.33301 -43.5 -16s-16.5 -24.334 -16.5 -41.001zM133.996 635c-4 4 -5.99902 9 -5.99902 15c0 6.66699 3.33301 11.667 10 15l76 37c4 1.33301 7.33301 2 10 2c8.66699 0 15 -3.33301 19 -10
l97 -158c2 -4 3 -7.66699 3 -11c0 -5.33301 -3.33301 -10 -10 -14l-38 -21c-6.66699 -3.33301 -12.334 -5 -17.001 -5s-8.66699 1.66699 -12 5z" />
    <glyph glyph-name="aacute" unicode="&#xe1;" horiz-adv-x="484" 
d="M286 286c1.33301 -1.33301 3.3291 -2 5.99609 -2c3.33301 0 5 2 5 6v15c0 5.33301 -0.833008 10.666 -2.5 15.999s-5.16699 10.333 -10.5 15s-12.666 8.33398 -21.999 11.001s-21.666 4 -36.999 4s-30.166 -1 -44.499 -3s-30.166 -6 -47.499 -12
c-10.667 -3.33301 -17.667 -4.5 -21 -3.5s-6 4.5 -8 10.5l-17 63c-3.33301 13.333 0.333984 22.333 11.001 27c44 18 95.333 27 154 27c68 0 116 -16.167 144 -48.5s42 -77.833 42 -136.5v-257c0 -12 -5.66699 -18 -17 -18h-101c-3.33301 0 -6.5 1.16699 -9.5 3.5
s-4.5 6.16602 -4.5 11.499v4c0 6 -1.66699 9 -5 9c-2 0 -4.66699 -1.33301 -8 -4c-15.333 -12 -30.333 -20 -45 -24s-30.667 -6 -48 -6c-25.333 0 -47.833 3.83301 -67.5 11.5s-36.334 18.334 -50.001 32.001s-24.167 30 -31.5 49s-11 39.833 -11 62.5s3.66699 43.667 11 63
s18.166 36 32.499 50s31.833 25 52.5 33s44 12 70 12c13.333 0 26.833 -1.5 40.5 -4.5s26.834 -8.5 39.501 -16.5zM166.996 154c0 -16 5.16699 -29.5 15.5 -40.5s25.166 -16.5 44.499 -16.5c18 0 32.5 5.33301 43.5 16s16.5 24.334 16.5 41.001
c0 16 -5.16699 29.5 -15.5 40.5s-25.166 16.5 -44.499 16.5c-18 0 -32.5 -5.33301 -43.5 -16s-16.5 -24.334 -16.5 -41.001zM255.996 490c-4 -4 -8.49902 -5.66602 -13.499 -4.99902s-10.167 2.33398 -15.5 5.00098l-38 21c-6 3.33301 -9.33301 7.16602 -10 11.499
s0.333008 8.83301 3 13.5l97 158c4 6 8.83301 9.33301 14.5 10s10.5 0 14.5 -2l76 -37c8.66699 -4 12.167 -9.33301 10.5 -16s-3.83398 -11.334 -6.50098 -14.001z" />
    <glyph glyph-name="acircumflex" unicode="&#xe2;" horiz-adv-x="484" 
d="M286 286c1.33301 -1.33301 3.3291 -2 5.99609 -2c3.33301 0 5 2 5 6v15c0 5.33301 -0.833008 10.666 -2.5 15.999s-5.16699 10.333 -10.5 15s-12.666 8.33398 -21.999 11.001s-21.666 4 -36.999 4s-30.166 -1 -44.499 -3s-30.166 -6 -47.499 -12
c-10.667 -3.33301 -17.667 -4.5 -21 -3.5s-6 4.5 -8 10.5l-17 63c-3.33301 13.333 0.333984 22.333 11.001 27c44 18 95.333 27 154 27c68 0 116 -16.167 144 -48.5s42 -77.833 42 -136.5v-257c0 -12 -5.66699 -18 -17 -18h-101c-3.33301 0 -6.5 1.16699 -9.5 3.5
s-4.5 6.16602 -4.5 11.499v4c0 6 -1.66699 9 -5 9c-2 0 -4.66699 -1.33301 -8 -4c-15.333 -12 -30.333 -20 -45 -24s-30.667 -6 -48 -6c-25.333 0 -47.833 3.83301 -67.5 11.5s-36.334 18.334 -50.001 32.001s-24.167 30 -31.5 49s-11 39.833 -11 62.5s3.66699 43.667 11 63
s18.166 36 32.499 50s31.833 25 52.5 33s44 12 70 12c13.333 0 26.833 -1.5 40.5 -4.5s26.834 -8.5 39.501 -16.5zM166.996 154c0 -16 5.16699 -29.5 15.5 -40.5s25.166 -16.5 44.499 -16.5c18 0 32.5 5.33301 43.5 16s16.5 24.334 16.5 41.001
c0 16 -5.16699 29.5 -15.5 40.5s-25.166 16.5 -44.499 16.5c-18 0 -32.5 -5.33301 -43.5 -16s-16.5 -24.334 -16.5 -41.001zM429.996 535c2 -3.33301 2.99902 -6.66602 2.99902 -9.99902c0 -4.66699 -2.33301 -8.33398 -7 -11.001l-42 -29c-3.33301 -2.66699 -7 -4 -11 -4
c-3.33301 0 -7 2 -11 6l-97 100c-3.33301 3.33301 -5.66602 5 -6.99902 5s-3.33301 -1.33301 -6 -4l-97 -102c-4 -4 -7.33301 -6 -10 -6c-1.33301 0 -5.33301 1.33301 -12 4l-41 27c-4 1.33301 -6 4 -6 8s1.66699 8.33301 5 13l97 138c3.33301 3.33301 6.5 6 9.5 8
s7.16699 3 12.5 3h101c5.33301 0 9.5 -1 12.5 -3s6.16699 -4.66699 9.5 -8z" />
    <glyph glyph-name="atilde" unicode="&#xe3;" horiz-adv-x="484" 
d="M286 286c1.33301 -1.33301 3.3291 -2 5.99609 -2c3.33301 0 5 2 5 6v15c0 5.33301 -0.833008 10.666 -2.5 15.999s-5.16699 10.333 -10.5 15s-12.666 8.33398 -21.999 11.001s-21.666 4 -36.999 4s-30.166 -1 -44.499 -3s-30.166 -6 -47.499 -12
c-10.667 -3.33301 -17.667 -4.5 -21 -3.5s-6 4.5 -8 10.5l-17 63c-3.33301 13.333 0.333984 22.333 11.001 27c44 18 95.333 27 154 27c68 0 116 -16.167 144 -48.5s42 -77.833 42 -136.5v-257c0 -12 -5.66699 -18 -17 -18h-101c-3.33301 0 -6.5 1.16699 -9.5 3.5
s-4.5 6.16602 -4.5 11.499v4c0 6 -1.66699 9 -5 9c-2 0 -4.66699 -1.33301 -8 -4c-15.333 -12 -30.333 -20 -45 -24s-30.667 -6 -48 -6c-25.333 0 -47.833 3.83301 -67.5 11.5s-36.334 18.334 -50.001 32.001s-24.167 30 -31.5 49s-11 39.833 -11 62.5s3.66699 43.667 11 63
s18.166 36 32.499 50s31.833 25 52.5 33s44 12 70 12c13.333 0 26.833 -1.5 40.5 -4.5s26.834 -8.5 39.501 -16.5zM166.996 154c0 -16 5.16699 -29.5 15.5 -40.5s25.166 -16.5 44.499 -16.5c18 0 32.5 5.33301 43.5 16s16.5 24.334 16.5 41.001
c0 16 -5.16699 29.5 -15.5 40.5s-25.166 16.5 -44.499 16.5c-18 0 -32.5 -5.33301 -43.5 -16s-16.5 -24.334 -16.5 -41.001zM192.996 643c11.333 0 22.3281 -1.66797 32.9951 -5.00098s20.834 -7.16602 30.501 -11.499l28 -12c9 -3.66699 17.5 -5.5 25.5 -5.5
c8.66699 0 16.5 2 23.5 6s14.167 10.667 21.5 20c2.66699 4 6.33398 6 11.001 6c2.66699 0 6 -1 10 -3l41 -25c7.33301 -4 11 -8 11 -12c0 -1.33301 -0.666992 -4 -2 -8c-16 -32 -32.667 -53.667 -50 -65s-35.333 -17 -54 -17c-9.33301 0 -19.166 1.66699 -29.499 5
s-20.666 7 -30.999 11s-20.5 7.66699 -30.5 11s-19.333 5 -28 5c-6.66699 0 -14 -1.33301 -22 -4s-16.667 -9.66699 -26 -21c-3.33301 -5.33301 -6.66602 -8 -9.99902 -8c-2 0 -5 1 -9 3l-45 27c-4 2 -6 5 -6 9c0 1.33301 0.666992 4 2 8c14 33.333 30.5 56 49.5 68
s37.833 18 56.5 18z" />
    <glyph glyph-name="adieresis" unicode="&#xe4;" horiz-adv-x="484" 
d="M286 286c1.33301 -1.33301 3.3291 -2 5.99609 -2c3.33301 0 5 2 5 6v15c0 5.33301 -0.833008 10.666 -2.5 15.999s-5.16699 10.333 -10.5 15s-12.666 8.33398 -21.999 11.001s-21.666 4 -36.999 4s-30.166 -1 -44.499 -3s-30.166 -6 -47.499 -12
c-10.667 -3.33301 -17.667 -4.5 -21 -3.5s-6 4.5 -8 10.5l-17 63c-3.33301 13.333 0.333984 22.333 11.001 27c44 18 95.333 27 154 27c68 0 116 -16.167 144 -48.5s42 -77.833 42 -136.5v-257c0 -12 -5.66699 -18 -17 -18h-101c-3.33301 0 -6.5 1.16699 -9.5 3.5
s-4.5 6.16602 -4.5 11.499v4c0 6 -1.66699 9 -5 9c-2 0 -4.66699 -1.33301 -8 -4c-15.333 -12 -30.333 -20 -45 -24s-30.667 -6 -48 -6c-25.333 0 -47.833 3.83301 -67.5 11.5s-36.334 18.334 -50.001 32.001s-24.167 30 -31.5 49s-11 39.833 -11 62.5s3.66699 43.667 11 63
s18.166 36 32.499 50s31.833 25 52.5 33s44 12 70 12c13.333 0 26.833 -1.5 40.5 -4.5s26.834 -8.5 39.501 -16.5zM166.996 154c0 -16 5.16699 -29.5 15.5 -40.5s25.166 -16.5 44.499 -16.5c18 0 32.5 5.33301 43.5 16s16.5 24.334 16.5 41.001
c0 16 -5.16699 29.5 -15.5 40.5s-25.166 16.5 -44.499 16.5c-18 0 -32.5 -5.33301 -43.5 -16s-16.5 -24.334 -16.5 -41.001zM413.996 564c0 -20 -7 -36.667 -21 -50s-31.333 -20 -52 -20c-21.333 0 -39 6.5 -53 19.5s-21 29.833 -21 50.5c0 19.333 7 35.833 21 49.5
s31.667 20.5 53 20.5c20.667 0 38 -6.83301 52 -20.5s21 -30.167 21 -49.5zM224.996 564c0 -20 -7 -36.667 -21 -50s-31.667 -20 -53 -20s-38.833 6.5 -52.5 19.5s-20.5 29.833 -20.5 50.5c0 19.333 7 35.833 21 49.5s31.333 20.5 52 20.5c21.333 0 39 -6.83301 53 -20.5
s21 -30.167 21 -49.5z" />
    <glyph glyph-name="aring" unicode="&#xe5;" horiz-adv-x="484" 
d="M286 286c1.33301 -1.33301 3.3291 -2 5.99609 -2c3.33301 0 5 2 5 6v15c0 5.33301 -0.833008 10.666 -2.5 15.999s-5.16699 10.333 -10.5 15s-12.666 8.33398 -21.999 11.001s-21.666 4 -36.999 4s-30.166 -1 -44.499 -3s-30.166 -6 -47.499 -12
c-10.667 -3.33301 -17.667 -4.5 -21 -3.5s-6 4.5 -8 10.5l-17 63c-3.33301 13.333 0.333984 22.333 11.001 27c44 18 95.333 27 154 27c68 0 116 -16.167 144 -48.5s42 -77.833 42 -136.5v-257c0 -12 -5.66699 -18 -17 -18h-101c-3.33301 0 -6.5 1.16699 -9.5 3.5
s-4.5 6.16602 -4.5 11.499v4c0 6 -1.66699 9 -5 9c-2 0 -4.66699 -1.33301 -8 -4c-15.333 -12 -30.333 -20 -45 -24s-30.667 -6 -48 -6c-25.333 0 -47.833 3.83301 -67.5 11.5s-36.334 18.334 -50.001 32.001s-24.167 30 -31.5 49s-11 39.833 -11 62.5s3.66699 43.667 11 63
s18.166 36 32.499 50s31.833 25 52.5 33s44 12 70 12c13.333 0 26.833 -1.5 40.5 -4.5s26.834 -8.5 39.501 -16.5zM166.996 154c0 -16 5.16699 -29.5 15.5 -40.5s25.166 -16.5 44.499 -16.5c18 0 32.5 5.33301 43.5 16s16.5 24.334 16.5 41.001
c0 16 -5.16699 29.5 -15.5 40.5s-25.166 16.5 -44.499 16.5c-18 0 -32.5 -5.33301 -43.5 -16s-16.5 -24.334 -16.5 -41.001zM367.996 587c0 -12.667 -2.5 -24.499 -7.5 -35.499s-11.833 -20.5 -20.5 -28.5s-18.834 -14.333 -30.501 -19s-23.834 -7 -36.501 -7
c-26 0 -47.667 8.66699 -65 26s-26 38.666 -26 63.999c0 24.667 8.5 46 25.5 64s38.833 27 65.5 27c12.667 0 24.834 -2.33301 36.501 -7s21.834 -11.167 30.501 -19.5s15.5 -18 20.5 -29s7.5 -22.833 7.5 -35.5zM306.996 587.001c0 8.66699 -3.33301 16.332 -10 22.999
s-14.667 10 -24 10c-8.66699 0 -16 -3.16699 -22 -9.5s-9 -14.166 -9 -23.499s3 -17 9 -23s13.333 -9 22 -9c9.33301 0 17.333 3 24 9s10 13.667 10 23z" />
    <glyph glyph-name="ae" unicode="&#xe6;" horiz-adv-x="738" 
d="M697 234c0 -10.667 -3.00391 -19.166 -9.00391 -25.499s-14.667 -9.5 -26 -9.5h-199c-8.66699 0 -14.334 -1.83301 -17.001 -5.5s-4 -7.5 -4 -11.5v-11c0 -15.333 5.5 -28.5 16.5 -39.5s25.167 -16.5 42.5 -16.5c19.333 0 35.166 4.83301 47.499 14.5
s22.166 18.5 29.499 26.5c3.33301 4 6.66602 7.5 9.99902 10.5s9.33301 1.83301 18 -3.5l60 -38c7.33301 -5.33301 13.166 -10.5 17.499 -15.5s3.83301 -12.167 -1.5 -21.5c-17.333 -31.333 -41.333 -54.833 -72 -70.5s-67 -23.5 -109 -23.5c-28 0 -53.167 3.5 -75.5 10.5
s-42.166 17.167 -59.499 30.5c-4 2.66699 -7.16699 3.66699 -9.5 3s-4.16602 -1.66699 -5.49902 -3c-18.667 -14 -39.667 -24.667 -63 -32s-47.333 -11 -72 -11c-26.667 0 -50.667 3.66699 -72 11s-39.666 18 -54.999 32s-27.166 30.667 -35.499 50s-12.5 41 -12.5 65
c0 22.667 3.66699 44 11 64s18.333 37.167 33 51.5s32.834 25.666 54.501 33.999s47.167 12.5 76.5 12.5c14 0 27.833 -2.33301 41.5 -7s24.834 -10.334 33.501 -17.001c7.33301 -4.66699 11 -3.66699 11 3v20c0 13.333 -6.16699 24.5 -18.5 33.5s-30.166 13.5 -53.499 13.5
c-16 0 -33.667 -3 -53 -9s-35.666 -11.667 -48.999 -17c-6.66699 -2.66699 -12.667 -2.66699 -18 0s-9 7 -11 13l-19 54c-2 6 -1.66699 11.333 1 16s6.66699 8.33398 12 11.001c26 11.333 49.833 19.666 71.5 24.999s47.167 8 76.5 8c23.333 0 45.5 -2.83301 66.5 -8.5
s39.5 -13.167 55.5 -22.5c7.33301 -5.33301 13.333 -5.66602 18 -0.999023c32.667 21.333 72.667 32 120 32c26.667 0 51.834 -4 75.501 -12s44.5 -19.667 62.5 -35s32.167 -34 42.5 -56s15.5 -46.667 15.5 -74v-48zM290.996 156.001
c0 14.667 -5.33398 27.332 -16.001 37.999s-23.667 16 -39 16c-17.333 0 -31.166 -5.16699 -41.499 -15.5s-15.5 -23.166 -15.5 -38.499s5.16699 -28.166 15.5 -38.499s23.833 -15.5 40.5 -15.5c18 0 31.833 5.66699 41.5 17s14.5 23.666 14.5 36.999zM557.995 307.999
c-4 7.33301 -10.834 14.168 -20.501 20.501s-21.834 9.5 -36.501 9.5c-13.333 0 -24.666 -3.33301 -33.999 -10s-15.666 -14 -18.999 -22c-4.66699 -10.667 -5.33398 -17.334 -2.00098 -20.001s9 -4 17 -4h84c16.667 0 20.334 8.66699 11.001 26z" />
    <glyph glyph-name="ccedilla" unicode="&#xe7;" horiz-adv-x="441" 
d="M342 -115c0 -10 -1.99805 -20.5 -5.99805 -31.5s-10.333 -21 -19 -30s-20.167 -16.333 -34.5 -22s-31.833 -8.5 -52.5 -8.5c-17.333 0 -33 2.33301 -47 7s-26.667 11 -38 19c-3.33301 2.66699 -6 5.33398 -8 8.00098s-0.666992 6.66699 4 12l24 27
c4.66699 5.33301 8 8 10 8s5 -1.33301 9 -4c6 -3.33301 12.833 -6.5 20.5 -9.5s15.5 -4.5 23.5 -4.5c16 0 27.167 3 33.5 9s9.5 12.333 9.5 19c0 3.33301 -1.5 8.16602 -4.5 14.499s-11.167 9.5 -24.5 9.5h-35c-11.333 -0.666992 -20.833 2.83301 -28.5 10.5
s-10.167 17.167 -7.5 28.5l14 52c-45.333 8.66699 -81.166 28.167 -107.499 58.5s-39.5 68.166 -39.5 113.499v111c0 26.667 4.66699 50.834 14 72.501s22.666 40.167 39.999 55.5s38.166 27.333 62.499 36s51.5 13 81.5 13c47.333 0 85 -9.33301 113 -28
s50.667 -45.334 68 -80.001c1.33301 -2.66699 2 -6 2 -10c0 -3.33301 -0.833008 -7.16602 -2.5 -11.499s-4.83398 -7.5 -9.50098 -9.5l-68 -38c-10.667 -5.33301 -19 -5 -25 1s-11.333 12.667 -16 20c-8.66699 14 -18.667 23.333 -30 28s-22 7 -32 7
c-17.333 0 -31.5 -5.5 -42.5 -16.5s-16.5 -24.167 -16.5 -39.5v-111c0 -15.333 5.5 -28.5 16.5 -39.5s25.167 -16.5 42.5 -16.5c8.66699 0 16.834 1.66699 24.501 5s14.667 7.5 21 12.5s11.666 10.333 15.999 16l11.5 14.5c2.66699 3.33301 5.16699 6.16602 7.5 8.49902
s5.5 3.5 9.5 3.5s8.33301 -1.33301 13 -4l73 -35c9.33301 -4.66699 14 -10.667 14 -18c0 -4 -1 -8.33301 -3 -13c-17.333 -35.333 -40.833 -62.166 -70.5 -80.499s-64.5 -28.5 -104.5 -30.5l-5 -20c-1.33301 -2 -0.333008 -3 3 -3h7c24 0 44.833 -7.5 62.5 -22.5
s26.5 -36.167 26.5 -63.5z" />
    <glyph glyph-name="egrave" unicode="&#xe8;" horiz-adv-x="477" 
d="M436 234c0 -10.667 -2.99609 -19.1719 -8.99609 -25.5049s-14.667 -9.5 -26 -9.5h-199c-8.66699 0 -14.334 -1.83301 -17.001 -5.5s-4 -7.5 -4 -11.5v-11c0 -15.333 5.5 -28.5 16.5 -39.5s25.167 -16.5 42.5 -16.5c19.333 0 35.166 4.83301 47.499 14.5
s22.166 18.5 29.499 26.5c2.66699 2.66699 5 5.33398 7 8.00098s4.66699 4 8 4s7.66602 -1.66699 12.999 -5l60 -38c5.33301 -3.33301 10 -6.83301 14 -10.5s6 -8.16699 6 -13.5c0 -4 -1.33301 -8.33301 -4 -13c-17.333 -31.333 -41.333 -54.833 -72 -70.5
s-67 -23.5 -109 -23.5c-30 0 -57.167 4.16699 -81.5 12.5s-45.166 20.333 -62.499 36s-30.666 34.334 -39.999 56.001s-14 45.834 -14 72.501v111c0 26.667 4.83301 50.834 14.5 72.501s23.167 40.167 40.5 55.5s38.166 27.333 62.499 36s51.166 13 80.499 13
c59.333 0 106.833 -15.667 142.5 -47s53.5 -74.666 53.5 -129.999v-48zM297.004 310.995c-4 7.33301 -10.834 14.167 -20.501 20.5s-21.834 9.5 -36.501 9.5c-13.333 0 -24.666 -3.33301 -33.999 -10s-15.666 -14 -18.999 -22c-2.66699 -5.33301 -4 -10.333 -4 -15
c0 -8 6.33301 -12 19 -12h84c10 0 15 4.66699 15 14c0 4.66699 -1.33301 9.66699 -4 15zM96.0029 634.996c-4 4 -5.99902 9 -5.99902 15c0 6.66699 3.33301 11.667 10 15l76 37c4 1.33301 7.33301 2 10 2c8.66699 0 15 -3.33301 19 -10l97 -158c2 -4 3 -7.66699 3 -11
c0 -5.33301 -3.33301 -10 -10 -14l-38 -21c-6.66699 -3.33301 -12.334 -5 -17.001 -5s-8.66699 1.66699 -12 5z" />
    <glyph glyph-name="eacute" unicode="&#xe9;" horiz-adv-x="477" 
d="M436 234c0 -10.667 -2.99609 -19.1719 -8.99609 -25.5049s-14.667 -9.5 -26 -9.5h-199c-8.66699 0 -14.334 -1.83301 -17.001 -5.5s-4 -7.5 -4 -11.5v-11c0 -15.333 5.5 -28.5 16.5 -39.5s25.167 -16.5 42.5 -16.5c19.333 0 35.166 4.83301 47.499 14.5
s22.166 18.5 29.499 26.5c2.66699 2.66699 5 5.33398 7 8.00098s4.66699 4 8 4s7.66602 -1.66699 12.999 -5l60 -38c5.33301 -3.33301 10 -6.83301 14 -10.5s6 -8.16699 6 -13.5c0 -4 -1.33301 -8.33301 -4 -13c-17.333 -31.333 -41.333 -54.833 -72 -70.5
s-67 -23.5 -109 -23.5c-30 0 -57.167 4.16699 -81.5 12.5s-45.166 20.333 -62.499 36s-30.666 34.334 -39.999 56.001s-14 45.834 -14 72.501v111c0 26.667 4.83301 50.834 14.5 72.501s23.167 40.167 40.5 55.5s38.166 27.333 62.499 36s51.166 13 80.499 13
c59.333 0 106.833 -15.667 142.5 -47s53.5 -74.666 53.5 -129.999v-48zM297.004 310.995c-4 7.33301 -10.834 14.167 -20.501 20.5s-21.834 9.5 -36.501 9.5c-13.333 0 -24.666 -3.33301 -33.999 -10s-15.666 -14 -18.999 -22c-2.66699 -5.33301 -4 -10.333 -4 -15
c0 -8 6.33301 -12 19 -12h84c10 0 15 4.66699 15 14c0 4.66699 -1.33301 9.66699 -4 15zM240.003 489.996c-4 -4 -8.49902 -5.66602 -13.499 -4.99902s-10.167 2.33398 -15.5 5.00098l-38 21c-6 3.33301 -9.33301 7.16602 -10 11.499s0.333008 8.83301 3 13.5l97 158
c4 6 8.83301 9.33301 14.5 10s10.5 0 14.5 -2l76 -37c8.66699 -4 12.167 -9.33301 10.5 -16s-3.83398 -11.334 -6.50098 -14.001z" />
    <glyph glyph-name="ecircumflex" unicode="&#xea;" horiz-adv-x="477" 
d="M436 234c0 -10.667 -2.99609 -19.1719 -8.99609 -25.5049s-14.667 -9.5 -26 -9.5h-199c-8.66699 0 -14.334 -1.83301 -17.001 -5.5s-4 -7.5 -4 -11.5v-11c0 -15.333 5.5 -28.5 16.5 -39.5s25.167 -16.5 42.5 -16.5c19.333 0 35.166 4.83301 47.499 14.5
s22.166 18.5 29.499 26.5c2.66699 2.66699 5 5.33398 7 8.00098s4.66699 4 8 4s7.66602 -1.66699 12.999 -5l60 -38c5.33301 -3.33301 10 -6.83301 14 -10.5s6 -8.16699 6 -13.5c0 -4 -1.33301 -8.33301 -4 -13c-17.333 -31.333 -41.333 -54.833 -72 -70.5
s-67 -23.5 -109 -23.5c-30 0 -57.167 4.16699 -81.5 12.5s-45.166 20.333 -62.499 36s-30.666 34.334 -39.999 56.001s-14 45.834 -14 72.501v111c0 26.667 4.83301 50.834 14.5 72.501s23.167 40.167 40.5 55.5s38.166 27.333 62.499 36s51.166 13 80.499 13
c59.333 0 106.833 -15.667 142.5 -47s53.5 -74.666 53.5 -129.999v-48zM297.004 310.995c-4 7.33301 -10.834 14.167 -20.501 20.5s-21.834 9.5 -36.501 9.5c-13.333 0 -24.666 -3.33301 -33.999 -10s-15.666 -14 -18.999 -22c-2.66699 -5.33301 -4 -10.333 -4 -15
c0 -8 6.33301 -12 19 -12h84c10 0 15 4.66699 15 14c0 4.66699 -1.33301 9.66699 -4 15zM408.003 534.996c2 -3.33301 2.99902 -6.66602 2.99902 -9.99902c0 -4.66699 -2.33301 -8.33398 -7 -11.001l-42 -29c-3.33301 -2.66699 -7 -4 -11 -4c-3.33301 0 -7 2 -11 6l-97 100
c-3.33301 3.33301 -5.66602 5 -6.99902 5s-3.33301 -1.33301 -6 -4l-97 -102c-4 -4 -7.33301 -6 -10 -6c-1.33301 0 -5.33301 1.33301 -12 4l-41 27c-4 1.33301 -6 4 -6 8s1.66699 8.33301 5 13l97 138c3.33301 3.33301 6.5 6 9.5 8s7.16699 3 12.5 3h101
c5.33301 0 9.5 -1 12.5 -3s6.16699 -4.66699 9.5 -8z" />
    <glyph glyph-name="edieresis" unicode="&#xeb;" horiz-adv-x="477" 
d="M436 234c0 -10.667 -2.99609 -19.1719 -8.99609 -25.5049s-14.667 -9.5 -26 -9.5h-199c-8.66699 0 -14.334 -1.83301 -17.001 -5.5s-4 -7.5 -4 -11.5v-11c0 -15.333 5.5 -28.5 16.5 -39.5s25.167 -16.5 42.5 -16.5c19.333 0 35.166 4.83301 47.499 14.5
s22.166 18.5 29.499 26.5c2.66699 2.66699 5 5.33398 7 8.00098s4.66699 4 8 4s7.66602 -1.66699 12.999 -5l60 -38c5.33301 -3.33301 10 -6.83301 14 -10.5s6 -8.16699 6 -13.5c0 -4 -1.33301 -8.33301 -4 -13c-17.333 -31.333 -41.333 -54.833 -72 -70.5
s-67 -23.5 -109 -23.5c-30 0 -57.167 4.16699 -81.5 12.5s-45.166 20.333 -62.499 36s-30.666 34.334 -39.999 56.001s-14 45.834 -14 72.501v111c0 26.667 4.83301 50.834 14.5 72.501s23.167 40.167 40.5 55.5s38.166 27.333 62.499 36s51.166 13 80.499 13
c59.333 0 106.833 -15.667 142.5 -47s53.5 -74.666 53.5 -129.999v-48zM297.004 310.995c-4 7.33301 -10.834 14.167 -20.501 20.5s-21.834 9.5 -36.501 9.5c-13.333 0 -24.666 -3.33301 -33.999 -10s-15.666 -14 -18.999 -22c-2.66699 -5.33301 -4 -10.333 -4 -15
c0 -8 6.33301 -12 19 -12h84c10 0 15 4.66699 15 14c0 4.66699 -1.33301 9.66699 -4 15zM410.003 563.996c0 -20 -7 -36.667 -21 -50s-31.333 -20 -52 -20c-21.333 0 -39 6.5 -53 19.5s-21 29.833 -21 50.5c0 19.333 7 35.833 21 49.5s31.667 20.5 53 20.5
c20.667 0 38 -6.83301 52 -20.5s21 -30.167 21 -49.5zM221.003 563.996c0 -20 -7 -36.667 -21 -50s-31.667 -20 -53 -20s-38.833 6.5 -52.5 19.5s-20.5 29.833 -20.5 50.5c0 19.333 7 35.833 21 49.5s31.333 20.5 52 20.5c21.333 0 39 -6.83301 53 -20.5
s21 -30.167 21 -49.5z" />
    <glyph glyph-name="igrave" unicode="&#xec;" horiz-adv-x="244" 
d="M191 21c0 -14 -7.66699 -21 -23 -21h-93c-14.667 0 -22 7 -22 21v407c0 14.667 7.33301 22 22 22h93c6 0 11.333 -1.83301 16 -5.5s7 -9.16699 7 -16.5v-407zM-24 635c-4 4 -5.99902 9 -5.99902 15c0 6.66699 3.33301 11.667 10 15l76 37c4 1.33301 7.33301 2 10 2
c8.66699 0 15 -3.33301 19 -10l97 -158c2 -4 3 -7.66699 3 -11c0 -5.33301 -3.33301 -10 -10 -14l-38 -21c-6.66699 -3.33301 -12.334 -5 -17.001 -5s-8.66699 1.66699 -12 5z" />
    <glyph glyph-name="iacute" unicode="&#xed;" horiz-adv-x="244" 
d="M191 21c0 -14 -7.66699 -21 -23 -21h-93c-14.667 0 -22 7 -22 21v407c0 14.667 7.33301 22 22 22h93c6 0 11.333 -1.83301 16 -5.5s7 -9.16699 7 -16.5v-407zM134 490c-4 -4 -8.49902 -5.66602 -13.499 -4.99902s-10.167 2.33398 -15.5 5.00098l-38 21
c-6 3.33301 -9.33301 7.16602 -10 11.499s0.333008 8.83301 3 13.5l97 158c4 6 8.83301 9.33301 14.5 10s10.5 0 14.5 -2l76 -37c8.66699 -4 12.167 -9.33301 10.5 -16s-3.83398 -11.334 -6.50098 -14.001z" />
    <glyph glyph-name="icircumflex" unicode="&#xee;" horiz-adv-x="244" 
d="M191 21c0 -14 -7.66699 -21 -23 -21h-93c-14.667 0 -22 7 -22 21v407c0 14.667 7.33301 22 22 22h93c6 0 11.333 -1.83301 16 -5.5s7 -9.16699 7 -16.5v-407zM299 535c2 -3.33301 2.99902 -6.66602 2.99902 -9.99902c0 -4.66699 -2.33301 -8.33398 -7 -11.001l-42 -29
c-3.33301 -2.66699 -7 -4 -11 -4c-3.33301 0 -7 2 -11 6l-97 100c-3.33301 3.33301 -5.66602 5 -6.99902 5s-3.33301 -1.33301 -6 -4l-97 -102c-4 -4 -7.33301 -6 -10 -6c-1.33301 0 -5.33301 1.33301 -12 4l-41 27c-4 1.33301 -6 4 -6 8s1.66699 8.33301 5 13l97 138
c3.33301 3.33301 6.5 6 9.5 8s7.16699 3 12.5 3h101c5.33301 0 9.5 -1 12.5 -3s6.16699 -4.66699 9.5 -8z" />
    <glyph glyph-name="idieresis" unicode="&#xef;" horiz-adv-x="244" 
d="M191 21c0 -14 -7.66699 -21 -23 -21h-93c-14.667 0 -22 7 -22 21v407c0 14.667 7.33301 22 22 22h93c6 0 11.333 -1.83301 16 -5.5s7 -9.16699 7 -16.5v-407zM285 564c0 -20 -7 -36.667 -21 -50s-31.333 -20 -52 -20c-21.333 0 -39 6.5 -53 19.5s-21 29.833 -21 50.5
c0 19.333 7 35.833 21 49.5s31.667 20.5 53 20.5c20.667 0 38 -6.83301 52 -20.5s21 -30.167 21 -49.5zM96 564c0 -20 -7 -36.667 -21 -50s-31.667 -20 -53 -20s-38.833 6.5 -52.5 19.5s-20.5 29.833 -20.5 50.5c0 19.333 7 35.833 21 49.5s31.333 20.5 52 20.5
c21.333 0 39 -6.83301 53 -20.5s21 -30.167 21 -49.5z" />
    <glyph glyph-name="eth" unicode="&#xf0;" horiz-adv-x="485" 
d="M397 562c-3.33301 -4 -3.33203 -9.00098 0.000976562 -15.001c13.333 -22 22.833 -47 28.5 -75s8.5 -58.333 8.5 -91v-195c0 -60.667 -17.333 -107.834 -52 -141.501s-81.667 -50.5 -141 -50.5c-29.333 0 -56.333 3.83301 -81 11.5s-45.834 19 -63.501 34
s-31.334 33.833 -41.001 56.5s-14.5 49.334 -14.5 80.001v56c0 54.667 14.5 98.667 43.5 132s72.167 50 129.5 50c21.333 0 40 -3 56 -9s27.667 -11.667 35 -17c4.66699 -3.33301 7 -2.33301 7 3v34c0 11.333 -1.33301 21.333 -4 30c-0.666992 2 -2 4 -4 6
s-5.33301 0.666992 -10 -4l-26 -26c-8 -6.66699 -15 -7 -21 -1l-29 26c-8.66699 8 -8.66699 16.333 0 25l29 29c3.33301 3.33301 4 6.16602 2 8.49902s-4 3.83301 -6 4.5c-17.333 6 -37 9 -59 9c-6 0 -11.833 1.66699 -17.5 5s-8.5 8.66602 -8.5 15.999v66
c0.666992 14 8.66699 21 24 21c31.333 0 58.833 -2.66699 82.5 -8s44.834 -12.666 63.501 -21.999c2 -1.33301 4.5 -2.66602 7.5 -3.99902s6.5 0.333984 10.5 5.00098l33 34c4 3.33301 7.66699 5.33301 11 6s7.33301 -1.33301 12 -6l29 -24c8 -8 8 -16 0 -24z
M296.001 244.999c0 17.333 -5.83105 30.8359 -17.498 40.5029s-25.834 14.5 -42.501 14.5c-14.667 0 -27.834 -5.33301 -39.501 -16s-17.5 -24.334 -17.5 -41.001v-73c0 -16.667 6 -29.834 18 -39.501s25.333 -14.5 40 -14.5c16 0 29.833 4.66699 41.5 14
s17.5 22.666 17.5 39.999v75z" />
    <glyph glyph-name="ntilde" unicode="&#xf1;" horiz-adv-x="497" 
d="M446 21c0 -14 -7.00293 -21.001 -21.0029 -21.001h-94c-7.33301 0 -13.166 1.83301 -17.499 5.5s-6.5 8.83398 -6.5 15.501v260c0 15.333 -4.16699 28.333 -12.5 39s-23.5 16 -45.5 16c-17.333 0 -31.333 -5.33301 -42 -16s-16 -23.667 -16 -39v-260
c0 -14 -7.66699 -21 -23 -21h-93c-14.667 0 -22 7 -22 21v408c0 14 7.33301 21 22 21h98c12 0 18 -7 18 -21c0 -4 1.33301 -6 4 -6c1.33301 0 3.33301 1.33301 6 4c9.33301 7.33301 22.5 14.166 39.5 20.499s33.833 9.5 50.5 9.5c26.667 0 49.834 -4.5 69.501 -13.5
s35.834 -21.167 48.501 -36.5s22 -33.666 28 -54.999s9 -44.333 9 -69v-262zM176.997 642.999c11.333 0 22.3281 -1.66797 32.9951 -5.00098s20.834 -7.16602 30.501 -11.499l28 -12c9 -3.66699 17.5 -5.5 25.5 -5.5c8.66699 0 16.5 2 23.5 6s14.167 10.667 21.5 20
c2.66699 4 6.33398 6 11.001 6c2.66699 0 6 -1 10 -3l41 -25c7.33301 -4 11 -8 11 -12c0 -1.33301 -0.666992 -4 -2 -8c-16 -32 -32.667 -53.667 -50 -65s-35.333 -17 -54 -17c-9.33301 0 -19.166 1.66699 -29.499 5s-20.666 7 -30.999 11s-20.5 7.66699 -30.5 11
s-19.333 5 -28 5c-6.66699 0 -14 -1.33301 -22 -4s-16.667 -9.66699 -26 -21c-3.33301 -5.33301 -6.66602 -8 -9.99902 -8c-2 0 -5 1 -9 3l-45 27c-4 2 -6 5 -6 9c0 1.33301 0.666992 4 2 8c14 33.333 30.5 56 49.5 68s37.833 18 56.5 18z" />
    <glyph glyph-name="ograve" unicode="&#xf2;" horiz-adv-x="487" 
d="M441 168c0 -28.667 -5 -53.832 -15 -75.499s-24 -39.834 -42 -54.501s-39 -25.667 -63 -33s-50 -11 -78 -11c-29.333 0 -56.166 4 -80.499 12s-45.166 19.5 -62.499 34.5s-30.666 32.667 -39.999 53s-14 43.166 -14 68.499v125c0 24.667 4.66699 47.667 14 69
s22.666 39.5 39.999 54.5s38 26.833 62 35.5s51 13 81 13c29.333 0 56.166 -3.66699 80.499 -11s45.166 -18.166 62.499 -32.499s30.833 -32.333 40.5 -54s14.5 -46.5 14.5 -74.5v-119zM302 282.002c0 17.333 -5.33203 30.8359 -15.999 40.5029s-25.334 14.5 -44.001 14.5
c-18 0 -32.167 -5.33301 -42.5 -16s-15.5 -24.334 -15.5 -41.001v-111c0 -16.667 5.33301 -29.834 16 -39.501s25 -14.5 43 -14.5s32.333 4.66699 43 14s16 22.666 16 39.999v113zM111.001 635.005c-4 4 -5.99902 9 -5.99902 15c0 6.66699 3.33301 11.667 10 15l76 37
c4 1.33301 7.33301 2 10 2c8.66699 0 15 -3.33301 19 -10l97 -158c2 -4 3 -7.66699 3 -11c0 -5.33301 -3.33301 -10 -10 -14l-38 -21c-6.66699 -3.33301 -12.334 -5 -17.001 -5s-8.66699 1.66699 -12 5z" />
    <glyph glyph-name="oacute" unicode="&#xf3;" horiz-adv-x="487" 
d="M441 168c0 -28.667 -5 -53.832 -15 -75.499s-24 -39.834 -42 -54.501s-39 -25.667 -63 -33s-50 -11 -78 -11c-29.333 0 -56.166 4 -80.499 12s-45.166 19.5 -62.499 34.5s-30.666 32.667 -39.999 53s-14 43.166 -14 68.499v125c0 24.667 4.66699 47.667 14 69
s22.666 39.5 39.999 54.5s38 26.833 62 35.5s51 13 81 13c29.333 0 56.166 -3.66699 80.499 -11s45.166 -18.166 62.499 -32.499s30.833 -32.333 40.5 -54s14.5 -46.5 14.5 -74.5v-119zM302 282.002c0 17.333 -5.33203 30.8359 -15.999 40.5029s-25.334 14.5 -44.001 14.5
c-18 0 -32.167 -5.33301 -42.5 -16s-15.5 -24.334 -15.5 -41.001v-111c0 -16.667 5.33301 -29.834 16 -39.501s25 -14.5 43 -14.5s32.333 4.66699 43 14s16 22.666 16 39.999v113zM239.001 490.005c-4 -4 -8.49902 -5.66602 -13.499 -4.99902s-10.167 2.33398 -15.5 5.00098
l-38 21c-6 3.33301 -9.33301 7.16602 -10 11.499s0.333008 8.83301 3 13.5l97 158c4 6 8.83301 9.33301 14.5 10s10.5 0 14.5 -2l76 -37c8.66699 -4 12.167 -9.33301 10.5 -16s-3.83398 -11.334 -6.50098 -14.001z" />
    <glyph glyph-name="ocircumflex" unicode="&#xf4;" horiz-adv-x="487" 
d="M441 168c0 -28.667 -5 -53.832 -15 -75.499s-24 -39.834 -42 -54.501s-39 -25.667 -63 -33s-50 -11 -78 -11c-29.333 0 -56.166 4 -80.499 12s-45.166 19.5 -62.499 34.5s-30.666 32.667 -39.999 53s-14 43.166 -14 68.499v125c0 24.667 4.66699 47.667 14 69
s22.666 39.5 39.999 54.5s38 26.833 62 35.5s51 13 81 13c29.333 0 56.166 -3.66699 80.499 -11s45.166 -18.166 62.499 -32.499s30.833 -32.333 40.5 -54s14.5 -46.5 14.5 -74.5v-119zM302 282.002c0 17.333 -5.33203 30.8359 -15.999 40.5029s-25.334 14.5 -44.001 14.5
c-18 0 -32.167 -5.33301 -42.5 -16s-15.5 -24.334 -15.5 -41.001v-111c0 -16.667 5.33301 -29.834 16 -39.501s25 -14.5 43 -14.5s32.333 4.66699 43 14s16 22.666 16 39.999v113zM416.001 535.005c2 -3.33301 2.99902 -6.66602 2.99902 -9.99902
c0 -4.66699 -2.33301 -8.33398 -7 -11.001l-42 -29c-3.33301 -2.66699 -7 -4 -11 -4c-3.33301 0 -7 2 -11 6l-97 100c-3.33301 3.33301 -5.66602 5 -6.99902 5s-3.33301 -1.33301 -6 -4l-97 -102c-4 -4 -7.33301 -6 -10 -6c-1.33301 0 -5.33301 1.33301 -12 4l-41 27
c-4 1.33301 -6 4 -6 8s1.66699 8.33301 5 13l97 138c3.33301 3.33301 6.5 6 9.5 8s7.16699 3 12.5 3h101c5.33301 0 9.5 -1 12.5 -3s6.16699 -4.66699 9.5 -8z" />
    <glyph glyph-name="otilde" unicode="&#xf5;" horiz-adv-x="487" 
d="M441 168c0 -28.667 -5 -53.832 -15 -75.499s-24 -39.834 -42 -54.501s-39 -25.667 -63 -33s-50 -11 -78 -11c-29.333 0 -56.166 4 -80.499 12s-45.166 19.5 -62.499 34.5s-30.666 32.667 -39.999 53s-14 43.166 -14 68.499v125c0 24.667 4.66699 47.667 14 69
s22.666 39.5 39.999 54.5s38 26.833 62 35.5s51 13 81 13c29.333 0 56.166 -3.66699 80.499 -11s45.166 -18.166 62.499 -32.499s30.833 -32.333 40.5 -54s14.5 -46.5 14.5 -74.5v-119zM302 282.002c0 17.333 -5.33203 30.8359 -15.999 40.5029s-25.334 14.5 -44.001 14.5
c-18 0 -32.167 -5.33301 -42.5 -16s-15.5 -24.334 -15.5 -41.001v-111c0 -16.667 5.33301 -29.834 16 -39.501s25 -14.5 43 -14.5s32.333 4.66699 43 14s16 22.666 16 39.999v113zM188.001 643.005c11.333 0 22.3281 -1.66797 32.9951 -5.00098
s20.834 -7.16602 30.501 -11.499l28 -12c9 -3.66699 17.5 -5.5 25.5 -5.5c8.66699 0 16.5 2 23.5 6s14.167 10.667 21.5 20c2.66699 4 6.33398 6 11.001 6c2.66699 0 6 -1 10 -3l41 -25c7.33301 -4 11 -8 11 -12c0 -1.33301 -0.666992 -4 -2 -8
c-16 -32 -32.667 -53.667 -50 -65s-35.333 -17 -54 -17c-9.33301 0 -19.166 1.66699 -29.499 5s-20.666 7 -30.999 11s-20.5 7.66699 -30.5 11s-19.333 5 -28 5c-6.66699 0 -14 -1.33301 -22 -4s-16.667 -9.66699 -26 -21c-3.33301 -5.33301 -6.66602 -8 -9.99902 -8
c-2 0 -5 1 -9 3l-45 27c-4 2 -6 5 -6 9c0 1.33301 0.666992 4 2 8c14 33.333 30.5 56 49.5 68s37.833 18 56.5 18z" />
    <glyph glyph-name="odieresis" unicode="&#xf6;" horiz-adv-x="487" 
d="M441 168c0 -28.667 -5 -53.832 -15 -75.499s-24 -39.834 -42 -54.501s-39 -25.667 -63 -33s-50 -11 -78 -11c-29.333 0 -56.166 4 -80.499 12s-45.166 19.5 -62.499 34.5s-30.666 32.667 -39.999 53s-14 43.166 -14 68.499v125c0 24.667 4.66699 47.667 14 69
s22.666 39.5 39.999 54.5s38 26.833 62 35.5s51 13 81 13c29.333 0 56.166 -3.66699 80.499 -11s45.166 -18.166 62.499 -32.499s30.833 -32.333 40.5 -54s14.5 -46.5 14.5 -74.5v-119zM302 282.002c0 17.333 -5.33203 30.8359 -15.999 40.5029s-25.334 14.5 -44.001 14.5
c-18 0 -32.167 -5.33301 -42.5 -16s-15.5 -24.334 -15.5 -41.001v-111c0 -16.667 5.33301 -29.834 16 -39.501s25 -14.5 43 -14.5s32.333 4.66699 43 14s16 22.666 16 39.999v113zM413.001 564.005c0 -20 -7 -36.667 -21 -50s-31.333 -20 -52 -20
c-21.333 0 -39 6.5 -53 19.5s-21 29.833 -21 50.5c0 19.333 7 35.833 21 49.5s31.667 20.5 53 20.5c20.667 0 38 -6.83301 52 -20.5s21 -30.167 21 -49.5zM224.001 564.005c0 -20 -7 -36.667 -21 -50s-31.667 -20 -53 -20s-38.833 6.5 -52.5 19.5s-20.5 29.833 -20.5 50.5
c0 19.333 7 35.833 21 49.5s31.333 20.5 52 20.5c21.333 0 39 -6.83301 53 -20.5s21 -30.167 21 -49.5z" />
    <glyph glyph-name="divide" unicode="&#xf7;" horiz-adv-x="519" 
d="M344 472c0 -22 -8.16699 -40.999 -24.5 -56.999s-36.5 -24 -60.5 -24s-44.333 7.83301 -61 23.5s-25 34.834 -25 57.501c0 23.333 8.5 42.666 25.5 57.999s37.167 23 60.5 23s43.333 -7.83301 60 -23.5s25 -34.834 25 -57.501zM344 112.001
c0 -10.667 -2.16602 -20.832 -6.49902 -30.499s-10.333 -18.167 -18 -25.5s-16.667 -13.166 -27 -17.499s-21.5 -6.5 -33.5 -6.5s-23.167 2 -33.5 6s-19.333 9.66699 -27 17s-13.834 15.833 -18.501 25.5s-7 20.167 -7 31.5c0 23.333 8.5 42.666 25.5 57.999
s37.167 23 60.5 23s43.333 -7.83301 60 -23.5s25 -34.834 25 -57.501zM480.001 271.003c0 -16.667 -8 -25 -24 -25h-394c-16 0 -24 8 -24 24v47c0 14.667 8 22 24 22h394c16 0 24 -7.33301 24 -22v-46z" />
    <glyph glyph-name="oslash" unicode="&#xf8;" horiz-adv-x="487" 
d="M117 31c-4 2.66699 -7.66797 2 -11.001 -2l-22 -25c-6 -8.66699 -12.667 -9.66699 -20 -3l-25 23c-5.33301 4.66699 -4.33301 11.667 3 21l22 26l4.5 6c1 1.33301 0.833008 3.33301 -0.5 6c-14.667 24 -22 50.333 -22 79v125c0 24.667 4.83301 47.667 14.5 69
s23.334 39.5 41.001 54.5s38.5 26.833 62.5 35.5s50.333 13 79 13c21.333 0 42.5 -2.83301 63.5 -8.5s40.167 -13.834 57.5 -24.501c2 -1.33301 4 -2.16602 6 -2.49902s4.33301 0.833984 7 3.50098l24 27c7.33301 7.33301 14 8.33301 20 3l26 -22
c4.66699 -6 3.66699 -13.333 -3 -22l-26 -29c-2 -2.66699 -2.66699 -4.66699 -2 -6s1.66699 -3.66602 3 -6.99902c14.667 -25.333 22 -53.333 22 -84v-119c0 -28.667 -5.33301 -53.834 -16 -75.501s-25.167 -39.834 -43.5 -54.501s-39.5 -25.667 -63.5 -33s-49 -11 -75 -11
c-48 0 -90 12.333 -126 37zM205.999 142c-6 -7.33301 -5.99902 -12.666 0.000976562 -15.999c11.333 -7.33301 23.666 -11 36.999 -11c16 0 29.833 4.66699 41.5 14s17.5 22.666 17.5 39.999v72c0 6 -2.33301 6.66699 -7 2zM184 214c0 -3.33301 0.5 -4.66699 1.5 -4
s2.16699 1.66699 3.5 3l90 102c4.66699 4.66699 3 9.33398 -5 14.001c-9.33301 5.33301 -20 8 -32 8c-14.667 0 -28 -5.33301 -40 -16s-18 -24.334 -18 -41.001v-66z" />
    <glyph glyph-name="ugrave" unicode="&#xf9;" horiz-adv-x="488" 
d="M47 429c0 14 7.00098 21.0039 21.001 21.0039h94c7.33301 0 13.166 -1.83301 17.499 -5.5s6.5 -8.83398 6.5 -15.501v-260c0 -15.333 4 -28.333 12 -39s23.333 -16 46 -16c21.333 0 36.333 6.16699 45 18.5s13 24.5 13 36.5v260c0 14 7.66699 21 23 21h93
c14.667 0 22 -7 22 -21v-408c0 -14 -7.33301 -21 -22 -21h-98c-12 0 -18 7 -18 21c0 3.33301 -1 5.16602 -3 5.49902s-4.33301 -0.833984 -7 -3.50098c-11.333 -10 -26 -17.5 -44 -22.5s-35.333 -7.5 -52 -7.5c-27.333 0 -50.333 4.5 -69 13.5s-34 21.167 -46 36.5
s-20.667 33.666 -26 54.999s-8 44.333 -8 69v262zM114.001 635.004c-4 4 -5.99902 9 -5.99902 15c0 6.66699 3.33301 11.667 10 15l76 37c4 1.33301 7.33301 2 10 2c8.66699 0 15 -3.33301 19 -10l97 -158c2 -4 3 -7.66699 3 -11c0 -5.33301 -3.33301 -10 -10 -14l-38 -21
c-6.66699 -3.33301 -12.334 -5 -17.001 -5s-8.66699 1.66699 -12 5z" />
    <glyph glyph-name="uacute" unicode="&#xfa;" horiz-adv-x="488" 
d="M47 429c0 14 7.00098 21.0039 21.001 21.0039h94c7.33301 0 13.166 -1.83301 17.499 -5.5s6.5 -8.83398 6.5 -15.501v-260c0 -15.333 4 -28.333 12 -39s23.333 -16 46 -16c21.333 0 36.333 6.16699 45 18.5s13 24.5 13 36.5v260c0 14 7.66699 21 23 21h93
c14.667 0 22 -7 22 -21v-408c0 -14 -7.33301 -21 -22 -21h-98c-12 0 -18 7 -18 21c0 3.33301 -1 5.16602 -3 5.49902s-4.33301 -0.833984 -7 -3.50098c-11.333 -10 -26 -17.5 -44 -22.5s-35.333 -7.5 -52 -7.5c-27.333 0 -50.333 4.5 -69 13.5s-34 21.167 -46 36.5
s-20.667 33.666 -26 54.999s-8 44.333 -8 69v262zM252.001 490.004c-4 -4 -8.49902 -5.66602 -13.499 -4.99902s-10.167 2.33398 -15.5 5.00098l-38 21c-6 3.33301 -9.33301 7.16602 -10 11.499s0.333008 8.83301 3 13.5l97 158c4 6 8.83301 9.33301 14.5 10s10.5 0 14.5 -2
l76 -37c8.66699 -4 12.167 -9.33301 10.5 -16s-3.83398 -11.334 -6.50098 -14.001z" />
    <glyph glyph-name="ucircumflex" unicode="&#xfb;" horiz-adv-x="488" 
d="M47 429c0 14 7.00098 21.0039 21.001 21.0039h94c7.33301 0 13.166 -1.83301 17.499 -5.5s6.5 -8.83398 6.5 -15.501v-260c0 -15.333 4 -28.333 12 -39s23.333 -16 46 -16c21.333 0 36.333 6.16699 45 18.5s13 24.5 13 36.5v260c0 14 7.66699 21 23 21h93
c14.667 0 22 -7 22 -21v-408c0 -14 -7.33301 -21 -22 -21h-98c-12 0 -18 7 -18 21c0 3.33301 -1 5.16602 -3 5.49902s-4.33301 -0.833984 -7 -3.50098c-11.333 -10 -26 -17.5 -44 -22.5s-35.333 -7.5 -52 -7.5c-27.333 0 -50.333 4.5 -69 13.5s-34 21.167 -46 36.5
s-20.667 33.666 -26 54.999s-8 44.333 -8 69v262zM414.001 535.004c2 -3.33301 2.99902 -6.66602 2.99902 -9.99902c0 -4.66699 -2.33301 -8.33398 -7 -11.001l-42 -29c-3.33301 -2.66699 -7 -4 -11 -4c-3.33301 0 -7 2 -11 6l-97 100
c-3.33301 3.33301 -5.66602 5 -6.99902 5s-3.33301 -1.33301 -6 -4l-97 -102c-4 -4 -7.33301 -6 -10 -6c-1.33301 0 -5.33301 1.33301 -12 4l-41 27c-4 1.33301 -6 4 -6 8s1.66699 8.33301 5 13l97 138c3.33301 3.33301 6.5 6 9.5 8s7.16699 3 12.5 3h101
c5.33301 0 9.5 -1 12.5 -3s6.16699 -4.66699 9.5 -8z" />
    <glyph glyph-name="udieresis" unicode="&#xfc;" horiz-adv-x="488" 
d="M47 429c0 14 7.00098 21.0039 21.001 21.0039h94c7.33301 0 13.166 -1.83301 17.499 -5.5s6.5 -8.83398 6.5 -15.501v-260c0 -15.333 4 -28.333 12 -39s23.333 -16 46 -16c21.333 0 36.333 6.16699 45 18.5s13 24.5 13 36.5v260c0 14 7.66699 21 23 21h93
c14.667 0 22 -7 22 -21v-408c0 -14 -7.33301 -21 -22 -21h-98c-12 0 -18 7 -18 21c0 3.33301 -1 5.16602 -3 5.49902s-4.33301 -0.833984 -7 -3.50098c-11.333 -10 -26 -17.5 -44 -22.5s-35.333 -7.5 -52 -7.5c-27.333 0 -50.333 4.5 -69 13.5s-34 21.167 -46 36.5
s-20.667 33.666 -26 54.999s-8 44.333 -8 69v262zM413.001 564.004c0 -20 -7 -36.667 -21 -50s-31.333 -20 -52 -20c-21.333 0 -39 6.5 -53 19.5s-21 29.833 -21 50.5c0 19.333 7 35.833 21 49.5s31.667 20.5 53 20.5c20.667 0 38 -6.83301 52 -20.5s21 -30.167 21 -49.5z
M224.001 564.004c0 -20 -7 -36.667 -21 -50s-31.667 -20 -53 -20s-38.833 6.5 -52.5 19.5s-20.5 29.833 -20.5 50.5c0 19.333 7 35.833 21 49.5s31.333 20.5 52 20.5c21.333 0 39 -6.83301 53 -20.5s21 -30.167 21 -49.5z" />
    <glyph glyph-name="yacute" unicode="&#xfd;" horiz-adv-x="474" 
d="M278 -161c-2 -6 -5.16504 -11 -9.49805 -15s-10.166 -6 -17.499 -6h-92c-7.33301 0 -12.833 2.16699 -16.5 6.5s-3.83398 11.166 -0.500977 20.499l39 136c2 7.33301 2.33301 12.333 1 15s-5.33301 4 -12 4h-12c-8 0 -13.833 2 -17.5 6s-6.5 9 -8.5 15l-120 404
c-2.66699 8.66699 -2.16699 15 1.5 19s9.16699 6 16.5 6h107c8.66699 0 14.5 -2 17.5 -6s5.5 -9.33301 7.5 -16l42 -167l24 -106c1.33301 -5.33301 3.33301 -7.5 6 -6.5s4.66699 3.16699 6 6.5l76 273c2 6.66699 5.16699 12 9.5 16s11.166 6 20.499 6h96
c7.33301 0 13.166 -2.66699 17.499 -8s4.83301 -12.666 1.5 -21.999zM260.002 490c-4 -4 -8.49902 -5.66602 -13.499 -4.99902s-10.167 2.33398 -15.5 5.00098l-38 21c-6 3.33301 -9.33301 7.16602 -10 11.499s0.333008 8.83301 3 13.5l97 158c4 6 8.83301 9.33301 14.5 10
s10.5 0 14.5 -2l76 -37c8.66699 -4 12.167 -9.33301 10.5 -16s-3.83398 -11.334 -6.50098 -14.001z" />
    <glyph glyph-name="thorn" unicode="&#xfe;" horiz-adv-x="485" 
d="M445 169c0 -25.333 -4.33105 -48.666 -12.998 -69.999s-20.834 -40 -36.501 -56s-34.667 -28.5 -57 -37.5s-47.166 -13.5 -74.499 -13.5c-8.66699 0 -18.167 1 -28.5 3s-19.166 5.33301 -26.499 10c-12.667 8.66699 -19 8.66699 -19 0v-165
c0 -7.33301 -2.16699 -12.666 -6.5 -15.999s-9.5 -5 -15.5 -5h-93c-15.333 0 -23 7 -23 21v756c0 14 7.66699 21 23 21h94c6 0 11 -1 15 -3s6 -8 6 -18v-147c0 -8 0.833008 -13.333 2.5 -16s3.66699 -3.83398 6 -3.50098s4.66602 1.5 6.99902 3.5s4.16602 3.66699 5.49902 5
c10 8 21.167 13.333 33.5 16s23.5 4 33.5 4c30 0 55.5 -5.16699 76.5 -15.5s38.167 -23.833 51.5 -40.5s23.166 -35.834 29.499 -57.501s9.5 -43.5 9.5 -65.5v-110zM307.002 279c0 16 -5.5 29.333 -16.5 40s-24.833 16 -41.5 16c-17.333 0 -31.5 -5.5 -42.5 -16.5
s-16.5 -24.167 -16.5 -39.5v-110c0 -16 5.5 -29.333 16.5 -40s25.167 -16 42.5 -16s31.333 5.33301 42 16s16 24 16 40v110z" />
    <glyph glyph-name="ydieresis" unicode="&#xff;" horiz-adv-x="474" 
d="M278 -161c-2 -6 -5.16504 -11 -9.49805 -15s-10.166 -6 -17.499 -6h-92c-7.33301 0 -12.833 2.16699 -16.5 6.5s-3.83398 11.166 -0.500977 20.499l39 136c2 7.33301 2.33301 12.333 1 15s-5.33301 4 -12 4h-12c-8 0 -13.833 2 -17.5 6s-6.5 9 -8.5 15l-120 404
c-2.66699 8.66699 -2.16699 15 1.5 19s9.16699 6 16.5 6h107c8.66699 0 14.5 -2 17.5 -6s5.5 -9.33301 7.5 -16l42 -167l24 -106c1.33301 -5.33301 3.33301 -7.5 6 -6.5s4.66699 3.16699 6 6.5l76 273c2 6.66699 5.16699 12 9.5 16s11.166 6 20.499 6h96
c7.33301 0 13.166 -2.66699 17.499 -8s4.83301 -12.666 1.5 -21.999zM412.002 564c0 -20 -7 -36.667 -21 -50s-31.333 -20 -52 -20c-21.333 0 -39 6.5 -53 19.5s-21 29.833 -21 50.5c0 19.333 7 35.833 21 49.5s31.667 20.5 53 20.5c20.667 0 38 -6.83301 52 -20.5
s21 -30.167 21 -49.5zM223.002 564c0 -20 -7 -36.667 -21 -50s-31.667 -20 -53 -20s-38.833 6.5 -52.5 19.5s-20.5 29.833 -20.5 50.5c0 19.333 7 35.833 21 49.5s31.333 20.5 52 20.5c21.333 0 39 -6.83301 53 -20.5s21 -30.167 21 -49.5z" />
    <glyph glyph-name="Amacron" unicode="&#x100;" horiz-adv-x="507" 
d="M496 25c1.33301 -4 1.16699 -9.16602 -0.5 -15.499s-8.5 -9.5 -20.5 -9.5h-101c-6 0 -11.333 1.5 -16 4.5s-7.66699 7.5 -9 13.5l-15 71c-2 9.33301 -4.33301 15.5 -7 18.5s-7.33398 4.5 -14.001 4.5h-119c-8.66699 0 -13.834 -2 -15.501 -6s-3.5 -9 -5.5 -15l-15 -73
c-1.33301 -6.66699 -4.66602 -11.334 -9.99902 -14.001s-10.333 -4 -15 -4h-100c-6.66699 -0 -11.667 0.833008 -15 2.5s-5.5 3.66699 -6.5 6s-1.16699 5 -0.5 8s1.33398 5.83301 2.00098 8.5l144 576c4 11.333 12.333 17 25 17h142c5.33301 0 10.333 -0.666992 15 -2
s8 -6.33301 10 -15zM276.001 342.001l-20 103.001c-0.666992 3.33301 -2 5.16602 -4 5.49902s-3.33301 -1.5 -4 -5.5l-19 -103l-19 -102c-0.666992 -6.66699 2.66602 -10 9.99902 -10h69c3.33301 0 5.83301 0.833008 7.5 2.5s1.83398 5.16699 0.500977 10.5z
M376.001 692.002c0 -8.66699 -1.83203 -13.833 -5.49902 -15.5s-9.16699 -2.5 -16.5 -2.5h-212c-6 0 -11.167 1 -15.5 3s-6.5 7 -6.5 15v51c0 14.667 8 22 24 22h208c9.33301 0 15.666 -1.5 18.999 -4.5s5 -8.5 5 -16.5v-52z" />
    <glyph glyph-name="amacron" unicode="&#x101;" horiz-adv-x="484" 
d="M286 286c1.33301 -1.33301 3.3291 -2 5.99609 -2c3.33301 0 5 2 5 6v15c0 5.33301 -0.833008 10.666 -2.5 15.999s-5.16699 10.333 -10.5 15s-12.666 8.33398 -21.999 11.001s-21.666 4 -36.999 4s-30.166 -1 -44.499 -3s-30.166 -6 -47.499 -12
c-10.667 -3.33301 -17.667 -4.5 -21 -3.5s-6 4.5 -8 10.5l-17 63c-3.33301 13.333 0.333984 22.333 11.001 27c44 18 95.333 27 154 27c68 0 116 -16.167 144 -48.5s42 -77.833 42 -136.5v-257c0 -12 -5.66699 -18 -17 -18h-101c-3.33301 0 -6.5 1.16699 -9.5 3.5
s-4.5 6.16602 -4.5 11.499v4c0 6 -1.66699 9 -5 9c-2 0 -4.66699 -1.33301 -8 -4c-15.333 -12 -30.333 -20 -45 -24s-30.667 -6 -48 -6c-25.333 0 -47.833 3.83301 -67.5 11.5s-36.334 18.334 -50.001 32.001s-24.167 30 -31.5 49s-11 39.833 -11 62.5s3.66699 43.667 11 63
s18.166 36 32.499 50s31.833 25 52.5 33s44 12 70 12c13.333 0 26.833 -1.5 40.5 -4.5s26.834 -8.5 39.501 -16.5zM166.996 154c0 -16 5.16699 -29.5 15.5 -40.5s25.166 -16.5 44.499 -16.5c18 0 32.5 5.33301 43.5 16s16.5 24.334 16.5 41.001
c0 16 -5.16699 29.5 -15.5 40.5s-25.166 16.5 -44.499 16.5c-18 0 -32.5 -5.33301 -43.5 -16s-16.5 -24.334 -16.5 -41.001zM391.996 565c0 -8.66699 -1.83203 -13.833 -5.49902 -15.5s-9.16699 -2.5 -16.5 -2.5h-212c-6 0 -11.167 1 -15.5 3s-6.5 7 -6.5 15v51
c0 14.667 8 22 24 22h208c9.33301 0 15.666 -1.5 18.999 -4.5s5 -8.5 5 -16.5v-52z" />
    <glyph glyph-name="Abreve" unicode="&#x102;" horiz-adv-x="507" 
d="M496 25c1.33301 -4 1.16699 -9.16602 -0.5 -15.499s-8.5 -9.5 -20.5 -9.5h-101c-6 0 -11.333 1.5 -16 4.5s-7.66699 7.5 -9 13.5l-15 71c-2 9.33301 -4.33301 15.5 -7 18.5s-7.33398 4.5 -14.001 4.5h-119c-8.66699 0 -13.834 -2 -15.501 -6s-3.5 -9 -5.5 -15l-15 -73
c-1.33301 -6.66699 -4.66602 -11.334 -9.99902 -14.001s-10.333 -4 -15 -4h-100c-6.66699 -0 -11.667 0.833008 -15 2.5s-5.5 3.66699 -6.5 6s-1.16699 5 -0.5 8s1.33398 5.83301 2.00098 8.5l144 576c4 11.333 12.333 17 25 17h142c5.33301 0 10.333 -0.666992 15 -2
s8 -6.33301 10 -15zM104.001 794.001c-0.666992 7.33301 0 12.499 2 15.499s7.66699 4.5 17 4.5h45c10 0 15.5 -1.5 16.5 -4.5s2.5 -8.16699 4.5 -15.5c3.33301 -15.333 9.33301 -28.833 18 -40.5s21.667 -17.5 39 -17.5c19.333 0 32.5 5 39.5 15s12.833 24.667 17.5 44
c1.33301 3.33301 2.33301 6.16602 3 8.49902s1.5 4.33301 2.5 6s2.83301 2.83398 5.5 3.50098s7 1 13 1h44c9.33301 0 15.333 -1 18 -3s3.33398 -7.66699 2.00098 -17c-2 -19.333 -6.5 -38.166 -13.5 -56.499s-16.667 -34.5 -29 -48.5s-27 -25.167 -44 -33.5
s-36.5 -12.5 -58.5 -12.5s-41.5 4.16699 -58.5 12.5s-31.333 19.333 -43 33s-20.834 29.667 -27.501 48s-11 37.5 -13 57.5zM276.001 342l-20 103.001c-0.666992 3.33301 -2 5.16602 -4 5.49902s-3.33301 -1.5 -4 -5.5l-19 -103l-19 -102
c-0.666992 -6.66699 2.66602 -10 9.99902 -10h69c3.33301 0 5.83301 0.833008 7.5 2.5s1.83398 5.16699 0.500977 10.5z" />
    <glyph glyph-name="abreve" unicode="&#x103;" horiz-adv-x="484" 
d="M286 286c1.33301 -1.33301 3.3291 -2 5.99609 -2c3.33301 0 5 2 5 6v15c0 5.33301 -0.833008 10.666 -2.5 15.999s-5.16699 10.333 -10.5 15s-12.666 8.33398 -21.999 11.001s-21.666 4 -36.999 4s-30.166 -1 -44.499 -3s-30.166 -6 -47.499 -12
c-10.667 -3.33301 -17.667 -4.5 -21 -3.5s-6 4.5 -8 10.5l-17 63c-3.33301 13.333 0.333984 22.333 11.001 27c44 18 95.333 27 154 27c68 0 116 -16.167 144 -48.5s42 -77.833 42 -136.5v-257c0 -12 -5.66699 -18 -17 -18h-101c-3.33301 0 -6.5 1.16699 -9.5 3.5
s-4.5 6.16602 -4.5 11.499v4c0 6 -1.66699 9 -5 9c-2 0 -4.66699 -1.33301 -8 -4c-15.333 -12 -30.333 -20 -45 -24s-30.667 -6 -48 -6c-25.333 0 -47.833 3.83301 -67.5 11.5s-36.334 18.334 -50.001 32.001s-24.167 30 -31.5 49s-11 39.833 -11 62.5s3.66699 43.667 11 63
s18.166 36 32.499 50s31.833 25 52.5 33s44 12 70 12c13.333 0 26.833 -1.5 40.5 -4.5s26.834 -8.5 39.501 -16.5zM123.996 666c-0.666992 7.33301 0 12.499 2 15.499s7.66699 4.5 17 4.5h45c10 0 15.5 -1.5 16.5 -4.5s2.5 -8.16699 4.5 -15.5
c3.33301 -15.333 9.33301 -28.833 18 -40.5s21.667 -17.5 39 -17.5c19.333 0 32.5 5 39.5 15s12.833 24.667 17.5 44c1.33301 3.33301 2.33301 6.16602 3 8.49902s1.5 4.33301 2.5 6s2.83301 2.83398 5.5 3.50098s7 1 13 1h44c9.33301 0 15.333 -1 18 -3
s3.33398 -7.66699 2.00098 -17c-2 -19.333 -6.5 -38.166 -13.5 -56.499s-16.667 -34.5 -29 -48.5s-27 -25.167 -44 -33.5s-36.5 -12.5 -58.5 -12.5s-41.5 4.16699 -58.5 12.5s-31.333 19.333 -43 33s-20.834 29.667 -27.501 48s-11 37.5 -13 57.5zM166.996 153.999
c0 -16 5.16699 -29.5 15.5 -40.5s25.166 -16.5 44.499 -16.5c18 0 32.5 5.33301 43.5 16s16.5 24.334 16.5 41.001c0 16 -5.16699 29.5 -15.5 40.5s-25.166 16.5 -44.499 16.5c-18 0 -32.5 -5.33301 -43.5 -16s-16.5 -24.334 -16.5 -41.001z" />
    <glyph glyph-name="Aogonek" unicode="&#x104;" horiz-adv-x="507" 
d="M349 17l0.00195312 1.00391l-15 71c-2 9.33301 -4.33301 15.5 -7 18.5s-7.33398 4.5 -14.001 4.5h-119c-8.66699 0 -13.834 -2 -15.501 -6s-3.5 -9 -5.5 -15l-15 -73c-1.33301 -6.66699 -4.66602 -11.334 -9.99902 -14.001s-10.333 -4 -15 -4h-100
c-6.66699 0 -11.667 0.833008 -15 2.5s-5.5 3.66699 -6.5 6s-1.16699 5 -0.5 8s1.33398 5.83301 2.00098 8.5l144 576c4 11.333 12.333 17 25 17h142c5.33301 0 10.333 -0.666992 15 -2s8 -6.33301 10 -15l147 -576c1.33301 -4 1.16602 -9.16699 -0.500977 -15.5
s-8.5 -9.5 -20.5 -9.5h-64c-16.667 -17.333 -29.334 -36.333 -38.001 -57s-13 -39 -13 -55c0 -7.33301 1.5 -12.333 4.5 -15s7.16699 -4 12.5 -4c8.66699 0 18 1.83301 28 5.5s17.667 7.16699 23 10.5c6 3.33301 10.333 5.16602 13 5.49902s5.66699 -2.16699 9 -7.5l16 -22
c3.33301 -5.33301 4.83301 -9.5 4.5 -12.5s-3.16602 -6.83301 -8.49902 -11.5c-10.667 -8.66699 -24.834 -16.834 -42.501 -24.501s-35.5 -11.5 -53.5 -11.5c-30 0 -52.5 7.16699 -67.5 21.5s-22.5 34.166 -22.5 59.499c0 11.333 1.83301 23 5.5 35s8.5 23.5 14.5 34.5
s12.833 21.333 20.5 31s15.5 18.5 23.5 26.5zM276.002 342.004l-20 103.001c-0.666992 3.33301 -2 5.16602 -4 5.49902s-3.33301 -1.5 -4 -5.5l-19 -103l-19 -102c-0.666992 -6.66699 2.66602 -10 9.99902 -10h69c3.33301 0 5.83301 0.833008 7.5 2.5
s1.83398 5.16699 0.500977 10.5z" />
    <glyph glyph-name="aogonek" unicode="&#x105;" horiz-adv-x="484" 
d="M307 9c-0.666992 1.33301 -1.00293 3.33496 -1.00293 6.00195v4c0 6 -1.66699 9 -5 9c-2 0 -4.66699 -1.33301 -8 -4c-15.333 -12 -30.333 -20 -45 -24s-30.667 -6 -48 -6c-25.333 0 -47.833 3.83301 -67.5 11.5s-36.334 18.334 -50.001 32.001s-24.167 30 -31.5 49
s-11 39.833 -11 62.5s3.66699 43.667 11 63s18.166 36 32.499 50s31.833 25 52.5 33s44 12 70 12c13.333 0 26.833 -1.5 40.5 -4.5s26.834 -8.5 39.501 -16.5c1.33301 -1.33301 3.33301 -2 6 -2c3.33301 0 5 2 5 6v15c0 5.33301 -0.833008 10.666 -2.5 15.999
s-5.16699 10.333 -10.5 15s-12.666 8.33398 -21.999 11.001s-21.666 4 -36.999 4s-30.166 -1 -44.499 -3s-30.166 -6 -47.499 -12c-10.667 -3.33301 -17.667 -4.5 -21 -3.5s-6 4.5 -8 10.5l-17 63c-3.33301 13.333 0.333984 22.333 11.001 27c44 18 95.333 27 154 27
c68 0 116 -16.167 144 -48.5s42 -77.833 42 -136.5v-257c0 -12 -5.66699 -18 -17 -18h-43c-16.667 -17.333 -29.334 -36.333 -38.001 -57s-13 -39 -13 -55c0 -7.33301 1.5 -12.333 4.5 -15s7.16699 -4 12.5 -4c8.66699 0 18 1.83301 28 5.5s17.667 7.16699 23 10.5
c6 3.33301 10.333 5.16602 13 5.49902s5.66699 -2.16699 9 -7.5l16 -22c3.33301 -5.33301 4.83301 -9.5 4.5 -12.5s-3.16602 -6.83301 -8.49902 -11.5c-10.667 -8.66699 -24.834 -16.834 -42.501 -24.501s-35.5 -11.5 -53.5 -11.5c-30 0 -52.5 7.16699 -67.5 21.5
s-22.5 34.166 -22.5 59.499c0 11.333 1.83301 23 5.5 35s8.5 23.5 14.5 34.5s12.833 21.333 20.5 31s15.5 18.5 23.5 26.5zM166.997 154.002c0 -16 5.16699 -29.5 15.5 -40.5s25.166 -16.5 44.499 -16.5c18 0 32.5 5.33301 43.5 16s16.5 24.334 16.5 41.001
c0 16 -5.16699 29.5 -15.5 40.5s-25.166 16.5 -44.499 16.5c-18 0 -32.5 -5.33301 -43.5 -16s-16.5 -24.334 -16.5 -41.001z" />
    <glyph glyph-name="Cacute" unicode="&#x106;" horiz-adv-x="515" 
d="M266 -6c-32 0 -60.665 4.66504 -85.998 13.998s-47 22.166 -65 38.499s-31.667 36 -41 59s-14 48.167 -14 75.5v262c0 26.667 5.16699 51.334 15.5 74.001s24.666 42.334 42.999 59.001s40.166 29.5 65.499 38.5s52.666 13.5 81.999 13.5
c18.667 0 37.334 -1.5 56.001 -4.5s36.667 -8.5 54 -16.5s33.666 -19 48.999 -33s29.333 -31.667 42 -53c2 -4 3 -9 3 -15s-3.33301 -11 -10 -15l-72 -50c-8.66699 -3.33301 -15.5 -3.66602 -20.5 -0.999023s-9.16699 7 -12.5 13c-10 17.333 -21.667 29.833 -35 37.5
s-28.666 11.5 -45.999 11.5c-12.667 0 -23.5 -2 -32.5 -6s-16.5 -9.16699 -22.5 -15.5s-10.333 -13.5 -13 -21.5s-4 -15.667 -4 -23v-255c0 -14.667 5.33301 -28.167 16 -40.5s28.334 -18.5 53.001 -18.5c16.667 0 32.167 4.33301 46.5 13s26.5 20 36.5 34
c3.33301 3.33301 7 7.5 11 12.5s9.66699 5.5 17 1.5l81 -43c7.33301 -3.33301 12.333 -7.5 15 -12.5s2 -10.833 -2 -17.5c-26 -44 -56.833 -74.333 -92.5 -91s-74.834 -25 -117.501 -25zM239.002 649.998c-5.33301 -2.66699 -10.333 -2.66895 -15 -0.00195312
s-8.66699 6 -12 10l-28 33c-8 9.33301 -7.33301 18 2 26l147 113c6 4.66699 11.667 6.16699 17 4.5s9.66602 -4.16699 12.999 -7.5l58 -62c3.33301 -3.33301 5.16602 -6.66602 5.49902 -9.99902s-0.166992 -6.16602 -1.5 -8.49902s-3.16602 -4.5 -5.49902 -6.5
s-4.16602 -3.33301 -5.49902 -4z" />
    <glyph glyph-name="cacute" unicode="&#x107;" horiz-adv-x="441" 
d="M423 105c-17.333 -36.667 -42.166 -64.335 -74.499 -83.002s-69.833 -28 -112.5 -28c-30 0 -57.167 4.16699 -81.5 12.5s-45.166 20.333 -62.499 36s-30.666 34.334 -39.999 56.001s-14 45.834 -14 72.501v111c0 26.667 4.66699 50.834 14 72.501
s22.666 40.167 39.999 55.5s38.166 27.333 62.499 36s51.5 13 81.5 13c47.333 0 85 -9.33301 113 -28s50.667 -45.334 68 -80.001c1.33301 -2.66699 2 -6 2 -10c0 -3.33301 -0.833008 -7.16602 -2.5 -11.499s-4.83398 -7.5 -9.50098 -9.5l-68 -38
c-10.667 -5.33301 -19 -5 -25 1s-11.333 12.667 -16 20c-8.66699 14 -18.667 23.333 -30 28s-22 7 -32 7c-17.333 0 -31.5 -5.5 -42.5 -16.5s-16.5 -24.167 -16.5 -39.5v-111c0 -15.333 5.5 -28.5 16.5 -39.5s25.167 -16.5 42.5 -16.5c8.66699 0 16.834 1.66699 24.501 5
s14.667 7.5 21 12.5s11.666 10.333 15.999 16l11.5 14.5c2.66699 3.33301 5.16699 6.16602 7.5 8.49902s5.5 3.5 9.5 3.5s8.33301 -1.33301 13 -4l73 -35c9.33301 -4.66699 14 -10.667 14 -18c0 -4 -1 -8.33301 -3 -13zM228 489.999
c-4 -4 -8.49902 -5.66602 -13.499 -4.99902s-10.167 2.33398 -15.5 5.00098l-38 21c-6 3.33301 -9.33301 7.16602 -10 11.499s0.333008 8.83301 3 13.5l97 158c4 6 8.83301 9.33301 14.5 10s10.5 0 14.5 -2l76 -37c8.66699 -4 12.167 -9.33301 10.5 -16
s-3.83398 -11.334 -6.50098 -14.001z" />
    <glyph glyph-name="Ccircumflex" unicode="&#x108;" horiz-adv-x="515" 
d="M266 -6c-32 0 -60.665 4.66504 -85.998 13.998s-47 22.166 -65 38.499s-31.667 36 -41 59s-14 48.167 -14 75.5v262c0 26.667 5.16699 51.334 15.5 74.001s24.666 42.334 42.999 59.001s40.166 29.5 65.499 38.5s52.666 13.5 81.999 13.5
c18.667 0 37.334 -1.5 56.001 -4.5s36.667 -8.5 54 -16.5s33.666 -19 48.999 -33s29.333 -31.667 42 -53c2 -4 3 -9 3 -15s-3.33301 -11 -10 -15l-72 -50c-8.66699 -3.33301 -15.5 -3.66602 -20.5 -0.999023s-9.16699 7 -12.5 13c-10 17.333 -21.667 29.833 -35 37.5
s-28.666 11.5 -45.999 11.5c-12.667 0 -23.5 -2 -32.5 -6s-16.5 -9.16699 -22.5 -15.5s-10.333 -13.5 -13 -21.5s-4 -15.667 -4 -23v-255c0 -14.667 5.33301 -28.167 16 -40.5s28.334 -18.5 53.001 -18.5c16.667 0 32.167 4.33301 46.5 13s26.5 20 36.5 34
c3.33301 3.33301 7 7.5 11 12.5s9.66699 5.5 17 1.5l81 -43c7.33301 -3.33301 12.333 -7.5 15 -12.5s2 -10.833 -2 -17.5c-26 -44 -56.833 -74.333 -92.5 -91s-74.834 -25 -117.501 -25zM435.002 681.998c2.66699 -3.33301 4.5 -7 5.5 -11s-1.16699 -7 -6.5 -9l-50 -20
c-5.33301 -2.66699 -9.5 -3.83398 -12.5 -3.50098s-6.16699 2.16602 -9.5 5.49902l-97 91c-1.33301 1.33301 -3.33301 2.16602 -6 2.49902s-4.66699 -0.166992 -6 -1.5l-97 -93c-3.33301 -3.33301 -6.5 -5.16602 -9.5 -5.49902s-7.16699 0.833984 -12.5 3.50098l-47 21
c-5.33301 2.66699 -7.5 5.83398 -6.5 9.50098s2.83301 7.16699 5.5 10.5l103 135c3.33301 3.33301 6.5 5.83301 9.5 7.5s7.16699 2.5 12.5 2.5h100c5.33301 0 9.5 -0.833008 12.5 -2.5s6.16699 -4.16699 9.5 -7.5z" />
    </font>
</defs>
</svg>
