<?xml version="1.0" standalone="no"?>
<!DOCTYPE svg PUBLIC "-//W3C//DTD SVG 1.1//EN" "http://www.w3.org/Graphics/SVG/1.1/DTD/svg11.dtd" >
<svg>
<metadata>
Created by FontForge 20090914 at Fri Oct 12 07:49:32 2018
 By www-data
Copyright (c) 2005 Parachute&#194;&#168;, www.parachute.gr.  All rights reserved.
</metadata>
<defs>
<font id="PFHandbookPro-Thin" horiz-adv-x="1818" >
  <font-face 
    font-family="PF Handbook Pro Thin"
    font-weight="200"
    font-stretch="normal"
    units-per-em="1000"
    panose-1="2 0 5 6 0 0 0 2 0 4"
    ascent="750"
    descent="-250"
    x-height="434"
    cap-height="617"
    bbox="-160.571 -205.007 1760 913.002"
    underline-thickness="50"
    underline-position="-50"
    unicode-range="U+0020-U+FB05"
  />
<missing-glyph horiz-adv-x="432" 
d="M0 700h432v-700h-432v700zM376 669h-320l160 -291zM402 49v604l-166 -303zM376 31l-160 291l-160 -291h320zM30 51l166 299l-166 300v-599z" />
    <glyph glyph-name="fj" unicode="fj" horiz-adv-x="392" 
d="M332 -64c0 -38 -7.99805 -66.668 -23.998 -86.001s-41.667 -29 -77 -29c-9.33301 0 -18.333 0.5 -27 1.5s-15.667 2.5 -21 4.5c-4.66699 0.666992 -6.66699 3.66699 -6 9l5 22c1.33301 4 4.66602 5.66699 9.99902 5c5.33301 -1.33301 11.333 -2.33301 18 -3
s12.667 -1 18 -1c25.333 0 42.166 6.66699 50.499 20s12.5 33.333 12.5 60v454c0 4 -2 6 -6 6h-159c-4 -0.666992 -6 -3.66699 -6 -9v-384c0 -4 -2.33301 -6 -7 -6h-29c-4.66699 0 -7 2 -7 6v383c0 6 -1.66699 9.33301 -5 10h-50c-4 0 -6 2 -6 6v22c0 4.66699 2.33301 7 7 7
h47c5.33301 0 8 3 8 9v51c0 47.333 11 83.333 33 108s53 37 93 37c23.333 0 44.833 -3.33301 64.5 -10s36.5 -15.667 50.5 -27c4.66699 -3.33301 5.33398 -7 2.00098 -11l-12 -17c-2.66699 -3.33301 -4.83398 -4.66602 -6.50098 -3.99902s-3.5 1.66699 -5.5 3
c-11.333 8 -25.333 14.833 -42 20.5s-33.667 8.5 -51 8.5c-30 0 -51.5 -9.5 -64.5 -28.5s-19.5 -42.5 -19.5 -70.5v-60c0 -6 2.33301 -9 7 -9h199c4.66699 0 7 -2.33301 7 -7z" />
    <glyph glyph-name="ffj" unicode="ffj" horiz-adv-x="610" 
d="M551 -64c0 -38 -8.00098 -66.6689 -24.001 -86.002s-41.667 -29 -77 -29c-9.33301 0 -18.333 0.5 -27 1.5s-15.667 2.5 -21 4.5c-4.66699 0.666992 -6.66699 3.66699 -6 9l5 22c1.33301 4 4.66602 5.66699 9.99902 5c5.33301 -1.33301 11.333 -2.33301 18 -3
s12.667 -1 18 -1c25.333 0 42.166 6.66699 50.499 20s12.5 33.333 12.5 60v454c0 4 -2 6 -6 6h-159c-4 -0.666992 -6 -3.66699 -6 -9v-384c0 -4 -2.33301 -6 -7 -6h-28c-4.66699 0 -7 2 -7 6v383c0 6 -2 9.33301 -6 10h-158c-4 -0.666992 -6 -3.66699 -6 -9v-384
c0 -4 -2.33301 -6 -7 -6h-28c-4.66699 0 -7 2 -7 6v383c0 6 -2 9.33301 -6 10h-49c-4 0 -6 2 -6 6v22c0 4.66699 2 7 6 7h47c6 0 9 3 9 9v48c0 22 3.5 41.333 10.5 58s16.833 30.5 29.5 41.5s27.334 19.333 44.001 25s35 8.5 55 8.5c36.667 0 67.667 -6.33301 93 -19
c0.666992 0 1.33398 -0.166992 2.00098 -0.5s1.66699 -0.5 3 -0.5c2 0 3.33301 0.333008 4 1c12 12.667 26.333 22.334 43 29.001s34 10 52 10c22.667 0 44.334 -3.5 65.001 -10.5s38 -16.167 52 -27.5c4.66699 -3.33301 5.33398 -7 2.00098 -11l-12 -17
c-2.66699 -3.33301 -4.83398 -4.66602 -6.50098 -3.99902s-3.5 1.66699 -5.5 3c-11.333 8 -25.333 14.833 -42 20.5s-33.667 8.5 -51 8.5c-28.667 0 -50 -9.16699 -64 -27.5s-21 -40.833 -21 -67.5v-68c0 -6 2.66699 -9 8 -9h197c4.66699 0 7 -2.33301 7 -7v-491z
M296.999 521.998c0 9.33301 0.665039 17.499 1.99805 24.499s3 13.167 5 18.5v1c-1.33301 2.66699 -3.66602 4.66699 -6.99902 6c-11.333 4.66699 -23.166 8.33398 -35.499 11.001s-23.833 4 -34.5 4c-37.333 0 -63.333 -9.5 -78 -28.5s-22 -44.167 -22 -75.5v-40
c0 -6 2.66699 -9 8 -9h154c5.33301 0 8 3 8 9v79z" />
    <glyph glyph-name="ff" unicode="ff" horiz-adv-x="476" 
d="M332 443c0 -6 2.66797 -9 8.00098 -9h117c4.66699 0 7 -2.33301 7 -7v-22c0 -4 -2 -6 -6 -6h-120c-4 -0.666992 -6 -3.66699 -6 -9v-384c0 -4 -2.33301 -6 -7 -6h-28c-4.66699 0 -7 2 -7 6v383c0 6 -2 9.33301 -6 10h-158c-4 -0.666992 -6 -3.66699 -6 -9v-384
c0 -4 -2.33301 -6 -7 -6h-29c-4.66699 0 -7 2 -7 6v383c0 6 -1.66699 9.33301 -5 10h-50c-4 0 -6 2 -6 6v22c0 4.66699 2.33301 7 7 7h47c5.33301 0 8 3 8 9v52c0 22 3.66699 41.167 11 57.5s17.166 30 29.499 41s27 19.167 44 24.5s35.167 8 54.5 8s36.833 -2 52.5 -6
s29.5 -8.66699 41.5 -14c0.666992 0 1.33398 -0.166992 2.00098 -0.5s1.66699 -0.5 3 -0.5c2 0 3.33301 0.333008 4 1c24.667 26 57 39 97 39c20.667 0 38.667 -2.66699 54 -8s28.666 -11.666 39.999 -18.999c3.33301 -2 5 -4 5 -6c0 -2.66699 -1.33301 -6.33398 -4 -11.001
l-7 -12c-2 -4.66699 -5.33301 -5.66699 -10 -3c-8.66699 6 -19.5 11 -32.5 15s-28.167 6 -45.5 6c-29.333 0 -50.833 -9.16699 -64.5 -27.5s-20.5 -40.5 -20.5 -66.5v-70zM290.001 523c0 9.33301 0.666016 17.499 1.99902 24.499s2.66602 13.5 3.99902 19.5
c0 0.666992 -0.333008 1.66699 -1 3s-2.33398 2.33301 -5.00098 3c-11.333 4.66699 -23.166 8.33398 -35.499 11.001s-24.166 4 -35.499 4c-37.333 0 -63.166 -9.33301 -77.499 -28s-21.5 -43.667 -21.5 -75v-42c0 -6 2.33301 -9 7 -9h155c5.33301 0 8 3 8 9v80z" />
    <glyph glyph-name="fi" unicode="fi" horiz-adv-x="393" 
d="M120 444c0 -6 2.66602 -8.99902 7.99902 -8.99902h197c4 0 6.5 -0.833008 7.5 -2.5s1.5 -4.16699 1.5 -7.5v-419c0 -4 -2.33301 -6 -7 -6h-28c-4.66699 0 -7 2 -7 6v387c0 4 -2 6 -6 6h-160c-4 -0.666992 -6 -3.66699 -6 -9v-384c0 -4 -2.33301 -6 -7 -6h-28
c-4.66699 0 -7 2 -7 6v384c0 5.33301 -2 8.33301 -6 9h-49c-4 0 -6 2.33301 -6 7v22c0 4.66699 2 7 6 7h47c6 0 9 3 9 9v68c0 22.667 3.33301 42 10 58s15.834 29.167 27.501 39.5s25.167 18 40.5 23s32 7.5 50 7.5c25.333 0 47.5 -3.5 66.5 -10.5s34.167 -15.5 45.5 -25.5
c4.66699 -3.33301 5.33398 -7 2.00098 -11l-11 -18c-2.66699 -4 -6.66699 -4.66699 -12 -2c-8.66699 7.33301 -20.834 14.166 -36.501 20.499s-34.167 9.5 -55.5 9.5c-31.333 0 -53.5 -9.5 -66.5 -28.5s-19.5 -42.5 -19.5 -70.5v-60z" />
    <glyph glyph-name="fl" unicode="fl" horiz-adv-x="420" 
d="M399 2c0 -4.66699 -2.66895 -6.99902 -8.00195 -6.99902h-19c-17.333 0 -31.166 2.83301 -41.499 8.5s-18.333 13 -24 22s-9.5 19.167 -11.5 30.5s-3 23 -3 35v480c0 3.33301 -0.5 5.5 -1.5 6.5l-2.5 2.5c-11.333 7.33301 -24.833 12.833 -40.5 16.5s-30.5 5.5 -44.5 5.5
c-30 0 -51.333 -9.33301 -64 -28s-19 -42 -19 -70v-61c0 -6 2.33301 -9 7 -9h108c5.33301 0 8 -3 8 -9v-18c0 -4 -0.666992 -6.33301 -2 -7s-3.33301 -1 -6 -1h-109c-4 -0.666992 -6 -3.66699 -6 -9v-384c0 -4 -2.33301 -6 -7 -6h-29c-4.66699 0 -7 2 -7 6v383
c0 6 -1.66699 9.33301 -5 10h-50c-4 0 -6 2 -6 6v22c0 4.66699 2.33301 7 7 7h47c5.33301 0 8 3 8 9v69c0 22.667 3.33301 42 10 58s15.834 29.167 27.501 39.5s25 18 40 23s30.833 7.5 47.5 7.5c20 0 37.833 -2.16699 53.5 -6.5s31.5 -9.5 47.5 -15.5
c3.33301 1.33301 7 3 11 5s7.66699 3 11 3c4.66699 0 7 -3.33301 7 -10v-521c0 -20 3 -35.167 9 -45.5s19 -15.5 39 -15.5h10c4 0 6.33301 -0.833008 7 -2.5s1 -3.83398 1 -6.50098v-23z" />
    <glyph glyph-name="ffi" unicode="ffi" horiz-adv-x="612" 
d="M297 523c0 9.33301 0.665039 17.499 1.99805 24.499s3 13.167 5 18.5v1c-1.33301 2.66699 -3.66602 4.66699 -6.99902 6c-11.333 4.66699 -23.166 8.33398 -35.499 11.001s-23.833 4 -34.5 4c-37.333 0 -63.333 -9.5 -78 -28.5s-22 -44.167 -22 -75.5v-41
c0 -6 2.66699 -9 8 -9h154c5.33301 0 8 3 8 9v80zM423.998 605.999c-28.667 0 -50.002 -9.16699 -64.002 -27.5s-21 -40.833 -21 -67.5v-68c0 -6 2.66699 -9 8 -9h197c4 0 6.5 -0.833008 7.5 -2.5s1.5 -4.16699 1.5 -7.5v-418c0 -4 -2.33301 -6 -7 -6h-29
c-4.66699 0 -7 2 -7 6v387c0 4 -2 6 -6 6h-159c-4 -0.666992 -6 -3.66699 -6 -9v-384c0 -4 -2.33301 -6 -7 -6h-28c-4.66699 0 -7 2 -7 6v383c0 6 -2 9.33301 -6 10h-158c-4 -0.666992 -6 -3.66699 -6 -9v-384c0 -4 -2.33301 -6 -7 -6h-28c-4.66699 0 -7 2 -7 6v383
c0 6 -2 9.33301 -6 10h-49c-4 0 -6 2 -6 6v22c0 4.66699 2 7 6 7h47c6 0 9 3 9 9v51c0 21.333 3.5 40.166 10.5 56.499s16.5 30 28.5 41s26.167 19.333 42.5 25s33.833 8.5 52.5 8.5c17.333 0 34.833 -1.83301 52.5 -5.5s32.834 -8.5 45.501 -14.5
c0.666992 0 1.33398 -0.166992 2.00098 -0.5s1.66699 -0.5 3 -0.5c2 0 3.33301 0.333008 4 1c12 12.667 26.333 22.334 43 29.001s34 10 52 10c23.333 0 45 -3.66699 65 -11s35.667 -15.666 47 -24.999c4 -2.66699 4.66699 -6.33398 2 -11.001l-11 -18
c-2.66699 -4 -6.66699 -4.66699 -12 -2c-9.33301 6 -22 12.333 -38 19s-33 10 -51 10z" />
    <glyph glyph-name="ffl" unicode="ffl" horiz-adv-x="631" 
d="M297 509c0 20.667 2.66602 38.3311 7.99902 52.998c0 0.666992 0.166992 1.33398 0.5 2.00098s0.5 1.33398 0.5 2.00098c0 3.33301 -1.66699 5.33301 -5 6c-12.667 5.33301 -25.667 9.33301 -39 12s-25.666 4 -36.999 4c-34 0 -58.833 -9 -74.5 -27
s-23.5 -43.667 -23.5 -77v-41c0 -6 2.66699 -9 8 -9h154c5.33301 0 8 3 8 9v66zM423.999 643.997c20 0 37.8291 -2.16406 53.4961 -6.49707s31.5 -9.5 47.5 -15.5c3.33301 1.33301 7 3 11 5s7.66699 3 11 3c4.66699 0 7 -3.33301 7 -10v-521c0 -20 3 -35.167 9 -45.5
s19 -15.5 39 -15.5h10c4 0 6.33301 -0.833008 7 -2.5s1 -3.83398 1 -6.50098v-23c0 -4.66699 -2.66699 -7 -8 -7h-19c-17.333 0 -31.166 2.83301 -41.499 8.5s-18.333 13 -24 22s-9.5 19.167 -11.5 30.5s-3 23 -3 35v480c0 3.33301 -0.5 5.5 -1.5 6.5l-2.5 2.5
c-11.333 7.33301 -24.833 13 -40.5 17s-31.167 6 -46.5 6c-30 0 -51.333 -9.5 -64 -28.5s-19 -42.5 -19 -70.5v-65c0 -6 2.33301 -9 7 -9h108c5.33301 0 8 -3 8 -9v-18c0 -4 -0.666992 -6.33301 -2 -7s-3.33301 -1 -6 -1h-109c-4 -0.666992 -6 -3.66699 -6 -9v-384
c0 -4 -2.33301 -6 -7 -6h-29c-4.66699 0 -7 2 -7 6v383c0 3.33301 -0.166992 5.66602 -0.5 6.99902s-2.16602 2.33301 -5.49902 3h-157c-4 -0.666992 -6 -3.66699 -6 -9v-384c0 -4 -2.33301 -6 -7 -6h-28c-4.66699 0 -7 2 -7 6v383c0 6 -2 9.33301 -6 10h-49c-4 0 -6 2 -6 6
v22c0 4.66699 2 7 6 7h47c6 0 9 3 9 9v51c0 21.333 3.5 40.166 10.5 56.499s16.5 30 28.5 41s26.167 19.333 42.5 25s33.833 8.5 52.5 8.5c17.333 0 34.833 -1.83301 52.5 -5.5s32.834 -8.5 45.501 -14.5c0.666992 0 1.33398 -0.166992 2.00098 -0.5s1.66699 -0.5 3 -0.5
c2 0 3.33301 0.333008 4 1c24.667 26 57 39 97 39z" />
    <glyph glyph-name="ft" unicode="ft" horiz-adv-x="486" 
d="M336 443c0 -5.33301 2.00098 -8.00293 6.00098 -8.00293h112c4 0 6 -2.33301 6 -7v-22c0 -4.66699 -2 -7 -6 -7h-110c-5.33301 0 -8 -3 -8 -9v-270c0 -30.667 5.5 -53 16.5 -67s28.5 -21 52.5 -21c9.33301 0 20 0.833008 32 2.5s21.667 3.83398 29 6.50098
c4.66699 1.33301 7.66699 -0.333984 9 -5.00098l5 -22c1.33301 -3.33301 1.5 -5.5 0.5 -6.5s-2.83301 -2.16699 -5.5 -3.5c-9.33301 -3.33301 -21.5 -5.66602 -36.5 -6.99902s-28.167 -2 -39.5 -2c-20 0 -36.667 3.16699 -50 9.5s-24 14.833 -32 25.5
s-13.667 23.167 -17 37.5s-5 29.833 -5 46.5v276c0 6 -2.66699 9 -8 9h-161c-4 -0.666992 -6 -3.66699 -6 -9v-384c0 -4 -2.33301 -6 -7 -6h-28c-4.66699 0 -7 2 -7 6v384c0 5.33301 -2 8.33301 -6 9h-49c-4 0 -6 2.33301 -6 7v22c0 4.66699 2 7 6 7h47c6 0 9 3 9 9v68
c0 43.333 11.5 75.5 34.5 96.5s51.5 31.5 85.5 31.5c15.333 0 29.666 -1.5 42.999 -4.5s24.666 -6.5 33.999 -10.5c5.33301 -2 7.33301 -5.33301 6 -10l-8 -23c-1.33301 -4 -4.66602 -5 -9.99902 -3c-19.333 8.66699 -40 13 -62 13c-30.667 0 -52 -9.16699 -64 -27.5
s-18 -40.833 -18 -67.5v-63c0 -6 2.66699 -9 8 -9h160c4.66699 0.666992 7 3.66699 7 9v88c0 4.66699 2.33301 7.33398 7 8.00098l27 7c4.66699 0.666992 7 -1.66602 7 -6.99902v-97v0z" />
    <glyph glyph-name=".notdef" horiz-adv-x="432" 
d="M0 700h432v-700h-432v700zM376 669h-320l160 -291zM402 49v604l-166 -303zM376 31l-160 291l-160 -291h320zM30 51l166 299l-166 300v-599z" />
    <glyph glyph-name="space" unicode=" " horiz-adv-x="200" 
 />
    <glyph glyph-name="exclam" unicode="!" horiz-adv-x="248" 
d="M138 165c0 -5.33301 -2.66602 -8 -7.99902 -8h-9c-5.33301 0 -8 2.66699 -8 8l-15 442c0 6 3.33301 9 10 9h30c7.33301 0 10.666 -3 9.99902 -9zM161.001 29c0 -10 -3.33301 -18.333 -10 -25s-15.334 -10 -26.001 -10c-9.33301 0 -17.5 3.5 -24.5 10.5
s-10.5 15.167 -10.5 24.5s3.5 17.5 10.5 24.5s15.167 10.5 24.5 10.5c10.667 0 19.334 -3.33301 26.001 -10s10 -15 10 -25z" />
    <glyph glyph-name="quotedbl" unicode="&#x22;" horiz-adv-x="217" 
d="M163 617c4.66699 0 6.66699 -2 6 -6v-185c0 -4 -2 -6 -6 -6h-22c-5.33301 0 -8 2 -8 6v185c0 4 2.66699 6 8 6h22zM78 617c4.66699 0 7 -2 7 -6v-185c0 -4 -2.33301 -6 -7 -6h-22c-4.66699 0 -7 2 -7 6v185c0 4 2.33301 6 7 6h22z" />
    <glyph glyph-name="numbersign" unicode="#" horiz-adv-x="445" 
d="M417 403c-0.666992 -4.66699 -3.33398 -6.99902 -8.00098 -6.99902h-62c-6 0 -9.33301 -2.33301 -10 -7l-34 -158c-0.666992 -6.66699 1.66602 -10 6.99902 -10h72c4 0 5.33301 -2.33301 4 -7l-3 -19c-1.33301 -4 -4 -6 -8 -6h-74c-5.33301 0 -8.33301 -2 -9 -6l-29 -137
c-1.33301 -3.33301 -3.66602 -5 -6.99902 -5h-20c-6 0 -8.33301 2.66699 -7 8l29 132c0 2.66699 -0.333008 4.66699 -1 6s-3 2 -7 2h-112c-5.33301 0 -8.33301 -2 -9 -6l-30 -137c-1.33301 -3.33301 -3.66602 -5 -6.99902 -5h-20c-6 0 -8.33301 2.66699 -7 8
c0 0.666992 1.66699 7.66699 5 21s6.66602 28.333 9.99902 45l14 65c0.666992 3.33301 0.666992 5.66602 0 6.99902s-3 2 -7 2h-58c-4 0 -6 1.66699 -6 5c0.666992 1.33301 1.16699 3.33301 1.5 6s1.16602 7.33398 2.49902 14.001c1.33301 4.66699 4.66602 7 9.99902 7h59
c4.66699 0 7.33398 2.33301 8.00098 7l34 159c2 6 0 9 -6 9h-68c-4.66699 0 -6.33398 2 -5.00098 6c0.666992 1.33301 1.33398 4.16602 2.00098 8.49902s1.33398 7.83301 2.00098 10.5c1.33301 4.66699 4 7 8 7h71c4 0 6.33301 2.33301 7 7l26 120c0.666992 3.33301 3 5 7 5
h21c5.33301 0 7.33301 -2.66699 6 -8l-25 -115c-1.33301 -6 1 -9 7 -9h114c3.33301 0 5.66602 2.33301 6.99902 7l26 120c0.666992 3.33301 3.33398 5 8.00098 5h20c5.33301 0 7.33301 -2.66699 6 -8l-24 -114c-0.666992 -3.33301 -0.666992 -5.83301 0 -7.5
s3.33398 -2.5 8.00098 -2.5h59c3.33301 0 5.33301 -1 6 -3s0.666992 -4 0 -6zM302 388.001c0.666992 2.66699 0.666016 4.66699 -0.000976562 6s-3 2 -7 2h-111c-6 0 -9.66699 -2.66699 -11 -8l-34 -159c-0.666992 -3.33301 -0.5 -5.5 0.5 -6.5s3.5 -1.5 7.5 -1.5h113
c4.66699 0 7.33398 2.66699 8.00098 8z" />
    <glyph glyph-name="dollar" unicode="$" horiz-adv-x="445" 
d="M351 169c0 20 -4.16797 37 -12.501 51s-18.666 25.833 -30.999 35.5s-25.666 17.5 -39.999 23.5s-27.833 11 -40.5 15c-18 5.33301 -37.167 11.5 -57.5 18.5s-39.166 16.5 -56.499 28.5s-31.666 26.833 -42.999 44.5s-17 39.5 -17 65.5c0 20.667 4 39.667 12 57
s18.5 32.333 31.5 45s28 23 45 31s34.833 13.333 53.5 16c4 0.666992 6 3.33398 6 8.00098v56c0 4.66699 2.33301 7 7 7h17c4.66699 0 7 -2.33301 7 -7v-56c0 -4 2.66699 -6.33301 8 -7c46.667 -2 88.667 -16 126 -42c2.66699 -4 2.66699 -8 0 -12l-15 -19
c-4 -4 -8 -3.66699 -12 1c-18.667 14 -38 23.833 -58 29.5s-39.667 8.5 -59 8.5c-14.667 0 -29.667 -2.33301 -45 -7s-29.166 -11.834 -41.499 -21.501s-22.333 -21.834 -30 -36.501s-11.5 -32.334 -11.5 -53.001c0 -18 4.33301 -33.333 13 -46s19.667 -23.5 33 -32.5
s28 -16.333 44 -22s31 -10.5 45 -14.5c20.667 -6 40.667 -13.5 60 -22.5s36.666 -19.667 51.999 -32s27.666 -27.166 36.999 -44.499s14 -37.666 14 -60.999s-4 -44 -12 -62s-18.833 -33.5 -32.5 -46.5s-29.834 -23.167 -48.501 -30.5s-38.334 -12.333 -59.001 -15
c-5.33301 0 -8 -2.66699 -8 -8v-67c0 -4.66699 -2.33301 -7 -7 -7h-17c-4.66699 0 -7 2.33301 -7 7v67c0 4.66699 -3 7 -9 7c-25.333 1.33301 -48.666 5.5 -69.999 12.5s-42.333 17.833 -63 32.5c-3.33301 3.33301 -3.33301 7 0 11l16 19c3.33301 3.33301 7 3 11 -1
c16 -12 34.667 -21.5 56 -28.5s43.666 -10.5 66.999 -10.5c18 0 35.667 2.33301 53 7s32.5 11.667 45.5 21s23.5 21.333 31.5 36s12 31.667 12 51z" />
    <glyph glyph-name="percent" unicode="%" horiz-adv-x="645" 
d="M192 -24c-1.33301 -4 -4.33301 -6 -9 -6h-17c-4.66699 0 -6 2 -4 6l283 665c2.66699 4 5.66699 6 9 6h15c5.33301 0 7.33301 -2.33301 6 -7zM262 335c0 -30.667 -9.66699 -54.667 -29 -72s-46.666 -26 -81.999 -26c-34 0 -60.667 8.83301 -80 26.5s-29 41.5 -29 71.5v189
c0 30 9.83301 53.833 29.5 71.5s46.167 26.5 79.5 26.5s60.166 -8.5 80.499 -25.5s30.5 -41.167 30.5 -72.5v-189zM226 524c0 19.333 -6.66895 35.333 -20.002 48s-31.666 19 -54.999 19c-22 0 -39.5 -6.33301 -52.5 -19s-19.5 -28.667 -19.5 -48v-188
c0 -19.333 6.33301 -35.5 19 -48.5s30.334 -19.5 53.001 -19.5c22 0 40 5.83301 54 17.5s21 28.5 21 50.5v188zM600.998 94c0 -31.333 -9.5 -55.5 -28.5 -72.5s-46.167 -25.5 -81.5 -25.5c-34 0 -60.667 8.66699 -80 26s-29 41.333 -29 72v189
c0 30 9.83301 53.833 29.5 71.5s46.167 26.5 79.5 26.5s60 -8.66699 80 -26s30 -41.333 30 -72v-189zM565.998 283c0 19.333 -6.66797 35.332 -20.001 47.999s-31.666 19 -54.999 19c-22.667 0 -40.5 -6.5 -53.5 -19.5s-19.5 -28.833 -19.5 -47.5v-189
c0 -20 6.5 -36.5 19.5 -49.5s30.833 -19.5 53.5 -19.5c22 0 40 5.83301 54 17.5s21 28.834 21 51.501v189z" />
    <glyph glyph-name="ampersand" unicode="&#x26;" horiz-adv-x="570" 
d="M381 548c6 0 9.00098 -2.33203 9.00098 -6.99902v-22c0 -5.33301 -2.66699 -8 -8 -8h-140c-19.333 0 -36.833 -3 -52.5 -9s-29.334 -14.167 -41.001 -24.5s-20.667 -22.833 -27 -37.5s-9.5 -31 -9.5 -49v-227c0 -18 2.66699 -35 8 -51s13.333 -30.333 24 -43
s24 -22.667 40 -30s35 -11 57 -11h19c22.667 0 42.334 3.83301 59.001 11.5s30.334 18 41.001 31s18.5 27.667 23.5 44s7.5 33.5 7.5 51.5v124c0 1.33301 -0.333008 3 -1 5s-3.33398 3 -8.00098 3h-140c-4.66699 0 -7 2.33301 -7 7v21c0 5.33301 2.66699 8 8 8h192
c24.667 0 47 2.66699 67 8s41.667 15.666 65 30.999c2.66699 1.33301 4.66699 2 6 2c3.33301 0 5.33301 -1.33301 6 -4l11 -17c1.33301 -2.66699 2 -4.66699 2 -6c0 -2.66699 -1.33301 -5 -4 -7c-25.333 -16 -49.833 -26.833 -73.5 -32.5s-47.5 -9.16699 -71.5 -10.5
c-6.66699 0 -10 -3.66699 -10 -11v-100c0 -26.667 -3.16699 -51.667 -9.5 -75s-16.5 -43.833 -30.5 -61.5s-32 -31.667 -54 -42s-48.333 -15.5 -79 -15.5h-19c-26.667 0 -50.667 4.16699 -72 12.5s-39.333 20 -54 35s-25.834 32.833 -33.501 53.5s-11.5 43 -11.5 67v230
c0 22.667 4.33301 43.5 13 62.5s20.5 35.5 35.5 49.5s33 24.833 54 32.5s44.167 11.5 69.5 11.5h139z" />
    <glyph glyph-name="quotesingle" unicode="'" horiz-adv-x="153" 
d="M87 617c4.66699 0 7 -2 7 -6l-1 -185c0 -4 -2 -6 -6 -6h-22c-5.33301 0 -8 2 -8 6v185c0 4 2.33301 6 7 6h23v0z" />
    <glyph glyph-name="parenleft" unicode="(" horiz-adv-x="296" 
d="M256 -127c3.33301 -4.66699 2.66699 -8 -2 -10l-14 -9c-5.33301 -4.66699 -9.66602 -4.33398 -12.999 0.999023c-19.333 22.667 -38.166 49.334 -56.499 80.001s-34.5 63.834 -48.5 99.501s-25.333 73 -34 112s-13 78.5 -13 118.5c0 39.333 4.83301 79.166 14.5 119.499
s22 79 37 116s31.5 71.167 49.5 102.5s35.333 57.666 52 78.999c3.33301 4.66699 7.66602 5.33398 12.999 2.00098l12 -6c4 -3.33301 5 -6.66602 3 -9.99902c-19.333 -28.667 -37.166 -59 -53.499 -91s-30.333 -65.333 -42 -100s-20.834 -69.834 -27.501 -105.501
s-10 -71.167 -10 -106.5c0 -38 3.66699 -75.167 11 -111.5s17.166 -71.166 29.499 -104.499s26.5 -64.833 42.5 -94.5s32.667 -56.834 50 -81.501z" />
    <glyph glyph-name="parenright" unicode=")" horiz-adv-x="296" 
d="M246 265c0 -40 -4.33301 -79.5 -13 -118.5s-20 -76.333 -34 -112s-30.167 -68.834 -48.5 -99.501s-37.166 -57.334 -56.499 -80.001c-3.33301 -5.33301 -7.66602 -5.66602 -12.999 -0.999023l-14 9c-4.66699 2 -5.33398 5.33301 -2.00098 10
c16.667 24.667 33 51.834 49 81.501s30.333 61.167 43 94.5s22.667 68.166 30 104.499s11 73.5 11 111.5c0 35.333 -3.33301 70.833 -10 106.5s-15.834 70.834 -27.501 105.501s-25.667 68 -42 100s-34.166 62.333 -53.499 91c-2 3.33301 -1 6.66602 3 9.99902l12 6
c5.33301 3.33301 9.66602 2.66602 12.999 -2.00098c16.667 -21.333 34 -47.666 52 -78.999s34.5 -65.5 49.5 -102.5s27.333 -75.667 37 -116s14.5 -80.166 14.5 -119.499z" />
    <glyph glyph-name="asterisk" unicode="*" horiz-adv-x="352" 
d="M207 502c-6 -1.33301 -6.99902 -3.99902 -2.99902 -7.99902l65 -78c5.33301 -6.66699 5 -11.667 -1 -15l-17 -12c-7.33301 -5.33301 -13 -4.66602 -17 2.00098l-52 87c-2.66699 4 -6 3.66699 -10 -1l-53 -86c-4 -6.66699 -9.33301 -7.33398 -16 -2.00098l-17 12
c-6.66699 4 -7.33398 9.33301 -2.00098 16l66 77c1.33301 1.33301 2 2.66602 2 3.99902s-1.66699 2.33301 -5 3l-98 25c-7.33301 2 -10 6.33301 -8 13l7 21c2.66699 8 7.66699 10.333 15 7l95 -39c3.33301 -2 5 -0.666992 5 4l-8 103c0 3.33301 0.666992 6 2 8
s4.66602 3 9.99902 3h21c8.66699 0 12.334 -3.66699 11.001 -11l-8 -102c-0.666992 -5.33301 1 -7 5 -5l94 38c8 3.33301 13 1.33301 15 -6l8 -21c2 -8 -0.333008 -12.333 -7 -13z" />
    <glyph glyph-name="plus" unicode="+" horiz-adv-x="445" 
d="M412 228c0 -6 -3 -9 -9 -9h-159c-4 0 -6 -1.66699 -6 -5v-164c0 -5.33301 -2.66699 -8 -8 -8h-20c-6 0 -9 2.66699 -9 8v164c0 3.33301 -2 5 -6 5h-155c-5.33301 0 -8 2.66699 -8 8v20c0 6 2.66699 9 8 9h156c3.33301 0 5 2 5 6v164c0 5.33301 3 8 9 8h20
c5.33301 0 8 -2.66699 8 -8v-165c0 -3.33301 2 -5 6 -5h159c6 0 9 -3 9 -9v-19v0z" />
    <glyph glyph-name="comma" unicode="," horiz-adv-x="167" 
d="M80 -96c-2 -6 -5.33301 -9 -10 -9h-15c-6 0 -8.33301 3.66699 -7 11l9 151c0 6.66699 3.33301 10 10 10h41c8.66699 0 11.667 -4.33301 9 -13z" />
    <glyph glyph-name="hyphen" unicode="-" horiz-adv-x="298" 
d="M237 225c0 -4.66699 -2 -7 -6 -7h-165c-4.66699 0 -7 2.33301 -7 7v27c0 4.66699 2.33301 7 7 7h165c4 0 6 -2.33301 6 -7v-27v0z" />
    <glyph glyph-name="period" unicode="." horiz-adv-x="165" 
d="M82 62c10.667 0 19.167 -3.16699 25.5 -9.5s9.5 -14.5 9.5 -24.5c0 -9.33301 -3.16699 -17.333 -9.5 -24s-14.833 -10 -25.5 -10c-9.33301 0 -17.333 3.33301 -24 10s-10 14.667 -10 24s3.33301 17.333 10 24s14.667 10 24 10z" />
    <glyph glyph-name="slash" unicode="/" horiz-adv-x="284" 
d="M35 -59c-2 -5.33301 -5 -8 -9 -8h-15c-6.66699 0 -9 2.66699 -7 8l242 725c2 5.33301 5.66699 8 11 8h14c6 0 8.33301 -2.66699 7 -8z" />
    <glyph glyph-name="zero" unicode="0" horiz-adv-x="445" 
d="M390 150c0 -50 -14.334 -88.667 -43.001 -116s-69 -41 -121 -41c-51.333 0 -91.666 14 -120.999 42s-44 66.333 -44 115v319c0 47.333 14.833 85 44.5 113s69.5 42 119.5 42s90 -13.667 120 -41s45 -65.333 45 -114v-319zM347.999 467c0 35.333 -11 64.166 -33 86.499
s-52 33.5 -90 33.5c-36.667 0 -66.167 -11.167 -88.5 -33.5s-33.5 -51.166 -33.5 -86.499v-316c0 -36 11 -65.167 33 -87.5s51.667 -33.5 89 -33.5c36 0 65.5 10.167 88.5 30.5s34.5 50.5 34.5 90.5v316z" />
    <glyph glyph-name="one" unicode="1" horiz-adv-x="445" 
d="M259 7c0 -4.66699 -2.00098 -7.00098 -6.00098 -7.00098h-30c-4 0 -6 2 -6 6v549c0 4.66699 -2 5.66699 -6 3l-92 -56c-5.33301 -3.33301 -8 -2.33301 -8 3v28c0 6.66699 2 11.334 6 14.001l101 64c2.66699 1.33301 4.83398 2.5 6.50098 3.5s4.16699 1.5 7.5 1.5h22
c3.33301 0 5 -1.66699 5 -5v-604v0z" />
    <glyph glyph-name="two" unicode="2" horiz-adv-x="445" 
d="M382 7c0 -4.66699 -2 -7 -6 -7h-324c-6.66699 0 -10 3 -10 9v15c0 10.667 2 18.334 6 23.001l222 292c21.333 28 37.833 54.5 49.5 79.5s17.5 45.5 17.5 61.5c0 32.667 -10.667 58.667 -32 78s-50 29 -86 29c-22.667 0 -44.5 -4.5 -65.5 -13.5
s-36.833 -20.833 -47.5 -35.5c-5.33301 -6.66699 -10.333 -8 -15 -4l-18 13c-6 3.33301 -6.66699 7.33301 -2 12c15.333 21.333 36.333 37.5 63 48.5s55 16.5 85 16.5c22 0 42.833 -2.83301 62.5 -8.5s36.667 -14.167 51 -25.5s25.833 -25.833 34.5 -43.5
s13 -38.834 13 -63.501c0 -20 -5.66699 -43.333 -17 -70s-31.333 -58.667 -60 -96l-206 -272c-4 -4.66699 -2.66699 -7 4 -7h274c4.66699 0 7 -2.33301 7 -7v-24v0z" />
    <glyph glyph-name="three" unicode="3" horiz-adv-x="445" 
d="M202 357c14.667 0 28.8369 2.66895 42.5039 8.00195s25.5 12.833 35.5 22.5s18 21.334 24 35.001s9 29.167 9 46.5c0 32.667 -9.83301 60.5 -29.5 83.5s-49.834 34.5 -90.501 34.5c-23.333 0 -44.333 -4.16699 -63 -12.5s-33.667 -20.166 -45 -35.499
c-4 -7.33301 -9 -9 -15 -5l-20 13c-2.66699 1.33301 -3.66699 3.33301 -3 6s1.66699 4.66699 3 6c15.333 21.333 35.5 37.5 60.5 48.5s52.5 16.5 82.5 16.5c52 0 92.167 -13.833 120.5 -41.5s42.5 -64.5 42.5 -110.5c0 -16.667 -2.66699 -32.334 -8 -47.001
s-12 -27.834 -20 -39.501s-17 -21.334 -27 -29.001s-20 -12.834 -30 -15.501c-2.66699 0 -4 -1 -4 -3c0 -1.33301 1.33301 -2.66602 4 -3.99902c16 -4 29.333 -10.667 40 -20s19.5 -20 26.5 -32s12 -24.667 15 -38s4.5 -26 4.5 -38v-40c0 -26 -4.16699 -49.5 -12.5 -70.5
s-20 -39 -35 -54s-33.333 -26.667 -55 -35s-45.5 -12.5 -71.5 -12.5c-19.333 0 -37.5 1.66699 -54.5 5s-32.5 9.66602 -46.5 18.999c-18 12 -32.333 25.333 -43 40c-2.66699 5.33301 -1.33398 10 3.99902 14l15 12c3.33301 2.66699 5.66602 3.66699 6.99902 3
s3.66602 -2.66699 6.99902 -6l11 -10.5l11 -10.5c24.667 -20.667 54.667 -31 90 -31c18 0 35 3.16699 51 9.5s29.833 15.333 41.5 27s21 25.667 28 42s10.5 34.5 10.5 54.5v41c0 3.33301 -0.166992 7 -0.5 11s-0.833008 7.66699 -1.5 11c-4 26.667 -15.5 49 -34.5 67
s-44.5 27 -76.5 27h-66c-4.66699 0 -7 2.33301 -7 7v24c0 4.66699 2 7 6 7h67v0z" />
    <glyph glyph-name="four" unicode="4" horiz-adv-x="445" 
d="M300 617c7.33301 0 8.99902 -3.66699 4.99902 -11l-219 -411c-1.33301 -2 -1.83301 -4 -1.5 -6s2.16602 -3 5.49902 -3h190c4 0 6.16699 1 6.5 3s0.5 4.33301 0.5 7v188c0 4.66699 2.66699 7 8 7h26c4.66699 0 7 -2.33301 7 -7v-187c0 -3.33301 0.5 -6 1.5 -8
s3.5 -3 7.5 -3h76c4.66699 0 7 -2.33301 7 -7v-22c0 -4.66699 -2.33301 -7 -7 -7h-75c-3.33301 0 -5.66602 -0.333008 -6.99902 -1s-2 -3 -2 -7v-135c0 -4.66699 -2.33301 -7 -7 -7h-27c-5.33301 -0 -8 2.33301 -8 7v135c0 5.33301 -2.66699 8 -8 8h-230
c-6 0 -9 2.66699 -9 8v16c0 6.66699 0.333008 11.667 1 15s2.33398 7.33301 5.00098 12l216 409c2 4.66699 5.66699 7 11 7h27z" />
    <glyph glyph-name="five" unicode="5" horiz-adv-x="445" 
d="M379 157c0 -52.667 -15.333 -93.166 -46 -121.499s-71.667 -42.5 -123 -42.5c-67.333 0 -115.333 22.333 -144 67c-1.33301 3.33301 -2 5.66602 -2 6.99902s1.66699 3.33301 5 6l20 12c3.33301 1.33301 5.66602 1.83301 6.99902 1.5s3.66602 -2.16602 6.99902 -5.49902
c26 -34 61.667 -51 107 -51c38 0 68.667 10.667 92 32s35 51 35 89v85c0 34.667 -10.833 63.167 -32.5 85.5s-52.167 33.5 -91.5 33.5c-11.333 0 -24.166 -2.33301 -38.499 -7s-26.166 -10.334 -35.499 -17.001c-8 -7.33301 -15.667 -9 -23 -5l-22 13
c-3.33301 2 -5.83301 4 -7.5 6s-2.5 5.66699 -2.5 11v254c0 4.66699 2.66699 7 8 7h267c4.66699 0 7 -2.33301 7 -7v-24c0 -4 -2.33301 -6 -7 -6h-225c-4.66699 0 -7 -2.33301 -7 -7v-197c0 -8 4.33301 -9.66699 13 -5c14 8.66699 27.5 14.5 40.5 17.5s25.5 4.5 37.5 4.5
c52 0 91.833 -14.333 119.5 -43s41.5 -65.667 41.5 -111v-82z" />
    <glyph glyph-name="six" unicode="6" horiz-adv-x="445" 
d="M396 152c0 -49.333 -14.834 -88.1641 -44.501 -116.497s-70.5 -42.5 -122.5 -42.5c-24 0 -46.333 3.5 -67 10.5s-38.334 17.167 -53.001 30.5s-26.167 29.666 -34.5 48.999s-12.5 41.666 -12.5 66.999v309c0 24.667 4.33301 47.167 13 67.5s20.5 37.833 35.5 52.5
s32.833 25.834 53.5 33.501s43.334 11.5 68.001 11.5c61.333 0 109 -21 143 -63c4 -4.66699 3.66699 -8.33398 -1 -11.001l-19 -16c-5.33301 -3.33301 -9.66602 -2.33301 -12.999 3c-12 15.333 -27.167 27.5 -45.5 36.5s-39.166 13.5 -62.499 13.5
c-40 0 -71.667 -12.333 -95 -37s-35 -55 -35 -91v-130c0 -6 2.66699 -7 8 -3c30.667 36.667 71 55 121 55c25.333 0 48.166 -3.83301 68.499 -11.5s37.5 -18.334 51.5 -32.001s24.667 -29.667 32 -48s11 -38.5 11 -60.5v-77zM353.999 226.002
c0 37.333 -11.832 66.168 -35.499 86.501s-53.834 30.5 -90.501 30.5c-16.667 0 -32.5 -3.16699 -47.5 -9.5s-28.167 -15 -39.5 -26s-20.333 -23.833 -27 -38.5s-10 -30.334 -10 -47.001v-69c0 -36.667 11.333 -66.5 34 -89.5s53 -34.5 91 -34.5c40 0 70.667 11.5 92 34.5
s32.333 53.5 33 91.5v71z" />
    <glyph glyph-name="seven" unicode="7" horiz-adv-x="445" 
d="M390 592c0 -3.33301 -0.500977 -6.83301 -1.50098 -10.5s-2.16699 -6.5 -3.5 -8.5l-122 -278l-45 -103.5l-40 -90.5l-29 -65.5c-7.33301 -17 -11.333 -26.167 -12 -27.5c-1.33301 -3.33301 -2.83301 -5.5 -4.5 -6.5s-4.16699 -1.5 -7.5 -1.5h-30c-6 0 -8 3 -6 9l248 562
c2.66699 6 0.333984 9 -6.99902 9h-220c-6 0 -9 -2.66699 -9 -8v-55c0 -4.66699 -2.33301 -7 -7 -7h-25c-4.66699 0 -7 2.33301 -7 7v93c0 4.66699 2.66699 7 8 7h309c7.33301 0 11 -3 11 -9v-16v0z" />
    <glyph glyph-name="eight" unicode="8" horiz-adv-x="445" 
d="M224 625c52 0 93 -14.6719 123 -44.0049s45 -67.666 45 -114.999c0 -26.667 -7.33301 -52.167 -22 -76.5s-34.334 -43.166 -59.001 -56.499c-2 -1.33301 -3.33301 -2.66602 -4 -3.99902s0.333008 -2.66602 3 -3.99902c28 -14 50 -33.5 66 -58.5s24 -56.5 24 -94.5
c0 -29.333 -4.83301 -55.166 -14.5 -77.499s-22.667 -41 -39 -56s-35.5 -26.333 -57.5 -34s-45.333 -11.5 -70 -11.5c-25.333 0 -48.5 3.66699 -69.5 11s-39.167 18.166 -54.5 32.499s-27.333 32.5 -36 54.5s-13 47.667 -13 77c0 39.333 9.16699 72.833 27.5 100.5
s39.833 46.5 64.5 56.5c2.66699 0.666992 4 1.83398 4 3.50098s-1.33301 3.16699 -4 4.5c-28 12.667 -48.667 31.667 -62 57s-20 50.333 -20 75c0 23.333 4 44.833 12 64.5s19.333 36.5 34 50.5s32.334 25 53.001 33s43.667 12 69 12zM348 464.995
c0 36 -10.833 65.5 -32.5 88.5s-52.5 34.5 -92.5 34.5c-36.667 0 -66.5 -11.5 -89.5 -34.5s-34.5 -52.833 -34.5 -89.5c0 -16.667 3.33301 -32.167 10 -46.5s15.667 -26.666 27 -36.999s24.5 -18.5 39.5 -24.5s30.833 -9 47.5 -9s32.5 2.83301 47.5 8.5
s28.167 13.667 39.5 24s20.5 22.666 27.5 36.999s10.5 30.5 10.5 48.5zM222 309.995c-17.333 0 -34 -3.16602 -50 -9.49902s-30 -15.5 -42 -27.5s-21.667 -27 -29 -45s-11 -38.667 -11 -62c0 -44 12.5 -77.667 37.5 -101s55.5 -35 91.5 -35
c17.333 0 34.166 2.66699 50.499 8s31 13.666 44 24.999s23.333 25.666 31 42.999s11.5 38 11.5 62c0 22.667 -3.5 42.834 -10.5 60.501s-16.667 32.5 -29 44.5s-26.666 21.167 -42.999 27.5s-33.5 9.5 -51.5 9.5z" />
    <glyph glyph-name="nine" unicode="9" horiz-adv-x="445" 
d="M384 170c0 -28.667 -4.50195 -54.001 -13.502 -76.001s-21.167 -40.5 -36.5 -55.5s-33.833 -26.333 -55.5 -34s-44.834 -11.5 -69.501 -11.5c-31.333 0 -59.166 5.83301 -83.499 17.5s-44.166 28.167 -59.499 49.5c-4 5.33301 -3.66699 9.33301 1 12l20 13
c6 2.66699 10.333 1.66699 13 -3c12 -15.333 27 -27.833 45 -37.5s38.667 -14.5 62 -14.5c38.667 0 70.834 12.167 96.501 36.5s38.5 59.5 38.5 105.5v117c0 6.66699 -2.33301 7.66699 -7 3c-32 -36.667 -72.667 -55 -122 -55c-25.333 0 -48 4 -68 12s-37 18.833 -51 32.5
s-24.833 29.834 -32.5 48.501s-11.5 39 -11.5 61v70c0 49.333 15.667 88.833 47 118.5s73.333 44.5 126 44.5c48.667 0 87.667 -14.5 117 -43.5s44 -69.5 44 -121.5v-289zM341.998 460.999c0 36.667 -10.833 66.998 -32.5 90.998s-51.5 36 -89.5 36
c-20 0 -38 -3.33301 -54 -10s-29.5 -15.667 -40.5 -27s-19.333 -24.666 -25 -39.999s-8.5 -32 -8.5 -50v-68c0 -37.333 11.5 -66.5 34.5 -87.5s53.833 -31.5 92.5 -31.5c16.667 0 32.5 3.16699 47.5 9.5s28 15 39 26s19.833 23.833 26.5 38.5s10 30.334 10 47.001v66z" />
    <glyph glyph-name="colon" unicode=":" horiz-adv-x="165" 
d="M117 343c0 -9.33301 -3.33301 -17.5 -10 -24.5s-15.334 -10.5 -26.001 -10.5c-9.33301 0 -17.166 3.5 -23.499 10.5s-9.5 15.167 -9.5 24.5s3.16699 17.166 9.5 23.499s14.166 9.5 23.499 9.5c10.667 0 19.334 -3.16699 26.001 -9.5s10 -14.166 10 -23.499zM117 28
c0 -10 -3.33301 -18.167 -10 -24.5s-15.334 -9.5 -26.001 -9.5c-9.33301 0 -17.166 3.16699 -23.499 9.5s-9.5 14.166 -9.5 23.499s3.16699 17.333 9.5 24s14.166 10 23.499 10c10.667 0 19.334 -3.16699 26.001 -9.5s10 -14.166 10 -23.499z" />
    <glyph glyph-name="semicolon" unicode=";" horiz-adv-x="173" 
d="M123 343c0 -9.33301 -3.33301 -17.333 -10 -24s-15.334 -10 -26.001 -10c-9.33301 0 -17.166 3.33301 -23.499 10s-9.5 14.667 -9.5 24s3.16699 17.333 9.5 24s14.166 10 23.499 10c10.667 0 19.334 -3.33301 26.001 -10s10 -14.667 10 -24zM79 -96
c-0.666992 -6 -4 -9 -10 -9h-15c-4.66699 0 -7 3.66699 -7 11l9 151c0 6.66699 3.66699 10 11 10h41c8 0 11 -4.33301 9 -13z" />
    <glyph glyph-name="less" unicode="&#x3c;" horiz-adv-x="445" 
d="M407 75c5.33301 -2.66699 8.5 -5.16895 9.5 -7.50195s1.5 -5.16602 1.5 -8.49902v-21c0 -4.66699 -2 -7 -6 -7c-0.666992 0 -3 0.666992 -7 2l-366 195c-9.33301 4.66699 -14 10.334 -14 17.001v17c0 6 3.66699 11 11 15l369 197c3.33301 1.33301 6.33301 1.83301 9 1.5
s4 -2.83301 4 -7.5v-19c0 -6.66699 -3.66699 -11.667 -11 -15l-328 -177c-2.66699 -0.666992 -4 -2 -4 -4c0 -0.666992 1.33301 -2 4 -4z" />
    <glyph glyph-name="equal" unicode="=" horiz-adv-x="445" 
d="M410 149c0 -6 -2.66699 -9 -8 -9h-360c-5.33301 0 -8 2.66699 -8 8v17c0 6 2.66699 9 8 9h360c5.33301 0 8 -3 8 -9v-16zM410 330c0 -6 -2.66699 -9 -8 -9h-360c-5.33301 0 -8 2.66699 -8 8v17c0 6 2.66699 9 8 9h360c5.33301 0 8 -3 8 -9v-16z" />
    <glyph glyph-name="greater" unicode="&#x3e;" horiz-adv-x="445" 
d="M365 249c4 2 4.00098 4 0.000976562 6l-328 179c-8 3.33301 -12 8.33301 -12 15v19c0 5.33301 2.33301 8 7 8c1.33301 0 3.33301 -0.666992 6 -2l371 -197c6.66699 -3.33301 10 -7.66602 10 -12.999v-19c0 -4 -1.33301 -7.16699 -4 -9.5s-6.33398 -4.83301 -11.001 -7.5
l-366 -195c-4 -1.33301 -6.33301 -2 -7 -2c-4 0 -6 2.33301 -6 7v21c0 3.33301 0.666992 6.16602 2 8.49902s4.33301 4.83301 9 7.5z" />
    <glyph glyph-name="question" unicode="?" horiz-adv-x="442" 
d="M382 477c0 -27.333 -8.16797 -54.5 -24.501 -81.5s-41.5 -51.5 -75.5 -73.5c-31.333 -19.333 -54.5 -38.5 -69.5 -57.5s-22.5 -43.167 -22.5 -72.5v-47c0 -5.33301 -2 -8 -6 -8h-27c-6 0 -9 3 -9 9v52c0 24.667 6.16699 48.667 18.5 72s30.833 43.333 55.5 60
c15.333 10 30 20.333 44 31s26.5 21.667 37.5 33s19.667 23.833 26 37.5s9.5 28.5 9.5 44.5c0 11.333 -1.83301 23.5 -5.5 36.5s-9.83398 25.167 -18.501 36.5s-20.5 20.666 -35.5 27.999s-33.833 11 -56.5 11s-43.667 -4.66699 -63 -14s-34.666 -21.666 -45.999 -36.999
c-3.33301 -5.33301 -7.66602 -6 -12.999 -2l-20 13c-5.33301 2.66699 -5.66602 6.33398 -0.999023 11.001c15.333 21.333 35.666 37.833 60.999 49.5s53.333 17.5 84 17.5c22 0 42.667 -3.33301 62 -10s36 -16.334 50 -29.001s25 -28.167 33 -46.5s12 -39.5 12 -63.5z
M202.999 28c0 -9.33301 -3.33301 -17.5 -10 -24.5s-15 -10.5 -25 -10.5c-9.33301 0 -17.5 3.5 -24.5 10.5s-10.5 15.167 -10.5 24.5s3.5 17.166 10.5 23.499s15.167 9.5 24.5 9.5c10 0 18.333 -3.16699 25 -9.5s10 -14.166 10 -23.499z" />
    <glyph glyph-name="at" unicode="@" horiz-adv-x="714" 
d="M472 212c0 -14 3.33496 -26.5029 10.002 -37.5029s20 -16.5 40 -16.5c18 0 34 4.33301 48 13s25.833 20.834 35.5 36.501s17.167 34.334 22.5 56.001s8 45.5 8 71.5c0 40.667 -7.66699 76.334 -23 107.001s-35.166 56.334 -59.499 77.001s-52 36.334 -83 47.001
s-62.167 16 -93.5 16c-42 0 -80.5 -7.16699 -115.5 -21.5s-65.167 -34.333 -90.5 -60s-45 -56.334 -59 -92.001s-21 -74.834 -21 -117.501c0 -44 7.16699 -84 21.5 -120s34.333 -66.667 60 -92s56.5 -45 92.5 -59s75.667 -21 119 -21c30.667 0 59.667 2.83301 87 8.5
s52.666 13.167 75.999 22.5c4 1.33301 6.66699 2 8 2c2.66699 0 5 -2.33301 7 -7l6 -15c1.33301 -4.66699 -2 -8.66699 -10 -12c-28 -10 -55.833 -17.667 -83.5 -23s-56.5 -8 -86.5 -8c-49.333 0 -94.333 7.5 -135 22.5s-75.5 36.5 -104.5 64.5s-51.5 62 -67.5 102
s-24 85 -24 135c0 45.333 7.66699 87.5 23 126.5s36.833 73 64.5 102s61 51.667 100 68s82.167 24.5 129.5 24.5c41.333 0 80 -6.33301 116 -19s67.333 -30.667 94 -54s47.667 -52.166 63 -86.499s23 -72.833 23 -115.5c0 -36.667 -4 -68.334 -12 -95.001
s-18.667 -48.667 -32 -66s-29 -30.166 -47 -38.499s-37 -12.5 -57 -12.5c-10 0 -22.667 2.33301 -38 7s-27.333 13.667 -36 27c-1.33301 2.66699 -2.33301 4 -3 4c-1.33301 0 -3 -1 -5 -3c-12 -13.333 -26 -23 -42 -29s-30.667 -9 -44 -9c-15.333 0 -29.833 2.66699 -43.5 8
s-25.834 12.833 -36.501 22.5s-19 21.334 -25 35.001s-9 28.834 -9 45.501c0 16 3 30.667 9 44s14 24.833 24 34.5s22 17.167 36 22.5s29 8 45 8c14.667 0 28.667 -2.66699 42 -8s24.666 -13.333 33.999 -24c0.666992 -0.666992 1.66699 -1 3 -1c4 0 6 2.66699 6 8v18
c0 11.333 -1.33301 22 -4 32s-7.33398 18.667 -14.001 26s-15.667 13.166 -27 17.499s-25.666 6.5 -42.999 6.5c-12 0 -24.5 -2 -37.5 -6s-24.833 -8.33301 -35.5 -13c-6 -2.66699 -9.66699 -1.33398 -11 3.99902l-5 17c-0.666992 1.33301 -1 2.66602 -1 3.99902
s1.66699 3 5 5c12.667 5.33301 27 9.83301 43 13.5s31.333 5.5 46 5.5c42 0 72 -10.667 90 -32s27 -49.333 27 -84v-119zM433.002 232.997c0 20.667 -6.66699 38.833 -20 54.5s-33 23.5 -59 23.5c-21.333 0 -39.833 -7.5 -55.5 -22.5s-23.5 -33.5 -23.5 -55.5
c0 -21.333 7.66699 -39.833 23 -55.5s34 -23.5 56 -23.5c25.333 0 44.833 7.83301 58.5 23.5s20.5 34.167 20.5 55.5z" />
    <glyph glyph-name="A" unicode="A" horiz-adv-x="445" 
d="M395 0c-5.33301 0 -8.66699 2 -10 6l-43 146c-0.666992 2.66699 -2.66699 4 -6 4h-231c-2.66699 0 -4.33398 -1 -5.00098 -3c-0.666992 -3.33301 -3.16699 -12.333 -7.5 -27l-13.5 -46.5l-13.5 -46.5c-4.33301 -14.667 -6.83301 -23.667 -7.5 -27
c-1.33301 -4 -4.33301 -6 -9 -6h-28c-3.33301 0 -5.66602 0.5 -6.99902 1.5s-1.33301 3.5 0 7.5l175 601c1.33301 4.66699 4 7 8 7h47c5.33301 0 8.33301 -2.33301 9 -7l177 -599c2.66699 -7.33301 1 -11 -5 -11h-30zM180.999 437l-68 -237
c-1.33301 -4.66699 -0.333008 -7 3 -7h209c4 0 5.66699 2 5 6l-70 239l-37 132c-0.666992 2 -1.5 3 -2.5 3s-1.83301 -1 -2.5 -3z" />
    <glyph glyph-name="B" unicode="B" horiz-adv-x="472" 
d="M429 174c0 -25.333 -3.83496 -48.668 -11.502 -70.001s-18.667 -39.666 -33 -54.999s-31.666 -27.333 -51.999 -36s-43.5 -13 -69.5 -13h-195c-4.66699 0 -7 2.66699 -7 8v601c0 5.33301 2.33301 8 7 8h184c48 0 86.667 -12.833 116 -38.5s44 -63.5 44 -113.5
c0 -24.667 -6.5 -49.5 -19.5 -74.5s-33.833 -43.5 -62.5 -55.5c-1.33301 -0.666992 -2 -1.5 -2 -2.5s0.666992 -1.83301 2 -2.5c16.667 -6 31.334 -14.333 44.001 -25s23 -23 31 -37s14 -29.167 18 -45.5s6 -32.5 6 -48.5zM385.998 171.998c0 19.333 -3 37.5 -9 54.5
s-14.833 31.833 -26.5 44.5s-25.667 22.667 -42 30s-34.833 11 -55.5 11h-143c-4 0 -6 -2.33301 -6 -7v-261c0 -3.33301 2.33301 -5 7 -5h151c19.333 0 36.666 3.5 51.999 10.5s28.333 16.5 39 28.5s18.834 26 24.501 42s8.5 33.333 8.5 52zM368.998 464.998
c0 34 -9.99902 61.499 -29.999 82.499s-49 31.5 -87 31.5h-142c-2 0 -3.5 -0.166992 -4.5 -0.5s-1.5 -2.16602 -1.5 -5.49902v-216c0 -2.66699 0.166992 -4.5 0.5 -5.5s2.16602 -1.5 5.49902 -1.5h143c35.333 0 63.5 10.5 84.5 31.5s31.5 48.833 31.5 83.5z" />
    <glyph glyph-name="C" unicode="C" horiz-adv-x="413" 
d="M385 71c5.33301 -4.66699 5.99609 -8.99805 1.99609 -12.998c-18.667 -20.667 -40.667 -36.5 -66 -47.5s-53.333 -16.5 -84 -16.5c-28 0 -53 4 -75 12s-40.667 19.167 -56 33.5s-27.166 31.5 -35.499 51.5s-12.5 42 -12.5 66v306c0 22.667 4.16699 43.834 12.5 63.501
s20.333 36.667 36 51s34.334 25.666 56.001 33.999s45.5 12.5 71.5 12.5c30 0 58.167 -5 84.5 -15s48.5 -26 66.5 -48c4 -4 3.66699 -8.33301 -1 -13l-18 -15c-4 -4 -8.66699 -3 -14 3c-12.667 16 -30 28.333 -52 37s-44 13 -66 13c-40 0 -72.167 -11.833 -96.5 -35.5
s-36.5 -53.167 -36.5 -88.5v-303c0 -18 3 -34.667 9 -50s14.667 -28.833 26 -40.5s25.5 -20.834 42.5 -27.501s36.5 -10 58.5 -10c21.333 0 42.333 4.16699 63 12.5s38.334 20.166 53.001 35.499c6.66699 7.33301 12.334 9 17.001 5z" />
    <glyph glyph-name="D" unicode="D" horiz-adv-x="473" 
d="M422 167c0 -54 -14.667 -95.333 -44 -124s-70.333 -43 -123 -43h-186c-4.66699 0 -7 2.66699 -7 8v601c0 5.33301 2.33301 8 7 8h187c110.667 0 166 -53.667 166 -161v-289zM378 454c0 18 -2 34.666 -6 49.999s-10.833 28.5 -20.5 39.5s-22.5 19.667 -38.5 26
s-36 9.5 -60 9.5h-141c-2 0 -3.66699 -0.166992 -5 -0.5s-2 -2.16602 -2 -5.49902v-529c0 -4 2.33301 -6 7 -6h143c38 0 68 10.333 90 31s33 52 33 94v291z" />
    <glyph glyph-name="E" unicode="E" horiz-adv-x="429" 
d="M399 8c0 -5.33301 -2.66699 -8.00098 -8 -8.00098h-322c-5.33301 0 -8 2.66699 -8 8v601c0 5.33301 2.66699 8 8 8h310c4.66699 0 7 -2.66699 7 -8v-23c0 -4.66699 -2.33301 -7 -7 -7h-267c-2.66699 0 -4.66699 -0.166992 -6 -0.5s-2 -2.16602 -2 -5.49902v-229
c0 -4 2.33301 -6 7 -6h233c4.66699 0 7 -2.66699 7 -8v-23c0 -4.66699 -2.33301 -7 -7 -7h-233c-4.66699 0 -7 -2.33301 -7 -7v-249c0 -4 2.33301 -6 7 -6h280c5.33301 0 8 -2.33301 8 -7v-23v0z" />
    <glyph glyph-name="F" unicode="F" horiz-adv-x="397" 
d="M389 586c0 -4.66699 -2.33203 -7 -6.99902 -7h-270c-2 0 -3.66699 -0.166992 -5 -0.5s-2 -2.16602 -2 -5.49902v-230c0 -2.66699 0.166992 -4.33398 0.5 -5.00098s2.16602 -1 5.49902 -1h229c4.66699 0 7 -2.66699 7 -8v-24c0 -4.66699 -2.33301 -7 -7 -7h-228
c-4.66699 0 -7 -2.33301 -7 -7l-1 -284c0 -4.66699 -2 -7 -6 -7h-29c-5.33301 -0 -8 2.33301 -8 7v602c0 5.33301 3 8 9 8h312c4.66699 0 7 -2.33301 7 -7v-24v0z" />
    <glyph glyph-name="G" unicode="G" horiz-adv-x="461" 
d="M414 156c0 -23.333 -4.16113 -45.0039 -12.4941 -65.0039s-20.333 -37.333 -36 -52s-34.334 -26 -56.001 -34s-45.834 -12 -72.501 -12c-26 0 -49.833 3.66699 -71.5 11s-40.5 18 -56.5 32s-28.5 31 -37.5 51s-13.5 42.667 -13.5 68v310c0 22.667 4.5 43.667 13.5 63
s21.5 36.166 37.5 50.499s34.833 25.5 56.5 33.5s45.167 12 70.5 12c30 0 59.167 -5.33301 87.5 -16s50.166 -26.667 65.499 -48c3.33301 -4.66699 2.66602 -9 -2.00098 -13l-18 -14c-5.33301 -4.66699 -10.333 -3.66699 -15 3c-12.667 17.333 -30 30 -52 38
s-43.667 12 -65 12c-20 0 -38.333 -3.16699 -55 -9.5s-31 -15.166 -43 -26.499s-21.333 -24.666 -28 -39.999s-10 -31.666 -10 -48.999v-304c0 -19.333 3.5 -36.666 10.5 -51.999s16.667 -28.5 29 -39.5s26.666 -19.5 42.999 -25.5s34.166 -9 53.499 -9
c38.667 0 70.5 10.833 95.5 32.5s37.5 52.834 37.5 93.501v128c0 4.66699 -2 7 -6 7h-88c-5.33301 0 -8 2.33301 -8 7v24c0 5.33301 2.66699 8 8 8h129c6 0 9 -2.66699 9 -8v-167v0z" />
    <glyph glyph-name="H" unicode="H" horiz-adv-x="499" 
d="M439 7c0 -4.66699 -2.33203 -7 -6.99902 -7h-29c-5.33301 -0 -8 2.33301 -8 7v285c0 4.66699 -2 7 -6 7h-278c-4.66699 0 -7 -2.33301 -7 -7v-285c0 -4.66699 -2.33301 -7 -7 -7h-28c-5.33301 -0 -8 2.33301 -8 7v603c0 4.66699 2.66699 7 8 7h28
c4.66699 0 7 -2.33301 7 -7v-267c0 -4 2.33301 -6 7 -6h278c3.33301 0 5.16602 0.5 5.49902 1.5s0.5 2.5 0.5 4.5v267c0 4.66699 2.66699 7 8 7h28c5.33301 0 8 -2.33301 8 -7v-603v0z" />
    <glyph glyph-name="I" unicode="I" horiz-adv-x="201" 
d="M122 7c0 -4.66699 -2.66699 -7 -8 -7h-28c-5.33301 -0 -8 2.33301 -8 7v603c0 4.66699 2.66699 7 8 7h28c5.33301 0 8 -2.33301 8 -7v-603v0z" />
    <glyph glyph-name="J" unicode="J" horiz-adv-x="227" 
d="M148 123c0 -34.667 -2.00195 -64.1641 -6.00195 -88.4971s-11.667 -45.333 -23 -63s-27.166 -32.834 -47.499 -45.501s-46.833 -24.667 -79.5 -36c-2 -0.666992 -4.33301 -0.833984 -7 -0.500977s-4.66699 2.5 -6 6.5l-6 22c-2 6 0.333008 10.333 7 13
c28 10 50.167 20.5 66.5 31.5s28.833 23.833 37.5 38.5s14.334 31.667 17.001 51s4 41.666 4 66.999v489c0 5.33301 2.66699 8 8 8h26c6 0 9 -2.66699 9 -8v-485z" />
    <glyph glyph-name="K" unicode="K" horiz-adv-x="470" 
d="M432 7c0 -4.66699 -2.33203 -7.00195 -6.99902 -7.00195h-26c-4.66699 0 -7 2.33301 -7 7l-13 183c-1.33301 15.333 -3.5 31 -6.5 47s-9.16699 30.667 -18.5 44s-22.666 24.333 -39.999 33s-40.333 13 -69 13c-27.333 0 -50 -4.16699 -68 -12.5
s-32.333 -19.166 -43 -32.499s-18.334 -28.166 -23.001 -44.499s-7 -32.5 -7 -48.5v-182c0 -4.66699 -2 -7 -6 -7h-30c-5.33301 0 -8 2 -8 6v602c0 6 2.66699 9 8 9h30c4 0 6 -3 6 -9v-285c0 -4 0.5 -6.83301 1.5 -8.5s3.5 -0.166992 7.5 4.5l260 291c4 4 8 6 12 6h30
c4 0 6.16699 -1 6.5 -3s-0.166992 -4 -1.5 -6l-214 -242c-3.33301 -3.33301 -4.33301 -5.5 -3 -6.5s3.66602 -1.5 6.99902 -1.5c8 2 16.833 3.33301 26.5 4s18.5 1 26.5 1c28.667 -0.666992 52.667 -5.66699 72 -15s35 -21.5 47 -36.5s20.833 -32 26.5 -51
s9.16699 -38.5 10.5 -58.5z" />
    <glyph glyph-name="L" unicode="L" horiz-adv-x="395" 
d="M385 8c0 -5.33301 -2.33301 -8 -7 -8h-312c-6 0 -9 2.66699 -9 8v602c0 4.66699 2.66699 7 8 7h28c4.66699 0 7 -2.33301 7 -7v-565c0 -4 2.33301 -6 7 -6h271c4.66699 0 7 -2.33301 7 -7v-24v0z" />
    <glyph glyph-name="M" unicode="M" horiz-adv-x="603" 
d="M549 7c0 -4.66699 -2.33398 -6.99902 -7.00098 -6.99902h-27c-5.33301 0 -8 2.33301 -8 7v495c0 3.33301 -1.33301 3.66602 -4 0.999023l-88 -233l-45.5 -118.5l-45.5 -118.5c-3.33301 -6 -7.66602 -9 -12.999 -9h-22c-3.33301 0 -6 0.5 -8 1.5s-3.66699 3.16699 -5 6.5
l-48 127.5l-49 127.5l-81 215c-2 2 -3.33301 2 -4 0v-495c0 -4.66699 -2.33301 -7 -7 -7h-27c-5.33301 -0 -8 2.33301 -8 7v597c0 3.33301 0.833008 6.33301 2.5 9s4.83398 4 9.50098 4h23c7.33301 0 12 -3 14 -9l142 -377l27 -73.5l27 -73.5
c2 -4.66699 4.33301 -4.66699 7 0l54 148l71.5 188.5l70.5 188.5c1.33301 2.66699 3 4.66699 5 6s5 2 9 2h23c5.33301 0 8.66602 -1.33301 9.99902 -4s2 -5.66699 2 -9v-597v0z" />
    <glyph glyph-name="N" unicode="N" horiz-adv-x="497" 
d="M92 617c4.66699 0 7.83203 -0.831055 9.49902 -2.49805s3.5 -3.83398 5.5 -6.50098l287 -522c2.66699 -4 4 -4 4 0v523c0 5.33301 2.33301 8 7 8h28c4.66699 0 7 -2.33301 7 -7v-598c0 -4.66699 -1.16699 -7.83398 -3.5 -9.50098s-5.16602 -2.5 -8.49902 -2.5h-22
c-4.66699 0 -8 0.666992 -10 2s-3.66699 3.33301 -5 6l-28 51l-52 94l-63.5 115.5l-63.5 115.5l-52 93.5l-28 50.5c-2.66699 4 -4 4 -4 0v-520c0 -5.33301 -2.66699 -8 -8 -8h-27c-4.66699 0 -7 2.66699 -7 8v596c0 8.66699 3.66699 13 11 13h23z" />
    <glyph glyph-name="O" unicode="O" horiz-adv-x="476" 
d="M418 160c0 -24.667 -4 -47.168 -12 -67.501s-19.833 -37.833 -35.5 -52.5s-34.667 -26.167 -57 -34.5s-47.5 -12.5 -75.5 -12.5c-29.333 0 -55.333 4.33301 -78 13s-41.5 20.834 -56.5 36.501s-26.333 34 -34 55s-11.5 43.5 -11.5 67.5v293c0 24 4.33301 46 13 66
s20.667 37.5 36 52.5s34 26.667 56 35s46.667 12.5 74 12.5s52.166 -4 74.499 -12s41.333 -19.333 57 -34s27.834 -32.167 36.501 -52.5s13 -42.833 13 -67.5v-298zM375 455.999c0 17.333 -2.83398 33.832 -8.50098 49.499s-14.167 29.334 -25.5 41.001s-25.5 21 -42.5 28
s-37.167 10.5 -60.5 10.5c-22 0 -41.667 -3.5 -59 -10.5s-31.666 -16.333 -42.999 -28s-20 -25.334 -26 -41.001s-9 -32.167 -9 -49.5v-289c0 -18 2.66699 -35.167 8 -51.5s13.5 -30.666 24.5 -42.999s25.167 -22.333 42.5 -30s38 -11.5 62 -11.5c44 0 77.833 12 101.5 36
s35.5 55.667 35.5 95v294z" />
    <glyph glyph-name="P" unicode="P" horiz-adv-x="445" 
d="M425 453c0 -24 -3.83301 -45.833 -11.5 -65.5s-18.667 -36.834 -33 -51.501s-31.5 -26 -51.5 -34s-42 -12 -66 -12h-148c-4.66699 0 -7 -2.66699 -7 -8v-275c0 -4.66699 -2.66699 -7 -8 -7h-27c-5.33301 0 -8 2.33301 -8 7v602c0 5.33301 3 8 9 8h188
c25.333 0 48 -4.16699 68 -12.5s37 -19.666 51 -33.999s24.833 -31.5 32.5 -51.5s11.5 -42 11.5 -66zM116 579c-6 0 -9.00098 -1.99902 -9.00098 -5.99902v-238c0 -5.33301 2.66699 -8 8 -8h147c39.333 0 69.333 11.667 90 35s31 54 31 92c0 16.667 -2.66699 32.667 -8 48
s-13.166 28.666 -23.499 39.999s-23 20.333 -38 27s-32.167 10 -51.5 10h-146z" />
    <glyph glyph-name="Q" unicode="Q" horiz-adv-x="476" 
d="M418 156c0 -44.667 -13.498 -81.334 -40.498 -110.001s-64.167 -45.667 -111.5 -51c-3.33301 -0.666992 -5.33301 -1.66699 -6 -3s-1 -3.33301 -1 -6c0 -10.667 0.5 -20.667 1.5 -30s3.5 -17.5 7.5 -24.5s9.83301 -12.5 17.5 -16.5s18.167 -6 31.5 -6
c8.66699 0 18.167 0.833008 28.5 2.5s21.166 4.83398 32.499 9.50098c6 2.66699 10 1.33398 12 -3.99902l7 -18c1.33301 -4 1.5 -6.83301 0.5 -8.5s-2.83301 -3.16699 -5.5 -4.5c-12 -5.33301 -24.833 -9.33301 -38.5 -12s-26.167 -4 -37.5 -4c-20 0 -36.333 3 -49 9
s-22.667 14.167 -30 24.5s-12.5 22.5 -15.5 36.5s-4.5 29.333 -4.5 46c0 6 -2.33301 9 -7 9c-46 5.33301 -82.833 23 -110.5 53s-41.5 67 -41.5 111v304c0 24 4.66699 45.833 14 65.5s22.166 36.5 38.499 50.5s35.333 25 57 33s44.834 12 69.501 12
c25.333 0 49 -3.83301 71 -11.5s41.167 -18.5 57.5 -32.5s29.166 -30.833 38.499 -50.5s14 -41.834 14 -66.501v-307zM375.002 461c0 17.333 -3.16699 33.5 -9.5 48.5s-15.5 28.167 -27.5 39.5s-26.5 20.333 -43.5 27s-35.833 10 -56.5 10c-20 0 -38.5 -3.33301 -55.5 -10
s-31.5 -15.667 -43.5 -27s-21.333 -24.5 -28 -39.5s-10 -31.167 -10 -48.5v-300c0 -37.333 12 -68.333 36 -93s57.667 -37 101 -37c40 0 72.833 11.333 98.5 34s38.5 53.667 38.5 93v303z" />
    <glyph glyph-name="R" unicode="R" horiz-adv-x="465" 
d="M423 451c0 -20 -2.66992 -38.668 -8.00293 -56.001s-12.5 -33.166 -21.5 -47.499s-19.5 -27 -31.5 -38s-24.333 -20.5 -37 -28.5c-3.33301 -2 -3.66602 -5 -0.999023 -9l121 -261c2 -4 2.16699 -6.83301 0.5 -8.5s-3.83398 -2.5 -6.50098 -2.5h-26
c-5.33301 -0 -9 0.833008 -11 2.5s-3.66699 4.5 -5 8.5l-115 248c-1.33301 4 -3.16602 7 -5.49902 9s-6.16602 3 -11.499 3h-153c-5.33301 0 -8 -2.66699 -8 -8v-256c0 -4.66699 -2.33301 -7 -7 -7h-28c-5.33301 -0 -8 2.33301 -8 7v600c0 6 3.66699 9 11 9h180
c56.667 0 99.334 -15 128.001 -45s43 -70 43 -120zM113.997 578.999c-6.66699 0 -10 -2.66797 -10 -8.00098v-255c0 -5.33301 2.33301 -8 7 -8h172c5.33301 0 9.5 0.5 12.5 1.5s5.16699 2.16699 6.5 3.5c23.333 12.667 42 30.834 56 54.501s21 49.5 21 77.5
c0 15.333 -1.83301 30.833 -5.5 46.5s-10.667 30 -21 43s-24.5 23.667 -42.5 32s-41 12.5 -69 12.5h-127z" />
    <glyph glyph-name="S" unicode="S" horiz-adv-x="427" 
d="M194 31c44 0 80.6699 10.4932 110.003 31.4932s44 52.5 44 94.5c0 20.667 -3.33301 38.334 -10 53.001s-15.834 27.334 -27.501 38.001s-25.5 20 -41.5 28s-33 15.667 -51 23c-19.333 7.33301 -39.5 15.5 -60.5 24.5s-40.167 19.667 -57.5 32s-31.833 27.333 -43.5 45
s-17.5 39.167 -17.5 64.5c0 26 4.83301 48.833 14.5 68.5s22.334 36.334 38.001 50.001s33.667 23.834 54 30.501s41.5 10 63.5 10c26.667 0 53.5 -3.5 80.5 -10.5s51.5 -18.833 73.5 -35.5c3.33301 -2 4.66602 -4 3.99902 -6s-1.66699 -4.33301 -3 -7l-12 -18
c-2 -3.33301 -4.33301 -4.66602 -7 -3.99902s-5 1.66699 -7 3c-17.333 12.667 -37.333 22.334 -60 29.001s-44.334 10 -65.001 10c-15.333 0 -30.833 -2.16699 -46.5 -6.5s-29.834 -11.166 -42.501 -20.499s-22.834 -21.666 -30.501 -36.999s-11.5 -34 -11.5 -56
c0 -17.333 4.5 -32.333 13.5 -45s20.333 -23.834 34 -33.501s28.834 -18.167 45.501 -25.5s32.667 -14 48 -20c21.333 -8.66699 42.166 -17.834 62.499 -27.501s38.333 -21.5 54 -35.5s28.167 -30.333 37.5 -49s14 -41.334 14 -68.001c0 -27.333 -5 -51.333 -15 -72
s-23.833 -38 -41.5 -52s-38.5 -24.5 -62.5 -31.5s-49.667 -10.5 -77 -10.5c-32 0 -62.833 5.5 -92.5 16.5s-53.5 26.167 -71.5 45.5c-2.66699 2.66699 -3.66699 4.83398 -3 6.50098s2.33398 3.83398 5.00098 6.50098l13 13c4 4 8.66699 4 14 0
c16 -13.333 36.5 -25.333 61.5 -36s49.167 -16 72.5 -16z" />
    <glyph glyph-name="T" unicode="T" horiz-adv-x="400" 
d="M388 586c0 -4.66699 -2.33301 -7.00098 -7 -7.00098h-153c-2.66699 0 -4.66699 -0.166992 -6 -0.5s-2 -2.16602 -2 -5.49902v-566c0 -4.66699 -2.33301 -7 -7 -7h-27c-6 -0 -9 2.33301 -9 7v566c0 4 -2.33301 6 -7 6h-151c-4.66699 0 -7 2.33301 -7 7v23
c0 5.33301 2.33301 8 7 8h362c4.66699 0 7 -2.33301 7 -7v-24v0z" />
    <glyph glyph-name="U" unicode="U" horiz-adv-x="479" 
d="M420 159c0 -25.333 -4.50098 -48.1699 -13.501 -68.5029s-21.5 -37.666 -37.5 -51.999s-35 -25.5 -57 -33.5s-46 -12 -72 -12c-28 0 -53.333 4.16699 -76 12.5s-41.667 19.833 -57 34.5s-27.166 32.167 -35.499 52.5s-12.5 42.5 -12.5 66.5v451c0 4.66699 2.66699 7 8 7
h28c4.66699 0 7 -2.33301 7 -7v-449c0 -18 3 -34.833 9 -50.5s14.833 -29.5 26.5 -41.5s26.167 -21.333 43.5 -28s37.333 -10 60 -10c22 0 41.5 3.33301 58.5 10s31.167 15.834 42.5 27.501s20 25.334 26 41.001s9 32.5 9 50.5v450c0 4.66699 2.66699 7 8 7h28
c4.66699 0 7 -2.33301 7 -7v-451v0z" />
    <glyph glyph-name="V" unicode="V" horiz-adv-x="419" 
d="M239 6c-0.666992 -4 -3.66602 -6.00098 -8.99902 -6.00098h-41c-4 0 -6.66699 2.33301 -8 7l-171 600c-2.66699 6.66699 -0.333984 10 6.99902 10h29c4.66699 0 8 -2.33301 10 -7l98 -355l55 -205c1.33301 -4 2.66602 -4 3.99902 0l5 20c2.66699 10.667 6 23 10 37
l12.5 45.5l12.5 45.5c4 14 7.33301 26.333 10 37l5 20l96 355c1.33301 4.66699 4.66602 7 9.99902 7h29c4.66699 0 7.33398 -1.16699 8.00098 -3.5s0.333984 -5.16602 -0.999023 -8.49902z" />
    <glyph glyph-name="W" unicode="W" horiz-adv-x="637" 
d="M622 617c4.66699 0 7.16797 -1.00098 7.50098 -3.00098s0.166016 -4.66699 -0.500977 -8l-132 -600c-1.33301 -4 -4 -6 -8 -6h-43c-3.33301 0 -5.66602 1.66699 -6.99902 5l-37.5 164.5l-38.5 164.5l-47 206c0 1.33301 -0.333008 2 -1 2s-1.33398 -0.666992 -2.00098 -2
l-45 -208l-72 -327c-2 -3.33301 -5 -5 -9 -5h-42c-3.33301 0 -5.66602 1.66699 -6.99902 5l-136 603v3c0 4 2.33301 6 7 6h30c4.66699 0 7.66699 -3 9 -9l43 -195.5c14.667 -65 28.667 -130.5 42 -196.5c6 -26 11.5 -51.833 16.5 -77.5l15.5 -77.5
c0.666992 -1.33301 1.5 -2 2.5 -2s1.83301 0.666992 2.5 2l30 141c1.33301 5.33301 2.66602 11 3.99902 17l5.5 25.5l9 43.5c3.66699 18 8.66699 41.167 15 69.5l23 104l32.5 148.5c0.666992 2 1.5 3.66699 2.5 5s3.5 2 7.5 2h32c4.66699 0 7.66699 -3 9 -9l38.5 -165
l38.5 -166l49 -216c0.666992 -2 1.66699 -3.16699 3 -3.5s2 0.833984 2 3.50098l44 220l34 164l34 164c2 5.33301 5.33301 8 10 8h29z" />
    <glyph glyph-name="X" unicode="X" horiz-adv-x="413" 
d="M211 274c-2 4.66699 -4.33203 5.00098 -6.99902 1.00098l-147 -270c-2 -3.33301 -3.83301 -5 -5.5 -5h-6.5h-29c-3.33301 0 -5.33301 1 -6 3s-0.333984 4.33301 0.999023 7l167 303c3.33301 5.33301 4.5 9.16602 3.5 11.499s-2.16699 4.16602 -3.5 5.49902l-152 278
c-3.33301 6 -1.66602 9 5.00098 9h31c6.66699 0 10.667 -1.66699 12 -5l130 -243c1.33301 -1.33301 2.66602 -2 3.99902 -2s2.33301 0.666992 3 2c2 3.33301 6.33301 11.333 13 24l23.5 44l29.5 53.5l29.5 53.5l23.5 43.5c6.66699 12.333 11 20.5 13 24.5
c1.33301 3.33301 5 5 11 5h29c6.66699 0 8.66699 -3 6 -9c-2.66699 -5.33301 -8 -15 -16 -29l-27.5 -49.5l-33.5 -60.5l-33.5 -60.5l-27 -50l-15.5 -28.5c-2.66699 -4 -3.66699 -7.33301 -3 -10s1.66699 -4.66699 3 -6c2.66699 -5.33301 8.16699 -15.666 16.5 -30.999
l30 -54.5l37.5 -66.5l37.5 -66.5l30.5 -55l17 -30.5c2.66699 -6.66699 1 -10 -5 -10h-30h-7c-2 0 -3.66699 1.66699 -5 5z" />
    <glyph glyph-name="Y" unicode="Y" horiz-adv-x="403" 
d="M228 252c-2.66699 -5.33301 -4.16699 -9.83203 -4.5 -13.499s-0.5 -7.16699 -0.5 -10.5v-221c0 -4.66699 -2.33301 -7 -7 -7h-28c-5.33301 0 -8 2.33301 -8 7v216c0 5.33301 -0.166992 9.66602 -0.5 12.999s-1.5 7.33301 -3.5 12l-162 359
c-3.33301 6.66699 -1.33301 10 6 10h28c3.33301 0 5.83301 -0.666992 7.5 -2s3.16699 -3.33301 4.5 -6l139 -316l3 -3c0.666992 -0.666992 1.66699 0.333008 3 3c2 5.33301 6.5 16 13.5 32l25 56.5l30.5 69.5l30.5 69.5l25 56.5c7 16 11.5 26.667 13.5 32
c2 3.33301 3.66699 5.5 5 6.5s4 1.5 8 1.5h28c7.33301 0 9 -3.66699 5 -11z" />
    <glyph glyph-name="Z" unicode="Z" horiz-adv-x="393" 
d="M376 8c0 -5.33301 -2.33301 -7.99902 -7 -7.99902h-341c-6.66699 0 -10 3 -10 9v16c0 6 1.33301 12.333 4 19l296 528c3.33301 4.66699 1.66602 7 -5.00098 7h-272c-6 0 -9 2.66699 -9 8v22c0 5.33301 2.66699 8 8 8h321c7.33301 0 11 -3.33301 11 -10v-15
c0 -4 -0.666992 -7.83301 -2 -11.5s-2.66602 -6.83398 -3.99902 -9.50098l-292 -524c-3.33301 -5.33301 -2 -8 4 -8h290c5.33301 0 8 -2.66699 8 -8v-23v0z" />
    <glyph glyph-name="bracketleft" unicode="[" horiz-adv-x="304" 
d="M232 -135c0 -4.66699 -2 -7 -6 -7h-125c-4.66699 0 -7 2.33301 -7 7v804c0 5.33301 2.33301 8 7 8h125c4 0 6 -2.66699 6 -8v-22c0 -4 -2 -6 -6 -6h-82c-5.33301 0 -8 -2.33301 -8 -7v-734c0 -4.66699 2.66699 -7 8 -7h82c4 0 6 -2 6 -6v-22v0z" />
    <glyph glyph-name="backslash" unicode="\" horiz-adv-x="284" 
d="M280 -59c0.666992 -2.66699 0.166992 -4.66699 -1.5 -6s-3.5 -2 -5.5 -2h-15c-4.66699 0 -7.66699 2.66699 -9 8l-243 725c-2 5.33301 0 8 6 8h14c5.33301 0 9 -2.66699 11 -8l243 -725v0z" />
    <glyph glyph-name="bracketright" unicode="]" horiz-adv-x="305" 
d="M191 -136c0 -4.66699 -2 -7 -6 -7h-126c-4 0 -6 2.33301 -6 7v22c0 4.66699 2 7 6 7h82c5.33301 0 8 2.33301 8 7v734c0 4 -2.66699 6 -8 6h-82c-4 0 -6 2.33301 -6 7v22c0 4.66699 2 7 6 7h125c4.66699 0 7 -2.33301 7 -7v-805v0z" />
    <glyph glyph-name="asciicircum" unicode="^" horiz-adv-x="502" 
d="M420 377c-4 -2.66699 -8.00195 -1.99902 -12.002 2.00098l-152 182c-2.66699 3.33301 -4.5 5 -5.5 5s-2.83301 -1.66699 -5.5 -5l-147 -178c-1.33301 -1.33301 -2.66602 -3 -3.99902 -5s-3.66602 -2 -6.99902 0l-13 10c-4 3.33301 -4.66699 6.66602 -2 9.99902l159 219
c2.66699 3.33301 4.5 5.5 5.5 6.5s2.83301 1.5 5.5 1.5h17c4.66699 0 8.66699 -2.66699 12 -8l162 -219c4 -4 3.33301 -8 -2 -12z" />
    <glyph glyph-name="underscore" unicode="_" horiz-adv-x="500" 
d="M503 -107c0 -4 -2 -6 -6 -6h-493c-4.66699 0 -7 2 -7 6l-1 20c0 4.66699 2.66699 7 8 7h493c4 0 6 -2.33301 6 -7v-20v0z" />
    <glyph glyph-name="grave" unicode="`" horiz-adv-x="402" 
d="M130 608c-2.66699 3.33301 -3.99902 6.16797 -3.99902 8.50098s3 5.16602 9 8.49902l22 12c8 4 14 2.66699 18 -4l68 -124c1.33301 -2 2.16602 -4 2.49902 -6s-1.5 -4.33301 -5.5 -7l-11 -6c-3.33301 -2 -6 -2.33301 -8 -1s-3.66699 3 -5 5z" />
    <glyph glyph-name="a" unicode="a" horiz-adv-x="382" 
d="M28 138c0 20.667 3.33008 40 9.99707 58s16.334 33.667 29.001 47s28.5 24 47.5 32s40.833 12 65.5 12c20.667 0 40.5 -3.66699 59.5 -11s34.167 -17.666 45.5 -30.999c2.66699 -2.66699 4.83398 -3.5 6.50098 -2.5s2.5 3.16699 2.5 6.5v46c0 14 -1.5 27.5 -4.5 40.5
s-8.5 24.5 -16.5 34.5s-19.167 18.167 -33.5 24.5s-32.5 9.5 -54.5 9.5c-8 0 -16.667 -0.5 -26 -1.5s-18.833 -2.5 -28.5 -4.5s-19 -4.33301 -28 -7s-16.833 -5.33398 -23.5 -8.00098c-4.66699 -3.33301 -8 -2.33301 -10 3l-9 21c-0.666992 4 1 7 5 9
c16.667 8 36.334 14.167 59.001 18.5s44 6.5 64 6.5c53.333 0 91.333 -12.833 114 -38.5s34 -62.5 34 -110.5v-285c0 -4.66699 -2.33301 -7 -7 -7h-26c-4 0 -6 2 -6 6v39c0 4.66699 -1 7 -3 7s-4 -1.33301 -6 -4c-26 -35.333 -64.667 -53 -116 -53
c-46 0 -81.5 13.167 -106.5 39.5s-37.5 60.833 -37.5 103.5zM66.9971 140c0 -31.333 8.66895 -57.667 26.002 -79s45.666 -32 84.999 -32c34 0 61.5 11 82.5 33s31.5 48.667 31.5 80c0 30.667 -9.83301 57 -29.5 79s-46.834 33 -81.501 33c-18 0 -34.167 -3 -48.5 -9
s-26.333 -14.167 -36 -24.5s-17 -22.5 -22 -36.5s-7.5 -28.667 -7.5 -44z" />
    <glyph glyph-name="b" unicode="b" horiz-adv-x="411" 
d="M376 151c0 -22 -3.33105 -42.498 -9.99805 -61.498s-16.5 -35.5 -29.5 -49.5s-29.333 -25 -49 -33s-42.834 -12 -69.501 -12c-24.667 0 -47.334 4.33301 -68.001 13s-37 20.334 -49 35.001c-3.33301 3.33301 -5.83301 4.66602 -7.5 3.99902s-2.5 -2.66699 -2.5 -6v-34
c0 -4.66699 -2.33301 -7 -7 -7h-25c-5.33301 0 -8 2 -8 6v624c0 4.66699 2.66699 7 8 7h28c4 0 6 -2 6 -6v-236c0 -4 0.833008 -6.66699 2.5 -8s4.16699 -0.333008 7.5 3c14 15.333 30.667 27.5 50 36.5s42 13.5 68 13.5c29.333 0 53.833 -4.83301 73.5 -14.5
s35.5 -22.334 47.5 -38.001s20.667 -33.334 26 -53.001s8 -39.5 8 -59.5v-124zM334.002 277.002c0 16.667 -2.16797 32.665 -6.50098 47.998s-11.333 28.833 -21 40.5s-22 21 -37 28s-33.5 10.5 -55.5 10.5c-18 0 -34.333 -3.33301 -49 -10s-27.5 -15.667 -38.5 -27
s-19.5 -24.666 -25.5 -39.999s-9 -31.333 -9 -48v-128c0 -17.333 3 -33.333 9 -48s14.333 -27.5 25 -38.5s23.334 -19.5 38.001 -25.5s31 -9 49 -9c43.333 0 74.333 11.333 93 34s28 52.334 28 89.001v124z" />
    <glyph glyph-name="c" unicode="c" horiz-adv-x="371" 
d="M343 377c3.33301 -5.33301 2.66797 -9.33594 -1.99902 -12.0029l-18 -15c-4 -2.66699 -8.33301 -1.66699 -13 3c-11.333 16 -26 28.5 -44 37.5s-37.333 13.5 -58 13.5c-36 0 -65.333 -11.5 -88 -34.5s-34 -52.167 -34 -87.5v-129c0 -38 11.5 -67.833 34.5 -89.5
s52.5 -32.5 88.5 -32.5c24 0 44.333 4.5 61 13.5s30.667 21.167 42 36.5c2.66699 4.66699 6.33398 5.33398 11.001 2.00098l18 -11c3.33301 -2.66699 5.16602 -5 5.49902 -7s-0.166992 -4 -1.5 -6c-15.333 -22 -34.833 -38.167 -58.5 -48.5s-49.834 -15.5 -78.501 -15.5
c-51.333 0 -91.333 14.333 -120 43s-43 67 -43 115v128c0 24 4.16699 45.833 12.5 65.5s19.833 36.334 34.5 50.001s32 24.334 52 32.001s41.667 11.5 65 11.5c57.333 0 102 -21 134 -63z" />
    <glyph glyph-name="d" unicode="d" horiz-adv-x="418" 
d="M372 6c0 -4 -2.33203 -6 -6.99902 -6h-26c-4 -0 -6 2.33301 -6 7v34c0 3.33301 -1 5.5 -3 6.5s-4.66699 -0.166992 -8 -3.5c-11.333 -15.333 -27.333 -27.333 -48 -36s-43.334 -13 -68.001 -13c-25.333 0 -47.833 3.83301 -67.5 11.5s-36.167 18.5 -49.5 32.5
s-23.5 30.5 -30.5 49.5s-10.5 39.833 -10.5 62.5v126c0 20 3 39.667 9 59s15.333 36.833 28 52.5s29 28.167 49 37.5s44 14 72 14c25.333 0 48 -4.5 68 -13.5s35.333 -21.167 46 -36.5c3.33301 -4 5.83301 -5.33301 7.5 -4s2.5 4 2.5 8v236c0 4.66699 2.33301 7 7 7h28
c4.66699 0 7 -2 7 -6v-625zM331.001 279c0 16.667 -3 32.666 -9 47.999s-14.333 28.5 -25 39.5s-23.334 19.833 -38.001 26.5s-31 10 -49 10c-21.333 0 -39.666 -3.5 -54.999 -10.5s-27.833 -16.167 -37.5 -27.5s-16.834 -24.666 -21.501 -39.999s-7 -31.333 -7 -48v-124
c0 -36 10.167 -65.5 30.5 -88.5s50.5 -34.5 90.5 -34.5c18 0 34.333 3 49 9s27.334 14.5 38.001 25.5s19 23.833 25 38.5s9 30.667 9 48v128z" />
    <glyph glyph-name="e" unicode="e" horiz-adv-x="408" 
d="M372 231c0 -6 -1.49902 -10.332 -4.49902 -12.999s-6.16699 -4 -9.5 -4h-257c-8 0 -12 -4.33301 -12 -13v-48c0 -34.667 11 -63.667 33 -87s51.667 -35 89 -35c22 0 41.5 4.33301 58.5 13s31.167 20.667 42.5 36c4 5.33301 8.33301 6.33301 13 3l19 -12
c4 -3.33301 5.33301 -7 4 -11c-14 -21.333 -33 -37.5 -57 -48.5s-51 -16.5 -81 -16.5c-50 0 -89.5 14.167 -118.5 42.5s-43.5 66.5 -43.5 114.5v126c0 25.333 4.16699 48 12.5 68s19.666 37 33.999 51s31.333 24.667 51 32s40.834 11 63.501 11c23.333 0 45 -3.5 65 -10.5
s37.167 -17.333 51.5 -31s25.666 -30.834 33.999 -51.501s12.5 -45 12.5 -73v-43zM330.001 283.001c0 35.333 -11.001 64.334 -33.001 87.001s-51.333 34 -88 34c-17.333 0 -33.166 -3 -47.499 -9s-27 -14.5 -38 -25.5s-19.5 -23.833 -25.5 -38.5s-9 -30.334 -9 -47.001v-24
c0 -7.33301 4 -11 12 -11h220c6 0 9 3.66699 9 11v23z" />
    <glyph glyph-name="f" unicode="f" horiz-adv-x="257" 
d="M271 603c-1.33301 -5.33301 -4.66699 -7.00098 -10 -5.00098c-6.66699 2.66699 -14.5 4.83398 -23.5 6.50098s-18.167 2.5 -27.5 2.5c-34 0 -57.5 -9.16699 -70.5 -27.5s-19.5 -42.5 -19.5 -72.5v-63c0 -6 2.66699 -9 8 -9h118c4 0 6 -2.33301 6 -7v-23c0 -4 -2 -6 -6 -6
h-120c-4 -0.666992 -6 -3.66699 -6 -9v-384c0 -4 -2.33301 -6 -7 -6h-28c-4.66699 0 -7 2 -7 6v384c0 5.33301 -2 8.33301 -6 9h-49c-4 0 -6 2.33301 -6 7v22c0 4.66699 2 7 6 7h47c6 0 9 3 9 9v71c0 43.333 11.333 75.666 34 96.999s53 32 91 32
c11.333 0 23 -0.666992 35 -2s22.333 -3.66602 31 -6.99902c3.33301 -1.33301 5.5 -2.33301 6.5 -3s0.833008 -2.66699 -0.5 -6z" />
    <glyph glyph-name="g" unicode="g" horiz-adv-x="415" 
d="M416 -81c0 -23.333 -6.67188 -45.1709 -20.0049 -65.5039s-30.666 -36.833 -51.999 -49.5c-2.66699 -1.33301 -5.16699 -2.33301 -7.5 -3s-4.83301 0.666016 -7.5 3.99902l-13 18c-2.66699 4.66699 -1.33398 9 3.99902 13c12.667 8 24.667 19 36 33s17 29.667 17 47
c0 16.667 -4.33301 30.334 -13 41.001s-19.834 19.334 -33.501 26.001s-29 11.334 -46 14.001s-33.833 4 -50.5 4c-21.333 0 -45.166 -1.5 -71.499 -4.5s-52.166 -6.16699 -77.499 -9.5c-6 -1.33301 -10.833 -1.16602 -14.5 0.500977s-7.16699 6.5 -10.5 14.5
c-4.66699 10 -7 24.667 -7 44c0 13.333 5.83301 30 17.5 50s28.167 37.667 49.5 53c2 0.666992 3 2 3 4c0 0.666992 -1.33301 2.33398 -4 5.00098h-1c-22 13.333 -39.333 31.333 -52 54s-19 48 -19 76c0 20 4 39.167 12 57.5s19 34.5 33 48.5s30.667 25.167 50 33.5
s40.666 12.5 63.999 12.5c15.333 0 32.5 -2.5 51.5 -7.5s36.167 -14.167 51.5 -27.5c2.66699 -2.66699 5 -4 7 -4s4.33301 1.33301 7 4c11.333 9.33301 24.333 17 39 23s29.667 9.66699 45 11h3c4.66699 0 7 -3.33301 7 -10v-30c0 -5.33301 -2 -8 -6 -8h-3
c-10 0 -21.333 -1.33301 -34 -4s-21.667 -5.33398 -27 -8.00098c-3.33301 -1.33301 -5 -3 -5 -5c0 -1.33301 1.33301 -4.66602 4 -9.99902c6.66699 -10 11.667 -21.667 15 -35s5 -26.333 5 -39c0 -24 -4.5 -45.667 -13.5 -65s-21 -35.666 -36 -48.999
s-32.167 -23.666 -51.5 -30.999s-39.666 -11 -60.999 -11h-17c-5.33301 0 -10.666 0.666992 -15.999 2c-5.33301 0 -9.16602 -0.5 -11.499 -1.5s-5.16602 -2.5 -8.49902 -4.5c-6.66699 -4.66699 -13.5 -10.334 -20.5 -17.001s-13.167 -13.834 -18.5 -21.501
s-9.83301 -15.5 -13.5 -23.5s-5.5 -16 -5.5 -24c0 -10 1.16699 -16 3.5 -18s7.16602 -2.33301 14.499 -1c8.66699 2 18.334 3.83301 29.001 5.5s21.5 3.16699 32.5 4.5s21.667 2.33301 32 3s19.5 1 27.5 1c24 0 47.167 -2.16699 69.5 -6.5s42.333 -11.333 60 -21
s31.834 -22 42.501 -37s16 -33.5 16 -55.5zM319.995 288.995c0 15.333 -2.66895 30 -8.00195 44s-13.166 26.167 -23.499 36.5s-22.666 18.5 -36.999 24.5s-30.5 9 -48.5 9s-34.167 -3.16699 -48.5 -9.5s-26.666 -14.833 -36.999 -25.5s-18.333 -23 -24 -37
s-8.5 -28.667 -8.5 -44s2.66699 -30 8 -44s12.833 -26.5 22.5 -37.5s21.667 -19.833 36 -26.5s30.5 -10 48.5 -10c18.667 0 35.5 3.33301 50.5 10s27.667 15.5 38 26.5s18.166 23.833 23.499 38.5s8 29.667 8 45z" />
    <glyph glyph-name="h" unicode="h" horiz-adv-x="428" 
d="M379 7c0 -4.66699 -2.33105 -7 -6.99805 -7h-28c-4.66699 0 -7 2 -7 6v271c0 16.667 -2.16699 32.834 -6.5 48.501s-11.333 29.167 -21 40.5s-22.167 20.5 -37.5 27.5s-34 10.5 -56 10.5c-18 0 -34.333 -3.33301 -49 -10s-27.167 -15.667 -37.5 -27
s-18.5 -24.5 -24.5 -39.5s-9 -31.167 -9 -48.5v-272c0 -4.66699 -2.33301 -7 -7 -7h-28c-4.66699 0 -7 2 -7 6v624c0 4.66699 2.33301 7 7 7h28c4 0 6 -2.33301 6 -7v-237c0 -4 1 -6.5 3 -7.5s4.33301 0.166992 7 3.5c15.333 17.333 33.5 30.166 54.5 38.499
s43.167 12.5 66.5 12.5c28 0 51.667 -4.66699 71 -14s35.166 -21.5 47.499 -36.5s21.166 -32.5 26.499 -52.5s8 -40.333 8 -61v-269v0z" />
    <glyph glyph-name="i" unicode="i" horiz-adv-x="172" 
d="M114 562c0 -8.66699 -3.00098 -16 -9.00098 -22s-13 -9 -21 -9s-15 2.83301 -21 8.5s-9 13.167 -9 22.5c0 8.66699 3 15.834 9 21.501s13 8.5 21 8.5c8.66699 0 15.834 -2.83301 21.501 -8.5s8.5 -12.834 8.5 -21.501zM61.999 428c0 4.66699 2.33301 7 7 7h28
c4.66699 0 7 -2.33301 7 -7v-422c0 -4 -2.33301 -6 -7 -6h-28c-4.66699 0 -7 2 -7 6v422z" />
    <glyph glyph-name="j" unicode="j" horiz-adv-x="164" 
d="M115 562c0 -8.66699 -3.00098 -16 -9.00098 -22s-12.667 -9 -20 -9c-8.66699 0 -16 2.83301 -22 8.5s-9 13.167 -9 22.5c0 8.66699 3 15.834 9 21.501s13 8.5 21 8.5c8.66699 0 15.834 -2.83301 21.501 -8.5s8.5 -12.834 8.5 -21.501zM-44.001 -142
c1.33301 4 4.66699 5.66699 10 5c5.33301 -1.33301 11.333 -2.33301 18 -3s12.667 -1 18 -1c25.333 0 42 6.66699 50 20s12 33.333 12 60v489c0 4.66699 2.33301 7 7 7h28c4.66699 0 7 -2.33301 7 -7v-492c0 -38 -8 -66.667 -24 -86s-41.667 -29 -77 -29
c-9.33301 0 -18.333 0.5 -27 1.5s-15.667 2.5 -21 4.5c-4.66699 0.666992 -6.66699 3.66699 -6 9z" />
    <glyph glyph-name="k" unicode="k" horiz-adv-x="406" 
d="M376 9c0 -6 -2.66699 -9.00098 -8 -9.00098h-26c-5.33301 0 -8 2.66699 -8 8l-5 101c-0.666992 16 -3.16699 31.333 -7.5 46s-11.166 27.5 -20.499 38.5s-21.166 19.667 -35.499 26s-31.833 9.5 -52.5 9.5c-16.667 0 -32.334 -3 -47.001 -9s-27.334 -14.333 -38.001 -25
s-19 -22.834 -25 -36.501s-9 -27.834 -9 -42.501v-109c0 -4.66699 -2 -7 -6 -7h-28c-5.33301 0 -8 2 -8 6v624c0 4.66699 2.33301 7 7 7h29c4 0 6 -2 6 -6v-399c0 -5.33301 1.16699 -8.16602 3.5 -8.49902s4.83301 0.5 7.5 2.5l205 204c4 3.33301 8.66699 5 14 5h35
c2.66699 0 4.5 -0.833008 5.5 -2.5s0.833008 -3.16699 -0.5 -4.5l-156 -157c-3.33301 -3.33301 -4.33301 -5.66602 -3 -6.99902s3 -1.66602 5 -0.999023c2.66699 0.666992 5.16699 1 7.5 1h6.5c47.333 0 83 -13.833 107 -41.5s37.333 -65.5 40 -113.5l5 -100v0z" />
    <glyph glyph-name="l" unicode="l" horiz-adv-x="195" 
d="M177 2c0 -4.66699 -2.66797 -7 -8.00098 -7h-19c-17.333 0 -31.166 2.33301 -41.499 7s-18.333 10.834 -24 18.501s-9.5 16.667 -11.5 27s-3 21.5 -3 33.5v549c0 4.66699 2 7 6 7h28c4.66699 0 7 -2.33301 7 -7v-535c0 -20 3 -35.167 9 -45.5s19 -15.5 39 -15.5h10
c4 0 6.33301 -0.833008 7 -2.5s1 -3.83398 1 -6.50098v-23z" />
    <glyph glyph-name="m" unicode="m" horiz-adv-x="664" 
d="M614 7c0 -4.66699 -1.99609 -7 -5.99609 -7h-29c-4.66699 0 -7 2 -7 6v283c0 32.667 -8.66699 60 -26 82s-45.333 33 -84 33c-14 0 -27.5 -3 -40.5 -9s-24.5 -14.333 -34.5 -25s-18 -22.834 -24 -36.501s-9 -28.5 -9 -44.5v-282c0 -4.66699 -2.33301 -7 -7 -7h-28
c-4.66699 0 -7 2 -7 6v283c0 16 -2.83301 31 -8.5 45s-13.334 26.167 -23.001 36.5s-21 18.5 -34 24.5s-26.833 9 -41.5 9c-37.333 0 -65.333 -11 -84 -33s-28 -49.333 -28 -82v-282c0 -4.66699 -2 -7 -6 -7h-29c-4.66699 0 -7 2 -7 6v283c0 22.667 4 43.334 12 62.001
s18.833 34.667 32.5 48s29.667 23.5 48 30.5s38.166 10.5 59.499 10.5c23.333 0 46.166 -5.33301 68.499 -16s41.5 -28.667 57.5 -54c3.33301 -4 6.66602 -4 9.99902 0c13.333 22 32.333 39.167 57 51.5s49 18.5 73 18.5c47.333 0 83.333 -13.5 108 -40.5
s37 -63.833 37 -110.5v-282v0z" />
    <glyph glyph-name="n" unicode="n" horiz-adv-x="427" 
d="M378 7c0 -4.66699 -2 -7 -6 -7h-29c-4.66699 0 -7 2 -7 6v271c0 16.667 -2.16699 32.834 -6.5 48.501s-11.166 29.167 -20.499 40.5s-21.833 20.5 -37.5 27.5s-34.5 10.5 -56.5 10.5c-18 0 -34.333 -3.33301 -49 -10s-27.167 -15.667 -37.5 -27s-18.5 -24.5 -24.5 -39.5
s-9 -31.167 -9 -48.5v-272c0 -4.66699 -2.33301 -7 -7 -7h-28c-4.66699 0 -7 2 -7 6v422c0 4.66699 2.33301 7 7 7h27c4 0 6 -2.33301 6 -7v-37c0 -4 0.833008 -6.33301 2.5 -7s4.16699 0.666016 7.5 3.99902c14.667 16.667 32.834 29.5 54.501 38.5s44.167 13.5 67.5 13.5
c28 0 51.667 -4.5 71 -13.5s35.166 -21.167 47.499 -36.5s21.166 -32.833 26.499 -52.5s8 -40.167 8 -61.5v-269v0z" />
    <glyph glyph-name="o" unicode="o" horiz-adv-x="421" 
d="M373 156c0 -51.333 -14.167 -91.002 -42.5 -119.002s-67.833 -42 -118.5 -42c-52.667 0 -93 14.333 -121 43s-42 67.334 -42 116.001v128c0 47.333 14.5 85.5 43.5 114.5s68.833 43.5 119.5 43.5c50 0 89.333 -14.167 118 -42.5s43 -67.166 43 -116.499v-125z
M332 279.998c0 36 -10 65.666 -30 88.999s-50 35 -90 35c-36 0 -65.333 -11.5 -88 -34.5s-34 -52.5 -34 -88.5v-126c0 -38 10.333 -68.333 31 -91s51 -34 91 -34s70 11.333 90 34s30 53.334 30 92.001v124z" />
    <glyph glyph-name="p" unicode="p" horiz-adv-x="425" 
d="M379 159c0 -20 -2.83301 -40.002 -8.5 -60.002s-14.667 -37.667 -27 -53s-28.333 -27.833 -48 -37.5s-43.5 -14.5 -71.5 -14.5c-26 0 -48.5 4.5 -67.5 13.5s-35.5 21.5 -49.5 37.5c-6.66699 6.66699 -10 5.33398 -10 -3.99902v-215c0 -4 -2.33301 -6 -7 -6h-28
c-4.66699 0 -7 2 -7 6v602c0 4.66699 2.33301 7 7 7h26c4.66699 0 7 -2.33301 7 -7v-37c0 -7.33301 3.33301 -7.66602 10 -0.999023c12 15.333 28.167 27.5 48.5 36.5s42.833 13.5 67.5 13.5c50 0 88.833 -14.5 116.5 -43.5s41.5 -66.5 41.5 -112.5v-125zM338 280.998
c0 36.667 -9.83398 66.335 -29.501 89.002s-50.167 34 -91.5 34c-36 0 -65.167 -11.333 -87.5 -34s-33.5 -51.334 -33.5 -86.001v-128c0 -17.333 3 -33.5 9 -48.5s14.333 -28.333 25 -40s23.334 -20.834 38.001 -27.501s31 -10 49 -10c21.333 0 39.666 3.33301 54.999 10
s27.833 15.667 37.5 27s16.834 24.833 21.501 40.5s7 32.167 7 49.5v124z" />
    <glyph glyph-name="q" unicode="q" horiz-adv-x="418" 
d="M366 -177c0 -4.66699 -2.33398 -7 -7.00098 -7h-28c-4.66699 0 -7 2.33301 -7 7v217c0 4 -0.833008 6.66699 -2.5 8s-4.16699 0 -7.5 -4c-12 -15.333 -28 -27.5 -48 -36.5s-42.667 -13.5 -68 -13.5c-29.333 0 -53.833 4.5 -73.5 13.5s-35.667 21 -48 36
s-21.166 32.5 -26.499 52.5s-8 41 -8 63v124c0 22.667 3.66699 43.667 11 63s17.666 36 30.999 50s29.833 24.833 49.5 32.5s41.834 11.5 66.501 11.5s47.167 -4.33301 67.5 -13s36.5 -20.667 48.5 -36c3.33301 -3.33301 5.83301 -4.5 7.5 -3.5s2.5 3.16699 2.5 6.5v34
c0 4.66699 2.33301 7 7 7h26c4.66699 0 7 -2.33301 7 -7v-605zM324.999 283c0 35.333 -11.168 64.332 -33.501 86.999s-51.5 34 -87.5 34c-38 0 -67.667 -11.167 -89 -33.5s-32 -51.833 -32 -88.5v-125c0 -16.667 2 -32.667 6 -48s10.833 -28.666 20.5 -39.999
s22.167 -20.5 37.5 -27.5s34.333 -10.5 57 -10.5c18 0 34.333 3.33301 49 10s27.334 15.667 38.001 27s19 24.5 25 39.5s9 31.167 9 48.5v127z" />
    <glyph glyph-name="r" unicode="r" horiz-adv-x="254" 
d="M89 435c4 0 6.00293 -2.33301 6.00293 -7v-48c0 -8.66699 2.66699 -9.33398 8 -2.00098c12 17.333 27.667 32.333 47 45s40.666 19 63.999 19c4.66699 0 9.66699 -0.166992 15 -0.5s10 -1.16602 14 -2.49902c5.33301 -2 7.66602 -5.33301 6.99902 -10l-7 -29
c-0.666992 -5.33301 -4.33398 -7.33301 -11.001 -6c-3.33301 0.666992 -7.33301 1.16699 -12 1.5s-9 0.5 -13 0.5c-35.333 0 -62.333 -12 -81 -36s-28 -54.333 -28 -91v-262c0 -4.66699 -2 -7 -6 -7h-28c-5.33301 0 -8 2 -8 6v422c0 4.66699 2.33301 7 7 7h26z" />
    <glyph glyph-name="s" unicode="s" horiz-adv-x="340" 
d="M314 109c0 -14 -2.83594 -28.002 -8.50293 -42.002s-14.5 -26.333 -26.5 -37s-27.167 -19.334 -45.5 -26.001s-39.833 -10 -64.5 -10c-30 0 -58.333 6.5 -85 19.5s-46.667 33.167 -60 60.5c-2.66699 4 -1.66699 7 3 9l22 11c2.66699 1.33301 4.66699 1.33301 6 0l4 -4
c10 -18 25.167 -32.667 45.5 -44s42.166 -17 65.499 -17c30.667 0 55.5 7.16699 74.5 21.5s28.5 33.5 28.5 57.5c0 13.333 -2.83301 24.833 -8.5 34.5s-12.834 18 -21.501 25s-18.5 13.167 -29.5 18.5s-21.833 10 -32.5 14l-47.5 17.5c-17 6.33301 -32.833 14.333 -47.5 24
s-26.834 21.334 -36.501 35.001s-14.5 30.5 -14.5 50.5c0 18.667 4 35 12 49s18.333 25.667 31 35s27.167 16.5 43.5 21.5s32.833 7.5 49.5 7.5c26.667 0 51.334 -4.33301 74.001 -13s41.667 -21 57 -37c3.33301 -4 3 -8 -1 -12l-14 -16c-4 -4 -8.33301 -3.66699 -13 1
c-13.333 12.667 -29.166 22.667 -47.499 30s-36.833 11 -55.5 11c-9.33301 0 -19.5 -1.33301 -30.5 -4s-21.333 -7 -31 -13s-17.667 -13.667 -24 -23s-9.5 -20.666 -9.5 -33.999s3.33301 -24.666 10 -33.999s15.334 -17.333 26.001 -24s22 -12.5 34 -17.5
s23.667 -9.5 35 -13.5c16.667 -6 32.834 -12.5 48.501 -19.5s29.834 -15.5 42.501 -25.5s22.834 -22 30.501 -36s11.5 -31 11.5 -51z" />
    <glyph glyph-name="t" unicode="t" horiz-adv-x="278" 
d="M190 -5c-20.667 0 -37.667 2.99609 -51 8.99609s-23.833 14.333 -31.5 25s-13 23.334 -16 38.001s-4.5 30.334 -4.5 47.001v276c0 6 -2.66699 9 -8 9h-55c-4 0 -6 2.33301 -6 7v22c0 4.66699 2 7 6 7h56c4.66699 0 7 2.66699 7 8v102
c0 4.66699 2.33301 7.33398 7 8.00098l27 7c5.33301 0.666992 8 -1.66602 8 -6.99902v-110c0 -5.33301 2 -8 6 -8h111c4.66699 0 7 -2.33301 7 -7v-22c0 -4.66699 -2.33301 -7 -7 -7h-110c-4.66699 0 -7 -3 -7 -9v-269c0 -31.333 5.16699 -54.166 15.5 -68.499
s27.5 -21.5 51.5 -21.5c9.33301 0 20.333 1 33 3s22.667 4 30 6c4 1.33301 6.66699 1.16602 8 -0.500977s2.33301 -3.5 3 -5.5l4 -20c0.666992 -4.66699 -1 -7.66699 -5 -9c-10 -4 -23 -6.66699 -39 -8s-29.333 -2 -40 -2z" />
    <glyph glyph-name="u" unicode="u" horiz-adv-x="426" 
d="M376 7c0 -4.66699 -2.66992 -6.99805 -8.00293 -6.99805h-27c-4 0 -6 2 -6 6v37c0 10.667 -3.33301 12 -10 4c-14 -17.333 -32 -30.333 -54 -39s-44.667 -13 -68 -13c-29.333 0 -53.666 4.5 -72.999 13.5s-34.833 21.167 -46.5 36.5s-20 32.833 -25 52.5
s-7.5 40.167 -7.5 61.5v269c0 4.66699 2 7 6 7h29c4 0 6 -2.33301 6 -7v-271c0 -16.667 2 -32.5 6 -47.5s10.833 -28.333 20.5 -40s22.167 -20.834 37.5 -27.501s34.333 -10 57 -10c18 0 34.333 3.16699 49 9.5s27.334 15.166 38.001 26.499s18.834 24.5 24.501 39.5
s8.5 31.167 8.5 48.5v272c0 4.66699 2.33301 7 7 7h28c5.33301 0 8 -2.33301 8 -7v-421v0z" />
    <glyph glyph-name="v" unicode="v" horiz-adv-x="371" 
d="M209 9c-1.33301 -3.33301 -2.5 -5.66699 -3.5 -7s-3.5 -2 -7.5 -2h-24c-7.33301 0 -11.666 2.66699 -12.999 8l-149 418c-2 6 0 9 6 9h25c4 0 6.83301 -0.833008 8.5 -2.5s3.16699 -4.16699 4.5 -7.5l83 -239l43 -131c2 -6 4.33301 -6 7 0l42 128l82 241
c1.33301 3.33301 2.66602 6 3.99902 8s4.33301 3 9 3h26c6 0 8 -3 6 -9z" />
    <glyph glyph-name="w" unicode="w" horiz-adv-x="564" 
d="M292 434c3.33301 0 5.83105 -0.500977 7.49805 -1.50098s3.16699 -3.83301 4.5 -8.5l75 -244l35 -121c1.33301 -2.66699 2.66602 -4 3.99902 -4s2 1.33301 2 4l28 121l59 244c1.33301 6.66699 5.66602 10 12.999 10h25c4 0 6.33301 -0.666992 7 -2
s0.666992 -3.33301 0 -6l-112 -417c-1.33301 -4 -2.66602 -6.5 -3.99902 -7.5s-3.66602 -1.5 -6.99902 -1.5h-23c-4.66699 0 -7.66699 0.333008 -9 1s-2.66602 2.66699 -3.99902 6l-76 239l-35 117c0 2.66699 -0.666992 4.16699 -2 4.5s-2.33301 -1.16699 -3 -4.5l-34 -119
l-73 -236c-1.33301 -4 -2.66602 -6.33301 -3.99902 -7s-3.66602 -1 -6.99902 -1h-24c-4 0 -6.83301 0.333008 -8.5 1s-3.16699 3 -4.5 7l-112 418c-1.33301 5.33301 0.333984 8 5.00098 8h26c4 0 6.66699 -0.666992 8 -2s2.66602 -3.66602 3.99902 -6.99902l61 -242l29 -124
c1.33301 -2.66699 2.66602 -4 3.99902 -4s2 1.33301 2 4l35 123l72 242c1.33301 4 2.5 6.66699 3.5 8s3.5 2 7.5 2h25z" />
    <glyph glyph-name="x" unicode="x" horiz-adv-x="343" 
d="M336 9c4 -6 2.3291 -8.99902 -5.00391 -8.99902h-27c-4 0 -7.16699 0.5 -9.5 1.5s-4.83301 3.5 -7.5 7.5l-110 179c-1.33301 3.33301 -2.83301 4.66602 -4.5 3.99902s-3.16699 -2 -4.5 -4l-110 -179c-2.66699 -4 -5.16699 -6.5 -7.5 -7.5s-5.16602 -1.5 -8.49902 -1.5
h-27c-7.33301 0 -9 3 -5 9l131 208c3.33301 5.33301 5 9.16602 5 11.499s-1.66699 5.83301 -5 10.5l-116 187c-1.33301 2 -1.66602 4 -0.999023 6s2.66699 3 6 3h26c4.66699 0 8 -0.333008 10 -1s4.33301 -3.33398 7 -8.00098l96 -157
c2.66699 -5.33301 5.33398 -5 8.00098 1l95 156c2.66699 4.66699 5 7.33398 7 8.00098s5.33301 1 10 1h26c3.33301 0 5.33301 -1 6 -3s0.333984 -4 -0.999023 -6l-117 -188c-3.33301 -5.33301 -4.5 -9.16602 -3.5 -11.499s2.16699 -4.5 3.5 -6.5z" />
    <glyph glyph-name="y" unicode="y" horiz-adv-x="361" 
d="M160 -6c1.33301 4 0.333008 6 -3 6h-6c-6 0 -10 3 -12 9l-131 417c-1.33301 6 1 9 7 9h25c5.33301 0 9.33301 -2.66699 12 -8l117 -382c1.33301 -3.33301 2.66602 -5 3.99902 -5c2.66699 0 4.33398 1.66699 5.00098 5l128 381c0.666992 2 1.66699 4 3 6s4 3 8 3h24
c6 0 8.66699 -3 8 -9l-201 -598c-1.33301 -7.33301 -6.33301 -11 -15 -11h-20c-6.66699 0 -9 4 -7 12z" />
    <glyph glyph-name="z" unicode="z" horiz-adv-x="338" 
d="M321 7c0 -4.66699 -2.33301 -6.99902 -7 -6.99902h-281c-6 0 -9 3 -9 9v14c0 7.33301 1.33301 12.666 4 15.999l224 351c4 6 2.33301 9 -5 9h-207c-5.33301 0 -8 2.33301 -8 7v21c0 5.33301 2.33301 8 7 8h259c6.66699 0 10 -3.33301 10 -10v-15c0 -8 -1 -13.333 -3 -16
l-224 -349c-3.33301 -6 -1.33301 -9 6 -9h226c5.33301 0 8 -2.33301 8 -7v-22v0z" />
    <glyph glyph-name="braceleft" unicode="{" horiz-adv-x="301" 
d="M265 -142c0 -4.66699 -1.99902 -6.99609 -5.99902 -6.99609h-17c-44 -0.666992 -74.5 9.33301 -91.5 30s-25.5 54.667 -25.5 102v148c0 27.333 -4.66699 51.166 -14 71.499s-28 36.166 -56 47.499c-4.66699 2 -8.16699 3.66699 -10.5 5s-3.5 3.66602 -3.5 6.99902v21
c0 5.33301 1.16699 8.66602 3.5 9.99902s5.16602 2.66602 8.49902 3.99902c28 11.333 47 27.166 57 47.499s15 44.5 15 72.5v135c0 47.333 8.5 81.333 25.5 102s47.5 30.667 91.5 30h17c4 0 6 -2.33301 6 -7v-22c0 -4 -2 -6 -6 -6h-19c-30.667 0 -50.834 -6.5 -60.501 -19.5
s-14.5 -35.833 -14.5 -68.5v-162c0 -23.333 -6 -46.666 -18 -69.999s-30.333 -40.333 -55 -51c-5.33301 -3.33301 -5.33301 -5.66602 0 -6.99902c24 -9.33301 42.167 -25.833 54.5 -49.5s18.5 -50.167 18.5 -79.5v-168c0 -32.667 4.83301 -55.5 14.5 -68.5
s29.834 -19.5 60.501 -19.5h19c4 0 6 -2 6 -6v-22v0z" />
    <glyph glyph-name="bar" unicode="|" horiz-adv-x="197" 
d="M114 -106c0 -4 -2 -6 -6 -6h-21c-4.66699 0 -7 2 -7 6v774c0 4.66699 2.33301 7 7 7h21c4 0 6 -2 6 -6v-775v0z" />
    <glyph glyph-name="braceright" unicode="}" horiz-adv-x="301" 
d="M267 262c0 -3.33301 -1.00098 -5.66895 -3.00098 -7.00195s-5.66699 -3 -11 -5c-28 -11.333 -46.667 -27.166 -56 -47.499s-14 -44.166 -14 -71.499v-148c0 -47.333 -8.33301 -81.333 -25 -102s-47 -30.667 -91 -30h-17c-4.66699 0 -7 2.33301 -7 7v22c0 4.66699 2 7 6 7
h20c14.667 0 26.834 1.5 36.501 4.5s17.334 8 23.001 15s9.5 16 11.5 27s3 24.833 3 41.5v167c0 29.333 6.16699 55.833 18.5 79.5s30.5 40.167 54.5 49.5c5.33301 1.33301 5.33301 3.66602 0 6.99902c-24.667 10.667 -43 27.667 -55 51s-18 46.666 -18 69.999v162
c0 32.667 -4.83301 55.5 -14.5 68.5s-29.5 19.5 -59.5 19.5h-20c-4 0 -6 2 -6 6v22c0 4.66699 2.33301 7 7 7h17c44 0.666992 74.5 -9.33301 91.5 -30s25.5 -54.667 25.5 -102v-135c0 -28 4.83301 -52 14.5 -72s28.5 -36 56.5 -48
c3.33301 -1.33301 6.16602 -2.66602 8.49902 -3.99902s3.5 -4.66602 3.5 -9.99902v-21v0z" />
    <glyph glyph-name="asciitilde" unicode="~" horiz-adv-x="445" 
d="M427 303c-13.333 -20.667 -29.667 -36.668 -49 -48.001s-39 -17 -59 -17c-19.333 0 -38.333 3.66699 -57 11s-36.667 15.333 -54 24c-13.333 7.33301 -27.5 14.666 -42.5 21.999s-29.5 11 -43.5 11c-15.333 0 -29.5 -4.16699 -42.5 -12.5s-25.167 -19.5 -36.5 -33.5
c-2.66699 -2.66699 -5.66699 -2.66699 -9 0l-17 15c-2 2 -3 3.83301 -3 5.5s0.666992 3.5 2 5.5c14.667 20.667 31.334 35.834 50.001 45.501s37.667 14.5 57 14.5c15.333 0 30.5 -2.66699 45.5 -8s29.167 -11.666 42.5 -18.999c17.333 -9.33301 35 -18.333 53 -27
s36 -13 54 -13c15.333 0 29.666 4.83301 42.999 14.5s24.333 20.167 33 31.5c4 6.66699 8 8 12 4l19 -15c2.66699 -2 4 -3.83301 4 -5.5s-0.666992 -3.5 -2 -5.5z" />
    <glyph glyph-name="exclamdown" unicode="&#xa1;" horiz-adv-x="246" 
d="M104 -180l4 231.5l4 230.5c0 4.66699 2 7 6 7h15c4.66699 0 7 -2 7 -6l12 -463c0 -5.33301 -2.66699 -8 -8 -8h-32c-5.33301 0 -8 2.66699 -8 8zM92 400c0 9.33301 3.16699 17.333 9.5 24s14.5 10 24.5 10c9.33301 0 17.5 -3.33301 24.5 -10s10.5 -14.667 10.5 -24
s-3.5 -17.333 -10.5 -24s-15.167 -10 -24.5 -10c-10 0 -18.167 3.33301 -24.5 10s-9.5 14.667 -9.5 24z" />
    <glyph glyph-name="cent" unicode="&#xa2;" horiz-adv-x="445" 
d="M230 403c-19.333 0 -36.1699 -3.33008 -50.5029 -9.99707s-26.333 -15.5 -36 -26.5s-17 -23.833 -22 -38.5s-7.5 -30 -7.5 -46v-130c0 -34 10 -62.667 30 -86s48 -35 84 -35c25.333 0 46.333 4.16699 63 12.5s32 20.833 46 37.5c2 3.33301 4 4.83301 6 4.5
s4 -1.16602 6 -2.49902l19 -12c4 -2.66699 6 -4.83398 6 -6.50098s-0.666992 -3.83398 -2 -6.50098c-26.667 -37.333 -66.334 -58 -119.001 -62c-1.33301 0 -2.83301 -0.333008 -4.5 -1s-2.5 -2.66699 -2.5 -6v-68c0 -4.66699 -2 -7 -6 -7h-20c-4.66699 0 -7 2 -7 6v70
c0 3.33301 -2.33301 5.66602 -7 6.99902c-44 3.33301 -77.333 19.5 -100 48.5s-34 64.5 -34 106.5v113c0 46 10.5 84.667 31.5 116s53.167 50 96.5 56c5.33301 0.666992 8.83301 1.5 10.5 2.5s2.5 3.5 2.5 7.5v62c0 4.66699 2.66699 7 8 7h17c5.33301 0 8 -2.33301 8 -7v-63
c0 -5.33301 2.66699 -8 8 -8c24.667 -1.33301 46.334 -7.33301 65.001 -18s35.334 -24.667 50.001 -42c2.66699 -3.33301 3.66699 -5.83301 3 -7.5s-2 -3.5 -4 -5.5l-19 -16c-5.33301 -2.66699 -9.66602 -1.66699 -12.999 3c-12.667 17.333 -28.167 30.166 -46.5 38.499
s-38.166 12.5 -59.499 12.5z" />
    <glyph glyph-name="sterling" unicode="&#xa3;" horiz-adv-x="445" 
d="M275 302c0 -4.66699 -2.00391 -6.99805 -6.00391 -6.99805h-127c-4 0 -6 -2.33301 -6 -7v-116c0 -25.333 -1.5 -48.833 -4.5 -70.5s-11.5 -40.834 -25.5 -57.501c-0.666992 -0.666992 -1 -2 -1 -4s1.66699 -3 5 -3h266c4.66699 0 7 -2.33301 7 -7v-23
c0 -4.66699 -2 -7 -6 -7h-336c-4.66699 0 -7 2 -7 6v18c0 6.66699 3.66699 12 11 16c18.667 11.333 31.5 26.666 38.5 45.999s10.5 45.333 10.5 78v125c-0.666992 3.33301 -3 5 -7 5h-47c-4.66699 0 -7 2.66699 -7 8v23c0 4.66699 2.33301 7 7 7h45c2 0 4 0.5 6 1.5
s3 3.83301 3 8.5v131c0.666992 21.333 5.33398 41.166 14.001 59.499s20.334 34.333 35.001 48s32.167 24.334 52.5 32.001s42.5 11.5 66.5 11.5c32.667 -1.33301 60.667 -7.16602 84 -17.499s43 -25.166 59 -44.499c4.66699 -4.66699 4.33398 -9.33398 -0.999023 -14.001
l-18 -15c-4.66699 -4.66699 -8.66699 -4.33398 -12 0.999023c-12 16 -28.167 28.833 -48.5 38.5s-41.166 14.5 -62.499 14.5c-18 0 -34.667 -2.83301 -50 -8.5s-28.833 -13.667 -40.5 -24s-20.667 -22.833 -27 -37.5s-9.5 -30.667 -9.5 -48v-130c0 -4.66699 2 -7 6 -7h127
c4 0 6 -2.33301 6 -7v-23v0z" />
    <glyph glyph-name="currency" unicode="&#xa4;" horiz-adv-x="487" 
d="M160 126c-6 2 -11.0029 1.00488 -15.0029 -2.99512l-44 -44c-2 -2 -5.33301 -1.66699 -10 1l-17 15c-1.33301 1.33301 -2 3.16602 -2 5.49902s0.666992 4.16602 2 5.49902l47 47c2 4 2.16699 7.33301 0.5 10s-3.16699 5.66699 -4.5 9c-14.667 21.333 -22 46.333 -22 75
s8.33301 55.667 25 81c5.33301 5.33301 5.33301 10.666 0 15.999l-22.5 23.5l-22.5 23.5c-2 3.33301 -2 6.33301 0 9l19 18c2 2 4.66699 1.66699 8 -1l44 -46c3.33301 -4 6.33301 -5.33301 9 -4s5.66699 2.66602 9 3.99902c22 14 47.333 21 76 21c30 0 56.667 -8 80 -24
c4 -2.66699 6.83301 -4 8.5 -4s4.5 1.33301 8.5 4l47 47c1.33301 2 2.83301 3 4.5 3s3.16699 -1 4.5 -3l18 -17c2 -1.33301 2.83301 -2.83301 2.5 -4.5s-1.16602 -3.16699 -2.49902 -4.5l-48 -48c-6 -6 -6.33301 -11.333 -1 -16c16.667 -24 25 -50 25 -78
c0 -28.667 -7.66699 -54.667 -23 -78c-2 -3.33301 -3.5 -6 -4.5 -8s0.5 -4.33301 4.5 -7l46 -45c2.66699 -4 2.66699 -7 0 -9l-16 -14c-1.33301 -1.33301 -3.33301 -2.5 -6 -3.5s-6 0.5 -10 4.5l-41 39c-3.33301 3.33301 -5.66602 4.83301 -6.99902 4.5
s-3.66602 -1.5 -6.99902 -3.5c-11.333 -8.66699 -24 -15.334 -38 -20.001s-28.667 -7 -44 -7c-29.333 0 -56.333 8.66699 -81 26zM129.997 247.005c0 -15.333 3 -29.666 9 -42.999s14 -25 24 -35s21.667 -18 35 -24s27.666 -9 42.999 -9s29.833 3 43.5 9s25.5 14 35.5 24
s17.833 21.667 23.5 35s8.5 27.666 8.5 42.999s-2.83301 29.833 -8.5 43.5s-13.5 25.5 -23.5 35.5s-21.833 17.833 -35.5 23.5s-28.167 8.5 -43.5 8.5s-29.666 -2.83301 -42.999 -8.5s-25 -13.5 -35 -23.5s-18 -21.833 -24 -35.5s-9 -28.167 -9 -43.5z" />
    <glyph glyph-name="yen" unicode="&#xa5;" horiz-adv-x="445" 
d="M57 283c-4.66699 0 -6.99707 2.33398 -6.99707 7.00098v17c0 4.66699 2.33301 7 7 7h117c6 0 7.66699 2.66699 5 8l-138 286c-3.33301 6 -1.66602 9 5.00098 9h29c3.33301 0 5.66602 -0.666992 6.99902 -2s2.66602 -3.33301 3.99902 -6l41 -84l41 -84l51 -108
c2 -6 4.33301 -6.33301 7 -1l60 128l72 148c2 3.33301 3.66699 5.66602 5 6.99902s3.66602 2 6.99902 2h27c4.66699 0 7 -1.33301 7 -4c0 -1.33301 -0.666992 -3.33301 -2 -6l-136 -279c-1.33301 -3.33301 -2.33301 -6.5 -3 -9.5s1.66602 -4.5 6.99902 -4.5h125
c4.66699 0 7 -2 7 -6v-18c0 -4.66699 -2.33301 -7 -7 -7h-338zM395.003 238.001c4.66699 0 7 -2 7 -6v-18c0 -4.66699 -2.33301 -7 -7 -7h-143c-6 0 -9 -3.33301 -9 -10v-191c0 -4 -2.33301 -6 -7 -6h-28c-4.66699 0 -7 2 -7 6v191c0 2 -0.5 4.16699 -1.5 6.5
s-3.5 3.5 -7.5 3.5h-135c-4.66699 0 -7 2.33301 -7 7v18c0 4 2.33301 6 7 6h338z" />
    <glyph glyph-name="brokenbar" unicode="&#xa6;" horiz-adv-x="197" 
d="M114 -106c0 -4 -2 -6 -6 -6h-21c-4.66699 0 -7 2 -7 6v363c0 4.66699 2.33301 7 7 7h21c4.66699 0 7 -2 7 -6zM114 304c0 -4 -2 -6 -6 -6h-21c-4.66699 0 -7 2 -7 6v364c0 4.66699 2.33301 7 7 7h21c4 0 6 -2 6 -6v-365z" />
    <glyph glyph-name="section" unicode="&#xa7;" horiz-adv-x="408" 
d="M214 614c-32.667 0 -58.334 -7.33105 -77.001 -21.998s-28 -32 -28 -52c0 -19.333 8 -36 24 -50s42 -27.667 78 -41c20.667 -7.33301 39.834 -14.833 57.501 -22.5s33.167 -16.5 46.5 -26.5s23.833 -21.833 31.5 -35.5s11.5 -29.834 11.5 -48.501
c0 -25.333 -6.66699 -47 -20 -65s-30.666 -31 -51.999 -39c-2 -0.666992 -4 -1 -6 -1s-3.66699 1.66699 -5 5l-7 16c-1.33301 2.66699 -1.83301 4.66699 -1.5 6s2.83301 3.66602 7.5 6.99902c12.667 8.66699 23.334 17.834 32.001 27.501s13 23.5 13 41.5
c0 13.333 -3 25 -9 35s-14.5 18.833 -25.5 26.5s-23.833 14.667 -38.5 21s-30.667 12.5 -48 18.5c-37.333 13.333 -68 29.166 -92 47.499s-36 42.833 -36 73.5c0 32.667 12.667 59.5 38 80.5s61.333 31.5 108 31.5c26 0 49.833 -4.5 71.5 -13.5s40.167 -21.5 55.5 -37.5
c2 -1.33301 3 -3 3 -5c0 -3.33301 -1 -5.33301 -3 -6l-15 -16c-1.33301 -1.33301 -3.33301 -2 -6 -2c-3.33301 0 -6 1 -8 3c-12.667 13.333 -27.834 23.833 -45.501 31.5s-35.834 11.5 -54.501 11.5zM207 -34.998c12.667 0 25.8242 1.66895 39.4912 5.00195
s26.167 8.33301 37.5 15s20.5 15.167 27.5 25.5s10.5 22.5 10.5 36.5c0 13.333 -3.16699 25 -9.5 35s-15.166 18.833 -26.499 26.5s-24.666 14.667 -39.999 21s-31.666 12.5 -48.999 18.5c-38 13.333 -69.5 29.5 -94.5 48.5s-37.5 43.5 -37.5 73.5
c0 24.667 7.5 45.667 22.5 63s35.5 30.666 61.5 39.999l6 1c2.66699 0 4.66699 -2 6 -6l5 -12c1.33301 -4 2 -6.33301 2 -7c0 -3.33301 -2.66699 -6 -8 -8c-17.333 -6.66699 -31.166 -16.167 -41.499 -28.5s-15.5 -25.166 -15.5 -38.499c0 -17.333 8.16699 -33.5 24.5 -48.5
s43.166 -29.167 80.499 -42.5c20.667 -7.33301 40.334 -14.833 59.001 -22.5s35 -16.667 49 -27s25.167 -22.333 33.5 -36s12.5 -29.834 12.5 -48.501s-4.16699 -35.334 -12.5 -50.001s-19.666 -27 -33.999 -37s-31 -17.667 -50 -23s-39.5 -8 -61.5 -8
c-29.333 0 -56.666 4.83301 -81.999 14.5s-45.666 22.5 -60.999 38.5c-1.33301 1.33301 -2 3 -2 5s1 4 3 6l11 10c5.33301 5.33301 9.33301 8 12 8c2 0 4.33301 -1.33301 7 -4c12.667 -12 29.334 -22.333 50.001 -31s42.334 -13 65.001 -13z" />
    <glyph glyph-name="dieresis" unicode="&#xa8;" horiz-adv-x="407" 
d="M315 561c0 -8 -2.83203 -15 -8.49902 -21s-12.5 -9 -20.5 -9c-8.66699 0 -15.834 3 -21.501 9s-8.5 13 -8.5 21c0 8.66699 2.83301 15.834 8.5 21.501s12.5 8.5 20.5 8.5s15 -2.83301 21 -8.5s9 -12.834 9 -21.501zM161.001 561c0 -8.66699 -3 -15.833 -9 -21.5
s-12.667 -8.5 -20 -8.5c-8 0 -14.833 3 -20.5 9s-8.5 13 -8.5 21c0 8.66699 2.83301 15.834 8.5 21.501s12.5 8.5 20.5 8.5s14.833 -2.83301 20.5 -8.5s8.5 -12.834 8.5 -21.501z" />
    <glyph glyph-name="copyright" unicode="&#xa9;" horiz-adv-x="700" 
d="M465 425c2 -4 1.33301 -6.99902 -2 -8.99902l-13 -9c-4.66699 -3.33301 -8.33398 -3 -11.001 1c-8.66699 12 -20.167 21.5 -34.5 28.5s-30.166 10.5 -47.499 10.5c-28 0 -51 -8.66699 -69 -26s-27 -40 -27 -68v-104c0 -28 9.33301 -50.833 28 -68.5
s41.667 -26.5 69 -26.5c16 0 31.167 3.33301 45.5 10s26.166 16 35.499 28c2.66699 3.33301 4.66699 5.16602 6 5.49902s3 -0.166992 5 -1.5l14 -10c2.66699 -1.33301 4 -2.83301 4 -4.5s-0.666992 -3.5 -2 -5.5c-12 -15.333 -27.167 -27.333 -45.5 -36
s-39.166 -13 -62.499 -13c-38 0 -68.667 10.833 -92 32.5s-35 50.834 -35 87.501v107c0 35.333 11.667 64.166 35 86.499s54 33.5 92 33.5c48 0 83.667 -16.333 107 -49zM352 0.000976562c-43.333 0 -82.666 5.66504 -117.999 16.998s-65.5 27.333 -90.5 48
s-44.5 45.667 -58.5 75s-21 62 -21 98v141c0 36 7 68.667 21 98s33.5 54.333 58.5 75s55.167 36.667 90.5 48s74.666 17 117.999 17c42.667 0 81.834 -5.33301 117.501 -16s66.167 -26.167 91.5 -46.5s45.166 -45.166 59.499 -74.499s21.5 -63 21.5 -101v-141
c0 -38 -7.16699 -71.667 -21.5 -101s-34.166 -54.166 -59.499 -74.499s-55.833 -35.833 -91.5 -46.5s-74.834 -16 -117.501 -16zM617 381.999c0 30 -6 57.833 -18 83.5s-29.333 48 -52 67s-50.5 34 -83.5 45s-70.5 16.5 -112.5 16.5
c-42.667 0 -80.334 -5.66699 -113.001 -17s-60 -26.5 -82 -45.5s-38.5 -41.5 -49.5 -67.5s-16.5 -53.333 -16.5 -82v-147c0 -28.667 5.5 -55.834 16.5 -81.501s27.5 -48.167 49.5 -67.5s49.333 -34.666 82 -45.999s70.334 -17 113.001 -17c42 0 79.5 5.5 112.5 16.5
s60.833 26.167 83.5 45.5s40 41.833 52 67.5s18 53.167 18 82.5v147z" />
    <glyph glyph-name="ordfeminine" unicode="&#xaa;" horiz-adv-x="260" 
d="M231 251c0 -6 -2.33398 -9.00195 -7.00098 -9.00195h-19c-5.33301 0 -8 2.66699 -8 8v17c0 2 -0.333008 3 -1 3c-1.33301 0 -3 -1 -5 -3c-18.667 -18.667 -42.334 -28 -71.001 -28c-30.667 0 -55.667 8.66699 -75 26s-29 40.333 -29 69s9.66699 52.167 29 70.5
s44.666 27.5 75.999 27.5c13.333 0 26 -2.5 38 -7.5s22.333 -12.5 31 -22.5c0.666992 0 1.33398 -0.333008 2.00098 -1c2 0 3 0.666992 3 2v26c0 18.667 -5 34.667 -15 48s-29 20 -57 20c-9.33301 0 -20.833 -1.16699 -34.5 -3.5s-25.167 -5.5 -34.5 -9.5
c-4 -2 -6.66699 -2.33301 -8 -1s-2.66602 3 -3.99902 5l-4 12c-1.33301 2.66699 -1.66602 4.83398 -0.999023 6.50098s2.66699 3.83398 6 6.50098c11.333 5.33301 24.5 9.33301 39.5 12s29.167 4 42.5 4c36.667 0 63.5 -9.5 80.5 -28.5s25.5 -43.5 25.5 -73.5v-176z
M191.999 334.998c0 18 -6.83301 33.667 -20.5 47s-30.5 20 -50.5 20c-19.333 0 -36 -6.66699 -50 -20s-21 -29 -21 -47s6.83301 -33.667 20.5 -47s30.5 -20 50.5 -20c20.667 0 37.667 6.83301 51 20.5s20 29.167 20 46.5z" />
    <glyph glyph-name="guillemotleft" unicode="&#xab;" horiz-adv-x="447" 
d="M263 203c-2.66699 -3.33301 -3.66895 -5.49902 -3.00195 -6.49902l3 -4.5l129 -161c2.66699 -3.33301 3.33398 -6 2.00098 -8s-3.66602 -3 -6.99902 -3h-25c-3.33301 0 -6.33301 0.5 -9 1.5s-5.66699 3.5 -9 7.5l-125 157c-6 8 -6.33301 15.667 -1 23l126 154
c2.66699 3.33301 5 5.66602 7 6.99902s5.66699 2 11 2h25c9.33301 0 11 -3.66699 5 -11zM116.998 203.001c-2 -3.33301 -2.83398 -5.49902 -2.50098 -6.49902s1.16602 -2.5 2.49902 -4.5l129 -161c2.66699 -3.33301 3.33398 -6 2.00098 -8s-3.66602 -3 -6.99902 -3h-25
c-4 0 -7.33301 0.5 -10 1.5s-5.66699 3.5 -9 7.5l-125 157c-5.33301 8 -5.33301 15.667 0 23l126 154c2.66699 3.33301 5 5.66602 7 6.99902s5.66699 2 11 2h25c9.33301 0 11 -3.66699 5 -11z" />
    <glyph glyph-name="logicalnot" unicode="&#xac;" horiz-adv-x="445" 
d="M412 50c0 -5.33301 -2.66699 -8 -8 -8h-23c-5.33301 0 -8 2.66699 -8 8v162c0 2.66699 -0.333008 4.5 -1 5.5s-2.66699 1.5 -6 1.5h-326c-5.33301 0 -8 2.66699 -8 8v20c0 6 2.66699 9 8 9h364c5.33301 0 8 -3 8 -9v-197z" />
    <glyph glyph-name="sfthyphen" unicode="&#xad;" horiz-adv-x="298" 
d="M237 225c0 -4.66699 -2 -7 -6 -7h-165c-4.66699 0 -7 2.33301 -7 7v27c0 4.66699 2.33301 7 7 7h165c4 0 6 -2.33301 6 -7v-27v0z" />
    <glyph glyph-name="registered" unicode="&#xae;" horiz-adv-x="402" 
d="M199 306c-48.667 0 -86.834 12.333 -114.501 37s-41.5 55.667 -41.5 93v79c0 38 13.833 69.167 41.5 93.5s65.834 36.5 114.501 36.5c48 0 86.333 -11.833 115 -35.5s43 -55.167 43 -94.5v-79c0 -38.667 -13.333 -70 -40 -94s-66 -36 -118 -36zM337 514
c0 34 -12 61.167 -36 81.5s-58 30.5 -102 30.5s-77.833 -10.5 -101.5 -31.5s-35.5 -47.833 -35.5 -80.5v-77c0 -32.667 11.833 -59.667 35.5 -81s57.5 -32 101.5 -32s78 10.333 102 31s36 48 36 82v77zM250 383c-2.66699 0 -4.33301 0.666992 -5 2
s-1.66699 2.66602 -3 3.99902l-34 70c-2 3.33301 -4.66699 5 -8 5h-25c-4.66699 0 -7 -2.33301 -7 -7v-68c0 -4 -1.66699 -6 -5 -6h-9c-4.66699 0 -7 2 -7 6v172c0 4.66699 2.66699 7 8 7h54c18.667 0 32.5 -4.66699 41.5 -14s13.5 -21.333 13.5 -36
c0 -10.667 -3.66699 -20.667 -11 -30s-14.666 -15.666 -21.999 -18.999c-2.66699 -1.33301 -3 -4.33301 -1 -9l36 -72c1.33301 -3.33301 -0.333984 -5 -5.00098 -5h-11zM175.001 549c-1.33301 0 -2.83301 -0.168945 -4.5 -0.501953s-2.5 -2.16602 -2.5 -5.49902v-56
c0 -3.33301 0.5 -5.16602 1.5 -5.49902s2.83301 -0.5 5.5 -0.5h33c7.33301 0 15 3.5 23 10.5s12 15.5 12 25.5c0 9.33301 -3 17 -9 23s-13.667 9 -23 9h-36z" />
    <glyph glyph-name="macron" unicode="&#xaf;" horiz-adv-x="382" 
d="M294 538c0 -4.66699 -2 -7 -6 -7h-182c-4 0 -6 2.33301 -6 7v20c0 4.66699 2 7 6 7h181c4.66699 0 7 -2.33301 7 -7v-20v0z" />
    <glyph glyph-name="degree" unicode="&#xb0;" horiz-adv-x="302" 
d="M254 528c0 -13.333 -2.83203 -26 -8.49902 -38s-13.167 -22.333 -22.5 -31s-20.5 -15.5 -33.5 -20.5s-26.5 -7.5 -40.5 -7.5c-28.667 0 -52.834 9.16699 -72.501 27.5s-29.5 41.5 -29.5 69.5c0 14 2.66699 27 8 39s12.5 22.5 21.5 31.5s19.667 16 32 21
s25.5 7.5 39.5 7.5c35.333 0 61.833 -9.5 79.5 -28.5s26.5 -42.5 26.5 -70.5zM148.001 601c-19.333 0 -35.834 -6.83496 -49.501 -20.502s-20.5 -31.167 -20.5 -52.5c0 -19.333 6.5 -36.166 19.5 -50.499s29.833 -21.5 50.5 -21.5c20 0 37.5 6.83301 52.5 20.5
s22.5 30.834 22.5 51.501s-6.66699 38 -20 52s-31.666 21 -54.999 21z" />
    <glyph glyph-name="plusminus" unicode="&#xb1;" horiz-adv-x="445" 
d="M414 327c0 -5.33301 -3 -8 -9 -8h-159c-4.66699 0 -7 -2 -7 -6v-164c0 -5.33301 -2.66699 -8 -8 -8h-20c-6 0 -9 2.66699 -9 8v164c0 4 -2 6 -6 6h-154c-6 0 -9 2.66699 -9 8v19c0 6 3 9 9 9h155c3.33301 0 5 2 5 6v164c0 5.33301 3 8 9 8h20c5.33301 0 8 -2.66699 8 -8
v-164c0 -4 2.33301 -6 7 -6h159c6 0 9 -3 9 -9v-19zM418 54c0 -5.33301 -2.66699 -8 -8 -8h-375c-5.33301 0 -8 2.66699 -8 8v19c0 6 2.66699 9 8 9h375c5.33301 0 8 -3 8 -9v-19z" />
    <glyph glyph-name="twosuperior" unicode="&#xb2;" horiz-adv-x="290" 
d="M245 340c0 -5.33301 -2.33398 -8.00195 -7.00098 -8.00195h-210c-6.66699 0 -10 2.66699 -10 8v12c0 4.66699 1.66699 9.33398 5 14.001l75 91.5l75 91.5c13.333 16.667 22.5 30.834 27.5 42.501s7.5 22.167 7.5 31.5c0 18 -6.66699 32.333 -20 43s-31 16 -53 16
c-16 0 -30.333 -3.33301 -43 -10s-22.667 -13 -30 -19c-3.33301 -2.66699 -6.33301 -4.83398 -9 -6.50098s-5 -0.833984 -7 2.49902l-13 15c-3.33301 2.66699 -2.66602 6.33398 2.00098 11.001c12 11.333 27 20.5 45 27.5s36.667 10.5 56 10.5c30 0 55.333 -7.66699 76 -23
s31 -37 31 -65c0 -17.333 -4 -33.5 -12 -48.5s-20.333 -32.5 -37 -52.5l-127 -156c-1.33301 -1.33301 -2 -2.66602 -2 -3.99902s1.33301 -2 4 -2h168c5.33301 0 8 -2.66699 8 -8v-14v0z" />
    <glyph glyph-name="threesuperior" unicode="&#xb3;" horiz-adv-x="290" 
d="M238 437c0 -32 -10.668 -58.502 -32.001 -79.502s-50 -31.5 -86 -31.5c-42.667 0 -74.334 14.333 -95.001 43c-3.33301 5.33301 -3 9.33301 1 12l15 10c5.33301 2.66699 9.66602 2 12.999 -2c7.33301 -10.667 17 -18.834 29 -24.501s24.333 -8.5 37 -8.5
c27.333 0 47.833 7.5 61.5 22.5s20.5 33.167 20.5 54.5v26c0 17.333 -5.66699 32 -17 44s-27.666 18 -48.999 18h-44c-4.66699 0 -7 2 -7 6v18c0 2 0.333008 3.66699 1 5s2.66699 2 6 2h44c17.333 0 32.833 5.83301 46.5 17.5s20.5 27.167 20.5 46.5
c0 17.333 -6.5 32.333 -19.5 45s-31.167 19 -54.5 19c-14 0 -26.833 -2.5 -38.5 -7.5s-20.834 -11.5 -27.501 -19.5c-2 -3.33301 -4.16699 -5.66602 -6.5 -6.99902s-5.16602 -0.666016 -8.49902 2.00098l-13 9c-5.33301 4 -5.33301 8.66699 0 14
c10 13.333 23.333 23.333 40 30s34.667 10 54 10c33.333 0 59.833 -8.5 79.5 -25.5s29.5 -39.833 29.5 -68.5c0 -18 -4.66699 -34.167 -14 -48.5s-19.666 -25.166 -30.999 -32.499c-1.33301 -1.33301 -1.33301 -2.33301 0 -3c16.667 -6 28.334 -16 35.001 -30s10 -28 10 -42
v-24v0z" />
    <glyph glyph-name="acute" unicode="&#xb4;" horiz-adv-x="402" 
d="M202 494c-4 -4.66699 -8.33301 -5.66504 -13 -2.99805l-9 6c-1.33301 1.33301 -2.5 2.83301 -3.5 4.5s-0.5 4.5 1.5 8.5l68 124c2 3.33301 4.33301 5.66602 7 6.99902s6.33398 0.666016 11.001 -2.00098l21 -13c4.66699 -2.66699 7 -5.66699 7 -9
c0 -1.33301 -0.333008 -2.5 -1 -3.5s-1.33398 -2.16699 -2.00098 -3.5z" />
    <glyph glyph-name="mu" unicode="&#xb5;" horiz-adv-x="431" 
d="M95 -173c0 -4.66699 -2.33398 -6.99902 -7.00098 -6.99902h-28c-4.66699 0 -7.33398 2 -8.00098 6c0.666992 60.667 1 115.667 1 165v143.5c0 46.333 -0.166992 93 -0.5 140s-0.5 98.167 -0.5 153.5c0 4 2.33301 6 7 6h28c4.66699 0 7 -2 7 -6v-273
c0 -16 2.83301 -31.5 8.5 -46.5s13.667 -28.333 24 -40s23 -20.834 38 -27.501s31.833 -10 50.5 -10c18 0 34.333 3.33301 49 10s27.167 15.5 37.5 26.5s18.5 24 24.5 39s9 30.833 9 47.5v274c0 4 2.33301 6 7 6h28c4.66699 0 7 -2 7 -6v-422c0 -4 -2.33301 -6 -7 -6h-26
c-4.66699 0 -7 2 -7 6v41c0 6 -2.66699 6.33301 -8 1c-17.333 -17.333 -35 -30.5 -53 -39.5s-39.667 -13.5 -65 -13.5s-46.666 4.33301 -63.999 13s-31.666 20 -42.999 34c-1.33301 1.33301 -3 2 -5 2c-2.66699 0 -4 -2 -4 -6v-211v0z" />
    <glyph glyph-name="mu" unicode="&#x3bc;" horiz-adv-x="431" 
d="M95 -173c0 -4.66699 -2.33398 -6.99902 -7.00098 -6.99902h-28c-4.66699 0 -7.33398 2 -8.00098 6c0.666992 60.667 1 115.667 1 165v143.5c0 46.333 -0.166992 93 -0.5 140s-0.5 98.167 -0.5 153.5c0 4 2.33301 6 7 6h28c4.66699 0 7 -2 7 -6v-273
c0 -16 2.83301 -31.5 8.5 -46.5s13.667 -28.333 24 -40s23 -20.834 38 -27.501s31.833 -10 50.5 -10c18 0 34.333 3.33301 49 10s27.167 15.5 37.5 26.5s18.5 24 24.5 39s9 30.833 9 47.5v274c0 4 2.33301 6 7 6h28c4.66699 0 7 -2 7 -6v-422c0 -4 -2.33301 -6 -7 -6h-26
c-4.66699 0 -7 2 -7 6v41c0 6 -2.66699 6.33301 -8 1c-17.333 -17.333 -35 -30.5 -53 -39.5s-39.667 -13.5 -65 -13.5s-46.666 4.33301 -63.999 13s-31.666 20 -42.999 34c-1.33301 1.33301 -3 2 -5 2c-2.66699 0 -4 -2 -4 -6v-211v0z" />
    <glyph glyph-name="paragraph" unicode="&#xb6;" horiz-adv-x="403" 
d="M191 324c-22.667 0 -43.3311 3.99902 -61.998 11.999s-34.834 18.833 -48.501 32.5s-24.334 29.834 -32.001 48.501s-11.5 38.667 -11.5 60s3.83301 41.333 11.5 60s18.5 35 32.5 49s30.333 25.167 49 33.5s39 12.5 61 12.5h78c4 0 6 -2.33301 6 -7v-295
c0 -4 -2 -6 -6 -6h-78zM347.003 64.999c0 -24.667 -2.00098 -46.498 -6.00098 -65.498s-11.5 -35.333 -22.5 -49s-26.5 -24.834 -46.5 -33.501s-46 -14.667 -78 -18c-4 0 -6.33301 2 -7 6l-2 19c-1.33301 4 0.333984 6.66699 5.00098 8
c28 3.33301 50.167 8.66602 66.5 15.999s28.5 16.5 36.5 27.5s13.167 23.5 15.5 37.5s3.5 29.667 3.5 47v565c0 4.66699 2.33301 7 7 7h21c4.66699 0 7 -2.33301 7 -7v-560z" />
    <glyph glyph-name="periodcentered" unicode="&#xb7;" horiz-adv-x="165" 
d="M117 234c0 -9.33301 -3.16699 -17.5 -9.5 -24.5s-14.833 -10.5 -25.5 -10.5c-9.33301 0 -17.333 3.5 -24 10.5s-10 15.167 -10 24.5s3.33301 17.333 10 24s14.667 10 24 10c10 0 18.333 -3.33301 25 -10s10 -14.667 10 -24z" />
    <glyph glyph-name="cedilla" unicode="&#xb8;" horiz-adv-x="372" 
d="M300 -125c0 -19.333 -7.83496 -35.667 -23.502 -49s-36.834 -20 -63.501 -20c-13.333 0 -26.666 1.83301 -39.999 5.5s-24 8.5 -32 14.5c-2.66699 2.66699 -2.66699 5.66699 0 9l8 11c2 3.33301 4.66699 4 8 2c8 -5.33301 16.667 -9.5 26 -12.5s18.666 -4.5 27.999 -4.5
c19.333 0 33.833 3.83301 43.5 11.5s14.5 18.167 14.5 31.5c0 8.66699 -3 18 -9 28s-19.667 15 -41 15h-33c-12 0 -18 4.66699 -18 14c0 2.66699 0.333008 4.66699 1 6l18 66c0.666992 1.33301 1.33398 3 2.00098 5s2.33398 3 5.00098 3h18c2.66699 0 3.83398 -1 3.50098 -3
s-0.5 -3.66699 -0.5 -5c-0.666992 -1.33301 -1.66699 -4.66602 -3 -9.99902s-2.83301 -10.833 -4.5 -16.5s-3 -10.834 -4 -15.501s-1.5 -7.33398 -1.5 -8.00098c0 -1.33301 -0.166992 -2.16602 -0.5 -2.49902s-0.5 -0.833008 -0.5 -1.5c0 -4 2.33301 -6 7 -6h13
c23.333 0 42.333 -6 57 -18s22 -28.667 22 -50z" />
    <glyph glyph-name="onesuperior" unicode="&#xb9;" horiz-adv-x="229" 
d="M149 340c0 -6 -3.33301 -9 -10 -9h-19c-5.33301 0 -8 2.66699 -8 8v322c0 2.66699 -2 3 -6 1l-60 -36c-4.66699 -2 -7 -1 -7 3v23c0 4 0.5 6.83301 1.5 8.5s2.83301 3.16699 5.5 4.5l67 39c4 2 6.83301 3.16699 8.5 3.5s3.5 0.5 5.5 0.5h15c4.66699 0 7 -2 7 -6v-362v0z
" />
    <glyph glyph-name="ordmasculine" unicode="&#xba;" horiz-adv-x="287" 
d="M257 345c0 -34 -9.83496 -60.166 -29.502 -78.499s-47.167 -27.5 -82.5 -27.5c-37.333 0 -65.666 9.5 -84.999 28.5s-29 44.5 -29 76.5v80c0 31.333 10.333 56.666 31 75.999s48.334 29 83.001 29s62 -9.5 82 -28.5s30 -44.5 30 -76.5v-79zM220.998 424.001
c0 20.667 -6.83301 37.835 -20.5 51.502s-32.167 20.5 -55.5 20.5s-42 -6.83301 -56 -20.5s-21 -30.834 -21 -51.501v-80c0 -22.667 7 -40.667 21 -54s32.667 -20 56 -20s41.833 6.66699 55.5 20s20.5 31.666 20.5 54.999v79z" />
    <glyph glyph-name="guillemotright" unicode="&#xbb;" horiz-adv-x="447" 
d="M257 28c-3.33301 -4 -6.33301 -6.49902 -9 -7.49902s-6 -1.5 -10 -1.5h-25c-2.66699 0 -4.66699 1.16699 -6 3.5s-0.666016 5.16602 2.00098 8.49902l129 160c1.33301 2 2.16602 3.5 2.49902 4.5s-0.5 3.16699 -2.5 6.5l-130 159c-2 2.66699 -2.66699 5 -2 7s3 3 7 3h26
c4.66699 0 8 -0.5 10 -1.5s4.33301 -3.16699 7 -6.5l126 -155c5.33301 -7.33301 5.33301 -15 0 -23zM111 28.001c-3.33301 -4 -6.33496 -6.49902 -9.00195 -7.49902s-6 -1.5 -10 -1.5h-25c-3.33301 0 -5.66602 1.16699 -6.99902 3.5s-0.333008 5.16602 3 8.49902l128 160
l3 4.5c0.666992 1 -0.333008 3.16699 -3 6.5l-129 159c-2.66699 2.66699 -3.5 5 -2.5 7s3.5 3 7.5 3h26c5.33301 0 8.83301 -0.5 10.5 -1.5s3.83398 -3.16699 6.50098 -6.5l126 -155c6 -7.33301 6 -15 0 -23z" />
    <glyph glyph-name="onequarter" unicode="&#xbc;" horiz-adv-x="645" 
d="M167 250c0 -6 -3.33301 -9 -10 -9h-19c-5.33301 0 -8 2.66699 -8 8v322c0 2.66699 -2 3 -6 1l-60 -36c-4.66699 -2 -7 -1 -7 3v23c0 4 0.5 6.83301 1.5 8.5s2.83301 3.16699 5.5 4.5l67 39c4 2 6.83301 3.16699 8.5 3.5s3.5 0.5 5.5 0.5h15c4.66699 0 7 -2 7 -6v-362z
M161 -24c-1.33301 -4 -4.33301 -6 -9 -6h-17c-4.66699 0 -6 2 -4 6l283 665c2.66699 4 5.66699 6 9 6h15c5.33301 0 7.33301 -2.33301 6 -7zM502 378c3.33301 0 5 -0.999023 5 -2.99902s-0.333008 -3.33301 -1 -4l-143 -245c-1.33301 -1.33301 -1.5 -2.5 -0.5 -3.5
s2.5 -1.5 4.5 -1.5h120c2.66699 0 4 1 4 3v121c0 4.66699 2 7 6 7h21c4 0 6 -2.33301 6 -7v-119c0 -3.33301 1.33301 -5 4 -5h52c3.33301 0 5 -1.33301 5 -4v-21c0 -2.66699 -1 -4 -3 -4h-51c-4.66699 0 -7 -2.33301 -7 -7v-79c0 -4 -2 -6 -6 -6h-21c-4 0 -6 2 -6 6v81
c0 3.33301 -1.66699 5 -5 5h-157c-6 0 -9 2 -9 6v11c0 5.33301 1.33301 10.666 4 15.999l146 249l3 3c0.666992 0.666992 2.66699 1 6 1h23z" />
    <glyph glyph-name="onehalf" unicode="&#xbd;" horiz-adv-x="645" 
d="M161 250c0 -6 -3.33301 -9 -10 -9h-19c-5.33301 0 -8 2.66699 -8 8v322c0 2.66699 -2 3 -6 1l-60 -36c-4.66699 -2 -7 -1 -7 3v23c0 4 0.5 6.83301 1.5 8.5s2.83301 3.16699 5.5 4.5l67 39c4 2 6.83301 3.16699 8.5 3.5s3.5 0.5 5.5 0.5h15c4.66699 0 7 -2 7 -6v-362z
M155 -24c-1.33301 -4 -4.33301 -6 -9 -6h-17c-4.66699 0 -6 2 -4 6l283 665c2.66699 4 5.66699 6 9 6h15c5.33301 0 7.33301 -2.33301 6 -7zM593 9c0 -6 -2.66797 -8.99902 -8.00098 -8.99902h-209c-6.66699 0 -10 3 -10 9v11c0 6 1.33301 10.667 4 14l75.5 91.5l74.5 91.5
c13.333 16.667 22.666 30.834 27.999 42.501s8 22.167 8 31.5c0 18 -6.66699 32.333 -20 43s-31.333 16 -54 16c-15.333 0 -29.5 -3.33301 -42.5 -10s-23.167 -13 -30.5 -19c-3.33301 -2.66699 -6.16602 -4.66699 -8.49902 -6s-4.83301 -0.666016 -7.5 2.00098l-13 15
c-1.33301 1.33301 -1.66602 3.16602 -0.999023 5.49902s1.66699 4.16602 3 5.49902c12 12 27 21.5 45 28.5s36.667 10.5 56 10.5c30 0 55.5 -7.83301 76.5 -23.5s31.5 -37.5 31.5 -65.5c0 -17.333 -4.16699 -33.5 -12.5 -48.5s-20.5 -32.5 -36.5 -52.5l-127 -155
c-1.33301 -2.66699 -2 -4.33398 -2 -5.00098c0 -1.33301 1.33301 -2 4 -2h167c6 0 9 -2.33301 9 -7v-14z" />
    <glyph glyph-name="threequarters" unicode="&#xbe;" horiz-adv-x="645" 
d="M528 378c3.33301 0 5 -0.999023 5 -2.99902s-0.333008 -3.33301 -1 -4l-143 -245c-1.33301 -1.33301 -1.5 -2.5 -0.5 -3.5s2.5 -1.5 4.5 -1.5h120c2.66699 0 4 1 4 3v121c0 4.66699 2 7 6 7h21c4 0 6 -2.33301 6 -7v-119c0 -3.33301 1.33301 -5 4 -5h52
c3.33301 0 5 -1.33301 5 -4v-21c0 -2.66699 -1 -4 -3 -4h-51c-4.66699 0 -7 -2.33301 -7 -7v-79c0 -4 -2 -6 -6 -6h-21c-4 0 -6 2 -6 6v81c0 3.33301 -1.66699 5 -5 5h-157c-6 0 -9 2 -9 6v11c0 5.33301 1.33301 10.666 4 15.999l146 249l3 3
c0.666992 0.666992 2.66699 1 6 1h23zM248 347.001c0 -32 -10.668 -58.502 -32.001 -79.502s-50 -31.5 -86 -31.5c-42.667 0 -74.334 14.333 -95.001 43c-3.33301 5.33301 -3 9.33301 1 12l15 10c5.33301 2.66699 9.66602 2 12.999 -2
c7.33301 -10.667 17 -18.834 29 -24.501s24.333 -8.5 37 -8.5c27.333 0 47.833 7.5 61.5 22.5s20.5 33.167 20.5 54.5v26c0 17.333 -5.66699 32 -17 44s-27.666 18 -48.999 18h-44c-4.66699 0 -7 2 -7 6v18c0 2 0.333008 3.66699 1 5s2.66699 2 6 2h44
c17.333 0 32.833 5.83301 46.5 17.5s20.5 27.167 20.5 46.5c0 17.333 -6.5 32.333 -19.5 45s-31.167 19 -54.5 19c-14 0 -26.833 -2.5 -38.5 -7.5s-20.834 -11.5 -27.501 -19.5c-2 -3.33301 -4.16699 -5.66602 -6.5 -6.99902s-5.16602 -0.666016 -8.49902 2.00098l-13 9
c-5.33301 4 -5.33301 8.66699 0 14c10 13.333 23.333 23.333 40 30s34.667 10 54 10c33.333 0 59.833 -8.5 79.5 -25.5s29.5 -39.833 29.5 -68.5c0 -18 -4.66699 -34.167 -14 -48.5s-19.666 -25.166 -30.999 -32.499c-1.33301 -1.33301 -1.33301 -2.33301 0 -3
c16.667 -6 28.334 -16 35.001 -30s10 -28 10 -42v-24zM192.999 -24.001c-1.33301 -4 -4.33301 -6 -9 -6h-17c-4.66699 0 -6 2 -4 6l283 665c2.66699 4 5.66699 6 9 6h15c5.33301 0 7.33301 -2.33301 6 -7z" />
    <glyph glyph-name="questiondown" unicode="&#xbf;" horiz-adv-x="442" 
d="M77 -47c0 26.667 8.3291 53.3301 24.9961 79.9971s42 51 76 73c31.333 19.333 54.5 38.5 69.5 57.5s22.5 43.5 22.5 73.5v46c0 5.33301 2 8 6 8h28c5.33301 0 8 -2.66699 8 -8v-61c-1.33301 -23.333 -8.16602 -45.833 -20.499 -67.5s-30.166 -40.167 -53.499 -55.5
c-15.333 -10 -29.833 -20.167 -43.5 -30.5s-26 -21.333 -37 -33s-19.833 -24.167 -26.5 -37.5s-10.334 -28 -11.001 -44c0 -11.333 1.83301 -23.5 5.5 -36.5s10 -25.167 19 -36.5s20.833 -20.833 35.5 -28.5s33.334 -11.5 56.001 -11.5c17.333 0 32.833 2.5 46.5 7.5
s25.834 11.833 36.501 20.5c5.33301 3.33301 10.166 6.83301 14.499 10.5s8.5 7.83398 12.5 12.501c2 3.33301 4.66699 5 8 5c1.33301 0 3.33301 -0.666992 6 -2l20 -14c2.66699 -2.66699 4 -4.66699 4 -6s-1 -3 -3 -5c-15.333 -21.333 -35.5 -37.666 -60.5 -48.999
s-52.833 -17 -83.5 -17c-22.667 0 -43.667 3.16699 -63 9.5s-36.166 15.833 -50.499 28.5s-25.666 28.334 -33.999 47.001s-12.5 40 -12.5 64zM257.996 400.996c0 9.33301 3.16699 17.333 9.5 24s14.833 10 25.5 10c9.33301 0 17.333 -3.33301 24 -10s10 -14.667 10 -24
s-3.33301 -17.333 -10 -24s-14.667 -10 -24 -10c-10.667 0 -19.167 3.16699 -25.5 9.5s-9.5 14.5 -9.5 24.5z" />
    <glyph glyph-name="Agrave" unicode="&#xc0;" horiz-adv-x="445" 
d="M395 0c-5.33301 0 -8.66699 2 -10 6l-43 146c-0.666992 2.66699 -2.66699 4 -6 4h-231c-2.66699 0 -4.33398 -1 -5.00098 -3c-0.666992 -3.33301 -3.16699 -12.333 -7.5 -27l-13.5 -46.5l-13.5 -46.5c-4.33301 -14.667 -6.83301 -23.667 -7.5 -27
c-1.33301 -4 -4.33301 -6 -9 -6h-28c-3.33301 0 -5.66602 0.5 -6.99902 1.5s-1.33301 3.5 0 7.5l175 601c1.33301 4.66699 4 7 8 7h47c5.33301 0 8.33301 -2.33301 9 -7l177 -599c2.66699 -7.33301 1 -11 -5 -11h-30zM180.999 437l-68 -237
c-1.33301 -4.66699 -0.333008 -7 3 -7h209c4 0 5.66699 2 5 6l-70 239l-37 132c-0.666992 2 -1.5 3 -2.5 3s-1.83301 -1 -2.5 -3zM99.999 720c-3.33301 2 -5.66895 4.16699 -7.00195 6.5s0.333984 5.83301 5.00098 10.5l17 20
c5.33301 5.33301 11.666 5.66602 18.999 0.999023l105 -94c1.33301 -1.33301 2.83301 -3 4.5 -5s0.833984 -4.66699 -2.49902 -8l-9 -9c-2.66699 -3.33301 -5.16699 -4.66602 -7.5 -3.99902s-4.16602 1.66699 -5.49902 3z" />
    <glyph glyph-name="Aacute" unicode="&#xc1;" horiz-adv-x="445" 
d="M395 0c-5.33301 0 -8.66699 2 -10 6l-43 146c-0.666992 2.66699 -2.66699 4 -6 4h-231c-2.66699 0 -4.33398 -1 -5.00098 -3c-0.666992 -3.33301 -3.16699 -12.333 -7.5 -27l-13.5 -46.5l-13.5 -46.5c-4.33301 -14.667 -6.83301 -23.667 -7.5 -27
c-1.33301 -4 -4.33301 -6 -9 -6h-28c-3.33301 0 -5.66602 0.5 -6.99902 1.5s-1.33301 3.5 0 7.5l175 601c1.33301 4.66699 4 7 8 7h47c5.33301 0 8.33301 -2.33301 9 -7l177 -599c2.66699 -7.33301 1 -11 -5 -11h-30zM180.999 437l-68 -237
c-1.33301 -4.66699 -0.333008 -7 3 -7h209c4 0 5.66699 2 5 6l-70 239l-37 132c-0.666992 2 -1.5 3 -2.5 3s-1.83301 -1 -2.5 -3zM219.999 646c-4.66699 -2.66699 -9 -2.00098 -13 1.99902l-6 8c-3.33301 5.33301 -3 9.33301 1 12l109 93
c5.33301 4.66699 10.333 4.33398 15 -0.999023l19 -23c6 -6 5.33301 -11 -2 -15z" />
    <glyph glyph-name="Acircumflex" unicode="&#xc2;" horiz-adv-x="445" 
d="M395 0c-5.33301 0 -8.66699 2 -10 6l-43 146c-0.666992 2.66699 -2.66699 4 -6 4h-231c-2.66699 0 -4.33398 -1 -5.00098 -3c-0.666992 -3.33301 -3.16699 -12.333 -7.5 -27l-13.5 -46.5l-13.5 -46.5c-4.33301 -14.667 -6.83301 -23.667 -7.5 -27
c-1.33301 -4 -4.33301 -6 -9 -6h-28c-3.33301 0 -5.66602 0.5 -6.99902 1.5s-1.33301 3.5 0 7.5l175 601c1.33301 4.66699 4 7 8 7h47c5.33301 0 8.33301 -2.33301 9 -7l177 -599c2.66699 -7.33301 1 -11 -5 -11h-30zM180.999 437l-68 -237
c-1.33301 -4.66699 -0.333008 -7 3 -7h209c4 0 5.66699 2 5 6l-70 239l-37 132c-0.666992 2 -1.5 3 -2.5 3s-1.83301 -1 -2.5 -3zM190.999 757c3.33301 3.33301 5.99902 5.33301 7.99902 6s4.66699 1 8 1h25c6 0 11 -2.33301 15 -7l94 -94c2.66699 -2.66699 4 -4.5 4 -5.5
s-1.33301 -2.83301 -4 -5.5c-2 -1.33301 -4 -3 -6 -5s-4.66699 -3 -8 -3c-2.66699 0 -5 1 -7 3c-15.333 12.667 -31.166 25 -47.499 37l-48.5 37c-4.66699 3.33301 -9 3.33301 -13 0l-92 -74c-2 -2 -4.33301 -3 -7 -3s-5.16699 1 -7.5 3s-4.5 3.66699 -6.5 5
c-2 2 -3 3.66699 -3 5c0 2 1 4 3 6z" />
    <glyph glyph-name="Atilde" unicode="&#xc3;" horiz-adv-x="445" 
d="M395 0c-5.33301 0 -8.66699 2 -10 6l-43 146c-0.666992 2.66699 -2.66699 4 -6 4h-231c-2.66699 0 -4.33398 -1 -5.00098 -3c-0.666992 -3.33301 -3.16699 -12.333 -7.5 -27l-13.5 -46.5l-13.5 -46.5c-4.33301 -14.667 -6.83301 -23.667 -7.5 -27
c-1.33301 -4 -4.33301 -6 -9 -6h-28c-3.33301 0 -5.66602 0.5 -6.99902 1.5s-1.33301 3.5 0 7.5l175 601c1.33301 4.66699 4 7 8 7h47c5.33301 0 8.33301 -2.33301 9 -7l177 -599c2.66699 -7.33301 1 -11 -5 -11h-30zM180.999 437l-68 -237
c-1.33301 -4.66699 -0.333008 -7 3 -7h209c4 0 5.66699 2 5 6l-70 239l-37 132c-0.666992 2 -1.5 3 -2.5 3s-1.83301 -1 -2.5 -3zM349.999 717c-9.33301 -17.333 -20.998 -29.335 -34.998 -36.002s-27 -10 -39 -10c-10.667 0 -20.834 1.66699 -30.501 5
s-19 6.83301 -28 10.5l-27 10.5c-9 3.33301 -17.833 5 -26.5 5c-7.33301 0 -14.666 -2.5 -21.999 -7.5s-13 -11.167 -17 -18.5c-3.33301 -5.33301 -7.33301 -6.66602 -12 -3.99902l-14 7c-2.66699 1.33301 -3.83398 3 -3.50098 5s1.16602 4 2.49902 6c16.667 30 40 45 70 45
c9.33301 0 18.666 -1.66699 27.999 -5s18.333 -6.83301 27 -10.5l26 -10.5c8.66699 -3.33301 17 -5 25 -5c18.667 0 34.334 9.66699 47.001 29c1.33301 2 2.5 3.33301 3.5 4s2.83301 0.333984 5.5 -0.999023l17 -8c4 -1.33301 5 -5 3 -11z" />
    <glyph glyph-name="Adieresis" unicode="&#xc4;" horiz-adv-x="445" 
d="M395 0c-5.33301 0 -8.66699 2 -10 6l-43 146c-0.666992 2.66699 -2.66699 4 -6 4h-231c-2.66699 0 -4.33398 -1 -5.00098 -3c-0.666992 -3.33301 -3.16699 -12.333 -7.5 -27l-13.5 -46.5l-13.5 -46.5c-4.33301 -14.667 -6.83301 -23.667 -7.5 -27
c-1.33301 -4 -4.33301 -6 -9 -6h-28c-3.33301 0 -5.66602 0.5 -6.99902 1.5s-1.33301 3.5 0 7.5l175 601c1.33301 4.66699 4 7 8 7h47c5.33301 0 8.33301 -2.33301 9 -7l177 -599c2.66699 -7.33301 1 -11 -5 -11h-30zM180.999 437l-68 -237
c-1.33301 -4.66699 -0.333008 -7 3 -7h209c4 0 5.66699 2 5 6l-70 239l-37 132c-0.666992 2 -1.5 3 -2.5 3s-1.83301 -1 -2.5 -3zM326.999 704c0 -8.66699 -2.83301 -15.834 -8.5 -21.501s-12.5 -8.5 -20.5 -8.5s-14.833 2.83301 -20.5 8.5s-8.5 12.834 -8.5 21.501
s2.83301 15.834 8.5 21.501s12.5 8.5 20.5 8.5s14.833 -2.83301 20.5 -8.5s8.5 -12.834 8.5 -21.501zM172.999 704c0 -8.66699 -2.83301 -15.834 -8.5 -21.501s-12.5 -8.5 -20.5 -8.5s-14.833 2.83301 -20.5 8.5s-8.5 12.834 -8.5 21.501s2.83301 15.834 8.5 21.501
s12.5 8.5 20.5 8.5s14.833 -2.83301 20.5 -8.5s8.5 -12.834 8.5 -21.501z" />
    <glyph glyph-name="Aring" unicode="&#xc5;" horiz-adv-x="445" 
d="M395 0c-5.33301 0 -8.66699 2 -10 6l-43 146c-0.666992 2.66699 -2.66699 4 -6 4h-231c-2.66699 0 -4.33398 -1 -5.00098 -3c-0.666992 -3.33301 -3.16699 -12.333 -7.5 -27l-13.5 -46.5l-13.5 -46.5c-4.33301 -14.667 -6.83301 -23.667 -7.5 -27
c-1.33301 -4 -4.33301 -6 -9 -6h-28c-3.33301 0 -5.66602 0.5 -6.99902 1.5s-1.33301 3.5 0 7.5l175 601c1.33301 4.66699 4 7 8 7h47c5.33301 0 8.33301 -2.33301 9 -7l177 -599c2.66699 -7.33301 1 -11 -5 -11h-30zM180.999 437l-68 -237
c-1.33301 -4.66699 -0.333008 -7 3 -7h209c4 0 5.66699 2 5 6l-70 239l-37 132c-0.666992 2 -1.5 3 -2.5 3s-1.83301 -1 -2.5 -3zM289.999 723c0 -19.333 -6.83301 -36 -20.5 -50s-30.167 -21 -49.5 -21c-20 0 -36.5 6.83301 -49.5 20.5s-19.5 30.167 -19.5 49.5
c0 20 6.5 37 19.5 51s29.5 21 49.5 21c19.333 0 35.833 -6.83301 49.5 -20.5s20.5 -30.5 20.5 -50.5zM262.999 723c0 12 -4.33301 22.333 -13 31s-18.667 13 -30 13c-12 0 -22 -4.33301 -30 -13s-12 -19 -12 -31c0 -12.667 4 -23.334 12 -32.001s18 -13 30 -13
c11.333 0 21.333 4.33301 30 13s13 19.334 13 32.001z" />
    <glyph glyph-name="AE" unicode="&#xc6;" horiz-adv-x="654" 
d="M626 7c0 -4.66699 -2 -6.99902 -6 -6.99902h-310c-4.66699 0 -7 2.33301 -7 7v141c0 3.33301 -0.333008 6.16602 -1 8.49902s-3.66699 3.5 -9 3.5h-175c-4 0 -6.66699 -1.66699 -8 -5l-51 -148c-2 -4.66699 -5.33301 -7 -10 -7h-27c-6 0 -7.33301 3 -4 9l212 600
c0.666992 1.33301 2 3 4 5s4.66699 3 8 3h376c4.66699 0 7 -2.33301 7 -7v-23c0 -4.66699 -2 -7 -6 -7h-266c-5.33301 0 -8 -2 -8 -6v-232c0 -4 2.33301 -6 7 -6h220c4.66699 0 7 -2.66699 7 -8v-23c0 -4 -2 -6 -6 -6h-220c-5.33301 0 -8 -2.66699 -8 -8v-247
c0 -4.66699 2.66699 -7 8 -7h267c4 0 6 -2 6 -6v-24zM267 580.001c-6 0 -10 -2.33301 -12 -7l-128 -369c-2 -4.66699 0 -7 6 -7h159c7.33301 0 11 3.66699 11 11v366c0 4 -2.66699 6 -8 6h-28z" />
    <glyph glyph-name="Ccedilla" unicode="&#xc7;" horiz-adv-x="413" 
d="M322 -125c0 -19.333 -7.83496 -35.667 -23.502 -49s-36.834 -20 -63.501 -20c-13.333 0 -26.666 1.83301 -39.999 5.5s-24 8.5 -32 14.5c-2.66699 2.66699 -2.66699 5.66699 0 9l8 11c2 3.33301 4.66699 4 8 2c8 -5.33301 16.667 -9.5 26 -12.5s18.666 -4.5 27.999 -4.5
c19.333 0 33.833 3.83301 43.5 11.5s14.5 18.167 14.5 31.5c0 8.66699 -3 18 -9 28s-19.667 15 -41 15h-33c-12 0 -18 4.66699 -18 14c0 2.66699 0.333008 4.66699 1 6l16 59c-46.667 5.33301 -83.167 22.5 -109.5 51.5s-39.5 65.5 -39.5 109.5v306
c0 22.667 4.16699 43.834 12.5 63.501s20.333 36.667 36 51s34.334 25.666 56.001 33.999s45.5 12.5 71.5 12.5c30 0 58.167 -5 84.5 -15s48.5 -26 66.5 -48c4 -4 3.66699 -8.33301 -1 -13l-18 -15c-4 -4 -8.66699 -3 -14 3c-12.667 16 -30 28.333 -52 37s-44 13 -66 13
c-40 0 -72.167 -11.833 -96.5 -35.5s-36.5 -53.167 -36.5 -88.5v-303c0 -18 3 -34.667 9 -50s14.667 -28.833 26 -40.5s25.5 -20.834 42.5 -27.501s36.5 -10 58.5 -10c21.333 0 42.333 4.16699 63 12.5s38.334 20.166 53.001 35.499c6.66699 7.33301 12.334 9 17.001 5
l15 -13c5.33301 -4.66699 6 -9 2 -13c-18.667 -20.667 -40.667 -36.5 -66 -47.5s-53.333 -16.5 -84 -16.5h-3l-6.5 -25c-2.33301 -9.33301 -3.5 -14.666 -3.5 -15.999s-0.166992 -2.16602 -0.5 -2.49902s-0.5 -0.833008 -0.5 -1.5c0 -4 2.33301 -6 7 -6h13
c23.333 0 42.333 -6 57 -18s22 -28.667 22 -50z" />
    <glyph glyph-name="Egrave" unicode="&#xc8;" horiz-adv-x="429" 
d="M399 8c0 -5.33301 -2.66699 -8.00098 -8 -8.00098h-322c-5.33301 0 -8 2.66699 -8 8v601c0 5.33301 2.66699 8 8 8h310c4.66699 0 7 -2.66699 7 -8v-23c0 -4.66699 -2.33301 -7 -7 -7h-267c-2.66699 0 -4.66699 -0.166992 -6 -0.5s-2 -2.16602 -2 -5.49902v-229
c0 -4 2.33301 -6 7 -6h233c4.66699 0 7 -2.66699 7 -8v-23c0 -4.66699 -2.33301 -7 -7 -7h-233c-4.66699 0 -7 -2.33301 -7 -7v-249c0 -4 2.33301 -6 7 -6h280c5.33301 0 8 -2.33301 8 -7v-23zM118 719.999c-3.33301 2 -5.66895 4.16699 -7.00195 6.5
s0.333984 5.83301 5.00098 10.5l17 20c5.33301 5.33301 11.666 5.66602 18.999 0.999023l105 -94c1.33301 -1.33301 2.83301 -3 4.5 -5s0.833984 -4.66699 -2.49902 -8l-9 -9c-2.66699 -3.33301 -5.16699 -4.66602 -7.5 -3.99902s-4.16602 1.66699 -5.49902 3z" />
    <glyph glyph-name="Eacute" unicode="&#xc9;" horiz-adv-x="429" 
d="M399 8c0 -5.33301 -2.66699 -8.00098 -8 -8.00098h-322c-5.33301 0 -8 2.66699 -8 8v601c0 5.33301 2.66699 8 8 8h310c4.66699 0 7 -2.66699 7 -8v-23c0 -4.66699 -2.33301 -7 -7 -7h-267c-2.66699 0 -4.66699 -0.166992 -6 -0.5s-2 -2.16602 -2 -5.49902v-229
c0 -4 2.33301 -6 7 -6h233c4.66699 0 7 -2.66699 7 -8v-23c0 -4.66699 -2.33301 -7 -7 -7h-233c-4.66699 0 -7 -2.33301 -7 -7v-249c0 -4 2.33301 -6 7 -6h280c5.33301 0 8 -2.33301 8 -7v-23zM191 645.999c-4.66699 -2.66699 -9 -2.00098 -13 1.99902l-6 8
c-3.33301 5.33301 -3 9.33301 1 12l109 93c5.33301 4.66699 10.333 4.33398 15 -0.999023l19 -23c6 -6 5.33301 -11 -2 -15z" />
    <glyph glyph-name="Ecircumflex" unicode="&#xca;" horiz-adv-x="429" 
d="M399 8c0 -5.33301 -2.66699 -8.00098 -8 -8.00098h-322c-5.33301 0 -8 2.66699 -8 8v601c0 5.33301 2.66699 8 8 8h310c4.66699 0 7 -2.66699 7 -8v-23c0 -4.66699 -2.33301 -7 -7 -7h-267c-2.66699 0 -4.66699 -0.166992 -6 -0.5s-2 -2.16602 -2 -5.49902v-229
c0 -4 2.33301 -6 7 -6h233c4.66699 0 7 -2.66699 7 -8v-23c0 -4.66699 -2.33301 -7 -7 -7h-233c-4.66699 0 -7 -2.33301 -7 -7v-249c0 -4 2.33301 -6 7 -6h280c5.33301 0 8 -2.33301 8 -7v-23zM191 756.999c3.33301 3.33301 5.99902 5.33301 7.99902 6s4.66699 1 8 1h25
c6 0 11 -2.33301 15 -7l94 -94c2.66699 -2.66699 4 -4.5 4 -5.5s-1.33301 -2.83301 -4 -5.5c-2 -1.33301 -4 -3 -6 -5s-4.66699 -3 -8 -3c-2.66699 0 -5 1 -7 3c-15.333 12.667 -31.166 25 -47.499 37l-48.5 37c-4.66699 3.33301 -9 3.33301 -13 0l-92 -74
c-2 -2 -4.33301 -3 -7 -3s-5.16699 1 -7.5 3s-4.5 3.66699 -6.5 5c-2 2 -3 3.66699 -3 5c0 2 1 4 3 6z" />
    <glyph glyph-name="Edieresis" unicode="&#xcb;" horiz-adv-x="429" 
d="M399 8c0 -5.33301 -2.66699 -8.00098 -8 -8.00098h-322c-5.33301 0 -8 2.66699 -8 8v601c0 5.33301 2.66699 8 8 8h310c4.66699 0 7 -2.66699 7 -8v-23c0 -4.66699 -2.33301 -7 -7 -7h-267c-2.66699 0 -4.66699 -0.166992 -6 -0.5s-2 -2.16602 -2 -5.49902v-229
c0 -4 2.33301 -6 7 -6h233c4.66699 0 7 -2.66699 7 -8v-23c0 -4.66699 -2.33301 -7 -7 -7h-233c-4.66699 0 -7 -2.33301 -7 -7v-249c0 -4 2.33301 -6 7 -6h280c5.33301 0 8 -2.33301 8 -7v-23zM328 703.999c0 -8.66699 -2.83301 -15.834 -8.5 -21.501s-12.5 -8.5 -20.5 -8.5
s-14.833 2.83301 -20.5 8.5s-8.5 12.834 -8.5 21.501s2.83301 15.834 8.5 21.501s12.5 8.5 20.5 8.5s14.833 -2.83301 20.5 -8.5s8.5 -12.834 8.5 -21.501zM174 703.999c0 -8.66699 -2.83301 -15.834 -8.5 -21.501s-12.5 -8.5 -20.5 -8.5s-14.833 2.83301 -20.5 8.5
s-8.5 12.834 -8.5 21.501s2.83301 15.834 8.5 21.501s12.5 8.5 20.5 8.5s14.833 -2.83301 20.5 -8.5s8.5 -12.834 8.5 -21.501z" />
    <glyph glyph-name="Igrave" unicode="&#xcc;" horiz-adv-x="201" 
d="M122 7c0 -4.66699 -2.66699 -7 -8 -7h-28c-5.33301 -0 -8 2.33301 -8 7v603c0 4.66699 2.66699 7 8 7h28c5.33301 0 8 -2.33301 8 -7v-603zM-29 720c-3.33301 2 -5.66895 4.16699 -7.00195 6.5s0.333984 5.83301 5.00098 10.5l17 20
c5.33301 5.33301 11.666 5.66602 18.999 0.999023l105 -94c1.33301 -1.33301 2.83301 -3 4.5 -5s0.833984 -4.66699 -2.49902 -8l-9 -9c-2.66699 -3.33301 -5.16699 -4.66602 -7.5 -3.99902s-4.16602 1.66699 -5.49902 3z" />
    <glyph glyph-name="Iacute" unicode="&#xcd;" horiz-adv-x="201" 
d="M122 7c0 -4.66699 -2.66699 -7 -8 -7h-28c-5.33301 -0 -8 2.33301 -8 7v603c0 4.66699 2.66699 7 8 7h28c5.33301 0 8 -2.33301 8 -7v-603zM106 646c-4.66699 -2.66699 -9 -2.00098 -13 1.99902l-6 8c-3.33301 5.33301 -3 9.33301 1 12l109 93
c5.33301 4.66699 10.333 4.33398 15 -0.999023l19 -23c6 -6 5.33301 -11 -2 -15z" />
    <glyph glyph-name="Icircumflex" unicode="&#xce;" horiz-adv-x="201" 
d="M122 7c0 -4.66699 -2.66699 -7 -8 -7h-28c-5.33301 -0 -8 2.33301 -8 7v603c0 4.66699 2.66699 7 8 7h28c5.33301 0 8 -2.33301 8 -7v-603zM71 759c3.33301 3.33301 5.99902 5.33301 7.99902 6s4.66699 1 8 1h25c6 0 11 -2.33301 15 -7l94 -94
c2.66699 -2.66699 4 -4.5 4 -5.5s-1.33301 -2.83301 -4 -5.5c-2 -1.33301 -4 -3 -6 -5s-4.66699 -3 -8 -3c-2.66699 0 -5 1 -7 3c-15.333 12.667 -31.166 25 -47.499 37l-48.5 37c-4.66699 3.33301 -9 3.33301 -13 0l-92 -74c-2 -2 -4.33301 -3 -7 -3s-5.16699 1 -7.5 3
s-4.5 3.66699 -6.5 5c-2 2 -3 3.66699 -3 5c0 2 1 4 3 6z" />
    <glyph glyph-name="Idieresis" unicode="&#xcf;" horiz-adv-x="201" 
d="M122 7c0 -4.66699 -2.66699 -7 -8 -7h-28c-5.33301 -0 -8 2.33301 -8 7v603c0 4.66699 2.66699 7 8 7h28c5.33301 0 8 -2.33301 8 -7v-603zM204 704c0 -8.66699 -2.83301 -15.834 -8.5 -21.501s-12.5 -8.5 -20.5 -8.5s-14.833 2.83301 -20.5 8.5s-8.5 12.834 -8.5 21.501
s2.83301 15.834 8.5 21.501s12.5 8.5 20.5 8.5s14.833 -2.83301 20.5 -8.5s8.5 -12.834 8.5 -21.501zM50 704c0 -8.66699 -2.83301 -15.834 -8.5 -21.501s-12.5 -8.5 -20.5 -8.5s-14.833 2.83301 -20.5 8.5s-8.5 12.834 -8.5 21.501s2.83301 15.834 8.5 21.501
s12.5 8.5 20.5 8.5s14.833 -2.83301 20.5 -8.5s8.5 -12.834 8.5 -21.501z" />
    <glyph glyph-name="Eth" unicode="&#xd0;" horiz-adv-x="473" 
d="M422 167c0 -54 -14.667 -95.333 -44 -124s-70.333 -43 -123 -43h-186c-4.66699 0 -7 2.66699 -7 8v287c-1.33301 4.66699 -4.33301 7 -9 7h-42c-4.66699 0 -7 2.33301 -7 7v17c0 5.33301 2.33301 8 7 8h43c3.33301 0 5.5 0.5 6.5 1.5s1.5 3.5 1.5 7.5v266
c0 5.33301 2.33301 8 7 8h187c110.667 0 166 -53.667 166 -161v-289zM378 454c0 18 -2.00098 34.666 -6.00098 49.999s-10.833 28.5 -20.5 39.5s-22.5 19.667 -38.5 26s-36 9.5 -60 9.5h-141c-2 0 -3.66699 -0.166992 -5 -0.5s-2 -2.16602 -2 -5.49902v-236
c0.666992 -2 3 -3 7 -3h137c4.66699 0 7 -2.66699 7 -8v-17c0 -4.66699 -2.33301 -7 -7 -7h-137c-3.33301 0 -5.66602 -0.666992 -6.99902 -2v-256c0 -4 2.33301 -6 7 -6h143c38 0 68 10.333 90 31s33 52 33 94v291z" />
    <glyph glyph-name="Ntilde" unicode="&#xd1;" horiz-adv-x="497" 
d="M92 617c4.66699 0 7.83203 -0.831055 9.49902 -2.49805s3.5 -3.83398 5.5 -6.50098l287 -522c2.66699 -4 4 -4 4 0v523c0 5.33301 2.33301 8 7 8h28c4.66699 0 7 -2.33301 7 -7v-598c0 -4.66699 -1.16699 -7.83398 -3.5 -9.50098s-5.16602 -2.5 -8.49902 -2.5h-22
c-4.66699 0 -8 0.666992 -10 2s-3.66699 3.33301 -5 6l-28 51l-52 94l-63.5 115.5l-63.5 115.5l-52 93.5l-28 50.5c-2.66699 4 -4 4 -4 0v-520c0 -5.33301 -2.66699 -8 -8 -8h-27c-4.66699 0 -7 2.66699 -7 8v596c0 8.66699 3.66699 13 11 13h23zM374.998 711.002
c-9.33301 -17.333 -20.998 -29.335 -34.998 -36.002s-27 -10 -39 -10c-10.667 0 -20.834 1.66699 -30.501 5s-19 6.83301 -28 10.5l-27 10.5c-9 3.33301 -17.833 5 -26.5 5c-7.33301 0 -14.666 -2.5 -21.999 -7.5s-13 -11.167 -17 -18.5
c-3.33301 -5.33301 -7.33301 -6.66602 -12 -3.99902l-14 7c-2.66699 1.33301 -3.83398 3 -3.50098 5s1.16602 4 2.49902 6c16.667 30 40 45 70 45c9.33301 0 18.666 -1.66699 27.999 -5s18.333 -6.83301 27 -10.5l26 -10.5c8.66699 -3.33301 17 -5 25 -5
c18.667 0 34.334 9.66699 47.001 29c1.33301 2 2.5 3.33301 3.5 4s2.83301 0.333984 5.5 -0.999023l17 -8c4 -1.33301 5 -5 3 -11z" />
    <glyph glyph-name="Ograve" unicode="&#xd2;" horiz-adv-x="476" 
d="M418 160c0 -24.667 -4 -47.168 -12 -67.501s-19.833 -37.833 -35.5 -52.5s-34.667 -26.167 -57 -34.5s-47.5 -12.5 -75.5 -12.5c-29.333 0 -55.333 4.33301 -78 13s-41.5 20.834 -56.5 36.501s-26.333 34 -34 55s-11.5 43.5 -11.5 67.5v293c0 24 4.33301 46 13 66
s20.667 37.5 36 52.5s34 26.667 56 35s46.667 12.5 74 12.5s52.166 -4 74.499 -12s41.333 -19.333 57 -34s27.834 -32.167 36.501 -52.5s13 -42.833 13 -67.5v-298zM375 455.999c0 17.333 -2.83398 33.832 -8.50098 49.499s-14.167 29.334 -25.5 41.001s-25.5 21 -42.5 28
s-37.167 10.5 -60.5 10.5c-22 0 -41.667 -3.5 -59 -10.5s-31.666 -16.333 -42.999 -28s-20 -25.334 -26 -41.001s-9 -32.167 -9 -49.5v-289c0 -18 2.66699 -35.167 8 -51.5s13.5 -30.666 24.5 -42.999s25.167 -22.333 42.5 -30s38 -11.5 62 -11.5c44 0 77.833 12 101.5 36
s35.5 55.667 35.5 95v294zM128.999 726.998c-3.33301 2 -5.66895 4.16699 -7.00195 6.5s0.333984 5.83301 5.00098 10.5l17 20c5.33301 5.33301 11.666 5.66602 18.999 0.999023l105 -94c1.33301 -1.33301 2.83301 -3 4.5 -5s0.833984 -4.66699 -2.49902 -8l-9 -9
c-2.66699 -3.33301 -5.16699 -4.66602 -7.5 -3.99902s-4.16602 1.66699 -5.49902 3z" />
    <glyph glyph-name="Oacute" unicode="&#xd3;" horiz-adv-x="476" 
d="M418 160c0 -24.667 -4 -47.168 -12 -67.501s-19.833 -37.833 -35.5 -52.5s-34.667 -26.167 -57 -34.5s-47.5 -12.5 -75.5 -12.5c-29.333 0 -55.333 4.33301 -78 13s-41.5 20.834 -56.5 36.501s-26.333 34 -34 55s-11.5 43.5 -11.5 67.5v293c0 24 4.33301 46 13 66
s20.667 37.5 36 52.5s34 26.667 56 35s46.667 12.5 74 12.5s52.166 -4 74.499 -12s41.333 -19.333 57 -34s27.834 -32.167 36.501 -52.5s13 -42.833 13 -67.5v-298zM375 455.999c0 17.333 -2.83398 33.832 -8.50098 49.499s-14.167 29.334 -25.5 41.001s-25.5 21 -42.5 28
s-37.167 10.5 -60.5 10.5c-22 0 -41.667 -3.5 -59 -10.5s-31.666 -16.333 -42.999 -28s-20 -25.334 -26 -41.001s-9 -32.167 -9 -49.5v-289c0 -18 2.66699 -35.167 8 -51.5s13.5 -30.666 24.5 -42.999s25.167 -22.333 42.5 -30s38 -11.5 62 -11.5c44 0 77.833 12 101.5 36
s35.5 55.667 35.5 95v294zM224.999 645.998c-4.66699 -2.66699 -9 -2.00098 -13 1.99902l-6 8c-3.33301 5.33301 -3 9.33301 1 12l109 93c5.33301 4.66699 10.333 4.33398 15 -0.999023l19 -23c6 -6 5.33301 -11 -2 -15z" />
    <glyph glyph-name="Ocircumflex" unicode="&#xd4;" horiz-adv-x="476" 
d="M418 160c0 -24.667 -4 -47.168 -12 -67.501s-19.833 -37.833 -35.5 -52.5s-34.667 -26.167 -57 -34.5s-47.5 -12.5 -75.5 -12.5c-29.333 0 -55.333 4.33301 -78 13s-41.5 20.834 -56.5 36.501s-26.333 34 -34 55s-11.5 43.5 -11.5 67.5v293c0 24 4.33301 46 13 66
s20.667 37.5 36 52.5s34 26.667 56 35s46.667 12.5 74 12.5s52.166 -4 74.499 -12s41.333 -19.333 57 -34s27.834 -32.167 36.501 -52.5s13 -42.833 13 -67.5v-298zM375 455.999c0 17.333 -2.83398 33.832 -8.50098 49.499s-14.167 29.334 -25.5 41.001s-25.5 21 -42.5 28
s-37.167 10.5 -60.5 10.5c-22 0 -41.667 -3.5 -59 -10.5s-31.666 -16.333 -42.999 -28s-20 -25.334 -26 -41.001s-9 -32.167 -9 -49.5v-289c0 -18 2.66699 -35.167 8 -51.5s13.5 -30.666 24.5 -42.999s25.167 -22.333 42.5 -30s38 -11.5 62 -11.5c44 0 77.833 12 101.5 36
s35.5 55.667 35.5 95v294zM210.999 756.998c3.33301 3.33301 5.99902 5.33301 7.99902 6s4.66699 1 8 1h25c6 0 11 -2.33301 15 -7l94 -94c2.66699 -2.66699 4 -4.5 4 -5.5s-1.33301 -2.83301 -4 -5.5c-2 -1.33301 -4 -3 -6 -5s-4.66699 -3 -8 -3c-2.66699 0 -5 1 -7 3
c-15.333 12.667 -31.166 25 -47.499 37l-48.5 37c-4.66699 3.33301 -9 3.33301 -13 0l-92 -74c-2 -2 -4.33301 -3 -7 -3s-5.16699 1 -7.5 3s-4.5 3.66699 -6.5 5c-2 2 -3 3.66699 -3 5c0 2 1 4 3 6z" />
    <glyph glyph-name="Otilde" unicode="&#xd5;" horiz-adv-x="476" 
d="M418 160c0 -24.667 -4 -47.168 -12 -67.501s-19.833 -37.833 -35.5 -52.5s-34.667 -26.167 -57 -34.5s-47.5 -12.5 -75.5 -12.5c-29.333 0 -55.333 4.33301 -78 13s-41.5 20.834 -56.5 36.501s-26.333 34 -34 55s-11.5 43.5 -11.5 67.5v293c0 24 4.33301 46 13 66
s20.667 37.5 36 52.5s34 26.667 56 35s46.667 12.5 74 12.5s52.166 -4 74.499 -12s41.333 -19.333 57 -34s27.834 -32.167 36.501 -52.5s13 -42.833 13 -67.5v-298zM375 455.999c0 17.333 -2.83398 33.832 -8.50098 49.499s-14.167 29.334 -25.5 41.001s-25.5 21 -42.5 28
s-37.167 10.5 -60.5 10.5c-22 0 -41.667 -3.5 -59 -10.5s-31.666 -16.333 -42.999 -28s-20 -25.334 -26 -41.001s-9 -32.167 -9 -49.5v-289c0 -18 2.66699 -35.167 8 -51.5s13.5 -30.666 24.5 -42.999s25.167 -22.333 42.5 -30s38 -11.5 62 -11.5c44 0 77.833 12 101.5 36
s35.5 55.667 35.5 95v294zM368.999 720.998c-9.33301 -17.333 -20.998 -29.335 -34.998 -36.002s-27 -10 -39 -10c-10.667 0 -20.834 1.66699 -30.501 5s-19 6.83301 -28 10.5l-27 10.5c-9 3.33301 -17.833 5 -26.5 5c-7.33301 0 -14.666 -2.5 -21.999 -7.5
s-13 -11.167 -17 -18.5c-3.33301 -5.33301 -7.33301 -6.66602 -12 -3.99902l-14 7c-2.66699 1.33301 -3.83398 3 -3.50098 5s1.16602 4 2.49902 6c16.667 30 40 45 70 45c9.33301 0 18.666 -1.66699 27.999 -5s18.333 -6.83301 27 -10.5l26 -10.5
c8.66699 -3.33301 17 -5 25 -5c18.667 0 34.334 9.66699 47.001 29c1.33301 2 2.5 3.33301 3.5 4s2.83301 0.333984 5.5 -0.999023l17 -8c4 -1.33301 5 -5 3 -11z" />
    <glyph glyph-name="Odieresis" unicode="&#xd6;" horiz-adv-x="476" 
d="M418 160c0 -24.667 -4 -47.168 -12 -67.501s-19.833 -37.833 -35.5 -52.5s-34.667 -26.167 -57 -34.5s-47.5 -12.5 -75.5 -12.5c-29.333 0 -55.333 4.33301 -78 13s-41.5 20.834 -56.5 36.501s-26.333 34 -34 55s-11.5 43.5 -11.5 67.5v293c0 24 4.33301 46 13 66
s20.667 37.5 36 52.5s34 26.667 56 35s46.667 12.5 74 12.5s52.166 -4 74.499 -12s41.333 -19.333 57 -34s27.834 -32.167 36.501 -52.5s13 -42.833 13 -67.5v-298zM375 455.999c0 17.333 -2.83398 33.832 -8.50098 49.499s-14.167 29.334 -25.5 41.001s-25.5 21 -42.5 28
s-37.167 10.5 -60.5 10.5c-22 0 -41.667 -3.5 -59 -10.5s-31.666 -16.333 -42.999 -28s-20 -25.334 -26 -41.001s-9 -32.167 -9 -49.5v-289c0 -18 2.66699 -35.167 8 -51.5s13.5 -30.666 24.5 -42.999s25.167 -22.333 42.5 -30s38 -11.5 62 -11.5c44 0 77.833 12 101.5 36
s35.5 55.667 35.5 95v294zM346.999 703.998c0 -8.66699 -2.83301 -15.834 -8.5 -21.501s-12.5 -8.5 -20.5 -8.5s-14.833 2.83301 -20.5 8.5s-8.5 12.834 -8.5 21.501s2.83301 15.834 8.5 21.501s12.5 8.5 20.5 8.5s14.833 -2.83301 20.5 -8.5s8.5 -12.834 8.5 -21.501z
M192.999 703.998c0 -8.66699 -2.83301 -15.834 -8.5 -21.501s-12.5 -8.5 -20.5 -8.5s-14.833 2.83301 -20.5 8.5s-8.5 12.834 -8.5 21.501s2.83301 15.834 8.5 21.501s12.5 8.5 20.5 8.5s14.833 -2.83301 20.5 -8.5s8.5 -12.834 8.5 -21.501z" />
    <glyph glyph-name="multiply" unicode="&#xd7;" horiz-adv-x="445" 
d="M359 88c-4.66699 -4.66699 -8.66699 -4.66699 -12 0l-120 120c-3.33301 2.66699 -6 2.66699 -8 0l-120 -120c-4 -3.33301 -8 -3.33301 -12 0l-14 15c-4 3.33301 -4 7 0 11l120 120c2 3.33301 2 6.33301 0 9l-117 116c-4 4 -4 7.66699 0 11l14 15
c3.33301 3.33301 7.33301 3.33301 12 0l116 -117c2.66699 -2.66699 5.66699 -2.66699 9 0l116 117c4.66699 3.33301 8.66699 3.33301 12 0l13 -14c4 -4 4.33301 -8.33301 1 -13l-117 -117c-2 -2 -1.66699 -4.66699 1 -8l119 -119c4 -4.66699 4 -9 0 -13l-13 -13v0z" />
    <glyph glyph-name="Oslash" unicode="&#xd8;" horiz-adv-x="476" 
d="M120 28c-4 4 -6.99609 3.66602 -8.99609 -1.00098l-17 -30c-1.33301 -2.66699 -2.5 -4 -3.5 -4s-2.16699 0.333008 -3.5 1l-18 10c-3.33301 2 -4 4.66699 -2 8l21 37c2.66699 4.66699 2.66699 8.33398 0 11.001c-9.33301 11.333 -16.666 25.666 -21.999 42.999
s-8 34.333 -8 51v318c0.666992 22 6 42.333 16 61s23 34.834 39 48.501s34.667 24.167 56 31.5s44 11 68 11c27.333 0 51.166 -4 71.499 -12s38.166 -18 53.499 -30c2.66699 -2 5 -1.33301 7 2l21 37c1.33301 2.66699 2.83301 4 4.5 4s3.5 -0.666992 5.5 -2l16 -8
c4 -2 5 -5 3 -9l-27 -48c-2 -2.66699 -1.66699 -5.66699 1 -9c7.33301 -11.333 13.333 -24.5 18 -39.5s7 -30.5 7 -46.5v-307c0 -24.667 -4.33301 -47 -13 -67s-20.834 -37 -36.501 -51s-34.667 -24.833 -57 -32.5s-46.833 -11.5 -73.5 -11.5
c-24.667 0 -46.834 2.66699 -66.501 8s-36.834 14 -51.501 26zM111.004 106.999c2 -4 3.66895 -4.33301 5.00195 -1l227 429c2 4 1.33301 7.66699 -2 11c-11.333 12 -26.333 21.167 -45 27.5s-38.334 9.5 -59.001 9.5c-18.667 0 -36.334 -2.83301 -53.001 -8.5
s-31.167 -13.834 -43.5 -24.501s-22 -23.667 -29 -39s-10.5 -32.333 -10.5 -51v-277c0 -11.333 0.666992 -24.666 2 -39.999s4 -27.333 8 -36zM137.006 76.999c-2 -4 -1.33301 -7.66602 2 -10.999c11.333 -12 25.5 -20.667 42.5 -26s35.5 -8 55.5 -8
c40.667 0 73.834 11.167 99.501 33.5s38.5 53.166 38.5 92.499v287c0 9.33301 -0.833008 18.833 -2.5 28.5s-3.83398 18.5 -6.50098 26.5l-2 4l-2 -2z" />
    <glyph glyph-name="Ugrave" unicode="&#xd9;" horiz-adv-x="479" 
d="M420 159c0 -25.333 -4.50098 -48.1699 -13.501 -68.5029s-21.5 -37.666 -37.5 -51.999s-35 -25.5 -57 -33.5s-46 -12 -72 -12c-28 0 -53.333 4.16699 -76 12.5s-41.667 19.833 -57 34.5s-27.166 32.167 -35.499 52.5s-12.5 42.5 -12.5 66.5v451c0 4.66699 2.66699 7 8 7
h28c4.66699 0 7 -2.33301 7 -7v-449c0 -18 3 -34.833 9 -50.5s14.833 -29.5 26.5 -41.5s26.167 -21.333 43.5 -28s37.333 -10 60 -10c22 0 41.5 3.33301 58.5 10s31.167 15.834 42.5 27.501s20 25.334 26 41.001s9 32.5 9 50.5v450c0 4.66699 2.66699 7 8 7h28
c4.66699 0 7 -2.33301 7 -7v-451zM132.999 719.996c-3.33301 2 -5.66895 4.16699 -7.00195 6.5s0.333984 5.83301 5.00098 10.5l17 20c5.33301 5.33301 11.666 5.66602 18.999 0.999023l105 -94c1.33301 -1.33301 2.83301 -3 4.5 -5s0.833984 -4.66699 -2.49902 -8l-9 -9
c-2.66699 -3.33301 -5.16699 -4.66602 -7.5 -3.99902s-4.16602 1.66699 -5.49902 3z" />
    <glyph glyph-name="Uacute" unicode="&#xda;" horiz-adv-x="479" 
d="M420 159c0 -25.333 -4.50098 -48.1699 -13.501 -68.5029s-21.5 -37.666 -37.5 -51.999s-35 -25.5 -57 -33.5s-46 -12 -72 -12c-28 0 -53.333 4.16699 -76 12.5s-41.667 19.833 -57 34.5s-27.166 32.167 -35.499 52.5s-12.5 42.5 -12.5 66.5v451c0 4.66699 2.66699 7 8 7
h28c4.66699 0 7 -2.33301 7 -7v-449c0 -18 3 -34.833 9 -50.5s14.833 -29.5 26.5 -41.5s26.167 -21.333 43.5 -28s37.333 -10 60 -10c22 0 41.5 3.33301 58.5 10s31.167 15.834 42.5 27.501s20 25.334 26 41.001s9 32.5 9 50.5v450c0 4.66699 2.66699 7 8 7h28
c4.66699 0 7 -2.33301 7 -7v-451zM228.999 645.996c-4.66699 -2.66699 -9 -2.00098 -13 1.99902l-6 8c-3.33301 5.33301 -3 9.33301 1 12l109 93c5.33301 4.66699 10.333 4.33398 15 -0.999023l19 -23c6 -6 5.33301 -11 -2 -15z" />
    <glyph glyph-name="Ucircumflex" unicode="&#xdb;" horiz-adv-x="479" 
d="M420 159c0 -25.333 -4.50098 -48.1699 -13.501 -68.5029s-21.5 -37.666 -37.5 -51.999s-35 -25.5 -57 -33.5s-46 -12 -72 -12c-28 0 -53.333 4.16699 -76 12.5s-41.667 19.833 -57 34.5s-27.166 32.167 -35.499 52.5s-12.5 42.5 -12.5 66.5v451c0 4.66699 2.66699 7 8 7
h28c4.66699 0 7 -2.33301 7 -7v-449c0 -18 3 -34.833 9 -50.5s14.833 -29.5 26.5 -41.5s26.167 -21.333 43.5 -28s37.333 -10 60 -10c22 0 41.5 3.33301 58.5 10s31.167 15.834 42.5 27.501s20 25.334 26 41.001s9 32.5 9 50.5v450c0 4.66699 2.66699 7 8 7h28
c4.66699 0 7 -2.33301 7 -7v-451zM215.999 756.996c3.33301 3.33301 5.99902 5.33301 7.99902 6s4.66699 1 8 1h25c6 0 11 -2.33301 15 -7l94 -94c2.66699 -2.66699 4 -4.5 4 -5.5s-1.33301 -2.83301 -4 -5.5c-2 -1.33301 -4 -3 -6 -5s-4.66699 -3 -8 -3
c-2.66699 0 -5 1 -7 3c-15.333 12.667 -31.166 25 -47.499 37l-48.5 37c-4.66699 3.33301 -9 3.33301 -13 0l-92 -74c-2 -2 -4.33301 -3 -7 -3s-5.16699 1 -7.5 3s-4.5 3.66699 -6.5 5c-2 2 -3 3.66699 -3 5c0 2 1 4 3 6z" />
    <glyph glyph-name="Udieresis" unicode="&#xdc;" horiz-adv-x="479" 
d="M420 159c0 -25.333 -4.50098 -48.1699 -13.501 -68.5029s-21.5 -37.666 -37.5 -51.999s-35 -25.5 -57 -33.5s-46 -12 -72 -12c-28 0 -53.333 4.16699 -76 12.5s-41.667 19.833 -57 34.5s-27.166 32.167 -35.499 52.5s-12.5 42.5 -12.5 66.5v451c0 4.66699 2.66699 7 8 7
h28c4.66699 0 7 -2.33301 7 -7v-449c0 -18 3 -34.833 9 -50.5s14.833 -29.5 26.5 -41.5s26.167 -21.333 43.5 -28s37.333 -10 60 -10c22 0 41.5 3.33301 58.5 10s31.167 15.834 42.5 27.501s20 25.334 26 41.001s9 32.5 9 50.5v450c0 4.66699 2.66699 7 8 7h28
c4.66699 0 7 -2.33301 7 -7v-451zM185.999 703.996c0 -8.66699 -2.83301 -15.834 -8.5 -21.501s-12.5 -8.5 -20.5 -8.5s-14.833 2.83301 -20.5 8.5s-8.5 12.834 -8.5 21.501s2.83301 15.834 8.5 21.501s12.5 8.5 20.5 8.5s14.833 -2.83301 20.5 -8.5
s8.5 -12.834 8.5 -21.501zM339.999 703.996c0 -8.66699 -2.83301 -15.834 -8.5 -21.501s-12.5 -8.5 -20.5 -8.5s-14.833 2.83301 -20.5 8.5s-8.5 12.834 -8.5 21.501s2.83301 15.834 8.5 21.501s12.5 8.5 20.5 8.5s14.833 -2.83301 20.5 -8.5s8.5 -12.834 8.5 -21.501z" />
    <glyph glyph-name="Yacute" unicode="&#xdd;" horiz-adv-x="403" 
d="M228 252c-2.66699 -5.33301 -4.16699 -9.83203 -4.5 -13.499s-0.5 -7.16699 -0.5 -10.5v-221c0 -4.66699 -2.33301 -7 -7 -7h-28c-5.33301 0 -8 2.33301 -8 7v216c0 5.33301 -0.166992 9.66602 -0.5 12.999s-1.5 7.33301 -3.5 12l-162 359
c-3.33301 6.66699 -1.33301 10 6 10h28c3.33301 0 5.83301 -0.666992 7.5 -2s3.16699 -3.33301 4.5 -6l139 -316l3 -3c0.666992 -0.666992 1.66699 0.333008 3 3c2 5.33301 6.5 16 13.5 32l25 56.5l30.5 69.5l30.5 69.5l25 56.5c7 16 11.5 26.667 13.5 32
c2 3.33301 3.66699 5.5 5 6.5s4 1.5 8 1.5h28c7.33301 0 9 -3.66699 5 -11zM184 646.001c-4.66699 -2.66699 -9 -2.00098 -13 1.99902l-6 8c-3.33301 5.33301 -3 9.33301 1 12l109 93c5.33301 4.66699 10.333 4.33398 15 -0.999023l19 -23c6 -6 5.33301 -11 -2 -15z" />
    <glyph glyph-name="Thorn" unicode="&#xde;" horiz-adv-x="427" 
d="M107 479c0.666992 -4 3.33301 -6.00098 8 -6.00098h137c25.333 0 48 -4.16699 68 -12.5s37 -19.666 51 -33.999s24.833 -31.5 32.5 -51.5s11.5 -42 11.5 -66s-3.83301 -46 -11.5 -66s-18.667 -37.333 -33 -52s-31.5 -26 -51.5 -34s-42 -12 -66 -12h-138
c-4.66699 0 -7 -2.66699 -7 -8v-130c0 -4.66699 -2.66699 -7 -8 -7h-27c-5.33301 -0 -8 2.33301 -8 7v603c0 4.66699 2.66699 7 8 7h27c4.66699 0 7 -2.33301 7 -7v-131zM115.999 434.999c-4.66699 0 -7.66699 -2 -9 -6v-239c0 -4.66699 2.66699 -7 8 -7h137
c38 0 67.667 11.667 89 35s32 53.666 32 90.999c0 16.667 -2.83301 32.667 -8.5 48s-13.667 28.833 -24 40.5s-23 20.834 -38 27.501s-31.833 10 -50.5 10h-136z" />
    <glyph glyph-name="germandbls" unicode="&#xdf;" horiz-adv-x="446" 
d="M388 145c0 -19.333 -2.83594 -38.3301 -8.50293 -56.9971s-14.334 -35.334 -26.001 -50.001s-26.334 -26.334 -44.001 -35.001s-38.5 -13 -62.5 -13h-73c-3.33301 0 -5.83301 0.5 -7.5 1.5s-2.5 3.83301 -2.5 8.5v14c0 6 3.33301 9 10 9h55
c20.667 0 38.5 3.33301 53.5 10s27.167 15.5 36.5 26.5s16.333 23.833 21 38.5s7 30.334 7 47.001v87c0 36.667 -11.667 64.667 -35 84s-51 29 -83 29h-54c-7.33301 0 -11 3.66699 -11 11v14c0 6 3.66699 9 11 9h53c30.667 0 56.5 6.83301 77.5 20.5s31.5 37.5 31.5 71.5
c0 16 -2 31.5 -6 46.5s-10.333 28.167 -19 39.5s-20 20.5 -34 27.5s-30.667 10.5 -50 10.5c-17.333 0 -33.166 -3.16699 -47.499 -9.5s-26.666 -15 -36.999 -26s-18.5 -23.833 -24.5 -38.5s-9 -30.334 -9 -47.001v-461v-10c0 -2 -2.66699 -3 -8 -3h-23
c-6.66699 0 -10.167 1 -10.5 3s-0.5 5.33301 -0.5 10v461c0 21.333 3.66699 41.333 11 60s18 34.834 32 48.501s30.833 24.5 50.5 32.5s41.834 12 66.501 12c52.667 0 91 -14.333 115 -43s36 -66.667 36 -114c0 -20.667 -4.66699 -40.834 -14 -60.501
s-23.666 -34.167 -42.999 -43.5c-4 -2.66699 -4 -4.66699 0 -6c26.667 -13.333 44.334 -31.833 53.001 -55.5s13 -47.834 13 -72.501v-87v0z" />
    <glyph glyph-name="agrave" unicode="&#xe0;" horiz-adv-x="382" 
d="M28 138c0 20.667 3.33008 40 9.99707 58s16.334 33.667 29.001 47s28.5 24 47.5 32s40.833 12 65.5 12c20.667 0 40.5 -3.66699 59.5 -11s34.167 -17.666 45.5 -30.999c2.66699 -2.66699 4.83398 -3.5 6.50098 -2.5s2.5 3.16699 2.5 6.5v46c0 14 -1.5 27.5 -4.5 40.5
s-8.5 24.5 -16.5 34.5s-19.167 18.167 -33.5 24.5s-32.5 9.5 -54.5 9.5c-8 0 -16.667 -0.5 -26 -1.5s-18.833 -2.5 -28.5 -4.5s-19 -4.33301 -28 -7s-16.833 -5.33398 -23.5 -8.00098c-4.66699 -3.33301 -8 -2.33301 -10 3l-9 21c-0.666992 4 1 7 5 9
c16.667 8 36.334 14.167 59.001 18.5s44 6.5 64 6.5c53.333 0 91.333 -12.833 114 -38.5s34 -62.5 34 -110.5v-285c0 -4.66699 -2.33301 -7 -7 -7h-26c-4 0 -6 2 -6 6v39c0 4.66699 -1 7 -3 7s-4 -1.33301 -6 -4c-26 -35.333 -64.667 -53 -116 -53
c-46 0 -81.5 13.167 -106.5 39.5s-37.5 60.833 -37.5 103.5zM66.9971 140c0 -31.333 8.66895 -57.667 26.002 -79s45.666 -32 84.999 -32c34 0 61.5 11 82.5 33s31.5 48.667 31.5 80c0 30.667 -9.83301 57 -29.5 79s-46.834 33 -81.501 33c-18 0 -34.167 -3 -48.5 -9
s-26.333 -14.167 -36 -24.5s-17 -22.5 -22 -36.5s-7.5 -28.667 -7.5 -44zM123.999 607.999c-2.66699 3.33301 -3.99902 6.16797 -3.99902 8.50098s3 5.16602 9 8.49902l22 12c8 4 14 2.66699 18 -4l68 -124c1.33301 -2 2.16602 -4 2.49902 -6s-1.5 -4.33301 -5.5 -7l-11 -6
c-3.33301 -2 -6 -2.33301 -8 -1s-3.66699 3 -5 5z" />
    <glyph glyph-name="aacute" unicode="&#xe1;" horiz-adv-x="382" 
d="M28 138c0 20.667 3.33008 40 9.99707 58s16.334 33.667 29.001 47s28.5 24 47.5 32s40.833 12 65.5 12c20.667 0 40.5 -3.66699 59.5 -11s34.167 -17.666 45.5 -30.999c2.66699 -2.66699 4.83398 -3.5 6.50098 -2.5s2.5 3.16699 2.5 6.5v46c0 14 -1.5 27.5 -4.5 40.5
s-8.5 24.5 -16.5 34.5s-19.167 18.167 -33.5 24.5s-32.5 9.5 -54.5 9.5c-8 0 -16.667 -0.5 -26 -1.5s-18.833 -2.5 -28.5 -4.5s-19 -4.33301 -28 -7s-16.833 -5.33398 -23.5 -8.00098c-4.66699 -3.33301 -8 -2.33301 -10 3l-9 21c-0.666992 4 1 7 5 9
c16.667 8 36.334 14.167 59.001 18.5s44 6.5 64 6.5c53.333 0 91.333 -12.833 114 -38.5s34 -62.5 34 -110.5v-285c0 -4.66699 -2.33301 -7 -7 -7h-26c-4 0 -6 2 -6 6v39c0 4.66699 -1 7 -3 7s-4 -1.33301 -6 -4c-26 -35.333 -64.667 -53 -116 -53
c-46 0 -81.5 13.167 -106.5 39.5s-37.5 60.833 -37.5 103.5zM66.9971 140c0 -31.333 8.66895 -57.667 26.002 -79s45.666 -32 84.999 -32c34 0 61.5 11 82.5 33s31.5 48.667 31.5 80c0 30.667 -9.83301 57 -29.5 79s-46.834 33 -81.501 33c-18 0 -34.167 -3 -48.5 -9
s-26.333 -14.167 -36 -24.5s-17 -22.5 -22 -36.5s-7.5 -28.667 -7.5 -44zM200.999 493.999c-4 -4.66699 -8.33301 -5.66504 -13 -2.99805l-9 6c-1.33301 1.33301 -2.5 2.83301 -3.5 4.5s-0.5 4.5 1.5 8.5l68 124c2 3.33301 4.33301 5.66602 7 6.99902
s6.33398 0.666016 11.001 -2.00098l21 -13c4.66699 -2.66699 7 -5.66699 7 -9c0 -1.33301 -0.333008 -2.5 -1 -3.5s-1.33398 -2.16699 -2.00098 -3.5z" />
    <glyph glyph-name="acircumflex" unicode="&#xe2;" horiz-adv-x="382" 
d="M28 138c0 20.667 3.33008 40 9.99707 58s16.334 33.667 29.001 47s28.5 24 47.5 32s40.833 12 65.5 12c20.667 0 40.5 -3.66699 59.5 -11s34.167 -17.666 45.5 -30.999c2.66699 -2.66699 4.83398 -3.5 6.50098 -2.5s2.5 3.16699 2.5 6.5v46c0 14 -1.5 27.5 -4.5 40.5
s-8.5 24.5 -16.5 34.5s-19.167 18.167 -33.5 24.5s-32.5 9.5 -54.5 9.5c-8 0 -16.667 -0.5 -26 -1.5s-18.833 -2.5 -28.5 -4.5s-19 -4.33301 -28 -7s-16.833 -5.33398 -23.5 -8.00098c-4.66699 -3.33301 -8 -2.33301 -10 3l-9 21c-0.666992 4 1 7 5 9
c16.667 8 36.334 14.167 59.001 18.5s44 6.5 64 6.5c53.333 0 91.333 -12.833 114 -38.5s34 -62.5 34 -110.5v-285c0 -4.66699 -2.33301 -7 -7 -7h-26c-4 0 -6 2 -6 6v39c0 4.66699 -1 7 -3 7s-4 -1.33301 -6 -4c-26 -35.333 -64.667 -53 -116 -53
c-46 0 -81.5 13.167 -106.5 39.5s-37.5 60.833 -37.5 103.5zM66.9971 140c0 -31.333 8.66895 -57.667 26.002 -79s45.666 -32 84.999 -32c34 0 61.5 11 82.5 33s31.5 48.667 31.5 80c0 30.667 -9.83301 57 -29.5 79s-46.834 33 -81.501 33c-18 0 -34.167 -3 -48.5 -9
s-26.333 -14.167 -36 -24.5s-17 -22.5 -22 -36.5s-7.5 -28.667 -7.5 -44zM323.999 516.999c4 -5.33301 4 -9.66699 0 -13l-8 -7c-2.66699 -2.66699 -5 -3.5 -7 -2.5s-4 2.16699 -6 3.5l-97 96c-3.33301 3.33301 -6.66602 3.33301 -9.99902 0l-94 -96
c-4 -5.33301 -8.33301 -6 -13 -2l-8 7c-4 4 -4.33301 8 -1 12l94 117c5.33301 5.33301 10.666 8 15.999 8h25c5.33301 0 10.333 -2.66699 15 -8z" />
    <glyph glyph-name="atilde" unicode="&#xe3;" horiz-adv-x="382" 
d="M28 138c0 20.667 3.33008 40 9.99707 58s16.334 33.667 29.001 47s28.5 24 47.5 32s40.833 12 65.5 12c20.667 0 40.5 -3.66699 59.5 -11s34.167 -17.666 45.5 -30.999c2.66699 -2.66699 4.83398 -3.5 6.50098 -2.5s2.5 3.16699 2.5 6.5v46c0 14 -1.5 27.5 -4.5 40.5
s-8.5 24.5 -16.5 34.5s-19.167 18.167 -33.5 24.5s-32.5 9.5 -54.5 9.5c-8 0 -16.667 -0.5 -26 -1.5s-18.833 -2.5 -28.5 -4.5s-19 -4.33301 -28 -7s-16.833 -5.33398 -23.5 -8.00098c-4.66699 -3.33301 -8 -2.33301 -10 3l-9 21c-0.666992 4 1 7 5 9
c16.667 8 36.334 14.167 59.001 18.5s44 6.5 64 6.5c53.333 0 91.333 -12.833 114 -38.5s34 -62.5 34 -110.5v-285c0 -4.66699 -2.33301 -7 -7 -7h-26c-4 0 -6 2 -6 6v39c0 4.66699 -1 7 -3 7s-4 -1.33301 -6 -4c-26 -35.333 -64.667 -53 -116 -53
c-46 0 -81.5 13.167 -106.5 39.5s-37.5 60.833 -37.5 103.5zM66.9971 140c0 -31.333 8.66895 -57.667 26.002 -79s45.666 -32 84.999 -32c34 0 61.5 11 82.5 33s31.5 48.667 31.5 80c0 30.667 -9.83301 57 -29.5 79s-46.834 33 -81.501 33c-18 0 -34.167 -3 -48.5 -9
s-26.333 -14.167 -36 -24.5s-17 -22.5 -22 -36.5s-7.5 -28.667 -7.5 -44zM321.999 570.999c-9.33301 -17.333 -20.998 -29.335 -34.998 -36.002s-27 -10 -39 -10c-10.667 0 -20.834 1.66699 -30.501 5s-19 6.83301 -28 10.5l-27 10.5c-9 3.33301 -17.833 5 -26.5 5
c-7.33301 0 -14.666 -2.5 -21.999 -7.5s-13 -11.167 -17 -18.5c-3.33301 -5.33301 -7.33301 -6.66602 -12 -3.99902l-14 7c-2.66699 1.33301 -3.83398 3 -3.50098 5s1.16602 4 2.49902 6c16.667 30 40 45 70 45c9.33301 0 18.666 -1.66699 27.999 -5
s18.333 -6.83301 27 -10.5l26 -10.5c8.66699 -3.33301 17 -5 25 -5c18.667 0 34.334 9.66699 47.001 29c1.33301 2 2.5 3.33301 3.5 4s2.83301 0.333984 5.5 -0.999023l17 -8c4 -1.33301 5 -5 3 -11z" />
    <glyph glyph-name="adieresis" unicode="&#xe4;" horiz-adv-x="382" 
d="M28 138c0 20.667 3.33008 40 9.99707 58s16.334 33.667 29.001 47s28.5 24 47.5 32s40.833 12 65.5 12c20.667 0 40.5 -3.66699 59.5 -11s34.167 -17.666 45.5 -30.999c2.66699 -2.66699 4.83398 -3.5 6.50098 -2.5s2.5 3.16699 2.5 6.5v46c0 14 -1.5 27.5 -4.5 40.5
s-8.5 24.5 -16.5 34.5s-19.167 18.167 -33.5 24.5s-32.5 9.5 -54.5 9.5c-8 0 -16.667 -0.5 -26 -1.5s-18.833 -2.5 -28.5 -4.5s-19 -4.33301 -28 -7s-16.833 -5.33398 -23.5 -8.00098c-4.66699 -3.33301 -8 -2.33301 -10 3l-9 21c-0.666992 4 1 7 5 9
c16.667 8 36.334 14.167 59.001 18.5s44 6.5 64 6.5c53.333 0 91.333 -12.833 114 -38.5s34 -62.5 34 -110.5v-285c0 -4.66699 -2.33301 -7 -7 -7h-26c-4 0 -6 2 -6 6v39c0 4.66699 -1 7 -3 7s-4 -1.33301 -6 -4c-26 -35.333 -64.667 -53 -116 -53
c-46 0 -81.5 13.167 -106.5 39.5s-37.5 60.833 -37.5 103.5zM66.9971 140c0 -31.333 8.66895 -57.667 26.002 -79s45.666 -32 84.999 -32c34 0 61.5 11 82.5 33s31.5 48.667 31.5 80c0 30.667 -9.83301 57 -29.5 79s-46.834 33 -81.501 33c-18 0 -34.167 -3 -48.5 -9
s-26.333 -14.167 -36 -24.5s-17 -22.5 -22 -36.5s-7.5 -28.667 -7.5 -44zM301.999 560.999c0 -8 -2.83203 -15 -8.49902 -21s-12.5 -9 -20.5 -9c-8.66699 0 -15.834 3 -21.501 9s-8.5 13 -8.5 21c0 8.66699 2.83301 15.834 8.5 21.501s12.5 8.5 20.5 8.5
s15 -2.83301 21 -8.5s9 -12.834 9 -21.501zM148 560.999c0 -8.66699 -3 -15.833 -9 -21.5s-12.667 -8.5 -20 -8.5c-8 0 -14.833 3 -20.5 9s-8.5 13 -8.5 21c0 8.66699 2.83301 15.834 8.5 21.501s12.5 8.5 20.5 8.5s14.833 -2.83301 20.5 -8.5s8.5 -12.834 8.5 -21.501z" />
    <glyph glyph-name="aring" unicode="&#xe5;" horiz-adv-x="382" 
d="M28 138c0 20.667 3.33008 40 9.99707 58s16.334 33.667 29.001 47s28.5 24 47.5 32s40.833 12 65.5 12c20.667 0 40.5 -3.66699 59.5 -11s34.167 -17.666 45.5 -30.999c2.66699 -2.66699 4.83398 -3.5 6.50098 -2.5s2.5 3.16699 2.5 6.5v46c0 14 -1.5 27.5 -4.5 40.5
s-8.5 24.5 -16.5 34.5s-19.167 18.167 -33.5 24.5s-32.5 9.5 -54.5 9.5c-8 0 -16.667 -0.5 -26 -1.5s-18.833 -2.5 -28.5 -4.5s-19 -4.33301 -28 -7s-16.833 -5.33398 -23.5 -8.00098c-4.66699 -3.33301 -8 -2.33301 -10 3l-9 21c-0.666992 4 1 7 5 9
c16.667 8 36.334 14.167 59.001 18.5s44 6.5 64 6.5c53.333 0 91.333 -12.833 114 -38.5s34 -62.5 34 -110.5v-285c0 -4.66699 -2.33301 -7 -7 -7h-26c-4 0 -6 2 -6 6v39c0 4.66699 -1 7 -3 7s-4 -1.33301 -6 -4c-26 -35.333 -64.667 -53 -116 -53
c-46 0 -81.5 13.167 -106.5 39.5s-37.5 60.833 -37.5 103.5zM66.9971 140c0 -31.333 8.66895 -57.667 26.002 -79s45.666 -32 84.999 -32c34 0 61.5 11 82.5 33s31.5 48.667 31.5 80c0 30.667 -9.83301 57 -29.5 79s-46.834 33 -81.501 33c-18 0 -34.167 -3 -48.5 -9
s-26.333 -14.167 -36 -24.5s-17 -22.5 -22 -36.5s-7.5 -28.667 -7.5 -44zM277.999 562.999c0 -19.333 -6.83301 -36 -20.5 -50s-30.167 -21 -49.5 -21c-20 0 -36.5 6.83301 -49.5 20.5s-19.5 30.167 -19.5 49.5c0 20 6.5 37 19.5 51s29.5 21 49.5 21
c19.333 0 35.833 -6.83301 49.5 -20.5s20.5 -30.5 20.5 -50.5zM250.999 562.999c0 12 -4.33301 22.333 -13 31s-18.667 13 -30 13c-12 0 -22 -4.33301 -30 -13s-12 -19 -12 -31c0 -12.667 4 -23.334 12 -32.001s18 -13 30 -13c11.333 0 21.333 4.33301 30 13
s13 19.334 13 32.001z" />
    <glyph glyph-name="ae" unicode="&#xe6;" horiz-adv-x="656" 
d="M458 -5c-31.333 0 -58.6621 6.00098 -81.9951 18.001s-41.333 29 -54 51c-5.33301 6 -9 8 -11 6s-4.66699 -5.33301 -8 -10c-13.333 -19.333 -32.333 -35.166 -57 -47.499s-49.334 -18.5 -74.001 -18.5c-20.667 0 -39.667 3.33301 -57 10s-32.333 16.167 -45 28.5
s-22.667 27.5 -30 45.5s-11 38.667 -11 62c0 20.667 3.66699 40 11 58s17.666 33.667 30.999 47s29 23.666 47 30.999s38 11 60 11c21.333 0 41.666 -4.5 60.999 -13.5s34.666 -20.833 45.999 -35.5c2 -2 3.66699 -3 5 -3c2.66699 0 4 2.33301 4 7v51
c0 30 -9.83301 56 -29.5 78s-50.167 33 -91.5 33c-15.333 0 -31.666 -1.83301 -48.999 -5.5s-32.666 -9.16699 -45.999 -16.5c-4 -2.66699 -7.33301 -1.33398 -10 3.99902l-8 20c-0.666992 2 -1 3.83301 -1 5.5s1.66699 3.16699 5 4.5c16.667 8 34.5 14 53.5 18
s38.5 6 58.5 6c34.667 0 62.834 -6 84.501 -18s39.5 -29 53.5 -51l4 -4c1.33301 -1.33301 3.66602 0 6.99902 4c13.333 21.333 31.666 38.166 54.999 50.499s48.666 18.5 75.999 18.5c23.333 0 45 -3.5 65 -10.5s37.167 -17.5 51.5 -31.5s25.666 -31.333 33.999 -52
s12.5 -44.667 12.5 -72v-43c0 -6 -1.5 -10.5 -4.5 -13.5s-6.16699 -4.5 -9.5 -4.5h-256c-8.66699 0 -13 -4 -13 -12v-48c0 -35.333 11 -64.666 33 -87.999s51.667 -35 89 -35c22 0 41.667 4.33301 59 13s31.333 20.667 42 36c4 6 8.66699 7.33301 14 4l18 -12
c4.66699 -3.33301 6 -7.33301 4 -12c-14 -21.333 -33 -37.333 -57 -48s-50.667 -16 -80 -16zM291.004 141.001c0 15.333 -3 29.834 -9 43.501s-14 25.667 -24 36s-21.833 18.5 -35.5 24.5s-28.167 9 -43.5 9s-29.833 -3 -43.5 -9s-25.5 -14.167 -35.5 -24.5
s-18 -22.333 -24 -36s-9 -28.167 -9 -43.5c0 -16 2.83301 -31 8.5 -45s13.5 -26 23.5 -36s21.667 -17.833 35 -23.5s28 -8.5 44 -8.5s30.833 3 44.5 9s25.667 14.333 36 25s18.333 22.667 24 36s8.5 27.666 8.5 42.999zM578.004 282.002c0 36 -11.167 65.333 -33.5 88
s-51.833 34 -88.5 34c-18.667 0 -35.334 -3.5 -50.001 -10.5s-27.167 -16.5 -37.5 -28.5s-18.166 -25.833 -23.499 -41.5s-8 -32.5 -8 -50.5v-13c0 -8 4 -12 12 -12h219c6.66699 0 10 3.66699 10 11v23z" />
    <glyph glyph-name="ccedilla" unicode="&#xe7;" horiz-adv-x="371" 
d="M300 -125c0 -19.333 -7.83105 -35.6719 -23.498 -49.0049s-36.834 -20 -63.501 -20c-13.333 0 -26.666 1.83301 -39.999 5.5s-24 8.5 -32 14.5c-2.66699 2.66699 -2.66699 5.66699 0 9l8 11c2 3.33301 4.66699 4 8 2c8 -5.33301 16.667 -9.5 26 -12.5
s18.666 -4.5 27.999 -4.5c19.333 0 33.833 3.83301 43.5 11.5s14.5 18.167 14.5 31.5c0 8.66699 -3 18 -9 28s-19.667 15 -41 15h-33c-12 0 -18 4.66699 -18 14c0 2.66699 0.333008 4.66699 1 6l16 59c-44 4.66699 -78.333 21 -103 49s-37 64 -37 108v128
c0 24 4.16699 45.833 12.5 65.5s19.833 36.334 34.5 50.001s32 24.334 52 32.001s41.667 11.5 65 11.5c57.333 0 102 -21 134 -63c3.33301 -5.33301 2.66602 -9.33301 -2.00098 -12l-18 -15c-4 -2.66699 -8.33301 -1.66699 -13 3c-11.333 16 -26 28.5 -44 37.5
s-37.333 13.5 -58 13.5c-36 0 -65.333 -11.5 -88 -34.5s-34 -52.167 -34 -87.5v-129c0 -38 11.5 -67.833 34.5 -89.5s52.5 -32.5 88.5 -32.5c24 0 44.333 4.5 61 13.5s30.667 21.167 42 36.5c2.66699 4.66699 6.33398 5.33398 11.001 2.00098l18 -11
c3.33301 -2.66699 5.16602 -5 5.49902 -7s-0.166992 -4 -1.5 -6c-15.333 -21.333 -34.333 -37.166 -57 -47.499s-48 -15.833 -76 -16.5c-2 -7.33301 -4.16699 -15.833 -6.5 -25.5s-3.5 -15.167 -3.5 -16.5s-0.166992 -2.16602 -0.5 -2.49902s-0.5 -0.833008 -0.5 -1.5
c0 -4 2.33301 -6 7 -6h13c23.333 0 42.333 -6 57 -18s22 -28.667 22 -50z" />
    <glyph glyph-name="egrave" unicode="&#xe8;" horiz-adv-x="408" 
d="M372 231c0 -6 -1.49902 -10.332 -4.49902 -12.999s-6.16699 -4 -9.5 -4h-257c-8 0 -12 -4.33301 -12 -13v-48c0 -34.667 11 -63.667 33 -87s51.667 -35 89 -35c22 0 41.5 4.33301 58.5 13s31.167 20.667 42.5 36c4 5.33301 8.33301 6.33301 13 3l19 -12
c4 -3.33301 5.33301 -7 4 -11c-14 -21.333 -33 -37.5 -57 -48.5s-51 -16.5 -81 -16.5c-50 0 -89.5 14.167 -118.5 42.5s-43.5 66.5 -43.5 114.5v126c0 25.333 4.16699 48 12.5 68s19.666 37 33.999 51s31.333 24.667 51 32s40.834 11 63.501 11c23.333 0 45 -3.5 65 -10.5
s37.167 -17.333 51.5 -31s25.666 -30.834 33.999 -51.501s12.5 -45 12.5 -73v-43zM330.001 283.001c0 35.333 -11.001 64.334 -33.001 87.001s-51.333 34 -88 34c-17.333 0 -33.166 -3 -47.499 -9s-27 -14.5 -38 -25.5s-19.5 -23.833 -25.5 -38.5s-9 -30.334 -9 -47.001v-24
c0 -7.33301 4 -11 12 -11h220c6 0 9 3.66699 9 11v23zM124 608.002c-2.66699 3.33301 -3.99902 6.16797 -3.99902 8.50098s3 5.16602 9 8.49902l22 12c8 4 14 2.66699 18 -4l68 -124c1.33301 -2 2.16602 -4 2.49902 -6s-1.5 -4.33301 -5.5 -7l-11 -6
c-3.33301 -2 -6 -2.33301 -8 -1s-3.66699 3 -5 5z" />
    <glyph glyph-name="eacute" unicode="&#xe9;" horiz-adv-x="408" 
d="M372 231c0 -6 -1.49902 -10.332 -4.49902 -12.999s-6.16699 -4 -9.5 -4h-257c-8 0 -12 -4.33301 -12 -13v-48c0 -34.667 11 -63.667 33 -87s51.667 -35 89 -35c22 0 41.5 4.33301 58.5 13s31.167 20.667 42.5 36c4 5.33301 8.33301 6.33301 13 3l19 -12
c4 -3.33301 5.33301 -7 4 -11c-14 -21.333 -33 -37.5 -57 -48.5s-51 -16.5 -81 -16.5c-50 0 -89.5 14.167 -118.5 42.5s-43.5 66.5 -43.5 114.5v126c0 25.333 4.16699 48 12.5 68s19.666 37 33.999 51s31.333 24.667 51 32s40.834 11 63.501 11c23.333 0 45 -3.5 65 -10.5
s37.167 -17.333 51.5 -31s25.666 -30.834 33.999 -51.501s12.5 -45 12.5 -73v-43zM330.001 283.001c0 35.333 -11.001 64.334 -33.001 87.001s-51.333 34 -88 34c-17.333 0 -33.166 -3 -47.499 -9s-27 -14.5 -38 -25.5s-19.5 -23.833 -25.5 -38.5s-9 -30.334 -9 -47.001v-24
c0 -7.33301 4 -11 12 -11h220c6 0 9 3.66699 9 11v23zM205 494.002c-4 -4.66699 -8.33301 -5.66504 -13 -2.99805l-9 6c-1.33301 1.33301 -2.5 2.83301 -3.5 4.5s-0.5 4.5 1.5 8.5l68 124c2 3.33301 4.33301 5.66602 7 6.99902s6.33398 0.666016 11.001 -2.00098l21 -13
c4.66699 -2.66699 7 -5.66699 7 -9c0 -1.33301 -0.333008 -2.5 -1 -3.5s-1.33398 -2.16699 -2.00098 -3.5z" />
    <glyph glyph-name="ecircumflex" unicode="&#xea;" horiz-adv-x="408" 
d="M372 231c0 -6 -1.49902 -10.332 -4.49902 -12.999s-6.16699 -4 -9.5 -4h-257c-8 0 -12 -4.33301 -12 -13v-48c0 -34.667 11 -63.667 33 -87s51.667 -35 89 -35c22 0 41.5 4.33301 58.5 13s31.167 20.667 42.5 36c4 5.33301 8.33301 6.33301 13 3l19 -12
c4 -3.33301 5.33301 -7 4 -11c-14 -21.333 -33 -37.5 -57 -48.5s-51 -16.5 -81 -16.5c-50 0 -89.5 14.167 -118.5 42.5s-43.5 66.5 -43.5 114.5v126c0 25.333 4.16699 48 12.5 68s19.666 37 33.999 51s31.333 24.667 51 32s40.834 11 63.501 11c23.333 0 45 -3.5 65 -10.5
s37.167 -17.333 51.5 -31s25.666 -30.834 33.999 -51.501s12.5 -45 12.5 -73v-43zM330.001 283.001c0 35.333 -11.001 64.334 -33.001 87.001s-51.333 34 -88 34c-17.333 0 -33.166 -3 -47.499 -9s-27 -14.5 -38 -25.5s-19.5 -23.833 -25.5 -38.5s-9 -30.334 -9 -47.001v-24
c0 -7.33301 4 -11 12 -11h220c6 0 9 3.66699 9 11v23zM336 517.002c4 -5.33301 4 -9.66699 0 -13l-8 -7c-2.66699 -2.66699 -5 -3.5 -7 -2.5s-4 2.16699 -6 3.5l-97 96c-3.33301 3.33301 -6.66602 3.33301 -9.99902 0l-94 -96c-4 -5.33301 -8.33301 -6 -13 -2l-8 7
c-4 4 -4.33301 8 -1 12l94 117c5.33301 5.33301 10.666 8 15.999 8h25c5.33301 0 10.333 -2.66699 15 -8z" />
    <glyph glyph-name="edieresis" unicode="&#xeb;" horiz-adv-x="408" 
d="M372 231c0 -6 -1.49902 -10.332 -4.49902 -12.999s-6.16699 -4 -9.5 -4h-257c-8 0 -12 -4.33301 -12 -13v-48c0 -34.667 11 -63.667 33 -87s51.667 -35 89 -35c22 0 41.5 4.33301 58.5 13s31.167 20.667 42.5 36c4 5.33301 8.33301 6.33301 13 3l19 -12
c4 -3.33301 5.33301 -7 4 -11c-14 -21.333 -33 -37.5 -57 -48.5s-51 -16.5 -81 -16.5c-50 0 -89.5 14.167 -118.5 42.5s-43.5 66.5 -43.5 114.5v126c0 25.333 4.16699 48 12.5 68s19.666 37 33.999 51s31.333 24.667 51 32s40.834 11 63.501 11c23.333 0 45 -3.5 65 -10.5
s37.167 -17.333 51.5 -31s25.666 -30.834 33.999 -51.501s12.5 -45 12.5 -73v-43zM330.001 283.001c0 35.333 -11.001 64.334 -33.001 87.001s-51.333 34 -88 34c-17.333 0 -33.166 -3 -47.499 -9s-27 -14.5 -38 -25.5s-19.5 -23.833 -25.5 -38.5s-9 -30.334 -9 -47.001v-24
c0 -7.33301 4 -11 12 -11h220c6 0 9 3.66699 9 11v23zM319 561.002c0 -8 -2.83203 -15 -8.49902 -21s-12.5 -9 -20.5 -9c-8.66699 0 -15.834 3 -21.501 9s-8.5 13 -8.5 21c0 8.66699 2.83301 15.834 8.5 21.501s12.5 8.5 20.5 8.5s15 -2.83301 21 -8.5s9 -12.834 9 -21.501z
M165.001 561.002c0 -8.66699 -3 -15.833 -9 -21.5s-12.667 -8.5 -20 -8.5c-8 0 -14.833 3 -20.5 9s-8.5 13 -8.5 21c0 8.66699 2.83301 15.834 8.5 21.501s12.5 8.5 20.5 8.5s14.833 -2.83301 20.5 -8.5s8.5 -12.834 8.5 -21.501z" />
    <glyph glyph-name="igrave" unicode="&#xec;" horiz-adv-x="172" 
d="M62 428c0 4.66699 2.33301 7 7 7h28c4.66699 0 7 -2.33301 7 -7v-422c0 -4 -2.33301 -6 -7 -6h-28c-4.66699 0 -7 2 -7 6v422zM-11 608c-2.66699 3.33301 -3.99902 6.16797 -3.99902 8.50098s3 5.16602 9 8.49902l22 12c8 4 14 2.66699 18 -4l68 -124
c1.33301 -2 2.16602 -4 2.49902 -6s-1.5 -4.33301 -5.5 -7l-11 -6c-3.33301 -2 -6 -2.33301 -8 -1s-3.66699 3 -5 5z" />
    <glyph glyph-name="iacute" unicode="&#xed;" horiz-adv-x="172" 
d="M62 428c0 4.66699 2.33301 7 7 7h28c4.66699 0 7 -2.33301 7 -7v-422c0 -4 -2.33301 -6 -7 -6h-28c-4.66699 0 -7 2 -7 6v422zM90 494c-4 -4.66699 -8.33301 -5.66504 -13 -2.99805l-9 6c-1.33301 1.33301 -2.5 2.83301 -3.5 4.5s-0.5 4.5 1.5 8.5l68 124
c2 3.33301 4.33301 5.66602 7 6.99902s6.33398 0.666016 11.001 -2.00098l21 -13c4.66699 -2.66699 7 -5.66699 7 -9c0 -1.33301 -0.333008 -2.5 -1 -3.5s-1.33398 -2.16699 -2.00098 -3.5z" />
    <glyph glyph-name="icircumflex" unicode="&#xee;" horiz-adv-x="172" 
d="M62 428c0 4.66699 2.33301 7 7 7h28c4.66699 0 7 -2.33301 7 -7v-422c0 -4 -2.33301 -6 -7 -6h-28c-4.66699 0 -7 2 -7 6v422zM205 517c4 -5.33301 4 -9.66699 0 -13l-8 -7c-2.66699 -2.66699 -5 -3.5 -7 -2.5s-4 2.16699 -6 3.5l-97 96
c-3.33301 3.33301 -6.66602 3.33301 -9.99902 0l-94 -96c-4 -5.33301 -8.33301 -6 -13 -2l-8 7c-4 4 -4.33301 8 -1 12l94 117c5.33301 5.33301 10.666 8 15.999 8h25c5.33301 0 10.333 -2.66699 15 -8z" />
    <glyph glyph-name="idieresis" unicode="&#xef;" horiz-adv-x="172" 
d="M62 428c0 4.66699 2.33301 7 7 7h28c4.66699 0 7 -2.33301 7 -7v-422c0 -4 -2.33301 -6 -7 -6h-28c-4.66699 0 -7 2 -7 6v422zM190 561c0 -8 -2.83203 -15 -8.49902 -21s-12.5 -9 -20.5 -9c-8.66699 0 -15.834 3 -21.501 9s-8.5 13 -8.5 21
c0 8.66699 2.83301 15.834 8.5 21.501s12.5 8.5 20.5 8.5s15 -2.83301 21 -8.5s9 -12.834 9 -21.501zM36.001 561c0 -8.66699 -3 -15.833 -9 -21.5s-12.667 -8.5 -20 -8.5c-8 0 -14.833 3 -20.5 9s-8.5 13 -8.5 21c0 8.66699 2.83301 15.834 8.5 21.501s12.5 8.5 20.5 8.5
s14.833 -2.83301 20.5 -8.5s8.5 -12.834 8.5 -21.501z" />
    <glyph glyph-name="eth" unicode="&#xf0;" horiz-adv-x="421" 
d="M135 636c0 5.33301 2.99902 8.00391 8.99902 8.00391c70.667 0 124.667 -19 162 -57c2.66699 -2.66699 5 -2.66699 7 0l44 41c3.33301 2.66699 6.33301 2.66699 9 0l11 -11c2.66699 -2.66699 2.66699 -5.66699 0 -9l-45 -42c-1.33301 -1.33301 -2.33301 -2.5 -3 -3.5
s-0.333984 -2.16699 0.999023 -3.5c15.333 -22.667 26.333 -49 33 -79s10 -68.333 10 -115v-210c0 -52 -14.333 -91.667 -43 -119s-68.667 -41 -120 -41c-50.667 0 -89.667 13.333 -117 40s-42 63 -44 109v123c0 23.333 3.83301 44.666 11.5 63.999s18.5 36 32.5 50
s30.833 24.833 50.5 32.5s41.167 11.5 64.5 11.5c27.333 0 51.333 -4.83301 72 -14.5s36.667 -23.167 48 -40.5c1.33301 -2 2.5 -2.5 3.5 -1.5s1.5 2.16699 1.5 3.5c0 39.333 -2.5 71.333 -7.5 96s-13.167 45 -24.5 61c-2 3.33301 -4.33301 3.66602 -7 0.999023l-47 -46
c-1.33301 -1.33301 -2.66602 -2.33301 -3.99902 -3s-3 0 -5 2l-12 11c-2.66699 4 -2.66699 7.33301 0 10l31 30c10.667 10 17 16.333 19 19c2 2 1.66699 4.33301 -1 7c-7.33301 9.33301 -15.666 16.666 -24.999 21.999c-14.667 9.33301 -31.167 15.666 -49.5 18.999
s-37.5 5 -57.5 5c-5.33301 0 -8 2.66699 -8 8v22zM331.999 259.004c0 17.333 -2.50098 33.832 -7.50098 49.499s-12.5 29.5 -22.5 41.5s-22.5 21.5 -37.5 28.5s-32.5 10.5 -52.5 10.5c-37.333 0 -67.166 -11.667 -89.499 -35s-33.5 -52.666 -33.5 -87.999v-112
c0 -38 10.833 -68.167 32.5 -90.5s51.5 -33.5 89.5 -33.5c38.667 0 68.5 11.167 89.5 33.5s31.5 52.833 31.5 91.5v104z" />
    <glyph glyph-name="ntilde" unicode="&#xf1;" horiz-adv-x="427" 
d="M378 7c0 -4.66699 -2 -7 -6 -7h-29c-4.66699 0 -7 2 -7 6v271c0 16.667 -2.16699 32.834 -6.5 48.501s-11.166 29.167 -20.499 40.5s-21.833 20.5 -37.5 27.5s-34.5 10.5 -56.5 10.5c-18 0 -34.333 -3.33301 -49 -10s-27.167 -15.667 -37.5 -27s-18.5 -24.5 -24.5 -39.5
s-9 -31.167 -9 -48.5v-272c0 -4.66699 -2.33301 -7 -7 -7h-28c-4.66699 0 -7 2 -7 6v422c0 4.66699 2.33301 7 7 7h27c4 0 6 -2.33301 6 -7v-37c0 -4 0.833008 -6.33301 2.5 -7s4.16699 0.666016 7.5 3.99902c14.667 16.667 32.834 29.5 54.501 38.5s44.167 13.5 67.5 13.5
c28 0 51.667 -4.5 71 -13.5s35.166 -21.167 47.499 -36.5s21.166 -32.833 26.499 -52.5s8 -40.167 8 -61.5v-269zM326 571c-9.33301 -17.333 -20.998 -29.335 -34.998 -36.002s-27 -10 -39 -10c-10.667 0 -20.834 1.66699 -30.501 5s-19 6.83301 -28 10.5l-27 10.5
c-9 3.33301 -17.833 5 -26.5 5c-7.33301 0 -14.666 -2.5 -21.999 -7.5s-13 -11.167 -17 -18.5c-3.33301 -5.33301 -7.33301 -6.66602 -12 -3.99902l-14 7c-2.66699 1.33301 -3.83398 3 -3.50098 5s1.16602 4 2.49902 6c16.667 30 40 45 70 45
c9.33301 0 18.666 -1.66699 27.999 -5s18.333 -6.83301 27 -10.5l26 -10.5c8.66699 -3.33301 17 -5 25 -5c18.667 0 34.334 9.66699 47.001 29c1.33301 2 2.5 3.33301 3.5 4s2.83301 0.333984 5.5 -0.999023l17 -8c4 -1.33301 5 -5 3 -11z" />
    <glyph glyph-name="ograve" unicode="&#xf2;" horiz-adv-x="421" 
d="M373 156c0 -51.333 -14.167 -91.002 -42.5 -119.002s-67.833 -42 -118.5 -42c-52.667 0 -93 14.333 -121 43s-42 67.334 -42 116.001v128c0 47.333 14.5 85.5 43.5 114.5s68.833 43.5 119.5 43.5c50 0 89.333 -14.167 118 -42.5s43 -67.166 43 -116.499v-125z
M332 279.998c0 36 -10 65.666 -30 88.999s-50 35 -90 35c-36 0 -65.333 -11.5 -88 -34.5s-34 -52.5 -34 -88.5v-126c0 -38 10.333 -68.333 31 -91s51 -34 91 -34s70 11.333 90 34s30 53.334 30 92.001v124zM132 607.997c-2.66699 3.33301 -3.99902 6.16797 -3.99902 8.50098
s3 5.16602 9 8.49902l22 12c8 4 14 2.66699 18 -4l68 -124c1.33301 -2 2.16602 -4 2.49902 -6s-1.5 -4.33301 -5.5 -7l-11 -6c-3.33301 -2 -6 -2.33301 -8 -1s-3.66699 3 -5 5z" />
    <glyph glyph-name="oacute" unicode="&#xf3;" horiz-adv-x="421" 
d="M373 156c0 -51.333 -14.167 -91.002 -42.5 -119.002s-67.833 -42 -118.5 -42c-52.667 0 -93 14.333 -121 43s-42 67.334 -42 116.001v128c0 47.333 14.5 85.5 43.5 114.5s68.833 43.5 119.5 43.5c50 0 89.333 -14.167 118 -42.5s43 -67.166 43 -116.499v-125z
M332 279.998c0 36 -10 65.666 -30 88.999s-50 35 -90 35c-36 0 -65.333 -11.5 -88 -34.5s-34 -52.5 -34 -88.5v-126c0 -38 10.333 -68.333 31 -91s51 -34 91 -34s70 11.333 90 34s30 53.334 30 92.001v124zM200 493.997c-4 -4.66699 -8.33301 -5.66504 -13 -2.99805l-9 6
c-1.33301 1.33301 -2.5 2.83301 -3.5 4.5s-0.5 4.5 1.5 8.5l68 124c2 3.33301 4.33301 5.66602 7 6.99902s6.33398 0.666016 11.001 -2.00098l21 -13c4.66699 -2.66699 7 -5.66699 7 -9c0 -1.33301 -0.333008 -2.5 -1 -3.5s-1.33398 -2.16699 -2.00098 -3.5z" />
    <glyph glyph-name="ocircumflex" unicode="&#xf4;" horiz-adv-x="421" 
d="M373 156c0 -51.333 -14.167 -91.002 -42.5 -119.002s-67.833 -42 -118.5 -42c-52.667 0 -93 14.333 -121 43s-42 67.334 -42 116.001v128c0 47.333 14.5 85.5 43.5 114.5s68.833 43.5 119.5 43.5c50 0 89.333 -14.167 118 -42.5s43 -67.166 43 -116.499v-125z
M332 279.998c0 36 -10 65.666 -30 88.999s-50 35 -90 35c-36 0 -65.333 -11.5 -88 -34.5s-34 -52.5 -34 -88.5v-126c0 -38 10.333 -68.333 31 -91s51 -34 91 -34s70 11.333 90 34s30 53.334 30 92.001v124zM337 516.997c4 -5.33301 4 -9.66699 0 -13l-8 -7
c-2.66699 -2.66699 -5 -3.5 -7 -2.5s-4 2.16699 -6 3.5l-97 96c-3.33301 3.33301 -6.66602 3.33301 -9.99902 0l-94 -96c-4 -5.33301 -8.33301 -6 -13 -2l-8 7c-4 4 -4.33301 8 -1 12l94 117c5.33301 5.33301 10.666 8 15.999 8h25c5.33301 0 10.333 -2.66699 15 -8z" />
    <glyph glyph-name="otilde" unicode="&#xf5;" horiz-adv-x="421" 
d="M373 156c0 -51.333 -14.167 -91.002 -42.5 -119.002s-67.833 -42 -118.5 -42c-52.667 0 -93 14.333 -121 43s-42 67.334 -42 116.001v128c0 47.333 14.5 85.5 43.5 114.5s68.833 43.5 119.5 43.5c50 0 89.333 -14.167 118 -42.5s43 -67.166 43 -116.499v-125z
M332 279.998c0 36 -10 65.666 -30 88.999s-50 35 -90 35c-36 0 -65.333 -11.5 -88 -34.5s-34 -52.5 -34 -88.5v-126c0 -38 10.333 -68.333 31 -91s51 -34 91 -34s70 11.333 90 34s30 53.334 30 92.001v124zM340 570.997c-9.33301 -17.333 -20.998 -29.335 -34.998 -36.002
s-27 -10 -39 -10c-10.667 0 -20.834 1.66699 -30.501 5s-19 6.83301 -28 10.5l-27 10.5c-9 3.33301 -17.833 5 -26.5 5c-7.33301 0 -14.666 -2.5 -21.999 -7.5s-13 -11.167 -17 -18.5c-3.33301 -5.33301 -7.33301 -6.66602 -12 -3.99902l-14 7
c-2.66699 1.33301 -3.83398 3 -3.50098 5s1.16602 4 2.49902 6c16.667 30 40 45 70 45c9.33301 0 18.666 -1.66699 27.999 -5s18.333 -6.83301 27 -10.5l26 -10.5c8.66699 -3.33301 17 -5 25 -5c18.667 0 34.334 9.66699 47.001 29c1.33301 2 2.5 3.33301 3.5 4
s2.83301 0.333984 5.5 -0.999023l17 -8c4 -1.33301 5 -5 3 -11z" />
    <glyph glyph-name="odieresis" unicode="&#xf6;" horiz-adv-x="421" 
d="M373 156c0 -51.333 -14.167 -91.002 -42.5 -119.002s-67.833 -42 -118.5 -42c-52.667 0 -93 14.333 -121 43s-42 67.334 -42 116.001v128c0 47.333 14.5 85.5 43.5 114.5s68.833 43.5 119.5 43.5c50 0 89.333 -14.167 118 -42.5s43 -67.166 43 -116.499v-125z
M332 279.998c0 36 -10 65.666 -30 88.999s-50 35 -90 35c-36 0 -65.333 -11.5 -88 -34.5s-34 -52.5 -34 -88.5v-126c0 -38 10.333 -68.333 31 -91s51 -34 91 -34s70 11.333 90 34s30 53.334 30 92.001v124zM319 560.997c0 -8 -2.83203 -15 -8.49902 -21s-12.5 -9 -20.5 -9
c-8.66699 0 -15.834 3 -21.501 9s-8.5 13 -8.5 21c0 8.66699 2.83301 15.834 8.5 21.501s12.5 8.5 20.5 8.5s15 -2.83301 21 -8.5s9 -12.834 9 -21.501zM165.001 560.997c0 -8.66699 -3 -15.833 -9 -21.5s-12.667 -8.5 -20 -8.5c-8 0 -14.833 3 -20.5 9s-8.5 13 -8.5 21
c0 8.66699 2.83301 15.834 8.5 21.501s12.5 8.5 20.5 8.5s14.833 -2.83301 20.5 -8.5s8.5 -12.834 8.5 -21.501z" />
    <glyph glyph-name="divide" unicode="&#xf7;" horiz-adv-x="445" 
d="M412 227c0 -6.66699 -3.66699 -10 -11 -10h-357c-4 0 -7 0.5 -9 1.5s-3 3.5 -3 7.5v17c0 7.33301 4 11 12 11h357c7.33301 0 11 -3.66699 11 -11v-16zM252 401c0 -9.33301 -3.16699 -17.166 -9.5 -23.499s-14.166 -9.5 -23.499 -9.5c-8.66699 0 -16 3.16699 -22 9.5
s-9 14.166 -9 23.499c0 8.66699 3 16 9 22s13.333 9 22 9c9.33301 0 17.166 -2.83301 23.499 -8.5s9.5 -13.167 9.5 -22.5zM251 62c0 -9.33301 -3 -17 -9 -23s-13.667 -9 -23 -9c-8.66699 0 -16.167 3 -22.5 9s-9.5 13.667 -9.5 23c0 8.66699 3.16699 16.167 9.5 22.5
s13.833 9.5 22.5 9.5c9.33301 0 17 -3 23 -9s9 -13.667 9 -23z" />
    <glyph glyph-name="oslash" unicode="&#xf8;" horiz-adv-x="414" 
d="M82 2c-1.33301 -3.33301 -2.83301 -4.83398 -4.5 -4.50098s-3.16699 0.833008 -4.5 1.5l-19 12c-3.33301 2 -3.66602 5 -0.999023 9l21 30c3.33301 3.33301 4.66602 5.83301 3.99902 7.5s-1.33398 3.16699 -2.00098 4.5c-16.667 26 -25 56.333 -25 91v128
c0 22.667 4 43.667 12 63s19.167 36 33.5 50s31.333 24.833 51 32.5s41.167 11.5 64.5 11.5c40 0 74 -11 102 -33c0.666992 -0.666992 1.83398 -1 3.50098 -1s3.5 1.66699 5.5 5l19 28c0.666992 1.33301 2 2.33301 4 3s4 0.333984 6 -0.999023l17 -11
c1.33301 -1.33301 2.33301 -2.5 3 -3.5s0 -3.16699 -2 -6.5l-24 -35c-2.66699 -4.66699 -2.66699 -9 0 -13c16.667 -26 25 -56 25 -90v-125c0 -50 -14.5 -89.167 -43.5 -117.5s-67.5 -42.5 -115.5 -42.5c-42.667 0 -78 11 -106 33
c-0.666992 0.666992 -1.66699 1.16699 -3 1.5s-3.33301 -1.5 -6 -5.5zM329 279.999c0 18.667 -3.66797 36.333 -11.001 53c-1.33301 4 -4 3.66699 -8 -1l-180 -262c-3.33301 -4.66699 -2.66602 -8.66699 2.00098 -12c22.667 -18.667 49.667 -28 81 -28
c20 0 37.333 3.33301 52 10s26.667 15.667 36 27s16.333 24.5 21 39.5s7 31.167 7 48.5v125zM92.999 150.998c0 -19.333 3.33203 -36.002 9.99902 -50.002c0.666992 -1.33301 1.5 -2.66602 2.5 -3.99902s2.5 -0.333008 4.5 3l181 263c1.33301 2 1.83301 3.83301 1.5 5.5
s-1.16602 2.83398 -2.49902 3.50098c-20.667 18.667 -46.667 28 -78 28c-37.333 0 -66.5 -11.333 -87.5 -34s-31.5 -51 -31.5 -85v-130z" />
    <glyph glyph-name="ugrave" unicode="&#xf9;" horiz-adv-x="426" 
d="M376 7c0 -4.66699 -2.66992 -6.99805 -8.00293 -6.99805h-27c-4 0 -6 2 -6 6v37c0 10.667 -3.33301 12 -10 4c-14 -17.333 -32 -30.333 -54 -39s-44.667 -13 -68 -13c-29.333 0 -53.666 4.5 -72.999 13.5s-34.833 21.167 -46.5 36.5s-20 32.833 -25 52.5
s-7.5 40.167 -7.5 61.5v269c0 4.66699 2 7 6 7h29c4 0 6 -2.33301 6 -7v-271c0 -16.667 2 -32.5 6 -47.5s10.833 -28.333 20.5 -40s22.167 -20.834 37.5 -27.501s34.333 -10 57 -10c18 0 34.333 3.16699 49 9.5s27.334 15.166 38.001 26.499s18.834 24.5 24.501 39.5
s8.5 31.167 8.5 48.5v272c0 4.66699 2.33301 7 7 7h28c5.33301 0 8 -2.33301 8 -7v-421zM131.997 608.002c-2.66699 3.33301 -3.99902 6.16797 -3.99902 8.50098s3 5.16602 9 8.49902l22 12c8 4 14 2.66699 18 -4l68 -124c1.33301 -2 2.16602 -4 2.49902 -6
s-1.5 -4.33301 -5.5 -7l-11 -6c-3.33301 -2 -6 -2.33301 -8 -1s-3.66699 3 -5 5z" />
    <glyph glyph-name="uacute" unicode="&#xfa;" horiz-adv-x="426" 
d="M376 7c0 -4.66699 -2.66992 -6.99805 -8.00293 -6.99805h-27c-4 0 -6 2 -6 6v37c0 10.667 -3.33301 12 -10 4c-14 -17.333 -32 -30.333 -54 -39s-44.667 -13 -68 -13c-29.333 0 -53.666 4.5 -72.999 13.5s-34.833 21.167 -46.5 36.5s-20 32.833 -25 52.5
s-7.5 40.167 -7.5 61.5v269c0 4.66699 2 7 6 7h29c4 0 6 -2.33301 6 -7v-271c0 -16.667 2 -32.5 6 -47.5s10.833 -28.333 20.5 -40s22.167 -20.834 37.5 -27.501s34.333 -10 57 -10c18 0 34.333 3.16699 49 9.5s27.334 15.166 38.001 26.499s18.834 24.5 24.501 39.5
s8.5 31.167 8.5 48.5v272c0 4.66699 2.33301 7 7 7h28c5.33301 0 8 -2.33301 8 -7v-421zM212.997 494.002c-4 -4.66699 -8.33301 -5.66504 -13 -2.99805l-9 6c-1.33301 1.33301 -2.5 2.83301 -3.5 4.5s-0.5 4.5 1.5 8.5l68 124c2 3.33301 4.33301 5.66602 7 6.99902
s6.33398 0.666016 11.001 -2.00098l21 -13c4.66699 -2.66699 7 -5.66699 7 -9c0 -1.33301 -0.333008 -2.5 -1 -3.5s-1.33398 -2.16699 -2.00098 -3.5z" />
    <glyph glyph-name="ucircumflex" unicode="&#xfb;" horiz-adv-x="426" 
d="M376 7c0 -4.66699 -2.66992 -6.99805 -8.00293 -6.99805h-27c-4 0 -6 2 -6 6v37c0 10.667 -3.33301 12 -10 4c-14 -17.333 -32 -30.333 -54 -39s-44.667 -13 -68 -13c-29.333 0 -53.666 4.5 -72.999 13.5s-34.833 21.167 -46.5 36.5s-20 32.833 -25 52.5
s-7.5 40.167 -7.5 61.5v269c0 4.66699 2 7 6 7h29c4 0 6 -2.33301 6 -7v-271c0 -16.667 2 -32.5 6 -47.5s10.833 -28.333 20.5 -40s22.167 -20.834 37.5 -27.501s34.333 -10 57 -10c18 0 34.333 3.16699 49 9.5s27.334 15.166 38.001 26.499s18.834 24.5 24.501 39.5
s8.5 31.167 8.5 48.5v272c0 4.66699 2.33301 7 7 7h28c5.33301 0 8 -2.33301 8 -7v-421zM329.997 517.002c4 -5.33301 4 -9.66699 0 -13l-8 -7c-2.66699 -2.66699 -5 -3.5 -7 -2.5s-4 2.16699 -6 3.5l-97 96c-3.33301 3.33301 -6.66602 3.33301 -9.99902 0l-94 -96
c-4 -5.33301 -8.33301 -6 -13 -2l-8 7c-4 4 -4.33301 8 -1 12l94 117c5.33301 5.33301 10.666 8 15.999 8h25c5.33301 0 10.333 -2.66699 15 -8z" />
    <glyph glyph-name="udieresis" unicode="&#xfc;" horiz-adv-x="426" 
d="M376 7c0 -4.66699 -2.66992 -6.99805 -8.00293 -6.99805h-27c-4 0 -6 2 -6 6v37c0 10.667 -3.33301 12 -10 4c-14 -17.333 -32 -30.333 -54 -39s-44.667 -13 -68 -13c-29.333 0 -53.666 4.5 -72.999 13.5s-34.833 21.167 -46.5 36.5s-20 32.833 -25 52.5
s-7.5 40.167 -7.5 61.5v269c0 4.66699 2 7 6 7h29c4 0 6 -2.33301 6 -7v-271c0 -16.667 2 -32.5 6 -47.5s10.833 -28.333 20.5 -40s22.167 -20.834 37.5 -27.501s34.333 -10 57 -10c18 0 34.333 3.16699 49 9.5s27.334 15.166 38.001 26.499s18.834 24.5 24.501 39.5
s8.5 31.167 8.5 48.5v272c0 4.66699 2.33301 7 7 7h28c5.33301 0 8 -2.33301 8 -7v-421zM322.997 561.002c0 -8 -2.83203 -15 -8.49902 -21s-12.5 -9 -20.5 -9c-8.66699 0 -15.834 3 -21.501 9s-8.5 13 -8.5 21c0 8.66699 2.83301 15.834 8.5 21.501s12.5 8.5 20.5 8.5
s15 -2.83301 21 -8.5s9 -12.834 9 -21.501zM168.998 561.002c0 -8.66699 -3 -15.833 -9 -21.5s-12.667 -8.5 -20 -8.5c-8 0 -14.833 3 -20.5 9s-8.5 13 -8.5 21c0 8.66699 2.83301 15.834 8.5 21.501s12.5 8.5 20.5 8.5s14.833 -2.83301 20.5 -8.5s8.5 -12.834 8.5 -21.501z
" />
    <glyph glyph-name="yacute" unicode="&#xfd;" horiz-adv-x="361" 
d="M160 -6c1.33301 4 0.333008 6 -3 6h-6c-6 0 -10 3 -12 9l-131 417c-1.33301 6 1 9 7 9h25c5.33301 0 9.33301 -2.66699 12 -8l117 -382c1.33301 -3.33301 2.66602 -5 3.99902 -5c2.66699 0 4.33398 1.66699 5.00098 5l128 381c0.666992 2 1.66699 4 3 6s4 3 8 3h24
c6 0 8.66699 -3 8 -9l-201 -598c-1.33301 -7.33301 -6.33301 -11 -15 -11h-20c-6.66699 0 -9 4 -7 12zM173 494c-4 -4.66699 -8.33301 -5.66504 -13 -2.99805l-9 6c-1.33301 1.33301 -2.5 2.83301 -3.5 4.5s-0.5 4.5 1.5 8.5l68 124c2 3.33301 4.33301 5.66602 7 6.99902
s6.33398 0.666016 11.001 -2.00098l21 -13c4.66699 -2.66699 7 -5.66699 7 -9c0 -1.33301 -0.333008 -2.5 -1 -3.5s-1.33398 -2.16699 -2.00098 -3.5z" />
    <glyph glyph-name="thorn" unicode="&#xfe;" horiz-adv-x="425" 
d="M379 159c0 -20 -2.99805 -40.002 -8.99805 -60.002s-15.333 -37.667 -28 -53s-28.834 -27.833 -48.501 -37.5s-42.834 -14.5 -69.501 -14.5c-51.333 0 -90.333 17 -117 51c-6.66699 6.66699 -10 5.33398 -10 -3.99902v-215c0 -4 -2.33301 -6 -7 -6h-28
c-4.66699 0 -7 2 -7 6v805c0 4 2.33301 6 7 6h26c4.66699 0 7 -2 7 -6v-240c0 -7.33301 3.33301 -7.66602 10 -0.999023c12 15.333 28.167 27.5 48.5 36.5s42.833 13.5 67.5 13.5c50 0 88.833 -14.5 116.5 -43.5s41.5 -66.5 41.5 -112.5v-125zM338.002 280.998
c0 36.667 -10.667 66.3359 -32 89.0029s-51 34 -89 34c-36 0 -65.167 -11.333 -87.5 -34s-33.5 -51.334 -33.5 -86.001v-128c0 -17.333 3 -33.5 9 -48.5s14.333 -28.167 25 -39.5s23.334 -20.333 38.001 -27s31 -10 49 -10c19.333 0 36.5 3.33301 51.5 10
s27.667 15.667 38 27s18.166 24.666 23.499 39.999s8 31.666 8 48.999v124z" />
    <glyph glyph-name="ydieresis" unicode="&#xff;" horiz-adv-x="361" 
d="M160 -6c1.33301 4 0.333008 6 -3 6h-6c-6 0 -10 3 -12 9l-131 417c-1.33301 6 1 9 7 9h25c5.33301 0 9.33301 -2.66699 12 -8l117 -382c1.33301 -3.33301 2.66602 -5 3.99902 -5c2.66699 0 4.33398 1.66699 5.00098 5l128 381c0.666992 2 1.66699 4 3 6s4 3 8 3h24
c6 0 8.66699 -3 8 -9l-201 -598c-1.33301 -7.33301 -6.33301 -11 -15 -11h-20c-6.66699 0 -9 4 -7 12zM287 561c0 -8 -2.83203 -15 -8.49902 -21s-12.5 -9 -20.5 -9c-8.66699 0 -15.834 3 -21.501 9s-8.5 13 -8.5 21c0 8.66699 2.83301 15.834 8.5 21.501s12.5 8.5 20.5 8.5
s15 -2.83301 21 -8.5s9 -12.834 9 -21.501zM133.001 561c0 -8.66699 -3 -15.833 -9 -21.5s-12.667 -8.5 -20 -8.5c-8 0 -14.833 3 -20.5 9s-8.5 13 -8.5 21c0 8.66699 2.83301 15.834 8.5 21.501s12.5 8.5 20.5 8.5s14.833 -2.83301 20.5 -8.5s8.5 -12.834 8.5 -21.501z" />
    <glyph glyph-name="Amacron" unicode="&#x100;" horiz-adv-x="445" 
d="M395 0c-5.33301 0 -8.66699 2 -10 6l-43 146c-0.666992 2.66699 -2.66699 4 -6 4h-231c-2.66699 0 -4.33398 -1 -5.00098 -3c-0.666992 -3.33301 -3.16699 -12.333 -7.5 -27l-13.5 -46.5l-13.5 -46.5c-4.33301 -14.667 -6.83301 -23.667 -7.5 -27
c-1.33301 -4 -4.33301 -6 -9 -6h-28c-3.33301 0 -5.66602 0.5 -6.99902 1.5s-1.33301 3.5 0 7.5l175 601c1.33301 4.66699 4 7 8 7h47c5.33301 0 8.33301 -2.33301 9 -7l177 -599c2.66699 -7.33301 1 -11 -5 -11h-30zM180.999 437l-68 -237
c-1.33301 -4.66699 -0.333008 -7 3 -7h209c4 0 5.66699 2 5 6l-70 239l-37 132c-0.666992 2 -1.5 3 -2.5 3s-1.83301 -1 -2.5 -3zM299.999 688c0 -4 -2 -6 -6 -6h-182c-4 0 -6 2 -6 6v21c0 4.66699 2 7 6 7h181c4.66699 0 7 -2.33301 7 -7v-21z" />
    <glyph glyph-name="amacron" unicode="&#x101;" horiz-adv-x="382" 
d="M28 138c0 20.667 3.33008 40 9.99707 58s16.334 33.667 29.001 47s28.5 24 47.5 32s40.833 12 65.5 12c20.667 0 40.5 -3.66699 59.5 -11s34.167 -17.666 45.5 -30.999c2.66699 -2.66699 4.83398 -3.5 6.50098 -2.5s2.5 3.16699 2.5 6.5v46c0 14 -1.5 27.5 -4.5 40.5
s-8.5 24.5 -16.5 34.5s-19.167 18.167 -33.5 24.5s-32.5 9.5 -54.5 9.5c-8 0 -16.667 -0.5 -26 -1.5s-18.833 -2.5 -28.5 -4.5s-19 -4.33301 -28 -7s-16.833 -5.33398 -23.5 -8.00098c-4.66699 -3.33301 -8 -2.33301 -10 3l-9 21c-0.666992 4 1 7 5 9
c16.667 8 36.334 14.167 59.001 18.5s44 6.5 64 6.5c53.333 0 91.333 -12.833 114 -38.5s34 -62.5 34 -110.5v-285c0 -4.66699 -2.33301 -7 -7 -7h-26c-4 0 -6 2 -6 6v39c0 4.66699 -1 7 -3 7s-4 -1.33301 -6 -4c-26 -35.333 -64.667 -53 -116 -53
c-46 0 -81.5 13.167 -106.5 39.5s-37.5 60.833 -37.5 103.5zM66.9971 140c0 -31.333 8.66895 -57.667 26.002 -79s45.666 -32 84.999 -32c34 0 61.5 11 82.5 33s31.5 48.667 31.5 80c0 30.667 -9.83301 57 -29.5 79s-46.834 33 -81.501 33c-18 0 -34.167 -3 -48.5 -9
s-26.333 -14.167 -36 -24.5s-17 -22.5 -22 -36.5s-7.5 -28.667 -7.5 -44zM293.999 537.999c0 -4.66699 -2 -7 -6 -7h-182c-4 0 -6 2.33301 -6 7v20c0 4.66699 2 7 6 7h181c4.66699 0 7 -2.33301 7 -7v-20z" />
    <glyph glyph-name="Abreve" unicode="&#x102;" horiz-adv-x="445" 
d="M395 0c-5.33301 0 -8.66699 2 -10 6l-43 146c-0.666992 2.66699 -2.66699 4 -6 4h-231c-2.66699 0 -4.33398 -1 -5.00098 -3c-0.666992 -3.33301 -3.16699 -12.333 -7.5 -27l-13.5 -46.5l-13.5 -46.5c-4.33301 -14.667 -6.83301 -23.667 -7.5 -27
c-1.33301 -4 -4.33301 -6 -9 -6h-28c-3.33301 0 -5.66602 0.5 -6.99902 1.5s-1.33301 3.5 0 7.5l175 601c1.33301 4.66699 4 7 8 7h47c5.33301 0 8.33301 -2.33301 9 -7l177 -599c2.66699 -7.33301 1 -11 -5 -11h-30zM180.999 437l-68 -237
c-1.33301 -4.66699 -0.333008 -7 3 -7h209c4 0 5.66699 2 5 6l-70 239l-37 132c-0.666992 2 -1.5 3 -2.5 3s-1.83301 -1 -2.5 -3zM109.999 754c0 4.66699 2 7.00098 6 7.00098h13c3.33301 0 5.33301 -1 6 -3s1.66699 -4.66699 3 -8c4 -22 13.833 -39 29.5 -51
s33.167 -18 52.5 -18c18.667 0 36.167 6.16699 52.5 18.5s26.5 29.166 30.5 50.499c1.33301 3.33301 2.33301 6 3 8s2.66699 3 6 3h12c4.66699 0 7 -2.33301 7 -7c0 -16 -3.16699 -30.833 -9.5 -44.5s-14.833 -25.167 -25.5 -34.5s-22.667 -16.666 -36 -21.999
s-27 -8 -41 -8s-27.5 2.66699 -40.5 8s-24.5 12.666 -34.5 21.999s-18.167 20.833 -24.5 34.5s-9.5 28.5 -9.5 44.5z" />
    <glyph glyph-name="abreve" unicode="&#x103;" horiz-adv-x="382" 
d="M28 138c0 20.667 3.33008 40 9.99707 58s16.334 33.667 29.001 47s28.5 24 47.5 32s40.833 12 65.5 12c20.667 0 40.5 -3.66699 59.5 -11s34.167 -17.666 45.5 -30.999c2.66699 -2.66699 4.83398 -3.5 6.50098 -2.5s2.5 3.16699 2.5 6.5v46c0 14 -1.5 27.5 -4.5 40.5
s-8.5 24.5 -16.5 34.5s-19.167 18.167 -33.5 24.5s-32.5 9.5 -54.5 9.5c-8 0 -16.667 -0.5 -26 -1.5s-18.833 -2.5 -28.5 -4.5s-19 -4.33301 -28 -7s-16.833 -5.33398 -23.5 -8.00098c-4.66699 -3.33301 -8 -2.33301 -10 3l-9 21c-0.666992 4 1 7 5 9
c16.667 8 36.334 14.167 59.001 18.5s44 6.5 64 6.5c53.333 0 91.333 -12.833 114 -38.5s34 -62.5 34 -110.5v-285c0 -4.66699 -2.33301 -7 -7 -7h-26c-4 0 -6 2 -6 6v39c0 4.66699 -1 7 -3 7s-4 -1.33301 -6 -4c-26 -35.333 -64.667 -53 -116 -53
c-46 0 -81.5 13.167 -106.5 39.5s-37.5 60.833 -37.5 103.5zM66.9971 140c0 -31.333 8.66895 -57.667 26.002 -79s45.666 -32 84.999 -32c34 0 61.5 11 82.5 33s31.5 48.667 31.5 80c0 30.667 -9.83301 57 -29.5 79s-46.834 33 -81.501 33c-18 0 -34.167 -3 -48.5 -9
s-26.333 -14.167 -36 -24.5s-17 -22.5 -22 -36.5s-7.5 -28.667 -7.5 -44zM87.999 613.999c0 4 1.99902 6.00098 5.99902 6.00098h12c3.33301 0 5.5 -0.833008 6.5 -2.5s2.16699 -4.16699 3.5 -7.5c4 -22 13.833 -39 29.5 -51s33.167 -18 52.5 -18c18.667 0 36.167 6 52.5 18
s26.5 29 30.5 51l3 7.5c0.666992 1.66699 2.66699 2.5 6 2.5h12c4.66699 0 7 -2 7 -6c0 -16.667 -3.33301 -31.667 -10 -45s-15.167 -24.833 -25.5 -34.5s-22.166 -17 -35.499 -22s-27 -7.5 -41 -7.5s-27.5 2.66699 -40.5 8s-24.5 12.666 -34.5 21.999
s-18.167 20.833 -24.5 34.5s-9.5 28.5 -9.5 44.5z" />
    <glyph glyph-name="Aogonek" unicode="&#x104;" horiz-adv-x="445" 
d="M410 0c-16.667 -17.333 -29.999 -36.001 -39.999 -56.001s-15 -39 -15 -57c0 -11.333 3.33301 -20.333 10 -27s17.667 -10 33 -10c10 0 20.5 2.33301 31.5 7s20.5 10 28.5 16c2 2 4.66699 1.66699 8 -1l9 -11c2 -2 1.33301 -4.66699 -2 -8
c-10 -9.33301 -22.833 -17.166 -38.5 -23.499s-30.834 -9.5 -45.501 -9.5c-23.333 0 -40.833 6 -52.5 18s-17.5 29 -17.5 51c0 19.333 5.83301 39.833 17.5 61.5s25.167 39.167 40.5 52.5l7 6l-42 143c-0.666992 2.66699 -2.66699 4 -6 4h-231
c-2.66699 0 -4.33398 -1 -5.00098 -3c-0.666992 -3.33301 -3.16699 -12.333 -7.5 -27l-13.5 -46.5l-13.5 -46.5c-4.33301 -14.667 -6.83301 -23.667 -7.5 -27c-1.33301 -4 -4.33301 -6 -9 -6h-28c-3.33301 0 -5.66602 0.5 -6.99902 1.5s-1.33301 3.5 0 7.5l175 601
c1.33301 4.66699 4 7 8 7h47c5.33301 0 8.33301 -2.33301 9 -7l177 -599c2.66699 -7.33301 1 -11 -5 -11h-15zM181.001 436.999l-68 -237c-1.33301 -4.66699 -0.333008 -7 3 -7h209c4 0 5.66699 2 5 6l-70 239l-37 132c-0.666992 2 -1.5 3 -2.5 3s-1.83301 -1 -2.5 -3z" />
    <glyph glyph-name="aogonek" unicode="&#x105;" horiz-adv-x="382" 
d="M28 138c0 20.667 3.33105 39.999 9.99805 57.999s16.334 33.667 29.001 47s28.5 24 47.5 32s40.833 12 65.5 12c20.667 0 40.5 -3.66699 59.5 -11s34.167 -17.666 45.5 -30.999c2.66699 -2.66699 4.83398 -3.5 6.50098 -2.5s2.5 3.16699 2.5 6.5v46
c0 14 -1.5 27.5 -4.5 40.5s-8.5 24.5 -16.5 34.5s-19.167 18.167 -33.5 24.5s-32.5 9.5 -54.5 9.5c-8 0 -16.667 -0.5 -26 -1.5s-18.833 -2.5 -28.5 -4.5s-19 -4.33301 -28 -7s-16.833 -5.33398 -23.5 -8.00098c-4.66699 -3.33301 -8 -2.33301 -10 3l-9 21
c-0.666992 4 1 7 5 9c16.667 8 36.334 14.167 59.001 18.5s44 6.5 64 6.5c53.333 0 91.333 -12.833 114 -38.5s34 -62.5 34 -110.5v-285c0 -4.66699 -2.33301 -7 -7 -7h-11c-16.667 -17.333 -30 -36 -40 -56s-15 -39 -15 -57c0 -11.333 3.33301 -20.333 10 -27
s17.667 -10 33 -10c10 0 20.5 2.33301 31.5 7s20.5 10 28.5 16c2 2 4.66699 1.66699 8 -1l9 -11c2 -2 1.33301 -4.66699 -2 -8c-10 -9.33301 -22.833 -17.166 -38.5 -23.499s-30.834 -9.5 -45.501 -9.5c-23.333 0 -40.833 6 -52.5 18s-17.5 29 -17.5 51
c0 19.333 5.83301 39.833 17.5 61.5s25.167 39.167 40.5 52.5c4.66699 4.66699 8.66699 7.66699 12 9v33c0 4.66699 -1 7 -3 7s-4 -1.33301 -6 -4c-26 -35.333 -64.667 -53 -116 -53c-46 0 -81.5 13.167 -106.5 39.5s-37.5 60.833 -37.5 103.5zM66.998 139.999
c0 -31.333 8.66895 -57.667 26.002 -79s45.666 -32 84.999 -32c34 0 61.5 11 82.5 33s31.5 48.667 31.5 80c0 30.667 -9.83301 57 -29.5 79s-46.834 33 -81.501 33c-18 0 -34.167 -3 -48.5 -9s-26.333 -14.167 -36 -24.5s-17 -22.5 -22 -36.5s-7.5 -28.667 -7.5 -44z" />
    <glyph glyph-name="Cacute" unicode="&#x106;" horiz-adv-x="413" 
d="M385 71c5.33301 -4.66699 5.99609 -8.99805 1.99609 -12.998c-18.667 -20.667 -40.667 -36.5 -66 -47.5s-53.333 -16.5 -84 -16.5c-28 0 -53 4 -75 12s-40.667 19.167 -56 33.5s-27.166 31.5 -35.499 51.5s-12.5 42 -12.5 66v306c0 22.667 4.16699 43.834 12.5 63.501
s20.333 36.667 36 51s34.334 25.666 56.001 33.999s45.5 12.5 71.5 12.5c30 0 58.167 -5 84.5 -15s48.5 -26 66.5 -48c4 -4 3.66699 -8.33301 -1 -13l-18 -15c-4 -4 -8.66699 -3 -14 3c-12.667 16 -30 28.333 -52 37s-44 13 -66 13c-40 0 -72.167 -11.833 -96.5 -35.5
s-36.5 -53.167 -36.5 -88.5v-303c0 -18 3 -34.667 9 -50s14.667 -28.833 26 -40.5s25.5 -20.834 42.5 -27.501s36.5 -10 58.5 -10c21.333 0 42.333 4.16699 63 12.5s38.334 20.166 53.001 35.499c6.66699 7.33301 12.334 9 17.001 5zM222.996 646.002
c-4.66699 -2.66699 -9 -2.00098 -13 1.99902l-6 8c-3.33301 5.33301 -3 9.33301 1 12l109 93c5.33301 4.66699 10.333 4.33398 15 -0.999023l19 -23c6 -6 5.33301 -11 -2 -15z" />
    <glyph glyph-name="cacute" unicode="&#x107;" horiz-adv-x="371" 
d="M343 377c3.33301 -5.33301 2.66797 -9.33594 -1.99902 -12.0029l-18 -15c-4 -2.66699 -8.33301 -1.66699 -13 3c-11.333 16 -26 28.5 -44 37.5s-37.333 13.5 -58 13.5c-36 0 -65.333 -11.5 -88 -34.5s-34 -52.167 -34 -87.5v-129c0 -38 11.5 -67.833 34.5 -89.5
s52.5 -32.5 88.5 -32.5c24 0 44.333 4.5 61 13.5s30.667 21.167 42 36.5c2.66699 4.66699 6.33398 5.33398 11.001 2.00098l18 -11c3.33301 -2.66699 5.16602 -5 5.49902 -7s-0.166992 -4 -1.5 -6c-15.333 -22 -34.833 -38.167 -58.5 -48.5s-49.834 -15.5 -78.501 -15.5
c-51.333 0 -91.333 14.333 -120 43s-43 67 -43 115v128c0 24 4.16699 45.833 12.5 65.5s19.833 36.334 34.5 50.001s32 24.334 52 32.001s41.667 11.5 65 11.5c57.333 0 102 -21 134 -63zM205.002 493.997c-4 -4.66699 -8.33301 -5.66504 -13 -2.99805l-9 6
c-1.33301 1.33301 -2.5 2.83301 -3.5 4.5s-0.5 4.5 1.5 8.5l68 124c2 3.33301 4.33301 5.66602 7 6.99902s6.33398 0.666016 11.001 -2.00098l21 -13c4.66699 -2.66699 7 -5.66699 7 -9c0 -1.33301 -0.333008 -2.5 -1 -3.5s-1.33398 -2.16699 -2.00098 -3.5z" />
    <glyph glyph-name="Ccircumflex" unicode="&#x108;" horiz-adv-x="413" 
d="M385 71c5.33301 -4.66699 5.99609 -8.99805 1.99609 -12.998c-18.667 -20.667 -40.667 -36.5 -66 -47.5s-53.333 -16.5 -84 -16.5c-28 0 -53 4 -75 12s-40.667 19.167 -56 33.5s-27.166 31.5 -35.499 51.5s-12.5 42 -12.5 66v306c0 22.667 4.16699 43.834 12.5 63.501
s20.333 36.667 36 51s34.334 25.666 56.001 33.999s45.5 12.5 71.5 12.5c30 0 58.167 -5 84.5 -15s48.5 -26 66.5 -48c4 -4 3.66699 -8.33301 -1 -13l-18 -15c-4 -4 -8.66699 -3 -14 3c-12.667 16 -30 28.333 -52 37s-44 13 -66 13c-40 0 -72.167 -11.833 -96.5 -35.5
s-36.5 -53.167 -36.5 -88.5v-303c0 -18 3 -34.667 9 -50s14.667 -28.833 26 -40.5s25.5 -20.834 42.5 -27.501s36.5 -10 58.5 -10c21.333 0 42.333 4.16699 63 12.5s38.334 20.166 53.001 35.499c6.66699 7.33301 12.334 9 17.001 5zM207.996 757.002
c3.33301 3.33301 5.99902 5.33301 7.99902 6s4.66699 1 8 1h25c6 0 11 -2.33301 15 -7l94 -94c2.66699 -2.66699 4 -4.5 4 -5.5s-1.33301 -2.83301 -4 -5.5c-2 -1.33301 -4 -3 -6 -5s-4.66699 -3 -8 -3c-2.66699 0 -5 1 -7 3c-15.333 12.667 -31.166 25 -47.499 37l-48.5 37
c-4.66699 3.33301 -9 3.33301 -13 0l-92 -74c-2 -2 -4.33301 -3 -7 -3s-5.16699 1 -7.5 3s-4.5 3.66699 -6.5 5c-2 2 -3 3.66699 -3 5c0 2 1 4 3 6z" />
    <glyph glyph-name="ccircumflex" unicode="&#x109;" horiz-adv-x="371" 
d="M343 377c3.33301 -5.33301 2.66797 -9.33594 -1.99902 -12.0029l-18 -15c-4 -2.66699 -8.33301 -1.66699 -13 3c-11.333 16 -26 28.5 -44 37.5s-37.333 13.5 -58 13.5c-36 0 -65.333 -11.5 -88 -34.5s-34 -52.167 -34 -87.5v-129c0 -38 11.5 -67.833 34.5 -89.5
s52.5 -32.5 88.5 -32.5c24 0 44.333 4.5 61 13.5s30.667 21.167 42 36.5c2.66699 4.66699 6.33398 5.33398 11.001 2.00098l18 -11c3.33301 -2.66699 5.16602 -5 5.49902 -7s-0.166992 -4 -1.5 -6c-15.333 -22 -34.833 -38.167 -58.5 -48.5s-49.834 -15.5 -78.501 -15.5
c-51.333 0 -91.333 14.333 -120 43s-43 67 -43 115v128c0 24 4.16699 45.833 12.5 65.5s19.833 36.334 34.5 50.001s32 24.334 52 32.001s41.667 11.5 65 11.5c57.333 0 102 -21 134 -63zM329.002 516.997c4 -5.33301 4 -9.66699 0 -13l-8 -7
c-2.66699 -2.66699 -5 -3.5 -7 -2.5s-4 2.16699 -6 3.5l-97 96c-3.33301 3.33301 -6.66602 3.33301 -9.99902 0l-94 -96c-4 -5.33301 -8.33301 -6 -13 -2l-8 7c-4 4 -4.33301 8 -1 12l94 117c5.33301 5.33301 10.666 8 15.999 8h25c5.33301 0 10.333 -2.66699 15 -8z" />
    <glyph glyph-name="Cdotaccent" unicode="&#x10a;" horiz-adv-x="413" 
d="M385 71c5.33301 -4.66699 5.99609 -8.99805 1.99609 -12.998c-18.667 -20.667 -40.667 -36.5 -66 -47.5s-53.333 -16.5 -84 -16.5c-28 0 -53 4 -75 12s-40.667 19.167 -56 33.5s-27.166 31.5 -35.499 51.5s-12.5 42 -12.5 66v306c0 22.667 4.16699 43.834 12.5 63.501
s20.333 36.667 36 51s34.334 25.666 56.001 33.999s45.5 12.5 71.5 12.5c30 0 58.167 -5 84.5 -15s48.5 -26 66.5 -48c4 -4 3.66699 -8.33301 -1 -13l-18 -15c-4 -4 -8.66699 -3 -14 3c-12.667 16 -30 28.333 -52 37s-44 13 -66 13c-40 0 -72.167 -11.833 -96.5 -35.5
s-36.5 -53.167 -36.5 -88.5v-303c0 -18 3 -34.667 9 -50s14.667 -28.833 26 -40.5s25.5 -20.834 42.5 -27.501s36.5 -10 58.5 -10c21.333 0 42.333 4.16699 63 12.5s38.334 20.166 53.001 35.499c6.66699 7.33301 12.334 9 17.001 5zM261.996 720.002
c0 -8.66699 -3 -15.834 -9 -21.501s-12.667 -8.5 -20 -8.5c-8 0 -14.833 2.83301 -20.5 8.5s-8.5 12.5 -8.5 20.5c0 8.66699 2.83301 15.834 8.5 21.501s12.5 8.5 20.5 8.5s14.833 -2.66699 20.5 -8s8.5 -12.333 8.5 -21z" />
    <glyph glyph-name="cdotaccent" unicode="&#x10b;" horiz-adv-x="371" 
d="M343 377c3.33301 -5.33301 2.66797 -9.33594 -1.99902 -12.0029l-18 -15c-4 -2.66699 -8.33301 -1.66699 -13 3c-11.333 16 -26 28.5 -44 37.5s-37.333 13.5 -58 13.5c-36 0 -65.333 -11.5 -88 -34.5s-34 -52.167 -34 -87.5v-129c0 -38 11.5 -67.833 34.5 -89.5
s52.5 -32.5 88.5 -32.5c24 0 44.333 4.5 61 13.5s30.667 21.167 42 36.5c2.66699 4.66699 6.33398 5.33398 11.001 2.00098l18 -11c3.33301 -2.66699 5.16602 -5 5.49902 -7s-0.166992 -4 -1.5 -6c-15.333 -22 -34.833 -38.167 -58.5 -48.5s-49.834 -15.5 -78.501 -15.5
c-51.333 0 -91.333 14.333 -120 43s-43 67 -43 115v128c0 24 4.16699 45.833 12.5 65.5s19.833 36.334 34.5 50.001s32 24.334 52 32.001s41.667 11.5 65 11.5c57.333 0 102 -21 134 -63zM240.002 563.997c0 -8.66699 -3 -15.834 -9 -21.501s-12.667 -8.5 -20 -8.5
c-8 0 -14.833 2.83301 -20.5 8.5s-8.5 12.5 -8.5 20.5c0 8.66699 2.83301 15.834 8.5 21.501s12.5 8.5 20.5 8.5s14.833 -2.66699 20.5 -8s8.5 -12.333 8.5 -21z" />
    <glyph glyph-name="Ccaron" unicode="&#x10c;" horiz-adv-x="413" 
d="M385 71c5.33301 -4.66699 5.99609 -8.99805 1.99609 -12.998c-18.667 -20.667 -40.667 -36.5 -66 -47.5s-53.333 -16.5 -84 -16.5c-28 0 -53 4 -75 12s-40.667 19.167 -56 33.5s-27.166 31.5 -35.499 51.5s-12.5 42 -12.5 66v306c0 22.667 4.16699 43.834 12.5 63.501
s20.333 36.667 36 51s34.334 25.666 56.001 33.999s45.5 12.5 71.5 12.5c30 0 58.167 -5 84.5 -15s48.5 -26 66.5 -48c4 -4 3.66699 -8.33301 -1 -13l-18 -15c-4 -4 -8.66699 -3 -14 3c-12.667 16 -30 28.333 -52 37s-44 13 -66 13c-40 0 -72.167 -11.833 -96.5 -35.5
s-36.5 -53.167 -36.5 -88.5v-303c0 -18 3 -34.667 9 -50s14.667 -28.833 26 -40.5s25.5 -20.834 42.5 -27.501s36.5 -10 58.5 -10c21.333 0 42.333 4.16699 63 12.5s38.334 20.166 53.001 35.499c6.66699 7.33301 12.334 9 17.001 5zM108.996 745.002
c-2 2 -2.99902 4 -2.99902 6c0 1.33301 1 3 3 5c2 1.33301 4.16699 3 6.5 5s4.83301 3 7.5 3s5 -1 7 -3l92 -74c4 -3.33301 8.33301 -3.33301 13 0l48.5 37c16.333 12 32.166 24.333 47.499 37c2 2 4.33301 3 7 3c3.33301 0 6 -1 8 -3s4 -3.66699 6 -5
c2.66699 -2.66699 4 -4.5 4 -5.5s-1.33301 -2.83301 -4 -5.5l-94 -94c-4 -4.66699 -9 -7 -15 -7h-25c-6 0 -11.333 2.33301 -16 7z" />
    <glyph glyph-name="ccaron" unicode="&#x10d;" horiz-adv-x="371" 
d="M343 377c3.33301 -5.33301 2.66797 -9.33594 -1.99902 -12.0029l-18 -15c-4 -2.66699 -8.33301 -1.66699 -13 3c-11.333 16 -26 28.5 -44 37.5s-37.333 13.5 -58 13.5c-36 0 -65.333 -11.5 -88 -34.5s-34 -52.167 -34 -87.5v-129c0 -38 11.5 -67.833 34.5 -89.5
s52.5 -32.5 88.5 -32.5c24 0 44.333 4.5 61 13.5s30.667 21.167 42 36.5c2.66699 4.66699 6.33398 5.33398 11.001 2.00098l18 -11c3.33301 -2.66699 5.16602 -5 5.49902 -7s-0.166992 -4 -1.5 -6c-15.333 -22 -34.833 -38.167 -58.5 -48.5s-49.834 -15.5 -78.501 -15.5
c-51.333 0 -91.333 14.333 -120 43s-43 67 -43 115v128c0 24 4.16699 45.833 12.5 65.5s19.833 36.334 34.5 50.001s32 24.334 52 32.001s41.667 11.5 65 11.5c57.333 0 102 -21 134 -63zM194.002 490.997c-5.33301 0 -10.665 2.66602 -15.998 7.99902l-94 117
c-2 3.33301 -3 5.33301 -3 6s1.33301 2.33398 4 5.00098l9 8c1.33301 1.33301 2.66602 2.33301 3.99902 3s3.33301 -0.333008 6 -3l96 -99c1.33301 -1.33301 3 -2 5 -2c1.33301 0 3 1 5 3l54.5 53.5l42.5 41.5c2 2 3.66699 3.5 5 4.5s3.66602 0.166992 6.99902 -2.5l10 -8
c2.66699 -2.66699 3.66699 -4.66699 3 -6s-2 -3.33301 -4 -6l-94 -115c-4.66699 -5.33301 -9.66699 -8 -15 -8h-25z" />
    <glyph glyph-name="Dcaron" unicode="&#x10e;" horiz-adv-x="473" 
d="M422 167c0 -54 -14.667 -95.333 -44 -124s-70.333 -43 -123 -43h-186c-4.66699 0 -7 2.66699 -7 8v601c0 5.33301 2.33301 8 7 8h187c110.667 0 166 -53.667 166 -161v-289zM378 454c0 18 -2 34.666 -6 49.999s-10.833 28.5 -20.5 39.5s-22.5 19.667 -38.5 26
s-36 9.5 -60 9.5h-141c-2 0 -3.66699 -0.166992 -5 -0.5s-2 -2.16602 -2 -5.49902v-529c0 -4 2.33301 -6 7 -6h143c38 0 68 10.333 90 31s33 52 33 94v291zM84 744.999c-2 2 -2.99902 4 -2.99902 6c0 1.33301 1 3 3 5c2 1.33301 4.16699 3 6.5 5s4.83301 3 7.5 3s5 -1 7 -3
l92 -74c4 -3.33301 8.33301 -3.33301 13 0l48.5 37c16.333 12 32.166 24.333 47.499 37c2 2 4.33301 3 7 3c3.33301 0 6 -1 8 -3s4 -3.66699 6 -5c2.66699 -2.66699 4 -4.5 4 -5.5s-1.33301 -2.83301 -4 -5.5l-94 -94c-4 -4.66699 -9 -7 -15 -7h-25
c-6 0 -11.333 2.33301 -16 7z" />
    <glyph glyph-name="dcaron" unicode="&#x10f;" horiz-adv-x="487" 
d="M466 487c-1.33301 -6 -4.33301 -9 -9 -9h-13c-6 0 -8.33301 3.66699 -7 11l8 139c0 6 3 9 9 9h38c8 0 10.667 -4 8 -12zM372 6c0 -4 -2.33203 -6 -6.99902 -6h-26c-4 -0 -6 2.33301 -6 7v34c0 3.33301 -1 5.5 -3 6.5s-4.66699 -0.166992 -8 -3.5
c-11.333 -15.333 -27.333 -27.333 -48 -36s-43.334 -13 -68.001 -13c-25.333 0 -47.833 3.83301 -67.5 11.5s-36.167 18.5 -49.5 32.5s-23.5 30.5 -30.5 49.5s-10.5 39.833 -10.5 62.5v126c0 20 3 39.667 9 59s15.333 36.833 28 52.5s29 28.167 49 37.5s44 14 72 14
c25.333 0 48 -4.5 68 -13.5s35.333 -21.167 46 -36.5c3.33301 -4 5.83301 -5.33301 7.5 -4s2.5 4 2.5 8v236c0 4.66699 2.33301 7 7 7h28c4.66699 0 7 -2 7 -6v-625zM331.001 279c0 16.667 -3 32.666 -9 47.999s-14.333 28.5 -25 39.5s-23.334 19.833 -38.001 26.5
s-31 10 -49 10c-21.333 0 -39.666 -3.5 -54.999 -10.5s-27.833 -16.167 -37.5 -27.5s-16.834 -24.666 -21.501 -39.999s-7 -31.333 -7 -48v-124c0 -36 10.167 -65.5 30.5 -88.5s50.5 -34.5 90.5 -34.5c18 0 34.333 3 49 9s27.334 14.5 38.001 25.5s19 23.833 25 38.5
s9 30.667 9 48v128z" />
    <glyph glyph-name="Dcroat" unicode="&#x110;" horiz-adv-x="473" 
d="M422 167c0 -54 -14.667 -95.333 -44 -124s-70.333 -43 -123 -43h-186c-4.66699 0 -7 2.66699 -7 8v287c-1.33301 4.66699 -4.33301 7 -9 7h-42c-4.66699 0 -7 2.33301 -7 7v17c0 5.33301 2.33301 8 7 8h43c3.33301 0 5.5 0.5 6.5 1.5s1.5 3.5 1.5 7.5v266
c0 5.33301 2.33301 8 7 8h187c110.667 0 166 -53.667 166 -161v-289zM378 454c0 18 -2.00098 34.666 -6.00098 49.999s-10.833 28.5 -20.5 39.5s-22.5 19.667 -38.5 26s-36 9.5 -60 9.5h-141c-2 0 -3.66699 -0.166992 -5 -0.5s-2 -2.16602 -2 -5.49902v-236
c0.666992 -2 3 -3 7 -3h137c4.66699 0 7 -2.66699 7 -8v-17c0 -4.66699 -2.33301 -7 -7 -7h-137c-3.33301 0 -5.66602 -0.666992 -6.99902 -2v-256c0 -4 2.33301 -6 7 -6h143c38 0 68 10.333 90 31s33 52 33 94v291z" />
    <glyph glyph-name="dcroat" unicode="&#x111;" horiz-adv-x="437" 
d="M322 538c5.33301 0 8.00195 3.33301 8.00195 10v76c0 4 2.33301 6 7 6h28c4.66699 0 7 -2 7 -6v-76c0 -4.66699 0.666992 -7.5 2 -8.5s3.66602 -1.5 6.99902 -1.5h36c4 0 6 -2.33301 6 -7v-17c0 -4.66699 -2 -7 -6 -7h-35c-6.66699 0 -10 -3 -10 -9v-492
c0 -4 -2.33301 -6 -7 -6h-26c-4 -0 -6 2.33301 -6 7v34c0 3.33301 -1 5.5 -3 6.5s-4.66699 -0.166992 -8 -3.5c-11.333 -15.333 -27.333 -27.333 -48 -36s-43.334 -13 -68.001 -13s-46.834 3.83301 -66.501 11.5s-36.167 18.5 -49.5 32.5s-23.666 30.5 -30.999 49.5
s-11 39.833 -11 62.5v126c0 20 3.16699 39.667 9.5 59s16 36.833 29 52.5s29.5 28.167 49.5 37.5s43.333 14 70 14c25.333 0 48 -4.5 68 -13.5s35.333 -21.167 46 -36.5c3.33301 -4 5.83301 -5.33301 7.5 -4s2.5 4 2.5 8v104c0 6 -2.66699 9 -8 9h-71c-4 0 -6 2.33301 -6 7
v17c0 4.66699 2.33301 7 7 7h70zM331.002 279c0 16.667 -2.99902 32.666 -8.99902 47.999s-14.333 28.5 -25 39.5s-23.334 19.833 -38.001 26.5s-31 10 -49 10c-19.333 0 -36.333 -3.5 -51 -10.5s-27.334 -16.167 -38.001 -27.5s-18.667 -24.666 -24 -39.999
s-8 -31.333 -8 -48v-124c0 -36 10.667 -65.5 32 -88.5s51 -34.5 89 -34.5c18 0 34.333 3 49 9s27.334 14.5 38.001 25.5s19 23.833 25 38.5s9 30.667 9 48v128z" />
    <glyph glyph-name="Emacron" unicode="&#x112;" horiz-adv-x="429" 
d="M399 8c0 -5.33301 -2.66699 -8.00098 -8 -8.00098h-322c-5.33301 0 -8 2.66699 -8 8v601c0 5.33301 2.66699 8 8 8h310c4.66699 0 7 -2.66699 7 -8v-23c0 -4.66699 -2.33301 -7 -7 -7h-267c-2.66699 0 -4.66699 -0.166992 -6 -0.5s-2 -2.16602 -2 -5.49902v-229
c0 -4 2.33301 -6 7 -6h233c4.66699 0 7 -2.66699 7 -8v-23c0 -4.66699 -2.33301 -7 -7 -7h-233c-4.66699 0 -7 -2.33301 -7 -7v-249c0 -4 2.33301 -6 7 -6h280c5.33301 0 8 -2.33301 8 -7v-23zM314 687.999c0 -4 -2 -6 -6 -6h-182c-4 0 -6 2 -6 6v21c0 4.66699 2 7 6 7h181
c4.66699 0 7 -2.33301 7 -7v-21z" />
    <glyph glyph-name="emacron" unicode="&#x113;" horiz-adv-x="408" 
d="M372 231c0 -6 -1.49902 -10.332 -4.49902 -12.999s-6.16699 -4 -9.5 -4h-257c-8 0 -12 -4.33301 -12 -13v-48c0 -34.667 11 -63.667 33 -87s51.667 -35 89 -35c22 0 41.5 4.33301 58.5 13s31.167 20.667 42.5 36c4 5.33301 8.33301 6.33301 13 3l19 -12
c4 -3.33301 5.33301 -7 4 -11c-14 -21.333 -33 -37.5 -57 -48.5s-51 -16.5 -81 -16.5c-50 0 -89.5 14.167 -118.5 42.5s-43.5 66.5 -43.5 114.5v126c0 25.333 4.16699 48 12.5 68s19.666 37 33.999 51s31.333 24.667 51 32s40.834 11 63.501 11c23.333 0 45 -3.5 65 -10.5
s37.167 -17.333 51.5 -31s25.666 -30.834 33.999 -51.501s12.5 -45 12.5 -73v-43zM330.001 283.001c0 35.333 -11.001 64.334 -33.001 87.001s-51.333 34 -88 34c-17.333 0 -33.166 -3 -47.499 -9s-27 -14.5 -38 -25.5s-19.5 -23.833 -25.5 -38.5s-9 -30.334 -9 -47.001v-24
c0 -7.33301 4 -11 12 -11h220c6 0 9 3.66699 9 11v23zM304 538.002c0 -4.66699 -2 -7 -6 -7h-182c-4 0 -6 2.33301 -6 7v20c0 4.66699 2 7 6 7h181c4.66699 0 7 -2.33301 7 -7v-20z" />
    <glyph glyph-name="Ebreve" unicode="&#x114;" horiz-adv-x="429" 
d="M399 8c0 -5.33301 -2.66699 -8.00098 -8 -8.00098h-322c-5.33301 0 -8 2.66699 -8 8v601c0 5.33301 2.66699 8 8 8h310c4.66699 0 7 -2.66699 7 -8v-23c0 -4.66699 -2.33301 -7 -7 -7h-267c-2.66699 0 -4.66699 -0.166992 -6 -0.5s-2 -2.16602 -2 -5.49902v-229
c0 -4 2.33301 -6 7 -6h233c4.66699 0 7 -2.66699 7 -8v-23c0 -4.66699 -2.33301 -7 -7 -7h-233c-4.66699 0 -7 -2.33301 -7 -7v-249c0 -4 2.33301 -6 7 -6h280c5.33301 0 8 -2.33301 8 -7v-23zM110 753.999c0 4.66699 2 7.00098 6 7.00098h13c3.33301 0 5.33301 -1 6 -3
s1.66699 -4.66699 3 -8c4 -22 13.833 -39 29.5 -51s33.167 -18 52.5 -18c18.667 0 36.167 6.16699 52.5 18.5s26.5 29.166 30.5 50.499c1.33301 3.33301 2.33301 6 3 8s2.66699 3 6 3h12c4.66699 0 7 -2.33301 7 -7c0 -16 -3.16699 -30.833 -9.5 -44.5
s-14.833 -25.167 -25.5 -34.5s-22.667 -16.666 -36 -21.999s-27 -8 -41 -8s-27.5 2.66699 -40.5 8s-24.5 12.666 -34.5 21.999s-18.167 20.833 -24.5 34.5s-9.5 28.5 -9.5 44.5z" />
    <glyph glyph-name="ebreve" unicode="&#x115;" horiz-adv-x="408" 
d="M372 231c0 -6 -1.49902 -10.332 -4.49902 -12.999s-6.16699 -4 -9.5 -4h-257c-8 0 -12 -4.33301 -12 -13v-48c0 -34.667 11 -63.667 33 -87s51.667 -35 89 -35c22 0 41.5 4.33301 58.5 13s31.167 20.667 42.5 36c4 5.33301 8.33301 6.33301 13 3l19 -12
c4 -3.33301 5.33301 -7 4 -11c-14 -21.333 -33 -37.5 -57 -48.5s-51 -16.5 -81 -16.5c-50 0 -89.5 14.167 -118.5 42.5s-43.5 66.5 -43.5 114.5v126c0 25.333 4.16699 48 12.5 68s19.666 37 33.999 51s31.333 24.667 51 32s40.834 11 63.501 11c23.333 0 45 -3.5 65 -10.5
s37.167 -17.333 51.5 -31s25.666 -30.834 33.999 -51.501s12.5 -45 12.5 -73v-43zM330.001 283.001c0 35.333 -11.001 64.334 -33.001 87.001s-51.333 34 -88 34c-17.333 0 -33.166 -3 -47.499 -9s-27 -14.5 -38 -25.5s-19.5 -23.833 -25.5 -38.5s-9 -30.334 -9 -47.001v-24
c0 -7.33301 4 -11 12 -11h220c6 0 9 3.66699 9 11v23zM95 614.002c0 4 1.99902 6.00098 5.99902 6.00098h12c3.33301 0 5.5 -0.833008 6.5 -2.5s2.16699 -4.16699 3.5 -7.5c4 -22 13.833 -39 29.5 -51s33.167 -18 52.5 -18c18.667 0 36.167 6 52.5 18s26.5 29 30.5 51l3 7.5
c0.666992 1.66699 2.66699 2.5 6 2.5h12c4.66699 0 7 -2 7 -6c0 -16.667 -3.33301 -31.667 -10 -45s-15.167 -24.833 -25.5 -34.5s-22.166 -17 -35.499 -22s-27 -7.5 -41 -7.5s-27.5 2.66699 -40.5 8s-24.5 12.666 -34.5 21.999s-18.167 20.833 -24.5 34.5
s-9.5 28.5 -9.5 44.5z" />
    <glyph glyph-name="Edotaccent" unicode="&#x116;" horiz-adv-x="429" 
d="M399 8c0 -5.33301 -2.66699 -8.00098 -8 -8.00098h-322c-5.33301 0 -8 2.66699 -8 8v601c0 5.33301 2.66699 8 8 8h310c4.66699 0 7 -2.66699 7 -8v-23c0 -4.66699 -2.33301 -7 -7 -7h-267c-2.66699 0 -4.66699 -0.166992 -6 -0.5s-2 -2.16602 -2 -5.49902v-229
c0 -4 2.33301 -6 7 -6h233c4.66699 0 7 -2.66699 7 -8v-23c0 -4.66699 -2.33301 -7 -7 -7h-233c-4.66699 0 -7 -2.33301 -7 -7v-249c0 -4 2.33301 -6 7 -6h280c5.33301 0 8 -2.33301 8 -7v-23zM254 713.999c0 -8.66699 -3 -15.834 -9 -21.501s-12.667 -8.5 -20 -8.5
c-8 0 -14.833 2.83301 -20.5 8.5s-8.5 12.5 -8.5 20.5c0 8.66699 2.83301 15.834 8.5 21.501s12.5 8.5 20.5 8.5s14.833 -2.66699 20.5 -8s8.5 -12.333 8.5 -21z" />
    <glyph glyph-name="edotaccent" unicode="&#x117;" horiz-adv-x="408" 
d="M372 231c0 -6 -1.49902 -10.332 -4.49902 -12.999s-6.16699 -4 -9.5 -4h-257c-8 0 -12 -4.33301 -12 -13v-48c0 -34.667 11 -63.667 33 -87s51.667 -35 89 -35c22 0 41.5 4.33301 58.5 13s31.167 20.667 42.5 36c4 5.33301 8.33301 6.33301 13 3l19 -12
c4 -3.33301 5.33301 -7 4 -11c-14 -21.333 -33 -37.5 -57 -48.5s-51 -16.5 -81 -16.5c-50 0 -89.5 14.167 -118.5 42.5s-43.5 66.5 -43.5 114.5v126c0 25.333 4.16699 48 12.5 68s19.666 37 33.999 51s31.333 24.667 51 32s40.834 11 63.501 11c23.333 0 45 -3.5 65 -10.5
s37.167 -17.333 51.5 -31s25.666 -30.834 33.999 -51.501s12.5 -45 12.5 -73v-43zM330.001 283.001c0 35.333 -11.001 64.334 -33.001 87.001s-51.333 34 -88 34c-17.333 0 -33.166 -3 -47.499 -9s-27 -14.5 -38 -25.5s-19.5 -23.833 -25.5 -38.5s-9 -30.334 -9 -47.001v-24
c0 -7.33301 4 -11 12 -11h220c6 0 9 3.66699 9 11v23zM242 564.002c0 -8.66699 -3 -15.834 -9 -21.501s-12.667 -8.5 -20 -8.5c-8 0 -14.833 2.83301 -20.5 8.5s-8.5 12.5 -8.5 20.5c0 8.66699 2.83301 15.834 8.5 21.501s12.5 8.5 20.5 8.5s14.833 -2.66699 20.5 -8
s8.5 -12.333 8.5 -21z" />
    <glyph glyph-name="Eogonek" unicode="&#x118;" horiz-adv-x="429" 
d="M399 8c0 -5.33301 -2.66699 -8.00195 -8 -8.00195h-41c-16.667 -17.333 -30 -36 -40 -56s-15 -39 -15 -57c0 -11.333 3.33301 -20.333 10 -27s17.667 -10 33 -10c10 0 20.5 2.33301 31.5 7s20.5 10 28.5 16c2 2 4.66699 1.66699 8 -1l9 -11c2 -2 1.33301 -4.66699 -2 -8
c-10 -9.33301 -22.833 -17.166 -38.5 -23.499s-30.834 -9.5 -45.501 -9.5c-23.333 0 -40.833 6 -52.5 18s-17.5 29 -17.5 51c0 18.667 5.33301 38.5 16 59.5s23.334 38.167 38.001 51.5h-244c-5.33301 0 -8 2.66699 -8 8v601c0 5.33301 2.66699 8 8 8h310
c4.66699 0 7 -2.66699 7 -8v-23c0 -4.66699 -2.33301 -7 -7 -7h-267c-2.66699 0 -4.66699 -0.166992 -6 -0.5s-2 -2.16602 -2 -5.49902v-229c0 -4 2.33301 -6 7 -6h233c4.66699 0 7 -2.66699 7 -8v-23c0 -4.66699 -2.33301 -7 -7 -7h-233c-4.66699 0 -7 -2.33301 -7 -7v-249
c0 -4 2.33301 -6 7 -6h280c5.33301 0 8 -2.33301 8 -7v-23v0z" />
    <glyph glyph-name="eogonek" unicode="&#x119;" horiz-adv-x="408" 
d="M372 231c0 -6 -1.49707 -10.334 -4.49707 -13.001s-6.16699 -4 -9.5 -4h-257c-8 0 -12 -4.33301 -12 -13v-48c0 -34.667 11 -63.667 33 -87s51.667 -35 89 -35c22 0 41.5 4.33301 58.5 13s31.167 20.667 42.5 36c4 5.33301 8.33301 6.33301 13 3l19 -12
c4 -3.33301 5.33301 -7 4 -11c-12.667 -18.667 -28.334 -33 -47.001 -43c-16.667 -17.333 -30 -36 -40 -56s-15 -39 -15 -57c0 -11.333 3.33301 -20.333 10 -27s17.667 -10 33 -10c10 0 20.5 2.33301 31.5 7s20.5 10 28.5 16c2 2 4.66699 1.66699 8 -1l9 -11
c2 -2 1.33301 -4.66699 -2 -8c-10 -9.33301 -22.833 -17.166 -38.5 -23.499s-30.834 -9.5 -45.501 -9.5c-23.333 0 -40.833 6 -52.5 18s-17.5 29 -17.5 51c0 14.667 3.5 30.334 10.5 47.001s15.833 31.667 26.5 45c-12 -2 -24.333 -3 -37 -3c-50 0 -89.5 14.167 -118.5 42.5
s-43.5 66.5 -43.5 114.5v126c0 25.333 4.16699 48 12.5 68s19.666 37 33.999 51s31.333 24.667 51 32s40.834 11 63.501 11c23.333 0 45 -3.5 65 -10.5s37.167 -17.333 51.5 -31s25.666 -30.834 33.999 -51.501s12.5 -45 12.5 -73v-43zM330.003 282.999
c0 35.333 -11.001 64.334 -33.001 87.001s-51.333 34 -88 34c-17.333 0 -33.166 -3 -47.499 -9s-27 -14.5 -38 -25.5s-19.5 -23.833 -25.5 -38.5s-9 -30.334 -9 -47.001v-24c0 -7.33301 4 -11 12 -11h220c6 0 9 3.66699 9 11v23z" />
    <glyph glyph-name="Ecaron" unicode="&#x11a;" horiz-adv-x="429" 
d="M399 8c0 -5.33301 -2.66699 -8.00098 -8 -8.00098h-322c-5.33301 0 -8 2.66699 -8 8v601c0 5.33301 2.66699 8 8 8h310c4.66699 0 7 -2.66699 7 -8v-23c0 -4.66699 -2.33301 -7 -7 -7h-267c-2.66699 0 -4.66699 -0.166992 -6 -0.5s-2 -2.16602 -2 -5.49902v-229
c0 -4 2.33301 -6 7 -6h233c4.66699 0 7 -2.66699 7 -8v-23c0 -4.66699 -2.33301 -7 -7 -7h-233c-4.66699 0 -7 -2.33301 -7 -7v-249c0 -4 2.33301 -6 7 -6h280c5.33301 0 8 -2.33301 8 -7v-23zM97 744.999c-2 2 -2.99902 4 -2.99902 6c0 1.33301 1 3 3 5
c2 1.33301 4.16699 3 6.5 5s4.83301 3 7.5 3s5 -1 7 -3l92 -74c4 -3.33301 8.33301 -3.33301 13 0l48.5 37c16.333 12 32.166 24.333 47.499 37c2 2 4.33301 3 7 3c3.33301 0 6 -1 8 -3s4 -3.66699 6 -5c2.66699 -2.66699 4 -4.5 4 -5.5s-1.33301 -2.83301 -4 -5.5l-94 -94
c-4 -4.66699 -9 -7 -15 -7h-25c-6 0 -11.333 2.33301 -16 7z" />
    <glyph glyph-name="ecaron" unicode="&#x11b;" horiz-adv-x="408" 
d="M372 231c0 -6 -1.49902 -10.332 -4.49902 -12.999s-6.16699 -4 -9.5 -4h-257c-8 0 -12 -4.33301 -12 -13v-48c0 -34.667 11 -63.667 33 -87s51.667 -35 89 -35c22 0 41.5 4.33301 58.5 13s31.167 20.667 42.5 36c4 5.33301 8.33301 6.33301 13 3l19 -12
c4 -3.33301 5.33301 -7 4 -11c-14 -21.333 -33 -37.5 -57 -48.5s-51 -16.5 -81 -16.5c-50 0 -89.5 14.167 -118.5 42.5s-43.5 66.5 -43.5 114.5v126c0 25.333 4.16699 48 12.5 68s19.666 37 33.999 51s31.333 24.667 51 32s40.834 11 63.501 11c23.333 0 45 -3.5 65 -10.5
s37.167 -17.333 51.5 -31s25.666 -30.834 33.999 -51.501s12.5 -45 12.5 -73v-43zM330.001 283.001c0 35.333 -11.001 64.334 -33.001 87.001s-51.333 34 -88 34c-17.333 0 -33.166 -3 -47.499 -9s-27 -14.5 -38 -25.5s-19.5 -23.833 -25.5 -38.5s-9 -30.334 -9 -47.001v-24
c0 -7.33301 4 -11 12 -11h220c6 0 9 3.66699 9 11v23zM194 491.002c-5.33301 0 -10.665 2.66602 -15.998 7.99902l-94 117c-2 3.33301 -3 5.33301 -3 6s1.33301 2.33398 4 5.00098l9 8c1.33301 1.33301 2.66602 2.33301 3.99902 3s3.33301 -0.333008 6 -3l96 -99
c1.33301 -1.33301 3 -2 5 -2c1.33301 0 3 1 5 3l54.5 53.5l42.5 41.5c2 2 3.66699 3.5 5 4.5s3.66602 0.166992 6.99902 -2.5l10 -8c2.66699 -2.66699 3.66699 -4.66699 3 -6s-2 -3.33301 -4 -6l-94 -115c-4.66699 -5.33301 -9.66699 -8 -15 -8h-25z" />
    <glyph glyph-name="Gcircumflex" unicode="&#x11c;" horiz-adv-x="461" 
d="M414 156c0 -23.333 -4.16113 -45.0039 -12.4941 -65.0039s-20.333 -37.333 -36 -52s-34.334 -26 -56.001 -34s-45.834 -12 -72.501 -12c-26 0 -49.833 3.66699 -71.5 11s-40.5 18 -56.5 32s-28.5 31 -37.5 51s-13.5 42.667 -13.5 68v310c0 22.667 4.5 43.667 13.5 63
s21.5 36.166 37.5 50.499s34.833 25.5 56.5 33.5s45.167 12 70.5 12c30 0 59.167 -5.33301 87.5 -16s50.166 -26.667 65.499 -48c3.33301 -4.66699 2.66602 -9 -2.00098 -13l-18 -14c-5.33301 -4.66699 -10.333 -3.66699 -15 3c-12.667 17.333 -30 30 -52 38
s-43.667 12 -65 12c-20 0 -38.333 -3.16699 -55 -9.5s-31 -15.166 -43 -26.499s-21.333 -24.666 -28 -39.999s-10 -31.666 -10 -48.999v-304c0 -19.333 3.5 -36.666 10.5 -51.999s16.667 -28.5 29 -39.5s26.666 -19.5 42.999 -25.5s34.166 -9 53.499 -9
c38.667 0 70.5 10.833 95.5 32.5s37.5 52.834 37.5 93.501v128c0 4.66699 -2 7 -6 7h-88c-5.33301 0 -8 2.33301 -8 7v24c0 5.33301 2.66699 8 8 8h129c6 0 9 -2.66699 9 -8v-167zM197.006 756.996c3.33301 3.33301 5.99902 5.33301 7.99902 6s4.66699 1 8 1h25
c6 0 11 -2.33301 15 -7l94 -94c2.66699 -2.66699 4 -4.5 4 -5.5s-1.33301 -2.83301 -4 -5.5c-2 -1.33301 -4 -3 -6 -5s-4.66699 -3 -8 -3c-2.66699 0 -5 1 -7 3c-15.333 12.667 -31.166 25 -47.499 37l-48.5 37c-4.66699 3.33301 -9 3.33301 -13 0l-92 -74
c-2 -2 -4.33301 -3 -7 -3s-5.16699 1 -7.5 3s-4.5 3.66699 -6.5 5c-2 2 -3 3.66699 -3 5c0 2 1 4 3 6z" />
    </font>
</defs>
</svg>
