<?xml version="1.0" standalone="no"?>
<!DOCTYPE svg PUBLIC "-//W3C//DTD SVG 1.1//EN" "http://www.w3.org/Graphics/SVG/1.1/DTD/svg11.dtd" >
<svg>
<metadata>
Created by FontForge 20090914 at Fri Oct 12 07:49:02 2018
 By www-data
Copyright (c) 2005 Parachute&#194;&#168;, www.parachute.gr.  All rights reserved.
</metadata>
<defs>
<font id="PFHandbookPro-ExtraThin" horiz-adv-x="1818" >
  <font-face 
    font-family="PF Handbook Pro Extra Thin"
    font-weight="100"
    font-stretch="normal"
    units-per-em="1000"
    panose-1="2 0 5 6 4 0 0 2 0 4"
    ascent="750"
    descent="-250"
    x-height="433"
    cap-height="617"
    bbox="-148.499 -204.001 1760 913.002"
    underline-thickness="30"
    underline-position="-65"
    unicode-range="U+0020-U+FB05"
  />
<missing-glyph horiz-adv-x="428" 
d="M0 700h428v-700h-428v700zM408 27v650l-179 -327zM20 29l179 321l-179 322v-643zM384 679h-340l170 -310zM384 21l-170 310l-170 -310h340z" />
    <glyph glyph-name="fj" unicode="fj" horiz-adv-x="369" 
d="M158 -157c0.666992 2.66699 2.66895 3.66797 6.00195 3.00098c5.33301 -1.33301 12.166 -2.66602 20.499 -3.99902s15.5 -2 21.5 -2c32.667 0 54 9.16699 64 27.5s15 46.166 15 83.499v459c0 2 -1.33301 3 -4 3h-176c-2.66699 -0.666992 -4 -3.33398 -4 -8.00098v-400
c0 -3.33301 -1.66699 -5 -5 -5h-13c-4 0 -6 1.66699 -6 5v400c0 4.66699 -1.33301 7.33398 -4 8.00098h-52c-3.33301 0 -5 1.66699 -5 5v9c0 4 1.66699 6 5 6h50c4.66699 0 7 2.66699 7 8v69c0 23.333 3.33301 43.166 10 59.499s15.334 29.5 26.001 39.5s23 17.333 37 22
s28.333 7 43 7c25.333 0 47.333 -4 66 -12s33.667 -17.667 45 -29c2 -2.66699 2 -5 0 -7l-6 -7c-3.33301 -3.33301 -6.33301 -3.66602 -9 -0.999023c-8.66699 9.33301 -21.5 17.666 -38.5 24.999s-36.5 11 -58.5 11c-32 0 -55.333 -10.5 -70 -31.5s-22 -47.5 -22 -79.5v-66
c0 -5.33301 2 -8 6 -8h196c4 0 6 -2 6 -6v-484c0 -23.333 -2.33301 -43 -7 -59s-11.334 -28.833 -20.001 -38.5s-19.5 -16.5 -32.5 -20.5s-27.833 -6 -44.5 -6c-8.66699 0 -17.334 0.5 -26.001 1.5s-15.667 2.5 -21 4.5c-2.66699 0.666992 -3.66699 2.66699 -3 6z" />
    <glyph glyph-name="ffj" unicode="ffj" horiz-adv-x="584" 
d="M225 626c36 0 66.0029 -6.33301 90.0029 -19c3.33301 -2 6 -2 8 0c24.667 25.333 54.334 38 89.001 38c25.333 0 46.833 -4 64.5 -12s32.167 -17.667 43.5 -29c2 -2.66699 2 -5 0 -7l-6 -7c-3.33301 -3.33301 -6.33301 -3.66602 -9 -0.999023
c-8.66699 9.33301 -21 17.666 -37 24.999s-35 11 -57 11c-32 0 -55.5 -10.333 -70.5 -31s-22.5 -45.667 -22.5 -75v-78c0 -5.33301 2 -8 6 -8h194c4 0 6 -2 6 -6v-484c0 -23.333 -2.33301 -43 -7 -59s-11.334 -28.833 -20.001 -38.5s-19.5 -16.5 -32.5 -20.5
s-27.833 -6 -44.5 -6c-8.66699 0 -17.334 0.5 -26.001 1.5s-15.667 2.5 -21 4.5c-2.66699 0.666992 -3.66699 2.66699 -3 6l3 12c0.666992 2.66699 2.66699 3.66699 6 3c5.33301 -1.33301 12.166 -2.66602 20.499 -3.99902s15.5 -2 21.5 -2c32.667 0 54 9.16699 64 27.5
s15 46.166 15 83.499v459c0 2 -1.33301 3 -4 3h-174c-2.66699 -0.666992 -4 -3.33398 -4 -8.00098v-400c0 -3.33301 -1.66699 -5 -5 -5h-13c-4 0 -6 1.66699 -6 5v400c0 4.66699 -1.33301 7.33398 -4 8.00098h-174c-2.66699 -0.666992 -4 -3.33398 -4 -8.00098v-400
c0 -3.33301 -1.66699 -5 -5 -5h-13c-4 0 -6 1.66699 -6 5v400c0 4.66699 -1.33301 7.33398 -4 8.00098h-52c-3.33301 0 -5 1.66699 -5 5v9c0 4 1.66699 6 5 6h50c4.66699 0 7 2.66699 7 8v55c0 23.333 3.66699 43.333 11 60s17.166 30.167 29.499 40.5
s26.833 17.833 43.5 22.5s34 7 52 7zM295.003 522c0 22.667 3.66602 42.333 10.999 59c2 3.33301 0.666992 6 -4 8c-13.333 5.33301 -26.666 9.5 -39.999 12.5s-25 4.5 -35 4.5c-43.333 0 -73.333 -10.5 -90 -31.5s-25 -49.833 -25 -86.5v-47c0 -5.33301 2 -8 6 -8h170
c4.66699 0 7 2.66699 7 8v81z" />
    <glyph glyph-name="ff" unicode="ff" horiz-adv-x="464" 
d="M307 441c0 -5.33301 1.99902 -8 5.99902 -8h135c3.33301 0 5 -2 5 -6v-9c0 -3.33301 -1.33301 -5 -4 -5h-138c-2.66699 -0.666992 -4 -3.33398 -4 -8.00098v-400c0 -3.33301 -1.66699 -5 -5 -5h-13c-4 0 -6 1.66699 -6 5v400c0 4.66699 -1.33301 7.33398 -4 8.00098h-174
c-2.66699 -0.666992 -4 -3.33398 -4 -8.00098v-400c0 -3.33301 -1.66699 -5 -5 -5h-13c-4 0 -6 1.66699 -6 5v400c0 4.66699 -1.33301 7.33398 -4 8.00098h-52c-3.33301 0 -5 1.66699 -5 5v9c0 4 1.66699 6 5 6h50c4.66699 0 7 2.66699 7 8v55
c0 23.333 3.66699 43.333 11 60s17.166 30.167 29.499 40.5s26.833 17.833 43.5 22.5s34 7 52 7c36 0 66 -6.33301 90 -19c3.33301 -2 6 -2 8 0c24.667 25.333 54.334 38 89.001 38c21.333 0 39.333 -3 54 -9s27.334 -12.667 38.001 -20
c4 -2.66699 4.66699 -5.33398 2 -8.00098l-6 -8c-1.33301 -1.33301 -3 -1.66602 -5 -0.999023c-9.33301 7.33301 -21 13.5 -35 18.5s-30.333 7.5 -49 7.5c-32 0 -55.5 -10.333 -70.5 -31s-22.5 -45.667 -22.5 -75v-78zM283.999 522c0 22.667 3.66602 42.333 10.999 59
c2 3.33301 0.666992 6 -4 8c-13.333 5.33301 -26.666 9.5 -39.999 12.5s-25 4.5 -35 4.5c-43.333 0 -73.333 -10.5 -90 -31.5s-25 -49.833 -25 -86.5v-47c0 -5.33301 2 -8 6 -8h170c4.66699 0 7 2.66699 7 8v81z" />
    <glyph glyph-name="fi" unicode="fi" horiz-adv-x="370" 
d="M309 5c0 -3.33301 -1.66699 -4.99902 -5 -4.99902h-12c-4 0 -6 1.66699 -6 5v405c0 2 -1.33301 3 -4 3h-177c-2.66699 -0.666992 -4 -3.33398 -4 -8.00098v-400c0 -3.33301 -1.66699 -5 -5 -5h-13c-4 0 -6 1.66699 -6 5v400c0 4.66699 -1.33301 7.33398 -4 8.00098h-52
c-3.33301 0 -5 1.66699 -5 5v9c0 4 1.66699 6 5 6h50c4.66699 0 7 2.66699 7 8v69c0 23.333 3.33301 43.166 10 59.499s15.5 29.5 26.5 39.5s23.667 17.333 38 22s29.166 7 44.499 7c25.333 0 47.333 -4 66 -12s33.667 -17.667 45 -29c2 -2.66699 2 -5 0 -7l-6 -7
c-3.33301 -3.33301 -6.33301 -3.66602 -9 -0.999023c-8.66699 9.33301 -21.5 17.666 -38.5 24.999s-36.5 11 -58.5 11c-18 0 -33 -2.83301 -45 -8.5s-21.667 -13.5 -29 -23.5s-12.666 -21.667 -15.999 -35s-5 -28 -5 -44v-66c0 -5.33301 2 -8 6 -8h196c4 0 6 -2 6 -6v-422z
" />
    <glyph glyph-name="fl" unicode="fl" horiz-adv-x="395" 
d="M229 433c3.33301 0 4.99707 -1.99902 4.99707 -5.99902v-9c0 -3.33301 -1.33301 -5 -4 -5h-125c-2.66699 -0.666992 -4 -3.33398 -4 -8.00098v-400c0 -3.33301 -1.66699 -5 -5 -5h-13c-4 0 -6 1.66699 -6 5v400c0 4.66699 -1.33301 7.33398 -4 8.00098h-52
c-3.33301 0 -5 1.66699 -5 5v9c0 4 1.66699 6 5 6h50c4.66699 0 7 2.66699 7 8v69c0 23.333 3.33301 43.166 10 59.499s15.334 29.5 26.001 39.5s22.834 17.333 36.501 22s27.834 7 42.501 7c38 0 70.667 -8.33301 98 -25l12 7c4 1.33301 6 -0.333984 6 -5.00098v-533
c0 -18.667 2.83301 -34.167 8.5 -46.5s19.5 -18.5 41.5 -18.5h9c3.33301 0.666992 5.33301 0.333984 6 -0.999023s1 -2.66602 1 -3.99902v-12c0 -2.66699 -2.33301 -4.33398 -7 -5.00098c-18 -1.33301 -32.333 0 -43 4s-18.834 9.83301 -24.501 17.5
s-9.33398 16.667 -11.001 27s-2.5 21.166 -2.5 32.499v517c-15.333 9.33301 -30.166 15.833 -44.499 19.5s-31.166 5.5 -50.499 5.5c-33.333 0 -56.833 -10.667 -70.5 -32s-20.5 -47.666 -20.5 -78.999v-66c0 -5.33301 2 -8 6 -8h122z" />
    <glyph glyph-name="ffi" unicode="ffi" horiz-adv-x="586" 
d="M526 5c0 -3.33301 -1.66699 -5 -5 -5h-13c-4 0 -6 1.66699 -6 5v405c0 2 -1.33301 3 -4 3h-176c-2.66699 -0.666992 -4 -3.33398 -4 -8.00098v-400c0 -3.33301 -1.66699 -5 -5 -5h-13c-4 0 -6 1.66699 -6 5v400c0 4.66699 -1.33301 7.33398 -4 8.00098h-174
c-2.66699 -0.666992 -4 -3.33398 -4 -8.00098v-400c0 -3.33301 -1.66699 -5 -5 -5h-13c-4 0 -6 1.66699 -6 5v400c0 4.66699 -1.33301 7.33398 -4 8.00098h-52c-3.33301 0 -5 1.66699 -5 5v9c0 4 1.66699 6 5 6h50c4.66699 0 7 2.66699 7 8v55
c0 23.333 3.66699 43.333 11 60s17.166 30.167 29.499 40.5s26.833 17.833 43.5 22.5s34 7 52 7c36 0 66 -6.33301 90 -19c3.33301 -2 6 -2 8 0c24.667 25.333 54.334 38 89.001 38c25.333 0 46.833 -4 64.5 -12s32.167 -17.667 43.5 -29c2 -2.66699 2 -5 0 -7l-6 -7
c-3.33301 -3.33301 -6.33301 -3.66602 -9 -0.999023c-8.66699 9.33301 -21 17.666 -37 24.999s-35 11 -57 11c-32 0 -55.5 -10.333 -70.5 -31s-22.5 -45.667 -22.5 -75v-78c0 -5.33301 2 -8 6 -8h196c4 0 6 -2 6 -6v-422zM295 522c0 22.667 3.66602 42.333 10.999 59
c2 3.33301 0.666992 6 -4 8c-13.333 5.33301 -26.666 9.5 -39.999 12.5s-25 4.5 -35 4.5c-43.333 0 -73.333 -10.5 -90 -31.5s-25 -49.833 -25 -86.5v-47c0 -5.33301 2 -8 6 -8h170c4.66699 0 7 2.66699 7 8v81z" />
    <glyph glyph-name="ffl" unicode="ffl" horiz-adv-x="612" 
d="M116 413c-2.66699 -0.666992 -4 -3.33398 -4 -8.00098v-400c0 -3.33301 -1.66699 -5 -5 -5h-13c-4 0 -6 1.66699 -6 5v400c0 4.66699 -1.33301 7.33398 -4 8.00098h-52c-3.33301 0 -5 1.66699 -5 5v9c0 4 1.66699 6 5 6h50c4.66699 0 7 2.66699 7 8v55
c0 23.333 3.66699 43.333 11 60s17.166 30.167 29.499 40.5s26.833 17.833 43.5 22.5s34 7 52 7c36 0 66 -6.33301 90 -19c3.33301 -2 6 -2 8 0c24.667 25.333 54.334 38 89.001 38c36.667 0 68.667 -8.33301 96 -25l12 7c4 1.33301 6 -0.333984 6 -5.00098v-540
c0 -18.667 2.83301 -34.167 8.5 -46.5s19.5 -18.5 41.5 -18.5h9c3.33301 0.666992 5.33301 0.333984 6 -0.999023s1 -2.66602 1 -3.99902v-12c0 -2.66699 -2.33301 -4.33398 -7 -5.00098c-18 -1.33301 -32.333 0 -43 4s-18.834 9.83301 -24.501 17.5
s-9.33398 16.667 -11.001 27s-2.5 21.166 -2.5 32.499v524c-15.333 9.33301 -30.166 15.833 -44.499 19.5s-31.166 5.5 -50.499 5.5c-33.333 0 -56.833 -10.667 -70.5 -32s-20.5 -47.666 -20.5 -78.999v-73c0 -5.33301 2 -8 6 -8h122c3.33301 0 5 -2 5 -6v-9
c0 -3.33301 -1.33301 -5 -4 -5h-125c-2.66699 -0.666992 -4 -3.33398 -4 -8.00098v-400c0 -3.33301 -1.66699 -5 -5 -5h-13c-4 0 -6 1.66699 -6 5v400c0 4.66699 -1.33301 7.33398 -4 8.00098h-174zM295 517c0 14 0.999023 26.167 2.99902 36.5s4.66699 19.5 8 27.5
c2 3.33301 0.666992 6 -4 8c-13.333 5.33301 -26.666 9.5 -39.999 12.5s-25 4.5 -35 4.5c-43.333 0 -73.333 -10.5 -90 -31.5s-25 -49.833 -25 -86.5v-47c0 -5.33301 2 -8 6 -8h170c4.66699 0 7 2.66699 7 8v76z" />
    <glyph glyph-name="ft" unicode="ft" horiz-adv-x="469" 
d="M101 441c0 -5.33301 2 -8.00195 6 -8.00195h178c3.33301 0.666992 5 3 5 7v91c0 2.66699 2 4.66699 6 6l12 3c3.33301 0.666992 5 -1 5 -5v-95c0 -4 1.33301 -6.33301 4 -7h121c3.33301 0 5 -1.66699 5 -5v-9c0 -4 -1.66699 -6 -5 -6h-119c-4 0 -6 -2.66699 -6 -8v-290
c0 -36.667 6.16699 -62.5 18.5 -77.5s31.5 -22.5 57.5 -22.5c10 0 21.5 0.833008 34.5 2.5s23.167 3.83398 30.5 6.50098c3.33301 0.666992 5.66602 -1 6.99902 -5l2 -9c0.666992 -3.33301 -0.333008 -5.33301 -3 -6c-9.33301 -3.33301 -21.833 -5.66602 -37.5 -6.99902
s-28.167 -2 -37.5 -2c-20 0 -36.167 3.16699 -48.5 9.5s-22 14.833 -29 25.5s-11.667 23.167 -14 37.5s-3.5 29.5 -3.5 45.5v292c0 5.33301 -2.33301 8 -7 8h-178c-2.66699 -0.666992 -4 -3.33398 -4 -8.00098v-400c0 -3.33301 -1.66699 -5 -5 -5h-13c-4 0 -6 1.66699 -6 5
v400c0 4.66699 -1.33301 7.33398 -4 8.00098h-52c-3.33301 0 -5 1.66699 -5 5v9c0 4 1.66699 6 5 6h50c4.66699 0 7 2.66699 7 8v69c0 23.333 3.33301 43.166 10 59.499s15.5 29.5 26.5 39.5s23.667 17.333 38 22s29.166 7 44.499 7c16 0 30.667 -1.66699 44 -5
s25.333 -7.66602 36 -12.999c3.33301 -2 4.33301 -4.33301 3 -7l-5 -10c-1.33301 -2 -3.66602 -2.33301 -6.99902 -1c-10 4.66699 -21 8.5 -33 11.5s-25 4.5 -39 4.5c-18 0 -33 -2.83301 -45 -8.5s-21.667 -13.5 -29 -23.5s-12.666 -21.667 -15.999 -35s-5 -28 -5 -44v-66z
" />
    <glyph glyph-name=".notdef" horiz-adv-x="428" 
d="M0 700h428v-700h-428v700zM408 27v650l-179 -327zM20 29l179 321l-179 322v-643zM384 679h-340l170 -310zM384 21l-170 310l-170 -310h340z" />
    <glyph glyph-name="space" unicode=" " horiz-adv-x="190" 
 />
    <glyph glyph-name="exclam" unicode="!" horiz-adv-x="238" 
d="M129 133c0 -4 -1.66699 -6 -5 -6h-6c-4 0 -6 2 -6 6l-8 476c0 2 0.333008 3.66699 1 5s2.66699 2 6 2h15c4.66699 0 7 -2.33301 7 -7zM146 20c0 -7.33301 -2.33301 -13.335 -7 -18.002s-10.667 -7 -18 -7s-13.333 2.33301 -18 7s-7 10.667 -7 18
c0 6.66699 2.33301 12.334 7 17.001s10.667 7 18 7s13.333 -2.16699 18 -6.5s7 -10.166 7 -17.499z" />
    <glyph glyph-name="quotedbl" unicode="&#x22;" horiz-adv-x="182" 
d="M136 427c0 -3.33301 -1.66699 -5 -5 -5h-10c-4 0 -6 1.66699 -6 5v185c0 3.33301 2 5 6 5h10c3.33301 0 5 -1.66699 5 -5v-185zM66 427c0 -3.33301 -1.66699 -5 -5 -5h-10c-4 0 -6 1.66699 -6 5v185c0 3.33301 2 5 6 5h10c3.33301 0 5 -1.66699 5 -5v-185z" />
    <glyph glyph-name="numbersign" unicode="#" horiz-adv-x="430" 
d="M403 414c-0.666992 -3.33301 -2.66699 -5 -6 -5h-63c-6 0 -9.33301 -2.33301 -10 -7l-37 -177c-1.33301 -5.33301 0.333984 -8 5.00098 -8h76c3.33301 0 4.33301 -2 3 -6l-2 -10c-0.666992 -3.33301 -2.66699 -5 -6 -5h-76c-3.33301 0 -5.33301 -0.5 -6 -1.5
s-1.33398 -2.5 -2.00098 -4.5l-31 -146c-0.666992 -2.66699 -2.66699 -4 -6 -4h-9c-4.66699 0 -6.33398 2 -5.00098 6l31 144c0 2 -0.166992 3.5 -0.5 4.5s-2.16602 1.5 -5.49902 1.5h-130c-4.66699 0 -7.33398 -2 -8.00098 -6l-31 -146
c-0.666992 -2.66699 -2.66699 -4 -6 -4h-9c-4.66699 0 -6.33398 2 -5.00098 6l30 143c0.666992 4.66699 -0.666016 7 -3.99902 7h-62c-3.33301 0 -4.66602 1.66699 -3.99902 5l2 10c1.33301 4 4.33301 6 9 6h59c4.66699 0 7.33398 2.33301 8.00098 7l37 177
c1.33301 5.33301 0 8 -4 8h-71c-3.33301 0 -4.66602 1.66699 -3.99902 5l2 10c1.33301 4 3.33301 6 6 6h72c4 0 6.33301 2.33301 7 7l25 120c0.666992 2.66699 3 4 7 4h10c4 0 5.33301 -2 4 -6l-25 -118c-0.666992 -4.66699 1 -7 5 -7h131c3.33301 0 5.66602 2 6.99902 6
l25 121c0.666992 2.66699 3 4 7 4h10c4 0 5.33301 -2 4 -6l-25 -117c-0.666992 -5.33301 1.66602 -8 6.99902 -8h62c4 0 5.33301 -2 4 -6zM304 403c0.666992 4 -1.33301 6 -6 6h-129c-5.33301 0 -8.33301 -2.66699 -9 -8l-38 -178c-0.666992 -4 1.33301 -6 6 -6h131
c4 0 6.33301 2.66699 7 8z" />
    <glyph glyph-name="dollar" unicode="$" horiz-adv-x="430" 
d="M379 172c0 -23.333 -4.00098 -43.8359 -12.001 -61.5029s-19 -32.5 -33 -44.5s-30.333 -21.5 -49 -28.5s-38.334 -11.5 -59.001 -13.5c-5.33301 0 -8 -2.66699 -8 -8v-70c0 -3.33301 -1.66699 -5 -5 -5h-10c-4 0 -6 1.66699 -6 5v70c0 4.66699 -3 7 -9 7
c-24.667 1.33301 -47.667 5 -69 11s-41.666 15.667 -60.999 29c-3.33301 2 -3.66602 4.66699 -0.999023 8l9 10c2 1.33301 4.66699 1 8 -1c16.667 -12 35.834 -21.167 57.501 -27.5s44.5 -9.5 68.5 -9.5c19.333 0 38.333 2.5 57 7.5s35.334 12.5 50.001 22.5
s26.5 22.833 35.5 38.5s13.5 34.167 13.5 55.5c0 22 -4.66699 40.667 -14 56s-20.833 28.166 -34.5 38.499s-28.167 18.833 -43.5 25.5s-29.333 12 -42 16c-17.333 5.33301 -36.166 11.5 -56.499 18.5s-39 16.333 -56 28s-31.167 25.834 -42.5 42.501s-17 37.334 -17 62.001
c0 20.667 4 39.5 12 56.5s18.5 31.5 31.5 43.5s28.167 21.667 45.5 29s35 12 53 14c3.33301 0.666992 5 3.33398 5 8.00098v57c0 3.33301 2 5 6 5h10c3.33301 0 5 -1.66699 5 -5v-57c0 -4.66699 2.66699 -7 8 -7c47.333 -2 88.333 -14.333 123 -37
c2.66699 -2.66699 3 -5.66699 1 -9l-8 -10c-2.66699 -2 -5.33398 -1.66699 -8.00098 1c-18.667 13.333 -38.334 22.5 -59.001 27.5s-41 7.5 -61 7.5c-16 0 -32.333 -2.33301 -49 -7s-31.667 -12.167 -45 -22.5s-24.333 -23.5 -33 -39.5s-13 -35 -13 -57
c0 -20 4.66699 -36.833 14 -50.5s21.166 -25.167 35.499 -34.5s30 -17.166 47 -23.499s33.167 -11.833 48.5 -16.5c20 -6 39.5 -13.5 58.5 -22.5s36 -19.667 51 -32s27.167 -26.833 36.5 -43.5s14 -35.667 14 -57z" />
    <glyph glyph-name="percent" unicode="%" horiz-adv-x="620" 
d="M177 -25c-1.33301 -3.33301 -3.66699 -5 -7 -5h-9c-4.66699 0 -6 1.66699 -4 5l286 667c1.33301 3.33301 3.33301 5 6 5h10c4 0 5.33301 -1.66699 4 -5zM253.999 329c0 -29.333 -9 -52 -27 -68s-43.667 -24 -77 -24c-32.667 0 -58.167 8.33301 -76.5 25
s-27.5 39 -27.5 67v199c0 28 9.16699 50.333 27.5 67s43.5 25 75.5 25s57.5 -8.16699 76.5 -24.5s28.5 -38.833 28.5 -67.5v-199zM233.999 527c0 21.333 -7.50098 38.998 -22.501 52.998s-35.833 21 -62.5 21c-25.333 0 -45.166 -7 -59.499 -21s-21.5 -31.667 -21.5 -53
v-197c0 -21.333 7.33301 -39.166 22 -53.499s34.667 -21.5 60 -21.5c24 0 44 6.33301 60 19s24 31.334 24 56.001v197zM573.998 87.998c0 -29.333 -9 -52 -27 -68s-43.667 -24 -77 -24c-32.667 0 -58.167 8.33301 -76.5 25s-27.5 39 -27.5 67v199
c0 28 9.16699 50.333 27.5 67s43.5 25 75.5 25s57.5 -8.16699 76.5 -24.5s28.5 -38.833 28.5 -67.5v-199zM553.998 285.998c0 21.333 -7.50098 38.998 -22.501 52.998s-35.833 21 -62.5 21c-25.333 0 -45.166 -7 -59.499 -21s-21.5 -31.667 -21.5 -53v-197
c0 -21.333 7.33301 -39.166 22 -53.499s34.667 -21.5 60 -21.5c24 0 44 6.33301 60 19s24 31.334 24 56.001v197z" />
    <glyph glyph-name="ampersand" unicode="&#x26;" horiz-adv-x="570" 
d="M427 158c0 -22.667 -3.83301 -44.002 -11.5 -64.002s-18.5 -37.5 -32.5 -52.5s-31.167 -26.833 -51.5 -35.5s-43.5 -13 -69.5 -13h-23c-24.667 0 -47.167 4.33301 -67.5 13s-37.666 20.5 -51.999 35.5s-25.5 32.5 -33.5 52.5s-12 41.333 -12 64v234
c0 20.667 4 40.167 12 58.5s19.167 34.333 33.5 48s31.5 24.334 51.5 32.001s42.333 11.5 67 11.5h145c4.66699 0 7 -2 7 -6v-8c0 -4.66699 -2 -7 -6 -7h-146c-20.667 0 -39.667 -3.16699 -57 -9.5s-32.166 -15.333 -44.499 -27s-22 -25.5 -29 -41.5
s-10.5 -33.667 -10.5 -53v-230c0 -19.333 3.33301 -38 10 -56s16.167 -33.667 28.5 -47s27.333 -24 45 -32s37.167 -12 58.5 -12h23c23.333 0 43.833 4 61.5 12s32.5 18.667 44.5 32s21 29 27 47s9 36.667 9 56v132c0 1.33301 -0.333008 2.83301 -1 4.5
s-3.33398 2.5 -8.00098 2.5h-153c-4.66699 0 -7 2.33301 -7 7v7c0 4.66699 2.33301 7 7 7h187c27.333 0 51.5 2.33301 72.5 7s43.167 15.667 66.5 33c2.66699 1.33301 4.66699 1.33301 6 0l7 -9c1.33301 -2.66699 1.33301 -4.66699 0 -6
c-0.666992 -1.33301 -1.33398 -2 -2.00098 -2c-18.667 -16.667 -41.5 -28.167 -68.5 -34.5s-52.167 -9.5 -75.5 -9.5c-4 0 -6.33301 -0.666992 -7 -2s-1 -3.66602 -1 -6.99902v-132z" />
    <glyph glyph-name="quotesingle" unicode="'" horiz-adv-x="143" 
d="M80 427c0 -3.33301 -1.66699 -5 -5 -5h-10c-4 0 -6 1.66699 -6 5v185c0 3.33301 2 5 6 5h10c3.33301 0 5 -1.66699 5 -5v-185v0z" />
    <glyph glyph-name="parenleft" unicode="(" horiz-adv-x="286" 
d="M244 -136c1.33301 -3.33301 0.998047 -5.66895 -1.00195 -7.00195l-6 -5c-3.33301 -2 -6.33301 -1.66699 -9 1c-19.333 23.333 -38.166 50.5 -56.499 81.5s-34.666 64.5 -48.999 100.5s-25.833 73.5 -34.5 112.5s-13 78.167 -13 117.5s4.83301 79 14.5 119
s22 78.5 37 115.5s31.667 71.333 50 103s36.166 58.5 53.499 80.5c2.66699 2.66699 5 3 7 1l4 -2c2 -1.33301 2.33301 -3.66602 1 -6.99902c-20 -29.333 -38.667 -60.333 -56 -93s-32.166 -66.5 -44.499 -101.5s-22 -70.667 -29 -107s-10.5 -72.5 -10.5 -108.5
c0 -39.333 4 -77.5 12 -114.5s18.667 -72.5 32 -106.5s28.5 -66.167 45.5 -96.5s34.5 -58.166 52.5 -83.499z" />
    <glyph glyph-name="parenright" unicode=")" horiz-adv-x="286" 
d="M234 265c0 -39.333 -4.33203 -78.4971 -12.999 -117.497s-20.167 -76.5 -34.5 -112.5s-30.666 -69.5 -48.999 -100.5s-37.166 -58.167 -56.499 -81.5c-2.66699 -2.66699 -5.66699 -3 -9 -1l-6 5c-2 1.33301 -2.33301 3.66602 -1 6.99902
c18 25.333 35.667 53.166 53 83.499s32.666 62.5 45.999 96.5s24.166 69.5 32.499 106.5s12.5 75.167 12.5 114.5c0 36 -3.66699 72.167 -11 108.5s-17.333 72 -30 107s-27.667 68.833 -45 101.5s-36 63.667 -56 93c-1.33301 3.33301 -1 5.66602 1 6.99902l4 2
c2 2 4.33301 1.66699 7 -1c17.333 -22 35.166 -48.833 53.499 -80.5s35 -66 50 -103s27.333 -75.5 37 -115.5s14.5 -79.667 14.5 -119z" />
    <glyph glyph-name="asterisk" unicode="*" horiz-adv-x="343" 
d="M301 543c2 -6 0.000976562 -9.66504 -5.99902 -10.998l-102 -25c-4.66699 -0.666992 -5.66699 -3 -3 -7l68 -80c4 -4.66699 3.66699 -8.33398 -1 -11.001l-13 -10c-6 -4 -10 -3.66699 -12 1l-55 91c-2 3.33301 -4.66699 3 -8 -1l-55 -89
c-3.33301 -5.33301 -7.33301 -6 -12 -2l-13 10c-3.33301 1.33301 -4.83301 3.16602 -4.5 5.49902s1.16602 4.16602 2.49902 5.49902l69 80c2.66699 2.66699 1.66699 5 -3 7l-102 26c-6 0.666992 -8 4 -6 10l5 16c2 6 5.66699 7.66699 11 5l98 -41
c3.33301 -2 5 -0.666992 5 4l-7 106c0 6 2.66699 9 8 9h16c6 0 9 -3 9 -9l-8 -106c-1.33301 -5.33301 0 -6.66602 4 -3.99902l99 40c5.33301 2 9 0.666992 11 -4l5 -16v0z" />
    <glyph glyph-name="plus" unicode="+" horiz-adv-x="430" 
d="M401 230c0 -3.33301 -2 -5 -6 -5h-165c-4.66699 0 -7 -2 -7 -6v-173c0 -3.33301 -1.66699 -5 -5 -5h-13c-4 0 -6 1.66699 -6 5v173c0 4 -2.33301 6 -7 6h-159c-3.33301 0 -5 1.66699 -5 5v13c0 4 1.66699 6 5 6h161c3.33301 0 5 2.33301 5 7v173c0 3.33301 2 5 6 5h13
c3.33301 0 5 -1.66699 5 -5v-174c0 -4 2.33301 -6 7 -6h165c4 0 6 -2 6 -6v-13v0z" />
    <glyph glyph-name="comma" unicode="," horiz-adv-x="144" 
d="M65 -94c-0.666992 -4.66699 -3 -7 -7 -7h-8c-3.33301 0 -5 2.66699 -5 8l8 137c0 4 2.66699 6 8 6h28c6.66699 0 9 -3 7 -9z" />
    <glyph glyph-name="hyphen" unicode="-" horiz-adv-x="278" 
d="M218 230c0 -3.33301 -1.66699 -5 -5 -5h-146c-3.33301 0 -5 1.66699 -5 5v17c0 4 1.66699 6 5 6h146c3.33301 0 5 -2 5 -6v-17z" />
    <glyph glyph-name="period" unicode="." horiz-adv-x="141" 
d="M96 20c0 -7.33301 -2.33301 -13.335 -7 -18.002s-11 -7 -19 -7c-6.66699 0 -12.334 2.33301 -17.001 7s-7 10.667 -7 18c0 6.66699 2.33301 12.334 7 17.001s10.334 7 17.001 7c8 0 14.333 -2.16699 19 -6.5s7 -10.166 7 -17.499z" />
    <glyph glyph-name="slash" unicode="/" horiz-adv-x="274" 
d="M21 -62c-0.666992 -1.33301 -1.16797 -2.5 -1.50098 -3.5s-1.5 -1.5 -3.5 -1.5h-7c-4.66699 0 -6.66699 1.66699 -6 5l247 730c0.666992 3.33301 2.66699 5 6 5h7c4.66699 0 6.33398 -1.66699 5.00098 -5z" />
    <glyph glyph-name="zero" unicode="0" horiz-adv-x="430" 
d="M372 143c0 -47.333 -13.667 -84.166 -41 -110.499s-66 -39.5 -116 -39.5s-88.667 13.667 -116 41s-41 63.666 -41 108.999v332c0 44.667 14 80.667 42 108s66 41 114 41s86.333 -13.333 115 -40s43 -63 43 -109v-332zM349 473c0 38 -11.832 69.168 -35.499 93.501
s-56.834 36.5 -99.501 36.5c-40 0 -72.167 -12.167 -96.5 -36.5s-36.5 -55.5 -36.5 -93.5v-328c0 -38.667 12.167 -70.334 36.5 -95.001s56.833 -37 97.5 -37c38 0 69.833 11 95.5 33s38.5 55 38.5 99v328z" />
    <glyph glyph-name="one" unicode="1" horiz-adv-x="430" 
d="M240 5c0 -3.33301 -1.66699 -5.00098 -5 -5.00098h-12c-4 0 -6 1.66699 -6 5v578c-1.33301 2 -3.33301 2 -6 0l-101 -61c-4.66699 -3.33301 -7 -2.66602 -7 2.00098v15c0 4 0.5 6.33301 1.5 7l7.5 5l100 61c1.33301 1.33301 3 2.5 5 3.5s3.66699 1.5 5 1.5h13
c3.33301 0 5 -1.66699 5 -5v-607v0z" />
    <glyph glyph-name="two" unicode="2" horiz-adv-x="430" 
d="M368 6c0 -4 -1.66406 -5.99805 -4.99707 -5.99805h-317c-4 0 -6 2 -6 6v8c0 3.33301 0.333008 6.16602 1 8.49902s1.33398 4.16602 2.00098 5.49902l217 289c29.333 38.667 50.666 72.167 63.999 100.5s20 51.166 20 68.499c0 18.667 -3.33301 35.334 -10 50.001
s-15.834 27 -27.501 37s-25.334 17.5 -41.001 22.5s-32.5 7.5 -50.5 7.5c-24 0 -47.333 -4.33301 -70 -13s-40 -20.667 -52 -36c-2.66699 -4.66699 -6.33398 -5.33398 -11.001 -2.00098l-8 6c-3.33301 2.66699 -3.33301 5.66699 0 9c14 18 33.5 32 58.5 42
s51.833 15 80.5 15c20.667 0 40.5 -2.5 59.5 -7.5s35.5 -13 49.5 -24s25.167 -25 33.5 -42s12.5 -37.5 12.5 -61.5c0 -9.33301 -1.16699 -19.5 -3.5 -30.5s-6.66602 -23.833 -12.999 -38.5s-15.5 -31.5 -27.5 -50.5s-27.333 -41.167 -46 -66.5l-207 -275
c-3.33301 -4 -2 -6 4 -6h287c3.33301 0 5.16602 -0.666992 5.49902 -2s0.5 -2.66602 0.5 -3.99902v-10v0z" />
    <glyph glyph-name="three" unicode="3" horiz-adv-x="430" 
d="M194 350c16 0 31.001 3 45.001 9s26.5 14.333 37.5 25s19.667 23.5 26 38.5s9.5 31.833 9.5 50.5c0 17.333 -2.66699 33.833 -8 49.5s-13.333 29.5 -24 41.5s-24.334 21.5 -41.001 28.5s-36.334 10.5 -59.001 10.5c-24.667 0 -47.5 -4.33301 -68.5 -13
s-37.5 -20.667 -49.5 -36c-2.66699 -4.66699 -6.33398 -5.33398 -11.001 -2.00098l-8 6c-3.33301 2.66699 -3.33301 5.66699 0 9c14 18 32.833 32 56.5 42s49.834 15 78.501 15c48.667 0 87.167 -13.333 115.5 -40s42.5 -63 42.5 -109
c0 -18.667 -2.83301 -35.834 -8.5 -51.501s-12.834 -29.167 -21.501 -40.5s-18 -20.666 -28 -27.999s-19.333 -12 -28 -14c-2.66699 -0.666992 -4 -1.66699 -4 -3s1.33301 -2.33301 4 -3c16 -4 29.667 -10.833 41 -20.5s20.5 -20.834 27.5 -33.501s12 -26 15 -40
s4.5 -27 4.5 -39v-36c0 -25.333 -4 -48.5 -12 -69.5s-19.167 -39.167 -33.5 -54.5s-31.833 -27.333 -52.5 -36s-44 -13 -70 -13c-30 0 -56.833 4.83301 -80.5 14.5s-42.167 23.834 -55.5 42.501c-1.33301 2.66699 -2.16602 4.66699 -2.49902 6s1.16699 3.33301 4.5 6l8 5
c2.66699 1.33301 4.33398 2 5.00098 2s3 -2.33301 7 -7c13.333 -16.667 30.333 -29 51 -37s42 -12 64 -12c20 0 38.833 3.83301 56.5 11.5s33 18.167 46 31.5s23.167 29 30.5 47s11 37.667 11 59v37c0 16.667 -2.66699 32.834 -8 48.501s-13 29.5 -23 41.5
s-22.5 21.5 -37.5 28.5s-32.5 10.5 -52.5 10.5h-68c-3.33301 0 -5 1.66699 -5 5v11c0 4 1.66699 6 5 6h68v0z" />
    <glyph glyph-name="four" unicode="4" horiz-adv-x="430" 
d="M292 383c0 3.33301 2.33398 5 7.00098 5h9c3.33301 0 5 -1.66699 5 -5v-195c0 -5.33301 3 -8 9 -8h84c3.33301 0 5 -2 5 -6v-10c0 -3.33301 -1.66699 -5 -5 -5h-85c-4.66699 0 -7 -1.66699 -7 -5v-149c0 -3.33301 -1.66699 -5 -5 -5h-10c-4.66699 0 -7 1.66699 -7 5v149
c0 3.33301 -2 5 -6 5h-236c-6 0 -9 2.33301 -9 7v10c0 6.66699 1.66699 12.667 5 18l221 414c2 4 3.83301 6.5 5.5 7.5s3.83398 1.5 6.50098 1.5h9c5.33301 0 6.66602 -3 3.99902 -9l-226 -421c-3.33301 -4.66699 -2.33301 -7 3 -7h217
c3.33301 0 5.16602 0.666992 5.49902 2s0.5 3.33301 0.5 6v195z" />
    <glyph glyph-name="five" unicode="5" horiz-adv-x="430" 
d="M355 601c0 -3.33301 -1.66992 -5.00293 -5.00293 -5.00293h-233c-4 0 -6 -1.66699 -6 -5v-228c0 -5.33301 3 -6 9 -2c16.667 11.333 32.667 18.833 48 22.5s29.666 5.5 42.999 5.5c48.667 0 86.834 -14 114.501 -42s41.5 -64 41.5 -108v-89
c0 -50.667 -14 -89.5 -42 -116.5s-68 -40.5 -120 -40.5c-30 0 -56.833 4.83301 -80.5 14.5s-42.167 23.834 -55.5 42.501c-1.33301 2.66699 -2.16602 4.66699 -2.49902 6s1.16699 3.33301 4.5 6l8 5c2.66699 1.33301 4.33398 2 5.00098 2s3 -2.33301 7 -7
c13.333 -16.667 30.333 -29 51 -37s42 -12 64 -12c40.667 0 73.834 11.5 99.501 34.5s38.5 55.833 38.5 98.5v89c0 20 -3.5 38.167 -10.5 54.5s-16.5 30.333 -28.5 42s-26.167 20.5 -42.5 26.5s-33.833 9 -52.5 9c-12 0 -26 -2.66699 -42 -8s-29.333 -11.666 -40 -18.999
c-4 -3.33301 -7.5 -5.16602 -10.5 -5.49902s-5.5 0.166992 -7.5 1.5l-16 12c-3.33301 2 -5.33301 4 -6 6s-1 5 -1 9v248c0 4 2.33301 6 7 6h256c3.33301 0 5 -2 5 -6v-10z" />
    <glyph glyph-name="six" unicode="6" horiz-adv-x="430" 
d="M87 310c0 -5.33301 1.66699 -5.66895 5 -1.00195c17.333 21.333 36.666 37.5 57.999 48.5s47 16.5 77 16.5c26 0 48.667 -4 68 -12s35.666 -18.833 48.999 -32.5s23.333 -29.5 30 -47.5s10 -37 10 -57v-79c0 -48 -14 -85.5 -42 -112.5s-67.667 -40.5 -119 -40.5
c-47.333 0 -85.666 13.333 -114.999 40s-44 64.334 -44 113.001v322c0 22.667 4 43.667 12 63s19.167 35.833 33.5 49.5s31.333 24.334 51 32.001s41.167 11.5 64.5 11.5c28.667 0 54.5 -5 77.5 -15s41.5 -24 55.5 -42c3.33301 -3.33301 3.33301 -6.33301 0 -9l-8 -6
c-4.66699 -3.33301 -8.33398 -2.66602 -11.001 2.00098c-12 15.333 -27.5 27.333 -46.5 36s-40.5 13 -64.5 13c-21.333 0 -40.666 -3.5 -57.999 -10.5s-32.166 -16.833 -44.499 -29.5s-21.833 -27.334 -28.5 -44.001s-10 -35 -10 -55v-154zM361 220.997
c0 41.333 -12.8359 73.499 -38.5029 96.499s-59.167 34.5 -100.5 34.5c-18 0 -35.167 -3.5 -51.5 -10.5s-30.666 -16.667 -42.999 -29s-22.166 -26.666 -29.499 -42.999s-11 -33.5 -11 -51.5v-68c0 -40.667 12.167 -73.667 36.5 -99s57.5 -38 99.5 -38
c46.667 0 81.334 12.833 104.001 38.5s34 58.5 34 98.5v71z" />
    <glyph glyph-name="seven" unicode="7" horiz-adv-x="430" 
d="M85 530c0 -3.33301 -1.66699 -5.00195 -5 -5.00195h-12c-4 0 -6 1.66699 -6 5v82c0 3.33301 2.33301 5 7 5h298c4.66699 0 7 -2 7 -6v-9c0 -3.33301 -0.5 -6.16602 -1.5 -8.49902s-1.83301 -4.16602 -2.5 -5.49902l-251 -581c-1.33301 -4 -2.83301 -6.16699 -4.5 -6.5
s-4.16699 -0.5 -7.5 -0.5h-12c-5.33301 -0 -7 2.33301 -5 7l255 584c1.33301 3.33301 1.33301 5 0 5h-4h-248c-5.33301 0 -8 -2.33301 -8 -7v-59v0z" />
    <glyph glyph-name="eight" unicode="8" horiz-adv-x="430" 
d="M210 -7c-23.333 0 -45.168 3.66602 -65.501 10.999s-37.833 18 -52.5 32s-26.167 31.667 -34.5 53s-12.5 46 -12.5 74c0 21.333 2.83301 41 8.5 59s13.167 34 22.5 48s19.833 25.667 31.5 35s23.834 16.333 36.501 21c2 0.666992 3 1.83398 3 3.50098
s-1.33301 3.16699 -4 4.5c-31.333 13.333 -53.833 32.666 -67.5 57.999s-20.5 50.666 -20.5 75.999c0 22.667 3.66699 43.5 11 62.5s18 35.5 32 49.5s30.833 24.833 50.5 32.5s42.167 11.5 67.5 11.5c52 0 92 -14.5 120 -43.5s42 -65.833 42 -110.5
c0 -28.667 -8 -55.667 -24 -81s-38 -44.333 -66 -57c-1.33301 -0.666992 -2.33301 -1.5 -3 -2.5s0.333008 -2.16699 3 -3.5c30.667 -15.333 54.667 -35.666 72 -60.999s26 -59 26 -101c0 -28.667 -4.66699 -53.667 -14 -75s-22 -39.166 -38 -53.499s-34.667 -25 -56 -32
s-44 -10.5 -68 -10.5zM214.998 602.999c-40.667 0 -73.333 -12.6689 -98 -38.002s-37 -58 -37 -98c0 -18.667 3.66699 -35.667 11 -51s17.333 -28.666 30 -39.999s27 -20.166 43 -26.499s33 -9.5 51 -9.5s35.333 3 52 9s31.167 14.5 43.5 25.5s22.333 24.333 30 40
s11.5 33.167 11.5 52.5c0 40 -11.833 72.667 -35.5 98s-57.5 38 -101.5 38zM213.999 317.997c-19.333 0 -37.667 -3.33398 -55 -10.001s-32.5 -16.5 -45.5 -29.5s-23.333 -29.333 -31 -49s-11.5 -42.167 -11.5 -67.5c0 -24 3.66699 -45.333 11 -64s17.333 -34.167 30 -46.5
s27.5 -21.833 44.5 -28.5s35.167 -10 54.5 -10c18.667 0 37 2.83301 55 8.5s34 14.5 48 26.5s25.333 27.333 34 46s13 41 13 67c0 24.667 -3.83301 46.834 -11.5 66.501s-18.167 36.167 -31.5 49.5s-29 23.5 -47 30.5s-37 10.5 -57 10.5z" />
    <glyph glyph-name="nine" unicode="9" horiz-adv-x="430" 
d="M348 307c0 5.33301 -1.66992 5.66797 -5.00293 1.00098c-17.333 -21.333 -36.666 -37.5 -57.999 -48.5s-47 -16.5 -77 -16.5c-26 0 -48.667 4 -68 12s-35.666 18.833 -48.999 32.5s-23.333 29.5 -30 47.5s-10 37 -10 57v73c0 48 14.667 86.5 44 115.5
s69.666 43.5 120.999 43.5c47.333 0 85 -14.333 113 -43s42 -67.334 42 -116.001v-307c0 -27.333 -4.66699 -51.166 -14 -71.499s-21.666 -37.5 -36.999 -51.5s-33 -24.5 -53 -31.5s-40.667 -10.5 -62 -10.5c-28.667 0 -54.5 5 -77.5 15s-41.5 24 -55.5 42
c-3.33301 3.33301 -3.33301 6.33301 0 9l8 6c4.66699 3.33301 8.33398 2.66602 11.001 -2.00098c12 -15.333 27.5 -27.333 46.5 -36s40.5 -13 64.5 -13c19.333 0 37.833 3.16699 55.5 9.5s33.167 15.833 46.5 28.5s24 28.167 32 46.5s12 39.5 12 63.5v145zM73.9971 396.002
c0 -41.333 12.8359 -73.5 38.5029 -96.5s59.167 -34.5 100.5 -34.5c18 0 35.167 3.5 51.5 10.5s30.666 16.667 42.999 29s22.166 26.666 29.499 42.999s11 33.5 11 51.5v62c0 20 -3 38.833 -9 56.5s-14.5 32.834 -25.5 45.501s-24.833 22.667 -41.5 30
s-35.334 11 -56.001 11c-23.333 0 -43.833 -3.66699 -61.5 -11s-32.5 -17.5 -44.5 -30.5s-21 -28.167 -27 -45.5s-9 -36 -9 -56v-65z" />
    <glyph glyph-name="colon" unicode=":" horiz-adv-x="141" 
d="M96 350c0 -7.33301 -2.33301 -13.335 -7 -18.002s-11 -7 -19 -7c-6.66699 0 -12.334 2.5 -17.001 7.5s-7 10.833 -7 17.5s2.33301 12.334 7 17.001s10.334 7 17.001 7c8 0 14.333 -2.16699 19 -6.5s7 -10.166 7 -17.499zM96 19.998
c0 -7.33301 -2.33301 -13.335 -7 -18.002s-11 -7 -19 -7c-6.66699 0 -12.334 2.33301 -17.001 7s-7 10.667 -7 18c0 6.66699 2.33301 12.334 7 17.001s10.334 7 17.001 7c8 0 14.333 -2.16699 19 -6.5s7 -10.166 7 -17.499z" />
    <glyph glyph-name="semicolon" unicode=";" horiz-adv-x="154" 
d="M104 350c0 -7.33301 -2.33301 -13.335 -7 -18.002s-11 -7 -19 -7c-6.66699 0 -12.334 2.5 -17.001 7.5s-7 10.833 -7 17.5s2.33301 12.334 7 17.001s10.334 7 17.001 7c8 0 14.333 -2.16699 19 -6.5s7 -10.166 7 -17.499zM67 -94.002c-0.666992 -4.66699 -3 -7 -7 -7h-8
c-3.33301 0 -5 2.66699 -5 8l8 137c0 4 2.66699 6 8 6h28c6.66699 0 9 -3 7 -9z" />
    <glyph glyph-name="less" unicode="&#x3c;" horiz-adv-x="430" 
d="M394 71c4 -2 6.83301 -3.66602 8.5 -4.99902s2.5 -3.66602 2.5 -6.99902v-11c0 -3.33301 -0.833008 -5 -2.5 -5s-4.16699 0.666992 -7.5 2l-357 193c-3.33301 1.33301 -6.33301 3.16602 -9 5.49902s-4 5.5 -4 9.5s1.5 7.33301 4.5 10s5.83301 4.66699 8.5 6l357 195
c6.66699 3.33301 10 2 10 -4v-9c0 -3.33301 -3.66699 -7.33301 -11 -12l-330 -183c-1.33301 -0.666992 -2 -1.66699 -2 -3c0 -0.666992 0.666992 -1.33398 2 -2.00098z" />
    <glyph glyph-name="equal" unicode="=" horiz-adv-x="430" 
d="M398 336c0 -3.33301 -1.66699 -5 -5 -5h-357c-3.33301 0 -5 1.66699 -5 5v9c0 4 1.66699 6 5 6h357c3.33301 0 5 -2 5 -6v-9zM398 150c0 -3.33301 -1.66699 -5 -5 -5h-357c-3.33301 0 -5 1.66699 -5 5v9c0 4 1.66699 6 5 6h357c3.33301 0 5 -2 5 -6v-9z" />
    <glyph glyph-name="greater" unicode="&#x3e;" horiz-adv-x="430" 
d="M366 251c1.33301 0.666992 2 1.33301 2 2c0 1.33301 -0.666992 2.33301 -2 3l-330 183c-7.33301 4.66699 -11 8.66699 -11 12v9c0 6 3.33301 7.33301 10 4l357 -195c2.66699 -1.33301 5.5 -3.33301 8.5 -6s4.5 -6 4.5 -10s-1.33301 -7.16699 -4 -9.5
s-5.66699 -4.16602 -9 -5.49902l-357 -193c-3.33301 -1.33301 -5.83301 -2 -7.5 -2s-2.5 1.66699 -2.5 5v11c0 3.33301 0.833008 5.66602 2.5 6.99902s4.5 3 8.5 5z" />
    <glyph glyph-name="question" unicode="?" horiz-adv-x="418" 
d="M364 481c0 -24.667 -7.99512 -50.3311 -23.9951 -76.998s-41.667 -51.667 -77 -75c-16 -10.667 -30 -20.834 -42 -30.501s-22 -19.834 -30 -30.501s-13.833 -22.167 -17.5 -34.5s-5.5 -26.5 -5.5 -42.5v-59c0 -3.33301 -1.66699 -5 -5 -5h-12c-4 0 -6 1.66699 -6 5v61
c0 24.667 5.66699 48.167 17 70.5s29.333 41.5 54 57.5l44.5 31.5c15 11 28.333 22.833 40 35.5s21.167 26.5 28.5 41.5s11 32.167 11 51.5c0 10.667 -1.66699 23 -5 37s-9.83301 27.333 -19.5 40s-22.834 23.334 -39.501 32.001s-38 13 -64 13
c-24.667 0 -47.334 -4.33301 -68.001 -13s-37 -20.667 -49 -36c-2.66699 -4.66699 -6.33398 -5.33398 -11.001 -2.00098l-8 6c-3.33301 2.66699 -3.33301 5.66699 0 9c14 18 33 32 57 42s51 15 81 15c21.333 0 41.166 -3.16699 59.499 -9.5s34.166 -15.5 47.499 -27.5
s23.833 -27 31.5 -45s11.5 -38.333 11.5 -61zM180.005 20.0029c0 -7.33301 -2.33301 -13.335 -7 -18.002s-10.667 -7 -18 -7s-13.333 2.33301 -18 7s-7 10.667 -7 18c0 6.66699 2.33301 12.334 7 17.001s10.667 7 18 7s13.333 -2.16699 18 -6.5s7 -10.166 7 -17.499z" />
    <glyph glyph-name="at" unicode="@" horiz-adv-x="695" 
d="M455 198c0 -12.667 2.83398 -24.335 8.50098 -35.002s18.5 -16 38.5 -16c22 0 41 5.5 57 16.5s29.167 25.5 39.5 43.5s18 38.333 23 61s7.5 46 7.5 70c0 42 -7.66699 78.833 -23 110.5s-35.5 58 -60.5 79s-53.333 36.833 -85 47.5s-63.5 16 -95.5 16
c-43.333 0 -83 -7.33301 -119 -22s-66.833 -35.167 -92.5 -61.5s-45.5 -57.833 -59.5 -94.5s-21 -77.334 -21 -122.001c0 -46.667 7.5 -88.667 22.5 -126s35.667 -69 62 -95s57.833 -46 94.5 -60s77 -21 121 -21c32.667 0 63 2.83301 91 8.5s52 13.167 72 22.5
c5.33301 2 9 1 11 -3l3 -7c2 -4 2 -6.66699 0 -8s-4.66699 -2.66602 -8 -3.99902c-28 -10 -55.333 -17.5 -82 -22.5s-54.334 -7.5 -83.001 -7.5c-48 0 -92 7.5 -132 22.5s-74.333 36.5 -103 64.5s-50.834 62 -66.501 102s-23.5 84.667 -23.5 134
c0 45.333 7.33301 87.5 22 126.5s35.334 72.833 62.001 101.5s59 51.167 97 67.5s80.667 24.5 128 24.5c40 0 77.5 -6 112.5 -18s65.5 -29.5 91.5 -52.5s46.667 -51.5 62 -85.5s23 -73 23 -117c0 -70 -13.833 -123 -41.5 -159s-62.834 -54 -105.501 -54
c-2.66699 0 -6.83398 0.333008 -12.501 1s-11.667 2.16699 -18 4.5s-12.666 5.66602 -18.999 9.99902s-11.5 10.166 -15.5 17.499c-1.33301 2 -2.33301 3.33301 -3 4s-2.33398 -0.333008 -5.00098 -3c-12.667 -14.667 -27 -24.667 -43 -30s-30 -8 -42 -8
c-15.333 0 -29.666 2.66699 -42.999 8s-25.166 13 -35.499 23s-18.5 21.667 -24.5 35s-9 28 -9 44c0 14.667 2.83301 28.334 8.5 41.001s13.5 23.834 23.5 33.501s21.667 17.334 35 23.001s27.666 8.5 42.999 8.5c36 0 63.667 -10.667 83 -32
c1.33301 -1.33301 2.83301 -1.83301 4.5 -1.5s2.5 2.16602 2.5 5.49902v15c0 10 -1.16699 20.667 -3.5 32s-6.83301 21.833 -13.5 31.5s-16.167 17.834 -28.5 24.501s-28.5 10 -48.5 10c-11.333 0 -23.666 -1.66699 -36.999 -5s-25.333 -7 -36 -11
c-5.33301 -4 -8.66602 -3.33301 -9.99902 2l-3 10c-0.666992 1.33301 -1 2.5 -1 3.5s1.66699 2.5 5 4.5c11.333 4.66699 24.666 8.83398 39.999 12.501s30 5.5 44 5.5c40 0 69 -10.333 87 -31s27 -48.667 27 -84v-131zM432.001 230.999c0 24 -7.83301 44.333 -23.5 61
s-37.5 25 -65.5 25c-12 0 -23.167 -2.16699 -33.5 -6.5s-19.5 -10.5 -27.5 -18.5s-14.333 -17.167 -19 -27.5s-7 -21.5 -7 -33.5c0 -24 8.5 -44.667 25.5 -62s37.5 -26 61.5 -26c30 0 52.333 8.66699 67 26s22 38 22 62z" />
    <glyph glyph-name="A" unicode="A" horiz-adv-x="439" 
d="M354 159c-0.666992 2.66699 -1.66699 4.16895 -3 4.50195s-2.66602 0.5 -3.99902 0.5h-258c-2.66699 0 -4.33398 -1.33301 -5.00098 -4l-47 -154c-1.33301 -4 -3.66602 -6 -6.99902 -6h-15c-2 0 -3.5 0.166992 -4.5 0.5s-0.833008 2.16602 0.5 5.49902l188 606
c1.33301 3.33301 3 5 5 5h27c4 0 6.33301 -1.66699 7 -5l189 -604c2 -5.33301 1 -8 -3 -8h-14c-2.66699 0 -4.33398 0.166992 -5.00098 0.5s-1.66699 2.16602 -3 5.49902zM174 454.002l-80 -263.001c-1.33301 -3.33301 -1.5 -5.16602 -0.5 -5.49902s2.16699 -0.5 3.5 -0.5
h244c3.33301 0 4.66602 1.66699 3.99902 5l-83 268l-42 134c-1.33301 5.33301 -2.66602 5.33301 -3.99902 0z" />
    <glyph glyph-name="B" unicode="B" horiz-adv-x="470" 
d="M425 169c0 -24.667 -3.66504 -47.335 -10.998 -68.002s-18 -38.5 -32 -53.5s-30.833 -26.667 -50.5 -35s-41.834 -12.5 -66.501 -12.5h-196c-3.33301 0 -5 2 -5 6v605c0 4 1.66699 6 5 6h187c44 0 80.333 -12.333 109 -37s43 -61.334 43 -110.001
c0 -13.333 -1.5 -26.666 -4.5 -39.999s-8 -26.166 -15 -38.499s-16.333 -23.5 -28 -33.5s-25.834 -17.667 -42.501 -23c-2 -0.666992 -3 -1.5 -3 -2.5s1 -1.83301 3 -2.5c18.667 -5.33301 34.667 -13.5 48 -24.5s24.333 -23.667 33 -38s15.167 -30.166 19.5 -47.499
s6.5 -34.333 6.5 -51zM385.002 468.999c0 38 -10.999 68.667 -32.999 92s-54 35 -96 35h-163c-4 0 -6 -1.66699 -6 -5v-243c0 -2 0.166992 -3.33301 0.5 -4s2.16602 -1 5.49902 -1h165c36.667 0 67 11 91 33s36 53 36 93zM401.003 167.999
c0 22 -3.49902 42.3311 -10.499 60.998s-17 34.834 -30 48.501s-28.333 24.334 -46 32.001s-36.834 11.5 -57.501 11.5h-164c-4 0 -6 -2 -6 -6v-289c0 -2.66699 0.666992 -4 2 -4h5h171c21.333 0 40.5 3.83301 57.5 11.5s31.333 18.167 43 31.5s20.5 28.833 26.5 46.5
s9 36.5 9 56.5z" />
    <glyph glyph-name="C" unicode="C" horiz-adv-x="404" 
d="M375 51c-33.333 -38.667 -80.667 -58.0029 -142 -58.0029c-28 0 -52.833 4.16699 -74.5 12.5s-40 19.833 -55 34.5s-26.333 31.834 -34 51.501s-11.5 40.834 -11.5 63.501v313c0 20.667 4.16699 40.5 12.5 59.5s20 35.667 35 50s33.333 25.666 55 33.999
s45.5 12.5 71.5 12.5c28.667 0 55.834 -5 81.501 -15s45.5 -24 59.5 -42c3.33301 -3.33301 3.33301 -6.33301 0 -9l-8 -6c-4.66699 -3.33301 -8.33398 -2.66602 -11.001 2.00098c-12 15.333 -29.333 27.333 -52 36s-46 13 -70 13c-22 0 -42.167 -3.5 -60.5 -10.5
s-34.166 -16.667 -47.499 -29s-23.833 -26.833 -31.5 -43.5s-11.5 -34.667 -11.5 -54v-309c0 -19.333 3.33301 -37.666 10 -54.999s16.5 -32.5 29.5 -45.5s28.833 -23.333 47.5 -31s40.334 -11.5 65.001 -11.5c22 0 44.667 3.83301 68 11.5s41.666 19.834 54.999 36.501
c4 4.66699 6.66699 7 8 7s2.66602 -0.666992 3.99902 -2l5 -4c3.33301 -2.66699 5 -4.83398 5 -6.50098s-1 -3.5 -3 -5.5z" />
    <glyph glyph-name="D" unicode="D" horiz-adv-x="464" 
d="M414 158c0 -50 -13.833 -88.833 -41.5 -116.5s-66.167 -41.5 -115.5 -41.5h-190c-3.33301 0 -5 2 -5 6v605c0 4 1.66699 6 5 6h191c104 0 156 -50.333 156 -151v-308zM390 458c0 18.667 -1.66699 36.332 -5 52.999s-10 31.334 -20 44.001s-23.667 22.667 -41 30
s-40 11 -68 11h-164c-4.66699 0 -7 -1.66699 -7 -5v-565c0 -3.33301 2.33301 -5 7 -5h164c40.667 0 73.167 11.167 97.5 33.5s36.5 56.833 36.5 103.5v300z" />
    <glyph glyph-name="E" unicode="E" horiz-adv-x="423" 
d="M393 6c0 -4 -1.66602 -6 -4.99902 -6h-321c-3.33301 0 -5 2 -5 6v605c0 4 1.66699 6 5 6h304c3.33301 0 5 -2 5 -6v-10c0 -3.33301 -1.66699 -5 -5 -5h-279c-4.66699 0 -7 -1.66699 -7 -5v-258c0 -2 0.166992 -3.33301 0.5 -4s2.16602 -1 5.49902 -1h249
c3.33301 0 5 -2 5 -6v-10c0 -3.33301 -1.66699 -5 -5 -5h-249c-4 0 -6 -2 -6 -6v-275c0 -3.33301 2.33301 -5 7 -5h296c3.33301 0 5 -1.66699 5 -5v-10v0z" />
    <glyph glyph-name="F" unicode="F" horiz-adv-x="394" 
d="M389 601c0 -3.33301 -1.66602 -5 -4.99902 -5h-290c-4.66699 0 -7 -1.66699 -7 -5v-258c0 -2 0.166992 -3.33301 0.5 -4s2.16602 -1 5.49902 -1h245c3.33301 0 5 -2 5 -6v-10c0 -3.33301 -1.66699 -5 -5 -5h-245c-4 0 -6 -2 -6 -6l-1 -296c0 -3.33301 -1.66699 -5 -5 -5
h-12c-4 0 -6 1.66699 -6 5v606c0 4 2.33301 6 7 6h314c3.33301 0 5 -2 5 -6v-10z" />
    <glyph glyph-name="G" unicode="G" horiz-adv-x="452" 
d="M407 153c0 -23.333 -4.16895 -44.6709 -12.502 -64.0039s-20 -36.166 -35 -50.499s-33.167 -25.5 -54.5 -33.5s-45.333 -12 -72 -12c-25.333 0 -48.666 3.66699 -69.999 11s-39.833 18 -55.5 32s-27.834 30.667 -36.501 50s-13 41 -13 65v319
c0 20.667 4.33301 40.334 13 59.001s20.667 35 36 49s33.5 25.167 54.5 33.5s44.167 12.5 69.5 12.5c28.667 0 56.334 -4.83301 83.001 -14.5s47 -23.5 61 -41.5c3.33301 -3.33301 3.33301 -6.33301 0 -9l-8 -7c-4.66699 -3.33301 -8.33398 -2.66602 -11.001 2.00098
c-12 15.333 -29.833 27.333 -53.5 36s-47.5 13 -71.5 13c-21.333 0 -41.166 -3.5 -59.499 -10.5s-34.166 -16.5 -47.499 -28.5s-23.833 -26.167 -31.5 -42.5s-11.5 -34.166 -11.5 -53.499v-315c0 -22 4 -41.5 12 -58.5s19 -31.5 33 -43.5s30.167 -21.167 48.5 -27.5
s37.833 -9.5 58.5 -9.5c21.333 0 41.166 3 59.499 9s34.333 15 48 27s24.334 26.667 32.001 44s11.5 37.333 11.5 60v147c0 4 -2 6 -6 6h-95c-3.33301 0 -5 1.66699 -5 5v10c0 4 1.66699 6 5 6h117c4.66699 0 7 -2 7 -6v-169v0z" />
    <glyph glyph-name="H" unicode="H" horiz-adv-x="488" 
d="M428 5c0 -3.33301 -1.66504 -5 -4.99805 -5h-12c-4 0 -6 1.66699 -6 5v296c0 4 -2 6 -6 6h-310c-4 0 -6 -2 -6 -6v-296c0 -3.33301 -1.66699 -5 -5 -5h-12c-4 0 -6 1.66699 -6 5v607c0 3.33301 2 5 6 5h12c3.33301 0 5 -1.66699 5 -5v-279c0 -2 0.166992 -3.33301 0.5 -4
s2.16602 -1 5.49902 -1h310c3.33301 0 5.16602 0.333008 5.49902 1s0.5 2 0.5 4v279c0 3.33301 2 5 6 5h12c3.33301 0 5 -1.66699 5 -5v-607v0z" />
    <glyph glyph-name="I" unicode="I" horiz-adv-x="182" 
d="M102 5c0 -3.33301 -1.66699 -5 -5 -5h-12c-4 0 -6 1.66699 -6 5v607c0 3.33301 2 5 6 5h12c3.33301 0 5 -1.66699 5 -5v-607v0z" />
    <glyph glyph-name="J" unicode="J" horiz-adv-x="206" 
d="M121 121c0 -29.333 -1.33301 -55.668 -4 -79.001s-8.33398 -44 -17.001 -62s-21.167 -33.667 -37.5 -47s-38.166 -24.333 -65.499 -33l-21 -7c-4.66699 -2 -7.66699 -0.333008 -9 5l-3 10c-1.33301 3.33301 -1.33301 5.33301 0 6s3 1.33398 5 2.00098l19 6
c24 7.33301 43.167 16.5 57.5 27.5s25.333 24.333 33 40s12.667 34 15 55s3.5 45.5 3.5 73.5v493c0 3.33301 1.66699 5 5 5h13c4 0 6 -1.66699 6 -5v-490z" />
    <glyph glyph-name="K" unicode="K" horiz-adv-x="455" 
d="M420 6c0 -4 -1.99707 -5.99707 -5.99707 -5.99707h-10c-3.33301 0 -5.33301 2.33301 -6 7l-13 178c-1.33301 15.333 -3.66602 31.666 -6.99902 48.999s-10 33.5 -20 48.5s-24.667 27.333 -44 37s-45 14.5 -77 14.5c-31.333 0 -56.833 -4.83301 -76.5 -14.5
s-35.334 -21.834 -47.001 -36.501s-19.667 -30.667 -24 -48s-6.5 -33.666 -6.5 -48.999v-179c0 -4.66699 -1.66699 -7 -5 -7h-12c-4 0 -6 2 -6 6v603c0 2.66699 0.166992 4.66699 0.5 6s2.16602 2 5.49902 2h12c3.33301 0 5 -2.66699 5 -8v-310c0 -4.66699 1.66699 -7 5 -7
c2 0 4 1.33301 6 4l283 314c4 4 7.66699 6 11 6h13c3.33301 0 4.83301 -0.833008 4.5 -2.5s-1.16602 -3.16699 -2.49902 -4.5l-228 -254c-6.66699 -8.66699 -5.33398 -11.334 3.99902 -8.00098s20.166 5.5 32.499 6.5s23.166 1.5 32.499 1.5c32 0 58.333 -5 79 -15
s37 -22.833 49 -38.5s20.5 -32.834 25.5 -51.501s8.16699 -36.667 9.5 -54z" />
    <glyph glyph-name="L" unicode="L" horiz-adv-x="379" 
d="M374 6c0 -4 -1.66699 -6 -5 -6h-309c-4.66699 0 -7 2 -7 6v606c0 3.33301 2 5 6 5h12c3.33301 0 5 -1.66699 5 -5v-585c0 -3.33301 2.33301 -5 7 -5h286c3.33301 0 5 -1.66699 5 -5v-11v0z" />
    <glyph glyph-name="M" unicode="M" horiz-adv-x="597" 
d="M542 6c0 -4 -1.66895 -6 -5.00195 -6h-13c-4 0 -6 2 -6 6v548c0 1.33301 -0.333008 2.16602 -1 2.49902s-1.66699 -0.5 -3 -2.5l-199 -521c-2.66699 -4.66699 -5.66699 -7 -9 -7h-14c-5.33301 0 -8.66602 2 -9.99902 6l-199 522c-1.33301 2 -2.33301 2.83301 -3 2.5
s-1 -1.16602 -1 -2.49902v-548c0 -4 -2 -6 -6 -6h-13c-3.33301 0 -5 2 -5 6v601c0 1.33301 0.5 3.33301 1.5 6s3.5 4 7.5 4h15c4.66699 0 7.66699 -1.66699 9 -5l208 -555c1.33301 -5.33301 3 -5.33301 5 0l208 555c1.33301 3.33301 4.33301 5 9 5h15
c4.66699 0 7.33398 -1.33301 8.00098 -4s1 -4.66699 1 -6v-601v0z" />
    <glyph glyph-name="N" unicode="N" horiz-adv-x="486" 
d="M430 8c0 -5.33301 -2.66699 -8 -8 -8h-15c-4 0 -7 1.66699 -9 5l-314 565c-1.33301 2 -2.33301 2.83301 -3 2.5s-1 -1.16602 -1 -2.49902v-564c0 -4 -2 -6 -6 -6h-13c-3.33301 0 -5 2 -5 6v604c0 4.66699 2.33301 7 7 7h16c4 0 7 -1.66699 9 -5l314 -568
c1.33301 -2 2.33301 -2.83301 3 -2.5s1 1.16602 1 2.49902v567c0 4 2 6 6 6h13c3.33301 0 5 -2 5 -6v-603z" />
    <glyph glyph-name="O" unicode="O" horiz-adv-x="466" 
d="M408 158c0 -23.333 -3.8291 -45.168 -11.4961 -65.501s-18.834 -37.833 -33.501 -52.5s-32.834 -26.167 -54.501 -34.5s-46.834 -12.5 -75.501 -12.5c-31.333 0 -58 4.66699 -80 14s-40 22 -54 38s-24.333 34.333 -31 55s-10 42.334 -10 65.001v295c0 22 4 43 12 63
s19.5 37.5 34.5 52.5s33.167 26.833 54.5 35.5s45.666 13 72.999 13c28 0 53 -4.16699 75 -12.5s40.5 -20 55.5 -35s26.333 -32.5 34 -52.5s11.5 -41.333 11.5 -64v-302zM385.004 457.998c0 18.667 -2.83105 36.667 -8.49805 54s-14.834 32.666 -27.501 45.999
s-28.667 24 -48 32s-42.333 12 -69 12c-25.333 0 -47.333 -4 -66 -12s-34.334 -18.5 -47.001 -31.5s-22.167 -28.333 -28.5 -46s-9.5 -35.834 -9.5 -54.501v-291c0 -19.333 2.66699 -38.166 8 -56.499s14 -34.666 26 -48.999s27.667 -25.833 47 -34.5s43 -13 71 -13
c48.667 0 86.167 13.333 112.5 40s39.5 62 39.5 106v298z" />
    <glyph glyph-name="P" unicode="P" horiz-adv-x="439" 
d="M421 463c0 -47.333 -13.667 -85.1641 -41 -113.497s-64 -42.5 -110 -42.5h-175c-4.66699 0 -7 -2.33301 -7 -7v-295c0 -3.33301 -1.66699 -5 -5 -5h-12c-4 0 -6 1.66699 -6 5v605c0 4.66699 2.66699 7 8 7h197c23.333 0 44.333 -3.83301 63 -11.5
s34.5 -18.334 47.5 -32.001s23 -29.834 30 -48.501s10.5 -39.334 10.5 -62.001zM399 463.002c0 38 -11.499 69.668 -34.499 95.001s-54.5 38 -94.5 38h-173c-4 0 -6.5 -0.5 -7.5 -1.5s-1.5 -2.5 -1.5 -4.5v-254c0 -5.33301 2.33301 -8 7 -8h175
c43.333 0 75.666 12.667 96.999 38s32 57.666 32 96.999z" />
    <glyph glyph-name="Q" unicode="Q" horiz-adv-x="466" 
d="M408 152c0 -44 -13.834 -80.167 -41.501 -108.5s-65.834 -44.833 -114.501 -49.5c-3.33301 -0.666992 -5.33301 -1.66699 -6 -3s-1 -2.66602 -1 -3.99902c0 -12 0.5 -23.667 1.5 -35s3.83301 -21.333 8.5 -30s11.334 -15.667 20.001 -21s21 -8 37 -8
c9.33301 0 18.5 0.666992 27.5 2s19.833 4.33301 32.5 9c3.33301 2 5.66602 1 6.99902 -3l3 -10c1.33301 -3.33301 1.5 -5.33301 0.5 -6s-2.16699 -1.33398 -3.5 -2.00098c-21.333 -8 -43.666 -12 -66.999 -12c-20 0 -35.833 3 -47.5 9s-20.667 14.333 -27 25
s-10.333 23 -12 37s-2.5 28.667 -2.5 44c0 2.66699 -0.166992 4.5 -0.5 5.5s-2.16602 1.5 -5.49902 1.5c-24.667 1.33301 -46.834 6.5 -66.501 15.5s-36.334 21 -50.001 36s-24.167 32 -31.5 51s-11 39.167 -11 60.5v311c0 22 4.5 42.667 13.5 62s21.5 36 37.5 50
s34.5 25 55.5 33s43.5 12 67.5 12c24.667 0 47.834 -3.83301 69.501 -11.5s40.334 -18.5 56.001 -32.5s28 -30.667 37 -50s13.5 -40.333 13.5 -63v-315zM384.999 465c0 18.667 -3.49902 36.3311 -10.499 52.998s-17.167 31.334 -30.5 44.001s-29.5 22.667 -48.5 30
s-40.167 11 -63.5 11c-22 0 -42.167 -3.66699 -60.5 -11s-34.333 -17.166 -48 -29.499s-24.167 -27 -31.5 -44s-11 -34.833 -11 -53.5v-307c0 -20.667 3.5 -39.667 10.5 -57s17 -32.5 30 -45.5s28.833 -23.167 47.5 -30.5s40 -11 64 -11c21.333 0 41.166 3.16699 59.499 9.5
s34.333 15.5 48 27.5s24.5 26.667 32.5 44s12 37 12 59v311z" />
    <glyph glyph-name="R" unicode="R" horiz-adv-x="456" 
d="M440 6c2 -4 0.666016 -6 -4.00098 -6h-13c-4 0 -6.66699 2 -8 6l-121 260c-2 5.33301 -4.16699 8.83301 -6.5 10.5s-6.16602 2.5 -11.499 2.5h-186c-4.66699 0 -7 -2.33301 -7 -7v-267c0 -3.33301 -1.66699 -5 -5 -5h-12c-4 0 -6 1.66699 -6 5v603
c0 5.33301 3.33301 8 10 8h182c53.333 0 94 -15 122 -45s42 -69 42 -117c0 -42 -10 -77 -30 -105s-43.667 -49.333 -71 -64c-2.66699 -2 -2.66699 -5.33301 0 -10zM285.999 299c7.33301 0 12.333 0.500977 15 1.50098s4.66699 2.16699 6 3.5c25.333 13.333 46 32.5 62 57.5
s24 54.5 24 88.5c0 16 -2 32.667 -6 50s-11.667 33.166 -23 47.499s-26.833 26 -46.5 35s-45.167 13.5 -76.5 13.5h-147c-7.33301 0 -11 -2.66699 -11 -8v-281c0 -5.33301 2.33301 -8 7 -8h196z" />
    <glyph glyph-name="S" unicode="S" horiz-adv-x="414" 
d="M189 14c23.333 0 45 2.83398 65 8.50098s37.5 14.167 52.5 25.5s26.833 25.666 35.5 42.999s13 37.666 13 60.999c0 24 -3.5 44.167 -10.5 60.5s-16.667 30.5 -29 42.5s-26.833 22.167 -43.5 30.5s-34.667 16.5 -54 24.5l-60.5 25.5c-21 9 -40.167 19.5 -57.5 31.5
s-31.833 26.333 -43.5 43s-17.5 37 -17.5 61c0 25.333 4.83301 47.666 14.5 66.999s22.334 35.333 38.001 48s33.334 22.167 53.001 28.5s39.5 9.5 59.5 9.5c28 0 54.667 -3.66699 80 -11s47.666 -18.333 66.999 -33c2.66699 -2 3 -4.66699 1 -8l-8 -11
c-2 -2 -4.66699 -2 -8 0c-19.333 15.333 -40.666 26.166 -63.999 32.499s-45.333 9.5 -66 9.5c-16 0 -32.5 -2.5 -49.5 -7.5s-32.5 -12.667 -46.5 -23s-25.333 -23.833 -34 -40.5s-13 -36.667 -13 -60c0 -19.333 4.83301 -36 14.5 -50s21.834 -26.333 36.501 -37
s31 -20 49 -28s35.333 -15.333 52 -22c24.667 -10 47.167 -20.167 67.5 -30.5s37.5 -22.333 51.5 -36s24.833 -29.5 32.5 -47.5s11.5 -39.333 11.5 -64c0 -28 -5 -52.167 -15 -72.5s-23.667 -37.166 -41 -50.499s-37.333 -23.166 -60 -29.499s-47 -9.5 -73 -9.5
c-14 0 -28.667 1.16699 -44 3.5s-30 6 -44 11s-26.833 10.833 -38.5 17.5s-20.834 14.667 -27.501 24c-2 2 -3 3.66699 -3 5c0 0.666992 1 2 3 4l8 6c3.33301 2 5.5 2.66699 6.5 2s2.5 -2 4.5 -4c6 -8 14.167 -15 24.5 -21s21.666 -11.167 33.999 -15.5
s25.166 -7.66602 38.499 -9.99902s26 -3.5 38 -3.5z" />
    <glyph glyph-name="T" unicode="T" horiz-adv-x="391" 
d="M381 601c0 -3.33301 -1.66699 -5 -5 -5h-163c-4.66699 0 -7 -1.66699 -7 -5v-586c0 -3.33301 -1.66699 -5 -5 -5h-11c-4.66699 0 -7 1.66699 -7 5v586c0 3.33301 -2 5 -6 5h-162c-3.33301 0 -5 1.66699 -5 5v10c0 4 1.66699 6 5 6h361c3.33301 0 5 -2 5 -6v-10z" />
    <glyph glyph-name="U" unicode="U" horiz-adv-x="470" 
d="M410 158c0 -24 -4.16992 -46.166 -12.5029 -66.499s-20 -37.833 -35 -52.5s-33.167 -26 -54.5 -34s-45.333 -12 -72 -12c-30 0 -56 4.33301 -78 13s-40.167 20.5 -54.5 35.5s-25.166 32.5 -32.499 52.5s-11 41.333 -11 64v454c0 3.33301 2 5 6 5h12
c3.33301 0 5 -1.66699 5 -5v-450c0 -20.667 3.16699 -40 9.5 -58s15.833 -33.667 28.5 -47s28.667 -23.833 48 -31.5s42 -11.5 68 -11.5c24.667 0 46.334 3.83301 65.001 11.5s34.334 18.167 47.001 31.5s22.167 28.666 28.5 45.999s9.5 36 9.5 56v453c0 3.33301 2 5 6 5h12
c3.33301 0 5 -1.66699 5 -5v-454z" />
    <glyph glyph-name="V" unicode="V" horiz-adv-x="406" 
d="M222 5c-0.666992 -3.33301 -2.99902 -4.99805 -6.99902 -4.99805h-27c-2 0 -3.66699 1.66699 -5 5l-174 606c-1.33301 3.33301 -1.5 5.16602 -0.5 5.49902s2.5 0.5 4.5 0.5h14c3.33301 0 5.66602 -2 6.99902 -6l103 -360l64 -226
c1.33301 -5.33301 2.66602 -5.33301 3.99902 0l64 226l102 360c1.33301 3.33301 2.33301 5.16602 3 5.49902s2.33398 0.5 5.00098 0.5h14c4 0 5 -2.66699 3 -8z" />
    <glyph glyph-name="W" unicode="W" horiz-adv-x="623" 
d="M485 5c-0.666992 -3.33301 -2.99805 -4.99805 -6.99805 -4.99805h-27c-2 0 -3.66699 1.66699 -5 5l-103 423l-36 153c-0.666992 1.33301 -1.33398 2 -2.00098 2s-1 -0.666992 -1 -2l-35 -156l-97 -420c-0.666992 -3.33301 -3 -5 -7 -5h-27c-2 0 -3.66699 1.66699 -5 5
l-133 606c-1.33301 3.33301 -1.5 5.16602 -0.5 5.49902s2.5 0.5 4.5 0.5h13c3.33301 0 5.66602 -2 6.99902 -6l89 -411l38 -176c1.33301 -5.33301 2.66602 -5.33301 3.99902 0l39 175l94 412c0.666992 4 3.33398 6 8.00098 6h19c4 0 6.33301 -2.66699 7 -8l104 -428l37 -157
c1.33301 -5.33301 2.66602 -5.33301 3.99902 0l33 161l88 426c1.33301 3.33301 2.33301 5.16602 3 5.49902s2.33398 0.5 5.00098 0.5h15c2.66699 0 3.66699 -2.66699 3 -8z" />
    <glyph glyph-name="X" unicode="X" horiz-adv-x="395" 
d="M388 7c1.33301 -1.33301 1.66797 -2.83105 1.00098 -4.49805s-2 -2.5 -4 -2.5h-13h-3.5c-1 0 -2.16699 0.666992 -3.5 2l-165 292c-1.33301 2.66699 -2.5 3.66699 -3.5 3s-1.83301 -1.33398 -2.5 -2.00098l-165 -293c-1.33301 -1.33301 -2.5 -2 -3.5 -2h-3.5h-13
c-2 0 -3.33301 0.833008 -4 2.5s-0.333984 3.16699 0.999023 4.5l174 308c2.66699 4 3.66699 6.66699 3 8l-2 4l-159 283c-2.66699 4.66699 -1.66699 7 3 7h14c4 0 6.33301 -0.666992 7 -2l147 -264c1.33301 -2 2.5 -2.83301 3.5 -2.5s1.83301 1.16602 2.5 2.49902l148 264
c0.666992 1.33301 3 2 7 2h14c4 0 5 -2.33301 3 -7l-158 -281c-2.66699 -4 -3.5 -7 -2.5 -9l2.5 -5z" />
    <glyph glyph-name="Y" unicode="Y" horiz-adv-x="387" 
d="M210 255c-2.66699 -5.33301 -4 -9.83398 -4 -13.501v-10.5v-226c0 -3.33301 -1.66699 -5 -5 -5h-12c-4 0 -6 1.66699 -6 5v218c0 5.33301 -0.166992 10 -0.5 14s-1.83301 8.66699 -4.5 14l-166 360c-1.33301 3.33301 -1.5 5.16602 -0.5 5.49902s2.5 0.5 4.5 0.5h15
c2 0 3.33301 -0.666992 4 -2s1.66699 -2.66602 3 -3.99902l154 -337c1.33301 -2.66699 2.66602 -2.66699 3.99902 0l154 337c1.33301 2.66699 2.33301 4.33398 3 5.00098s2.33398 1 5.00098 1h14c4.66699 0 5.66699 -2.66699 3 -8z" />
    <glyph glyph-name="Z" unicode="Z" horiz-adv-x="379" 
d="M369 6c0 -4 -1.66406 -5.99805 -4.99707 -5.99805h-348c-4 0 -6 2 -6 6v8c0 3.33301 0.333008 6.16602 1 8.49902s1.33398 4.16602 2.00098 5.49902l324 563c1.33301 2.66699 1.66602 4.16699 0.999023 4.5s-2.33398 0.5 -5.00098 0.5h-302c-4.66699 0 -7 2 -7 6v9
c0 4 2 6 6 6h330c4 0 6 -2 6 -6v-8c0 -4.66699 -0.666992 -8.33398 -2 -11.001l-323 -564c-2.66699 -4 -1.33398 -6 3.99902 -6h318c3.33301 0 5.16602 -0.666992 5.49902 -2s0.5 -2.66602 0.5 -3.99902v-10v0z" />
    <glyph glyph-name="bracketleft" unicode="[" horiz-adv-x="293" 
d="M214 -134c0 -4 -1.66699 -6 -5 -6h-114c-3.33301 0 -5 2 -5 6v801c0 4 1.66699 6 5 6h114c3.33301 0 5 -2 5 -6v-8c0 -3.33301 -1.66699 -5 -5 -5h-89c-4.66699 0 -7 -1.66699 -7 -5v-765c0 -3.33301 2.33301 -5 7 -5h89c3.33301 0 5 -1.66699 5 -5v-8v0z" />
    <glyph glyph-name="backslash" unicode="\" horiz-adv-x="274" 
d="M271 -62c0.666992 -3.33301 -1.33398 -5 -6.00098 -5h-7c-2 0 -3.16699 0.5 -3.5 1.5s-0.833008 2.16699 -1.5 3.5l-247 730c-1.33301 3.33301 0.333984 5 5.00098 5h7c3.33301 0 5.33301 -1.66699 6 -5l247 -730v0z" />
    <glyph glyph-name="bracketright" unicode="]" horiz-adv-x="299" 
d="M179 -134c0 -4 -1.66699 -6 -5 -6h-114c-3.33301 0 -5 2 -5 6v8c0 3.33301 1.66699 5 5 5h89c4.66699 0 7 1.66699 7 5v765c0 3.33301 -2.33301 5 -7 5h-89c-3.33301 0 -5 1.66699 -5 5v8c0 4 1.66699 6 5 6h114c3.33301 0 5 -2 5 -6v-801v0z" />
    <glyph glyph-name="asciicircum" unicode="^" horiz-adv-x="474" 
d="M405 390c2 -2.66699 0.999023 -5.66895 -3.00098 -9.00195l-6 -4c-1.33301 -1.33301 -3 -1.16602 -5 0.500977s-3.66699 3.16699 -5 4.5l-154 204c-1.33301 2 -2.66602 2 -3.99902 0l-146 -202c-3.33301 -5.33301 -7 -6.66602 -11 -3.99902l-5 4
c-4 3.33301 -4.33301 7 -1 11l152 223c1.33301 3.33301 5 5 11 5h9c2 0 3.5 -0.5 4.5 -1.5l3.5 -3.5l160 -228v0z" />
    <glyph glyph-name="underscore" unicode="_" horiz-adv-x="500" 
d="M505 -93c0 -3.33301 -1.66699 -5 -5 -5h-499c-3.33301 0 -5 1.66699 -5 5l-1 9c0 4 2 6 6 6h499c3.33301 0 5 -2 5 -6v-9z" />
    <glyph glyph-name="grave" unicode="`" horiz-adv-x="385" 
d="M234 506c2 -4 1.33301 -6.99902 -2 -8.99902l-5 -3c-3.33301 -2 -6.33301 -1 -9 3l-81 117c-1.33301 1.33301 -1.83301 3.16602 -1.5 5.49902s2.5 4.5 6.5 6.5l15 7c6 2.66699 10 1.66699 12 -3l65 -124v0z" />
    <glyph glyph-name="a" unicode="a" horiz-adv-x="355" 
d="M315 5c0 -3.33301 -1.99707 -5.00195 -5.99707 -5.00195h-12c-3.33301 0 -5 1.66699 -5 5v50c0 4 -0.666992 6 -2 6s-2.66602 -1.33301 -3.99902 -4c-12.667 -19.333 -29.5 -34.5 -50.5 -45.5s-45.833 -16.5 -74.5 -16.5c-44 0 -78.167 12.667 -102.5 38
s-36.5 59 -36.5 101c0 20 3.16699 38.833 9.5 56.5s15.666 33.167 27.999 46.5s27.666 24 45.999 32s39.5 12 63.5 12c27.333 0 51.333 -5.66699 72 -17s36 -26.333 46 -45c1.33301 -2.66699 2.5 -3.5 3.5 -2.5s1.5 2.5 1.5 4.5v72c0 14 -1.5 28.5 -4.5 43.5
s-8.66699 28.5 -17 40.5s-20.333 21.833 -36 29.5s-36.5 11.5 -62.5 11.5c-16.667 0 -35.334 -1.83301 -56.001 -5.5s-37.667 -8.5 -51 -14.5c-3.33301 -2.66699 -6 -2 -8 2l-4 9c-0.666992 2.66699 0.666016 5.33398 3.99902 8.00098c16 7.33301 34.833 12.833 56.5 16.5
s41.5 5.5 59.5 5.5c49.333 0 85.333 -12.167 108 -36.5s34 -60.166 34 -107.499v-290zM291.003 137.998c0 16.667 -2.99902 32.668 -8.99902 48.001s-14.333 28.5 -25 39.5s-23.5 19.833 -38.5 26.5s-31.5 10 -49.5 10c-20 0 -37.833 -3.5 -53.5 -10.5
s-28.834 -16.167 -39.501 -27.5s-18.667 -24.833 -24 -40.5s-8 -31.834 -8 -48.501c0 -17.333 2.16699 -33.333 6.5 -48s11.333 -27.5 21 -38.5s22.167 -19.667 37.5 -26s34 -9.5 56 -9.5c18 0 34.833 3.33301 50.5 10s29 15.667 40 27s19.667 24.5 26 39.5
s9.5 31.167 9.5 48.5z" />
    <glyph glyph-name="b" unicode="b" horiz-adv-x="392" 
d="M360 147c0 -21.333 -3.33398 -41.3301 -10.001 -59.9971s-16.334 -34.834 -29.001 -48.501s-28.667 -24.334 -48 -32.001s-41.333 -11.5 -66 -11.5s-48.667 4.66699 -72 14s-41.666 25 -54.999 47c-2 3.33301 -3.66699 4.66602 -5 3.99902s-2 -2.66699 -2 -6v-49
c0 -3.33301 -1.66699 -5 -5 -5h-12c-4 0 -6 1.66699 -6 5v627c0 3.33301 2 5 6 5h12c3.33301 0 5 -1.66699 5 -5v-253c0 -8.66699 2.33301 -9.66699 7 -3c15.333 20.667 34 36.167 56 46.5s45.667 15.5 71 15.5c29.333 0 53.833 -5 73.5 -15s35.334 -22.833 47.001 -38.5
s20 -33.167 25 -52.5s7.5 -38.333 7.5 -57v-128zM337.999 278.003c0 18 -2.66699 35.502 -8 52.502s-13.333 32 -24 45s-24.5 23.333 -41.5 31s-36.833 11.5 -59.5 11.5c-19.333 0 -37.166 -3.66699 -53.499 -11s-30.333 -17.333 -42 -30s-20.834 -27.334 -27.501 -44.001
s-10 -34.334 -10 -53.001v-133c0 -19.333 3.16699 -37.166 9.5 -53.499s15.333 -30.333 27 -42s25.667 -20.834 42 -27.501s34.5 -10 54.5 -10c42.667 0 75.5 12.333 98.5 37s34.5 57.667 34.5 99v128z" />
    <glyph glyph-name="c" unicode="c" horiz-adv-x="355" 
d="M309 61c4 4.66699 7.33398 6 10.001 4l7 -5c4 -2 4.66699 -5 2 -9c-12 -19.333 -29.167 -33.5 -51.5 -42.5s-47.5 -13.5 -75.5 -13.5c-50 0 -88.5 14.333 -115.5 43s-40.5 66 -40.5 112v134c0 22.667 3.83301 43.5 11.5 62.5s18.5 35.167 32.5 48.5
s30.5 23.833 49.5 31.5s39.833 11.5 62.5 11.5c26.667 0 50.834 -4.83301 72.501 -14.5s39.167 -23.167 52.5 -40.5c2.66699 -3.33301 2.66699 -6 0 -8l-10 -8c-2.66699 -2.66699 -5.33398 -2.33398 -8.00098 0.999023c-12 16 -27.5 28.333 -46.5 37s-39.167 13 -60.5 13
c-20 0 -38.167 -3.5 -54.5 -10.5s-30.333 -16.5 -42 -28.5s-20.834 -26.167 -27.501 -42.5s-10 -34.166 -10 -53.499v-132c0 -42.667 12.167 -76 36.5 -100s57.166 -36 98.499 -36c23.333 0 44.333 3.83301 63 11.5s33.334 19.167 44.001 34.5z" />
    <glyph glyph-name="d" unicode="d" horiz-adv-x="402" 
d="M359 5c0 -3.33301 -2.00195 -5.00488 -6.00195 -5.00488h-12c-3.33301 0 -5 1.66699 -5 5v49c0 6.66699 -2.33301 7.33398 -7 2.00098c-15.333 -21.333 -34 -36.833 -56 -46.5s-45.333 -14.5 -70 -14.5c-25.333 0 -47.5 3.83301 -66.5 11.5s-35 18.334 -48 32.001
s-22.833 29.834 -29.5 48.501s-10 38.667 -10 60v130c0 18.667 2.83301 37.5 8.5 56.5s14.834 36.333 27.501 52s28.667 28.334 48 38.001s43 14.5 71 14.5c25.333 0 49.333 -5.5 72 -16.5s40.334 -26.5 53.001 -46.5c2 -3.33301 3.66699 -4.66602 5 -3.99902s2 3 2 7v254
c0 3.33301 1.66699 5 5 5h12c4 0 6 -1.66699 6 -5v-627zM336.998 279.995c0 18.667 -3.33203 36.332 -9.99902 52.999s-15.834 31.334 -27.501 44.001s-25.667 22.667 -42 30s-34.166 11 -53.499 11c-22.667 0 -42.334 -3.83301 -59.001 -11.5s-30.5 -18 -41.5 -31
s-19.167 -28 -24.5 -45s-8 -34.5 -8 -52.5v-128c0 -40 11.5 -72.667 34.5 -98s55.833 -38 98.5 -38c20 0 38.167 3.33301 54.5 10s30.333 15.834 42 27.501s20.667 25.667 27 42s9.5 34.166 9.5 53.499v133z" />
    <glyph glyph-name="e" unicode="e" horiz-adv-x="393" 
d="M358 234c0 -9.33301 -3.66797 -13.9961 -11.001 -13.9961h-267c-6.66699 0 -10 -3.33301 -10 -10v-62c0 -38.667 11.333 -70.667 34 -96s56.334 -38 101.001 -38c28 0 50 4.33301 66 13s30 20 42 34c2.66699 3.33301 4.5 5.16602 5.5 5.49902s2.16699 -0.166992 3.5 -1.5
l7 -5c4 -2 4.66699 -5 2 -9c-16 -21.333 -34.333 -36 -55 -44s-45 -12 -73 -12c-49.333 0 -87.5 14 -114.5 42s-40.5 65.333 -40.5 112v132c0 25.333 4 47.666 12 66.999s19 35.666 33 48.999s30.333 23.5 49 30.5s38.667 10.5 60 10.5s41.5 -3.16699 60.5 -9.5
s35.5 -16 49.5 -29s25.167 -29.833 33.5 -50.5s12.5 -45.334 12.5 -74.001v-41zM335.999 282.004c0 40 -12.167 72.666 -36.5 97.999s-56.833 38 -97.5 38c-18.667 0 -36 -3.33301 -52 -10s-30 -16 -42 -28s-21.333 -26.167 -28 -42.5s-10 -34.166 -10 -53.499v-32
c0 -7.33301 3.33301 -11 10 -11h247c6 0 9 3.66699 9 11v30z" />
    <glyph glyph-name="f" unicode="f" horiz-adv-x="249" 
d="M271 620c-1.33301 -4 -3.66406 -5.66797 -6.99707 -5.00098c-7.33301 2.66699 -15.833 5 -25.5 7s-19.5 3 -29.5 3c-20.667 0 -37.834 -2.66699 -51.501 -8s-24.667 -13.166 -33 -23.499s-14.333 -22.833 -18 -37.5s-5.5 -31 -5.5 -49v-66c0 -5.33301 2 -8 6 -8h135
c3.33301 0 5 -2 5 -6v-9c0 -3.33301 -1.33301 -5 -4 -5h-138c-2.66699 -0.666992 -4 -3.33398 -4 -8.00098v-400c0 -3.33301 -1.66699 -5 -5 -5h-13c-4 0 -6 1.66699 -6 5v400c0 4.66699 -1.33301 7.33398 -4 8.00098h-52c-3.33301 0 -5 1.66699 -5 5v9c0 4 1.66699 6 5 6
h50c4.66699 0 7 2.66699 7 8v74c0 46.667 12 80 36 100s54.333 30 91 30c9.33301 0 20.166 -0.833008 32.499 -2.5s23.166 -4.16699 32.499 -7.5c2.66699 -0.666992 3.66699 -2.66699 3 -6z" />
    <glyph glyph-name="g" unicode="g" horiz-adv-x="413" 
d="M413 -90c0 -21.333 -6.00098 -41.665 -18.001 -60.998s-28.333 -34.666 -49 -45.999c-3.33301 -2 -6 -1.66699 -8 1l-7 10c-2 3.33301 -1 6.66602 3 9.99902c14 9.33301 26.5 20.833 37.5 34.5s16.5 29.834 16.5 48.501s-4.66699 34.167 -14 46.5
s-21.333 22.166 -36 29.499s-31.5 12.666 -50.5 15.999s-37.833 5 -56.5 5c-21.333 0 -45.666 -1.83301 -72.999 -5.5l-79 -10.5c-8.66699 -1.33301 -14.667 2 -18 10s-5 22.667 -5 44c0 11.333 5.5 27.5 16.5 48.5s28.167 40.5 51.5 58.5c4.66699 2 4.33398 5 -0.999023 9
c-23.333 12.667 -41.166 30.834 -53.499 54.501s-18.5 49.167 -18.5 76.5c0 19.333 3.5 38 10.5 56s17 33.833 30 47.5s29 24.667 48 33s40.167 12.5 63.5 12.5c13.333 0 29 -2.16699 47 -6.5s34.667 -13.166 50 -26.499c5.33301 -4.66699 8.83301 -6.16699 10.5 -4.5
s3.5 3.16699 5.5 4.5c10.667 8 23.167 15.167 37.5 21.5s29.166 10.166 44.499 11.499c5.33301 1.33301 8 -1.33398 8 -8.00098v-19c0 -4.66699 -2 -7 -6 -7c-11.333 -0.666992 -24.333 -2.66699 -39 -6s-24.667 -6.66602 -30 -9.99902
c-3.33301 -2 -4.66602 -4.16699 -3.99902 -6.5s2.66699 -6.16602 6 -11.499c7.33301 -10.667 12.666 -23.167 15.999 -37.5s5 -27.833 5 -40.5c0 -24.667 -4.33301 -46.5 -13 -65.5s-20 -35.167 -34 -48.5s-30.167 -23.5 -48.5 -30.5s-37.5 -10.5 -57.5 -10.5
c-6.66699 0 -13 0.166992 -19 0.5s-12.333 1.16602 -19 2.49902c-5.33301 1.33301 -9 1.66602 -11 0.999023s-4.33301 -2 -7 -4c-7.33301 -4.66699 -14.833 -10.667 -22.5 -18s-14.834 -15.5 -21.501 -24.5s-12 -18.5 -16 -28.5s-6 -19.667 -6 -29
c0 -8 0.833008 -14.667 2.5 -20s6.16699 -7.33301 13.5 -6c20.667 4 42.667 7.5 66 10.5s46 4.5 68 4.5c24 0 47.167 -2.16699 69.5 -6.5s42 -11.333 59 -21s30.5 -21.834 40.5 -36.501s15 -32 15 -52zM330.999 292.001c0 16.667 -3 32.6689 -9 48.002
s-14.5 28.666 -25.5 39.999s-24.5 20.333 -40.5 27s-34 10 -54 10c-19.333 0 -36.833 -3.5 -52.5 -10.5s-29 -16.333 -40 -28s-19.667 -25.334 -26 -41.001s-9.5 -31.834 -9.5 -48.501c0 -16 2.83301 -31.833 8.5 -47.5s14 -29.667 25 -42s24.333 -22.333 40 -30
s33.5 -11.5 53.5 -11.5c20.667 0 39.167 3.83301 55.5 11.5s30 17.834 41 30.501s19.333 27 25 43s8.5 32.333 8.5 49z" />
    <glyph glyph-name="h" unicode="h" horiz-adv-x="410" 
d="M363 5c0 -3.33301 -1.66797 -5 -5.00098 -5h-12c-4 0 -6 1.66699 -6 5v273c0 18 -2.83301 35.5 -8.5 52.5s-14 32 -25 45s-24.833 23.5 -41.5 31.5s-36 12 -58 12c-19.333 0 -37.166 -3.66699 -53.499 -11s-30.333 -17.333 -42 -30s-20.667 -27.5 -27 -44.5
s-9.5 -34.833 -9.5 -53.5v-275c0 -3.33301 -1.66699 -5 -5 -5h-12c-4 0 -6 1.66699 -6 5v627c0 3.33301 2 5 6 5h12c3.33301 0 5 -1.66699 5 -5v-252c0 -8.66699 2.33301 -9.66699 7 -3c15.333 20.667 34 36 56 46s45.667 15 71 15c29.333 0 53.833 -4.83301 73.5 -14.5
s35.5 -22.334 47.5 -38.001s20.5 -33.167 25.5 -52.5s7.5 -38.666 7.5 -57.999v-270v0z" />
    <glyph glyph-name="i" unicode="i" horiz-adv-x="160" 
d="M100 555c0 -6 -1.83301 -11 -5.5 -15s-8.16699 -6 -13.5 -6s-10.166 2 -14.499 6s-6.5 9 -6.5 15s2.16699 11 6.5 15s9.16602 6 14.499 6s9.83301 -2 13.5 -6s5.5 -9 5.5 -15zM91 5c0 -3.33301 -1.66699 -5 -5 -5h-12c-4 0 -6 1.66699 -6 5v423c0 3.33301 2 5 6 5h12
c3.33301 0 5 -1.66699 5 -5v-423z" />
    <glyph glyph-name="j" unicode="j" horiz-adv-x="137" 
d="M90 555c0 -6 -1.83301 -11 -5.5 -15s-8.16699 -6 -13.5 -6s-10.166 2 -14.499 6s-6.5 9 -6.5 15s2.16699 11 6.5 15s9.16602 6 14.499 6s9.83301 -2 13.5 -6s5.5 -9 5.5 -15zM-59 -152c0.666992 2.66699 2.66797 3.66699 6.00098 3
c5.33301 -1.33301 12.166 -2.83301 20.499 -4.5s15.5 -2.5 21.5 -2.5c24.667 0 42.334 7.16699 53.001 21.5s16 36.5 16 66.5v496c0 3.33301 1.66699 5 5 5h13c4 0 6 -1.66699 6 -5v-495c0 -40 -7.66699 -68.333 -23 -85s-39 -25 -71 -25
c-18.667 0 -34.334 2.33301 -47.001 7c-2.66699 0.666992 -3.66699 2.66699 -3 6z" />
    <glyph glyph-name="k" unicode="k" horiz-adv-x="390" 
d="M358 5c0 -3.33301 -1.99805 -5.00195 -5.99805 -5.00195h-12c-3.33301 0 -5 1.66699 -5 5l-5 105c-0.666992 16 -3.16699 32 -7.5 48s-11.333 30.167 -21 42.5s-22.5 22.333 -38.5 30s-36.333 11.5 -61 11.5c-18 0 -35 -3.5 -51 -10.5s-29.667 -16.333 -41 -28
s-20.333 -24.667 -27 -39s-10 -28.833 -10 -43.5v-116c0 -3.33301 -1.66699 -5 -5 -5h-12c-4 0 -6 1.66699 -6 5v627c0 3.33301 2 5 6 5h12c3.33301 0 5 -1.66699 5 -5v-419c0 -5.33301 1 -7.66602 3 -6.99902s4 1.66699 6 3l230 219c2.66699 2 4.66699 3.33301 6 4
s3.66602 1 6.99902 1h17c4 0 4.66699 -2 2 -6l-166 -157c-3.33301 -3.33301 -4.83301 -5.83301 -4.5 -7.5s2.16602 -2.16699 5.49902 -1.5s7.33301 1.16699 12 1.5s8.66699 0.5 12 0.5c30 0 54.667 -4.66699 74 -14s34.5 -21.333 45.5 -36s18.667 -31.167 23 -49.5
s6.83301 -36.166 7.5 -53.499z" />
    <glyph glyph-name="l" unicode="l" horiz-adv-x="182" 
d="M162 0c0 -2.66699 -2.33105 -4.33398 -6.99805 -5.00098c-18 -1.33301 -32.333 0 -43 4s-18.834 9.83301 -24.501 17.5s-9.33398 16.667 -11.001 27s-2.5 21.166 -2.5 32.499v556c0 3.33301 1.33301 5 4 5h12c4 0 6 -1.66699 6 -5v-550
c0 -18.667 2.83301 -34.167 8.5 -46.5s19.5 -18.5 41.5 -18.5h9c3.33301 0.666992 5.33301 0.333984 6 -0.999023s1 -2.66602 1 -3.99902v-12z" />
    <glyph glyph-name="m" unicode="m" horiz-adv-x="645" 
d="M596 5c0 -3.33301 -1.66602 -5 -4.99902 -5h-12c-4 0 -6 1.66699 -6 5v290c0 36 -9 65.5 -27 88.5s-49.333 34.5 -94 34.5c-15.333 0 -30 -3.16699 -44 -9.5s-26.333 -15 -37 -26s-19.334 -24 -26.001 -39s-10 -31.167 -10 -48.5v-290c0 -3.33301 -1.66699 -5 -5 -5h-12
c-4 0 -6 1.66699 -6 5v290c0 17.333 -3.16699 33.5 -9.5 48.5s-15 28 -26 39s-23.5 19.667 -37.5 26s-28.333 9.5 -43 9.5c-36 0 -65.5 -11.5 -88.5 -34.5s-34.5 -52.5 -34.5 -88.5v-290c0 -3.33301 -1.66699 -5 -5 -5h-12c-4 0 -6 1.66699 -6 5v290
c0 22.667 3.66699 42.834 11 60.501s17.5 32.667 30.5 45s28.5 21.666 46.5 27.999s37.333 9.5 58 9.5c22 0 44 -5.33301 66 -16s41.333 -31 58 -61c2.66699 -5.33301 5.66699 -5.33301 9 0c14 25.333 33 44.5 57 57.5s47 19.5 69 19.5c50 0 86 -12.5 108 -37.5
s33 -60.167 33 -105.5v-290v0z" />
    <glyph glyph-name="n" unicode="n" horiz-adv-x="410" 
d="M363 5c0 -3.33301 -1.66797 -4.99805 -5.00098 -4.99805h-12c-4 0 -6 1.66699 -6 5v273c0 18 -2.83301 35.5 -8.5 52.5s-14 32 -25 45s-24.833 23.333 -41.5 31s-36 11.5 -58 11.5c-19.333 0 -37.166 -3.66699 -53.499 -11s-30.333 -17.333 -42 -30
s-20.667 -27.334 -27 -44.001s-9.5 -34.334 -9.5 -53.001v-275c0 -3.33301 -1.66699 -5 -5 -5h-12c-4 0 -6 1.66699 -6 5v423c0 3.33301 2 5 6 5h12c3.33301 0 5 -1.66699 5 -5v-48c0 -8.66699 2.33301 -9.66699 7 -3c15.333 20.667 34 36 56 46s45.667 15 71 15
c29.333 0 53.833 -4.83301 73.5 -14.5s35.5 -22.334 47.5 -38.001s20.5 -33.167 25.5 -52.5s7.5 -38.666 7.5 -57.999v-270v0z" />
    <glyph glyph-name="o" unicode="o" horiz-adv-x="408" 
d="M360 152c0 -50 -13.333 -88.6699 -40 -116.003s-64.667 -41 -114 -41c-51.333 0 -90.166 14.333 -116.499 43s-39.5 66 -39.5 112v134c0 22.667 3.66699 43.334 11 62.001s17.833 34.834 31.5 48.501s30.167 24.334 49.5 32.001s40.666 11.5 63.999 11.5
c48 0 85.667 -14 113 -42s41 -65.667 41 -113v-131zM338 281.997c0 39.333 -11 71.832 -33 97.499s-55 38.5 -99 38.5c-19.333 0 -37.166 -3.5 -53.499 -10.5s-30.5 -16.5 -42.5 -28.5s-21.333 -26.167 -28 -42.5s-10 -34.166 -10 -53.499v-132
c0 -42.667 11.667 -76.167 35 -100.5s56.666 -36.5 99.999 -36.5s76 12.167 98 36.5s33 58.5 33 102.5v129z" />
    <glyph glyph-name="p" unicode="p" horiz-adv-x="411" 
d="M365 158c0 -18.667 -2.49902 -37.666 -7.49902 -56.999s-13.5 -36.833 -25.5 -52.5s-27.833 -28.5 -47.5 -38.5s-43.834 -15 -72.501 -15c-25.333 0 -49 4.83301 -71 14.5s-40.667 24.834 -56 45.501c-4.66699 6.66699 -7 5.66699 -7 -3v-227
c0 -3.33301 -1.66699 -5 -5 -5h-12c-4 0 -6 1.66699 -6 5v603c0 3.33301 2 5 6 5h12c3.33301 0 5 -1.66699 5 -5v-45c0 -6.66699 2.33301 -7.33398 7 -2.00098c13.333 18.667 31.666 32.834 54.999 42.501s47.333 14.5 72 14.5s46.667 -3.83301 66 -11.5
s35.333 -18.334 48 -32.001s22.334 -29.834 29.001 -48.501s10 -38.667 10 -60v-128zM343.001 283.001c0 41.333 -11.5 74.335 -34.5 99.002s-55.833 37 -98.5 37c-20 0 -38.167 -3.33301 -54.5 -10s-30.333 -15.834 -42 -27.501s-20.667 -25.667 -27 -42
s-9.5 -34.166 -9.5 -53.499v-133c0 -18.667 3.33301 -36.334 10 -53.001s15.834 -31.334 27.501 -44.001s25.667 -22.667 42 -30s34.166 -11 53.499 -11c22 0 41.333 3.66699 58 11s30.5 17.333 41.5 30s19.333 27.5 25 44.5s8.5 35.167 8.5 54.5v128z" />
    <glyph glyph-name="q" unicode="q" horiz-adv-x="401" 
d="M348 -175c0 -3.33301 -2.00098 -5.00293 -6.00098 -5.00293h-12c-3.33301 0 -5 1.66699 -5 5v226c0 8.66699 -2.33301 9.66699 -7 3c-15.333 -20.667 -34 -35.667 -56 -45s-45.667 -14 -71 -14c-29.333 0 -53.666 5 -72.999 15s-35 22.833 -47 38.5
s-20.5 33.167 -25.5 52.5s-7.5 38.333 -7.5 57v128c0 21.333 3.33301 41.333 10 60s16.334 34.834 29.001 48.501s28.5 24.334 47.5 32.001s41.167 11.5 66.5 11.5c24.667 0 48.667 -4.66699 72 -14s41.666 -23.333 54.999 -42c4.66699 -5.33301 7 -4.66602 7 2.00098v44
c0 3.33301 1.66699 5 5 5h12c4 0 6 -1.66699 6 -5v-603zM325.999 285.997c0 19.333 -3.16699 37.1641 -9.5 53.4971s-15.333 30.333 -27 42s-25.667 20.834 -42 27.501s-34.5 10 -54.5 10c-42.667 0 -75.5 -12.333 -98.5 -37s-34.5 -57.667 -34.5 -99v-128
c0 -18 2.83301 -35.5 8.5 -52.5s14 -32 25 -45s24.833 -23.333 41.5 -31s36 -11.5 58 -11.5c19.333 0 37.166 3.66699 53.499 11s30.333 17.333 42 30s20.834 27.334 27.501 44.001s10 34.334 10 53.001v133z" />
    <glyph glyph-name="r" unicode="r" horiz-adv-x="236" 
d="M73 433c3.33301 0 4.99707 -1.66602 4.99707 -4.99902v-49c0 -8 2.33301 -8.66699 7 -2c12 18 27.333 33 46 45s39.334 18 62.001 18h14.5c5 0 9.83301 -0.666992 14.5 -2c4.66699 -0.666992 6.66699 -3 6 -7l-4 -14c-0.666992 -4.66699 -4 -6.33398 -10 -5.00098
c-3.33301 0.666992 -7.16602 1.16699 -11.499 1.5s-8.16602 0.5 -11.499 0.5c-34 0 -61.333 -12.667 -82 -38s-31 -57.333 -31 -96v-275c0 -3.33301 -1.66699 -5 -5 -5h-12c-4 0 -6 1.66699 -6 5v423c0 3.33301 2 5 6 5h12z" />
    <glyph glyph-name="s" unicode="s" horiz-adv-x="318" 
d="M294 104c0 -13.333 -2.66211 -26.501 -7.99512 -39.501s-13.5 -24.667 -24.5 -35s-25.333 -18.833 -43 -25.5s-38.834 -10 -63.501 -10c-26.667 0 -52.667 5.83301 -78 17.5s-44.666 29.167 -57.999 52.5c-2.66699 4 -1.66699 7 3 9l8 4c4 2.66699 6.66699 1.66699 8 -3
c10.667 -17.333 26.667 -31.833 48 -43.5s43.666 -17.5 66.999 -17.5c36 0 64.667 8 86 24s32 38.333 32 67c0 16 -3.5 29.833 -10.5 41.5s-15.667 21.667 -26 30s-21.833 15.333 -34.5 21s-24.667 10.5 -36 14.5l-45 17.5c-16 6.33301 -30.667 14 -44 23s-24.333 20 -33 33
s-13 28.5 -13 46.5s3.83301 33.667 11.5 47s17.667 24.5 30 33.5s26.166 15.667 41.499 20s30.666 6.5 45.999 6.5c26 0 49.667 -4.16699 71 -12.5s38.666 -19.166 51.999 -32.499c3.33301 -3.33301 3.66602 -6.33301 0.999023 -9l-8 -9c-3.33301 -2 -6.33301 -1.66699 -9 1
c-12.667 12.667 -28.667 22.834 -48 30.501s-39 11.5 -59 11.5c-8 0 -18.167 -1.33301 -30.5 -4s-24 -7.33398 -35 -14.001s-20.5 -15.5 -28.5 -26.5s-12 -24.833 -12 -41.5c0 -16 4.33301 -29.5 13 -40.5s19.5 -20.5 32.5 -28.5s26.833 -14.833 41.5 -20.5
s28 -10.5 40 -14.5c14.667 -5.33301 29 -11.5 43 -18.5s26.333 -15.333 37 -25s19.167 -21 25.5 -34s9.5 -28.5 9.5 -46.5z" />
    <glyph glyph-name="t" unicode="t" horiz-adv-x="265" 
d="M264 10c0.666992 -3.33301 -0.332031 -5.33496 -2.99902 -6.00195c-9.33301 -3.33301 -21.833 -5.66602 -37.5 -6.99902s-28.167 -2 -37.5 -2c-20 0 -36.167 3.16699 -48.5 9.5s-22 14.833 -29 25.5s-11.667 23.167 -14 37.5s-3.5 29.5 -3.5 45.5v292
c0 5.33301 -2.33301 8 -7 8h-61c-3.33301 0 -5 2 -5 6v9c0 3.33301 1.66699 5 5 5h63c3.33301 0.666992 5 3 5 7v111c0 2.66699 2 4.66699 6 6l12 3c3.33301 0.666992 5 -1 5 -5v-115c0 -4 1.33301 -6.33301 4 -7h121c3.33301 0 5 -1.66699 5 -5v-9c0 -4 -1.66699 -6 -5 -6
h-119c-4 0 -6 -2.66699 -6 -8v-290c0 -36.667 6.16699 -62.5 18.5 -77.5s31.5 -22.5 57.5 -22.5c10 0 21.5 0.833008 34.5 2.5s23.167 3.83398 30.5 6.50098c3.33301 0.666992 5.66602 -1 6.99902 -5l2 -9v0z" />
    <glyph glyph-name="u" unicode="u" horiz-adv-x="413" 
d="M363 5c0 -3.33301 -1.99902 -4.99902 -5.99902 -4.99902h-12c-3.33301 0 -5 1.66699 -5 5v48c0 8.66699 -2.33301 9.66699 -7 3c-15.333 -20 -34 -35.167 -56 -45.5s-45.667 -15.5 -71 -15.5c-29.333 0 -53.833 4.83301 -73.5 14.5s-35.5 22.334 -47.5 38.001
s-20.5 33.167 -25.5 52.5s-7.5 38.666 -7.5 57.999v270c0 3.33301 1.66699 5 5 5h12c4 0 6 -1.66699 6 -5v-273c0 -18 2.83301 -35.5 8.5 -52.5s14 -31.833 25 -44.5s24.833 -22.834 41.5 -30.501s36 -11.5 58 -11.5c19.333 0 37.166 3.66699 53.499 11
s30.333 17.166 42 29.499s20.667 26.833 27 43.5s9.5 34.334 9.5 53.001v275c0 3.33301 1.66699 5 5 5h12c4 0 6 -1.66699 6 -5v-423v0z" />
    <glyph glyph-name="v" unicode="v" horiz-adv-x="354" 
d="M192 7c-1.33301 -4.66699 -3.99902 -6.99902 -7.99902 -6.99902h-12c-4 0 -6.5 0.166992 -7.5 0.5s-2.16699 2.16602 -3.5 5.49902l-150 421c-1.33301 4 0.333984 6 5.00098 6h10c3.33301 0 5.5 -0.5 6.5 -1.5s2.16699 -3.16699 3.5 -6.5l90 -256l48 -139
c2 -5.33301 4 -5.33301 6 0l47 138l90 257c1.33301 3.33301 2.5 5.5 3.5 6.5s3.16699 1.5 6.5 1.5h10c3.33301 0 5.16602 -0.5 5.49902 -1.5s0.166016 -2.5 -0.500977 -4.5z" />
    <glyph glyph-name="w" unicode="w" horiz-adv-x="544" 
d="M425 7c-1.33301 -4.66699 -3.99707 -6.99805 -7.99707 -6.99805h-13c-4 0 -6.5 0.166992 -7.5 0.5s-2.16699 2.16602 -3.5 5.49902l-82 265l-38 125c0 1.33301 -0.5 2.33301 -1.5 3s-1.83301 -0.333008 -2.5 -3l-36 -127l-80 -262c-1.33301 -4.66699 -4 -7 -8 -7h-13
c-4 0 -6.5 0.166992 -7.5 0.5s-2.16699 2.16602 -3.5 5.49902l-111 421c-1.33301 4 0.333984 6 5.00098 6h8c5.33301 0 8.66602 -2.66699 9.99902 -8l66 -256l35 -142c1.33301 -3.33301 2.5 -4.83301 3.5 -4.5s1.83301 1.83301 2.5 4.5l39 136l78 262
c1.33301 3.33301 2.33301 5.5 3 6.5s2.66699 1.5 6 1.5h11c3.33301 0 5.33301 -0.5 6 -1.5s1.66699 -3.16699 3 -6.5l81 -263l39 -132c1.33301 -3.33301 2.5 -4.83301 3.5 -4.5s1.83301 1.83301 2.5 4.5l33 131l68 264c1.33301 5.33301 4.66602 8 9.99902 8h7
c3.33301 0 5.16602 -0.5 5.49902 -1.5s0.166016 -2.5 -0.500977 -4.5z" />
    <glyph glyph-name="x" unicode="x" horiz-adv-x="325" 
d="M166 204c-2.66699 4.66699 -5.33496 4.66699 -8.00195 0l-122 -197c-3.33301 -4.66699 -7.66602 -7 -12.999 -7h-11c-5.33301 0 -6.66602 2 -3.99902 6l134 213c2.66699 4 4.16699 7 4.5 9s-1.16699 5.33301 -4.5 10l-118 189c-2.66699 4 -1.33398 6 3.99902 6h11
c3.33301 0 5.83301 -0.333008 7.5 -1s3.5 -2.66699 5.5 -6l107 -173c1.33301 -3.33301 3.33301 -3 6 1l107 172c2 3.33301 3.83301 5.33301 5.5 6s4.16699 1 7.5 1h11c5.33301 0 6.66602 -2 3.99902 -6l-119 -191c-2.66699 -4 -3.66699 -7 -3 -9s1.66699 -4 3 -6l136 -215
c2.66699 -4 1.33398 -6 -3.99902 -6h-11c-5.33301 -0 -9.66602 2.33301 -12.999 7z" />
    <glyph glyph-name="y" unicode="y" horiz-adv-x="336" 
d="M158 -3v0.999023c0 1.33301 -0.666992 2 -2 2h-4c-4 0 -6.33301 1.66699 -7 5l-141 423c-0.666992 3.33301 1 5 5 5h12c2.66699 0 4.66699 -1.66699 6 -5l134 -403c0.666992 -2 1.5 -3.16699 2.5 -3.5s2.16699 0.833984 3.5 3.50098l137 403
c1.33301 3.33301 3.33301 5 6 5h12c4 0 5.66699 -1.66699 5 -5l-204 -606c-0.666992 -3.33301 -3 -5 -7 -5h-12c-2.66699 0 -4 1.66699 -4 5z" />
    <glyph glyph-name="z" unicode="z" horiz-adv-x="307" 
d="M298 6c0 -4 -2 -6 -6 -6h-268c-4 0 -6 2 -6 6v8c0 4.66699 0.666992 8.33398 2 11.001l240 382c2.66699 4 1.33398 6 -3.99902 6h-224c-4.66699 0 -7 2 -7 6v8c0 4 2 6 6 6h251c4 0 6 -2 6 -6v-8c0 -4.66699 -0.666992 -8.33398 -2 -11.001l-240 -382
c-2.66699 -4 -1.33398 -6 3.99902 -6h241c4.66699 0 7 -2 7 -6v-8v0z" />
    <glyph glyph-name="braceleft" unicode="{" horiz-adv-x="283" 
d="M260 -142c0 -4 -1.66797 -5.99805 -5.00098 -5.99805h-18c-42 -0.666992 -71 9 -87 29s-24 52.333 -24 97v150c0 14 -0.833008 27.667 -2.5 41s-5 25.666 -10 36.999s-12.167 21.666 -21.5 30.999s-22 17 -38 23c-5.33301 2 -8 4.66699 -8 8v11
c0 3.33301 0.666992 5.5 2 6.5s2.66602 1.83301 3.99902 2.5c31.333 13.333 51.5 31.5 60.5 54.5s13.5 49.167 13.5 78.5v138c0 44.667 8 77 24 97s45 29.667 87 29h18c3.33301 0 5 -2 5 -6v-8c0 -3.33301 -1.66699 -5 -5 -5h-23c-31.333 0 -53.5 -7.66699 -66.5 -23
s-19.5 -40.333 -19.5 -75v-165c0 -11.333 -1.5 -23.5 -4.5 -36.5s-7.5 -25.333 -13.5 -37s-13.667 -22.167 -23 -31.5s-20.666 -16.333 -33.999 -21c-5.33301 -2 -5.33301 -3.66699 0 -5c24.667 -8.66699 43.334 -24.5 56.001 -47.5s19 -51.167 19 -84.5v-171
c0 -34.667 6.5 -59.667 19.5 -75s35.167 -23 66.5 -23h23c3.33301 0 5 -1.66699 5 -5v-8v0z" />
    <glyph glyph-name="bar" unicode="|" horiz-adv-x="182" 
d="M101 -106c0 -3.33301 -1.66699 -5 -5 -5h-12c-4 0 -6 1.66699 -6 5v775c0 3.33301 2 5 6 5h12c3.33301 0 5 -1.66699 5 -5v-775v0z" />
    <glyph glyph-name="braceright" unicode="}" horiz-adv-x="283" 
d="M249 272c0 -3.33301 -2.66797 -6.00195 -8.00098 -8.00195c-16 -6 -28.667 -13.667 -38 -23s-16.5 -19.666 -21.5 -30.999s-8.33301 -23.666 -10 -36.999s-2.5 -27 -2.5 -41v-154c0 -44.667 -8 -77 -24 -97s-45 -29.667 -87 -29h-18c-3.33301 0 -5 2 -5 6v8
c0 3.33301 1.66699 5 5 5h23c31.333 0 53.5 7.66699 66.5 23s19.5 40.333 19.5 75v175c0 33.333 6.33301 61.5 19 84.5s31.334 38.833 56.001 47.5c5.33301 1.33301 5.33301 3 0 5c-13.333 4.66699 -24.666 11.667 -33.999 21s-17 19.833 -23 31.5s-10.5 24 -13.5 37
s-4.5 25.167 -4.5 36.5v161c0 34.667 -6.5 59.667 -19.5 75s-35.167 23 -66.5 23h-23c-3.33301 0 -5 1.66699 -5 5v8c0 4 1.66699 6 5 6h18c42 0.666992 71 -9 87 -29s24 -52.333 24 -97v-134c0 -29.333 4.5 -55.5 13.5 -78.5s29.167 -41.167 60.5 -54.5
c1.33301 -0.666992 2.66602 -1.5 3.99902 -2.5s2 -3.16699 2 -6.5v-11v0z" />
    <glyph glyph-name="asciitilde" unicode="~" horiz-adv-x="430" 
d="M411 303c-12 -20.667 -27.166 -36.333 -45.499 -47s-37.166 -16 -56.499 -16s-37.666 3.33301 -54.999 10s-33.666 14.334 -48.999 23.001l-42.5 23.5c-15.667 8.33301 -30.5 12.5 -44.5 12.5c-14.667 0 -29 -3.83301 -43 -11.5s-26.333 -18.834 -37 -33.501
c-2 -2.66699 -3.83301 -3.5 -5.5 -2.5s-3.16699 2.16699 -4.5 3.5l-8 6c-4 2.66699 -4.66699 6 -2 10c12 18 27.167 31.667 45.5 41s37.166 14 56.499 14c16.667 0 33 -3.66699 49 -11s31.667 -15.333 47 -24s30.666 -16.667 45.999 -24s30.666 -11 45.999 -11
c16.667 0 32 5.16699 46 15.5s25.667 21.833 35 34.5c2 3.33301 3.66699 5 5 5s2.66602 -0.333008 3.99902 -1l12 -9c2.66699 -2 3 -4.66699 1 -8z" />
    <glyph glyph-name="exclamdown" unicode="&#xa1;" horiz-adv-x="238" 
d="M113 295c0 4 1.66699 6 5 6h6c4 0 6 -2 6 -6l8 -476c0 -2 -0.333008 -3.66699 -1 -5s-2.66699 -2 -6 -2h-15c-4.66699 0 -7 2.33301 -7 7zM96 408c0 7.33301 2.33301 13.335 7 18.002s10.667 7 18 7s13.333 -2.33301 18 -7s7 -10.667 7 -18
c0 -6.66699 -2.33301 -12.334 -7 -17.001s-10.667 -7 -18 -7s-13.333 2.16699 -18 6.5s-7 10.166 -7 17.499z" />
    <glyph glyph-name="cent" unicode="&#xa2;" horiz-adv-x="430" 
d="M219 417c-19.333 0 -36.6631 -3.66992 -51.9961 -11.0029s-28.333 -17.166 -39 -29.499s-19 -26.666 -25 -42.999s-9 -33.166 -9 -50.499v-132c0 -38.667 10.5 -71 31.5 -97s51.5 -39 91.5 -39c25.333 0 47.166 3.5 65.499 10.5s35.166 18.833 50.499 35.5
c4 4.66699 7.33301 6 10 4l10 -5c2.66699 -1.33301 3.83398 -2.83301 3.50098 -4.5s-0.833008 -3.16699 -1.5 -4.5c-26.667 -36 -67.334 -54.667 -122.001 -56c-2 0 -3 -1 -3 -3v-81c0 -3.33301 -1.33301 -5 -4 -5h-14c-3.33301 0 -5 1.66699 -5 5v82c0 2 -1.33301 3 -4 3
c-44 3.33301 -76.833 19.5 -98.5 48.5s-32.5 64.167 -32.5 105.5v134c0 41.333 12.167 75.833 36.5 103.5s56.166 44.167 95.499 49.5c2 0 3 1.66699 3 5v72c0 4 2 6 6 6h11c4 0 6 -2 6 -6v-71c0 -3.33301 1.66699 -5 5 -5c52.667 -1.33301 92 -19.666 118 -54.999
c2.66699 -3.33301 2.66699 -6 0 -8l-11 -8c-2.66699 -2.66699 -5.33398 -2.33398 -8.00098 0.999023c-13.333 18 -30 30.667 -50 38s-41.667 11 -65 11z" />
    <glyph glyph-name="sterling" unicode="&#xa3;" horiz-adv-x="430" 
d="M262 309c0 -4 -1.66602 -6.00293 -4.99902 -6.00293h-136c-2.66699 0 -4 -1.66699 -4 -5v-118c0 -29.333 -1.16699 -57.166 -3.5 -83.499s-12.5 -49.166 -30.5 -68.499c-3.33301 -4 -2 -6 4 -6h277c3.33301 0 5.16602 -0.666992 5.49902 -2s0.5 -2.66602 0.5 -3.99902
v-10c0 -4 -1.66699 -6 -5 -6h-324c-4 0 -6 2 -6 6v9c0 4 1 6.33301 3 7s4.66699 2 8 4c15.333 10.667 27.166 26.167 35.499 46.5s12.5 51.166 12.5 92.499v135c-1.33301 2 -3 3 -5 3h-51c-3.33301 0 -5 2 -5 6v10c0 4 1.66699 6 5 6h52c1.33301 0 2.66602 1 3.99902 3v147
c0 20.667 4 40.167 12 58.5s19.167 34.166 33.5 47.499s31.5 23.833 51.5 31.5s42.333 11.5 67 11.5c28.667 0 54.834 -5 78.501 -15s42.5 -24 56.5 -42c3.33301 -3.33301 3.33301 -6.33301 0 -9l-8 -6c-4.66699 -3.33301 -8.33398 -2.66602 -11.001 2.00098
c-12 15.333 -28.333 27.333 -49 36s-43 13 -67 13c-20 0 -38.667 -3.16699 -56 -9.5s-32.166 -15.166 -44.499 -26.499s-22.166 -25 -29.499 -41s-11 -33.667 -11 -53v-143c0 -3.33301 1.33301 -5 4 -5h136c3.33301 0 5 -2 5 -6v-10v0z" />
    <glyph glyph-name="currency" unicode="&#xa4;" horiz-adv-x="485" 
d="M164 135c-3.33301 2 -6.33398 3.66992 -9.00098 5.00293s-5.66699 0 -9 -4l-45 -44c-1.33301 -2 -2.83301 -2.66699 -4.5 -2s-3.16699 1.66699 -4.5 3l-8 7c-1.33301 1.33301 -2 2.83301 -2 4.5s0.666992 3.16699 2 4.5l44 44c3.33301 3.33301 4.16602 7 2.49902 11
s-3.16699 7.33301 -4.5 10c-15.333 21.333 -23 46.333 -23 75c0 31.333 9.33301 59 28 83c4.66699 5.33301 5 9.33301 1 12l-49 50c-2 2 -2 4.33301 0 7l11 11c1.33301 1.33301 3.33301 1 6 -1l48 -49c1.33301 -1.33301 3.33301 -2.33301 6 -3s4.66699 -0.333984 6 0.999023
c22.667 16.667 49 25 79 25c15.333 0 29.833 -2.33301 43.5 -7s26.167 -11.334 37.5 -20.001c5.33301 -3.33301 10.333 -3.33301 15 0l48 49c2 2 4.33301 2 7 0l10 -10c2 -2 2 -4.33301 0 -7l-51 -51c-2.66699 -2.66699 -3.66699 -5 -3 -7s1.66699 -3.66699 3 -5
c8 -11.333 14.333 -23.5 19 -36.5s7 -26.833 7 -41.5c0 -28 -8 -53.667 -24 -77c-2.66699 -4.66699 -3 -8.33398 -1 -11.001l49 -49c2 -2.66699 2 -5 0 -7l-9 -8c-1.33301 -1.33301 -2.66602 -2.33301 -3.99902 -3s-2.66602 -0.333984 -3.99902 0.999023l-48 47l-4.5 3
c-1 0.666992 -2.83301 0 -5.5 -2c-11.333 -9.33301 -24.333 -16.666 -39 -21.999s-30 -8 -46 -8c-26.667 0 -51.667 7.33301 -75 22zM123.999 249.003c0 -16 3 -30.833 9 -44.5s14.333 -25.834 25 -36.501s22.834 -19 36.501 -25s28.5 -9 44.5 -9s31.167 3 45.5 9
s26.666 14.333 36.999 25s18.5 22.834 24.5 36.501s9 28.5 9 44.5s-3 31.167 -9 45.5s-14.167 26.666 -24.5 36.999s-22.666 18.5 -36.999 24.5s-29.5 9 -45.5 9s-30.833 -3 -44.5 -9s-25.834 -14.167 -36.501 -24.5s-19 -22.666 -25 -36.999s-9 -29.5 -9 -45.5z" />
    <glyph glyph-name="yen" unicode="&#xa5;" horiz-adv-x="430" 
d="M59 273c-3.33301 0 -4.99902 1.99902 -4.99902 5.99902v8c0 3.33301 1.66699 5 5 5h136c5.33301 0 7.33301 2.33301 6 7c0 2 -0.666992 4.33301 -2 7l-156 305c-1.33301 3.33301 -1.5 5.16602 -0.5 5.49902s2.5 0.5 4.5 0.5h14c2 0 3.33301 -0.666992 4 -2
s1.66699 -2.66602 3 -3.99902l145 -283c1.33301 -2.66699 2.66602 -2.66699 3.99902 0l144 283c1.33301 2.66699 2.33301 4.33398 3 5.00098s2.33398 1 5.00098 1h14c4.66699 0 5.66699 -2.66699 3 -8l-152 -295c-1.33301 -2.66699 -2.33301 -5.16699 -3 -7.5
s-1.33398 -4.5 -2.00098 -6.5c-1.33301 -5.33301 1 -8 7 -8h142c3.33301 0 5 -1.66699 5 -5v-8c0 -4 -1.66699 -6 -5 -6h-319zM378.001 229.999c3.33301 0 5.00098 -1.66699 5.00098 -5v-8c0 -4 -1.66699 -6 -5 -6h-142c-2.66699 0 -4.83398 -0.5 -6.50098 -1.5
s-2.5 -3.5 -2.5 -7.5v-197c0 -3.33301 -1.66699 -5 -5 -5h-12c-4 0 -6 1.66699 -6 5v197c0 2 -0.333008 4 -1 6s-2.66699 3 -6 3h-138c-3.33301 0 -5 2 -5 6v8c0 3.33301 1.66699 5 5 5h319z" />
    <glyph glyph-name="brokenbar" unicode="&#xa6;" horiz-adv-x="182" 
d="M101 -106c0 -3.33301 -1.66699 -5 -5 -5h-12c-4 0 -6 1.66699 -6 5v368c0 3.33301 2 5 6 5h12c3.33301 0 5 -1.66699 5 -5v-368zM101 301c0 -3.33301 -1.66699 -5 -5 -5h-12c-4 0 -6 1.66699 -6 5v368c0 3.33301 2 5 6 5h12c3.33301 0 5 -1.66699 5 -5v-368z" />
    <glyph glyph-name="section" unicode="&#xa7;" horiz-adv-x="386" 
d="M203 622c-34.667 0 -62.166 -8.49707 -82.499 -25.4971s-30.5 -36.5 -30.5 -58.5c0 -18 7.66699 -35.667 23 -53s43 -33.333 83 -48c19.333 -6.66699 37.5 -13.834 54.5 -21.501s32 -16.334 45 -26.001s23.167 -21 30.5 -34s11 -28.5 11 -46.5
c0 -24.667 -6.16699 -45.167 -18.5 -61.5s-28.166 -29.166 -47.499 -38.499c-1.33301 -0.666992 -3 -1 -5 -1s-3.66699 1.66699 -5 5l-3 6c-1.33301 3.33301 -0.833008 5.66602 1.5 6.99902s4.16602 2.66602 5.49902 3.99902c14.667 7.33301 26.834 17.333 36.501 30
s14.5 28.667 14.5 48c0 14.667 -3.16699 27.5 -9.5 38.5s-15.333 20.667 -27 29s-25.167 15.833 -40.5 22.5s-32 13.334 -50 20.001c-36 13.333 -65 29.166 -87 47.499s-33 41.5 -33 69.5c0 30.667 11.667 56 35 76s56.666 30 99.999 30c24.667 0 47.167 -4.33301 67.5 -13
s37.166 -19.667 50.499 -33c3.33301 -3.33301 3.66602 -6.33301 0.999023 -9l-8 -8c-1.33301 -1.33301 -2.83301 -2 -4.5 -2s-3.16699 0.666992 -4.5 2c-12.667 12.667 -28.167 23.167 -46.5 31.5s-37.166 12.5 -56.499 12.5zM193.001 -48.9971
c14 0 28.3311 1.83301 42.998 5.5s28 9.33398 40 17.001s21.833 17.5 29.5 29.5s11.5 26.333 11.5 43c0 14.667 -3.33301 27.5 -10 38.5s-16 20.667 -28 29s-25.833 15.833 -41.5 22.5s-32.5 13.334 -50.5 20.001c-36 13.333 -66 29.166 -90 47.499s-36 41.5 -36 69.5
c0 23.333 7.5 43.833 22.5 61.5s35.5 30.167 61.5 37.5c1.33301 0.666992 2.83301 1 4.5 1s3.16699 -1.66699 4.5 -5l2 -6c1.33301 -3.33301 0.833008 -5.5 -1.5 -6.5s-4.16602 -1.83301 -5.49902 -2.5c-21.333 -6.66699 -37.833 -17 -49.5 -31s-17.5 -29.333 -17.5 -46
c0 -18.667 8.5 -36.334 25.5 -53.001s45.5 -32.667 85.5 -48c20 -6.66699 38.667 -13.667 56 -21s32.666 -16 45.999 -26s23.833 -21.5 31.5 -34.5s11.5 -28.5 11.5 -46.5s-3.83301 -34.167 -11.5 -48.5s-18.167 -26.5 -31.5 -36.5s-29 -17.5 -47 -22.5s-37 -7.5 -57 -7.5
c-28 0 -53.333 4.33301 -76 13s-40.667 19.667 -54 33c-3.33301 3.33301 -3.66602 6.33301 -0.999023 9l8 9c3.33301 2 6.33301 1.66699 9 -1c12.667 -12.667 29.334 -23.167 50.001 -31.5s42.667 -12.5 66 -12.5z" />
    <glyph glyph-name="dieresis" unicode="&#xa8;" horiz-adv-x="383" 
d="M299 569c0 -5.33301 -2.16699 -10.166 -6.5 -14.499s-9.16602 -6.5 -14.499 -6.5s-10 2.16699 -14 6.5s-6 9.16602 -6 14.499c0 6 2 11 6 15s8.66699 6 14 6s10.166 -2 14.499 -6s6.5 -9 6.5 -15zM149 569c0 -6 -2 -10.998 -6 -14.998s-8.66699 -6 -14 -6
s-10 2.16699 -14 6.5s-6 9.16602 -6 14.499c0 6 2 11 6 15s8.66699 6 14 6s10 -1.83301 14 -5.5s6 -8.83398 6 -15.501z" />
    <glyph glyph-name="copyright" unicode="&#xa9;" horiz-adv-x="697" 
d="M350 0c-42.667 0 -81.5 5.66699 -116.5 17s-64.833 27.166 -89.5 47.499s-43.834 45.166 -57.501 74.499s-20.5 62 -20.5 98v143c0 36 6.83301 68.667 20.5 98s32.834 54.166 57.501 74.499s54.5 36.166 89.5 47.499s73.833 17 116.5 17s81.667 -5.33301 117 -16
s65.5 -26.167 90.5 -46.5s44.5 -45.166 58.5 -74.499s21 -62.666 21 -99.999v-143c0 -37.333 -7 -70.666 -21 -99.999s-33.5 -54.166 -58.5 -74.499s-55.167 -35.833 -90.5 -46.5s-74.333 -16 -117 -16zM621 383c0 30.667 -6.16699 59.5029 -18.5 86.5029
s-30.166 50.167 -53.499 69.5s-51.833 34.666 -85.5 45.999s-71.834 17 -114.501 17c-43.333 0 -81.666 -5.83301 -114.999 -17.5s-61.166 -27.334 -83.499 -47.001s-39.333 -42.834 -51 -69.501s-17.5 -55 -17.5 -85v-149c0 -29.333 5.83301 -57.333 17.5 -84
s28.667 -50 51 -70s50.166 -35.833 83.499 -47.5s71.666 -17.5 114.999 -17.5c42.667 0 80.834 5.66699 114.501 17s62.167 27 85.5 47s41.166 43.333 53.499 70s18.5 55 18.5 85v149zM465 174.003c-11.333 -15.333 -26.335 -27.002 -45.002 -35.002s-40 -12 -64 -12
c-39.333 0 -70.833 11.333 -94.5 34s-35.5 52.667 -35.5 90v98c0 17.333 3.16699 33.5 9.5 48.5s15.166 28 26.499 39s24.833 19.667 40.5 26s33.167 9.5 52.5 9.5c23.333 0 44.333 -4.16699 63 -12.5s33.667 -19.833 45 -34.5c2 -4 1.66699 -6.66699 -1 -8l-6 -4
c-3.33301 -3.33301 -6.33301 -3 -9 1c-9.33301 12.667 -22.166 22.667 -38.499 30s-34.166 11 -53.499 11c-16 0 -30.667 -2.66699 -44 -8s-25 -12.666 -35 -21.999s-17.833 -20.666 -23.5 -33.999s-8.5 -28 -8.5 -44v-94c0 -16 3 -30.667 9 -44s14 -25 24 -35
s21.833 -17.667 35.5 -23s28.167 -8 43.5 -8c17.333 0 34.333 3.5 51 10.5s30 17.167 40 30.5c3.33301 4 5.33301 6 6 6s2 -0.666992 4 -2l6 -4c3.33301 -2 4.83301 -3.66699 4.5 -5s-1.16602 -3 -2.49902 -5z" />
    <glyph glyph-name="ordfeminine" unicode="&#xaa;" horiz-adv-x="220" 
d="M197 376c0 -4 -1.66504 -6.00195 -4.99805 -6.00195h-9c-4 0 -6 2 -6 6v20c0 3.33301 -1 4 -3 2c-7.33301 -9.33301 -17 -16.833 -29 -22.5s-25.667 -8.5 -41 -8.5c-25.333 0 -46.833 7.83301 -64.5 23.5s-26.5 35.834 -26.5 60.501c0 24 8.16699 44.5 24.5 61.5
s38.5 25.5 66.5 25.5c30.667 0 53.667 -11 69 -33c2 -2 3.33301 -2 4 0v32c0 8 -1.16699 16.333 -3.5 25s-6.5 16.667 -12.5 24s-14 13.333 -24 18s-22.333 7 -37 7c-9.33301 0 -19.333 -1 -30 -3s-20 -4.66699 -28 -8c-1.33301 -0.666992 -2.83301 -1.16699 -4.5 -1.5
s-3.16699 0.833984 -4.5 3.50098l-2 5c-2 4 -0.666992 7 4 9c9.33301 4.66699 19.666 8 30.999 10s22.666 3 33.999 3c32.667 0 57 -8.66699 73 -26s24 -39 24 -65v-162zM176.002 451.998c0 18.667 -7 34.834 -21 48.501s-31 20.5 -51 20.5s-37.167 -6.83301 -51.5 -20.5
s-21.5 -29.834 -21.5 -48.501c0 -18 7 -33.833 21 -47.5s31.333 -20.5 52 -20.5c20 0 37 6.83301 51 20.5s21 29.5 21 47.5z" />
    <glyph glyph-name="guillemotleft" unicode="&#xab;" horiz-adv-x="431" 
d="M369 27c2 -2.66699 2.5 -4.5 1.5 -5.5s-2.5 -1.5 -4.5 -1.5h-14h-5.5c-1.66699 0 -3.5 1.33301 -5.5 4l-131 165c-3.33301 4.66699 -3.33301 9 0 13l131 159c2 2.66699 3.5 4.16699 4.5 4.5s3.16699 0.5 6.5 0.5h14c5.33301 0 6.33301 -2.33301 3 -7l-132 -160
c-1.33301 -2 -2 -3.33301 -2 -4s0.666992 -1.66699 2 -3zM239 27c2 -2.66699 2.5 -4.5 1.5 -5.5s-2.5 -1.5 -4.5 -1.5h-14h-5.5c-1.66699 0 -3.5 1.33301 -5.5 4l-131 165c-3.33301 4.66699 -3.33301 9 0 13l131 159c2 2.66699 3.5 4.16699 4.5 4.5s3.16699 0.5 6.5 0.5h14
c5.33301 0 6.33301 -2.33301 3 -7l-132 -160c-1.33301 -2 -2 -3.33301 -2 -4s0.666992 -1.66699 2 -3z" />
    <glyph glyph-name="logicalnot" unicode="&#xac;" horiz-adv-x="430" 
d="M401 46c0 -3.33301 -2 -5 -6 -5h-13c-3.33301 0 -5 1.66699 -5 5v171c0 2.66699 -0.333008 4.66699 -1 6s-3 2 -7 2h-336c-3.33301 0 -5 1.66699 -5 5v13c0 4 1.66699 6 5 6h363c3.33301 0 5 -2 5 -6v-197z" />
    <glyph glyph-name="sfthyphen" unicode="&#xad;" horiz-adv-x="278" 
d="M218 230c0 -3.33301 -1.66699 -5 -5 -5h-146c-3.33301 0 -5 1.66699 -5 5v17c0 4 1.66699 6 5 6h146c3.33301 0 5 -2 5 -6v-17z" />
    <glyph glyph-name="registered" unicode="&#xae;" horiz-adv-x="399" 
d="M198 306c-24.667 0 -46.5 3.33301 -65.5 10s-35 16 -48 28s-23 25.833 -30 41.5s-10.5 32.5 -10.5 50.5v80c0 36.667 13.333 67.5 40 92.5s64.667 37.5 114 37.5c48 0 85.833 -12.167 113.5 -36.5s41.5 -55.5 41.5 -93.5v-80c0 -37.333 -12.333 -68.333 -37 -93
s-64 -37 -118 -37zM339 515c0 36 -12.5 64.332 -37.5 84.999s-59.5 31 -103.5 31s-78.333 -10.667 -103 -32s-37 -49.333 -37 -84v-78c0 -35.333 12.333 -63.666 37 -84.999s59 -32 103 -32s78.5 10.5 103.5 31.5s37.5 49.5 37.5 85.5v78zM250 382.999
c-2 0 -3.66602 2.00195 -4.99902 6.00195l-11.5 21.5c-4.33301 8.33301 -8.16602 16.166 -11.499 23.499c-4.66699 8.66699 -9 18 -13 28c-2 3.33301 -5 5 -9 5h-32c-4 0 -6 -1.66699 -6 -5v-73c0 -4 -1.33301 -6 -4 -6h-5c-4 0 -6 2 -6 6v173
c0 1.33301 0.5 2.66602 1.5 3.99902s2.83301 2 5.5 2h52c18 0 31.833 -5 41.5 -15s14.5 -22.333 14.5 -37c0 -10 -2.83301 -19.167 -8.5 -27.5s-12.834 -14.166 -21.501 -17.499c-2 -1.33301 -3.83301 -2.83301 -5.5 -4.5s-1.83398 -3.83398 -0.500977 -6.50098l1 -2l34 -68
c1.33301 -1.33301 2 -2.83301 2 -4.5s-1.33301 -2.5 -4 -2.5h-9zM168.001 554.001c-4 0 -6 -1.33301 -6 -4v-66c0 -3.33301 2 -5 6 -5h39c11.333 0 20.666 3.5 27.999 10.5s11 16.167 11 27.5c0 10.667 -3.66699 19.5 -11 26.5s-16.666 10.5 -27.999 10.5h-39z" />
    <glyph glyph-name="macron" unicode="&#xaf;" horiz-adv-x="355" 
d="M272 544c0 -3.33301 -1.66699 -5 -5 -5h-166c-3.33301 0 -5 1.66699 -5 5v10c0 4 1.66699 6 5 6h166c3.33301 0 5 -2 5 -6v-10z" />
    <glyph glyph-name="degree" unicode="&#xb0;" horiz-adv-x="302" 
d="M151 440c-27.333 0 -49.999 8.66699 -67.999 26s-27 39 -27 65s9 47.833 27 65.5s40.333 26.5 67 26.5c33.333 0 58.166 -8.83301 74.499 -26.5s24.5 -39.5 24.5 -65.5c0 -25.333 -9.5 -46.833 -28.5 -64.5s-42.167 -26.5 -69.5 -26.5zM150.001 607
c-20.667 0 -38.333 -7.16602 -53 -21.499s-22 -32.5 -22 -54.5c0 -20.667 7 -38.334 21 -53.001s32 -22 54 -22c21.333 0 40 7 56 21s24 32 24 54c0 21.333 -7.33301 39.333 -22 54s-34 22 -58 22z" />
    <glyph glyph-name="plusminus" unicode="&#xb1;" horiz-adv-x="430" 
d="M403 324c0 -3.33301 -2 -5 -6 -5h-165c-4.66699 0 -7 -2 -7 -6v-173c0 -3.33301 -1.66699 -5 -5 -5h-13c-4 0 -6 1.66699 -6 5v173c0 4 -2.33301 6 -7 6h-159c-3.33301 0 -5 1.66699 -5 5v13c0 4 1.66699 6 5 6h161c3.33301 0 5 2.33301 5 7v173c0 3.33301 2 5 6 5h13
c3.33301 0 5 -1.66699 5 -5v-174c0 -4 2.33301 -6 7 -6h165c4 0 6 -2 6 -6v-13zM410 54c0 -3.33301 -1.66699 -5 -5 -5h-380c-3.33301 0 -5 1.66699 -5 5v12c0 4 1.66699 6 5 6h380c3.33301 0 5 -2 5 -6v-12z" />
    <glyph glyph-name="twosuperior" unicode="&#xb2;" horiz-adv-x="280" 
d="M238 338c0 -4.66699 -2.33105 -7.00098 -6.99805 -7.00098h-204c-4.66699 0 -7 2.33301 -7 7v6c0 4.66699 1 8 3 10l150 181c18 22 29.833 39.333 35.5 52s8.5 25 8.5 37c0 19.333 -6.83301 34.833 -20.5 46.5s-34.834 17.5 -63.501 17.5
c-15.333 0 -29.666 -3 -42.999 -9s-24.333 -12.667 -33 -20c-4 -4 -7.33301 -4.66699 -10 -2l-7 7c-2.66699 2 -2.66699 4.33301 0 7c11.333 12 25.666 21.167 42.999 27.5s35 9.5 53 9.5c30 0 54.667 -6.83301 74 -20.5s29 -34.167 29 -61.5
c0 -4 -0.333008 -8.83301 -1 -14.5s-2.5 -12.5 -5.5 -20.5s-7.83301 -17.667 -14.5 -29s-16.334 -24.333 -29.001 -39l-139 -168c-0.666992 -0.666992 -1 -1.66699 -1 -3s1 -2 3 -2h178c4 0 6.33301 -0.666992 7 -2s1 -2.66602 1 -3.99902v-6v0z" />
    <glyph glyph-name="threesuperior" unicode="&#xb3;" horiz-adv-x="280" 
d="M133 545c20 0 37.501 6.66504 52.501 19.998s22.5 30.666 22.5 51.999c0 19.333 -7.16699 36.333 -21.5 51s-34.833 22 -61.5 22c-15.333 0 -29.666 -2.5 -42.999 -7.5s-23.666 -12.167 -30.999 -21.5c-3.33301 -4 -7 -4.66699 -11 -2l-6 5c-4 2.66699 -3.66699 6 1 10
c10 10.667 22.667 19.167 38 25.5s32.666 9.5 51.999 9.5c32 0 57.333 -8.16699 76 -24.5s28 -38.833 28 -67.5c0 -19.333 -5.16699 -36.166 -15.5 -50.499s-20.833 -24.833 -31.5 -31.5c-2 -1.33301 -2 -2.33301 0 -3c17.333 -5.33301 29.333 -15.166 36 -29.499
s10 -28.833 10 -43.5v-31c0 -32 -9.33301 -57 -28 -75s-45.334 -27 -80.001 -27c-20 0 -37.333 3.16699 -52 9.5s-26.667 14.833 -36 25.5c-2.66699 4 -3 7 -1 9l8 7c2.66699 2 5.66699 1.33301 9 -2c7.33301 -9.33301 17.833 -16.833 31.5 -22.5s27.167 -8.5 40.5 -8.5
c29.333 0 51.166 7.33301 65.499 22s21.5 34.334 21.5 59.001v32c0 20 -6.16699 36.5 -18.5 49.5s-30.833 19.5 -55.5 19.5h-44c-3.33301 0 -5 1.33301 -5 4v10c0 3.33301 1.66699 5 5 5h44v0z" />
    <glyph glyph-name="acute" unicode="&#xb4;" horiz-adv-x="385" 
d="M188 497c-2.66699 -4.66699 -5.66699 -5.66797 -9 -3.00098l-5 3c-3.33301 2 -4 5 -2 9l65 124c2 4.66699 6 5.66699 12 3l15 -7c4 -2 6.16699 -4.16699 6.5 -6.5s-0.166992 -4.16602 -1.5 -5.49902z" />
    <glyph glyph-name="mu" unicode="&#xb5;" horiz-adv-x="410" 
d="M75 -175c0 -3.33301 -1.66699 -4.99805 -5 -4.99805h-12c-4 0 -6 1.66699 -6 5v603c0 3.33301 1.66699 5 5 5h12c4 0 6 -1.66699 6 -5v-273c0 -18 2.83301 -35.5 8.5 -52.5s14 -31.833 25 -44.5s24.833 -22.834 41.5 -30.501s36 -11.5 58 -11.5
c19.333 0 37.166 3.66699 53.499 11s30.333 17.166 42 29.499s20.667 26.833 27 43.5s9.5 34.334 9.5 53.001v275c0 3.33301 1.66699 5 5 5h12c4 0 6 -1.66699 6 -5v-423c0 -3.33301 -2 -5 -6 -5h-12c-3.33301 0 -5 1.66699 -5 5v48c0 8.66699 -2.33301 9.66699 -7 3
c-15.333 -20 -34 -35.167 -56 -45.5s-45.667 -15.5 -71 -15.5c-32 0 -58.167 5.66699 -78.5 17s-36.166 25.666 -47.499 42.999c-1.33301 2 -2.5 2.66699 -3.5 2s-1.5 -2 -1.5 -4v-228v0z" />
    <glyph glyph-name="mu" unicode="&#x3bc;" horiz-adv-x="410" 
d="M75 -175c0 -3.33301 -1.66699 -4.99805 -5 -4.99805h-12c-4 0 -6 1.66699 -6 5v603c0 3.33301 1.66699 5 5 5h12c4 0 6 -1.66699 6 -5v-273c0 -18 2.83301 -35.5 8.5 -52.5s14 -31.833 25 -44.5s24.833 -22.834 41.5 -30.501s36 -11.5 58 -11.5
c19.333 0 37.166 3.66699 53.499 11s30.333 17.166 42 29.499s20.667 26.833 27 43.5s9.5 34.334 9.5 53.001v275c0 3.33301 1.66699 5 5 5h12c4 0 6 -1.66699 6 -5v-423c0 -3.33301 -2 -5 -6 -5h-12c-3.33301 0 -5 1.66699 -5 5v48c0 8.66699 -2.33301 9.66699 -7 3
c-15.333 -20 -34 -35.167 -56 -45.5s-45.667 -15.5 -71 -15.5c-32 0 -58.167 5.66699 -78.5 17s-36.166 25.666 -47.499 42.999c-1.33301 2 -2.5 2.66699 -3.5 2s-1.5 -2 -1.5 -4v-228v0z" />
    <glyph glyph-name="paragraph" unicode="&#xb6;" horiz-adv-x="381" 
d="M191 328c-22 0 -42.167 3.83203 -60.5 11.499s-34.333 18.334 -48 32.001s-24.167 29.5 -31.5 47.5s-11 37.667 -11 59c0 20.667 3.83301 40.167 11.5 58.5s18.167 34.333 31.5 48s29.333 24.5 48 32.5s38.667 12 60 12h73c3.33301 0 5 -1.66699 5 -5v-291
c0 -3.33301 -1.66699 -5 -5 -5h-73zM321 52.999c0 -24 -1.5 -45 -4.5 -63s-9.5 -33.5 -19.5 -46.5s-24.5 -23.667 -43.5 -32s-44.5 -14.5 -76.5 -18.5c-4 0 -6 1.33301 -6 4l-2 11c0 3.33301 1.33301 5 4 5c30.667 4 54.5 10 71.5 18s29.667 17.833 38 29.5s13.5 25 15.5 40
s3 31.167 3 48.5v575c0 3.33301 1.66699 5 5 5h10c3.33301 0 5 -1.66699 5 -5v-571z" />
    <glyph glyph-name="periodcentered" unicode="&#xb7;" horiz-adv-x="141" 
d="M96 235c0 -7.33301 -2.33301 -13.335 -7 -18.002s-11 -7 -19 -7c-6.66699 0 -12.334 2.5 -17.001 7.5s-7 10.833 -7 17.5s2.33301 12.334 7 17.001s10.334 7 17.001 7c8 0 14.333 -2.16699 19 -6.5s7 -10.166 7 -17.499z" />
    <glyph glyph-name="cedilla" unicode="&#xb8;" horiz-adv-x="355" 
d="M204 6c2 0 2.8291 -0.664062 2.49609 -1.99707s-0.5 -2.33301 -0.5 -3l-13 -52c-2 -6 0 -9 6 -9h13c24 0 43.5 -5.5 58.5 -16.5s22.5 -27.167 22.5 -48.5c0 -19.333 -7.66699 -35 -23 -47s-35.666 -18 -60.999 -18c-11.333 0 -24 2 -38 6s-24.333 8.66699 -31 14
c-2 2 -2 4 0 6l4 6c1.33301 3.33301 3.33301 3.66602 6 0.999023c8.66699 -5.33301 17.834 -9.5 27.501 -12.5s19.167 -4.5 28.5 -4.5c44.667 0 67 16.333 67 49c0 10 -3.66699 20.333 -11 31s-22.666 16 -45.999 16h-36c-3.33301 0 -6.16602 0.666992 -8.49902 2
s-2.83301 4.66602 -1.5 9.99902l18 66c0.666992 1.33301 1.16699 2.66602 1.5 3.99902s1.5 2 3.5 2h11z" />
    <glyph glyph-name="onesuperior" unicode="&#xb9;" horiz-adv-x="215" 
d="M133 337c0 -4 -2 -6 -6 -6h-9c-4 0 -6 2 -6 6v335c0 4.66699 -2 6 -6 4l-62 -34c-4 -2 -6 -0.666992 -6 4v10c0 3.33301 0.333008 5.33301 1 6s3 2 7 4l67 38c2.66699 1.33301 5.66699 2 9 2h5c4 0 6 -2 6 -6v-363v0z" />
    <glyph glyph-name="ordmasculine" unicode="&#xba;" horiz-adv-x="253" 
d="M225 460c0 -29.333 -8.49902 -52.167 -25.499 -68.5s-40.833 -24.5 -71.5 -24.5c-32.667 0 -57.334 8.5 -74.001 25.5s-25 39.167 -25 66.5v78c0 26.667 9 48.5 27 65.5s42 25.5 72 25.5s53.667 -8.33301 71 -25s26 -39 26 -67v-76zM206.001 535.999
c0 21.333 -7.16895 39 -21.502 53s-33.166 21 -56.499 21s-42.333 -7 -57 -21s-22 -31.667 -22 -53v-76c0 -23.333 7.33301 -41.833 22 -55.5s33.667 -20.5 57 -20.5c24.667 0 43.834 6.83301 57.501 20.5s20.5 32.5 20.5 56.5v75z" />
    <glyph glyph-name="guillemotright" unicode="&#xbb;" horiz-adv-x="431" 
d="M227 24c-2 -2.66699 -3.83301 -4 -5.5 -4h-5.5h-14c-2 0 -3.5 0.5 -4.5 1.5s-0.5 2.83301 1.5 5.5l132 165c1.33301 1.33301 2 2.33301 2 3s-0.666992 2 -2 4l-132 160c-3.33301 4.66699 -2.33301 7 3 7h14c3.33301 0 5.5 -0.166992 6.5 -0.5s2.5 -1.83301 4.5 -4.5
l131 -159c3.33301 -4 3.33301 -8.33301 0 -13zM97 24c-2 -2.66699 -3.83301 -4 -5.5 -4h-5.5h-14c-2 0 -3.5 0.5 -4.5 1.5s-0.5 2.83301 1.5 5.5l132 165c1.33301 1.33301 2 2.33301 2 3s-0.666992 2 -2 4l-132 160c-3.33301 4.66699 -2.33301 7 3 7h14
c3.33301 0 5.5 -0.166992 6.5 -0.5s2.5 -1.83301 4.5 -4.5l131 -159c3.33301 -4 3.33301 -8.33301 0 -13z" />
    <glyph glyph-name="onequarter" unicode="&#xbc;" horiz-adv-x="620" 
d="M155 247c0 -4 -2 -6 -6 -6h-9c-4 0 -6 2 -6 6v335c0 4.66699 -2 6 -6 4l-62 -34c-4 -2 -6 -0.666992 -6 4v10c0 3.33301 0.333008 5.33301 1 6s3 2 7 4l67 38c2.66699 1.33301 5.66699 2 9 2h5c4 0 6 -2 6 -6v-363zM139 -25c-1.33301 -3.33301 -3.66699 -5 -7 -5h-9
c-4.66699 0 -6 1.66699 -4 5l286 667c1.33301 3.33301 3.33301 5 6 5h10c4 0 5.33301 -1.66699 4 -5zM479.999 377c4 0 5.00098 -1.66797 3.00098 -5.00098l-156 -253c-1.33301 -2.66699 -0.333008 -4 3 -4h144c2 0 3 0.666992 3 2v136c0 4.66699 1.66699 7 5 7h9
c3.33301 0 5 -2.33301 5 -7v-136c0 -1.33301 0.666992 -2 2 -2h58c2.66699 0 4 -1.33301 4 -4v-11c0 -2.66699 -1.33301 -4 -4 -4h-58c-1.33301 0 -2 -1 -2 -3v-86c0 -4 -1.66699 -6 -5 -6h-9c-3.33301 0 -5 1.66699 -5 5v87c0 2 -1 3 -3 3h-163c-6 0 -9 2.33301 -9 7v7
c0 2 0.166992 3.83301 0.5 5.5s1.16602 3.83398 2.49902 6.50098l155 251l3 3c0.666992 0.666992 3 1 7 1h10z" />
    <glyph glyph-name="onehalf" unicode="&#xbd;" horiz-adv-x="620" 
d="M155 247c0 -4 -2 -6 -6 -6h-9c-4 0 -6 2 -6 6v335c0 4.66699 -2 6 -6 4l-62 -34c-4 -2 -6 -0.666992 -6 4v10c0 3.33301 0.333008 5.33301 1 6s3 2 7 4l67 38c2.66699 1.33301 5.66699 2 9 2h5c4 0 6 -2 6 -6v-363zM130 -25c-1.33301 -3.33301 -3.66699 -5 -7 -5h-9
c-4.66699 0 -6 1.66699 -4 5l286 667c1.33301 3.33301 3.33301 5 6 5h10c4 0 5.33301 -1.66699 4 -5zM551.999 7c0 -4.66699 -2.33105 -7.00098 -6.99805 -7.00098h-204c-4.66699 0 -7 2.33301 -7 7v6c0 4.66699 1 8 3 10l150 181c18 22 29.833 39.333 35.5 52
s8.5 25 8.5 37c0 19.333 -6.83301 34.833 -20.5 46.5s-34.834 17.5 -63.501 17.5c-15.333 0 -29.666 -3 -42.999 -9s-24.333 -12.667 -33 -20c-4 -4 -7.33301 -4.66699 -10 -2l-7 7c-2.66699 2 -2.66699 4.33301 0 7c11.333 12 25.666 21.167 42.999 27.5s35 9.5 53 9.5
c30 0 54.667 -6.83301 74 -20.5s29 -34.167 29 -61.5c0 -4 -0.333008 -8.83301 -1 -14.5s-2.5 -12.5 -5.5 -20.5s-7.83301 -17.667 -14.5 -29s-16.334 -24.333 -29.001 -39l-139 -168c-0.666992 -0.666992 -1 -1.66699 -1 -3s1 -2 3 -2h178c4 0 6.33301 -0.666992 7 -2
s1 -2.66602 1 -3.99902v-6z" />
    <glyph glyph-name="threequarters" unicode="&#xbe;" horiz-adv-x="620" 
d="M503 377c4 0 5.00098 -1.66797 3.00098 -5.00098l-156 -253c-1.33301 -2.66699 -0.333008 -4 3 -4h144c2 0 3 0.666992 3 2v136c0 4.66699 1.66699 7 5 7h9c3.33301 0 5 -2.33301 5 -7v-136c0 -1.33301 0.666992 -2 2 -2h58c2.66699 0 4 -1.33301 4 -4v-11
c0 -2.66699 -1.33301 -4 -4 -4h-58c-1.33301 0 -2 -1 -2 -3v-86c0 -4 -1.66699 -6 -5 -6h-9c-3.33301 0 -5 1.66699 -5 5v87c0 2 -1 3 -3 3h-163c-6 0 -9 2.33301 -9 7v7c0 2 0.166992 3.83301 0.5 5.5s1.16602 3.83398 2.49902 6.50098l155 251l3 3
c0.666992 0.666992 3 1 7 1h10zM141.001 454.999c20 0 37.501 6.66504 52.501 19.998s22.5 30.666 22.5 51.999c0 19.333 -7.16699 36.333 -21.5 51s-34.833 22 -61.5 22c-15.333 0 -29.666 -2.5 -42.999 -7.5s-23.666 -12.167 -30.999 -21.5
c-3.33301 -4 -7 -4.66699 -11 -2l-6 5c-4 2.66699 -3.66699 6 1 10c10 10.667 22.667 19.167 38 25.5s32.666 9.5 51.999 9.5c32 0 57.333 -8.16699 76 -24.5s28 -38.833 28 -67.5c0 -19.333 -5.16699 -36.166 -15.5 -50.499s-20.833 -24.833 -31.5 -31.5
c-2 -1.33301 -2 -2.33301 0 -3c17.333 -5.33301 29.333 -15.166 36 -29.499s10 -28.833 10 -43.5v-31c0 -32 -9.33301 -57 -28 -75s-45.334 -27 -80.001 -27c-20 0 -37.333 3.16699 -52 9.5s-26.667 14.833 -36 25.5c-2.66699 4 -3 7 -1 9l8 7
c2.66699 2 5.66699 1.33301 9 -2c7.33301 -9.33301 17.833 -16.833 31.5 -22.5s27.167 -8.5 40.5 -8.5c29.333 0 51.166 7.33301 65.499 22s21.5 34.334 21.5 59.001v32c0 20 -6.16699 36.5 -18.5 49.5s-30.833 19.5 -55.5 19.5h-44c-3.33301 0 -5 1.33301 -5 4v10
c0 3.33301 1.66699 5 5 5h44zM183.002 -25.0029c-1.33301 -3.33301 -3.66699 -5 -7 -5h-9c-4.66699 0 -6 1.66699 -4 5l286 667c1.33301 3.33301 3.33301 5 6 5h10c4 0 5.33301 -1.66699 4 -5z" />
    <glyph glyph-name="questiondown" unicode="&#xbf;" horiz-adv-x="418" 
d="M74 -52c0 24.667 7.99609 50.333 23.9961 77s41.667 51.667 77 75c32.667 20.667 56.667 41 72 61s23 45.667 23 77v59c0 3.33301 1.66699 5 5 5h12c4 0 6 -1.66699 6 -5v-61c0 -24.667 -5.66699 -48.167 -17 -70.5s-29.333 -41.5 -54 -57.5
c-15.333 -10 -30.333 -20.5 -45 -31.5s-27.834 -22.833 -39.501 -35.5s-21.167 -26.667 -28.5 -42s-11 -32.333 -11 -51c0 -10.667 1.66699 -23 5 -37s9.83301 -27.333 19.5 -40s22.834 -23.334 39.501 -32.001s38 -13 64 -13c24.667 0 47.334 4.33301 68.001 13
s37 20.667 49 36c2.66699 4.66699 6.33398 5.33398 11.001 2.00098l8 -6c3.33301 -2.66699 3.33301 -5.66699 0 -9c-14 -18 -33 -32 -57 -42s-51 -15 -81 -15c-21.333 0 -41.166 3.16699 -59.499 9.5s-34.166 15.5 -47.499 27.5s-23.833 26.833 -31.5 44.5
s-11.5 38.167 -11.5 61.5zM257.996 408.999c0 7.33301 2.33301 13.335 7 18.002s10.667 7 18 7s13.333 -2.33301 18 -7s7 -10.667 7 -18c0 -6.66699 -2.33301 -12.334 -7 -17.001s-10.667 -7 -18 -7s-13.333 2.16699 -18 6.5s-7 10.166 -7 17.499z" />
    <glyph glyph-name="Agrave" unicode="&#xc0;" horiz-adv-x="439" 
d="M354 159c-0.666992 2.66699 -1.66699 4.16895 -3 4.50195s-2.66602 0.5 -3.99902 0.5h-258c-2.66699 0 -4.33398 -1.33301 -5.00098 -4l-47 -154c-1.33301 -4 -3.66602 -6 -6.99902 -6h-15c-2 0 -3.5 0.166992 -4.5 0.5s-0.833008 2.16602 0.5 5.49902l188 606
c1.33301 3.33301 3 5 5 5h27c4 0 6.33301 -1.66699 7 -5l189 -604c2 -5.33301 1 -8 -3 -8h-14c-2.66699 0 -4.33398 0.166992 -5.00098 0.5s-1.66699 2.16602 -3 5.49902zM174 454.002l-80 -263.001c-1.33301 -3.33301 -1.5 -5.16602 -0.5 -5.49902s2.16699 -0.5 3.5 -0.5
h244c3.33301 0 4.66602 1.66699 3.99902 5l-83 268l-42 134c-1.33301 5.33301 -2.66602 5.33301 -3.99902 0zM103 726.001c-1.33301 1.33301 -2.5 2.99805 -3.5 4.99805s0.166992 4.66699 3.5 8l12 12c4 4.66699 8 5.33398 12 2.00098l105 -93
c4 -3.33301 4.33301 -6.66602 1 -9.99902l-3 -4c-2 -2.66699 -5.33301 -2.66699 -10 0z" />
    <glyph glyph-name="Aacute" unicode="&#xc1;" horiz-adv-x="439" 
d="M354 159c-0.666992 2.66699 -1.66699 4.16895 -3 4.50195s-2.66602 0.5 -3.99902 0.5h-258c-2.66699 0 -4.33398 -1.33301 -5.00098 -4l-47 -154c-1.33301 -4 -3.66602 -6 -6.99902 -6h-15c-2 0 -3.5 0.166992 -4.5 0.5s-0.833008 2.16602 0.5 5.49902l188 606
c1.33301 3.33301 3 5 5 5h27c4 0 6.33301 -1.66699 7 -5l189 -604c2 -5.33301 1 -8 -3 -8h-14c-2.66699 0 -4.33398 0.166992 -5.00098 0.5s-1.66699 2.16602 -3 5.49902zM174 454.002l-80 -263.001c-1.33301 -3.33301 -1.5 -5.16602 -0.5 -5.49902s2.16699 -0.5 3.5 -0.5
h244c3.33301 0 4.66602 1.66699 3.99902 5l-83 268l-42 134c-1.33301 5.33301 -2.66602 5.33301 -3.99902 0zM217 646.001c-4 -2.66699 -7.33398 -2.66504 -10.001 0.00195312l-4 4c-3.33301 3.33301 -2.66602 6.66602 2.00098 9.99902l105 93
c4 3.33301 8 2.66602 12 -2.00098l12 -12c3.33301 -3.33301 4.5 -6 3.5 -8s-2.16699 -3.66699 -3.5 -5z" />
    <glyph glyph-name="Acircumflex" unicode="&#xc2;" horiz-adv-x="439" 
d="M354 159c-0.666992 2.66699 -1.66699 4.16895 -3 4.50195s-2.66602 0.5 -3.99902 0.5h-258c-2.66699 0 -4.33398 -1.33301 -5.00098 -4l-47 -154c-1.33301 -4 -3.66602 -6 -6.99902 -6h-15c-2 0 -3.5 0.166992 -4.5 0.5s-0.833008 2.16602 0.5 5.49902l188 606
c1.33301 3.33301 3 5 5 5h27c4 0 6.33301 -1.66699 7 -5l189 -604c2 -5.33301 1 -8 -3 -8h-14c-2.66699 0 -4.33398 0.166992 -5.00098 0.5s-1.66699 2.16602 -3 5.49902zM174 454.002l-80 -263.001c-1.33301 -3.33301 -1.5 -5.16602 -0.5 -5.49902s2.16699 -0.5 3.5 -0.5
h244c3.33301 0 4.66602 1.66699 3.99902 5l-83 268l-42 134c-1.33301 5.33301 -2.66602 5.33301 -3.99902 0zM193 750.001c4 4 8.33496 6 13.002 6h21c4 0 8 -2 12 -6l93 -92c3.33301 -3.33301 3.33301 -6 0 -8l-5 -4c-2.66699 -2 -5.33398 -1.66699 -8.00098 1l-100 80
c-3.33301 2 -6 2 -8 0l-97 -80c-2.66699 -2.66699 -5.33398 -3 -8.00098 -1l-5 4c-3.33301 2 -3.33301 4.66699 0 8z" />
    <glyph glyph-name="Atilde" unicode="&#xc3;" horiz-adv-x="439" 
d="M354 159c-0.666992 2.66699 -1.66699 4.16895 -3 4.50195s-2.66602 0.5 -3.99902 0.5h-258c-2.66699 0 -4.33398 -1.33301 -5.00098 -4l-47 -154c-1.33301 -4 -3.66602 -6 -6.99902 -6h-15c-2 0 -3.5 0.166992 -4.5 0.5s-0.833008 2.16602 0.5 5.49902l188 606
c1.33301 3.33301 3 5 5 5h27c4 0 6.33301 -1.66699 7 -5l189 -604c2 -5.33301 1 -8 -3 -8h-14c-2.66699 0 -4.33398 0.166992 -5.00098 0.5s-1.66699 2.16602 -3 5.49902zM174 454.002l-80 -263.001c-1.33301 -3.33301 -1.5 -5.16602 -0.5 -5.49902s2.16699 -0.5 3.5 -0.5
h244c3.33301 0 4.66602 1.66699 3.99902 5l-83 268l-42 134c-1.33301 5.33301 -2.66602 5.33301 -3.99902 0zM97 694.001c7.33301 13.333 16.4961 22.667 27.4961 28s23.833 8 38.5 8c9.33301 0 18.5 -1.5 27.5 -4.5s17.833 -6.33301 26.5 -10s17.167 -7 25.5 -10
s16.833 -4.5 25.5 -4.5c22 0 39.667 9 53 27c2.66699 3.33301 5.33398 4.33301 8.00098 3l10 -4c3.33301 -1.33301 4 -4 2 -8c-9.33301 -15.333 -20.666 -25.5 -33.999 -30.5s-26 -7.5 -38 -7.5c-10 0 -19.833 1.5 -29.5 4.5s-19 6.33301 -28 10s-17.833 7 -26.5 10
s-17.667 4.5 -27 4.5c-19.333 0 -33.666 -8 -42.999 -24c-2.66699 -4 -5.66699 -5 -9 -3l-8 3c-3.33301 1.33301 -3.66602 4 -0.999023 8z" />
    <glyph glyph-name="Adieresis" unicode="&#xc4;" horiz-adv-x="439" 
d="M354 159c-0.666992 2.66699 -1.66699 4.16895 -3 4.50195s-2.66602 0.5 -3.99902 0.5h-258c-2.66699 0 -4.33398 -1.33301 -5.00098 -4l-47 -154c-1.33301 -4 -3.66602 -6 -6.99902 -6h-15c-2 0 -3.5 0.166992 -4.5 0.5s-0.833008 2.16602 0.5 5.49902l188 606
c1.33301 3.33301 3 5 5 5h27c4 0 6.33301 -1.66699 7 -5l189 -604c2 -5.33301 1 -8 -3 -8h-14c-2.66699 0 -4.33398 0.166992 -5.00098 0.5s-1.66699 2.16602 -3 5.49902zM174 454.002l-80 -263.001c-1.33301 -3.33301 -1.5 -5.16602 -0.5 -5.49902s2.16699 -0.5 3.5 -0.5
h244c3.33301 0 4.66602 1.66699 3.99902 5l-83 268l-42 134c-1.33301 5.33301 -2.66602 5.33301 -3.99902 0zM315 706.001c0 -6 -2.16699 -11 -6.5 -15s-9.16602 -6 -14.499 -6s-10 2 -14 6s-6 9 -6 15s2 11 6 15s8.66699 6 14 6s10.166 -2 14.499 -6s6.5 -9 6.5 -15z
M164 706.001c0 -6 -1.83301 -11 -5.5 -15s-8.16699 -6 -13.5 -6s-10.166 2 -14.499 6s-6.5 9 -6.5 15s2.16699 11 6.5 15s9.16602 6 14.499 6s9.83301 -2 13.5 -6s5.5 -9 5.5 -15z" />
    <glyph glyph-name="Aring" unicode="&#xc5;" horiz-adv-x="439" 
d="M354 159c-0.666992 2.66699 -1.66699 4.16895 -3 4.50195s-2.66602 0.5 -3.99902 0.5h-258c-2.66699 0 -4.33398 -1.33301 -5.00098 -4l-47 -154c-1.33301 -4 -3.66602 -6 -6.99902 -6h-15c-2 0 -3.5 0.166992 -4.5 0.5s-0.833008 2.16602 0.5 5.49902l188 606
c1.33301 3.33301 3 5 5 5h27c4 0 6.33301 -1.66699 7 -5l189 -604c2 -5.33301 1 -8 -3 -8h-14c-2.66699 0 -4.33398 0.166992 -5.00098 0.5s-1.66699 2.16602 -3 5.49902zM174 454.002l-80 -263.001c-1.33301 -3.33301 -1.5 -5.16602 -0.5 -5.49902s2.16699 -0.5 3.5 -0.5
h244c3.33301 0 4.66602 1.66699 3.99902 5l-83 268l-42 134c-1.33301 5.33301 -2.66602 5.33301 -3.99902 0zM217 661.001c-18 0 -32.667 6.16699 -44 18.5s-17 27.5 -17 45.5s5.66699 33.167 17 45.5s26 18.5 44 18.5c17.333 0 32.166 -6.16699 44.499 -18.5
s18.5 -27.5 18.5 -45.5s-6.16699 -33.167 -18.5 -45.5s-27.166 -18.5 -44.499 -18.5zM217 770.001c-12 0 -22 -4.33301 -30 -13s-12 -19.334 -12 -32.001s4 -23.334 12 -32.001s18 -13 30 -13c11.333 0 21.333 4.33301 30 13s13 19.334 13 32.001
s-4.33301 23.334 -13 32.001s-18.667 13 -30 13z" />
    <glyph glyph-name="AE" unicode="&#xc6;" horiz-adv-x="622" 
d="M593 6c0 -4 -1.66602 -5.99902 -4.99902 -5.99902h-301c-3.33301 0 -5 2 -5 6v148c0 3.33301 -0.166992 5.83301 -0.5 7.5s-3.16602 2.5 -8.49902 2.5h-172c-4 0 -6.33301 -1.66699 -7 -5l-53 -153c-1.33301 -4 -4 -6 -8 -6h-13c-1.33301 0 -2.33301 0.166992 -3 0.5
s-0.333984 2.16602 0.999023 5.49902l209 606c1.33301 3.33301 4 5 8 5h353c3.33301 0 5 -2 5 -6v-10c0 -3.33301 -1.66699 -5 -5 -5h-276c-4.66699 0 -7 -1.66699 -7 -5v-258c0 -2 0.166992 -3.33301 0.5 -4s2.16602 -1 5.49902 -1h229c3.33301 0 5 -2 5 -6v-10
c0 -3.33301 -1.66699 -5 -5 -5h-229c-4 0 -6 -2 -6 -6v-275c0 -3.33301 2.33301 -5 7 -5h276c3.33301 0 5 -1.66699 5 -5v-10zM104.001 190.001c-0.666992 -3.33301 1.33301 -5 6 -5h162c6.66699 0 10 3.33301 10 10v396c0 3.33301 -2.33301 5 -7 5h-22
c-5.33301 0 -9 -2 -11 -6z" />
    <glyph glyph-name="Ccedilla" unicode="&#xc7;" horiz-adv-x="404" 
d="M375 51c-32.667 -37.333 -78.3369 -56.666 -137.004 -57.999l-11 -44c-2 -6 0 -9 6 -9h13c24 0 43.5 -5.5 58.5 -16.5s22.5 -27.167 22.5 -48.5c0 -19.333 -7.66699 -35 -23 -47s-35.666 -18 -60.999 -18c-11.333 0 -24 2 -38 6s-24.333 8.66699 -31 14c-2 2 -2 4 0 6
l4 6c1.33301 3.33301 3.33301 3.66602 6 0.999023c8.66699 -5.33301 17.834 -9.5 27.501 -12.5s19.167 -4.5 28.5 -4.5c44.667 0 67 16.333 67 49c0 10 -3.66699 20.333 -11 31s-22.666 16 -45.999 16h-36c-3.33301 0 -6.16602 0.666992 -8.49902 2
s-2.83301 4.66602 -1.5 9.99902l16 60c-26 1.33301 -49 6.33301 -69 15s-37 20.167 -51 34.5s-24.5 31 -31.5 50s-10.5 39.5 -10.5 61.5v313c0 20.667 4.16699 40.5 12.5 59.5s20 35.667 35 50s33.333 25.666 55 33.999s45.5 12.5 71.5 12.5c28.667 0 55.834 -5 81.501 -15
s45.5 -24 59.5 -42c3.33301 -3.33301 3.33301 -6.33301 0 -9l-8 -6c-4.66699 -3.33301 -8.33398 -2.66602 -11.001 2.00098c-12 15.333 -29.333 27.333 -52 36s-46 13 -70 13c-22 0 -42.167 -3.5 -60.5 -10.5s-34.166 -16.667 -47.499 -29s-23.833 -26.833 -31.5 -43.5
s-11.5 -34.667 -11.5 -54v-309c0 -19.333 3.33301 -37.666 10 -54.999s16.5 -32.5 29.5 -45.5s28.833 -23.333 47.5 -31s40.334 -11.5 65.001 -11.5c22 0 44.667 3.83301 68 11.5s41.666 19.834 54.999 36.501c4 4.66699 6.66699 7 8 7s2.66602 -0.666992 3.99902 -2l5 -4
c3.33301 -2.66699 5 -4.83398 5 -6.50098s-1 -3.5 -3 -5.5z" />
    <glyph glyph-name="Egrave" unicode="&#xc8;" horiz-adv-x="423" 
d="M393 6c0 -4 -1.66602 -6 -4.99902 -6h-321c-3.33301 0 -5 2 -5 6v605c0 4 1.66699 6 5 6h304c3.33301 0 5 -2 5 -6v-10c0 -3.33301 -1.66699 -5 -5 -5h-279c-4.66699 0 -7 -1.66699 -7 -5v-258c0 -2 0.166992 -3.33301 0.5 -4s2.16602 -1 5.49902 -1h249
c3.33301 0 5 -2 5 -6v-10c0 -3.33301 -1.66699 -5 -5 -5h-249c-4 0 -6 -2 -6 -6v-275c0 -3.33301 2.33301 -5 7 -5h296c3.33301 0 5 -1.66699 5 -5v-10zM118.001 726c-1.33301 1.33301 -2.5 2.99805 -3.5 4.99805s0.166992 4.66699 3.5 8l12 12
c4 4.66699 8 5.33398 12 2.00098l105 -93c4 -3.33301 4.33301 -6.66602 1 -9.99902l-3 -4c-2 -2.66699 -5.33301 -2.66699 -10 0z" />
    <glyph glyph-name="Eacute" unicode="&#xc9;" horiz-adv-x="423" 
d="M393 6c0 -4 -1.66602 -6 -4.99902 -6h-321c-3.33301 0 -5 2 -5 6v605c0 4 1.66699 6 5 6h304c3.33301 0 5 -2 5 -6v-10c0 -3.33301 -1.66699 -5 -5 -5h-279c-4.66699 0 -7 -1.66699 -7 -5v-258c0 -2 0.166992 -3.33301 0.5 -4s2.16602 -1 5.49902 -1h249
c3.33301 0 5 -2 5 -6v-10c0 -3.33301 -1.66699 -5 -5 -5h-249c-4 0 -6 -2 -6 -6v-275c0 -3.33301 2.33301 -5 7 -5h296c3.33301 0 5 -1.66699 5 -5v-10zM185.001 646c-4 -2.66699 -7.33398 -2.66504 -10.001 0.00195312l-4 4
c-3.33301 3.33301 -2.66602 6.66602 2.00098 9.99902l105 93c4 3.33301 8 2.66602 12 -2.00098l12 -12c3.33301 -3.33301 4.5 -6 3.5 -8s-2.16699 -3.66699 -3.5 -5z" />
    <glyph glyph-name="Ecircumflex" unicode="&#xca;" horiz-adv-x="423" 
d="M393 6c0 -4 -1.66602 -6 -4.99902 -6h-321c-3.33301 0 -5 2 -5 6v605c0 4 1.66699 6 5 6h304c3.33301 0 5 -2 5 -6v-10c0 -3.33301 -1.66699 -5 -5 -5h-279c-4.66699 0 -7 -1.66699 -7 -5v-258c0 -2 0.166992 -3.33301 0.5 -4s2.16602 -1 5.49902 -1h249
c3.33301 0 5 -2 5 -6v-10c0 -3.33301 -1.66699 -5 -5 -5h-249c-4 0 -6 -2 -6 -6v-275c0 -3.33301 2.33301 -5 7 -5h296c3.33301 0 5 -1.66699 5 -5v-10zM196.001 750c4 4 8.33496 6 13.002 6h21c4 0 8 -2 12 -6l93 -92c3.33301 -3.33301 3.33301 -6 0 -8l-5 -4
c-2.66699 -2 -5.33398 -1.66699 -8.00098 1l-100 80c-3.33301 2 -6 2 -8 0l-97 -80c-2.66699 -2.66699 -5.33398 -3 -8.00098 -1l-5 4c-3.33301 2 -3.33301 4.66699 0 8z" />
    <glyph glyph-name="Edieresis" unicode="&#xcb;" horiz-adv-x="423" 
d="M393 6c0 -4 -1.66602 -6 -4.99902 -6h-321c-3.33301 0 -5 2 -5 6v605c0 4 1.66699 6 5 6h304c3.33301 0 5 -2 5 -6v-10c0 -3.33301 -1.66699 -5 -5 -5h-279c-4.66699 0 -7 -1.66699 -7 -5v-258c0 -2 0.166992 -3.33301 0.5 -4s2.16602 -1 5.49902 -1h249
c3.33301 0 5 -2 5 -6v-10c0 -3.33301 -1.66699 -5 -5 -5h-249c-4 0 -6 -2 -6 -6v-275c0 -3.33301 2.33301 -5 7 -5h296c3.33301 0 5 -1.66699 5 -5v-10zM316.001 706c0 -6 -2.16699 -11 -6.5 -15s-9.16602 -6 -14.499 -6s-10 2 -14 6s-6 9 -6 15s2 11 6 15s8.66699 6 14 6
s10.166 -2 14.499 -6s6.5 -9 6.5 -15zM165.001 706c0 -6 -1.83301 -11 -5.5 -15s-8.16699 -6 -13.5 -6s-10.166 2 -14.499 6s-6.5 9 -6.5 15s2.16699 11 6.5 15s9.16602 6 14.499 6s9.83301 -2 13.5 -6s5.5 -9 5.5 -15z" />
    <glyph glyph-name="Igrave" unicode="&#xcc;" horiz-adv-x="182" 
d="M102 5c0 -3.33301 -1.66699 -5 -5 -5h-12c-4 0 -6 1.66699 -6 5v607c0 3.33301 2 5 6 5h12c3.33301 0 5 -1.66699 5 -5v-607zM-34 726c-1.33301 1.33301 -2.5 2.99805 -3.5 4.99805s0.166992 4.66699 3.5 8l12 12c4 4.66699 8 5.33398 12 2.00098l105 -93
c4 -3.33301 4.33301 -6.66602 1 -9.99902l-3 -4c-2 -2.66699 -5.33301 -2.66699 -10 0z" />
    <glyph glyph-name="Iacute" unicode="&#xcd;" horiz-adv-x="182" 
d="M102 5c0 -3.33301 -1.66699 -5 -5 -5h-12c-4 0 -6 1.66699 -6 5v607c0 3.33301 2 5 6 5h12c3.33301 0 5 -1.66699 5 -5v-607zM97 646c-4 -2.66699 -7.33398 -2.66504 -10.001 0.00195312l-4 4c-3.33301 3.33301 -2.66602 6.66602 2.00098 9.99902l105 93
c4 3.33301 8 2.66602 12 -2.00098l12 -12c3.33301 -3.33301 4.5 -6 3.5 -8s-2.16699 -3.66699 -3.5 -5z" />
    <glyph glyph-name="Icircumflex" unicode="&#xce;" horiz-adv-x="182" 
d="M102 5c0 -3.33301 -1.66699 -5 -5 -5h-12c-4 0 -6 1.66699 -6 5v607c0 3.33301 2 5 6 5h12c3.33301 0 5 -1.66699 5 -5v-607zM67 750c4 4 8.33496 6 13.002 6h21c4 0 8 -2 12 -6l93 -92c3.33301 -3.33301 3.33301 -6 0 -8l-5 -4
c-2.66699 -2 -5.33398 -1.66699 -8.00098 1l-100 80c-3.33301 2 -6 2 -8 0l-97 -80c-2.66699 -2.66699 -5.33398 -3 -8.00098 -1l-5 4c-3.33301 2 -3.33301 4.66699 0 8z" />
    <glyph glyph-name="Idieresis" unicode="&#xcf;" horiz-adv-x="182" 
d="M102 5c0 -3.33301 -1.66699 -5 -5 -5h-12c-4 0 -6 1.66699 -6 5v607c0 3.33301 2 5 6 5h12c3.33301 0 5 -1.66699 5 -5v-607zM184 706c0 -6 -2.16699 -11 -6.5 -15s-9.16602 -6 -14.499 -6s-10 2 -14 6s-6 9 -6 15s2 11 6 15s8.66699 6 14 6s10.166 -2 14.499 -6
s6.5 -9 6.5 -15zM33 706c0 -6 -1.83301 -11 -5.5 -15s-8.16699 -6 -13.5 -6s-10.166 2 -14.499 6s-6.5 9 -6.5 15s2.16699 11 6.5 15s9.16602 6 14.499 6s9.83301 -2 13.5 -6s5.5 -9 5.5 -15z" />
    <glyph glyph-name="Eth" unicode="&#xd0;" horiz-adv-x="444" 
d="M394 158c0 -50 -13.833 -88.833 -41.5 -116.5s-66.167 -41.5 -115.5 -41.5h-170c-3.33301 0 -5 2 -5 6v296c0 5.33301 -3 8 -9 8h-47c-3.33301 0 -5 1.66699 -5 5v7c0 4 1.66699 6 5 6h48c3.33301 0 5.5 0.5 6.5 1.5s1.5 3.5 1.5 7.5v274c0 4 1.66699 6 5 6h171
c104 0 156 -50.333 156 -151v-308zM267 315c0 -3.33301 -1.66699 -5.00098 -5 -5.00098h-170c-4.66699 0 -7 -2.66699 -7 -8v-276c0 -3.33301 2.33301 -5 7 -5h144c40.667 0 73.167 11.833 97.5 35.5s36.5 57.5 36.5 101.5v300c0 18.667 -1.83301 36.334 -5.5 53.001
s-10.334 31.334 -20.001 44.001s-22.667 22.667 -39 30s-37.166 11 -62.499 11h-151c-4.66699 0 -7 -1.66699 -7 -5v-254c0 -2.66699 0.333008 -4.83398 1 -6.50098s2.66699 -2.5 6 -2.5h170c3.33301 0 5 -2 5 -6v-7z" />
    <glyph glyph-name="Ntilde" unicode="&#xd1;" horiz-adv-x="486" 
d="M430 8c0 -5.33301 -2.66699 -8 -8 -8h-15c-4 0 -7 1.66699 -9 5l-314 565c-1.33301 2 -2.33301 2.83301 -3 2.5s-1 -1.16602 -1 -2.49902v-564c0 -4 -2 -6 -6 -6h-13c-3.33301 0 -5 2 -5 6v604c0 4.66699 2.33301 7 7 7h16c4 0 7 -1.66699 9 -5l314 -568
c1.33301 -2 2.33301 -2.83301 3 -2.5s1 1.16602 1 2.49902v567c0 4 2 6 6 6h13c3.33301 0 5 -2 5 -6v-603zM122 686c7.33301 13.333 16.4961 22.667 27.4961 28s23.833 8 38.5 8c9.33301 0 18.5 -1.5 27.5 -4.5s17.833 -6.33301 26.5 -10s17.167 -7 25.5 -10
s16.833 -4.5 25.5 -4.5c22 0 39.667 9 53 27c2.66699 3.33301 5.33398 4.33301 8.00098 3l10 -4c3.33301 -1.33301 4 -4 2 -8c-9.33301 -15.333 -20.666 -25.5 -33.999 -30.5s-26 -7.5 -38 -7.5c-10 0 -19.833 1.5 -29.5 4.5s-19 6.33301 -28 10s-17.833 7 -26.5 10
s-17.667 4.5 -27 4.5c-19.333 0 -33.666 -8 -42.999 -24c-2.66699 -4 -5.66699 -5 -9 -3l-8 3c-3.33301 1.33301 -3.66602 4 -0.999023 8z" />
    <glyph glyph-name="Ograve" unicode="&#xd2;" horiz-adv-x="466" 
d="M408 158c0 -23.333 -3.8291 -45.168 -11.4961 -65.501s-18.834 -37.833 -33.501 -52.5s-32.834 -26.167 -54.501 -34.5s-46.834 -12.5 -75.501 -12.5c-31.333 0 -58 4.66699 -80 14s-40 22 -54 38s-24.333 34.333 -31 55s-10 42.334 -10 65.001v295c0 22 4 43 12 63
s19.5 37.5 34.5 52.5s33.167 26.833 54.5 35.5s45.666 13 72.999 13c28 0 53 -4.16699 75 -12.5s40.5 -20 55.5 -35s26.333 -32.5 34 -52.5s11.5 -41.333 11.5 -64v-302zM385.004 457.998c0 18.667 -2.83105 36.667 -8.49805 54s-14.834 32.666 -27.501 45.999
s-28.667 24 -48 32s-42.333 12 -69 12c-25.333 0 -47.333 -4 -66 -12s-34.334 -18.5 -47.001 -31.5s-22.167 -28.333 -28.5 -46s-9.5 -35.834 -9.5 -54.501v-291c0 -19.333 2.66699 -38.166 8 -56.499s14 -34.666 26 -48.999s27.667 -25.833 47 -34.5s43 -13 71 -13
c48.667 0 86.167 13.333 112.5 40s39.5 62 39.5 106v298zM116.006 728.998c-1.33301 1.33301 -2.5 2.99805 -3.5 4.99805s0.166992 4.66699 3.5 8l12 12c4 4.66699 8 5.33398 12 2.00098l105 -93c4 -3.33301 4.33301 -6.66602 1 -9.99902l-3 -4
c-2 -2.66699 -5.33301 -2.66699 -10 0z" />
    <glyph glyph-name="Oacute" unicode="&#xd3;" horiz-adv-x="466" 
d="M408 158c0 -23.333 -3.8291 -45.168 -11.4961 -65.501s-18.834 -37.833 -33.501 -52.5s-32.834 -26.167 -54.501 -34.5s-46.834 -12.5 -75.501 -12.5c-31.333 0 -58 4.66699 -80 14s-40 22 -54 38s-24.333 34.333 -31 55s-10 42.334 -10 65.001v295c0 22 4 43 12 63
s19.5 37.5 34.5 52.5s33.167 26.833 54.5 35.5s45.666 13 72.999 13c28 0 53 -4.16699 75 -12.5s40.5 -20 55.5 -35s26.333 -32.5 34 -52.5s11.5 -41.333 11.5 -64v-302zM385.004 457.998c0 18.667 -2.83105 36.667 -8.49805 54s-14.834 32.666 -27.501 45.999
s-28.667 24 -48 32s-42.333 12 -69 12c-25.333 0 -47.333 -4 -66 -12s-34.334 -18.5 -47.001 -31.5s-22.167 -28.333 -28.5 -46s-9.5 -35.834 -9.5 -54.501v-291c0 -19.333 2.66699 -38.166 8 -56.499s14 -34.666 26 -48.999s27.667 -25.833 47 -34.5s43 -13 71 -13
c48.667 0 86.167 13.333 112.5 40s39.5 62 39.5 106v298zM235.006 645.998c-4 -2.66699 -7.33398 -2.66504 -10.001 0.00195312l-4 4c-3.33301 3.33301 -2.66602 6.66602 2.00098 9.99902l105 93c4 3.33301 8 2.66602 12 -2.00098l12 -12c3.33301 -3.33301 4.5 -6 3.5 -8
s-2.16699 -3.66699 -3.5 -5z" />
    <glyph glyph-name="Ocircumflex" unicode="&#xd4;" horiz-adv-x="466" 
d="M408 158c0 -23.333 -3.8291 -45.168 -11.4961 -65.501s-18.834 -37.833 -33.501 -52.5s-32.834 -26.167 -54.501 -34.5s-46.834 -12.5 -75.501 -12.5c-31.333 0 -58 4.66699 -80 14s-40 22 -54 38s-24.333 34.333 -31 55s-10 42.334 -10 65.001v295c0 22 4 43 12 63
s19.5 37.5 34.5 52.5s33.167 26.833 54.5 35.5s45.666 13 72.999 13c28 0 53 -4.16699 75 -12.5s40.5 -20 55.5 -35s26.333 -32.5 34 -52.5s11.5 -41.333 11.5 -64v-302zM385.004 457.998c0 18.667 -2.83105 36.667 -8.49805 54s-14.834 32.666 -27.501 45.999
s-28.667 24 -48 32s-42.333 12 -69 12c-25.333 0 -47.333 -4 -66 -12s-34.334 -18.5 -47.001 -31.5s-22.167 -28.333 -28.5 -46s-9.5 -35.834 -9.5 -54.501v-291c0 -19.333 2.66699 -38.166 8 -56.499s14 -34.666 26 -48.999s27.667 -25.833 47 -34.5s43 -13 71 -13
c48.667 0 86.167 13.333 112.5 40s39.5 62 39.5 106v298zM213.006 749.998c4 4 8.33496 6 13.002 6h21c4 0 8 -2 12 -6l93 -92c3.33301 -3.33301 3.33301 -6 0 -8l-5 -4c-2.66699 -2 -5.33398 -1.66699 -8.00098 1l-100 80c-3.33301 2 -6 2 -8 0l-97 -80
c-2.66699 -2.66699 -5.33398 -3 -8.00098 -1l-5 4c-3.33301 2 -3.33301 4.66699 0 8z" />
    <glyph glyph-name="Otilde" unicode="&#xd5;" horiz-adv-x="466" 
d="M408 158c0 -23.333 -3.8291 -45.168 -11.4961 -65.501s-18.834 -37.833 -33.501 -52.5s-32.834 -26.167 -54.501 -34.5s-46.834 -12.5 -75.501 -12.5c-31.333 0 -58 4.66699 -80 14s-40 22 -54 38s-24.333 34.333 -31 55s-10 42.334 -10 65.001v295c0 22 4 43 12 63
s19.5 37.5 34.5 52.5s33.167 26.833 54.5 35.5s45.666 13 72.999 13c28 0 53 -4.16699 75 -12.5s40.5 -20 55.5 -35s26.333 -32.5 34 -52.5s11.5 -41.333 11.5 -64v-302zM385.004 457.998c0 18.667 -2.83105 36.667 -8.49805 54s-14.834 32.666 -27.501 45.999
s-28.667 24 -48 32s-42.333 12 -69 12c-25.333 0 -47.333 -4 -66 -12s-34.334 -18.5 -47.001 -31.5s-22.167 -28.333 -28.5 -46s-9.5 -35.834 -9.5 -54.501v-291c0 -19.333 2.66699 -38.166 8 -56.499s14 -34.666 26 -48.999s27.667 -25.833 47 -34.5s43 -13 71 -13
c48.667 0 86.167 13.333 112.5 40s39.5 62 39.5 106v298zM113.006 695.998c7.33301 13.333 16.4961 22.667 27.4961 28s23.833 8 38.5 8c9.33301 0 18.5 -1.5 27.5 -4.5s17.833 -6.33301 26.5 -10s17.167 -7 25.5 -10s16.833 -4.5 25.5 -4.5c22 0 39.667 9 53 27
c2.66699 3.33301 5.33398 4.33301 8.00098 3l10 -4c3.33301 -1.33301 4 -4 2 -8c-9.33301 -15.333 -20.666 -25.5 -33.999 -30.5s-26 -7.5 -38 -7.5c-10 0 -19.833 1.5 -29.5 4.5s-19 6.33301 -28 10s-17.833 7 -26.5 10s-17.667 4.5 -27 4.5
c-19.333 0 -33.666 -8 -42.999 -24c-2.66699 -4 -5.66699 -5 -9 -3l-8 3c-3.33301 1.33301 -3.66602 4 -0.999023 8z" />
    <glyph glyph-name="Odieresis" unicode="&#xd6;" horiz-adv-x="466" 
d="M408 158c0 -23.333 -3.8291 -45.168 -11.4961 -65.501s-18.834 -37.833 -33.501 -52.5s-32.834 -26.167 -54.501 -34.5s-46.834 -12.5 -75.501 -12.5c-31.333 0 -58 4.66699 -80 14s-40 22 -54 38s-24.333 34.333 -31 55s-10 42.334 -10 65.001v295c0 22 4 43 12 63
s19.5 37.5 34.5 52.5s33.167 26.833 54.5 35.5s45.666 13 72.999 13c28 0 53 -4.16699 75 -12.5s40.5 -20 55.5 -35s26.333 -32.5 34 -52.5s11.5 -41.333 11.5 -64v-302zM385.004 457.998c0 18.667 -2.83105 36.667 -8.49805 54s-14.834 32.666 -27.501 45.999
s-28.667 24 -48 32s-42.333 12 -69 12c-25.333 0 -47.333 -4 -66 -12s-34.334 -18.5 -47.001 -31.5s-22.167 -28.333 -28.5 -46s-9.5 -35.834 -9.5 -54.501v-291c0 -19.333 2.66699 -38.166 8 -56.499s14 -34.666 26 -48.999s27.667 -25.833 47 -34.5s43 -13 71 -13
c48.667 0 86.167 13.333 112.5 40s39.5 62 39.5 106v298zM333.006 705.998c0 -6 -2.16699 -11 -6.5 -15s-9.16602 -6 -14.499 -6s-10 2 -14 6s-6 9 -6 15s2 11 6 15s8.66699 6 14 6s10.166 -2 14.499 -6s6.5 -9 6.5 -15zM182.006 705.998c0 -6 -1.83301 -11 -5.5 -15
s-8.16699 -6 -13.5 -6s-10.166 2 -14.499 6s-6.5 9 -6.5 15s2.16699 11 6.5 15s9.16602 6 14.499 6s9.83301 -2 13.5 -6s5.5 -9 5.5 -15z" />
    <glyph glyph-name="multiply" unicode="&#xd7;" horiz-adv-x="430" 
d="M220 217c-3.33301 2.66699 -6.33203 2.33496 -8.99902 -0.998047l-117 -117c-3.33301 -2 -6 -2 -8 0l-10 10c-2 2 -1.66699 4.33301 1 7l117 117c2.66699 4 2.66699 7.33301 0 10l-113 112c-2.66699 2 -2.66699 4.33301 0 7l10 10c2 2 4.33301 2 7 0l113 -113
c2.66699 -2.66699 6 -2.33398 10 0.999023l112 112c2 2 4.33301 2 7 0l9 -9c2.66699 -3.33301 3 -6 1 -8l-114 -114c-2 -2 -1.33301 -4.66699 2 -8l116 -117c2.66699 -2.66699 2.66699 -5.33398 0 -8.00098l-9 -9c-2.66699 -2.66699 -5.33398 -2.66699 -8.00098 0z" />
    <glyph glyph-name="Oslash" unicode="&#xd8;" horiz-adv-x="466" 
d="M113 32c-2.66699 2 -4.99902 1.33398 -6.99902 -1.99902l-18 -33c-1.33301 -1.33301 -2.16602 -2.33301 -2.49902 -3s-1.5 -0.333984 -3.5 0.999023l-10 5c-3.33301 1.33301 -4 3.66602 -2 6.99902l21 39c2 2.66699 2 6 0 10
c-9.33301 11.333 -17.166 25.833 -23.499 43.5s-9.5 34.5 -9.5 50.5v317c0 22 4.5 42.667 13.5 62s21.5 36 37.5 50s34.5 25 55.5 33s43.5 12 67.5 12c30 0 55.5 -4.66699 76.5 -14s39.167 -20.666 54.5 -33.999c2 -2 3.66699 -1.33301 5 2l24 42
c1.33301 2 2.66602 2.83301 3.99902 2.5s2.66602 -0.833008 3.99902 -1.5l9 -4c2.66699 -1.33301 3.33398 -3.66602 2.00098 -6.99902l-28 -51c-0.666992 -1.33301 -1 -2.5 -1 -3.5s0.666992 -2.5 2 -4.5c7.33301 -10.667 13.166 -23.334 17.499 -38.001
s6.5 -29.667 6.5 -45v-315c0 -23.333 -4 -44.833 -12 -64.5s-19.667 -36.5 -35 -50.5s-33.833 -25 -55.5 -33s-45.834 -12 -72.501 -12c-51.333 0 -91.333 13 -120 39zM122.001 65.001c-1.33301 -3.33301 -1.66797 -5.66797 -1.00098 -7.00098s1.66699 -3 3 -5
c13.333 -14 29.333 -24.167 48 -30.5s39 -9.5 61 -9.5s42.167 3.33301 60.5 10s34.333 16 48 28s24.334 26.833 32.001 44.5s11.5 37.5 11.5 59.5v310c0 22.667 -4.33301 43.334 -13 62.001c-2 4 -3.66699 5 -5 3zM100.999 82.999c2 -3.33301 4 -3.33301 6 0l245 466
c1.33301 2 0.666016 4.66699 -2.00098 8c-12.667 14 -29.667 25 -51 33s-43.666 12 -66.999 12c-20 0 -39.167 -3.16699 -57.5 -9.5s-34.333 -15.5 -48 -27.5s-24.667 -26.5 -33 -43.5s-12.5 -36.167 -12.5 -57.5v-312c0 -10.667 1.83301 -23 5.5 -37s8.5 -24.667 14.5 -32z
" />
    <glyph glyph-name="Ugrave" unicode="&#xd9;" horiz-adv-x="470" 
d="M410 158c0 -24 -4.16992 -46.166 -12.5029 -66.499s-20 -37.833 -35 -52.5s-33.167 -26 -54.5 -34s-45.333 -12 -72 -12c-30 0 -56 4.33301 -78 13s-40.167 20.5 -54.5 35.5s-25.166 32.5 -32.499 52.5s-11 41.333 -11 64v454c0 3.33301 2 5 6 5h12
c3.33301 0 5 -1.66699 5 -5v-450c0 -20.667 3.16699 -40 9.5 -58s15.833 -33.667 28.5 -47s28.667 -23.833 48 -31.5s42 -11.5 68 -11.5c24.667 0 46.334 3.83301 65.001 11.5s34.334 18.167 47.001 31.5s22.167 28.666 28.5 45.999s9.5 36 9.5 56v453c0 3.33301 2 5 6 5h12
c3.33301 0 5 -1.66699 5 -5v-454zM137.997 726.001c-1.33301 1.33301 -2.5 2.99805 -3.5 4.99805s0.166992 4.66699 3.5 8l12 12c4 4.66699 8 5.33398 12 2.00098l105 -93c4 -3.33301 4.33301 -6.66602 1 -9.99902l-3 -4c-2 -2.66699 -5.33301 -2.66699 -10 0z" />
    <glyph glyph-name="Uacute" unicode="&#xda;" horiz-adv-x="470" 
d="M410 158c0 -24 -4.16992 -46.166 -12.5029 -66.499s-20 -37.833 -35 -52.5s-33.167 -26 -54.5 -34s-45.333 -12 -72 -12c-30 0 -56 4.33301 -78 13s-40.167 20.5 -54.5 35.5s-25.166 32.5 -32.499 52.5s-11 41.333 -11 64v454c0 3.33301 2 5 6 5h12
c3.33301 0 5 -1.66699 5 -5v-450c0 -20.667 3.16699 -40 9.5 -58s15.833 -33.667 28.5 -47s28.667 -23.833 48 -31.5s42 -11.5 68 -11.5c24.667 0 46.334 3.83301 65.001 11.5s34.334 18.167 47.001 31.5s22.167 28.666 28.5 45.999s9.5 36 9.5 56v453c0 3.33301 2 5 6 5h12
c3.33301 0 5 -1.66699 5 -5v-454zM205.997 646.001c-4 -2.66699 -7.33398 -2.66504 -10.001 0.00195312l-4 4c-3.33301 3.33301 -2.66602 6.66602 2.00098 9.99902l105 93c4 3.33301 8 2.66602 12 -2.00098l12 -12c3.33301 -3.33301 4.5 -6 3.5 -8
s-2.16699 -3.66699 -3.5 -5z" />
    <glyph glyph-name="Ucircumflex" unicode="&#xdb;" horiz-adv-x="470" 
d="M410 158c0 -24 -4.16992 -46.166 -12.5029 -66.499s-20 -37.833 -35 -52.5s-33.167 -26 -54.5 -34s-45.333 -12 -72 -12c-30 0 -56 4.33301 -78 13s-40.167 20.5 -54.5 35.5s-25.166 32.5 -32.499 52.5s-11 41.333 -11 64v454c0 3.33301 2 5 6 5h12
c3.33301 0 5 -1.66699 5 -5v-450c0 -20.667 3.16699 -40 9.5 -58s15.833 -33.667 28.5 -47s28.667 -23.833 48 -31.5s42 -11.5 68 -11.5c24.667 0 46.334 3.83301 65.001 11.5s34.334 18.167 47.001 31.5s22.167 28.666 28.5 45.999s9.5 36 9.5 56v453c0 3.33301 2 5 6 5h12
c3.33301 0 5 -1.66699 5 -5v-454zM214.997 750.001c4 4 8.33496 6 13.002 6h21c4 0 8 -2 12 -6l93 -92c3.33301 -3.33301 3.33301 -6 0 -8l-5 -4c-2.66699 -2 -5.33398 -1.66699 -8.00098 1l-100 80c-3.33301 2 -6 2 -8 0l-97 -80
c-2.66699 -2.66699 -5.33398 -3 -8.00098 -1l-5 4c-3.33301 2 -3.33301 4.66699 0 8z" />
    <glyph glyph-name="Udieresis" unicode="&#xdc;" horiz-adv-x="470" 
d="M410 158c0 -24 -4.16992 -46.166 -12.5029 -66.499s-20 -37.833 -35 -52.5s-33.167 -26 -54.5 -34s-45.333 -12 -72 -12c-30 0 -56 4.33301 -78 13s-40.167 20.5 -54.5 35.5s-25.166 32.5 -32.499 52.5s-11 41.333 -11 64v454c0 3.33301 2 5 6 5h12
c3.33301 0 5 -1.66699 5 -5v-450c0 -20.667 3.16699 -40 9.5 -58s15.833 -33.667 28.5 -47s28.667 -23.833 48 -31.5s42 -11.5 68 -11.5c24.667 0 46.334 3.83301 65.001 11.5s34.334 18.167 47.001 31.5s22.167 28.666 28.5 45.999s9.5 36 9.5 56v453c0 3.33301 2 5 6 5h12
c3.33301 0 5 -1.66699 5 -5v-454zM335.997 706.001c0 -6 -2.16699 -11 -6.5 -15s-9.16602 -6 -14.499 -6s-10 2 -14 6s-6 9 -6 15s2 11 6 15s8.66699 6 14 6s10.166 -2 14.499 -6s6.5 -9 6.5 -15zM184.997 706.001c0 -6 -1.83301 -11 -5.5 -15s-8.16699 -6 -13.5 -6
s-10.166 2 -14.499 6s-6.5 9 -6.5 15s2.16699 11 6.5 15s9.16602 6 14.499 6s9.83301 -2 13.5 -6s5.5 -9 5.5 -15z" />
    <glyph glyph-name="Yacute" unicode="&#xdd;" horiz-adv-x="387" 
d="M210 255c-2.66699 -5.33301 -4 -9.83398 -4 -13.501v-10.5v-226c0 -3.33301 -1.66699 -5 -5 -5h-12c-4 0 -6 1.66699 -6 5v218c0 5.33301 -0.166992 10 -0.5 14s-1.83301 8.66699 -4.5 14l-166 360c-1.33301 3.33301 -1.5 5.16602 -0.5 5.49902s2.5 0.5 4.5 0.5h15
c2 0 3.33301 -0.666992 4 -2s1.66699 -2.66602 3 -3.99902l154 -337c1.33301 -2.66699 2.66602 -2.66699 3.99902 0l154 337c1.33301 2.66699 2.33301 4.33398 3 5.00098s2.33398 1 5.00098 1h14c4.66699 0 5.66699 -2.66699 3 -8zM187 645.999
c-4 -2.66699 -7.33398 -2.66504 -10.001 0.00195312l-4 4c-3.33301 3.33301 -2.66602 6.66602 2.00098 9.99902l105 93c4 3.33301 8 2.66602 12 -2.00098l12 -12c3.33301 -3.33301 4.5 -6 3.5 -8s-2.16699 -3.66699 -3.5 -5z" />
    <glyph glyph-name="Thorn" unicode="&#xde;" horiz-adv-x="411" 
d="M65 612c0 3.33301 2 5.00195 6 5.00195h12c3.33301 0 5 -1.66699 5 -5v-143c0 -4.66699 2.33301 -7 7 -7h160c23.333 0 44.333 -3.83301 63 -11.5s34.5 -18.334 47.5 -32.001s23 -29.834 30 -48.501s10.5 -39.334 10.5 -62.001c0 -47.333 -13.667 -85.166 -41 -113.499
s-64 -42.5 -110 -42.5h-160c-4.66699 0 -7 -2.33301 -7 -7v-140c0 -3.33301 -1.66699 -5 -5 -5h-12c-4 0 -6 1.66699 -6 5v607zM384 308.002c0 38 -11.499 69.668 -34.499 95.001s-54.5 38 -94.5 38h-158c-4 0 -6.5 -0.5 -7.5 -1.5s-1.5 -2.5 -1.5 -4.5v-254
c0 -5.33301 2.33301 -8 7 -8h160c41.333 0 73.166 12.667 95.499 38s33.5 57.666 33.5 96.999z" />
    <glyph glyph-name="germandbls" unicode="&#xdf;" horiz-adv-x="428" 
d="M86 5c0 -3.33301 -1.66602 -5.00684 -4.99902 -5.00684h-12c-3.33301 0 -5 1.66699 -5 5v474c0 20.667 3.33301 39.834 10 57.501s16.334 33 29.001 46s28.334 23.167 47.001 30.5s40 11 64 11c25.333 0 47.333 -3.5 66 -10.5s34.167 -16.667 46.5 -29
s21.5 -26.833 27.5 -43.5s9 -34.667 9 -54c0 -9.33301 -1.5 -19.5 -4.5 -30.5s-7.5 -21.833 -13.5 -32.5s-13.5 -20.5 -22.5 -29.5s-19.5 -16.5 -31.5 -22.5c-2.66699 -1.33301 -4.83398 -3.16602 -6.50098 -5.49902s2.16602 -5.16602 11.499 -8.49902
c12.667 -4.66699 23.834 -11.667 33.501 -21s17.834 -19.833 24.501 -31.5s11.667 -24.167 15 -37.5s5 -26 5 -38v-95c0 -19.333 -3.16699 -37.666 -9.5 -54.999s-15.5 -32.666 -27.5 -45.999s-26.833 -24 -44.5 -32s-37.834 -12 -60.501 -12h-54h-4.5
c-1 0 -1.5 1.66699 -1.5 5v8c0 3.33301 0.5 5.16602 1.5 5.49902s2.16699 0.5 3.5 0.5h42c22 0 41.167 3.33301 57.5 10s30.166 15.834 41.499 27.501s19.833 25.5 25.5 41.5s8.5 33.333 8.5 52v90c0 20.667 -3.66699 38.834 -11 54.501s-16.833 28.834 -28.5 39.501
s-24.167 18.667 -37.5 24s-26 8 -38 8h-10c-4 0 -6 2.33301 -6 7v7c0 3.33301 2 5 6 5h9c6 0 14.667 2 26 6s22.666 10.333 33.999 19s21.333 20 30 34s13 31.333 13 52c0 14 -2.16699 28 -6.5 42s-11.333 26.5 -21 37.5s-22.5 20 -38.5 27s-35.667 10.5 -59 10.5
c-38 0 -68.833 -11.167 -92.5 -33.5s-35.5 -52.5 -35.5 -90.5v-474v0z" />
    <glyph glyph-name="agrave" unicode="&#xe0;" horiz-adv-x="355" 
d="M315 5c0 -3.33301 -1.99707 -5.00195 -5.99707 -5.00195h-12c-3.33301 0 -5 1.66699 -5 5v50c0 4 -0.666992 6 -2 6s-2.66602 -1.33301 -3.99902 -4c-12.667 -19.333 -29.5 -34.5 -50.5 -45.5s-45.833 -16.5 -74.5 -16.5c-44 0 -78.167 12.667 -102.5 38
s-36.5 59 -36.5 101c0 20 3.16699 38.833 9.5 56.5s15.666 33.167 27.999 46.5s27.666 24 45.999 32s39.5 12 63.5 12c27.333 0 51.333 -5.66699 72 -17s36 -26.333 46 -45c1.33301 -2.66699 2.5 -3.5 3.5 -2.5s1.5 2.5 1.5 4.5v72c0 14 -1.5 28.5 -4.5 43.5
s-8.66699 28.5 -17 40.5s-20.333 21.833 -36 29.5s-36.5 11.5 -62.5 11.5c-16.667 0 -35.334 -1.83301 -56.001 -5.5s-37.667 -8.5 -51 -14.5c-3.33301 -2.66699 -6 -2 -8 2l-4 9c-0.666992 2.66699 0.666016 5.33398 3.99902 8.00098c16 7.33301 34.833 12.833 56.5 16.5
s41.5 5.5 59.5 5.5c49.333 0 85.333 -12.167 108 -36.5s34 -60.166 34 -107.499v-290zM291.003 137.998c0 16.667 -2.99902 32.668 -8.99902 48.001s-14.333 28.5 -25 39.5s-23.5 19.833 -38.5 26.5s-31.5 10 -49.5 10c-20 0 -37.833 -3.5 -53.5 -10.5
s-28.834 -16.167 -39.501 -27.5s-18.667 -24.833 -24 -40.5s-8 -31.834 -8 -48.501c0 -17.333 2.16699 -33.333 6.5 -48s11.333 -27.5 21 -38.5s22.167 -19.667 37.5 -26s34 -9.5 56 -9.5c18 0 34.833 3.33301 50.5 10s29 15.667 40 27s19.667 24.5 26 39.5
s9.5 31.167 9.5 48.5zM206.004 505.999c2 -4 1.33301 -6.99902 -2 -8.99902l-5 -3c-3.33301 -2 -6.33301 -1 -9 3l-81 117c-1.33301 1.33301 -1.83301 3.16602 -1.5 5.49902s2.5 4.5 6.5 6.5l15 7c6 2.66699 10 1.66699 12 -3z" />
    <glyph glyph-name="aacute" unicode="&#xe1;" horiz-adv-x="355" 
d="M315 5c0 -3.33301 -1.99707 -5.00195 -5.99707 -5.00195h-12c-3.33301 0 -5 1.66699 -5 5v50c0 4 -0.666992 6 -2 6s-2.66602 -1.33301 -3.99902 -4c-12.667 -19.333 -29.5 -34.5 -50.5 -45.5s-45.833 -16.5 -74.5 -16.5c-44 0 -78.167 12.667 -102.5 38
s-36.5 59 -36.5 101c0 20 3.16699 38.833 9.5 56.5s15.666 33.167 27.999 46.5s27.666 24 45.999 32s39.5 12 63.5 12c27.333 0 51.333 -5.66699 72 -17s36 -26.333 46 -45c1.33301 -2.66699 2.5 -3.5 3.5 -2.5s1.5 2.5 1.5 4.5v72c0 14 -1.5 28.5 -4.5 43.5
s-8.66699 28.5 -17 40.5s-20.333 21.833 -36 29.5s-36.5 11.5 -62.5 11.5c-16.667 0 -35.334 -1.83301 -56.001 -5.5s-37.667 -8.5 -51 -14.5c-3.33301 -2.66699 -6 -2 -8 2l-4 9c-0.666992 2.66699 0.666016 5.33398 3.99902 8.00098c16 7.33301 34.833 12.833 56.5 16.5
s41.5 5.5 59.5 5.5c49.333 0 85.333 -12.167 108 -36.5s34 -60.166 34 -107.499v-290zM291.003 137.998c0 16.667 -2.99902 32.668 -8.99902 48.001s-14.333 28.5 -25 39.5s-23.5 19.833 -38.5 26.5s-31.5 10 -49.5 10c-20 0 -37.833 -3.5 -53.5 -10.5
s-28.834 -16.167 -39.501 -27.5s-18.667 -24.833 -24 -40.5s-8 -31.834 -8 -48.501c0 -17.333 2.16699 -33.333 6.5 -48s11.333 -27.5 21 -38.5s22.167 -19.667 37.5 -26s34 -9.5 56 -9.5c18 0 34.833 3.33301 50.5 10s29 15.667 40 27s19.667 24.5 26 39.5
s9.5 31.167 9.5 48.5zM186.004 496.999c-2.66699 -4.66699 -5.66699 -5.66797 -9 -3.00098l-5 3c-3.33301 2 -4 5 -2 9l65 124c2 4.66699 6 5.66699 12 3l15 -7c4 -2 6.16699 -4.16699 6.5 -6.5s-0.166992 -4.16602 -1.5 -5.49902z" />
    <glyph glyph-name="acircumflex" unicode="&#xe2;" horiz-adv-x="355" 
d="M315 5c0 -3.33301 -1.99707 -5.00195 -5.99707 -5.00195h-12c-3.33301 0 -5 1.66699 -5 5v50c0 4 -0.666992 6 -2 6s-2.66602 -1.33301 -3.99902 -4c-12.667 -19.333 -29.5 -34.5 -50.5 -45.5s-45.833 -16.5 -74.5 -16.5c-44 0 -78.167 12.667 -102.5 38
s-36.5 59 -36.5 101c0 20 3.16699 38.833 9.5 56.5s15.666 33.167 27.999 46.5s27.666 24 45.999 32s39.5 12 63.5 12c27.333 0 51.333 -5.66699 72 -17s36 -26.333 46 -45c1.33301 -2.66699 2.5 -3.5 3.5 -2.5s1.5 2.5 1.5 4.5v72c0 14 -1.5 28.5 -4.5 43.5
s-8.66699 28.5 -17 40.5s-20.333 21.833 -36 29.5s-36.5 11.5 -62.5 11.5c-16.667 0 -35.334 -1.83301 -56.001 -5.5s-37.667 -8.5 -51 -14.5c-3.33301 -2.66699 -6 -2 -8 2l-4 9c-0.666992 2.66699 0.666016 5.33398 3.99902 8.00098c16 7.33301 34.833 12.833 56.5 16.5
s41.5 5.5 59.5 5.5c49.333 0 85.333 -12.167 108 -36.5s34 -60.166 34 -107.499v-290zM291.003 137.998c0 16.667 -2.99902 32.668 -8.99902 48.001s-14.333 28.5 -25 39.5s-23.5 19.833 -38.5 26.5s-31.5 10 -49.5 10c-20 0 -37.833 -3.5 -53.5 -10.5
s-28.834 -16.167 -39.501 -27.5s-18.667 -24.833 -24 -40.5s-8 -31.834 -8 -48.501c0 -17.333 2.16699 -33.333 6.5 -48s11.333 -27.5 21 -38.5s22.167 -19.667 37.5 -26s34 -9.5 56 -9.5c18 0 34.833 3.33301 50.5 10s29 15.667 40 27s19.667 24.5 26 39.5
s9.5 31.167 9.5 48.5zM300.004 498.999c-2.66699 -2.66699 -5.33301 -2.33301 -8 1l-100 103c-3.33301 3.33301 -6 3.33301 -8 0l-97 -104c-3.33301 -3.33301 -6 -4 -8 -2l-6 5c-1.33301 2 -2 3.16699 -2 3.5s0.666992 1.5 2 3.5l93 117c4 4.66699 8.33301 7 13 7h21
c4 0 8 -2.33301 12 -7l93 -114c2.66699 -3.33301 2.66699 -6 0 -8z" />
    <glyph glyph-name="atilde" unicode="&#xe3;" horiz-adv-x="355" 
d="M315 5c0 -3.33301 -1.99707 -5.00195 -5.99707 -5.00195h-12c-3.33301 0 -5 1.66699 -5 5v50c0 4 -0.666992 6 -2 6s-2.66602 -1.33301 -3.99902 -4c-12.667 -19.333 -29.5 -34.5 -50.5 -45.5s-45.833 -16.5 -74.5 -16.5c-44 0 -78.167 12.667 -102.5 38
s-36.5 59 -36.5 101c0 20 3.16699 38.833 9.5 56.5s15.666 33.167 27.999 46.5s27.666 24 45.999 32s39.5 12 63.5 12c27.333 0 51.333 -5.66699 72 -17s36 -26.333 46 -45c1.33301 -2.66699 2.5 -3.5 3.5 -2.5s1.5 2.5 1.5 4.5v72c0 14 -1.5 28.5 -4.5 43.5
s-8.66699 28.5 -17 40.5s-20.333 21.833 -36 29.5s-36.5 11.5 -62.5 11.5c-16.667 0 -35.334 -1.83301 -56.001 -5.5s-37.667 -8.5 -51 -14.5c-3.33301 -2.66699 -6 -2 -8 2l-4 9c-0.666992 2.66699 0.666016 5.33398 3.99902 8.00098c16 7.33301 34.833 12.833 56.5 16.5
s41.5 5.5 59.5 5.5c49.333 0 85.333 -12.167 108 -36.5s34 -60.166 34 -107.499v-290zM291.003 137.998c0 16.667 -2.99902 32.668 -8.99902 48.001s-14.333 28.5 -25 39.5s-23.5 19.833 -38.5 26.5s-31.5 10 -49.5 10c-20 0 -37.833 -3.5 -53.5 -10.5
s-28.834 -16.167 -39.501 -27.5s-18.667 -24.833 -24 -40.5s-8 -31.834 -8 -48.501c0 -17.333 2.16699 -33.333 6.5 -48s11.333 -27.5 21 -38.5s22.167 -19.667 37.5 -26s34 -9.5 56 -9.5c18 0 34.833 3.33301 50.5 10s29 15.667 40 27s19.667 24.5 26 39.5
s9.5 31.167 9.5 48.5zM68.0039 545.999c7.33301 13.333 16.4961 22.667 27.4961 28s23.833 8 38.5 8c9.33301 0 18.5 -1.5 27.5 -4.5s17.833 -6.33301 26.5 -10s17.167 -7 25.5 -10s16.833 -4.5 25.5 -4.5c22 0 39.667 9 53 27c2.66699 3.33301 5.33398 4.33301 8.00098 3
l10 -4c3.33301 -1.33301 4 -4 2 -8c-9.33301 -15.333 -20.666 -25.5 -33.999 -30.5s-26 -7.5 -38 -7.5c-10 0 -19.833 1.5 -29.5 4.5s-19 6.33301 -28 10s-17.833 7 -26.5 10s-17.667 4.5 -27 4.5c-19.333 0 -33.666 -8 -42.999 -24c-2.66699 -4 -5.66699 -5 -9 -3l-8 3
c-3.33301 1.33301 -3.66602 4 -0.999023 8z" />
    <glyph glyph-name="adieresis" unicode="&#xe4;" horiz-adv-x="355" 
d="M315 5c0 -3.33301 -1.99707 -5.00195 -5.99707 -5.00195h-12c-3.33301 0 -5 1.66699 -5 5v50c0 4 -0.666992 6 -2 6s-2.66602 -1.33301 -3.99902 -4c-12.667 -19.333 -29.5 -34.5 -50.5 -45.5s-45.833 -16.5 -74.5 -16.5c-44 0 -78.167 12.667 -102.5 38
s-36.5 59 -36.5 101c0 20 3.16699 38.833 9.5 56.5s15.666 33.167 27.999 46.5s27.666 24 45.999 32s39.5 12 63.5 12c27.333 0 51.333 -5.66699 72 -17s36 -26.333 46 -45c1.33301 -2.66699 2.5 -3.5 3.5 -2.5s1.5 2.5 1.5 4.5v72c0 14 -1.5 28.5 -4.5 43.5
s-8.66699 28.5 -17 40.5s-20.333 21.833 -36 29.5s-36.5 11.5 -62.5 11.5c-16.667 0 -35.334 -1.83301 -56.001 -5.5s-37.667 -8.5 -51 -14.5c-3.33301 -2.66699 -6 -2 -8 2l-4 9c-0.666992 2.66699 0.666016 5.33398 3.99902 8.00098c16 7.33301 34.833 12.833 56.5 16.5
s41.5 5.5 59.5 5.5c49.333 0 85.333 -12.167 108 -36.5s34 -60.166 34 -107.499v-290zM291.003 137.998c0 16.667 -2.99902 32.668 -8.99902 48.001s-14.333 28.5 -25 39.5s-23.5 19.833 -38.5 26.5s-31.5 10 -49.5 10c-20 0 -37.833 -3.5 -53.5 -10.5
s-28.834 -16.167 -39.501 -27.5s-18.667 -24.833 -24 -40.5s-8 -31.834 -8 -48.501c0 -17.333 2.16699 -33.333 6.5 -48s11.333 -27.5 21 -38.5s22.167 -19.667 37.5 -26s34 -9.5 56 -9.5c18 0 34.833 3.33301 50.5 10s29 15.667 40 27s19.667 24.5 26 39.5
s9.5 31.167 9.5 48.5zM279.004 568.999c0 -5.33301 -2.16699 -10.166 -6.5 -14.499s-9.16602 -6.5 -14.499 -6.5s-10 2.16699 -14 6.5s-6 9.16602 -6 14.499c0 6 2 11 6 15s8.66699 6 14 6s10.166 -2 14.499 -6s6.5 -9 6.5 -15zM129.004 568.999c0 -6 -2 -10.998 -6 -14.998
s-8.66699 -6 -14 -6s-10 2.16699 -14 6.5s-6 9.16602 -6 14.499c0 6 2 11 6 15s8.66699 6 14 6s10 -1.83301 14 -5.5s6 -8.83398 6 -15.501z" />
    <glyph glyph-name="aring" unicode="&#xe5;" horiz-adv-x="355" 
d="M315 5c0 -3.33301 -1.99707 -5.00195 -5.99707 -5.00195h-12c-3.33301 0 -5 1.66699 -5 5v50c0 4 -0.666992 6 -2 6s-2.66602 -1.33301 -3.99902 -4c-12.667 -19.333 -29.5 -34.5 -50.5 -45.5s-45.833 -16.5 -74.5 -16.5c-44 0 -78.167 12.667 -102.5 38
s-36.5 59 -36.5 101c0 20 3.16699 38.833 9.5 56.5s15.666 33.167 27.999 46.5s27.666 24 45.999 32s39.5 12 63.5 12c27.333 0 51.333 -5.66699 72 -17s36 -26.333 46 -45c1.33301 -2.66699 2.5 -3.5 3.5 -2.5s1.5 2.5 1.5 4.5v72c0 14 -1.5 28.5 -4.5 43.5
s-8.66699 28.5 -17 40.5s-20.333 21.833 -36 29.5s-36.5 11.5 -62.5 11.5c-16.667 0 -35.334 -1.83301 -56.001 -5.5s-37.667 -8.5 -51 -14.5c-3.33301 -2.66699 -6 -2 -8 2l-4 9c-0.666992 2.66699 0.666016 5.33398 3.99902 8.00098c16 7.33301 34.833 12.833 56.5 16.5
s41.5 5.5 59.5 5.5c49.333 0 85.333 -12.167 108 -36.5s34 -60.166 34 -107.499v-290zM291.003 137.998c0 16.667 -2.99902 32.668 -8.99902 48.001s-14.333 28.5 -25 39.5s-23.5 19.833 -38.5 26.5s-31.5 10 -49.5 10c-20 0 -37.833 -3.5 -53.5 -10.5
s-28.834 -16.167 -39.501 -27.5s-18.667 -24.833 -24 -40.5s-8 -31.834 -8 -48.501c0 -17.333 2.16699 -33.333 6.5 -48s11.333 -27.5 21 -38.5s22.167 -19.667 37.5 -26s34 -9.5 56 -9.5c18 0 34.833 3.33301 50.5 10s29 15.667 40 27s19.667 24.5 26 39.5
s9.5 31.167 9.5 48.5zM178.004 498.999c-18 0 -32.667 6.16699 -44 18.5s-17 27.5 -17 45.5s5.66699 33.167 17 45.5s26 18.5 44 18.5c17.333 0 32.166 -6.16699 44.499 -18.5s18.5 -27.5 18.5 -45.5s-6.16699 -33.167 -18.5 -45.5s-27.166 -18.5 -44.499 -18.5z
M178.004 607.999c-12 0 -22 -4.33301 -30 -13s-12 -19.334 -12 -32.001s4 -23.334 12 -32.001s18 -13 30 -13c11.333 0 21.333 4.33301 30 13s13 19.334 13 32.001s-4.33301 23.334 -13 32.001s-18.667 13 -30 13z" />
    <glyph glyph-name="ae" unicode="&#xe6;" horiz-adv-x="639" 
d="M303 357c2 -4.66699 4.33691 -4.66699 7.00391 0c13.333 26.667 32.166 46.834 56.499 60.501s51.5 20.5 81.5 20.5c21.333 0 41.5 -3.16699 60.5 -9.5s35.5 -16 49.5 -29s25.167 -29.833 33.5 -50.5s12.5 -45.334 12.5 -74.001v-41c0 -9.33301 -3.66699 -14 -11 -14
h-267c-6.66699 0 -10 -3.33301 -10 -10v-62c0 -38.667 12.167 -70.667 36.5 -96s57.166 -38 98.499 -38c23.333 0 44 4.16699 62 12.5s32.333 20.166 43 35.499c3.33301 5.33301 6.66602 6.66602 9.99902 3.99902l9 -6c2 -2 3 -3.66699 3 -5s-0.333008 -2.66602 -1 -3.99902
c-13.333 -18 -31 -31.833 -53 -41.5s-47 -14.5 -75 -14.5c-34 0 -63.333 7.33301 -88 22s-42.667 35.334 -54 62.001c-0.666992 1.33301 -1.66699 2.33301 -3 3s-2.66602 0 -3.99902 -2c-6 -14.667 -13.667 -27.334 -23 -38.001s-20 -19.5 -32 -26.5
s-24.667 -12.167 -38 -15.5s-26.666 -5 -39.999 -5c-47.333 0 -83 13.167 -107 39.5s-36 60.5 -36 102.5c0 20 3.5 38.667 10.5 56s16.833 32.5 29.5 45.5s27.667 23.333 45 31s36.666 11.5 57.999 11.5c26.667 0 50.167 -5.83301 70.5 -17.5s36.833 -27.167 49.5 -46.5
c1.33301 -2.66699 2.5 -3.5 3.5 -2.5s1.5 2.5 1.5 4.5v73c0 14 -2.16699 28.5 -6.5 43.5s-11.666 28.667 -21.999 41s-23.833 22.333 -40.5 30s-37.334 11.5 -62.001 11.5c-16.667 0 -33.5 -1.83301 -50.5 -5.5s-32.167 -8.5 -45.5 -14.5c-3.33301 -2.66699 -6 -2 -8 2l-4 9
c-0.666992 2.66699 0.666016 5.33398 3.99902 8.00098c16 7.33301 33 12.833 51 16.5s36 5.5 54 5.5c37.333 0 67.666 -7.16699 90.999 -21.5s40 -34.5 50 -60.5zM291.004 138c0 16.667 -3.33301 32.667 -10 48s-15.5 28.5 -26.5 39.5s-24.167 19.833 -39.5 26.5
s-31.333 10 -48 10s-32.5 -3.33301 -47.5 -10s-28 -15.5 -39 -26.5s-19.833 -24.167 -26.5 -39.5s-10 -31.333 -10 -48c0 -34 10 -63.167 30 -87.5s51 -36.5 93 -36.5c16.667 0 32.667 3.33301 48 10s28.5 15.5 39.5 26.5s19.833 24 26.5 39s10 31.167 10 48.5zM582.004 282
c0 40 -12.167 72.666 -36.5 97.999s-56.833 38 -97.5 38c-18.667 0 -36 -3.33301 -52 -10s-30 -16 -42 -28s-21.333 -26.167 -28 -42.5s-10 -34.166 -10 -53.499v-32c0 -7.33301 3.33301 -11 10 -11h247c6 0 9 3.66699 9 11v30z" />
    <glyph glyph-name="ccedilla" unicode="&#xe7;" horiz-adv-x="355" 
d="M309 61c4 4.66699 7.33008 6.00195 9.99707 4.00195l7 -5c4 -2 4.66699 -5 2 -9c-12 -18.667 -28.833 -32.5 -50.5 -41.5s-46.167 -13.833 -73.5 -14.5l-11 -46c-2 -6 0 -9 6 -9h13c24 0 43.5 -5.5 58.5 -16.5s22.5 -27.167 22.5 -48.5c0 -19.333 -7.66699 -35 -23 -47
s-35.666 -18 -60.999 -18c-11.333 0 -24 2 -38 6s-24.333 8.66699 -31 14c-2 2 -2 4 0 6l4 6c1.33301 3.33301 3.33301 3.66602 6 0.999023c8.66699 -5.33301 17.834 -9.5 27.501 -12.5s19.167 -4.5 28.5 -4.5c44.667 0 67 16.333 67 49c0 10 -3.66699 20.333 -11 31
s-22.666 16 -45.999 16h-36c-3.33301 0 -6.16602 0.666992 -8.49902 2s-2.83301 4.66602 -1.5 9.99902l17 62c-46 2.66699 -81.167 18 -105.5 46s-36.5 64 -36.5 108v134c0 22.667 3.83301 43.5 11.5 62.5s18.5 35.167 32.5 48.5s30.5 23.833 49.5 31.5
s39.833 11.5 62.5 11.5c26.667 0 50.834 -4.83301 72.501 -14.5s39.167 -23.167 52.5 -40.5c2.66699 -3.33301 2.66699 -6 0 -8l-10 -8c-2.66699 -2.66699 -5.33398 -2.33398 -8.00098 0.999023c-12 16 -27.5 28.333 -46.5 37s-39.167 13 -60.5 13
c-20 0 -38.167 -3.5 -54.5 -10.5s-30.333 -16.5 -42 -28.5s-20.834 -26.167 -27.501 -42.5s-10 -34.166 -10 -53.499v-132c0 -42.667 12.167 -76 36.5 -100s57.166 -36 98.499 -36c23.333 0 44.333 3.83301 63 11.5s33.334 19.167 44.001 34.5z" />
    <glyph glyph-name="egrave" unicode="&#xe8;" horiz-adv-x="393" 
d="M358 234c0 -9.33301 -3.66797 -13.9961 -11.001 -13.9961h-267c-6.66699 0 -10 -3.33301 -10 -10v-62c0 -38.667 11.333 -70.667 34 -96s56.334 -38 101.001 -38c28 0 50 4.33301 66 13s30 20 42 34c2.66699 3.33301 4.5 5.16602 5.5 5.49902s2.16699 -0.166992 3.5 -1.5
l7 -5c4 -2 4.66699 -5 2 -9c-16 -21.333 -34.333 -36 -55 -44s-45 -12 -73 -12c-49.333 0 -87.5 14 -114.5 42s-40.5 65.333 -40.5 112v132c0 25.333 4 47.666 12 66.999s19 35.666 33 48.999s30.333 23.5 49 30.5s38.667 10.5 60 10.5s41.5 -3.16699 60.5 -9.5
s35.5 -16 49.5 -29s25.167 -29.833 33.5 -50.5s12.5 -45.334 12.5 -74.001v-41zM335.999 282.004c0 40 -12.167 72.666 -36.5 97.999s-56.833 38 -97.5 38c-18.667 0 -36 -3.33301 -52 -10s-30 -16 -42 -28s-21.333 -26.167 -28 -42.5s-10 -34.166 -10 -53.499v-32
c0 -7.33301 3.33301 -11 10 -11h247c6 0 9 3.66699 9 11v30zM226.999 506.003c2 -4 1.33301 -6.99902 -2 -8.99902l-5 -3c-3.33301 -2 -6.33301 -1 -9 3l-81 117c-1.33301 1.33301 -1.83301 3.16602 -1.5 5.49902s2.5 4.5 6.5 6.5l15 7c6 2.66699 10 1.66699 12 -3z" />
    <glyph glyph-name="eacute" unicode="&#xe9;" horiz-adv-x="393" 
d="M358 234c0 -9.33301 -3.66797 -13.9961 -11.001 -13.9961h-267c-6.66699 0 -10 -3.33301 -10 -10v-62c0 -38.667 11.333 -70.667 34 -96s56.334 -38 101.001 -38c28 0 50 4.33301 66 13s30 20 42 34c2.66699 3.33301 4.5 5.16602 5.5 5.49902s2.16699 -0.166992 3.5 -1.5
l7 -5c4 -2 4.66699 -5 2 -9c-16 -21.333 -34.333 -36 -55 -44s-45 -12 -73 -12c-49.333 0 -87.5 14 -114.5 42s-40.5 65.333 -40.5 112v132c0 25.333 4 47.666 12 66.999s19 35.666 33 48.999s30.333 23.5 49 30.5s38.667 10.5 60 10.5s41.5 -3.16699 60.5 -9.5
s35.5 -16 49.5 -29s25.167 -29.833 33.5 -50.5s12.5 -45.334 12.5 -74.001v-41zM335.999 282.004c0 40 -12.167 72.666 -36.5 97.999s-56.833 38 -97.5 38c-18.667 0 -36 -3.33301 -52 -10s-30 -16 -42 -28s-21.333 -26.167 -28 -42.5s-10 -34.166 -10 -53.499v-32
c0 -7.33301 3.33301 -11 10 -11h247c6 0 9 3.66699 9 11v30zM197.999 497.003c-2.66699 -4.66699 -5.66699 -5.66797 -9 -3.00098l-5 3c-3.33301 2 -4 5 -2 9l65 124c2 4.66699 6 5.66699 12 3l15 -7c4 -2 6.16699 -4.16699 6.5 -6.5s-0.166992 -4.16602 -1.5 -5.49902z" />
    <glyph glyph-name="ecircumflex" unicode="&#xea;" horiz-adv-x="393" 
d="M358 234c0 -9.33301 -3.66797 -13.9961 -11.001 -13.9961h-267c-6.66699 0 -10 -3.33301 -10 -10v-62c0 -38.667 11.333 -70.667 34 -96s56.334 -38 101.001 -38c28 0 50 4.33301 66 13s30 20 42 34c2.66699 3.33301 4.5 5.16602 5.5 5.49902s2.16699 -0.166992 3.5 -1.5
l7 -5c4 -2 4.66699 -5 2 -9c-16 -21.333 -34.333 -36 -55 -44s-45 -12 -73 -12c-49.333 0 -87.5 14 -114.5 42s-40.5 65.333 -40.5 112v132c0 25.333 4 47.666 12 66.999s19 35.666 33 48.999s30.333 23.5 49 30.5s38.667 10.5 60 10.5s41.5 -3.16699 60.5 -9.5
s35.5 -16 49.5 -29s25.167 -29.833 33.5 -50.5s12.5 -45.334 12.5 -74.001v-41zM335.999 282.004c0 40 -12.167 72.666 -36.5 97.999s-56.833 38 -97.5 38c-18.667 0 -36 -3.33301 -52 -10s-30 -16 -42 -28s-21.333 -26.167 -28 -42.5s-10 -34.166 -10 -53.499v-32
c0 -7.33301 3.33301 -11 10 -11h247c6 0 9 3.66699 9 11v30zM317.999 499.003c-2.66699 -2.66699 -5.33301 -2.33301 -8 1l-100 103c-3.33301 3.33301 -6 3.33301 -8 0l-97 -104c-3.33301 -3.33301 -6 -4 -8 -2l-6 5c-1.33301 2 -2 3.16699 -2 3.5s0.666992 1.5 2 3.5
l93 117c4 4.66699 8.33301 7 13 7h21c4 0 8 -2.33301 12 -7l93 -114c2.66699 -3.33301 2.66699 -6 0 -8z" />
    <glyph glyph-name="edieresis" unicode="&#xeb;" horiz-adv-x="393" 
d="M358 234c0 -9.33301 -3.66797 -13.9961 -11.001 -13.9961h-267c-6.66699 0 -10 -3.33301 -10 -10v-62c0 -38.667 11.333 -70.667 34 -96s56.334 -38 101.001 -38c28 0 50 4.33301 66 13s30 20 42 34c2.66699 3.33301 4.5 5.16602 5.5 5.49902s2.16699 -0.166992 3.5 -1.5
l7 -5c4 -2 4.66699 -5 2 -9c-16 -21.333 -34.333 -36 -55 -44s-45 -12 -73 -12c-49.333 0 -87.5 14 -114.5 42s-40.5 65.333 -40.5 112v132c0 25.333 4 47.666 12 66.999s19 35.666 33 48.999s30.333 23.5 49 30.5s38.667 10.5 60 10.5s41.5 -3.16699 60.5 -9.5
s35.5 -16 49.5 -29s25.167 -29.833 33.5 -50.5s12.5 -45.334 12.5 -74.001v-41zM335.999 282.004c0 40 -12.167 72.666 -36.5 97.999s-56.833 38 -97.5 38c-18.667 0 -36 -3.33301 -52 -10s-30 -16 -42 -28s-21.333 -26.167 -28 -42.5s-10 -34.166 -10 -53.499v-32
c0 -7.33301 3.33301 -11 10 -11h247c6 0 9 3.66699 9 11v30zM301.999 569.003c0 -5.33301 -2.16699 -10.166 -6.5 -14.499s-9.16602 -6.5 -14.499 -6.5s-10 2.16699 -14 6.5s-6 9.16602 -6 14.499c0 6 2 11 6 15s8.66699 6 14 6s10.166 -2 14.499 -6s6.5 -9 6.5 -15z
M151.999 569.003c0 -6 -2 -10.998 -6 -14.998s-8.66699 -6 -14 -6s-10 2.16699 -14 6.5s-6 9.16602 -6 14.499c0 6 2 11 6 15s8.66699 6 14 6s10 -1.83301 14 -5.5s6 -8.83398 6 -15.501z" />
    <glyph glyph-name="igrave" unicode="&#xec;" horiz-adv-x="156" 
d="M85 5c0 -3.33301 -1.66699 -5 -5 -5h-12c-4 0 -6 1.66699 -6 5v423c0 3.33301 2 5 6 5h12c3.33301 0 5 -1.66699 5 -5v-423zM93 506c2 -4 1.33301 -6.99902 -2 -8.99902l-5 -3c-3.33301 -2 -6.33301 -1 -9 3l-81 117c-1.33301 1.33301 -1.83301 3.16602 -1.5 5.49902
s2.5 4.5 6.5 6.5l15 7c6 2.66699 10 1.66699 12 -3z" />
    <glyph glyph-name="iacute" unicode="&#xed;" horiz-adv-x="156" 
d="M85 5c0 -3.33301 -1.66699 -5 -5 -5h-12c-4 0 -6 1.66699 -6 5v423c0 3.33301 2 5 6 5h12c3.33301 0 5 -1.66699 5 -5v-423zM77 497c-2.66699 -4.66699 -5.66699 -5.66797 -9 -3.00098l-5 3c-3.33301 2 -4 5 -2 9l65 124c2 4.66699 6 5.66699 12 3l15 -7
c4 -2 6.16699 -4.16699 6.5 -6.5s-0.166992 -4.16602 -1.5 -5.49902z" />
    <glyph glyph-name="icircumflex" unicode="&#xee;" horiz-adv-x="156" 
d="M85 5c0 -3.33301 -1.66699 -5 -5 -5h-12c-4 0 -6 1.66699 -6 5v423c0 3.33301 2 5 6 5h12c3.33301 0 5 -1.66699 5 -5v-423zM185 499c-2.66699 -2.66699 -5.33301 -2.33301 -8 1l-100 103c-3.33301 3.33301 -6 3.33301 -8 0l-97 -104c-3.33301 -3.33301 -6 -4 -8 -2l-6 5
c-1.33301 2 -2 3.16699 -2 3.5s0.666992 1.5 2 3.5l93 117c4 4.66699 8.33301 7 13 7h21c4 0 8 -2.33301 12 -7l93 -114c2.66699 -3.33301 2.66699 -6 0 -8z" />
    <glyph glyph-name="idieresis" unicode="&#xef;" horiz-adv-x="156" 
d="M85 5c0 -3.33301 -1.66699 -5 -5 -5h-12c-4 0 -6 1.66699 -6 5v423c0 3.33301 2 5 6 5h12c3.33301 0 5 -1.66699 5 -5v-423zM169 569c0 -5.33301 -2.16699 -10.166 -6.5 -14.499s-9.16602 -6.5 -14.499 -6.5s-10 2.16699 -14 6.5s-6 9.16602 -6 14.499c0 6 2 11 6 15
s8.66699 6 14 6s10.166 -2 14.499 -6s6.5 -9 6.5 -15zM19 569c0 -6 -2 -10.998 -6 -14.998s-8.66699 -6 -14 -6s-10 2.16699 -14 6.5s-6 9.16602 -6 14.499c0 6 2 11 6 15s8.66699 6 14 6s10 -1.83301 14 -5.5s6 -8.83398 6 -15.501z" />
    <glyph glyph-name="eth" unicode="&#xf0;" horiz-adv-x="408" 
d="M136 639c0 4 1.99902 5.99707 5.99902 5.99707c36.667 0 67.667 -5 93 -15s47.333 -25.667 66 -47c2.66699 -2.66699 5 -3 7 -1l44 41c2 2 3.66699 2.83301 5 2.5s2.66602 -1.16602 3.99902 -2.49902l5 -6c2 -3.33301 2 -6 0 -8l-46 -42c-2 -2 -2.66699 -3.66699 -2 -5
c6.66699 -10.667 12.667 -22.167 18 -34.5s9.83301 -26.333 13.5 -42s6.33398 -33.667 8.00098 -54s2.5 -43.833 2.5 -70.5v-209c0 -50 -13.167 -88.667 -39.5 -116s-64.5 -41 -114.5 -41c-52 0 -91 14.333 -117 43s-39 66 -39 112v122c0 22.667 3.66699 43.334 11 62.001
s17.833 34.834 31.5 48.501s30.167 24.334 49.5 32.001s40.666 11.5 63.999 11.5c30.667 0 56.834 -5.83301 78.501 -17.5s38.834 -27.834 51.501 -48.501c1.33301 -1.33301 2.33301 -1.66602 3 -0.999023s1 1.66699 1 3c0 47.333 -3.16699 85 -9.5 113
s-15.166 50.667 -26.499 68c-2.66699 3.33301 -5.33398 3.66602 -8.00098 0.999023l-50 -48c-3.33301 -3.33301 -6 -4 -8 -2l-5 7c-3.33301 2.66699 -3.33301 5.66699 0 9l51 50c2 2.66699 2 5.66699 0 9c-16 21.333 -36 36 -60 44s-51.667 12 -83 12
c-3.33301 0 -5 1.66699 -5 5v9zM337.999 269.997c0 19.333 -3.16992 37.334 -9.50293 54.001s-15.166 31 -26.499 43s-25.166 21.5 -41.499 28.5s-34.5 10.5 -54.5 10.5c-19.333 0 -37.166 -3.5 -53.499 -10.5s-30.5 -16.5 -42.5 -28.5s-21.333 -26.333 -28 -43
s-10 -34.334 -10 -53.001v-120c0 -42.667 12.5 -76.167 37.5 -100.5s57.5 -36.5 97.5 -36.5c40.667 0 72.667 12.167 96 36.5s35 58.5 35 102.5v117z" />
    <glyph glyph-name="ntilde" unicode="&#xf1;" horiz-adv-x="410" 
d="M363 5c0 -3.33301 -1.66797 -4.99805 -5.00098 -4.99805h-12c-4 0 -6 1.66699 -6 5v273c0 18 -2.83301 35.5 -8.5 52.5s-14 32 -25 45s-24.833 23.333 -41.5 31s-36 11.5 -58 11.5c-19.333 0 -37.166 -3.66699 -53.499 -11s-30.333 -17.333 -42 -30
s-20.667 -27.334 -27 -44.001s-9.5 -34.334 -9.5 -53.001v-275c0 -3.33301 -1.66699 -5 -5 -5h-12c-4 0 -6 1.66699 -6 5v423c0 3.33301 2 5 6 5h12c3.33301 0 5 -1.66699 5 -5v-48c0 -8.66699 2.33301 -9.66699 7 -3c15.333 20.667 34 36 56 46s45.667 15 71 15
c29.333 0 53.833 -4.83301 73.5 -14.5s35.5 -22.334 47.5 -38.001s20.5 -33.167 25.5 -52.5s7.5 -38.666 7.5 -57.999v-270zM69.999 546.002c7.33301 13.333 16.4961 22.667 27.4961 28s23.833 8 38.5 8c9.33301 0 18.5 -1.5 27.5 -4.5s17.833 -6.33301 26.5 -10
s17.167 -7 25.5 -10s16.833 -4.5 25.5 -4.5c22 0 39.667 9 53 27c2.66699 3.33301 5.33398 4.33301 8.00098 3l10 -4c3.33301 -1.33301 4 -4 2 -8c-9.33301 -15.333 -20.666 -25.5 -33.999 -30.5s-26 -7.5 -38 -7.5c-10 0 -19.833 1.5 -29.5 4.5s-19 6.33301 -28 10
s-17.833 7 -26.5 10s-17.667 4.5 -27 4.5c-19.333 0 -33.666 -8 -42.999 -24c-2.66699 -4 -5.66699 -5 -9 -3l-8 3c-3.33301 1.33301 -3.66602 4 -0.999023 8z" />
    <glyph glyph-name="ograve" unicode="&#xf2;" horiz-adv-x="408" 
d="M360 152c0 -50 -13.333 -88.6699 -40 -116.003s-64.667 -41 -114 -41c-51.333 0 -90.166 14.333 -116.499 43s-39.5 66 -39.5 112v134c0 22.667 3.66699 43.334 11 62.001s17.833 34.834 31.5 48.501s30.167 24.334 49.5 32.001s40.666 11.5 63.999 11.5
c48 0 85.667 -14 113 -42s41 -65.667 41 -113v-131zM338 281.997c0 39.333 -11 71.832 -33 97.499s-55 38.5 -99 38.5c-19.333 0 -37.166 -3.5 -53.499 -10.5s-30.5 -16.5 -42.5 -28.5s-21.333 -26.167 -28 -42.5s-10 -34.166 -10 -53.499v-132
c0 -42.667 11.667 -76.167 35 -100.5s56.666 -36.5 99.999 -36.5s76 12.167 98 36.5s33 58.5 33 102.5v129zM239 505.996c2 -4 1.33301 -6.99902 -2 -8.99902l-5 -3c-3.33301 -2 -6.33301 -1 -9 3l-81 117c-1.33301 1.33301 -1.83301 3.16602 -1.5 5.49902s2.5 4.5 6.5 6.5
l15 7c6 2.66699 10 1.66699 12 -3z" />
    <glyph glyph-name="oacute" unicode="&#xf3;" horiz-adv-x="408" 
d="M360 152c0 -50 -13.333 -88.6699 -40 -116.003s-64.667 -41 -114 -41c-51.333 0 -90.166 14.333 -116.499 43s-39.5 66 -39.5 112v134c0 22.667 3.66699 43.334 11 62.001s17.833 34.834 31.5 48.501s30.167 24.334 49.5 32.001s40.666 11.5 63.999 11.5
c48 0 85.667 -14 113 -42s41 -65.667 41 -113v-131zM338 281.997c0 39.333 -11 71.832 -33 97.499s-55 38.5 -99 38.5c-19.333 0 -37.166 -3.5 -53.499 -10.5s-30.5 -16.5 -42.5 -28.5s-21.333 -26.167 -28 -42.5s-10 -34.166 -10 -53.499v-132
c0 -42.667 11.667 -76.167 35 -100.5s56.666 -36.5 99.999 -36.5s76 12.167 98 36.5s33 58.5 33 102.5v129zM197 496.996c-2.66699 -4.66699 -5.66699 -5.66797 -9 -3.00098l-5 3c-3.33301 2 -4 5 -2 9l65 124c2 4.66699 6 5.66699 12 3l15 -7
c4 -2 6.16699 -4.16699 6.5 -6.5s-0.166992 -4.16602 -1.5 -5.49902z" />
    <glyph glyph-name="ocircumflex" unicode="&#xf4;" horiz-adv-x="408" 
d="M360 152c0 -50 -13.333 -88.6699 -40 -116.003s-64.667 -41 -114 -41c-51.333 0 -90.166 14.333 -116.499 43s-39.5 66 -39.5 112v134c0 22.667 3.66699 43.334 11 62.001s17.833 34.834 31.5 48.501s30.167 24.334 49.5 32.001s40.666 11.5 63.999 11.5
c48 0 85.667 -14 113 -42s41 -65.667 41 -113v-131zM338 281.997c0 39.333 -11 71.832 -33 97.499s-55 38.5 -99 38.5c-19.333 0 -37.166 -3.5 -53.499 -10.5s-30.5 -16.5 -42.5 -28.5s-21.333 -26.167 -28 -42.5s-10 -34.166 -10 -53.499v-132
c0 -42.667 11.667 -76.167 35 -100.5s56.666 -36.5 99.999 -36.5s76 12.167 98 36.5s33 58.5 33 102.5v129zM319 498.996c-2.66699 -2.66699 -5.33301 -2.33301 -8 1l-100 103c-3.33301 3.33301 -6 3.33301 -8 0l-97 -104c-3.33301 -3.33301 -6 -4 -8 -2l-6 5
c-1.33301 2 -2 3.16699 -2 3.5s0.666992 1.5 2 3.5l93 117c4 4.66699 8.33301 7 13 7h21c4 0 8 -2.33301 12 -7l93 -114c2.66699 -3.33301 2.66699 -6 0 -8z" />
    <glyph glyph-name="otilde" unicode="&#xf5;" horiz-adv-x="408" 
d="M360 152c0 -50 -13.333 -88.6699 -40 -116.003s-64.667 -41 -114 -41c-51.333 0 -90.166 14.333 -116.499 43s-39.5 66 -39.5 112v134c0 22.667 3.66699 43.334 11 62.001s17.833 34.834 31.5 48.501s30.167 24.334 49.5 32.001s40.666 11.5 63.999 11.5
c48 0 85.667 -14 113 -42s41 -65.667 41 -113v-131zM338 281.997c0 39.333 -11 71.832 -33 97.499s-55 38.5 -99 38.5c-19.333 0 -37.166 -3.5 -53.499 -10.5s-30.5 -16.5 -42.5 -28.5s-21.333 -26.167 -28 -42.5s-10 -34.166 -10 -53.499v-132
c0 -42.667 11.667 -76.167 35 -100.5s56.666 -36.5 99.999 -36.5s76 12.167 98 36.5s33 58.5 33 102.5v129zM85 545.996c7.33301 13.333 16.4961 22.667 27.4961 28s23.833 8 38.5 8c9.33301 0 18.5 -1.5 27.5 -4.5s17.833 -6.33301 26.5 -10s17.167 -7 25.5 -10
s16.833 -4.5 25.5 -4.5c22 0 39.667 9 53 27c2.66699 3.33301 5.33398 4.33301 8.00098 3l10 -4c3.33301 -1.33301 4 -4 2 -8c-9.33301 -15.333 -20.666 -25.5 -33.999 -30.5s-26 -7.5 -38 -7.5c-10 0 -19.833 1.5 -29.5 4.5s-19 6.33301 -28 10s-17.833 7 -26.5 10
s-17.667 4.5 -27 4.5c-19.333 0 -33.666 -8 -42.999 -24c-2.66699 -4 -5.66699 -5 -9 -3l-8 3c-3.33301 1.33301 -3.66602 4 -0.999023 8z" />
    <glyph glyph-name="odieresis" unicode="&#xf6;" horiz-adv-x="408" 
d="M360 152c0 -50 -13.333 -88.6699 -40 -116.003s-64.667 -41 -114 -41c-51.333 0 -90.166 14.333 -116.499 43s-39.5 66 -39.5 112v134c0 22.667 3.66699 43.334 11 62.001s17.833 34.834 31.5 48.501s30.167 24.334 49.5 32.001s40.666 11.5 63.999 11.5
c48 0 85.667 -14 113 -42s41 -65.667 41 -113v-131zM338 281.997c0 39.333 -11 71.832 -33 97.499s-55 38.5 -99 38.5c-19.333 0 -37.166 -3.5 -53.499 -10.5s-30.5 -16.5 -42.5 -28.5s-21.333 -26.167 -28 -42.5s-10 -34.166 -10 -53.499v-132
c0 -42.667 11.667 -76.167 35 -100.5s56.666 -36.5 99.999 -36.5s76 12.167 98 36.5s33 58.5 33 102.5v129zM303 568.996c0 -5.33301 -2.16699 -10.166 -6.5 -14.499s-9.16602 -6.5 -14.499 -6.5s-10 2.16699 -14 6.5s-6 9.16602 -6 14.499c0 6 2 11 6 15s8.66699 6 14 6
s10.166 -2 14.499 -6s6.5 -9 6.5 -15zM153 568.996c0 -6 -2 -10.998 -6 -14.998s-8.66699 -6 -14 -6s-10 2.16699 -14 6.5s-6 9.16602 -6 14.499c0 6 2 11 6 15s8.66699 6 14 6s10 -1.83301 14 -5.5s6 -8.83398 6 -15.501z" />
    <glyph glyph-name="divide" unicode="&#xf7;" horiz-adv-x="430" 
d="M237 404c0 -16.667 -8.33301 -25.002 -25 -25.002c-6.66699 0 -12.334 2.33301 -17.001 7s-7 10.667 -7 18c0 6.66699 2.33301 12.334 7 17.001s10.334 7 17.001 7c7.33301 0 13.333 -2.16699 18 -6.5s7 -10.166 7 -17.499zM237 63.998
c0 -16.667 -8.33301 -25.002 -25 -25.002c-6.66699 0 -12.334 2.33301 -17.001 7s-7 10.667 -7 18c0 6.66699 2.33301 12.334 7 17.001s10.334 7 17.001 7c7.33301 0 13.333 -2.16699 18 -6.5s7 -10.166 7 -17.499zM401 231.996
c0 -3.33301 -0.833008 -5.33203 -2.5 -5.99902s-4.16699 -1 -7.5 -1h-352c-4 0 -6.83301 0.166992 -8.5 0.5s-2.5 2.16602 -2.5 5.49902v10c0 4 0.666992 6.33301 2 7s4.33301 1 9 1h352c4 0 6.66699 -0.333008 8 -1s2 -3 2 -7v-9z" />
    <glyph glyph-name="oslash" unicode="&#xf8;" horiz-adv-x="408" 
d="M78 46c1.33301 2 1.33301 3.66504 0 4.99805c-18.667 25.333 -28 58.333 -28 99v134c0 22.667 3.66699 43.334 11 62.001s17.833 34.834 31.5 48.501s30.167 24.334 49.5 32.001s40.666 11.5 63.999 11.5c22 0 42 -3.33301 60 -10s33.667 -15.667 47 -27
c1.33301 -2 3 -2 5 0l27 39c1.33301 2 2.66602 2.66699 3.99902 2l4 -2l8 -4c2.66699 -2 3 -4.66699 1 -8l-30 -43c-1.33301 -2.66699 -1.66602 -4.33398 -0.999023 -5.00098c9.33301 -13.333 16.5 -28 21.5 -44s7.5 -33.667 7.5 -53v-131c0 -50 -13.333 -88.667 -40 -116
s-64.667 -41 -114 -41c-46 0 -82.667 12 -110 36c-2 2 -4 1.66699 -6 -1l-22 -33c-2 -2 -3.66699 -2.33301 -5 -1l-9 6c-3.33301 2 -3.66602 4.33301 -0.999023 7zM108 56.998c-1.33301 -2 -1.33398 -3.66797 -0.000976562 -5.00098c24 -25.333 57 -38 99 -38
c40.667 0 72.667 12.167 96 36.5s35 58.5 35 102.5v129c0 27.333 -6.33301 52 -19 74c0 0.666992 -0.666992 1.33398 -2 2.00098s-2.66602 0 -3.99902 -2zM91.999 72.9971c0.666992 -2 1.99902 -2.00098 3.99902 -0.000976562l204 301c2 2.66699 2.33301 4.66699 1 6
c-24 25.333 -55.667 38 -95 38c-19.333 0 -37.166 -3.5 -53.499 -10.5s-30.5 -16.5 -42.5 -28.5s-21.333 -26.167 -28 -42.5s-10 -34.166 -10 -53.499v-132c0 -30.667 6.66699 -56.667 20 -78z" />
    <glyph glyph-name="ugrave" unicode="&#xf9;" horiz-adv-x="410" 
d="M363 5c0 -3.33301 -1.99902 -4.99902 -5.99902 -4.99902h-12c-3.33301 0 -5 1.66699 -5 5v48c0 8.66699 -2.33301 9.66699 -7 3c-15.333 -20 -34 -35.167 -56 -45.5s-45.667 -15.5 -71 -15.5c-29.333 0 -53.833 4.83301 -73.5 14.5s-35.5 22.334 -47.5 38.001
s-20.5 33.167 -25.5 52.5s-7.5 38.666 -7.5 57.999v270c0 3.33301 1.66699 5 5 5h12c4 0 6 -1.66699 6 -5v-273c0 -18 2.83301 -35.5 8.5 -52.5s14 -31.833 25 -44.5s24.833 -22.834 41.5 -30.501s36 -11.5 58 -11.5c19.333 0 37.166 3.66699 53.499 11
s30.333 17.166 42 29.499s20.667 26.833 27 43.5s9.5 34.334 9.5 53.001v275c0 3.33301 1.66699 5 5 5h12c4 0 6 -1.66699 6 -5v-423zM238.001 506.001c2 -4 1.33301 -6.99902 -2 -8.99902l-5 -3c-3.33301 -2 -6.33301 -1 -9 3l-81 117
c-1.33301 1.33301 -1.83301 3.16602 -1.5 5.49902s2.5 4.5 6.5 6.5l15 7c6 2.66699 10 1.66699 12 -3z" />
    <glyph glyph-name="uacute" unicode="&#xfa;" horiz-adv-x="410" 
d="M363 5c0 -3.33301 -1.99902 -4.99902 -5.99902 -4.99902h-12c-3.33301 0 -5 1.66699 -5 5v48c0 8.66699 -2.33301 9.66699 -7 3c-15.333 -20 -34 -35.167 -56 -45.5s-45.667 -15.5 -71 -15.5c-29.333 0 -53.833 4.83301 -73.5 14.5s-35.5 22.334 -47.5 38.001
s-20.5 33.167 -25.5 52.5s-7.5 38.666 -7.5 57.999v270c0 3.33301 1.66699 5 5 5h12c4 0 6 -1.66699 6 -5v-273c0 -18 2.83301 -35.5 8.5 -52.5s14 -31.833 25 -44.5s24.833 -22.834 41.5 -30.501s36 -11.5 58 -11.5c19.333 0 37.166 3.66699 53.499 11
s30.333 17.166 42 29.499s20.667 26.833 27 43.5s9.5 34.334 9.5 53.001v275c0 3.33301 1.66699 5 5 5h12c4 0 6 -1.66699 6 -5v-423zM203.001 497.001c-2.66699 -4.66699 -5.66699 -5.66797 -9 -3.00098l-5 3c-3.33301 2 -4 5 -2 9l65 124c2 4.66699 6 5.66699 12 3l15 -7
c4 -2 6.16699 -4.16699 6.5 -6.5s-0.166992 -4.16602 -1.5 -5.49902z" />
    <glyph glyph-name="ucircumflex" unicode="&#xfb;" horiz-adv-x="410" 
d="M363 5c0 -3.33301 -1.99902 -4.99902 -5.99902 -4.99902h-12c-3.33301 0 -5 1.66699 -5 5v48c0 8.66699 -2.33301 9.66699 -7 3c-15.333 -20 -34 -35.167 -56 -45.5s-45.667 -15.5 -71 -15.5c-29.333 0 -53.833 4.83301 -73.5 14.5s-35.5 22.334 -47.5 38.001
s-20.5 33.167 -25.5 52.5s-7.5 38.666 -7.5 57.999v270c0 3.33301 1.66699 5 5 5h12c4 0 6 -1.66699 6 -5v-273c0 -18 2.83301 -35.5 8.5 -52.5s14 -31.833 25 -44.5s24.833 -22.834 41.5 -30.501s36 -11.5 58 -11.5c19.333 0 37.166 3.66699 53.499 11
s30.333 17.166 42 29.499s20.667 26.833 27 43.5s9.5 34.334 9.5 53.001v275c0 3.33301 1.66699 5 5 5h12c4 0 6 -1.66699 6 -5v-423zM312.001 499.001c-2.66699 -2.66699 -5.33301 -2.33301 -8 1l-100 103c-3.33301 3.33301 -6 3.33301 -8 0l-97 -104
c-3.33301 -3.33301 -6 -4 -8 -2l-6 5c-1.33301 2 -2 3.16699 -2 3.5s0.666992 1.5 2 3.5l93 117c4 4.66699 8.33301 7 13 7h21c4 0 8 -2.33301 12 -7l93 -114c2.66699 -3.33301 2.66699 -6 0 -8z" />
    <glyph glyph-name="udieresis" unicode="&#xfc;" horiz-adv-x="410" 
d="M363 5c0 -3.33301 -1.99902 -4.99902 -5.99902 -4.99902h-12c-3.33301 0 -5 1.66699 -5 5v48c0 8.66699 -2.33301 9.66699 -7 3c-15.333 -20 -34 -35.167 -56 -45.5s-45.667 -15.5 -71 -15.5c-29.333 0 -53.833 4.83301 -73.5 14.5s-35.5 22.334 -47.5 38.001
s-20.5 33.167 -25.5 52.5s-7.5 38.666 -7.5 57.999v270c0 3.33301 1.66699 5 5 5h12c4 0 6 -1.66699 6 -5v-273c0 -18 2.83301 -35.5 8.5 -52.5s14 -31.833 25 -44.5s24.833 -22.834 41.5 -30.501s36 -11.5 58 -11.5c19.333 0 37.166 3.66699 53.499 11
s30.333 17.166 42 29.499s20.667 26.833 27 43.5s9.5 34.334 9.5 53.001v275c0 3.33301 1.66699 5 5 5h12c4 0 6 -1.66699 6 -5v-423zM309.001 569.001c0 -5.33301 -2.16699 -10.166 -6.5 -14.499s-9.16602 -6.5 -14.499 -6.5s-10 2.16699 -14 6.5s-6 9.16602 -6 14.499
c0 6 2 11 6 15s8.66699 6 14 6s10.166 -2 14.499 -6s6.5 -9 6.5 -15zM159.001 569.001c0 -6 -2 -10.998 -6 -14.998s-8.66699 -6 -14 -6s-10 2.16699 -14 6.5s-6 9.16602 -6 14.499c0 6 2 11 6 15s8.66699 6 14 6s10 -1.83301 14 -5.5s6 -8.83398 6 -15.501z" />
    <glyph glyph-name="yacute" unicode="&#xfd;" horiz-adv-x="336" 
d="M158 -3v0.999023c0 1.33301 -0.666992 2 -2 2h-4c-4 0 -6.33301 1.66699 -7 5l-141 423c-0.666992 3.33301 1 5 5 5h12c2.66699 0 4.66699 -1.66699 6 -5l134 -403c0.666992 -2 1.5 -3.16699 2.5 -3.5s2.16699 0.833984 3.5 3.50098l137 403
c1.33301 3.33301 3.33301 5 6 5h12c4 0 5.66699 -1.66699 5 -5l-204 -606c-0.666992 -3.33301 -3 -5 -7 -5h-12c-2.66699 0 -4 1.66699 -4 5zM156 496.999c-2.66699 -4.66699 -5.66699 -5.66797 -9 -3.00098l-5 3c-3.33301 2 -4 5 -2 9l65 124c2 4.66699 6 5.66699 12 3
l15 -7c4 -2 6.16699 -4.16699 6.5 -6.5s-0.166992 -4.16602 -1.5 -5.49902z" />
    <glyph glyph-name="thorn" unicode="&#xfe;" horiz-adv-x="411" 
d="M365 158c0 -18.667 -2.49902 -37.666 -7.49902 -56.999s-13.5 -36.833 -25.5 -52.5s-27.833 -28.5 -47.5 -38.5s-43.834 -15 -72.501 -15c-25.333 0 -49 4.83301 -71 14.5s-40.667 24.834 -56 45.501c-4.66699 6.66699 -7 5.66699 -7 -3v-227
c0 -3.33301 -1.66699 -5 -5 -5h-12c-4 0 -6 1.66699 -6 5v807c0 3.33301 2 5 6 5h12c3.33301 0 5 -1.66699 5 -5v-249c0 -6.66699 2.33301 -7.33398 7 -2.00098c13.333 18.667 31.666 32.834 54.999 42.501s47.333 14.5 72 14.5s46.667 -3.83301 66 -11.5
s35.333 -18.334 48 -32.001s22.334 -29.834 29.001 -48.501s10 -38.667 10 -60v-128zM343.001 283.001c0 41.333 -11.5 74.335 -34.5 99.002s-55.833 37 -98.5 37c-20 0 -38.167 -3.33301 -54.5 -10s-30.333 -15.834 -42 -27.501s-20.667 -25.667 -27 -42
s-9.5 -34.166 -9.5 -53.499v-133c0 -18.667 3.33301 -36.334 10 -53.001s15.834 -31.334 27.501 -44.001s25.667 -22.667 42 -30s34.166 -11 53.499 -11c22 0 41.333 3.66699 58 11s30.5 17.333 41.5 30s19.333 27.5 25 44.5s8.5 35.167 8.5 54.5v128z" />
    <glyph glyph-name="ydieresis" unicode="&#xff;" horiz-adv-x="336" 
d="M158 -3v0.999023c0 1.33301 -0.666992 2 -2 2h-4c-4 0 -6.33301 1.66699 -7 5l-141 423c-0.666992 3.33301 1 5 5 5h12c2.66699 0 4.66699 -1.66699 6 -5l134 -403c0.666992 -2 1.5 -3.16699 2.5 -3.5s2.16699 0.833984 3.5 3.50098l137 403
c1.33301 3.33301 3.33301 5 6 5h12c4 0 5.66699 -1.66699 5 -5l-204 -606c-0.666992 -3.33301 -3 -5 -7 -5h-12c-2.66699 0 -4 1.66699 -4 5zM254 568.999c0 -5.33301 -2.16699 -10.166 -6.5 -14.499s-9.16602 -6.5 -14.499 -6.5s-10 2.16699 -14 6.5s-6 9.16602 -6 14.499
c0 6 2 11 6 15s8.66699 6 14 6s10.166 -2 14.499 -6s6.5 -9 6.5 -15zM104 568.999c0 -6 -2 -10.998 -6 -14.998s-8.66699 -6 -14 -6s-10 2.16699 -14 6.5s-6 9.16602 -6 14.499c0 6 2 11 6 15s8.66699 6 14 6s10 -1.83301 14 -5.5s6 -8.83398 6 -15.501z" />
    <glyph glyph-name="Amacron" unicode="&#x100;" horiz-adv-x="439" 
d="M354 159c-0.666992 2.66699 -1.66699 4.16895 -3 4.50195s-2.66602 0.5 -3.99902 0.5h-258c-2.66699 0 -4.33398 -1.33301 -5.00098 -4l-47 -154c-1.33301 -4 -3.66602 -6 -6.99902 -6h-15c-2 0 -3.5 0.166992 -4.5 0.5s-0.833008 2.16602 0.5 5.49902l188 606
c1.33301 3.33301 3 5 5 5h27c4 0 6.33301 -1.66699 7 -5l189 -604c2 -5.33301 1 -8 -3 -8h-14c-2.66699 0 -4.33398 0.166992 -5.00098 0.5s-1.66699 2.16602 -3 5.49902zM174 454.002l-80 -263.001c-1.33301 -3.33301 -1.5 -5.16602 -0.5 -5.49902s2.16699 -0.5 3.5 -0.5
h244c3.33301 0 4.66602 1.66699 3.99902 5l-83 268l-42 134c-1.33301 5.33301 -2.66602 5.33301 -3.99902 0zM305 691.001c0 -3.33301 -1.66699 -5 -5 -5h-166c-3.33301 0 -5 1.66699 -5 5v10c0 4 1.66699 6 5 6h166c3.33301 0 5 -2 5 -6v-10z" />
    <glyph glyph-name="amacron" unicode="&#x101;" horiz-adv-x="355" 
d="M315 5c0 -3.33301 -1.99707 -5.00195 -5.99707 -5.00195h-12c-3.33301 0 -5 1.66699 -5 5v50c0 4 -0.666992 6 -2 6s-2.66602 -1.33301 -3.99902 -4c-12.667 -19.333 -29.5 -34.5 -50.5 -45.5s-45.833 -16.5 -74.5 -16.5c-44 0 -78.167 12.667 -102.5 38
s-36.5 59 -36.5 101c0 20 3.16699 38.833 9.5 56.5s15.666 33.167 27.999 46.5s27.666 24 45.999 32s39.5 12 63.5 12c27.333 0 51.333 -5.66699 72 -17s36 -26.333 46 -45c1.33301 -2.66699 2.5 -3.5 3.5 -2.5s1.5 2.5 1.5 4.5v72c0 14 -1.5 28.5 -4.5 43.5
s-8.66699 28.5 -17 40.5s-20.333 21.833 -36 29.5s-36.5 11.5 -62.5 11.5c-16.667 0 -35.334 -1.83301 -56.001 -5.5s-37.667 -8.5 -51 -14.5c-3.33301 -2.66699 -6 -2 -8 2l-4 9c-0.666992 2.66699 0.666016 5.33398 3.99902 8.00098c16 7.33301 34.833 12.833 56.5 16.5
s41.5 5.5 59.5 5.5c49.333 0 85.333 -12.167 108 -36.5s34 -60.166 34 -107.499v-290zM291.003 137.998c0 16.667 -2.99902 32.668 -8.99902 48.001s-14.333 28.5 -25 39.5s-23.5 19.833 -38.5 26.5s-31.5 10 -49.5 10c-20 0 -37.833 -3.5 -53.5 -10.5
s-28.834 -16.167 -39.501 -27.5s-18.667 -24.833 -24 -40.5s-8 -31.834 -8 -48.501c0 -17.333 2.16699 -33.333 6.5 -48s11.333 -27.5 21 -38.5s22.167 -19.667 37.5 -26s34 -9.5 56 -9.5c18 0 34.833 3.33301 50.5 10s29 15.667 40 27s19.667 24.5 26 39.5
s9.5 31.167 9.5 48.5zM271.004 543.999c0 -3.33301 -1.66699 -5 -5 -5h-166c-3.33301 0 -5 1.66699 -5 5v10c0 4 1.66699 6 5 6h166c3.33301 0 5 -2 5 -6v-10z" />
    <glyph glyph-name="Abreve" unicode="&#x102;" horiz-adv-x="439" 
d="M354 159c-0.666992 2.66699 -1.66699 4.16895 -3 4.50195s-2.66602 0.5 -3.99902 0.5h-258c-2.66699 0 -4.33398 -1.33301 -5.00098 -4l-47 -154c-1.33301 -4 -3.66602 -6 -6.99902 -6h-15c-2 0 -3.5 0.166992 -4.5 0.5s-0.833008 2.16602 0.5 5.49902l188 606
c1.33301 3.33301 3 5 5 5h27c4 0 6.33301 -1.66699 7 -5l189 -604c2 -5.33301 1 -8 -3 -8h-14c-2.66699 0 -4.33398 0.166992 -5.00098 0.5s-1.66699 2.16602 -3 5.49902zM174 454.002l-80 -263.001c-1.33301 -3.33301 -1.5 -5.16602 -0.5 -5.49902s2.16699 -0.5 3.5 -0.5
h244c3.33301 0 4.66602 1.66699 3.99902 5l-83 268l-42 134c-1.33301 5.33301 -2.66602 5.33301 -3.99902 0zM110 748.001c0 2.66699 1.33594 4 4.00293 4h9c2.66699 0 4.66699 -3 6 -9c3.33301 -23.333 13.5 -41.833 30.5 -55.5s36.167 -20.5 57.5 -20.5
c22 0 41.833 6.83301 59.5 20.5s28.167 32.167 31.5 55.5c0.666992 2.66699 1.16699 4.83398 1.5 6.50098s1.5 2.5 3.5 2.5h9c2.66699 0 4 -1.33301 4 -4c0 -16 -3.33301 -30.5 -10 -43.5s-15.334 -23.833 -26.001 -32.5s-22.334 -15.334 -35.001 -20.001
s-25.334 -7 -38.001 -7s-25.334 2.33301 -38.001 7s-24.167 11.5 -34.5 20.5s-18.666 19.833 -24.999 32.5s-9.5 27 -9.5 43z" />
    <glyph glyph-name="abreve" unicode="&#x103;" horiz-adv-x="355" 
d="M315 5c0 -3.33301 -1.99707 -5.00195 -5.99707 -5.00195h-12c-3.33301 0 -5 1.66699 -5 5v50c0 4 -0.666992 6 -2 6s-2.66602 -1.33301 -3.99902 -4c-12.667 -19.333 -29.5 -34.5 -50.5 -45.5s-45.833 -16.5 -74.5 -16.5c-44 0 -78.167 12.667 -102.5 38
s-36.5 59 -36.5 101c0 20 3.16699 38.833 9.5 56.5s15.666 33.167 27.999 46.5s27.666 24 45.999 32s39.5 12 63.5 12c27.333 0 51.333 -5.66699 72 -17s36 -26.333 46 -45c1.33301 -2.66699 2.5 -3.5 3.5 -2.5s1.5 2.5 1.5 4.5v72c0 14 -1.5 28.5 -4.5 43.5
s-8.66699 28.5 -17 40.5s-20.333 21.833 -36 29.5s-36.5 11.5 -62.5 11.5c-16.667 0 -35.334 -1.83301 -56.001 -5.5s-37.667 -8.5 -51 -14.5c-3.33301 -2.66699 -6 -2 -8 2l-4 9c-0.666992 2.66699 0.666016 5.33398 3.99902 8.00098c16 7.33301 34.833 12.833 56.5 16.5
s41.5 5.5 59.5 5.5c49.333 0 85.333 -12.167 108 -36.5s34 -60.166 34 -107.499v-290zM291.003 137.998c0 16.667 -2.99902 32.668 -8.99902 48.001s-14.333 28.5 -25 39.5s-23.5 19.833 -38.5 26.5s-31.5 10 -49.5 10c-20 0 -37.833 -3.5 -53.5 -10.5
s-28.834 -16.167 -39.501 -27.5s-18.667 -24.833 -24 -40.5s-8 -31.834 -8 -48.501c0 -17.333 2.16699 -33.333 6.5 -48s11.333 -27.5 21 -38.5s22.167 -19.667 37.5 -26s34 -9.5 56 -9.5c18 0 34.833 3.33301 50.5 10s29 15.667 40 27s19.667 24.5 26 39.5
s9.5 31.167 9.5 48.5zM77.0039 613.999c0 2.66699 1.33691 4.00391 4.00391 4.00391h8c3.33301 0 5.66602 -3 6.99902 -9c3.33301 -23.333 14 -41.5 32 -54.5s36.667 -19.5 56 -19.5c9.33301 0 19 1.66699 29 5s19.333 8.16602 28 14.499s16 14.166 22 23.499
s10 19.666 12 30.999c1.33301 6 3.33301 9 6 9h8c2.66699 0 4 -1.33301 4 -4c0 -16 -3.33301 -30.5 -10 -43.5s-15.334 -23.833 -26.001 -32.5s-22.334 -15.334 -35.001 -20.001s-25.334 -7 -38.001 -7s-25.334 2.33301 -38.001 7s-24.167 11.5 -34.5 20.5
s-18.666 19.833 -24.999 32.5s-9.5 27 -9.5 43z" />
    <glyph glyph-name="Aogonek" unicode="&#x104;" horiz-adv-x="439" 
d="M410 0c-20.667 -18 -35.333 -37.1689 -44 -57.502s-13 -38.166 -13 -53.499c0 -30.667 16.333 -46 49 -46c10 0 20.833 2.5 32.5 7.5s21.167 10.167 28.5 15.5c2.66699 2 5 1.66699 7 -1l5 -6c1.33301 -1.33301 1 -3 -1 -5c-10.667 -9.33301 -22.667 -16.833 -36 -22.5
s-26.333 -8.5 -39 -8.5c-20.667 0 -37.334 5.5 -50.001 16.5s-19 27.5 -19 49.5c0 10.667 1.83301 21.834 5.5 33.501s8.5 22.834 14.5 33.501s13 20.667 21 30s16 17 24 23l5 3l-46 147c-0.666992 2.66699 -1.66699 4.16699 -3 4.5s-2.66602 0.5 -3.99902 0.5h-258
c-2.66699 0 -4.33398 -1.33301 -5.00098 -4l-47 -154c-1.33301 -4 -3.66602 -6 -6.99902 -6h-15c-2 0 -3.5 0.166992 -4.5 0.5s-0.833008 2.16602 0.5 5.49902l188 606c1.33301 3.33301 3 5 5 5h27c4 0 6.33301 -1.66699 7 -5l189 -604c2 -5.33301 1 -8 -3 -8h-14z
M174.001 453.998l-80 -263.001c-1.33301 -3.33301 -1.5 -5.16602 -0.5 -5.49902s2.16699 -0.5 3.5 -0.5h244c3.33301 0 4.66602 1.66699 3.99902 5l-83 268l-42 134c-1.33301 5.33301 -2.66602 5.33301 -3.99902 0z" />
    <glyph glyph-name="aogonek" unicode="&#x105;" horiz-adv-x="355" 
d="M315 5c0 -3.33301 -1.99512 -5.00488 -5.99512 -5.00488h-10c-20.667 -18 -35.334 -37.167 -44.001 -57.5s-13 -38.166 -13 -53.499c0 -30.667 16.333 -46 49 -46c10 0 20.833 2.5 32.5 7.5s21.167 10.167 28.5 15.5c2.66699 2 5 1.66699 7 -1l5 -6
c1.33301 -1.33301 1 -3 -1 -5c-10.667 -9.33301 -22.667 -16.833 -36 -22.5s-26.333 -8.5 -39 -8.5c-20.667 0 -37.334 5.5 -50.001 16.5s-19 27.5 -19 49.5c0 10.667 1.83301 21.834 5.5 33.501s8.5 22.834 14.5 33.501s13 20.667 21 30s16 17 24 23
c2 2 4.66699 3.66699 8 5v41c0 4 -0.666992 6 -2 6s-2.66602 -1.33301 -3.99902 -4c-12.667 -19.333 -29.5 -34.5 -50.5 -45.5s-45.833 -16.5 -74.5 -16.5c-44 0 -78.167 12.667 -102.5 38s-36.5 59 -36.5 101c0 20 3.16699 38.833 9.5 56.5s15.666 33.167 27.999 46.5
s27.666 24 45.999 32s39.5 12 63.5 12c27.333 0 51.333 -5.66699 72 -17s36 -26.333 46 -45c1.33301 -2.66699 2.5 -3.5 3.5 -2.5s1.5 2.5 1.5 4.5v72c0 14 -1.5 28.5 -4.5 43.5s-8.66699 28.5 -17 40.5s-20.333 21.833 -36 29.5s-36.5 11.5 -62.5 11.5
c-16.667 0 -35.334 -1.83301 -56.001 -5.5s-37.667 -8.5 -51 -14.5c-3.33301 -2.66699 -6 -2 -8 2l-4 9c-0.666992 2.66699 0.666016 5.33398 3.99902 8.00098c16 7.33301 34.833 12.833 56.5 16.5s41.5 5.5 59.5 5.5c49.333 0 85.333 -12.167 108 -36.5
s34 -60.166 34 -107.499v-290zM291.005 137.995c0 16.667 -2.99902 32.668 -8.99902 48.001s-14.333 28.5 -25 39.5s-23.5 19.833 -38.5 26.5s-31.5 10 -49.5 10c-20 0 -37.833 -3.5 -53.5 -10.5s-28.834 -16.167 -39.501 -27.5s-18.667 -24.833 -24 -40.5
s-8 -31.834 -8 -48.501c0 -17.333 2.16699 -33.333 6.5 -48s11.333 -27.5 21 -38.5s22.167 -19.667 37.5 -26s34 -9.5 56 -9.5c18 0 34.833 3.33301 50.5 10s29 15.667 40 27s19.667 24.5 26 39.5s9.5 31.167 9.5 48.5z" />
    <glyph glyph-name="Cacute" unicode="&#x106;" horiz-adv-x="404" 
d="M375 51c-33.333 -38.667 -80.667 -58.0029 -142 -58.0029c-28 0 -52.833 4.16699 -74.5 12.5s-40 19.833 -55 34.5s-26.333 31.834 -34 51.501s-11.5 40.834 -11.5 63.501v313c0 20.667 4.16699 40.5 12.5 59.5s20 35.667 35 50s33.333 25.666 55 33.999
s45.5 12.5 71.5 12.5c28.667 0 55.834 -5 81.501 -15s45.5 -24 59.5 -42c3.33301 -3.33301 3.33301 -6.33301 0 -9l-8 -6c-4.66699 -3.33301 -8.33398 -2.66602 -11.001 2.00098c-12 15.333 -29.333 27.333 -52 36s-46 13 -70 13c-22 0 -42.167 -3.5 -60.5 -10.5
s-34.166 -16.667 -47.499 -29s-23.833 -26.833 -31.5 -43.5s-11.5 -34.667 -11.5 -54v-309c0 -19.333 3.33301 -37.666 10 -54.999s16.5 -32.5 29.5 -45.5s28.833 -23.333 47.5 -31s40.334 -11.5 65.001 -11.5c22 0 44.667 3.83301 68 11.5s41.666 19.834 54.999 36.501
c4 4.66699 6.66699 7 8 7s2.66602 -0.666992 3.99902 -2l5 -4c3.33301 -2.66699 5 -4.83398 5 -6.50098s-1 -3.5 -3 -5.5zM202.999 645.997c-4 -2.66699 -7.33398 -2.66504 -10.001 0.00195312l-4 4c-3.33301 3.33301 -2.66602 6.66602 2.00098 9.99902l105 93
c4 3.33301 8 2.66602 12 -2.00098l12 -12c3.33301 -3.33301 4.5 -6 3.5 -8s-2.16699 -3.66699 -3.5 -5z" />
    <glyph glyph-name="cacute" unicode="&#x107;" horiz-adv-x="355" 
d="M309 61c4 4.66699 7.33398 6 10.001 4l7 -5c4 -2 4.66699 -5 2 -9c-12 -19.333 -29.167 -33.5 -51.5 -42.5s-47.5 -13.5 -75.5 -13.5c-50 0 -88.5 14.333 -115.5 43s-40.5 66 -40.5 112v134c0 22.667 3.83301 43.5 11.5 62.5s18.5 35.167 32.5 48.5
s30.5 23.833 49.5 31.5s39.833 11.5 62.5 11.5c26.667 0 50.834 -4.83301 72.501 -14.5s39.167 -23.167 52.5 -40.5c2.66699 -3.33301 2.66699 -6 0 -8l-10 -8c-2.66699 -2.66699 -5.33398 -2.33398 -8.00098 0.999023c-12 16 -27.5 28.333 -46.5 37s-39.167 13 -60.5 13
c-20 0 -38.167 -3.5 -54.5 -10.5s-30.333 -16.5 -42 -28.5s-20.834 -26.167 -27.501 -42.5s-10 -34.166 -10 -53.499v-132c0 -42.667 12.167 -76 36.5 -100s57.166 -36 98.499 -36c23.333 0 44.333 3.83301 63 11.5s33.334 19.167 44.001 34.5zM193.001 497
c-2.66699 -4.66699 -5.66699 -5.66797 -9 -3.00098l-5 3c-3.33301 2 -4 5 -2 9l65 124c2 4.66699 6 5.66699 12 3l15 -7c4 -2 6.16699 -4.16699 6.5 -6.5s-0.166992 -4.16602 -1.5 -5.49902z" />
    <glyph glyph-name="Ccircumflex" unicode="&#x108;" horiz-adv-x="404" 
d="M375 51c-33.333 -38.667 -80.667 -58.0029 -142 -58.0029c-28 0 -52.833 4.16699 -74.5 12.5s-40 19.833 -55 34.5s-26.333 31.834 -34 51.501s-11.5 40.834 -11.5 63.501v313c0 20.667 4.16699 40.5 12.5 59.5s20 35.667 35 50s33.333 25.666 55 33.999
s45.5 12.5 71.5 12.5c28.667 0 55.834 -5 81.501 -15s45.5 -24 59.5 -42c3.33301 -3.33301 3.33301 -6.33301 0 -9l-8 -6c-4.66699 -3.33301 -8.33398 -2.66602 -11.001 2.00098c-12 15.333 -29.333 27.333 -52 36s-46 13 -70 13c-22 0 -42.167 -3.5 -60.5 -10.5
s-34.166 -16.667 -47.499 -29s-23.833 -26.833 -31.5 -43.5s-11.5 -34.667 -11.5 -54v-309c0 -19.333 3.33301 -37.666 10 -54.999s16.5 -32.5 29.5 -45.5s28.833 -23.333 47.5 -31s40.334 -11.5 65.001 -11.5c22 0 44.667 3.83301 68 11.5s41.666 19.834 54.999 36.501
c4 4.66699 6.66699 7 8 7s2.66602 -0.666992 3.99902 -2l5 -4c3.33301 -2.66699 5 -4.83398 5 -6.50098s-1 -3.5 -3 -5.5zM209.999 749.997c4 4 8.33496 6 13.002 6h21c4 0 8 -2 12 -6l93 -92c3.33301 -3.33301 3.33301 -6 0 -8l-5 -4
c-2.66699 -2 -5.33398 -1.66699 -8.00098 1l-100 80c-3.33301 2 -6 2 -8 0l-97 -80c-2.66699 -2.66699 -5.33398 -3 -8.00098 -1l-5 4c-3.33301 2 -3.33301 4.66699 0 8z" />
    <glyph glyph-name="ccircumflex" unicode="&#x109;" horiz-adv-x="355" 
d="M309 61c4 4.66699 7.33398 6 10.001 4l7 -5c4 -2 4.66699 -5 2 -9c-12 -19.333 -29.167 -33.5 -51.5 -42.5s-47.5 -13.5 -75.5 -13.5c-50 0 -88.5 14.333 -115.5 43s-40.5 66 -40.5 112v134c0 22.667 3.83301 43.5 11.5 62.5s18.5 35.167 32.5 48.5
s30.5 23.833 49.5 31.5s39.833 11.5 62.5 11.5c26.667 0 50.834 -4.83301 72.501 -14.5s39.167 -23.167 52.5 -40.5c2.66699 -3.33301 2.66699 -6 0 -8l-10 -8c-2.66699 -2.66699 -5.33398 -2.33398 -8.00098 0.999023c-12 16 -27.5 28.333 -46.5 37s-39.167 13 -60.5 13
c-20 0 -38.167 -3.5 -54.5 -10.5s-30.333 -16.5 -42 -28.5s-20.834 -26.167 -27.501 -42.5s-10 -34.166 -10 -53.499v-132c0 -42.667 12.167 -76 36.5 -100s57.166 -36 98.499 -36c23.333 0 44.333 3.83301 63 11.5s33.334 19.167 44.001 34.5zM312.001 499
c-2.66699 -2.66699 -5.33301 -2.33301 -8 1l-100 103c-3.33301 3.33301 -6 3.33301 -8 0l-97 -104c-3.33301 -3.33301 -6 -4 -8 -2l-6 5c-1.33301 2 -2 3.16699 -2 3.5s0.666992 1.5 2 3.5l93 117c4 4.66699 8.33301 7 13 7h21c4 0 8 -2.33301 12 -7l93 -114
c2.66699 -3.33301 2.66699 -6 0 -8z" />
    <glyph glyph-name="Cdotaccent" unicode="&#x10a;" horiz-adv-x="404" 
d="M375 51c-33.333 -38.667 -80.667 -58.0029 -142 -58.0029c-28 0 -52.833 4.16699 -74.5 12.5s-40 19.833 -55 34.5s-26.333 31.834 -34 51.501s-11.5 40.834 -11.5 63.501v313c0 20.667 4.16699 40.5 12.5 59.5s20 35.667 35 50s33.333 25.666 55 33.999
s45.5 12.5 71.5 12.5c28.667 0 55.834 -5 81.501 -15s45.5 -24 59.5 -42c3.33301 -3.33301 3.33301 -6.33301 0 -9l-8 -6c-4.66699 -3.33301 -8.33398 -2.66602 -11.001 2.00098c-12 15.333 -29.333 27.333 -52 36s-46 13 -70 13c-22 0 -42.167 -3.5 -60.5 -10.5
s-34.166 -16.667 -47.499 -29s-23.833 -26.833 -31.5 -43.5s-11.5 -34.667 -11.5 -54v-309c0 -19.333 3.33301 -37.666 10 -54.999s16.5 -32.5 29.5 -45.5s28.833 -23.333 47.5 -31s40.334 -11.5 65.001 -11.5c22 0 44.667 3.83301 68 11.5s41.666 19.834 54.999 36.501
c4 4.66699 6.66699 7 8 7s2.66602 -0.666992 3.99902 -2l5 -4c3.33301 -2.66699 5 -4.83398 5 -6.50098s-1 -3.5 -3 -5.5zM239.999 718.997c0 -6 -2 -10.998 -6 -14.998s-8.66699 -6 -14 -6s-10 2.16699 -14 6.5s-6 9.16602 -6 14.499c0 6 2 11 6 15s8.66699 6 14 6
s10 -1.83301 14 -5.5s6 -8.83398 6 -15.501z" />
    <glyph glyph-name="cdotaccent" unicode="&#x10b;" horiz-adv-x="355" 
d="M309 61c4 4.66699 7.33398 6 10.001 4l7 -5c4 -2 4.66699 -5 2 -9c-12 -19.333 -29.167 -33.5 -51.5 -42.5s-47.5 -13.5 -75.5 -13.5c-50 0 -88.5 14.333 -115.5 43s-40.5 66 -40.5 112v134c0 22.667 3.83301 43.5 11.5 62.5s18.5 35.167 32.5 48.5
s30.5 23.833 49.5 31.5s39.833 11.5 62.5 11.5c26.667 0 50.834 -4.83301 72.501 -14.5s39.167 -23.167 52.5 -40.5c2.66699 -3.33301 2.66699 -6 0 -8l-10 -8c-2.66699 -2.66699 -5.33398 -2.33398 -8.00098 0.999023c-12 16 -27.5 28.333 -46.5 37s-39.167 13 -60.5 13
c-20 0 -38.167 -3.5 -54.5 -10.5s-30.333 -16.5 -42 -28.5s-20.834 -26.167 -27.501 -42.5s-10 -34.166 -10 -53.499v-132c0 -42.667 12.167 -76 36.5 -100s57.166 -36 98.499 -36c23.333 0 44.333 3.83301 63 11.5s33.334 19.167 44.001 34.5zM224.001 569
c0 -6 -2 -10.998 -6 -14.998s-8.66699 -6 -14 -6s-10 2.16699 -14 6.5s-6 9.16602 -6 14.499c0 6 2 11 6 15s8.66699 6 14 6s10 -1.83301 14 -5.5s6 -8.83398 6 -15.501z" />
    <glyph glyph-name="Ccaron" unicode="&#x10c;" horiz-adv-x="404" 
d="M375 51c-33.333 -38.667 -80.667 -58.0029 -142 -58.0029c-28 0 -52.833 4.16699 -74.5 12.5s-40 19.833 -55 34.5s-26.333 31.834 -34 51.501s-11.5 40.834 -11.5 63.501v313c0 20.667 4.16699 40.5 12.5 59.5s20 35.667 35 50s33.333 25.666 55 33.999
s45.5 12.5 71.5 12.5c28.667 0 55.834 -5 81.501 -15s45.5 -24 59.5 -42c3.33301 -3.33301 3.33301 -6.33301 0 -9l-8 -6c-4.66699 -3.33301 -8.33398 -2.66602 -11.001 2.00098c-12 15.333 -29.333 27.333 -52 36s-46 13 -70 13c-22 0 -42.167 -3.5 -60.5 -10.5
s-34.166 -16.667 -47.499 -29s-23.833 -26.833 -31.5 -43.5s-11.5 -34.667 -11.5 -54v-309c0 -19.333 3.33301 -37.666 10 -54.999s16.5 -32.5 29.5 -45.5s28.833 -23.333 47.5 -31s40.334 -11.5 65.001 -11.5c22 0 44.667 3.83301 68 11.5s41.666 19.834 54.999 36.501
c4 4.66699 6.66699 7 8 7s2.66602 -0.666992 3.99902 -2l5 -4c3.33301 -2.66699 5 -4.83398 5 -6.50098s-1 -3.5 -3 -5.5zM110.999 742.997c-3.33301 3.33301 -3.33496 6 -0.00195312 8l5 4c2.66699 2 5.33398 1.66699 8.00098 -1l97 -80c2 -2 4.66699 -2 8 0l100 80
c2.66699 2.66699 5.33398 3 8.00098 1l5 -4c3.33301 -2 3.33301 -4.66699 0 -8l-93 -92c-4 -4 -8 -6 -12 -6h-21c-4.66699 0 -9 2 -13 6z" />
    <glyph glyph-name="ccaron" unicode="&#x10d;" horiz-adv-x="355" 
d="M309 61c4 4.66699 7.33398 6 10.001 4l7 -5c4 -2 4.66699 -5 2 -9c-12 -19.333 -29.167 -33.5 -51.5 -42.5s-47.5 -13.5 -75.5 -13.5c-50 0 -88.5 14.333 -115.5 43s-40.5 66 -40.5 112v134c0 22.667 3.83301 43.5 11.5 62.5s18.5 35.167 32.5 48.5
s30.5 23.833 49.5 31.5s39.833 11.5 62.5 11.5c26.667 0 50.834 -4.83301 72.501 -14.5s39.167 -23.167 52.5 -40.5c2.66699 -3.33301 2.66699 -6 0 -8l-10 -8c-2.66699 -2.66699 -5.33398 -2.33398 -8.00098 0.999023c-12 16 -27.5 28.333 -46.5 37s-39.167 13 -60.5 13
c-20 0 -38.167 -3.5 -54.5 -10.5s-30.333 -16.5 -42 -28.5s-20.834 -26.167 -27.501 -42.5s-10 -34.166 -10 -53.499v-132c0 -42.667 12.167 -76 36.5 -100s57.166 -36 98.499 -36c23.333 0 44.333 3.83301 63 11.5s33.334 19.167 44.001 34.5zM314.001 624
c2.66699 -2 2.66602 -4.66699 -0.000976562 -8l-93 -114c-4 -4.66699 -8 -7 -12 -7h-21c-4.66699 0 -9 2.33301 -13 7l-93 117c-1.33301 2 -2 3.16699 -2 3.5s0.666992 1.5 2 3.5l6 5c2 2 4.66699 1.33301 8 -2l97 -104c2 -3.33301 4.66699 -3.33301 8 0l100 103
c2.66699 2.66699 5.33398 3 8.00098 1z" />
    <glyph glyph-name="Dcaron" unicode="&#x10e;" horiz-adv-x="464" 
d="M414 158c0 -50 -13.833 -88.833 -41.5 -116.5s-66.167 -41.5 -115.5 -41.5h-190c-3.33301 0 -5 2 -5 6v605c0 4 1.66699 6 5 6h191c104 0 156 -50.333 156 -151v-308zM390 458c0 18.667 -1.66699 36.332 -5 52.999s-10 31.334 -20 44.001s-23.667 22.667 -41 30
s-40 11 -68 11h-164c-4.66699 0 -7 -1.66699 -7 -5v-565c0 -3.33301 2.33301 -5 7 -5h164c40.667 0 73.167 11.167 97.5 33.5s36.5 56.833 36.5 103.5v300zM108 742.998c-3.33301 3.33301 -3.33496 6 -0.00195312 8l5 4c2.66699 2 5.33398 1.66699 8.00098 -1l97 -80
c2 -2 4.66699 -2 8 0l100 80c2.66699 2.66699 5.33398 3 8.00098 1l5 -4c3.33301 -2 3.33301 -4.66699 0 -8l-93 -92c-4 -4 -8 -6 -12 -6h-21c-4.66699 0 -9 2 -13 6z" />
    <glyph glyph-name="dcaron" unicode="&#x10f;" horiz-adv-x="483" 
d="M443 501c-0.666992 -4.66699 -2.66699 -7 -6 -7h-7c-3.33301 0 -5 2.66699 -5 8l7 130c0 4 2.33301 6 7 6h26c6 0 8 -3 6 -9zM359 5c0 -3.33301 -2.00195 -5.00488 -6.00195 -5.00488h-12c-3.33301 0 -5 1.66699 -5 5v49c0 6.66699 -2.33301 7.33398 -7 2.00098
c-15.333 -21.333 -34 -36.833 -56 -46.5s-45.333 -14.5 -70 -14.5c-25.333 0 -47.5 3.83301 -66.5 11.5s-35 18.334 -48 32.001s-22.833 29.834 -29.5 48.501s-10 38.667 -10 60v130c0 18.667 2.83301 37.5 8.5 56.5s14.834 36.333 27.501 52s28.667 28.334 48 38.001
s43 14.5 71 14.5c25.333 0 49.333 -5.5 72 -16.5s40.334 -26.5 53.001 -46.5c2 -3.33301 3.66699 -4.66602 5 -3.99902s2 3 2 7v254c0 3.33301 1.66699 5 5 5h12c4 0 6 -1.66699 6 -5v-627zM336.998 279.995c0 18.667 -3.33203 36.332 -9.99902 52.999
s-15.834 31.334 -27.501 44.001s-25.667 22.667 -42 30s-34.166 11 -53.499 11c-22.667 0 -42.334 -3.83301 -59.001 -11.5s-30.5 -18 -41.5 -31s-19.167 -28 -24.5 -45s-8 -34.5 -8 -52.5v-128c0 -40 11.5 -72.667 34.5 -98s55.833 -38 98.5 -38
c20 0 38.167 3.33301 54.5 10s30.333 15.834 42 27.501s20.667 25.667 27 42s9.5 34.166 9.5 53.499v133z" />
    <glyph glyph-name="Dcroat" unicode="&#x110;" horiz-adv-x="444" 
d="M394 158c0 -50 -13.833 -88.833 -41.5 -116.5s-66.167 -41.5 -115.5 -41.5h-170c-3.33301 0 -5 2 -5 6v296c0 5.33301 -3 8 -9 8h-47c-3.33301 0 -5 1.66699 -5 5v7c0 4 1.66699 6 5 6h48c3.33301 0 5.5 0.5 6.5 1.5s1.5 3.5 1.5 7.5v274c0 4 1.66699 6 5 6h171
c104 0 156 -50.333 156 -151v-308zM267 315c0 -3.33301 -1.66699 -5.00098 -5 -5.00098h-170c-4.66699 0 -7 -2.66699 -7 -8v-276c0 -3.33301 2.33301 -5 7 -5h144c40.667 0 73.167 11.833 97.5 35.5s36.5 57.5 36.5 101.5v300c0 18.667 -1.83301 36.334 -5.5 53.001
s-10.334 31.334 -20.001 44.001s-22.667 22.667 -39 30s-37.166 11 -62.499 11h-151c-4.66699 0 -7 -1.66699 -7 -5v-254c0 -2.66699 0.333008 -4.83398 1 -6.50098s2.66699 -2.5 6 -2.5h170c3.33301 0 5 -2 5 -6v-7z" />
    <glyph glyph-name="dcroat" unicode="&#x111;" horiz-adv-x="409" 
d="M336 512c0 5.33301 -2.33203 7.99414 -6.99902 7.99414h-70c-3.33301 0 -5 1.66699 -5 5v7c0 4 1.66699 6 5 6h70c3.33301 0 5.33301 0.833008 6 2.5s1 3.83398 1 6.50098v85c0 3.33301 1.66699 5 5 5h12c4 0 6 -1.66699 6 -5v-85c0 -4 0.5 -6.5 1.5 -7.5
s3.16699 -1.5 6.5 -1.5h38c3.33301 0 5 -2 5 -6v-7c0 -3.33301 -1.66699 -5 -5 -5h-37c-6 0 -9 -2.66699 -9 -8v-507c0 -3.33301 -2 -5 -6 -5h-12c-3.33301 0 -5 1.66699 -5 5v44c0 6.66699 -2.33301 7.33398 -7 2.00098c-13.333 -18.667 -31.666 -32.667 -54.999 -42
s-47.333 -14 -72 -14c-25.333 0 -47.5 3.83301 -66.5 11.5s-34.833 18.334 -47.5 32.001s-22.334 29.834 -29.001 48.501s-10 38.667 -10 60v130c0 18.667 2.83301 37.5 8.5 56.5s14.5 36.333 26.5 52s27.667 28.334 47 38.001s43 14.5 71 14.5
c25.333 0 49.666 -5 72.999 -15s41.333 -25 54 -45c2 -3.33301 3.66699 -4.66602 5 -3.99902s2 3 2 7v131zM337.001 279.994c0 18.667 -3.33301 36.332 -10 52.999s-15.834 31.334 -27.501 44.001s-25.667 22.667 -42 30s-34.166 11 -53.499 11
c-21.333 0 -40.333 -3.83301 -57 -11.5s-30.667 -18 -42 -31s-19.833 -28 -25.5 -45s-8.5 -34.5 -8.5 -52.5v-128c0 -40 11.5 -72.667 34.5 -98s55.833 -38 98.5 -38c20 0 38.167 3.33301 54.5 10s30.333 15.834 42 27.501s20.667 25.667 27 42s9.5 34.166 9.5 53.499v133z
" />
    <glyph glyph-name="Emacron" unicode="&#x112;" horiz-adv-x="423" 
d="M393 6c0 -4 -1.66602 -6 -4.99902 -6h-321c-3.33301 0 -5 2 -5 6v605c0 4 1.66699 6 5 6h304c3.33301 0 5 -2 5 -6v-10c0 -3.33301 -1.66699 -5 -5 -5h-279c-4.66699 0 -7 -1.66699 -7 -5v-258c0 -2 0.166992 -3.33301 0.5 -4s2.16602 -1 5.49902 -1h249
c3.33301 0 5 -2 5 -6v-10c0 -3.33301 -1.66699 -5 -5 -5h-249c-4 0 -6 -2 -6 -6v-275c0 -3.33301 2.33301 -5 7 -5h296c3.33301 0 5 -1.66699 5 -5v-10zM302.001 691c0 -3.33301 -1.66699 -5 -5 -5h-166c-3.33301 0 -5 1.66699 -5 5v10c0 4 1.66699 6 5 6h166
c3.33301 0 5 -2 5 -6v-10z" />
    <glyph glyph-name="emacron" unicode="&#x113;" horiz-adv-x="393" 
d="M358 234c0 -9.33301 -3.66797 -13.9961 -11.001 -13.9961h-267c-6.66699 0 -10 -3.33301 -10 -10v-62c0 -38.667 11.333 -70.667 34 -96s56.334 -38 101.001 -38c28 0 50 4.33301 66 13s30 20 42 34c2.66699 3.33301 4.5 5.16602 5.5 5.49902s2.16699 -0.166992 3.5 -1.5
l7 -5c4 -2 4.66699 -5 2 -9c-16 -21.333 -34.333 -36 -55 -44s-45 -12 -73 -12c-49.333 0 -87.5 14 -114.5 42s-40.5 65.333 -40.5 112v132c0 25.333 4 47.666 12 66.999s19 35.666 33 48.999s30.333 23.5 49 30.5s38.667 10.5 60 10.5s41.5 -3.16699 60.5 -9.5
s35.5 -16 49.5 -29s25.167 -29.833 33.5 -50.5s12.5 -45.334 12.5 -74.001v-41zM335.999 282.004c0 40 -12.167 72.666 -36.5 97.999s-56.833 38 -97.5 38c-18.667 0 -36 -3.33301 -52 -10s-30 -16 -42 -28s-21.333 -26.167 -28 -42.5s-10 -34.166 -10 -53.499v-32
c0 -7.33301 3.33301 -11 10 -11h247c6 0 9 3.66699 9 11v30zM286.999 544.003c0 -3.33301 -1.66699 -5 -5 -5h-166c-3.33301 0 -5 1.66699 -5 5v10c0 4 1.66699 6 5 6h166c3.33301 0 5 -2 5 -6v-10z" />
    <glyph glyph-name="Ebreve" unicode="&#x114;" horiz-adv-x="423" 
d="M393 6c0 -4 -1.66602 -6 -4.99902 -6h-321c-3.33301 0 -5 2 -5 6v605c0 4 1.66699 6 5 6h304c3.33301 0 5 -2 5 -6v-10c0 -3.33301 -1.66699 -5 -5 -5h-279c-4.66699 0 -7 -1.66699 -7 -5v-258c0 -2 0.166992 -3.33301 0.5 -4s2.16602 -1 5.49902 -1h249
c3.33301 0 5 -2 5 -6v-10c0 -3.33301 -1.66699 -5 -5 -5h-249c-4 0 -6 -2 -6 -6v-275c0 -3.33301 2.33301 -5 7 -5h296c3.33301 0 5 -1.66699 5 -5v-10zM114.001 748c0 2.66699 1.33594 4 4.00293 4h9c2.66699 0 4.66699 -3 6 -9c3.33301 -23.333 13.5 -41.833 30.5 -55.5
s36.167 -20.5 57.5 -20.5c22 0 41.833 6.83301 59.5 20.5s28.167 32.167 31.5 55.5c0.666992 2.66699 1.16699 4.83398 1.5 6.50098s1.5 2.5 3.5 2.5h9c2.66699 0 4 -1.33301 4 -4c0 -16 -3.33301 -30.5 -10 -43.5s-15.334 -23.833 -26.001 -32.5
s-22.334 -15.334 -35.001 -20.001s-25.334 -7 -38.001 -7s-25.334 2.33301 -38.001 7s-24.167 11.5 -34.5 20.5s-18.666 19.833 -24.999 32.5s-9.5 27 -9.5 43z" />
    <glyph glyph-name="ebreve" unicode="&#x115;" horiz-adv-x="393" 
d="M358 234c0 -9.33301 -3.66797 -13.9961 -11.001 -13.9961h-267c-6.66699 0 -10 -3.33301 -10 -10v-62c0 -38.667 11.333 -70.667 34 -96s56.334 -38 101.001 -38c28 0 50 4.33301 66 13s30 20 42 34c2.66699 3.33301 4.5 5.16602 5.5 5.49902s2.16699 -0.166992 3.5 -1.5
l7 -5c4 -2 4.66699 -5 2 -9c-16 -21.333 -34.333 -36 -55 -44s-45 -12 -73 -12c-49.333 0 -87.5 14 -114.5 42s-40.5 65.333 -40.5 112v132c0 25.333 4 47.666 12 66.999s19 35.666 33 48.999s30.333 23.5 49 30.5s38.667 10.5 60 10.5s41.5 -3.16699 60.5 -9.5
s35.5 -16 49.5 -29s25.167 -29.833 33.5 -50.5s12.5 -45.334 12.5 -74.001v-41zM335.999 282.004c0 40 -12.167 72.666 -36.5 97.999s-56.833 38 -97.5 38c-18.667 0 -36 -3.33301 -52 -10s-30 -16 -42 -28s-21.333 -26.167 -28 -42.5s-10 -34.166 -10 -53.499v-32
c0 -7.33301 3.33301 -11 10 -11h247c6 0 9 3.66699 9 11v30zM97.999 614.003c0 2.66699 1.33691 4.00391 4.00391 4.00391h8c3.33301 0 5.66602 -3 6.99902 -9c3.33301 -23.333 14 -41.5 32 -54.5s36.667 -19.5 56 -19.5c9.33301 0 19 1.66699 29 5
s19.333 8.16602 28 14.499s16 14.166 22 23.499s10 19.666 12 30.999c1.33301 6 3.33301 9 6 9h8c2.66699 0 4 -1.33301 4 -4c0 -16 -3.33301 -30.5 -10 -43.5s-15.334 -23.833 -26.001 -32.5s-22.334 -15.334 -35.001 -20.001s-25.334 -7 -38.001 -7
s-25.334 2.33301 -38.001 7s-24.167 11.5 -34.5 20.5s-18.666 19.833 -24.999 32.5s-9.5 27 -9.5 43z" />
    <glyph glyph-name="Edotaccent" unicode="&#x116;" horiz-adv-x="423" 
d="M393 6c0 -4 -1.66602 -6 -4.99902 -6h-321c-3.33301 0 -5 2 -5 6v605c0 4 1.66699 6 5 6h304c3.33301 0 5 -2 5 -6v-10c0 -3.33301 -1.66699 -5 -5 -5h-279c-4.66699 0 -7 -1.66699 -7 -5v-258c0 -2 0.166992 -3.33301 0.5 -4s2.16602 -1 5.49902 -1h249
c3.33301 0 5 -2 5 -6v-10c0 -3.33301 -1.66699 -5 -5 -5h-249c-4 0 -6 -2 -6 -6v-275c0 -3.33301 2.33301 -5 7 -5h296c3.33301 0 5 -1.66699 5 -5v-10zM242.001 719c0 -6 -2 -10.998 -6 -14.998s-8.66699 -6 -14 -6s-10 2.16699 -14 6.5s-6 9.16602 -6 14.499
c0 6 2 11 6 15s8.66699 6 14 6s10 -1.83301 14 -5.5s6 -8.83398 6 -15.501z" />
    <glyph glyph-name="edotaccent" unicode="&#x117;" horiz-adv-x="393" 
d="M358 234c0 -9.33301 -3.66797 -13.9961 -11.001 -13.9961h-267c-6.66699 0 -10 -3.33301 -10 -10v-62c0 -38.667 11.333 -70.667 34 -96s56.334 -38 101.001 -38c28 0 50 4.33301 66 13s30 20 42 34c2.66699 3.33301 4.5 5.16602 5.5 5.49902s2.16699 -0.166992 3.5 -1.5
l7 -5c4 -2 4.66699 -5 2 -9c-16 -21.333 -34.333 -36 -55 -44s-45 -12 -73 -12c-49.333 0 -87.5 14 -114.5 42s-40.5 65.333 -40.5 112v132c0 25.333 4 47.666 12 66.999s19 35.666 33 48.999s30.333 23.5 49 30.5s38.667 10.5 60 10.5s41.5 -3.16699 60.5 -9.5
s35.5 -16 49.5 -29s25.167 -29.833 33.5 -50.5s12.5 -45.334 12.5 -74.001v-41zM335.999 282.004c0 40 -12.167 72.666 -36.5 97.999s-56.833 38 -97.5 38c-18.667 0 -36 -3.33301 -52 -10s-30 -16 -42 -28s-21.333 -26.167 -28 -42.5s-10 -34.166 -10 -53.499v-32
c0 -7.33301 3.33301 -11 10 -11h247c6 0 9 3.66699 9 11v30zM227.999 569.003c0 -6 -2 -10.998 -6 -14.998s-8.66699 -6 -14 -6s-10 2.16699 -14 6.5s-6 9.16602 -6 14.499c0 6 2 11 6 15s8.66699 6 14 6s10 -1.83301 14 -5.5s6 -8.83398 6 -15.501z" />
    <glyph glyph-name="Eogonek" unicode="&#x118;" horiz-adv-x="423" 
d="M393 6c0 -4 -1.66504 -6.00098 -4.99805 -6.00098h-41c-20.667 -18 -35.334 -37.167 -44.001 -57.5s-13 -38.166 -13 -53.499c0 -30.667 16.333 -46 49 -46c10 0 20.833 2.5 32.5 7.5s21.167 10.167 28.5 15.5c2.66699 2 5 1.66699 7 -1l5 -6
c1.33301 -1.33301 1 -3 -1 -5c-10.667 -9.33301 -22.667 -16.833 -36 -22.5s-26.333 -8.5 -39 -8.5c-20.667 0 -37.334 5.5 -50.001 16.5s-19 27.5 -19 49.5c0 19.333 5.33301 39.333 16 60s23.334 37.667 38.001 51h-254c-3.33301 0 -5 2 -5 6v605c0 4 1.66699 6 5 6h304
c3.33301 0 5 -2 5 -6v-10c0 -3.33301 -1.66699 -5 -5 -5h-279c-4.66699 0 -7 -1.66699 -7 -5v-258c0 -2 0.166992 -3.33301 0.5 -4s2.16602 -1 5.49902 -1h249c3.33301 0 5 -2 5 -6v-10c0 -3.33301 -1.66699 -5 -5 -5h-249c-4 0 -6 -2 -6 -6v-275
c0 -3.33301 2.33301 -5 7 -5h296c3.33301 0 5 -1.66699 5 -5v-10v0z" />
    <glyph glyph-name="eogonek" unicode="&#x119;" horiz-adv-x="393" 
d="M358 234c0 -9.33301 -3.66797 -13.9961 -11.001 -13.9961h-267c-6.66699 0 -10 -3.33301 -10 -10v-62c0 -38.667 11.333 -70.667 34 -96s56.334 -38 101.001 -38c28 0 50 4.33301 66 13s30 20 42 34c2.66699 3.33301 4.5 5.16602 5.5 5.49902s2.16699 -0.166992 3.5 -1.5
l7 -5c4 -2 4.66699 -5 2 -9c-13.333 -18 -29.333 -31.667 -48 -41c-21.333 -18 -36.666 -37.5 -45.999 -58.5s-14 -39.167 -14 -54.5c0 -30.667 16.333 -46 49 -46c10 0 20.833 2.5 32.5 7.5s21.167 10.167 28.5 15.5c2.66699 2 5 1.66699 7 -1l5 -6
c1.33301 -1.33301 1 -3 -1 -5c-10.667 -9.33301 -22.667 -16.833 -36 -22.5s-26.333 -8.5 -39 -8.5c-20.667 0 -37.334 5.5 -50.001 16.5s-19 27.5 -19 49.5c0 17.333 4.33301 35.333 13 54s19 34.667 31 48c-11.333 -2.66699 -25 -4 -41 -4c-49.333 0 -87.5 14 -114.5 42
s-40.5 65.333 -40.5 112v132c0 25.333 4 47.666 12 66.999s19 35.666 33 48.999s30.333 23.5 49 30.5s38.667 10.5 60 10.5s41.5 -3.16699 60.5 -9.5s35.5 -16 49.5 -29s25.167 -29.833 33.5 -50.5s12.5 -45.334 12.5 -74.001v-41zM335.999 282.004
c0 40 -12.167 72.666 -36.5 97.999s-56.833 38 -97.5 38c-18.667 0 -36 -3.33301 -52 -10s-30 -16 -42 -28s-21.333 -26.167 -28 -42.5s-10 -34.166 -10 -53.499v-32c0 -7.33301 3.33301 -11 10 -11h247c6 0 9 3.66699 9 11v30z" />
    <glyph glyph-name="Ecaron" unicode="&#x11a;" horiz-adv-x="423" 
d="M393 6c0 -4 -1.66602 -6 -4.99902 -6h-321c-3.33301 0 -5 2 -5 6v605c0 4 1.66699 6 5 6h304c3.33301 0 5 -2 5 -6v-10c0 -3.33301 -1.66699 -5 -5 -5h-279c-4.66699 0 -7 -1.66699 -7 -5v-258c0 -2 0.166992 -3.33301 0.5 -4s2.16602 -1 5.49902 -1h249
c3.33301 0 5 -2 5 -6v-10c0 -3.33301 -1.66699 -5 -5 -5h-249c-4 0 -6 -2 -6 -6v-275c0 -3.33301 2.33301 -5 7 -5h296c3.33301 0 5 -1.66699 5 -5v-10zM100.001 743c-3.33301 3.33301 -3.33496 6 -0.00195312 8l5 4c2.66699 2 5.33398 1.66699 8.00098 -1l97 -80
c2 -2 4.66699 -2 8 0l100 80c2.66699 2.66699 5.33398 3 8.00098 1l5 -4c3.33301 -2 3.33301 -4.66699 0 -8l-93 -92c-4 -4 -8 -6 -12 -6h-21c-4.66699 0 -9 2 -13 6z" />
    <glyph glyph-name="ecaron" unicode="&#x11b;" horiz-adv-x="393" 
d="M358 234c0 -9.33301 -3.66797 -13.9961 -11.001 -13.9961h-267c-6.66699 0 -10 -3.33301 -10 -10v-62c0 -38.667 11.333 -70.667 34 -96s56.334 -38 101.001 -38c28 0 50 4.33301 66 13s30 20 42 34c2.66699 3.33301 4.5 5.16602 5.5 5.49902s2.16699 -0.166992 3.5 -1.5
l7 -5c4 -2 4.66699 -5 2 -9c-16 -21.333 -34.333 -36 -55 -44s-45 -12 -73 -12c-49.333 0 -87.5 14 -114.5 42s-40.5 65.333 -40.5 112v132c0 25.333 4 47.666 12 66.999s19 35.666 33 48.999s30.333 23.5 49 30.5s38.667 10.5 60 10.5s41.5 -3.16699 60.5 -9.5
s35.5 -16 49.5 -29s25.167 -29.833 33.5 -50.5s12.5 -45.334 12.5 -74.001v-41zM335.999 282.004c0 40 -12.167 72.666 -36.5 97.999s-56.833 38 -97.5 38c-18.667 0 -36 -3.33301 -52 -10s-30 -16 -42 -28s-21.333 -26.167 -28 -42.5s-10 -34.166 -10 -53.499v-32
c0 -7.33301 3.33301 -11 10 -11h247c6 0 9 3.66699 9 11v30zM314.999 624.003c2.66699 -2 2.66602 -4.66699 -0.000976562 -8l-93 -114c-4 -4.66699 -8 -7 -12 -7h-21c-4.66699 0 -9 2.33301 -13 7l-93 117c-1.33301 2 -2 3.16699 -2 3.5s0.666992 1.5 2 3.5l6 5
c2 2 4.66699 1.33301 8 -2l97 -104c2 -3.33301 4.66699 -3.33301 8 0l100 103c2.66699 2.66699 5.33398 3 8.00098 1z" />
    <glyph glyph-name="Gcircumflex" unicode="&#x11c;" horiz-adv-x="452" 
d="M407 153c0 -23.333 -4.16895 -44.6709 -12.502 -64.0039s-20 -36.166 -35 -50.499s-33.167 -25.5 -54.5 -33.5s-45.333 -12 -72 -12c-25.333 0 -48.666 3.66699 -69.999 11s-39.833 18 -55.5 32s-27.834 30.667 -36.501 50s-13 41 -13 65v319
c0 20.667 4.33301 40.334 13 59.001s20.667 35 36 49s33.5 25.167 54.5 33.5s44.167 12.5 69.5 12.5c28.667 0 56.334 -4.83301 83.001 -14.5s47 -23.5 61 -41.5c3.33301 -3.33301 3.33301 -6.33301 0 -9l-8 -7c-4.66699 -3.33301 -8.33398 -2.66602 -11.001 2.00098
c-12 15.333 -29.833 27.333 -53.5 36s-47.5 13 -71.5 13c-21.333 0 -41.166 -3.5 -59.499 -10.5s-34.166 -16.5 -47.499 -28.5s-23.833 -26.167 -31.5 -42.5s-11.5 -34.166 -11.5 -53.499v-315c0 -22 4 -41.5 12 -58.5s19 -31.5 33 -43.5s30.167 -21.167 48.5 -27.5
s37.833 -9.5 58.5 -9.5c21.333 0 41.166 3 59.499 9s34.333 15 48 27s24.334 26.667 32.001 44s11.5 37.333 11.5 60v147c0 4 -2 6 -6 6h-95c-3.33301 0 -5 1.66699 -5 5v10c0 4 1.66699 6 5 6h117c4.66699 0 7 -2 7 -6v-169zM202.998 749.995c4 4 8.33496 6 13.002 6h21
c4 0 8 -2 12 -6l93 -92c3.33301 -3.33301 3.33301 -6 0 -8l-5 -4c-2.66699 -2 -5.33398 -1.66699 -8.00098 1l-100 80c-3.33301 2 -6 2 -8 0l-97 -80c-2.66699 -2.66699 -5.33398 -3 -8.00098 -1l-5 4c-3.33301 2 -3.33301 4.66699 0 8z" />
    <glyph glyph-name="gcircumflex" unicode="&#x11d;" horiz-adv-x="413" 
d="M413 -90c0 -21.333 -6.00098 -41.665 -18.001 -60.998s-28.333 -34.666 -49 -45.999c-3.33301 -2 -6 -1.66699 -8 1l-7 10c-2 3.33301 -1 6.66602 3 9.99902c14 9.33301 26.5 20.833 37.5 34.5s16.5 29.834 16.5 48.501s-4.66699 34.167 -14 46.5
s-21.333 22.166 -36 29.499s-31.5 12.666 -50.5 15.999s-37.833 5 -56.5 5c-21.333 0 -45.666 -1.83301 -72.999 -5.5l-79 -10.5c-8.66699 -1.33301 -14.667 2 -18 10s-5 22.667 -5 44c0 11.333 5.5 27.5 16.5 48.5s28.167 40.5 51.5 58.5c4.66699 2 4.33398 5 -0.999023 9
c-23.333 12.667 -41.166 30.834 -53.499 54.501s-18.5 49.167 -18.5 76.5c0 19.333 3.5 38 10.5 56s17 33.833 30 47.5s29 24.667 48 33s40.167 12.5 63.5 12.5c13.333 0 29 -2.16699 47 -6.5s34.667 -13.166 50 -26.499c5.33301 -4.66699 8.83301 -6.16699 10.5 -4.5
s3.5 3.16699 5.5 4.5c10.667 8 23.167 15.167 37.5 21.5s29.166 10.166 44.499 11.499c5.33301 1.33301 8 -1.33398 8 -8.00098v-19c0 -4.66699 -2 -7 -6 -7c-11.333 -0.666992 -24.333 -2.66699 -39 -6s-24.667 -6.66602 -30 -9.99902
c-3.33301 -2 -4.66602 -4.16699 -3.99902 -6.5s2.66699 -6.16602 6 -11.499c7.33301 -10.667 12.666 -23.167 15.999 -37.5s5 -27.833 5 -40.5c0 -24.667 -4.33301 -46.5 -13 -65.5s-20 -35.167 -34 -48.5s-30.167 -23.5 -48.5 -30.5s-37.5 -10.5 -57.5 -10.5
c-6.66699 0 -13 0.166992 -19 0.5s-12.333 1.16602 -19 2.49902c-5.33301 1.33301 -9 1.66602 -11 0.999023s-4.33301 -2 -7 -4c-7.33301 -4.66699 -14.833 -10.667 -22.5 -18s-14.834 -15.5 -21.501 -24.5s-12 -18.5 -16 -28.5s-6 -19.667 -6 -29
c0 -8 0.833008 -14.667 2.5 -20s6.16699 -7.33301 13.5 -6c20.667 4 42.667 7.5 66 10.5s46 4.5 68 4.5c24 0 47.167 -2.16699 69.5 -6.5s42 -11.333 59 -21s30.5 -21.834 40.5 -36.501s15 -32 15 -52zM330.999 292.001c0 16.667 -3 32.6689 -9 48.002
s-14.5 28.666 -25.5 39.999s-24.5 20.333 -40.5 27s-34 10 -54 10c-19.333 0 -36.833 -3.5 -52.5 -10.5s-29 -16.333 -40 -28s-19.667 -25.334 -26 -41.001s-9.5 -31.834 -9.5 -48.501c0 -16 2.83301 -31.833 8.5 -47.5s14 -29.667 25 -42s24.333 -22.333 40 -30
s33.5 -11.5 53.5 -11.5c20.667 0 39.167 3.83301 55.5 11.5s30 17.834 41 30.501s19.333 27 25 43s8.5 32.333 8.5 49zM312.999 499.003c-2.66699 -2.66699 -5.33301 -2.33301 -8 1l-100 103c-3.33301 3.33301 -6 3.33301 -8 0l-97 -104c-3.33301 -3.33301 -6 -4 -8 -2l-6 5
c-1.33301 2 -2 3.16699 -2 3.5s0.666992 1.5 2 3.5l93 117c4 4.66699 8.33301 7 13 7h21c4 0 8 -2.33301 12 -7l93 -114c2.66699 -3.33301 2.66699 -6 0 -8z" />
    <glyph glyph-name="Gbreve" unicode="&#x11e;" horiz-adv-x="452" 
d="M407 153c0 -23.333 -4.16895 -44.6709 -12.502 -64.0039s-20 -36.166 -35 -50.499s-33.167 -25.5 -54.5 -33.5s-45.333 -12 -72 -12c-25.333 0 -48.666 3.66699 -69.999 11s-39.833 18 -55.5 32s-27.834 30.667 -36.501 50s-13 41 -13 65v319
c0 20.667 4.33301 40.334 13 59.001s20.667 35 36 49s33.5 25.167 54.5 33.5s44.167 12.5 69.5 12.5c28.667 0 56.334 -4.83301 83.001 -14.5s47 -23.5 61 -41.5c3.33301 -3.33301 3.33301 -6.33301 0 -9l-8 -7c-4.66699 -3.33301 -8.33398 -2.66602 -11.001 2.00098
c-12 15.333 -29.833 27.333 -53.5 36s-47.5 13 -71.5 13c-21.333 0 -41.166 -3.5 -59.499 -10.5s-34.166 -16.5 -47.499 -28.5s-23.833 -26.167 -31.5 -42.5s-11.5 -34.166 -11.5 -53.499v-315c0 -22 4 -41.5 12 -58.5s19 -31.5 33 -43.5s30.167 -21.167 48.5 -27.5
s37.833 -9.5 58.5 -9.5c21.333 0 41.166 3 59.499 9s34.333 15 48 27s24.334 26.667 32.001 44s11.5 37.333 11.5 60v147c0 4 -2 6 -6 6h-95c-3.33301 0 -5 1.66699 -5 5v10c0 4 1.66699 6 5 6h117c4.66699 0 7 -2 7 -6v-169zM122.998 747.995
c0 2.66699 1.33594 4 4.00293 4h9c2.66699 0 4.66699 -3 6 -9c3.33301 -23.333 13.5 -41.833 30.5 -55.5s36.167 -20.5 57.5 -20.5c22 0 41.833 6.83301 59.5 20.5s28.167 32.167 31.5 55.5c0.666992 2.66699 1.16699 4.83398 1.5 6.50098s1.5 2.5 3.5 2.5h9
c2.66699 0 4 -1.33301 4 -4c0 -16 -3.33301 -30.5 -10 -43.5s-15.334 -23.833 -26.001 -32.5s-22.334 -15.334 -35.001 -20.001s-25.334 -7 -38.001 -7s-25.334 2.33301 -38.001 7s-24.167 11.5 -34.5 20.5s-18.666 19.833 -24.999 32.5s-9.5 27 -9.5 43z" />
    </font>
</defs>
</svg>
