<svg width="17" height="17" viewBox="0 0 17 17" fill="none" xmlns="http://www.w3.org/2000/svg">
<g clip-path="url(#clip0)">
<path d="M12.5396 13.2927H13.602C14.6944 13.2927 15.5831 12.4041 15.5831 11.3117V10.4595H14.5206C13.4283 10.4595 12.5396 11.3482 12.5396 12.4405V13.2927ZM14.5206 11.4555H14.5765C14.5067 11.9307 14.0963 12.2966 13.602 12.2966H13.5461C13.616 11.8215 14.0264 11.4555 14.5206 11.4555Z" fill="#C55482"/>
<path d="M4.95174 15.025H5.80394V13.9625C5.80394 12.8702 4.91525 11.9814 3.82287 11.9814H2.9707V13.0439C2.9707 14.1363 3.85939 15.025 4.95174 15.025ZM3.96677 12.988C4.44195 13.0579 4.80787 13.4683 4.80787 13.9626V14.0185C4.33269 13.9486 3.96677 13.5382 3.96677 13.0439V12.988Z" fill="#C55482"/>
<path d="M8.99926 16.0039V12.4612C11.1878 12.2015 12.894 10.2524 12.894 7.89366C12.894 6.79766 12.5254 5.7507 11.8517 4.92042C11.8632 4.78143 11.869 4.64232 11.869 4.50469C11.869 1.89036 8.86971 0.203562 8.74201 0.133041L8.50123 0L8.26042 0.133008C8.13276 0.203529 5.13341 1.89036 5.13341 4.50466C5.13341 4.64228 5.13922 4.7814 5.15078 4.92038C4.47704 5.75067 4.10846 6.79766 4.10846 7.89363C4.10846 10.2523 5.81465 12.2015 8.00317 12.4611V16.0039H0.00146484V16.9999H17.0009V16.0039L8.99926 16.0039ZM5.10456 7.8937C5.10456 6.9664 5.43648 6.08554 6.03913 5.41337L6.1912 5.24377L6.16234 5.01783C6.14053 4.84687 6.12944 4.67419 6.12944 4.50469C6.12944 2.851 7.85552 1.57325 8.50176 1.15291C9.14897 1.57212 10.8729 2.84482 10.8729 4.50469C10.8729 4.67419 10.8619 4.84687 10.84 5.01783L10.8112 5.24377L10.9632 5.41337C11.5659 6.08551 11.8978 6.96636 11.8978 7.8937C11.8978 9.70002 10.6368 11.1998 8.99916 11.456V10.1135L10.8574 8.25523L10.1531 7.55092L8.99916 8.70482V6.14773H8.0031V8.70482L6.8492 7.55092L6.14488 8.25523L8.0031 10.1135V11.456C6.36554 11.1998 5.10456 9.70002 5.10456 7.8937Z" fill="#C55482"/>
</g>
<defs>
<clipPath id="clip0">
<rect width="17" height="17" fill="white"/>
</clipPath>
</defs>
</svg>
