<svg width="15" height="15" viewBox="0 0 15 15" fill="none" xmlns="http://www.w3.org/2000/svg">
<path d="M14.3286 1.17534C14.1057 0.952475 13.7444 0.952475 13.5216 1.17534L10.9487 3.74827C9.94287 2.0187 8.94596 0.559402 8.72964 0.246298C8.62304 0.092067 8.44751 0 8.26002 0C8.07254 0 7.89701 0.092067 7.79048 0.246374C7.3249 0.92067 3.24131 6.90777 3.24131 9.46807C3.24131 10.0619 3.34562 10.6318 3.53592 11.1609L0.671115 14.0258C0.448252 14.2486 0.448252 14.61 0.671115 14.8328C0.782508 14.9442 0.928598 15 1.07461 15C1.22063 15 1.36672 14.9443 1.47811 14.8328L4.07592 12.235C4.97544 13.5905 6.51478 14.4865 8.2601 14.4865C11.0281 14.4865 13.2802 12.2352 13.2802 9.46807C13.2802 8.32788 12.4701 6.50822 11.5302 4.78071L14.3286 1.98233C14.5515 1.75955 14.5515 1.39813 14.3286 1.17534ZM4.38263 9.46807C4.38263 7.80835 6.85969 3.71266 8.2601 1.59154C8.78701 2.38918 9.46633 3.46629 10.1087 4.58798L4.45948 10.2372C4.40934 9.98859 4.38263 9.73141 4.38263 9.46807ZM12.1388 9.46807C12.1388 11.6059 10.3988 13.3452 8.26002 13.3452C6.82804 13.3452 5.57578 12.5643 4.90422 11.4066L10.6842 5.62674C11.498 7.15018 12.1388 8.62379 12.1388 9.46807Z" fill="#C55482"/>
</svg>
