<svg width="17" height="17" viewBox="0 0 17 17" fill="none" xmlns="http://www.w3.org/2000/svg">
<g clip-path="url(#clip0)">
<path d="M13.6141 4.37028C12.2443 3.14942 10.4319 2.47705 8.51062 2.47705C6.58938 2.47705 4.77695 3.14942 3.40719 4.37028C2.02407 5.60308 1.25028 7.25079 1.22849 9.0099C1.22642 9.17981 1.31111 9.33895 1.45313 9.43234C1.59502 9.52559 1.77492 9.54012 1.92991 9.4706C2.41862 9.25192 2.94014 9.14103 3.48008 9.14103C4.02106 9.14103 4.54362 9.25244 5.03311 9.4719C5.09783 9.50095 5.16735 9.5156 5.237 9.5156C5.29614 9.5156 5.35541 9.5051 5.41183 9.48383C6.24736 9.1706 7.12024 8.98825 8.0127 8.9387V15.2914C8.0127 15.666 7.70804 15.9705 7.3336 15.9705C6.95915 15.9705 6.65449 15.666 6.65449 15.2914V14.3935C6.65449 14.1185 6.43153 13.8954 6.15644 13.8954C5.88148 13.8954 5.65839 14.1185 5.65839 14.3935V15.2914C5.65839 16.2151 6.40987 16.9666 7.3336 16.9666C8.25719 16.9666 9.00867 16.2151 9.00867 15.2914V8.9387C9.90114 8.98825 10.774 9.1706 11.6095 9.48383C11.7325 9.52987 11.8686 9.52572 11.9883 9.4719C12.4778 9.25244 13.0002 9.14103 13.5413 9.14103C14.0811 9.14103 14.6026 9.25192 15.0913 9.4706C15.2465 9.54012 15.4262 9.52559 15.5682 9.43234C15.7103 9.33895 15.7948 9.17981 15.7928 9.0099C15.771 7.25079 14.9972 5.60308 13.6141 4.37028ZM11.2634 8.32016C10.3723 8.06011 9.44952 7.92821 8.51062 7.92821C7.57185 7.92821 6.6493 8.06011 5.75839 8.32003C5.85022 6.95494 6.21169 5.72526 6.79962 4.80439C7.42711 3.82178 8.11348 3.47315 8.51062 3.47315C9.41541 3.47315 11.0513 5.1346 11.2634 8.32016ZM2.28594 8.29461C2.47504 7.09437 3.09306 5.98465 4.06996 5.11385C4.70367 4.54914 5.44854 4.11996 6.2602 3.84227C6.15644 3.97599 6.05618 4.11801 5.96007 4.26847C5.46047 5.05095 4.87526 6.36429 4.7597 8.3177C4.3457 8.20317 3.91756 8.14494 3.47995 8.14494C3.07256 8.14494 2.67322 8.19513 2.28594 8.29461ZM13.5413 8.14494C13.1037 8.14494 12.6755 8.20317 12.2615 8.3177C12.1456 6.37168 11.5608 5.05873 11.0614 4.27508C10.9635 4.12139 10.8609 3.97651 10.7549 3.84033C11.5691 4.11775 12.3161 4.54771 12.9514 5.11385C13.9283 5.98452 14.5463 7.09424 14.7354 8.29461C14.348 8.19513 13.9487 8.14494 13.5413 8.14494Z" fill="#C55482"/>
<path d="M6.74954 1.49662C6.87691 1.49662 7.0044 1.44799 7.10168 1.35084L7.63539 0.816996C7.82994 0.622576 7.82994 0.307146 7.63539 0.112725C7.44097 -0.0818244 7.12567 -0.0818244 6.93112 0.112596L6.39728 0.646441C6.20286 0.84099 6.20286 1.15629 6.39728 1.35071C6.49455 1.44799 6.62205 1.49662 6.74954 1.49662Z" fill="#C55482"/>
<path d="M9.73773 1.49661C9.86523 1.49661 9.9926 1.44797 10.0899 1.35082L10.6237 0.81698C10.8181 0.62256 10.8181 0.307129 10.6237 0.112709C10.4292 -0.0818406 10.1139 -0.0818406 9.91932 0.112709L9.3856 0.646424C9.19105 0.840974 9.19105 1.15627 9.3856 1.35082C9.48287 1.44797 9.61024 1.49661 9.73773 1.49661Z" fill="#C55482"/>
<path d="M3.5813 2.36228C3.7088 2.36228 3.83629 2.31378 3.93344 2.2165L4.49556 1.65438C4.69011 1.45983 4.69011 1.14453 4.49556 0.950112C4.30114 0.755562 3.98571 0.755562 3.79129 0.950112L3.22916 1.51223C3.03461 1.70665 3.03461 2.02195 3.22916 2.2165C3.32644 2.31378 3.45381 2.36228 3.5813 2.36228Z" fill="#C55482"/>
<path d="M12.878 2.36232C13.0055 2.36232 13.133 2.31368 13.2302 2.21653L13.7923 1.65441C13.9868 1.45986 13.9868 1.14456 13.7923 0.950014C13.5979 0.755594 13.2824 0.755594 13.088 0.950014L12.5259 1.51213C12.3315 1.70668 12.3315 2.02198 12.5259 2.21653C12.6232 2.31381 12.7507 2.36232 12.878 2.36232Z" fill="#C55482"/>
</g>
<defs>
<clipPath id="clip0">
<rect width="17" height="17" fill="white"/>
</clipPath>
</defs>
</svg>
